<svg width="1140" height="422" xmlns="http://www.w3.org/2000/svg"><g fill="#2B3E51" fill-rule="evenodd" opacity=".2"><path d="M6.268 4.858c1.28-1.013.84-2.026.411-3.008-.228-.528-.466-1.078-.471-1.675-.41 0-.827.024-1.246.047C4.55.246 4.135.27 3.724.27 3.162.27 2.704.225 2.29.128A4.591 4.591 0 0 0 1.314 0C.87 0 .547.11.333.335.247.427.239.571.189.685.176.723.158.757.144.794c-.125.387-.16.838-.138 1.348.01.243.018.487.026.759 1.16 1.296 2.465 2.494 4.18 2.494.661 0 1.329-.175 2.056-.536m923.434 223.796a.73.73 0 0 1 .083-.074c-.068.15-.133.291-.209.45a.774.774 0 0 1 .126-.376zm209.42 9.92l-.028-25.462a1.21 1.21 0 0 0-.54-.141.66.66 0 0 0-.358.089c-.686-.29-1.447-.353-2.183-.416-1.156-.094-2.355-.194-3.25-1.194l-1.44-1.858c-.965-2.29-2.692-2.599-4.257-2.599-.591 0-1.204.047-2.005.118-.348-.107-.735-.157-1.214-.157-.311 0-.62.02-.932.042-.306.018-.615.039-.92.039-.736 0-1.59-.102-2.332-.845-.872-1.367-1.913-2.034-3.198-2.034-1.188 0-2.421.555-3.654 1.165l-3.525-.019-3.25-1.041c-2.905-2.382-6.417-3.494-9.814-4.567-2.075-.66-4.223-1.34-6.207-2.304-2.138-.882-4.09-2.206-5.977-3.48-3.11-2.105-6.318-4.277-10.463-4.618-4.336-.358-7.26-1.334-8.686-2.905-1.452-1.594-2.988-2.337-4.838-2.337-1.246 0-2.463.32-3.753.66l-.827.217c-1.41.358-2.748 1.094-4.04 1.811-.584.325-1.168.644-1.757.932-.63.27-1.264.55-1.89.832-1.465.654-2.983 1.33-4.53 1.814-.235.076-.47.139-.706.199-1.065.28-2.03.607-2.292 1.8-.003.008-.003.019-.006.03-.044.219-.115.41-.104.698l-.029 2.335c-.272.479.144 1.01.542 1.52.35.443.714.906.58 1.296-.114.335-.58.604-1.46.86a1.49 1.49 0 0 0-.11.477l-.973.555-.463.152c-.314-.092-.644-.183-.99-.194-.656.045-1.25.325-1.805.623-.374.359-.843.406-1.21.406-.206 0-.418-.018-.627-.032-.215-.018-.427-.036-.636-.036-.568 0-1.204.107-1.61.877-.172.052-.345.13-.515.206-.325.144-.657.288-1.044.288h-.013c-.812-.07-1.61-.118-2.371-.118-2.994 0-6.116.707-6.58 5.955-.018.23-.075.453-.146.667-.013.034-.02.068-.034.105-.602 1.633-2.491 2.798-3.352 3.258-4.028.903-6.19 3.16-6.598 6.902-.065.568-.384.987-.693 1.393-.194.248-.39.507-.516.785-.264.28-.557.544-.845.806-.927.837-1.887 1.706-1.976 3.12-.348.17-.725.288-1.107.408-.884.27-1.798.555-2.285 1.56l-1.787 2.533-.78.155c-2.065.413-4.203.84-6.226.84-3.281.003-5.767-1.139-7.816-3.583l-.62-1.492c.005-.199-.056-.34-.17-.364.172-.251.17-.513.004-.712.123-.53.469-1.041.801-1.533.74-1.094 1.505-2.228.016-3.688-.432-.424-.853-.633-1.28-.633-.612 0-1.143.431-1.662.845a4.401 4.401 0 0 0-.5.455c-.012.008-.023.019-.036.026l-.89-2.525c-.073-.723-.018-1.505.029-2.256.152-2.212.301-4.494-2.661-5.659-.074-.212-.113-.426-.173-.69a5.6 5.6 0 0 0-1.382-.197c-.186 0-.298.078-.46.102-.131.018-.25.052-.367.084-.345.102-.654.259-.903.479-.068.055-.133.11-.193.17-.657.696-1.045 1.73-1.359 2.92l-1.8-2.347-1.633-2.094c.12-.4.188-.77.186-1.162-2.17-2.876-2.112-6.208-2.057-9.433.013-.706.023-1.413.013-2.127-.51-2.238.264-4.24 1.013-6.177.426-1.1.863-2.238 1.065-3.418l.068-3.235c.267-2.516-.79-4.57-3.23-6.266l-1.269-1.612c-.086-.236-.207-.466-.324-.7-.361-.69-.699-1.345-.278-2.093.725-1.285.96-2.298.725-3.096-.33-1.113-1.507-1.733-2.873-2.45a29.28 29.28 0 0 1-1.17-.633c-1.068-.613-2.211-.903-3.601-.903-.83 0-1.657.102-2.476.198-.803.103-1.601.197-2.389.197-.892 0-1.633-.12-2.319-.372-.947-.74-1.774-1.086-2.598-1.086-.27 0-.545.037-.73.144.065-.194-.027-.372-.304-.537-1.233-.008-1.934-.761-2.674-1.562-.48-.51-.971-1.042-1.652-1.345l-.343.086-.259.1a3.584 3.584 0 0 0-.322-.44c-.505-.304-1.08-.458-1.86-.458h-.024a2.88 2.88 0 0 0-.714.154c-2.468-1.568-5.331-2.759-8.754-3.643l-1.162-.139c-.887-.112-1.772-.225-2.659-.225-.856 0-1.614.105-2.298.325l-5.265.075-2.813 1.563-2.272 1.118-.672 1.039c-.131.02-.283.05-.414.1-1.222.156-2.096.86-2.661 2.13-.628.745-1.32 1.114-2.287 1.114h-.021c-.194.011-.322.06-.419.144-.024.01-.024.032-.042.045-.029.037-.07.052-.089.102-.793-.196-1.41-.29-1.952-.29-1.036 0-1.83.35-2.46 1.146a4.154 4.154 0 0 0-.466.688c-.016.045-.047.087-.078.128-.113-.243-.223-.494-.354-.787a5.425 5.425 0 0 0-1.664-.257c-1.235 0-2.431.39-3.588.764l-.934.301c-2.33 1.95-3.517 4.128-3.656 6.565-.045.552-.073 1.104-.013 1.685-.27-.419-.456-.924-.626-1.413-.382-1.102-.774-2.24-2.242-2.557-.191-.032-.39-.053-.584-.076-.374-.045-.759-.084-1.063-.173-.408-.591-.321-1.432-.232-2.246.034-.36.073-.72.028-1.12l-.806-.251c-.44-.275-.824-.408-1.17-.408-.457 0-.85.23-1.15.698a6.578 6.578 0 0 0-.37-.02c-1.293.157-2.64.468-4.15.963a3.907 3.907 0 0 1-1.385.698l-1.596-.104-1.644-.084-.437.427c-.212.013-.424.026-.649.052-.447.204-.72.555-.895 1.01-.052.126-.141.22-.167.367.002.028.008.055.01.083-.005.034-.026.05-.029.082-.819.994-.643 2.219-.405 3.355.002.016.002.031.005.047h.003c.005.021.008.04.01.06.589-.112 1.157-.33 1.727-.55.793-.303 1.615-.617 2.473-.617.362 0 .707.055 1.021.139.387.675.463 1.473.537 2.243.107 1.133.22 2.303 1.269 3.125 1.29 2.62 3.268 4.643 6.024 6.163.306.812 1 .966 1.536.995.636.707 1.487.877 2.311 1.042.508.102 1.028.209 1.479.432l.345.266.359-.039c.62.505 1.269.76 1.928.76.636 0 1.306-.234 1.96-.694.18-.016.37-.019.558-.024.722-.013 1.473-.023 1.894-.8l10.442 3.996c1.395 1.091 1.29 2.494 1.18 3.978-.086 1.12-.17 2.277.453 3.23-.034 3.11 2.026 4.554 4.52 5.996.47.28 1.036.432 1.583.581 1.233.338 2.397.654 2.716 2.319.72.783 1.348 1.3 2.08 1.3.493 0 .982-.24 1.503-.766.139-.586.516-1.215 1.149-1.215.094 0 .196.016.296.05.562.162 1.19.246 1.78.37.18.036.36.078.54.11 1.644.305 3.364.512 5.303.512 2.439 0 4.928-.23 7.333-.453l1.95-.18c1.63.275 3.566.555 5.542.555 1.583 0 3.02-.178 4.402-.553.418-.227.756-.507 1.162-.824.541 0 1.146-.16 1.727-.314.576-.152 1.172-.309 1.698-.309.524 0 .935.16 1.228.453.083.646.005 1.146-.254 1.612-1.534 2.214-2.57 3.337-3.97 3.337-.995 0-2.206-.568-3.721-1.424l-.566-.324c-1.07-.626-2.174-1.27-3.363-1.27-.73 0-1.428.239-2.104.72-2.48.403-4.543 1.646-6.102 3.67-1.236.353-1.869 1.198-1.903 2.533-.27 0-.529.07-.746.196-.952.131-1.259.927-1.552 1.694-.327.843-.636 1.64-1.797 1.656-1.937-1.805-6.878-2.617-10.913-2.617-3.968 0-7.113.717-8.416 1.916-.456.424-.691.85-.312 1.69 1.183 2.618 2.408 5.322 5.75 5.322.306 0 .628-.024.968-.068.539-.071 1.052-.105 1.547-.105 3.074 0 5.44 1.39 7.246 4.17.44.709.845 1.468 1.196 2.313-.01.024-.024.045-.034.07.678 2.359 2.292 3.921 5.21 5.02l.333 1.64-1.88 3.498c-.923 2.338-.894 5.039.069 7.23.735 1.67 1.952 2.9 3.404 3.441.375.492.772.756 1.18.916.022.008.04.01.058.018.186.063.364.165.558.165.74 0 1.465-.473 2.161-.926l.508-.338 2.533.165c.592.796 1.46 1 2.3 1.201.456.11.932.223 1.325.411.738 1.223 1.92 1.872 3.062 2.502.599.325 1.193.655 1.73 1.058l.353.282c.554.445 1.18.945 1.787.945.453 0 .83-.275 1.157-.832.882-1.52-1.063-2.75-1.701-3.156-.542-.346-1.126-.634-1.707-.92-1.536-.758-3.124-1.543-3.852-3.344l1.958-2.24c2.164-.76 1.923-2.222 1.685-3.638-.112-.694-.23-1.411-.076-1.992 1.225-.754 2.24-1.102 3.193-1.102.981 0 1.874.374 2.724 1.141.584.966 1.505 1.057 2.397 1.146.445.045.908.092 1.306.25l1.322.776c3.198 1.89 6.51 3.845 8.568 7.292.141.032.275.05.4.05.503 0 .88-.275 1.102-.793.3-.17.513-.555.722-.927.267-.492.524-.952.94-.952.274 0 .594.196.978.594 2.243 2.332 4.897 4.36 8.613 6.58l1.858.976.636-.18c.06.096.115.198.19.358.205.091.433.154.673.157.66 1.777 2.248 2.303 3.787 2.808l.767.262 2.711.699c1.602.254 3.206.458 4.813.662 2.214.285 4.433.57 6.652.979 10.188 1.89 19.381 6.067 27.039 9.906l4.443 1.466c1.46.54 2.952.992 4.441 1.45 2.141.646 4.329 1.316 6.407 2.227.047.021.091.047.136.068.657.293 1.303.605 1.931.958.173.71.691.79 1.196.867.267.041.52.08.735.214l.48.212.667.32c0 .015.039.285.047.295 1.222 1.23 2.695 2.246 4.124 3.227 2.879 1.976 5.852 4.018 6.82 7.93l.165.768.196.806c.317.196.633.384.953.573 1.76 1.036 3.423 2.018 4.014 4.276l.267 1.047c1.24 4.803 2.518 9.765 6.849 13.202 1.282 1.015 1.837 2.77 1.489 4.674-.327.595-.537 1.233-.746 1.874-.23.704-.466 1.432-.869 2.092-.128.212-.162.392-.251.589-.005.013-.008.023-.016.036-.162.37-.267.717-.285 1.04-.013.154 0 .298.018.444.019.11-.018.244.016.346.15.418.518.74.979 1.01.026.01.055.023.08.037.173.094.32.204.532.277l-.081.052c.003.003.005.003.008.003.015 0 .047-.031.076-.055.018.008.028.018.052.026v.003l-.152.104.157-.091c.066.293.278.534.482.77.398.455.772.884.138 1.64-.926 1.11-.646 2.296-.149 3.385.05.125.092.253.144.379a5.074 5.074 0 0 0-2.557.872c-.994 1.259-2.49 1.431-3.938 1.601-1.55.181-3.154.367-4.156 1.85-5.917 3.314-8.508 9.08-11.015 14.658-.44.973-.874 1.95-1.295 2.881-.131.04-.178.131-.264.2-.01.01-.027.02-.04.03a.642.642 0 0 0-.196.477v.031c0 .1-.042.176-.01.29-.191.414-.424.817-.665 1.226-.827 1.41-1.68 2.868-.432 4.674.359.518.772.777 1.21.916.038.013.08.026.12.034.122.032.235.108.368.108.555 0 1.12-.25 1.667-.49.534-.235 1.09-.479 1.673-.479l1.698.09a9.043 9.043 0 0 1 2.434-.346c1.41 0 2.78.363 4.18 1.11 1.666.881 3.1 1.313 4.385 1.313.856 0 1.641-.193 2.345-.583a6.288 6.288 0 0 1 3.122-.817c1.34 0 2.622.382 3.983.788l.322.086c.479-.091.94-.256 1.369-.426.34.07.644.11.931.11.767 0 1.408-.257 1.966-.786l-.037-.042h.003l.343.076c.931-.23 1.517-.887 2.007-1.562 2.112-2.898 2.986-4.094 4.506-4.094 1.06 0 2.47.579 4.834 1.547 1.892-.034 3.868-.199 5.406-1.683.12-.128.241-.227.32-.327.356.118.74.173 1.17.173.57 0 1.148-.1 1.721-.199.574-.097 1.144-.199 1.712-.199.173 0 .348.01.534.029l.3-.003c.624 0 1.254.066 1.877.2.139.03.28.054.424.078.374.055.73.112 1.029.413.227.097.476.162.69.162l.082-.002c.311 1.073 1.161 1.594 1.983 2.096.6.367 1.212.744 1.602 1.309.398 1.243 1.434 1.798 2.439 2.332l.332.178 1.188.71.416.23c.236 1.002 1.063 1.342 1.908 1.682 1.447 1.257 2.533 2.872 3.58 4.431 1.361 2.031 2.772 4.13 4.999 5.473.895.529 1.57 1.414 2.221 2.27.924 1.211 1.916 2.4 3.53 2.703l.092.016c.215.036.4.112.639.112.21 0 .421-.01.641-.042l.926-.068v-56.957c0-.016-.248-.01-.261-.024a6.254 6.254 0 0 0-.296.016c-1.573-3.934-.913-7.74.557-12.257v-69.227zm-889.37 54.342l.371-.28c.466-.34.95-.691.992-1.191.031-.343-.154-.717-.573-1.152-.968-.667-.827-1.507-.678-2.397.063-.369.126-.746.092-1.073.36-.474.756-.704 1.198-.704.427 0 .869.21 1.293.41.251.116.502.231.835.454.16.243.324.502.646.502.029 0 .06-.005.094-.005a.32.32 0 0 1 .218.073l.858 1.892 3.624 3.984 1.691 1.84c.262.026.516.04.759.04 1.434 0 2.596-.438 3.45-1.304 1.23-1.249 1.834-3.387 1.792-6.358l.19-8.524.626-.484.079-1.654v-1.21c.008-.133.013-.264.02-.397-.007-.032-.012-.063-.02-.092l.002-.178.437-.537c.236-.287.469-.57.704-.882.163-.473.233-.903.362-1.36.054-.194.104-.39.154-.584.217-.843.387-1.67.49-2.458.049-.382.078-.762.101-1.144.04-.662.045-1.316 0-1.947-.023-.314-.07-.63-.115-.945-.102-.706-.254-1.4-.468-2.07a12.971 12.971 0 0 0-.275-.754c-.141-.361-.22-.735-.393-1.086l-.201-2.178c-.861-4.567-.243-9.283 1.884-14.486-3.93-6.598-3.891-8.344.304-13.351.377-.45.732-.924 1.086-1.392l.458-.629c.275-.05.528-.16.772-.34.667-1.089 1.115-2.25-.12-3.384-.927-.288-.862-1.008-.81-1.863-.423-.328-.536-.825-.65-1.35-.113-.503-.252-1.014-.789-1.385-.07-.053-.133-.108-.225-.152a.332.332 0 0 0-.031-.026c.16.06.32.115.471.18 1.167.568 2.452.83 3.695 1.081 1.568.32 3.188.647 4.554 1.58 1.468 2.404 3.386 3.57 5.864 3.57 1.141 0 2.374-.245 3.792-.763l.204-.228.367.008c4.472-1.424 4.854-2.136 3.698-6.95a4.461 4.461 0 0 0-2.086-.489c-1.05 0-2.07.304-3.057.595l-.696.256c-.71-1.832.204-2.994 1.089-4.117.77-.979 1.497-1.908 1.214-3.206.165-.801-.11-1.364-.785-1.662-1.028-1.678-2.47-1.908-3.878-1.908-.312 0-1.573.044-1.887.044-.314 0-.626-.01-1.162-.057-.314 0-.662.057-1.018.118-.361.06-.725.123-1.065.123-.71 0-1.445-.23-1.518-1.927.003-.154-.07-.24-.09-.374a1.689 1.689 0 0 0-.088-.377 1.323 1.323 0 0 0-.338-.536 1.478 1.478 0 0 0-.29-.205c-.11-.06-.168-.17-.301-.212-1.432-.855-2.136-2.368-2.096-4.493.078-4.214-.796-7.897-2.753-11.59-1.735-3.271-3.159-5.048-5.708-5.048-1.08 0-2.381.311-4.085.981a2.313 2.313 0 0 1-.424.031c-.683 0-1.41-.256-2.112-.51-.712-.254-1.45-.52-2.151-.52-1.018 0-1.803.546-2.447 1.7-1.672.843-2.48 2.406-2.468 4.782.013 2.212-1.039 3.175-3.512 3.227-.583.037-1.073.32-1.5.88-.413.952-1.01 1.649-1.834 2.138-.678.531-.892 1.27-.654 2.259a4.1 4.1 0 0 0 1.128 1.526c.782.646 1.735 1.057 2.918 1.261.767.092 1.512.285 2.256.482l.824.21c1.052.232 2.193.347 3.486.347.568 0 1.136-.02 1.703-.06.194-.01.385-.016.568-.016 2.636 0 4.062 1.17 5.271 4.321.625 1.636.992 3.348 1.348 5.007.133.62.288 1.233.476 1.832.04.17.076.343.118.51a26.718 26.718 0 0 0-.678-.892c-.754-.958-1.531-1.947-1.84-3.208-1.136-4.651-1.371-5.62-4.752-5.62-.772 0-1.712.053-2.913.113l-.421.089c-.573.115-1.165.238-1.539.586a47.7 47.7 0 0 0-2.578-.26c-7.304-.46-7.304-.46-7.667-7.749l-3.332-.385c-2.892-.986-3.692-3.394-4.467-5.726-.445-1.335-.906-2.717-1.75-3.824-1.461-1.693-1.605-3.756-1.741-5.748a19.206 19.206 0 0 0-.393-2.813c-.005-.032-.015-.063-.023-.097-.09-.382-.147-.775-.296-1.139.196-.997-.167-1.868-.518-2.711-.191-.458-.382-.919-.49-1.406-.47-1.353-1.284-1.947-2.899-2.112a22.917 22.917 0 0 0-1.903-.094c-1.316-.026-2.677-.058-3.972-.557-1.01.007-2.19.052-3.428.405a5.412 5.412 0 0 1-1.51.204c-4.017 0-8.817-3.669-9.887-7.493l2.737-3.347c.607-.437 1.335-.796 2.065-1.16 1.382-.686 2.753-1.424 3.326-2.662a.18.18 0 0 1 .008-.02c.123-.27.256-.534.29-.859.184-1.79-1.395-2.322-2.92-2.837-.722-.24-1.466-.495-2.02-.874-.427-.293-.629-.537-.623-.751.01-.265.36-.469.732-.684.411-.24.835-.486.817-.816l1.27-.364 1.585-.377c.29.01.584.018.866.018.812 0 1.69-.075 2.036-.636.304-.5.165-1.308-.429-2.478l-.968-1.518c-.05-.435-.029-.882-.008-1.332.052-1.087.105-2.21-.885-3.282l-.123-1.244c-.706-3.45-3.527-4.01-6.338-4.57l-2.138-.57-1.782-.419c.144-.583.429-.843.926-.843.228 0 .471.053.707.105l.38.07c.209.035.408.048.593.048.623 0 1.118-.215 1.534-.52a1.9 1.9 0 0 0 .24-.218c.113-.113.265-.178.351-.314.076-.123.076-.272.129-.408.026-.071.047-.147.068-.22a2.204 2.204 0 0 0 .013-1.128c-.037-.15-.019-.314-.087-.456-.583-1.206-.848-2.497-1.101-3.74-.249-1.225-.505-2.486-1.063-3.638l-.128-.262c-.463-.976-.99-2.083-2.086-2.083-.285 0-.6.079-.934.233-1.296.602-2.512 1.523-1.706 3.816l.235.636c.484 1.27 1.008 2.662.4 3.92-.086.17-.193.34-.33.503-.023.032-.038.063-.062.092a4.184 4.184 0 0 1-.717.617 1.264 1.264 0 0 0-.152-.664 3.034 3.034 0 0 0-.337-.021c-.137 0-.262.068-.393.086-.016.003-.031.008-.047.01a2.94 2.94 0 0 0-1.314.582c-.16.117-.327.19-.484.345-.107 0-.196.107-.27.332-.044.14-.01.275-.041.349a7.204 7.204 0 0 1-1.15.903c-.138.073-.274.157-.42.209.29-.39.515-.898.007-1.471.505-.29.788-.772 1.01-1.311.068-.139.15-.267.21-.411.018-.053.029-.107.042-.162.285.143.554.217.793.217.656 0 1.125-.513 1.434-1.594-.529-3.94-3.512-5.65-6.048-6.703a2.31 2.31 0 0 0-.746-.162l-.942-1.725c-.759-1.479-1.973-1.788-2.86-1.788-.42 0-.859.068-1.309.202-.542.162-1.02.248-1.426.248-1.518 0-2.028-1.101-2.434-3.132a7.787 7.787 0 0 1-.11-.977c-.057-.814-.118-1.656-.714-2.274-.969-1.513-2.062-2.5-3.274-3.086l-.008-.002c-.785-.38-1.612-.626-2.52-.626-.21 0-.445.07-.665.092-.036.005-.073.013-.107.015-.398.045-.783.055-1.201.168a1.427 1.427 0 0 0-.477.3l-1.538-.74-1.628-.762c-.262.11-.52.228-.749.351-.612.003-1.065.398-1.504.78-.448.388-.867.751-1.44.751-.183 0-.366-.036-.528-.068a3.135 3.135 0 0 0-.165-.667l-1.044-.37-1.01-.303c.039-.162.075-.324.096-.505.006-1.814-.068-3.4-.243-4.962-.01-.092-.024-.18-.034-.275-.065-.513-.086-1.037-.196-1.552l-1.031-1.54-.647-.345a1.059 1.059 0 0 1 .079-.714c.185-.843.107-1.487-.233-1.913-.33-.411-.91-.623-1.85-.623h-.055c-1.722.973-3.423 1.468-5.062 1.468-2.745 0-5.456-1.369-8.29-4.182-.492-.487-1.029-.927-1.565-1.37l-.715-.593c-.936-.864-1.758-1.285-2.517-1.285-1.32 0-2.222 1.295-3.096 2.549l-.508.727-.214 2.28a3.384 3.384 0 0 1-1.704.466c-1.02 0-2.005-.463-2.954-.91l-.39-.168c-.102-.21-.275-.354-.4-.537a5.257 5.257 0 0 0-.32-.432 8.167 8.167 0 0 0-1.944-1.654c-.807-.809-1.029-1.9-1.246-2.952-.228-1.126-.466-2.29-1.392-3.117l-1.869-4.115c-.421-.992-1.293-1.486-2.138-1.965-.845-.482-1.72-.977-2.183-1.979-1.478-3.206-4.543-4.89-7.037-5.988L97.368 56.125a4.492 4.492 0 0 0-1.199-.61l-.505.178c-.542-.222-1.136-.272-1.711-.32l-.513-.025c-1.639-2.526-3.612-5-6.925-5.95l-1.42-.756-1.739-1.973c-.44-1.05-1.324-1.686-2.177-2.3-.798-.577-1.628-1.173-2.065-2.082l-.149-2.622c.162-3.13-2.107-4.083-4.302-5.004l-.4-.168c-.129-.052-.283-.094-.44-.139-.296-.078-.628-.17-.678-.321l-.144-.42c-1.897-5.608-3.863-11.41-10.651-13.429-.335-.096-.552-.56-.783-1.052-.177-.382-.363-.777-.625-1.047l-.471-.507c-.803-.877-1.562-1.707-2.596-1.707-.15 0-.312.09-.466.126-.04.008-.081.02-.123.034-.531.152-1.08.44-1.688 1.02-.508.482-1.188.728-2.02.728-.898 0-1.981-.277-3.316-.85a17.084 17.084 0 0 0-6.78-1.382c-1.63 0-3.256.222-4.837.664-3.31.924-6.482 1.375-9.693 1.375l-.531.002-6.28-3.593c-3.089-4.11-6.572-6.646-10.668-7.755-.397-.006-.808-.04-1.22-.076-.428-.042-.858-.079-1.274-.079-.547 0-.978.066-1.358.212-.557.212-1.188.317-1.827.427-1.763.298-3.585.61-3.985 3.138-.458 1.992-.43 4.06.076 6.114-.126.743-.173 1.502.683 1.9.356.495.02.963-.333 1.46-.282.398-.575.807-.492 1.238.055.28.262.54.691.783a.145.145 0 0 1-.02.016c.099.251.11.51.03.816l5.978 9.77c.487 1.15 1.479 1.741 2.439 2.31l.508.305 4.44 4.246 2.552 3.622c.508 1.539 1.85 2.073 3.148 2.588 1.264.503 2.573 1.024 3.073 2.479.319.94.942 1.544 1.829 1.79l4.098 3.722c.22.324.411.678.602 1.026.529.968 1.073 1.965 2.25 2.45 5.91.895 10.288 3.792 13.387 8.854.369.605.989 1.047 1.585 1.473.314.226.623.456.903.728l-.057.055c0 .003.002.003.005.003.013 0 .034-.034.052-.058.016.013.032.021.045.034l-.102.105.117-.092h.003c.309 1.304.628 2.652 1.777 3.55 1.204 1.889 2.996 3.365 4.731 4.794 2.167 1.785 4.387 3.617 5.49 6.282.014.031.032.06.045.091.155.382.273.79.377 1.21.066.258.102.536.147.81.052.325.118.64.136.987-1.22 1.95-1.152 3.953.201 6.11.835 2.077 2.714 2.158 4.376 2.23l.474.023c3.619.193 6.922 1.565 10.28 2.942l.69 1.146c2.387.536 4.001 2.188 5.564 3.784.46.472.923.945 1.395 1.38.575.905 1.324 1.83 2.528 1.83.143 0 .293-.02.39-.1.002-.003.005 0 .01 0-.037.578-.018 1.162-.003 1.746.026.895.055 1.821-.123 2.75.45 1.414.96 2.809 1.471 4.201 1.275 3.486 2.59 7.093 2.892 10.92.167 3.067 1.256 5.938 2.305 8.71.987 2.61 2.01 5.302 2.264 8.155.086.927.992 1.518 1.77 1.853l.297-.042.286.236c5.508 1.322 10.65 2.978 13.061 8.65.442 1.688 1.515 2.992 2.552 4.258.688.835 1.397 1.699 1.913 2.662.27.57.636 1.16 1.303 1.16.144 0 .303-.032.398-.076.688 1.332 1.541 2.14 2.653 2.517l1.107 1.647 1.1 1.601a1.7 1.7 0 0 0-.045.678c.408.73.808 1.469 1.206 2.207 1.296 2.4 2.636 4.881 4.436 7.095l.123-.107.063-.026c-.173.94-.264 2.002.746 2.758 2.983 1.974 3.975 5.075 4.935 8.077.55 1.72 1.118 3.5 2.052 5.039.547 1.512 1.27 3.046 2.826 4.046.707.385.984 1.07 1.249 1.735l.16.238.025.066c.01.01.021.018.032.026-3.58 3.35-3.45 4.609.99 9.621l4.526 5.745c.249.814.812 1.413 1.335 1.89.45.343.913.667 1.377.989.654.455 1.305.916 1.928 1.424.477.306.974.623 1.565.848.16.492.325 1 .783 1.306.693 2.46 2.15 4.397 4.108 6.512-.06 1.539.93 2.324 1.885 3.085.267.21.533.424.782.652 2.368 2.199 5.216 4.217 8.934 6.32.218.566.508 1.09 1.092 1.304.18.079.387.123.633.126.034-.003.068-.013.102-.021l.066.1v.23l.902.418 1.1.545c-.158.675-.024 1.285.4 1.814.66 1.015.992 2.245 1.308 3.436.581 2.157 1.183 4.39 3.724 5.441.545 1.131 1.408 1.715 2.77 1.715h.07l3.567 2.96c.57.733 1.162 1.487 2.31 1.487h.035l2.025 1.593c.565.969 1.408 1.6 2.497 1.864 1.039.361 1.604 1.3 2.148 2.214.699 1.17 1.421 2.38 3.096 2.38h.016c.065.24.201.39.39.489.031.02.078.018.115.031.097.034.17.092.309.092.055 0 .115-.003.18-.013 2.167 2.497 4.983 4.056 7.71 5.567l1.387.759c5.226 2.855 10.633 5.81 13.04 11.99.827 1.999 2.497 3.174 4.114 4.31.356.251.71.5 1.036.725l.063.353c.296 1.675.6 3.408 2.688 3.529.327.973.94 1.473 1.89 1.53l1.342.132c1.054 2.114 2.125 3.101 3.36 3.101.84 0 1.748-.448 2.784-1.408.03-.178.04-.364.05-.552.024-.393.045-.799.225-1.092.39-.644-.023-1.311-.418-1.952-.33-.526-.639-1.026-.492-1.474.102-.314.423-.583.989-.819a3.16 3.16 0 0 1 1.206-.249c1.523 0 2.792 1.217 3.612 2.133 1.834 2.045 4.145 2.32 6.163 2.32.311 0 .622-.006.97-.032M367.17 190.347c.115.097.217.168.314.23.023.024.055.05.076.074-.102-.005-.23-.07-.367-.26-.007-.015-.018-.028-.023-.044zm158.097 52.228c.018.005.034.01.052.018l-.22.39c-.034.045-.058.074-.094.126-.267-.424-.264-.552-.246-.584l.055-.065c.002 0 .008.003.013.003v.039c.102 0 .28.063.44.073zm-8.168 1.667c.147.23.275.477.406.72.154.29.308.578.481.817.06.664.246 1.183.57 1.591-.203 1.02.215 1.877 1.097 2.233.168.068.327.102.474.102.576 0 .88-.508 1.175-1 .084-.142.167-.283.233-.388l1.698-.727c.377-.466.843-.874 1.309-1.288 1.209-1.065 2.46-2.164 2.127-4.232l-.055.008.168-.314c-.029-.142-.084-.272-.202-.56-.036-.348-.212-.663-.38-.969-.203-.364-.39-.714-.387-1.102.003-.08.024-.165.045-.248.016-.068.018-.134.047-.21.189.006.387.019.586.034.23.016.466.032.691.032.4 0 .903-.045 1.222-.388.257-.277.361-.709.317-1.319-.04-.547-.018-1.214.003-1.902.044-1.51.094-3.073-.471-3.657-.15-.152-.335-.23-.804-.23h-.047c-1.717 0-1.832-.775-1.955-1.597-.052-.337-.105-.688-.267-.994-1.583-2.96-.178-5.387 1.382-7.606.754-.529.56-1.194.277-1.772-.39-1.052-.06-2.023.257-2.965.139-.406.277-.812.361-1.244-.139-.9-.07-1.491.204-1.81.175-.205.427-.304.78-.304.264 0 .58.06.992.172 1.614-.748 3.279-3.902 4.022-6.49.584-2.037.623-3.66.107-4.45-.306-.468-.772-1.05-1.271-1.162-.893-.201-1.427-.505-1.678-.947-.33-.57-.183-1.38.139-2.413.484-1.55.79-3.835-.484-5.926-.398-.654-.54-1.144-.432-1.455.057-.152.178-.26.369-.33 1.837-.633 2.266-2.096 2.68-3.512.209-.725.431-1.48.832-2.081 1.201-.979 2.664-1.628 4.08-2.254 2.392-1.062 4.865-2.159 6.176-4.839l2.742-2.677c1.453-2.126 3.659-2.479 5.794-2.822 1.018-.162 2.073-.33 3.065-.714l.21-.39c.303-.592.59-1.155 1.334-1.359.866-.725 1.552-1.413 1.17-2.614-1.288-2.37-1.238-4.204.164-5.952.398-.495.568-.945.636-1.366.006-.034 0-.066.003-.097.018-.183.076-.374.029-.534-.152-.497-.618-.877-1.382-1.123-1.903-.61-2.884-1.264-3.18-2.12-.288-.835.053-1.905 1.11-3.476.809-1.196 1.387-2.224.892-3.627-1.894-5.368.812-9.404 3.381-12.325.445-.701 1-1.34 1.555-1.981.994-1.141 1.978-2.335 2.3-3.856.087-.363.136-.743.139-1.154.44.04.921.178 1.384.314.545.157 1.105.322 1.61.322.453 0 .814-.13 1.07-.385a5.227 5.227 0 0 0 1.573-.379c1.923.28 3.902.301 5.817.322 2.756.029 5.606.06 8.32.866.824.238 1.594.364 2.282.364 2 0 3.533-1.005 4.692-3.07l1.806-2.591c.827-1.578 1.146-2.371.869-2.898-.301-.57-1.293-.772-3.51-1.005-.398-.643-.882-1.185-1.334-1.764-.152-.193-.288-.403-.445-.588a23.035 23.035 0 0 0-1.963-2.07c-2.274-2.142-4.844-3.919-7.4-5.61-1.84-1.217-3.743-2.473-5.468-3.844-.596-1.09-1.525-1.704-2.73-1.825l-.978-.628c-2.112-1.039-2.996-3.049-3.852-4.994l-.212-.4c.22-.275.204-.55-.034-.733.453-1.175 1.293-2.133 2.101-3.06 1.008-1.154 2.052-2.345 2.374-3.944.973-1.423.204-2.413-.544-3.368-.155-.202-.31-.4-.466-.62-4.533-3.073-6.38-7.834-8.165-12.44-.623-1.605-1.249-3.214-1.979-4.756-.452-.947-.36-1.322.5-2.002 2.565-2.029 1.725-4.635.699-6.693a2.058 2.058 0 0 0-.845-.675c.133-1.185 1.015-1.693 2.248-2.282 1.483-.707 2.42-1.61 2.79-2.683.332-.968.193-2.068-.425-3.285-.332-.348-.756-.395-1.125-.395l-.657.016c-.38 0-.777-.05-1.122-.419-.422-.07-.7-.22-.848-.455-.173-.275-.176-.67-.045-1.212.958-.013 1.759-.51 2.539-.995.787-.492 1.606-1 2.59-1 .249 0 .505.035.995.131.102 0 .16-.091.243-.13.037-.016.068-.03.1-.053.065-.044.16-.036.209-.11.225-.327.251-.895.06-1.376l-.204-.54c-.518-1.379-1.06-2.784-2.46-3.446-.01-.006-.02-.014-.034-.019-.508-.233-1.123-.374-1.897-.374h-.013c-.639.029-1.28.04-1.921.04-1.06 0-2.122-.03-3.18-.061-.657-.018-1.31-.04-1.939-.04-.097 0-.194 0-.293.003-1.476-1.586-3.051-2.59-4.768-3.174l-.045-.016c-1.06-.353-2.161-.584-3.365-.584-.79 0-1.636.076-2.507.23-2.81.493-5.52.741-8.053.741-2.93 0-5.754-.335-8.366-.97-.398-.537-.793-.802-1.193-.95-.024-.009-.047-.014-.066-.022-.146-.047-.288-.139-.44-.139-.34 0-.7.12-1.07.354-.596.246-1.183.583-1.769.921-1.089.626-2.214 1.272-3.355 1.272-1.078 0-2.075-.58-3.049-1.772-.246-.3-.62-.46-1.083-.46-.605 0-1.314.28-1.806.717-.452.4-.94.77-1.431 1.14-1.434 1.08-2.916 2.194-3.426 4.147-.1.19-.146.382-.141.557-.196.777-.377 1.56-.555 2.343-.492 2.151-.997 4.373-1.876 6.394-.885 2.044-.749 4.13-.615 6.148.11 1.662.222 3.379-.254 5.027-.675.817-.67 1.785-.665 2.722l-.002.56c-.076 3.165-1.398 4.704-4.038 4.704-.4 0-.83-.037-1.29-.105a5.703 5.703 0 0 0-.953-.084c-2.688 0-3.497 2.225-4.043 4.314-.131.505-.055 1.036.02 1.549.113.772.22 1.505-.316 2.214-.105.31-.254.618-.398.927-.529 1.104-1.073 2.245.366 3.392.534.421.788.78.778 1.089-.01.371-.416.651-.806.926-.33.228-.67.463-.77.736-1.162.473-2.057 1.285-2.703 2.457-1.806.712-3 1.74-3.54 3.055-.621 1.5-.43 3.35.577 5.658.346.793.28 1.385.17 2.33-1.748 1.222-2.88 2.994-3.514 5.532-1.172.278-1.547 1.56-1.845 2.589-.225.77-.419 1.434-.864 1.434a.716.716 0 0 1-.293-.076 6.616 6.616 0 0 0-2.802-.604c-1.374 0-2.717.38-4.015.743-1.253.356-2.551.722-3.836.722a6.008 6.008 0 0 1-1.882-.29 6.884 6.884 0 0 0-.565-.021c-1.929 0-3.533.796-4.76 2.366-1.024 1.193-2.204 1.746-3.714 1.746-.921 0-1.882-.202-2.81-.396-.932-.196-1.898-.403-2.832-.403-.306 0-.61.024-.848.108a7.573 7.573 0 0 1-.257-.72l-1.745-1.04-1.685.02c-.328-.388-.7-.679-1.05-1.016-.13-.129-.262-.265-.395-.385a12.175 12.175 0 0 0-4.01-2.418c-.185-.071-.379-.126-.57-.186a13.48 13.48 0 0 0-2.528-.516c-.204-.02-.405-.044-.61-.057-.358-.024-.685-.103-1.057-.103-.746 0-1.51.05-2.292.144-.895.108-1.803.134-2.72.134l-2.559-.024c-2.944 0-6.03.228-8.57 2.942-1.578.822-1.822 2.298-2.052 3.725-.186 1.122-.374 2.28-1.18 3.078-.173 0-.298.05-.38.136-.078.089-.11.222-.044.33-1.343.25-2.567.952-3.755 1.633-1.469.848-2.986 1.72-4.732 1.72-.576 0-1.136-.092-1.766-.273-.092.06-.194.11-.294.16-.235.112-.476.233-.604.426a5.983 5.983 0 0 1-.646.037c-1.18 0-2.32-.367-3.423-.717-1.11-.356-2.259-.725-3.455-.725a5.71 5.71 0 0 0-.479.02l-1.688-.149a3.488 3.488 0 0 0-1.769-.463c-.717 0-1.44.189-2.135.367-.691.18-1.406.363-2.112.363-.173 0-.348-.01-.542-.034-2.224.448-3.985 1.251-5.383 2.448-1.007.869-2.018 1.29-3.085 1.29-.974 0-1.974-.35-3.067-1.081l-.275-.102c-.55-.212-1.115-.427-1.717-.427-.13 0-.262.01-.335.066-1.185-2.704-3.598-4.151-5.93-5.552l-.69-.41-.857-.278c-.196-.285-.468-.502-.688-.764a11.646 11.646 0 0 0-.633-.704 20.349 20.349 0 0 0-3.14-2.617c-.346-.9-.922-1.474-1.728-1.733-2.117-3.099-4.747-6.962-6.087-11.239.84-.36 1.356-.788 1.547-1.267.12-.314.104-.656-.055-1.015-.147-.327-.34-.492-.576-.492-.358 0-.74.382-1.102.77l-.903-.008c-2.572 0-5.241.214-7.13 2.753-.011.016-.126.41-.121.427-.654.955-1.364 1.874-2.075 2.792-1.796 2.322-3.651 4.724-4.554 7.685-.285 1.395-.474 2.818-.662 4.24-.51 3.873-1.036 7.878-3.617 11.225-.455.359-.706.749-.746 1.157-.041.447.155.916.618 1.45.688.474.822 1.186.96 1.934.103.56.212 1.141.566 1.573l.034.84c.055.762-.032 1.586-.113 2.387-.217 2.107-.442 4.285 1.751 5.62 3.051 1.86 4.423 4.449 4.59 8.655l-.029.822c-3.438 2.025-4.038 4.575-2.004 8.53.408.8.892 1.583 1.382 2.363 1.554 2.507 3.163 5.098 2.378 8.396-.27.26-.374.46-.316.615.057.15.267.236.64.254 1.812.092 3.761.345 4.476 1.534.508.842.369 2.067-.406 3.735-.973 1.028-1.005 2.17-.091 3.596.926 1.099 1.96 1.656 3.072 1.656 1.172 0 2.415-.612 3.695-1.813 1.194-1.126 2.34-1.673 3.51-1.673.9 0 1.855.32 2.894.95l2.748 6.065-1.85 5.137-.024-.047c-1.596 2-2.324 2.91-2.227 3.727.092.743.856 1.338 2.366 2.447l-.097.367c.238.091.487.167.733.24.69.21 1.334.427 1.816.906.086.087.18.16.251.27.453 1.371.35 2.813.251 4.206-.112 1.557-.23 3.172.432 4.724.746.837.994 1.924 1.233 2.97.256 1.126.52 2.288 1.379 3.324l-.183 5.764c-.377.466-.521.976-.558 1.497-.002.02 0 .042-.002.06-.008.199-.058.387-.019.592.241 1.23 1.28 2.172 1.748 2.436.194.11.4.113.6.162.057.014.115.037.17.048.118.015.227.094.345.094.987 0 1.924-.665 2.83-1.309.439-.311.878-.623 1.318-.848l2.56.141.227.4c.71 1.252 1.463 2.482 2.61 2.87.033.01.07.015.101.026.197.055.375.146.597.146.686 0 1.45-.282 2.337-.858a1.16 1.16 0 0 1 .625-.168c.495 0 1.131.254 1.435.976.607 1.016 1.402 1.505 2.43 1.505.566 0 1.2-.14 2.008-.455.536-.34 1.068-.704 1.602-1.065 2.159-1.466 4.393-2.981 6.835-2.981 1.562 0 3.078.607 4.753 1.892.151 0 .395-.128.651-.264l.37-.197.441.003.356-.346c.801-.314 1.623-.64 2.486-.64.275 0 .534.03.757.033.005.003.01 0 .013.003-.084.641-.249 1.277-.414 1.91-.33 1.273-.672 2.589-.345 3.968.086.626.283 1.225.479 1.83.311.96.636 1.955.473 3.054.32.694.008 1.26-.319 1.853-.309.558-.623 1.13-.395 1.872 1.123.274 2.133.502 3.127.502 1.552 0 2.732-.578 3.709-1.827 2.208-2.808 4.297-4.117 6.573-4.117 1.594 0 3.248.644 5.054 1.971.712.52 1.774 1.146 2.771 1.146 1.154 0 1.924-.83 2.256-2.415.701-.39 1.452-.72 2.198-1.052 2.769-1.225 5.632-2.495 5.865-6.711.018-.306.15-.34.246-.34.272 0 .725.306 1.164.604.312.21.615.414.838.5l.665.864c.507.89 1.185 1.413 2.046 1.583.869.898 2.01 1.168 3.112 1.427.418.102.834.201 1.237.33.178.06.364.091.563.091.524 0 1.057-.207 1.573-.403.513-.196 1.041-.4 1.557-.4.568 0 1.044.24 1.486.69l-.806 1.72c-.813 2.089.437 3.363 1.8 4.497.621.272 1.226.523 1.838.523.56 0 1.052-.212 1.5-.652 2.145-1.827 4.132-2.677 6.254-2.677.586 0 1.19.07 1.767.19.834.78 1.881.954 2.894 1.118.61.1 1.24.205 2.036.44 1.67 0 2.845 1.055 3.818 2.036 2.143 2.322 1.63 5.243 1.178 7.816-.529 3.007-.042 5.396 1.583 7.757.639.558 1.322.833 2.028.833.71 0 1.46-.27 2.274-.825a510.461 510.461 0 0 0 5.81-2.065 461.38 461.38 0 0 1 5.956-2.12l.466-.154c1.254-.422 2.44-.814 3.054-2.173.005-.008-.063-.065-.126-.118a6.623 6.623 0 0 0-.104-.14c.32.146.62.235.882.235.696 0 1.209-.508 1.562-1.552.076-.43.298-.639.898-.639h.015c.54-.377 1.196-.427 1.767-.427.256 0 1.306.048 1.565.048 1.183 0 2.345-.25 2.779-2.026.557.254 1.193.29 1.746.29l1.37-.029c1.346 0 2.699.194 3.136 2.518zm281.777 112.174c-.248-.133-.497-.266-.722-.431-2.803-.998-5.053-1.463-7.081-1.463-2.672 0-5.046.808-7.26 2.468-.83.62-1.944 1.332-3.156 1.332-.638 0-1.259-.202-1.819-.565-.097-.668-.565-.778-1.018-.88-.21-.05-.408-.097-.612-.199-.398.1-.827.115-1.24.128l-.571.032-1.429-.128c-.853.044-1.69.3-2.635.803-1.115.743-2.395.777-3.63.806-.976.026-1.981.053-2.894.416-.699.01-1.398.045-2.062.129-.684-.346-1.46-.513-2.455-.526-2.97.128-5.883.505-8.652 1.112-.701.157-1.46.267-2.23.38-2.891.431-5.885.868-7.11 3.611-2.36 5.25-6.7 7.164-11.292 9.182-.987.437-1.973.869-2.931 1.337-8.021 2.555-14.158 5.753-19.306 10.05-1.614 1.351-3.284 2.751-3.444 4.937-.17 2.258-.918 4.365-1.646 6.41-.38 1.057-.738 2.135-1.02 3.323-.029.118-.076.23-.105.348-.013.05-.018.095-.026.144a2.616 2.616 0 0 0-.563-.065c-1.293 0-2.29 1.026-3.18 1.94l-.439.601c-.775 1.032-1.573 2.1-1.387 3.303.646 4.212-2.232 5.978-5.014 7.682l-.644.377a8.47 8.47 0 0 0-1.544 1.11c-.037.029-.068.07-.102.104-.18.178-.39.33-.529.55-1.107.152-1.944.864-2.755 1.55-.024.02-.23.222-.215.248.359.565.105 1.453-.144 2.309-.264.916-.536 1.863-.078 2.473.044.06.146.084.206.133.021.019.048.032.071.048.377.293.93.476 1.795.476.223 0 .46-.01.746-.034l1.091-.589c.168.078.338.154.568.23.728-.125 1.49-.199 2.25-.272 3.183-.298 6.475-.61 7.397-5.054 2.075-1.602 1.939-3.78 1.81-5.886-.026-.442-.054-.885-.065-1.317-.01-.916.126-1.505.419-1.803.165-.165.374-.243.649-.243.479 0 1.099.248 1.662.5 1.253.198 3.13.465 4.98.465 3.18 0 5.684-.777 7.657-2.381 2.154-1.743 4.331-2.523 7.06-2.523.691 0 1.403.05 2.13.136.328.055.634.08.922.08.751 0 1.332-.224 1.821-.585.013-.008.024-.014.034-.024.683-.523 1.141-1.369 1.32-2.654.122-.029.243-.055.402-.089l.843-.945 1.055-1.05c.887-.436 1.803-.894 1.688-2.004.785-.175 1.295-.688 1.554-1.552l.38-.49c.795-1.062 1.551-2.067 3.145-2.067.38-.113.696-.325.945-.626.858-.756 1.185-1.874 1.5-2.96.431-1.484.84-2.89 2.506-3.46 1.966-.673 3.81-1.701 5.598-2.693 2.64-1.466 5.373-2.986 8.55-3.384.332-.189.709-.275 1.188-.275.29 0 .591.029.887.063.301.031.602.06.9.06.691 0 1.199-.178 1.628-.563.311-.194.639-.369.96-.544.694-.377 1.408-.767 2.005-1.28 1.997-1.714 4.632-2.21 7.178-2.693 3.502-.665 7.121-1.348 9.176-5.177.086-.165.455-.283.743-.293 2.863-.09 5.328-1.348 7.71-2.57 1.133-.582 2.305-1.178 3.493-1.642.335-.078.605-.23.898-.356l.104-.041c1.707-.767 2.79-2.22 3.805-3.675.252-.361.498-.72.778-1.105.431-1.355-.398-1.798-1.202-2.23m-103.763 6.766c1.293 0 2.513.225 3.771.691.23-.034.453-.091.602-.175.335.314.73.479 1.175.479.134 0 .304-.087.45-.115.024-.006.048-.014.071-.019.204-.05.393-.055.613-.157.397-.136.442-.366.369-.468 4.03-1.257 7.086-4.06 10.127-6.884.066.016.131.03.191.03.05 0 .09-.024.131-.045.013 0 .029.002.042.005-.714 1.196-.926 2.261-.623 3.17.343 1.012 1.33 1.858 2.923 2.488 1.191 1.134 2.41 1.71 3.635 1.71.147 0 .288-.074.432-.09.105-.013.21-.044.317-.065a4.418 4.418 0 0 0 1.321-.5c.076-.042.152-.094.228-.144.24-.154.49-.256.725-.46 1.188-1.021 2.53-1.094 3.829-1.165.625-.029 1.245-.066 1.873-.207 1.74-1.277 3.682-1.384 5.522-1.384l1.55.013c1.109 0 2.29-.047 3.663-.348 1.144 0 2.005-.574 2.795-1.67 1.481 0 2.612-.15 3.321-.882.615-.642.874-1.654.816-3.201-.099-2.725-1.19-3.274-2.925-3.274-.27 0-1.41.047-1.717.047-1.84 0-3.682.039-5.524.083l-4.91.09-.544-.011c-.72 0-1.437.044-2.16.092a34.68 34.68 0 0 1-2.148.088c-1.177 0-2.14-.125-3.077-.39l-1.848 1.738c-1.083 1.202-2.154 1.812-3.185 1.812-1.22 0-2.405-.822-3.624-2.518-.542-.785-1.215-1.207-1.955-1.207-.57 0-1.18.257-1.764.738-1.79 1.474-3.734 1.662-5.229 1.662a30.67 30.67 0 0 1-2.29-.11c-.766-.052-1.536-.107-2.297-.107l-.532.013-.806-.23c-.397-.377-.816-.558-1.271-.558-.579 0-1.154.304-1.636.594-.908.555-1.628.825-2.188.825-1.23 0-1.486-1.317-1.756-2.706-.086-.43-.17-.859-.293-1.267-.573-.665-1.204-1.003-1.876-1.003-.513 0-1.063.197-1.607.576-1.625.12-2.646.552-3.117 1.314-.743 1.194-.02 2.989.746 4.89l.126.159.031.078c-.714-.1-1.39-.162-2.015-.162-.85 0-1.547.168-2.175.411-.07.026-.136.065-.204.097a3.828 3.828 0 0 0-1.28.926c-.042.047-.086.084-.123.134a5.498 5.498 0 0 0-1.075 1.973c-.73 2.35-2.002 3.541-3.787 3.541-1.05 0-2.272-.416-3.611-1.211-.286-.5-.673-.56-.982-.56-.152 0-.303.015-.458.03-.149.02-.295.038-.4.053-.278-.309-.516-.665-.756-1.023-.636-.953-1.298-1.937-2.709-1.937a3.86 3.86 0 0 0-.798.09c-1.327.29-2.662.674-3.999 1.062-2.551.746-5.197 1.518-7.778 1.518-2.91 0-5.43-1.005-7.704-3.07-.254-.23-.701-.233-1.133-.236a9.173 9.173 0 0 0-.54 0c-1.15-1.709-2.854-1.756-4.498-1.795-1.201-.03-2.436-.06-3.418-.715-.17-.518-.586-.607-.986-.688-.283-.058-.552-.115-.775-.335l-2.517-.186c-.987-.78-1.997-1.157-3.096-1.157-1.314 0-2.596.545-3.837 1.073-1.067.456-2.174.921-3.237 1.055-.073-.086-.188-.204-.324-.204-.118 0-.225.078-.32.23-.981.728-2.104 1.33-3.195 1.91-2.766 1.477-5.626 3.003-6.372 6.745-.34.291-.655.43-.963.43-.5 0-.911-.356-1.35-.738-.432-.375-.877-.765-1.422-.765-.138 0-.277.027-.343.126h-.005c-.207-2.235-1.792-3.486-3.326-4.698l-.387-.27-1.877.81c-.955.944-1.128 2.153-1.292 3.326-.087.615-.176 1.232-.372 1.803-.086.152-.199.233-.534.233-.029 0-.057-.003-.091-.003-1.21 1.448-1.194 2.947.068 4.465.952.644 1.787.956 2.554.956 1.2 0 2.051-.775 2.813-1.83.191-.246.38-.494.563-.753.261 1.19.95 2.195 2.19 3.04.35.255.73.49 1.144.705.031.002.06-.003.091-.003.042.021.07.045.113.066.178 0 .298-.068.455-.09.11-.012.215-.041.32-.062.303-.07.578-.168.808-.32.251-.151.484-.34.683-.594a3.42 3.42 0 0 0 1.238 1.178 4.88 4.88 0 0 0 1.34.424c1.656.155 3.276.176 4.509.176l4.258-.032c.583 0 1.167.005 1.769.021.808-.204 1.698-.304 2.716-.304.919 0 1.837.079 2.756.152.921.079 1.845.16 2.766.16.861 0 1.628-.073 2.517-.277l-.183.261c.696 1.393 1.743 1.576 2.677 1.576.385 0 .786-.034 1.186-.073l.775-.071c.374-.23.696-.346.955-.346.11 0 .212.021.432.129.261.196.416.607.502 1.298.479.332 1 .51 1.513.51.19 0 .38-.026.57-.073l2.25-.602c3.562-.968 7.25-1.966 10.982-1.966 1.674 0 3.234.197 4.87.605.175 0 .366-.1.74-.298 1.699-.84 3.491-1.228 5.488-1.618a17.877 17.877 0 0 0 1.913-.434c1.322-.417 2.672-.417 4.088-.417.827 0 1.651-.002 2.47-.099.746-.084 1.45-.366 2.133-.639.694-.277 1.345-.536 2.034-.607 2.308-.238 4.532-1.136 6.686-2.005 2.502-1.01 5.09-2.057 7.82-2.057M287.91 298.716a.745.745 0 0 1 .015.102 8.642 8.642 0 0 1-.288-.474c.134.131.212.254.273.372zm222.88 55.769c-3.052-3.714-6.221-7.07-11.442-7.26a.627.627 0 0 1-.293.075.605.605 0 0 1-.408-.17c-.338-.267-.678-.4-1.01-.4-.1 0-.2.078-.301.102a1.738 1.738 0 0 0-.14.047c-.138.05-.274.047-.413.141l-.926.665c-.625.45-1.254.903-1.903 1.32-1.373.876-3.187 1.358-5.11 1.358-3.041 0-5.829-1.147-7.289-2.91-.018-.024-.034-.048-.052-.069a4.925 4.925 0 0 1-.503-.748c-.047-.57-.005-1.168.037-1.762.12-1.717.243-3.489-1.81-4.672l-2.505.042c-.84-.17-1.625-.57-2.387-.952-1.026-.519-2.086-1.058-3.308-1.058-.12 0-.243.005-.322.034l-.77-.832c-.711-.492-1.412-.73-2.14-.73-1.277 0-2.441.743-3.598 1.56l-7.032.308c-.24 0-.487-.023-.733-.05a7.193 7.193 0 0 0-.743-.052c-.518 0-1.172.105-1.636.882-.136.06-.274.095-.52.095h-.1c-3.329-.194-6.568-1.34-9.913-3.508-2.127-1.381-3.159-2.661-3.153-3.92 0-.77.445-1.56 1.23-2.421a11.201 11.201 0 0 1 1.892-1.503c-.01-.068-.026-.128-.04-.193a.02.02 0 0 1 .01-.01l1.21.065c.432.437.845.88 1.23 1.369 1.36 1.023 2.829 1.52 4.49 1.52 1.655 0 3.303-.468 5.284-1.183l1.419-.932c1.12-.266 1.371-1.112 1.518-2.174.018-.108.041-.212.06-.32.002-.02 0-.039-.003-.06l2.285.079 1.47-.618c.15-.055.301-.115.453-.191 2.115-.77 3.897-1.128 5.606-1.128.385 0 .772.018 1.188.055 1.824-.736 2.784-1.563 2.939-2.534.146-.918-.474-1.965-1.837-3.107-.377-.342-.85-.39-1.309-.39l-.644.014c-.696 0-1.198-.131-1.551-.796-.406-.387-.796-.581-1.191-.581-.644 0-1.183.502-1.699 1.044-2.42.558-4.851.63-7.12.63l-3.696-.025a48.72 48.72 0 0 0-3.331.1c-.814.057-1.633.07-2.45.07l-2.496-.016c-2.214 0-4.781.087-7.246 1.128l-.974.942c-.95.506-1.931 1.032-2.86 1.032-.749 0-1.364-.351-1.874-1.073-1.259-1.775-2.764-2.003-3.933-2.003-.686 0-1.395.087-2.183.191-.576-.261-1.178-.298-1.798-.298-.018 0-3.684-.568-3.684-.568-1.39-2.384-3.473-2.586-5.488-2.586l-1.505.01c-.518 0-1.031-.01-1.507-.06-.615-.39-1.194-.897-1.772-1.405-1.193-1.05-2.431-2.133-3.986-2.133-.856 0-1.732.32-2.648.97l-1.667.053c-.484.223-.937.333-1.345.333-1.416 0-2.136-1.327-2.701-2.57-.997-2.202-2.476-3.434-4.669-3.874l-5.241-.042c-4.486.482-5.04 3.638-5.58 6.687-.141.812-.285 1.618-.497 2.38-.947 3.103-1.892 4.103-3.892 4.103-.942 0-2.182-.235-4.027-.767-1.039-.272-1.916-.45-2.819-.45a5.5 5.5 0 0 0-1.609.225l.016.055-.223-.144-.141.118-.058-.003c-.61-.075-1.25-.185-1.9-.298-.819-.136-1.653-.28-2.454-.356l-.754-.18c-1.72-.409-3.499-.838-5.31-.838-.463 0-.929.029-1.39.092l-.9-.013a4.634 4.634 0 0 0-1.347-.192c-1.06 0-2.128.32-3.162.62-1.028.304-2.088.621-3.13.621-1.049 0-1.975-.324-2.857-1l-.804-.107c-.594-.079-1.188-.152-1.78-.254-.62-.11-1.242-.194-1.863-.28-3.938-.542-7.66-1.057-8.455-7.143-.369-2.816-3.488-7.074-7.343-7.074-.367 0-.736.04-1.094.118-1.24.272-2.473.4-3.769.403-3.127 0-6.1-.801-8.976-1.568-1.16-.314-2.324-.63-3.478-.877-.507-.505-.973-1.062-1.442-1.62-1.198-1.424-2.47-2.834-4.378-3.36-.097-.027-.207-.037-.309-.06-.327-.071-.625-.184-.997-.194-.66-.142-1.36-.4-2.057-.66-1.018-.38-2.072-.772-2.996-.772-1.636 0-2.58 1.251-2.947 3.89-.918.578-1.868.855-2.907.855-.702 0-1.46-.16-2.277-.385-.26-.086-.516-.157-.775-.267l-.039-.075a76.248 76.248 0 0 1-2.198-.697c-2.444-.798-4.97-1.625-7.592-1.625-.919 0-1.785.097-2.664.301-.28.152-.54.225-.793.225-.448 0-.856-.222-1.492-.877l-.34-1.324c-.201-.031-.406-.092-.61-.15-.303-.086-.615-.18-.92-.18-.438 0-.78.189-1.207.623l-.631.021c-3.611 2.227-4.703 5.897-5.33 9.503-.307.398-.058.875.284 1.518-.112.422-.16.856-.167 1.257a3.114 3.114 0 0 1-.534.24c-.756-.303-1.455-.455-2.08-.455-.628 0-1.162.21-1.652.516l-.078.055c-.864.575-1.531 1.586-1.94 3.13-.402 1.534-.86 3.266-1.049 5.15v.97a.576.576 0 0 1-.327.117c-.408 0-.74-.594-1.062-1.165-.335-.602-.683-1.222-1.32-1.222l-.523.013c-.405 0-.803-.034-.97-.288-.17-.256-.1-.74.214-1.479.267-.633.196-1.29-.207-1.902-.51-.778-1.473-1.322-2.023-1.322-1.193 0-1.978.973-2.737 1.913-.361.445-.722.893-1.128 1.243-1.068.93-.591 1.51-.089 2.118.17.21.348.421.479.667 1.9 3.494 4.92 5.122 9.51 5.122.447 0 .903-.016 1.366-.044.626-.024 1.256-.037 1.887-.053 1.36-.031 2.771-.063 4.145-.225.639-.07 1.267-.11 1.89-.11 3.106 0 6.314.888 10.09 2.782 1.416.715 2.822 1.516 3.065 2.74.162.804-.188 1.694-1.075 2.723-1.283 1.492-.113 2.596.738 3.4 2.125 2.017 4.325 2.996 6.916 2.996l21.36 2.474.903.824c.67.37 1.293.814 1.913 1.262.6.432 1.23.835 1.897 1.188a7.26 7.26 0 0 0 1.419.628l.047-.013c.05.21.146.322.227.471a.98.98 0 0 0 .581.492c.081.021.134.094.225.094.437 0 .95-.238 1.605-.539.256-.073.515-.104.787-.104.73 0 1.43.25 2.107.5.481.172.968.35 1.437.423l.892.916c.963.257 1.895.765 2.798 1.254 1.321.715 2.69 1.455 4.182 1.455.92 0 1.808-.274 2.737-.871.136-.377.248-.767.4-1.332l3.046-2.262c.267-.034.534-.044.804-.044l1.295.026c.395 0 .914-.018 1.377-.17.261.115.576.212.986.296.482.06.963.099 1.445.099.633 0 1.217-.065 1.79-.196.267-.102.542-.186.764-.267l.304.227a21.04 21.04 0 0 1 3.703-.311c3.567 0 7.094.809 10.507 1.591 2.5.576 5.085 1.17 7.65 1.435 2.13.89 4.197 2.033 6.194 3.135 3.046 1.688 6.191 3.374 9.638 4.253.141.037.288.055.43.09.693.159 1.376.345 2.095.431.458.916 1.199 1.382 2.206 1.382.197 0 .4-.018.613-.052l.366-.102c1.474 1.324 3.14 1.965 5.095 1.965.448 0 .914-.029 1.398-.1.94-.125 2.185-.272 3.46-.272 1.394 0 2.622.176 3.758.537l1.282.175c.858.71 1.952.76 3.01.81 1.345.06 2.616.117 3.504 1.394.353.505.766.749 1.222.853.01.003.02.008.031.008.115.026.217.094.34.094.634 0 1.293-.33 1.884-.667.725-1.751 1.9-1.984 2.955-1.984.421 0 .858.045 1.293.086.44.042.88.084 1.306.084.175 0 .348-.008.507-.026l2.636.11c.871.188 1.724.458 2.577.733 1.479.474 3.01.963 4.62.963.232 0 .468-.01.69-.034l4.355.942c.235.16.487.228.722.356a6.87 6.87 0 0 0 1.85.694c.301.065.61.11.924.133.22.019.408.094.636.094h.037a6.71 6.71 0 0 0 .685-.332c.461.11.932.165 1.4.165 1.887 0 3.601-.885 5.423-1.714.243 0 .44-.066.56-.173a9.884 9.884 0 0 0 2.41-.042 8.567 8.567 0 0 0 1.17-.26c.819-.24 1.696-.462 2.57-.462a4.42 4.42 0 0 1 1.74.34l.932.578.502.419c.78.654 1.615 1.272 2.505 1.811.086.05.178.097.264.147.324.186.625.408.979.547.408.133.78.21 1.148.243.126-.016.246-.023.38-.042l.327.346 1.149.34c.225.243.437.555.654.974.84.871 1.931 1.287 2.989 1.696.322.12.644.243.958.38 1.947.763 4.069 1.12 6.675 1.12l.77-.008c1.264 0 2.724.13 3.967 1.086 1.272.976 2.664 1.452 4.26 1.452.184 0 .398-.068.59-.08.026-.003.052-.009.075-.009.553-.044 1.102-.078 1.696-.23a2.92 2.92 0 0 0 1.133-.764c.778-1.421.665-2.861-.343-4.416a5.696 5.696 0 0 0-.895-.924c-.868-.68-1.915-1.238-3.203-1.706-.23-.076-.46-.157-.651-.217l-.885-1.785-.052.023.3-.178c.417-.437.822-.651 1.241-.651.497 0 1.008.303 1.602.952 1.122 1.225 2.355 1.874 3.773 1.984 3.31.267 6.187 1.746 8.812 3.316.196.071.384.14.528.147.12.481.22.916.22 1.303-.706.717-1.355 1.445-1.554 2.52.667 2.262 1.989 2.553 3.064 2.553.584 0 1.199-.097 1.816-.197a14.412 14.412 0 0 1 1.524-.19c1.59-.603 1.886-1.998 2.169-3.35l.089-.42c.324-.646.602-.976.824-.976.23 0 .422.353.6.694.151.28.306.57.497.688.097.081.204.152.33.215.423 1.408 1.588 2.25 3.114 2.25l.327-.015c1.41-.113 1.583-1.272 1.75-2.39.053-.353.105-.709.197-1.065l-.175-.406c-.265-.636-.534-1.298-1.327-1.298-.584-1.356.254-1.782 1.14-2.227.302-.155.618-.317.864-.513l.398-.314c1.534-1.204 3.12-2.447 1.706-4.9l-1.073-1.468z"/><path d="M985.401 303.225c-1.154-.562-1.151-2.274-1.151-3.889 0-3.428-.37-6.253-1.165-8.88-.452-.908-.382-1.916-.309-2.887.087-1.162.173-2.361-.62-3.429-1.567-1.397-2.816-2.327-3.834-2.327-.112 0-.209.071-.316.095-.01 0-.021.005-.029.008-1.07.246-1.895 1.536-2.884 3.716-.809 1.785-2.156 2.819-4.242 3.243-1.1.222-1.835.908-1.973 1.835-.11.738.22 1.45.814 1.774 1.057.57 1.593 1.139 1.601 1.688.005.788-1.073 1.393-1.931 1.872-3.703 2.161-4.598 4.732-3.195 9.165 1.007 3.183-.11 6.56-2.942 8.842-.864 3.159-.623 3.614 3.258 6.061.34.097.668.262.99.43.52.258 1.054.533 1.65.533.291 0 .574-.065.867-.199l2.25-1.298c.173-.08.338-.173.5-.29 2.94-1.579 4.392-4.418 5.802-7.21l.513-.236c.215-.097.398-.218.579-.343.078-.04.162-.074.24-.113-.013.225.01.458.037.696.068.61.128 1.18-.424 1.592-.809.832-1.212 1.816-1.078 2.63.102.592.484 1.07 1.107 1.382.408.204.767.304 1.096.304 1.029 0 1.563-.958 2.076-1.888.232-.42.473-.858.743-1.175.536-.41.821-.845.845-1.295.024-.498-.251-1.01-.864-1.581-.246-.1-.36-.278-.358-.563-.364-.94-.79-1.418-1.311-1.418h-.013c-.019-.003-.034-.013-.053-.016.416-.353.893-.408 1.311-.408.197 0 1.005.047 1.207.047.432 0 .981-.053 1.447-.477.186-.246.385-.492.584-.738.866-1.068 1.68-2.075 1.447-3.122-.17-.775-.913-1.474-2.272-2.13m-503.39-50.645c.018.01.031.018.023.029 0-.005 0-.01-.008-.016l-.015-.013m433.954 74.341c-.282-1.183-1.512-2.049-2.907-2.792-1.065-.563-2.322-.859-3.643-.859-.28 0-.55.076-.827.102-.084.008-.165.021-.246.03-1.484.18-2.863.695-4.02 1.49-.1.069-.196.137-.29.208-.361.27-.691.552-.99.874-.039.044-.07.091-.107.136-.303.343-.628.675-.845 1.065-1.94 3.463-4.342 5.072-7.56 5.072-.383 0-.773-.018-1.18-.065a5.596 5.596 0 0 0-.665-.037c-.576 0-1.212.074-1.947.228-1.223.26-1.801 1.084-1.584 2.264.155.845.71 1.324 1.52 1.324.16 0 .32-.018.49-.052.552-.118 1.026-.18 1.405-.18.563 0 .93.128 1.113.395.34.49.002 1.397-.299 2.203a7.76 7.76 0 0 0-.319.961c-.196.82-.72 1.6-1.225 2.35-1.117 1.675-2.28 3.403-.008 5.989-.047.418-.876.97-1.271 1.24l-3.952 2.657c-.325.217-.662.421-1 .628-1.68 1.026-3.423 2.086-3.169 4.727.374.149.735.22 1.1.22.96 0 1.774-.506 2.564-.99.72-.45 1.47-.916 2.316-.973 3.085-.021 6.448-.574 7.932-4.526.27-.486.748-.725 1.253-.984.626-.316 1.272-.644 1.466-1.452l3.653-6.09c3.617-3.202 6.464-6.27 4.643-11.378-.094-.27-.094-.484-.003-.65.175-.316.675-.418 1.296-.53.363 0 .727-.058 1.093-.118.356-.06.715-.118 1.073-.118.534 0 .963.136 1.421.437 1.63-.092 3.659-.207 3.832-2.136.015-.167-.055-.308-.076-.468-.01-.068-.019-.134-.037-.202M597.75 364.467a4.355 4.355 0 0 0-.22-1.39c-.413-1.198-1.44-1.745-2.355-2.161l-1.078-.788c-.163-1.63.246-3.248.69-5.01.142-.371.503-.678.848-.97.728-.629 1.482-1.275.382-2.741-.164-.335-.337-.68-.96-.68l-.387-.011c-1.633 0-2.947.877-4.216 1.727-.877.587-1.78 1.194-2.769 1.498-.434.044-.885.112-1.515.214-.005 0-.278-.047-.285-.047a.661.661 0 0 0-.506.212l-3.587-.79c-.788-.772-1.513-1.15-2.22-1.15-1.01 0-1.834.786-2.63 1.542-.431.414-.866.822-1.287 1.105-2.819-.573-3.374-2.69-3.96-4.931-.102-.382-.199-.767-.345-1.175-.555-.202-1.05-.301-1.57-.445l-.06-.019a16.773 16.773 0 0 0-2.903-.555c-.091-.007-.183-.02-.275-.028-.316-.024-.654-.1-.96-.1-2.402 0-4.53.712-6.503 2.183-.594.497-1.447.555-2.036.555-.364 0-.736-.024-1.089-.05-.327-.018-.638-.04-.926-.04-.652 0-1.33.098-1.408.833-.432 3.973-1.688 4.643-4.34 4.643-.659 0-1.402-.042-2.242-.091l-.46-.019c-2.51 0-6.791 2.421-9.545 5.4-1.763 1.709-2.06 3.923-2.35 6.061-.175 1.301-.355 2.647-.871 3.88-.026 1.232.246 3.378 2.31 3.907.77.196 1.534.413 2.298.63 2.314.663 4.708 1.349 7.231 1.349.33 0 .633-.079.953-.103.206-.013.418-.041.625-.068.422-.047.859-.041 1.275-.133 1.989-.432 3.943-.976 5.9-1.523 3.152-.877 6.413-1.783 9.765-2.196.555-.55 1.115-1.084 1.656-1.61.835-.254 1.754-.356 2.636-.455 1.5-.17 3.022-.38 4.24-1.28.182-.128.353-.301.52-.463.1-.1.215-.16.309-.273.196.152.398.296.61.437.261.205.523.422.79.642 1.073.895 2.18 1.816 3.572 1.816.353 0 .714-.06 1.076-.18 2.19-.712 4.477-.9 6.691-1.09 1.364-.112 2.732-.224 4.08-.457 3.219-.547 6.864-1.175 7.4-5.612m186.897-26.453l-.596-.35c-1.22-1.691-2.596-2.51-4.224-2.51-1.293 0-2.706.492-4.582 1.596-2.201 1.293-3.902 1.869-5.512 1.869-1.58 0-3.022-.576-4.41-1.764h-.002c-.016 0-.089.084-.102.086a.536.536 0 0 0-.102.126c-.913 1.497-1.777 2.916-3.59 3.876-1.88.992-2.845 3.272-2.576 6.101.123 1.275.55 1.895 1.309 1.895.364 0 .808-.144 1.327-.437 3.234-1.827 6.657-2.08 9.868-2.08.937 0 1.88.025 2.819.049l2.033.036c.43.244.827.362 1.222.362.932 0 1.657-.707 2.246-1.408 1.138-1.7 2.59-2.555 4.47-2.623l1.515-.945c.478-.578.677-1.073.74-1.534.005-.031.01-.06.013-.091.01-.131.076-.275.053-.398-.15-.83-1.05-1.348-1.919-1.856M310.047 229.426c.217.309.515.468.887.468.785 0 1.782-.704 2.585-1.266l.372-.257c.481 0 .89-.277 1.285-.539.398-.27.774-.52 1.222-.52.22 0 .434.057.63.146.53 2.313 1.55 2.8 2.314 2.8.822 0 1.74-.576 2.588-1.612 2.848-3.486 4.47-7.203 4.826-11.048a2.26 2.26 0 0 0-.191-.853l-1.424-.96-.327-.244-.309-.178c.006-.013.068-.303.063-.316-.314-1.084-1.01-1.733-2.049-1.916l-3.365-1.838c-1.628-.473-3.222-.712-4.73-.712-1.499 0-2.975.236-4.422.725-.997 1.835-1.272 3.88-1.536 5.858-.267 1.992-.542 4.054-1.544 5.957-.798 1.507.688 3.298 2 4.876.41.495.81.973 1.125 1.429m-76.968-87.844c-.453-.228-.921-.463-1.38-.463-.3 0-.567.1-.821.3a1.586 1.586 0 0 0-.578 1.17c-.024.472.14.943.429 1.23 1.452 1.445.612 2.42-.382 3.568-1.128 1.285-1.35 2.853-1.487 4.468-.432.968.073 1.63.607 2.33.335.434.662.894.853 1.405.014.05.034.094.045.146a7.13 7.13 0 0 0-1.094-.094c-.34 0-.625.102-.934.16-.118.02-.244.031-.354.062-.274.071-.533.16-.78.28a3.91 3.91 0 0 0-.541.336 4.148 4.148 0 0 0-.817.743c-.099.12-.188.251-.274.382-.252.374-.45.798-.605 1.272-.037.113-.07.225-.1.343-.07.262-.183.484-.222.772-.204 1.479.927 1.67 2.02 1.85.762.129 1.552.26 1.974.804.083.107.227.165.398.233.35.149.693.385 1.038.615.59.398 1.199.809 1.861.809.484 0 .945-.22 1.408-.67l.41-.398c1.268-1.207 2.579-2.453 1.642-4.85-.432-1.1-.477-1.913-.134-2.416.283-.413.832-.62 1.636-.62.481 0 1.052.076 1.693.222.652.152 1.277.471 1.88.775.868.44 1.768.895 2.797.895.206 0 .42-.016.688-.11.128-1.518.18-3.086-.686-4.101-.136-.165-.353-.257-.528-.382-.06-.04-.11-.087-.173-.123a4.12 4.12 0 0 0-1.89-.589c-1.831-.453-2.067-1.9-2.344-3.625-.495-3.023-2.183-5.25-5.255-6.729m588.992-41.89h.018c6.945-.065 10.997-4.29 11.114-11.589.04-2.222-.908-4.758-2.292-6.169-.647-.654-1.324-1.002-1.963-1.002-.22 0-.44.044-.649.128-3.609 1.476-6.812 4.886-8.162 8.684-.783 2.204-1.32 5.562.573 9.03.256.476.604.918 1.36.918m-20.95 82.785c-.485 0-.985.052-1.236.699-1.193 1.743-1.196 3.578-.01 5.59l.232 1.306c.673 1.296 1.395 2.568 2.52 2.9.035.008.069.019.105.027.142.034.265.112.422.112.638 0 1.342-.288 2.15-.88 1.471-.845 2.99-.955 4.151-.955.65 0 1.3.042 1.953.079.651.037 1.303.078 1.952.078.795 0 1.447-.057 2.06-.183.11-.02.23-.029.35-.029.366 0 .783.087 1.186.168.413.086.842.178 1.232.178.898 0 1.374-.513 1.505-1.605.037-.293-.008-.518.005-.793.005-.157.003-.316.003-.473a6.878 6.878 0 0 0-.134-1.34 4.608 4.608 0 0 0-.29-.916 4.122 4.122 0 0 0-.382-.66 3.807 3.807 0 0 0-.458-.513 4.23 4.23 0 0 0-.895-.67c-.123-.065-.262-.123-.398-.183-.254-.115-.46-.272-.759-.356-2.052-.579-3.648-1.463-4.875-2.678-.37-.69-.96-1.17-1.82-1.465-.175-.019-.326-.06-.444-.081l-.484-.877-1.128-.817-.406-.979c-.748-.733-1.753-1.575-2.889-1.575-.733 0-1.437.337-2.162 1.036-.102.144-.115.306-.183.456-.034.08-.068.162-.094.243-.04.128-.136.243-.15.377l-.76.717c-.694.96-.223 1.71.227 2.431.338.54.657 1.053.581 1.607-.107.019-.217.024-.508.024h-.17m74.045-25.215c.157 0 .317-.008.49-.023.175-.045.353-.084.462-.157.003-.003.008-.003.01-.003.093.484-.127.94-.358 1.421-.264.55-.536 1.115-.287 1.751l1.54 1.35.946.88c.793.28 1.562.414 2.342.414 2.345 0 4.336-1.265 6.262-2.492l1.01-.688c.304.316.657.51 1.168.586.981 0 1.928-.267 2.842-.524l.827-.225c.596-.254 1.271-.33 1.926-.4 1.224-.136 2.486-.275 3.318-1.576.058-.173.1-.366.102-.563l.304-.17c.923-.513 1.876-1.044 1.957-2.434l-1.75-1.918-1.095-1.529-3.692-2.583c-.39.141-.785.21-1.201.21-.885 0-1.74-.322-2.565-.631-.84-.314-1.7-.642-2.606-.642-.113 0-.228.006-.33.019a13.5 13.5 0 0 0-2.452-.22c-2.774 0-5.467.809-8.068 1.589-1.41.426-2.874.866-4.324 1.167-1.12.233-1.868.798-2.161 1.638-.38 1.081.052 2.516 1.156 3.84 1.387 1.303 2.733 1.913 4.227 1.913m-658.682-34.318l.377.238c2.632 1.68 5.351 3.413 6.422 6.685a.056.056 0 0 0 .055.042h.005c2.805-.34 4.391-1.605 4.943-3.9.021-.073.06-.118.076-.194.484.291.843.665 1.191 1.026.537.56 1.044 1.084 1.905 1.084.565.042 1.076.063 1.536.063 3.643 0 4.256-1.474 4.596-6.939-.623-.94-1.432-1.973-2.68-2.549-1.408-1.25-2.973-1.418-4.315-1.418-.524 0-1.052.031-1.578.06-.526.029-1.052.055-1.573.055-.23 0-.458-.005-.699-.016a5.873 5.873 0 0 1-.806.052c-.581 0-1.175-.07-1.766-.141-.595-.068-1.191-.136-1.775-.136-1.447 0-2.483.445-3.368 1.46-.332.827-1.039.896-1.79.966-.693.066-1.413.134-1.798.856-.311.55-.397 1.05-.264 1.476.154.48.581.882 1.306 1.23m641.08 72.015c.081.314.246.612.5.9.008.005.013.013.02.021.153.168.27.348.482.503 2.002 1.489 4.4 3.174 6.993 4.397.618.29 1.408.437 2.36.437 3.308 0 7.851-1.853 8.137-3.819.403-2.727.61-5.585-1.573-7.886-.238-.138-.471-.322-.701-.497-.406-.306-.835-.568-1.304-.699l-.039-.013c-.13-.031-.249-.11-.39-.11-.366 0-.727.126-1.11.382-1.536.948-3.423 1.916-5.752 1.916-.217 0-1.018-.044-1.193-.044-1.743 0-3.486.644-5.182 1.91-.902.676-1.376 1.427-1.376 2.175 0 .108.07.207.091.312.008.039.027.078.037.115"/><path d="M813.45 120.767c-.125.16-.238.324-.34.487.019-.108.034-.223.034-.346a.625.625 0 0 0 .306-.141zm-1.994 2.25c.437-.269.887-.544 1.215-.91-.197.49-.314 1-.349 1.539-.345.089-.643.343-.926.589-.361.306-.73.628-1.201.628-.123 0-.249-.021-.35-.021h-.043c.131-.895.903-1.369 1.654-1.824zm-17.53 45.08c-.027.071.002.087.512.283l.272.11c2.11 1.238 3.269 1.919 3.93 1.919.66 0 .823-.647.867-1.968.024-.312.045-.665.063-1.063.981 2.693 3.418 3.203 5.78 3.682.789.163 1.579.322 2.338.563.217-.023.416-.078.557-.17.246.139.484.23.738.285.343.079.665.115.955.115 1.139 0 1.892-.575 2.298-1.748l.966-1.47c.453-.166.89-.451 1.314-.723.646-.422 1.313-.856 2.038-.856.524 0 1.04.225 1.557.68.322.464.83.657 1.32.846.711.275 1.444.557 1.724 1.646.036.157.144.223.21.346.046.096.099.19.159.261.125.152.29.265.479.34.115.045.233.084.358.097.118.021.189.092.325.092.382 0 .793-.073 1.2-.139.367-.062.728-.12 1.05-.128.848-.016 1.442-.518 1.544-1.309.163-1.232-.662-1.732-1.463-2.222-.175-.107-.353-.214-.515-.33l-2.44-1.65-7.023-12.072c.133-1.193-.427-2.138-.974-3.049-.212-.353-.426-.71-.596-1.076a2.332 2.332 0 0 0-.186-.432l-.029-1.292c1.6-1.796 1.699-3.966 1.793-6.065.042-.918.083-1.868.201-2.727.267-.031.526-.042.785-.047.068 0 .136.003.207.003 1.11.015 2.188.256 3.18.523 2.611.704 5.341 1.152 7.976 1.586 1.078.175 2.154.35 3.203.54l1.937 1.266c.641.346 1.382.408 2.088.471.992.087 1.926.162 2.672.935.31.321.772.706 1.222.706.249 0 .461-.115.636-.34.416-.531.11-1.036-.18-1.52-.16-.268-.327-.54-.398-.857l-5.192-3.499c-.04-.296-.055-.6-.073-.903-.053-.905-.11-1.84-.741-2.58.15-.67.04-1.233-.311-1.678-.581-.72-1.667-.919-2.314-.919-.01 0-.309.019-.445.019-1.222 0-2.193-.55-3.13-1.081-.583-.33-1.18-.673-1.829-.875-1.034-.322-1.947-.714-1.785-1.95.15-1.128 1.144-1.489 2.112-1.845 9.445-3.441 9.688-4.276 9.966-14.198.068-2.306-.207-3.602-.914-4.33-.44-.447-1.036-.664-1.834-.664-.639 0-1.395.136-2.308.419-4.164.934-9.346 2.667-12.46 7.783-.408.587-.562 1.16-.476 1.76.047.14.128.258.233.35.01.023.02.05.034.07a5.043 5.043 0 0 0-.803.28 7.204 7.204 0 0 0-1.04.833c-.07.052-.14.1-.211.152l.112-.176c.131-.204.262-.41.408-.615.105-.222.228-.442.348-.662.33-.597.67-1.212.691-1.921 2.146-4.01 1.97-8.747-.431-11.783-2.395-3.023-1.529-4.342.355-6.6.835-1.006 2.1-2.524.757-3.948a2.63 2.63 0 0 0-1.984-.858c-.785 0-1.683.306-2.528.864-3.627 2.39-6.124 5.09-7.623 8.244-.914.955-1.22 2.18-1.51 3.366-.238.966-.484 1.963-1.073 2.824l-.979 6.352c-3.548 4.271-3.528 6.004.11 9.739 1.774 1.824 2.094 3.952 1.005 6.692-.63 1.508-.4 3.047-.18 4.534l.094.628c.133.366.214.753.295 1.14.163.778.33 1.582.953 2.21.29.327.576.649.845.958l.942 4.138.694 4.19c-1.51.796-1.924 2.209-2.321 3.578-.212.701-.422 1.429-.783 2.057a1.724 1.724 0 0 0-.186.39 3.037 3.037 0 0 1-.568.052c-1.099 0-2.08-.562-3.033-1.102-.965-.552-1.96-1.12-3.085-1.12-.262 0-.526.032-.798.097-2.185 1-3.282 2.369-3.353 4.185-.073 1.675.464 3.293.982 4.852.685 2.068 1.392 4.206.714 6.51zm222.285 19.282c-.866 0-1.667.1-2.423.299-1.717-.29-3.486-.409-5.192-.524-1.895-.128-3.837-.27-5.768-.623-.314-.063-.626-.136-.94-.21-.426-.099-.855-.185-1.282-.313-1.144 1.319-1.57 2.35-1.306 3.148.275.822 1.3 1.419 3.138 1.82.979.211 2.015.245 3.01.274 1.965.068 3.998.134 5.691 1.573 2.976 1.976 6.43 2.73 9.775 3.455l1.434.317c.931.209 1.766.311 2.557.311 1.936 0 3.54-.644 4.731-1.897l4.373-.618c.238.016.474.029.712.029.811 0 1.452-.134 2.028-.416.644-.547.921-.958.866-1.296-.013-.092-.112-.147-.167-.217-.006-.005-.008-.01-.013-.016-.186-.22-.482-.385-.825-.526-.442-.175-.9-.361-.952-.717-.694-.809-1.508-.914-2.138-.914-.322 0-.652.032-.98.06-.324.035-.648.063-1.203.066l-1.319-.882-1.384-.898a9.755 9.755 0 0 1-2.264.257c-1.704 0-3.415-.393-5.066-.77-1.662-.38-3.376-.772-5.093-.772m-258.256 4.7l-4.457-.975c-1.19 0-2.3-.56-3.37-1.1-1.084-.544-2.204-1.11-3.424-1.11-.562 0-1.093.134-1.572.412-.04.015-.076.015-.11.034a4.095 4.095 0 0 0-.11-.812c-4.01-1.06-8.788-2.14-13.818-2.14-.95 0-1.905.039-2.865.122-1.869.16-2.981.82-3.62 2.162-.047 1.207-.494 2.358-.931 3.47-.626 1.597-1.272 3.246-.762 5.094.097 1.931 1.557 2.5 2.612 2.722.118.285.27.43.453.43.062 0 .117-.08.18-.108l.008-.008c.081-.045.168-.05.236-.147l.366.008c2.248 0 4.263-.887 6.215-1.75 1.733-.762 3.523-1.553 5.412-1.723l2.002 1.584c.309.3.613.452.893.452.306 0 .596-.175.863-.518.932-.88 2.259-1.384 3.65-1.384.401 0 .786.041 1.147.125 2.452.573 4.721.853 6.946.853 2.407 0 4.676-.34 6.877-1.067.15-.042.296-.058.442-.105-1.253 3.57.155 6.572 1.704 9.035l.309.47c.528.797 1.028 1.548.916 2.54l1.625 2.015c.458.24.94.466 1.382.466.502 0 .902-.278 1.224-.848 1.249-1.482 1.314-2.86.223-4.761-1.767-3.057-2.267-4.664-1.843-5.928.471-1.393 2.167-2.35 4.75-3.442.367-.152.699-.372 1.031-.594.278-.18.552-.361.843-.505.877-.427 1.335-.979 1.293-1.547-.045-.55-.552-1.042-1.33-1.282l-.759-.236c-2.732-.853-5.555-1.733-8.358-1.733-2.322 0-4.386.6-6.273 1.83M320.13 53.372c.44.248.822.466.52 1.146-1.036 1.026-1.447 1.874-1.256 2.602.27 1.044 1.79 1.583 2.91 1.895.33.094.678.14 1.034.14h.003c1.206 0 2.368-.51 3.556-1.083 1.576-1.039 2.424-2.12 2.743-3.486.973-1.78.968-3.567-.021-5.318l-3.58-4.363c-.667-1.73-1.405-2.573-2.261-2.573-.953 0-1.921 1.055-2.858 2.073l-.361.39c-2.303 1.51-3.337 2.685-3.452 3.926-.112 1.22.654 2.518 2.56 4.337.128.123.298.22.463.314m459.08-3.824c.018.05.04.102.06.154.068.168.086.338.191.5.301.469.466 1.11.644 1.788.306 1.178.667 2.342 1.717 2.745h.002c.233.09.46.186.772.186.456 0 .992-.11 1.628-.343.256-.371.55-.725.843-1.078.986-1.188 2.004-2.416 1.583-4.274-.152-1.434.534-2.589 1.196-3.704.272-.455.542-.908.756-1.376.976-2.136.997-4.319.058-6.148-.945-1.843-2.758-3.11-5.14-3.565-.612.293-1.264.673-1.442 1.267-.123.398-.029.845.275 1.348l.298 5.18c-.034.42.128.769.453 1.004.277.874.235 1.678-.113 2.267-.303.508-.824.848-1.51.981-1.154.225-1.973.775-2.302 1.55-.053.12-.024.264-.05.395a2.206 2.206 0 0 0 .081 1.123m-72.933 132.1c.063-1.197-.798-2.411-2.637-3.717a65.738 65.738 0 0 1-2.484-1.07c-2.546-1.137-5.174-2.317-7.963-2.317-1.455 0-2.835.312-4.235.968-.243.328-.403.644-.437.9-.866.142-1.497.642-1.884 1.498-.199.746-.607 1.458-1.005 2.154-.871 1.515-1.769 3.086-.591 5.096 1.22 2.107 2.462 3.086 3.923 3.086.659 0 1.376-.212 2.122-.623.479-.267.845-.39 1.151-.39.432 0 .79.23 1.272.827.793.97 1.487 1.44 2.12 1.44.83 0 1.52-.804 2.167-2.521l.74-.804c.296.037.59.05.882.05 1.27 0 2.492-.322 3.627-.966 2.107-1.19 3.167-2.371 3.232-3.612m60.735 42.942c-1.023 0-2.007 1.018-2.24 2.306-1.455 2.905-1.157 4.934.955 6.561 3.952 5.918 10.434 8.747 16.2 10.93.434.165.894.249 1.37.249 1.864 0 3.814-1.264 5.7-2.484 1.037-.67 2.107-1.366 3.12-1.832 2.58-.016 4.839-.22 6.273-2.596.405-2.026.819-4.125-.22-6.167-1.583-.963-2.934-2.277-4.242-3.549-1.806-1.753-3.674-3.564-6.166-4.488-.154-.129-.3-.194-.44-.194-.122 0-.235.05-.324.05a.105.105 0 0 1-.04-.008c-.91-1.162-1.988-1.748-3.19-1.748-.415 0-.858.07-1.303.209-1.74.304-3.485.756-5.17 1.19-3.018.783-6.138 1.587-9.356 1.587-.286 0-.57-.005-.927-.016m179.111 58.441c.016-.054.034-.107.047-.164.094-.414.118-.846.079-1.286-.008-.102-.013-.204-.026-.306a6.383 6.383 0 0 0-.4-1.384c-.022-.055-.04-.11-.066-.163-.113-.267-.178-.513-.33-.795-1.007-.715-1.858-1.063-2.606-1.063-1.081 0-1.913.715-2.55 2.186-.167.387-.164.86-.156 1.321.007.943 0 1.827-1.442 2.112l-.006-.03h-.002c.015-.022.034-.045.042-.045l-.176-.063-.13-.1.075.079-.117-.042.227.251c.008 0 .024-.023.04-.044l.002.005.018-.005c-.013.002-.015.01-.028.01.057.233-.006.427-.194.61-.236.558-.385 1.139-.54 1.725-.25.953-.504 1.937-1.177 2.792-.662.409-1.347.822-2.023 1.115-.013.006-.023.014-.039.019l-.24-.623c-.357-.942-.765-1.858-1.477-2.487-.031-.028-.073-.055-.11-.083-.293-.236-.659-.396-1.088-.495-.1-.024-.2-.05-.309-.063-.173-.023-.296-.1-.495-.1l-.125.08c-.076.002-.139-.014-.22-.009-.01.055-.024.113-.037.168l-.065.044-.055.362c-1.02.418-1.259 1.3-1.487 2.161-.057.22-.12.443-.185.71l1.654 2.737.05.712c.073 1.155.196 2.32 1.078 3.154.05.05.107.094.16.136.127.105.214.225.37.317-.015.29.045.557.223.843l.895.186.882-.257 1.361-.026c.128.141.272.272.45.398.243.065.479.097.699.097.235 0 .429-.116.636-.189.065-.02.136-.029.193-.058a2.001 2.001 0 0 0 .668-.547c.141-.157.303-.261.421-.473.505-1.107 1.029-2.254.811-3.518.56-.777 1.105-1.573 1.646-2.366 1.23-1.79 2.5-3.643 3.947-5.282.243-.274.38-.547.562-.819l.008-.013c.31-.471.529-.95.657-1.432M759.78 64.835c.144.176.311.26.463.396.073.068.144.128.217.185.267.207.545.362.84.461.126.045.254.073.382.097.152.026.286.11.443.11.711 0 1.468-.272 2.248-.812 1.48-1.023 1.675-2.525.591-4.6-.332-.409-.699-.799-1.062-1.192-.788-.842-1.605-1.714-2.02-2.724-.71-1.722-1.623-2.56-2.79-2.56-.793 0-1.728.377-2.968 1.215-.529 1.224-.992 2.831.147 4.397l3.509 5.027m-94.45 89.425c-1.088 0-2.072.492-2.928.919l-.602.133c-1.986 1.204-4.2 2.772-5.53 5.29a2.734 2.734 0 0 0-.282 1.206l.317.521.874.822c.013.01.026.013.042.013.005 0 1.583-.484 2.368-.72 1.761-.528 3.525-1.06 5.244-1.704 2.13-.795 3.491-1.478 3.698-2.434.215-.981-.77-2.195-2.567-3.988a3.54 3.54 0 0 0-.633-.058M499.162 324.124l.241-.068c1.002-.633 2.198-.75 3.352-.863 1.717-.17 3.342-.333 4.368-2.034.257-.427-.35-1.487-.707-1.992-.952-1.335-2.305-1.908-4.524-1.908-.23 0-.466.006-.717.019l-.555.065c-1.405.152-3.334.359-3.62 2.664-.135 1.102.563 2.74 1.304 3.578.311.351.607.54.858.54m320.467 28.554a4.766 4.766 0 0 1-.183-.479c-.144-.421-.293-.856-.568-.93-.976-.253-1.923-.693-2.842-1.117-1.426-.662-2.907-1.342-4.543-1.342-.309 0-.623.018-.942.073-.903.147-1.487.471-1.73.968-.233.474-.147 1.1.26 1.85 1.056 1.958 2.946 2.652 4.772 3.322.683.249 1.359.497 1.987.806.01.005.235.047.235.047.733 0 2.256-.937 3.093-2.305.084-.137.15-.28.218-.424.073-.163.19-.301.243-.469m165.126-175.395c.44.594.973.676 1.44.676.185 0 .379-.019.567-.032.189-.013.377-.029.563-.029.275 0 .494.034.706.113l.076.003c.778 0 1.201-.506 1.61-.992.154-.186.306-.367.484-.53.782-.996 1.07-1.876.89-2.68-.215-.923-1.047-1.716-2.63-2.493-.81-.398-1.56-.6-2.225-.6-1.52 0-2.604 1.005-3.216 2.994-.414 1.594.162 2.772 1.735 3.57m13.5-9.9l.341.29c.105.125.202.256.301.392.288.388.584.78 1.091.94.013.005.03.002.042.008.142.042.29.076.474.076.05 0 .102 0 .154-.006.115.987.866 1.134 1.657 1.262.277.91 1.052 1.17 1.808 1.424.736.246 1.429.479 1.712 1.27.206.523.46 1.056 1.01 1.334 1.342 2.363 3.501 3.033 5.791 3.748.783.24 1.57.487 2.33.806 1.308.552 2.478.822 3.566.822 2.178 0 4.017-1.084 5.794-3.45-.078-1.696-1.272-2.607-2.627-3.64-.359-.173-.62-.249-.846-.249-.403 0-.68.249-.834.733-.37.34-.691.515-.96.515-.545 0-.796-.711-.909-1.306-.282-1.491-1.123-2.664-1.931-3.8a33.922 33.922 0 0 1-.662-.945 1.68 1.68 0 0 0-.932-.638s-.29.023-.296.026l-.515-.675-.982-1.22-1.698-.097-2.575.01c-1.225-.756-2.622-.897-3.98-1.033-1.267-.126-2.46-.246-3.515-.825-.845-.466-1.547-.69-2.146-.69-1.097 0-1.85.724-2.53 2.45.266 1.117 1.083 1.802 1.868 2.467M437.38 288.257c-1.413-1.46-2.827-2.17-4.32-2.17-.888 0-1.817.262-2.785.84.144.676.55 1.249.94 1.807.708 1.012 1.444 2.06.71 3.792-.185.44-.185.809-.002 1.104.456.739 1.979.825 3.07.885l.254.008c.675 0 1.175-.196 1.552-.482.029-.02.057-.039.083-.062.079-.068.202-.108.265-.191.293-.404.335-.937.123-1.581-.246-.76-.108-1.463.023-2.144.115-.576.23-1.172.087-1.806m396.555 35.368c-.324-.176-.636-.411-.947-.644-.631-.474-1.283-.966-2.028-.966-.521 0-1.029.228-1.563.701-1.06.937-2.206 2.26-1.59 4.157.52 1.62 1.606 2.593 3.056 2.737.11.008.311.013.311.013 1.358 0 1.714-.989 2.057-1.95.204-.56.408-1.133.817-1.502.505-.51.73-.976.69-1.413-.039-.4-.303-.78-.803-1.133M262.456 78.34c.121 0 .247-.008.375-.03.207-.025.387-.135.586-.198a4.124 4.124 0 0 0 1.3-.673c.038-.029.074-.06.113-.089a4.201 4.201 0 0 0 .982-1.138c.186-.314.314-.634.398-.977a3.03 3.03 0 0 0 .06-.342c.023-.176.102-.346.094-.521-.01-.236-.105-.448-.17-.67 0-.003-.003-.008-.003-.013-.38-1.249-1.604-2.28-3.854-3.107-1.979.987-2.162 2.973-2.128 4.381.026 1.013.296 3.377 2.248 3.377m589.261 74.548c.736.573 1.469 1.146 2.149 1.764.267.243.552.369.83.369.277 0 .539-.123.777-.37.685-.696.238-1.287-.262-1.952-1.923-2.709-4.483-4.868-7.045-7.004l-1.533.037c-.063-.003-.123-.003-.184-.003v.008h-.06c.555 3.413 2.981 5.313 5.328 7.15M839.51 350.48a10.066 10.066 0 0 0-1.175-.078c-1.758 0-2.952.62-3.763 1.952-.27.45-.353.817-.249 1.12.04.121.163.19.249.278.01.013.02.029.034.042.254.24.591.427.968.578l.265.102c.876.846 2.023 1.314 3.611 1.474h.015c2.04-.356 3.23-1.466 3.183-2.981-.042-1.557-1.649-2.306-3.138-2.487M339.5 191.083c.165 0 .34-.021.519-.066 1.5-.358 4.294-1.028 4.273-3.232-.015-1.832-1.5-1.835-2.693-1.837-.426-.003-.832-.003-1.138-.084a8.939 8.939 0 0 0-.947-.058c-.893 0-1.468.189-1.814.586-.335.388-.44.98-.317 1.804.283 1.89 1.013 2.887 2.118 2.887m295.775 139.362c.042.045.097.081.155.12.086.058.117.15.238.186.706.202 1.405.571 2.083.93 1.057.557 2.149 1.133 3.344 1.133.65 0 1.272-.168 1.932-.558.018-.314-.042-.534-.058-.806-.002-.1-.01-.193-.02-.288-.043-.418-.116-.803-.239-1.125a2.72 2.72 0 0 0-.33-.647c-.052-.075-.068-.19-.128-.253-.84-.922-2.248-.974-3.609-1.024-.871-.034-1.769-.068-2.57-.303l-.282.492c-.419.696-.887 1.486-.683 2.01.026.063.125.078.167.133m68.337-48.92c1.529.618 2.421.872 3.083.872.586 0 .955-.283 1.246-.728.023-.036.05-.06.073-.102.387-.696.563-1.816.641-3.512-.892-.72-1.845-1.089-2.831-1.089-.955 0-1.913.361-2.77 1.047-1.056.846-.439 1.843.1 2.725.157.256.314.51.458.788"/><path d="M700.489 167.158c.104-.167.212-.34.308-.52l.123.083c-.073.113-.167.199-.256.293-.06.047-.11.11-.175.144zm-14.83 5.907a.49.49 0 0 1-.22.068c-.165 0-.354-.083-.558-.248.212.073.416.107.618.13.052.014.11.037.16.05zm-97.808 39.157c-.371.472-.85.87-1.329 1.27-1.18.99-2.4 2.015-2.002 4.023-.084.821.435 1.227.934 1.628.364.287.71.554.89 1.018.12.015.24.028.377.028.102 0 .21-.005.332-.023.597 1.38.092 2.677-.397 3.928-.495 1.267-1.005 2.581-.414 3.97.005.352-.01.702-.031 1.058-.058 1.186-.123 2.41.78 3.685-.019.602-.037 1.215.664 1.532.898 1.75 1.874 2.913 3.714 2.913.688 0 1.48-.163 2.433-.5.45-.157.914-.34 1.382-.521 1.73-.673 3.52-1.372 5.423-1.372.46 0 .926.045 1.358.102.094.21.23.432.364.655.274.453.562.924.452 1.222-1.478 4.057.42 7.014 2.69 9.6.608.702.67 1.592.733 2.455.03.419.058.835.147 1.236.955 4.363-.4 8.427-1.709 12.353-.958 2.871-1.887 5.837-1.976 8.915v.086c-.013.474-.057.942-.023 1.421.028.411-.62.99-.971 1.304-2.706 2.41-2.633 5.543-2.272 8.003.236 2.413 1.361 3.924 3.426 4.61.361.245.746.444 1.125.646.955.497 1.853.966 2.463 2.078.643 1.186 1.764 1.866 3.07 1.866 1.536 0 3.087-.945 4.058-2.452 1.41-.047 2.842-.343 4.235-.626 1.517-.309 3.088-.633 4.626-.633 1.971 0 3.599.52 5.13 1.633.23.167.5.256.777.256.638 0 1.225-.447 1.452-1.11.314-.915-.384-1.373-1-1.774l-.319-.167c.26-.806-.175-1.288-.602-1.751-.196-.215-.395-.435-.518-.655.045-1.952-.442-3.907-.91-5.797-.702-2.816-1.424-5.721-.409-8.676 0-.003 0-.005.003-.008.144-.421.324-.84.544-1.264 1.563-3.044 3.177-6.193.885-9.658l-.026-.746c-.037-1.288-.076-2.628-.736-3.805.176-1.393.21-2.83.244-4.217.068-2.92.144-5.946 1.51-8.729.3-.468.314-.994.102-1.586-.024-.07-.013-.138-.042-.212-.003 0-.003.003-.008.006-.008-.019-.003-.037-.013-.055l-.217.076-.037-8.517c.346-.23.542-.531.618-.971-.058-.202-.068-.45-.076-.686-.024-.602-.05-1.282-.882-1.282h-.05c.097-.919-.395-1.683-.89-2.314-.978-1.24-1.39-2.4-1.211-3.44.18-1.08.965-2.054 2.389-2.967a8.035 8.035 0 0 0 1.955-1.74c.139-.236.3-.43.479-.603.023-.026.047-.06.076-.083.591-.547 1.35-.833 2.088-1.1.591-.217 1.206-.442 1.693-.795.377.029.757.039 1.139.039l2.049-.029c1.51 0 3.106.139 4.522 1.079l.24 5.64c.445 1.688-.436 2.897-1.549 4.195-.923 1.081-1.876 2.432-1.923 4.214-.927 1.803-1.28 3.348-1.175 4.677.008.108.034.21.05.317.068.479.201.929.413 1.34.06.12.136.233.215.348.13.199.204.427.371.607 4.355 4.724 9.084 8.658 14.03 11.668.283.54.77.602 1.235.662.249.034.508.071.73.178.662.238 1.05.573 1.157.99.115.44-.092.976-.597 1.554-.984 1.118-.95 2.369-.808 3.617-1.963 2.448-2.377 5.185-1.233 8.135.073.264.183.531.325.796 2.394 4.43 6.696 5.15 10.556 5.268.757.427 1.482.636 2.212.636 1.586 0 2.933-1.018 4.056-2.028.652-1.236.084-2.272-.513-3.057-.22-.053-.408-.11-.586-.39-.141-.778-.283-1.578-.123-2.358.298-.296.539-.597.735-.922.06-.146.129-.259.17-.348.314-.118.67-.173 1.018-.222.498-.074 1.016-.15 1.432-.437l-.032-.045v-.002.002l.32.092c.408 0 .785-.045 1.209-.152a13.028 13.028 0 0 0 2.28-.864c.125-.057.256-.097.381-.162.026-.018.05-.037.076-.058.034-.018.068-.026.105-.05a1.908 1.908 0 0 0 2.007-.173c.463.692 1.167 1.108 1.793 1.443.416.246.866.432 1.316.62.22.092.445.163.667.246.16.076.327.142.484.228a4.788 4.788 0 0 0-.688-.057c-2.044 0-3.724 1.313-5.352 2.588-.444.35-.895.701-1.337 1.02a5.809 5.809 0 0 0-.814.349 1.362 1.362 0 0 0-.507.563l-.785.806-.796.866c1.12 2.24 1.308 4.617.586 7.252-.366.592-.837 1.105-1.465 1.61-.82 4.476-.095 5.622 4.08 6.45.243.046.494.078.743.106.895.102 1.737.197 2.177 1.22l.225.639c.173.455.343.916.421 1.387.055.317.176.547.254.824a5.14 5.14 0 0 0 .657 1.49c.131.196.27.382.422.547.198.209.42.395.664.552.215.141.445.264.694.364.392.164.848.264 1.33.33.13.018.256.041.392.052.225.015.403.083.646.083l.395-.007c3.046-.11 4.486-1.586 4.81-4.931.068-.66.27-1.317.466-1.953.09-.296.18-.594.194-.85l.455.07.304-.217c.358.162.704.24 1.046.24.995 0 1.806-.695 2.5-1.295 1.557-.445 3.912-1.112 3.415-3.546-.278-1.356-.997-2.311-1.979-2.856a.148.148 0 0 0-.034-.02c-.53-.291-1.117-.493-1.797-.493-.168 0-.346.013-.492.04-1.924-1.07-2.23-2.463-1.021-4.651.126-.23.238-.466.345-.683.393-.83.707-1.482 1.55-1.482.397 0 .892.144 1.507.44.243.118.487.178.714.178.165 0 .31-.086.456-.147h.005a1.57 1.57 0 0 0 .861-.774c.063-.126.05-.265.086-.398.019-.066.03-.128.042-.191a1.912 1.912 0 0 0 0-.861 1.229 1.229 0 0 0-.078-.246c-.05-.123-.047-.28-.123-.38-.84-1.123-1.188-2.649-1.523-4.127-.673-2.96-1.372-6.015-6.009-6.161-.128-.006-.212-.05-.3-.092-.053-.021-.11-.037-.153-.07-.285-.236-.345-.702-.395-1.223-.044-.419-.084-.853-.28-1.1.374-.368.65-.536.898-.536.261 0 .492.2.722.631 1.272.963 2.324 1.413 3.3 1.413 1.057 0 2-.531 2.894-1.63.84-1.754 1.152-3.227.984-4.638-.164-1.374-.565-3.013-1.56-3.013-.12 0-.243.024-.374.074-.798.293-1.708.319-2.593.348-1.33.036-2.68.128-3.698 1.073-.044.042-.084.105-.128.152-.194.199-.398.371-.56.651l-2.588-.541a1.032 1.032 0 0 0-.691-.257c-.44 0-.908.251-1.316.469-.328.175-.642.34-.87.34-.122 0-.305-.042-.402-.408-.105-.375-.286-.7-.44-1.045-.016-.036-.026-.073-.042-.104-.945-2.055-2.65-3.644-4.357-5.16-2.764-2.449-5.619-4.982-4.912-9.563.544-.463 1.209-.835 1.845-1.193 1.015-.57 2.007-1.196 2.638-2.167.013-.026.031-.05.047-.076.154-.251.28-.537.371-.85.014-.043.016-.092.024-.137.086-.322.194-.62.196-1.013.147-1.24-.701-1.615-1.667-1.916l-2.52-1.868c.034-.356-.031-.665-.06-.99-.005-.042-.005-.089-.01-.13-.223-1.786-1.309-3.123-2.419-4.395a23.261 23.261 0 0 1-1.122-1.343 8.047 8.047 0 0 1-.99-.806c-.044-.047-.096-.086-.14-.13-.982-.966-1.728-2.126-2.45-3.26-.581-.907-1.175-1.842-1.885-2.664l-5.071-7.08c-.262-.245-.563-.45-.872-.659-.56-.377-1.13-.775-1.57-1.429a3.567 3.567 0 0 1-.421-.861c2.436-.576 3.609-2.437 4.744-4.24.715-1.138 1.453-2.311 2.486-3.167l.801-.228c.223.019.443.024.66.024 1.853 0 3.384-.54 4.692-1.662a9.94 9.94 0 0 1 .926-.976c.048-.045.092-.092.142-.136 1.073-.966 2.313-1.712 3.525-2.434 1.068-.639 2.17-1.296 3.156-2.081 1.53 0 2.114-1.123 2.583-2.293a7.908 7.908 0 0 1 0-.748c1.507-1.275 3.117-2.906 3.611-5.327.757-.617 1.518-1.303 1.754-2.222.209-.002.395-.023.562-.063.793-.374 1.615-.672 2.445-.973.476-.17.957-.346 1.415-.529l.843-.1.77.257c1.075.34 2.19.694 3.106 1.717.756.843 1.709 1.29 2.758 1.29.191 0 .382-.086.573-.115a4.636 4.636 0 0 0 1.455-.492c.204-.107.408-.233.61-.371.141-.1.285-.144.426-.26-.075-.905.27-1.769.602-2.601.443-1.102.895-2.24.416-3.494.542-3.175-.473-4.819-3.747-6.075a11.326 11.326 0 0 0-4.135-.764c-2.329 0-4.572.665-6.741 1.306-1.565.463-3.182.94-4.852 1.183l-2.11 2.44a.667.667 0 0 0-.486.193l-2.457-.029c-1.361-.016-2.72-.031-4.078-.031-.688 0-1.381.005-2.167.015l-.858-.015c-.505 0-1.068.047-1.426.421-.283.296-.403.751-.374 1.385l-.053.426-.031.395c-2.193 1.65-4.164 2.455-6.024 2.455-2.162 0-4.172-1.099-6.182-3.376l-.882-.107c-.408-.183-.774-.28-1.086-.28-.706 0-1.18.484-1.374 1.397l-1.269.903-.989.09c-2.431 1.033-3.724 2.905-3.842 5.569.006.277.058.57.18.874-.402.44-.87.83-1.344 1.222-1.1.922-2.243 1.874-2.421 3.421-.22.244-.43.513-.625.838a2.76 2.76 0 0 0-.239.853 9.744 9.744 0 0 1-1.876.186 10.42 10.42 0 0 1-2.088-.22 2.115 2.115 0 0 0-.668-.814 1.822 1.822 0 0 0-.646-.1c-.034 0-.068 0-.107.003l-.597-.188c-2.11-.66-4.109-1.28-4.66-3.866-.194-.437-.477-.832-.757-1.217-.482-.67-.984-1.364-.99-2.322-.211-.25-.248-.557-.285-.882-.044-.34-.08-.69-.35-.978a.871.871 0 0 0-.495-.168.797.797 0 0 0-.256.042l.133-.168c.147-.712.016-1.358-.398-1.934-.785-.795-1.87-1.144-2.92-1.484-1.602-.513-3.26-1.05-3.889-3.182-2.313-7.816-3.69-16.866 3.645-24.726 1.641-1.97 3.607-2.225 5.138-2.225.816 0 1.65.079 2.48.163.694.065 1.385.133 2.264.16.246 0 .503-.06.775-.176.08-.018.165-.003.246-.029.047-.042.086-.084.125-.128.605 1.38 1.785 1.568 2.863 1.568.254 0 .51-.01.796-.034.24-.12.476-.252.646-.398.532.484 1.044.722 1.57.722.786 0 1.48-.539 2.152-1.06.502-.39 1.018-.795 1.604-.994.047-.134.068-.267.277-.563.508.15 1.016.332 1.52.516 1.165.42 2.369.853 3.547.853.256 0 .484-.081.725-.12a.657.657 0 0 0 .07-.011c.675-.126 1.314-.359 1.871-.817l.963.207c.615.092 1.23.139 1.85.139a11.8 11.8 0 0 0 1.32-.076 4.395 4.395 0 0 0 1.06-.264c1.138.583 2.04.842 2.928.842.583 0 1.136-.112 1.63-.358.084.08.225.097.322.162.118.079.254.144.403.204.139.053.228.16.387.194.516.133 1.06.194 1.66.194.868 0 1.745-.137 2.59-.27l.848-.126c.503-.293.89-.607 1.11-.903l8.113-.644 6.063-.112c.128.162.267.33.46.508.608.123 1.225.16 1.848.16.354 0 1.77-.048 2.125-.048.77 0 1.683.047 2.599.367.795.335 1.408 1.033 2 1.711.842.96 1.713 1.958 3.134 1.958.338 0 .7-.055 1.052-.165l.87.034c1.347.016 2.7.092 4.053.17 1.513.084 3.023.168 4.533.168 3.268 0 5.762-.411 8.076-1.324.494-.082.994-.1 1.496-.1l.984.008c.895 0 1.93-.042 2.863-.55.262.026.521.04.778.04.332 0 .58-.092.866-.147.084-.016.17-.024.254-.042.267-.07.518-.167.743-.293.07-.037.136-.1.207-.144.209-.141.447-.243.62-.44 3.596-1.201 5.336-4.274 6.875-6.985l.356-.641c.871-1.57 1.769-3.194 3.38-4.039 4.8-2.526 6.525-7.132 8.192-11.592l.442-1.259c1.615-.358 2.601-.924 3.015-1.73.57-1.107-.032-2.51-.607-3.868-.22-.516-.44-1.031-.62-1.56-.414-.27-.814-.568-1.22-.864-1.285-.952-2.612-1.937-4.274-1.937-.512 0-1.023.092-1.588.296l-1 1.374c-.644.665-1.214 1.416-1.782 2.17-1.541 2.031-3.135 4.13-6.226 4.347-.486.03-1.044.717-1.285 1.191-.978 1.9-2.6 3.188-4.163 4.436a34.171 34.171 0 0 0-1.858 1.545c-3.366 3.062-6.556 4.907-9.817 5.669-.091.02-.183.044-.272.063-1.062.227-2.13.345-3.219.348h-.02c-.762 0-1.542-.06-2.34-.17-.063-.011-.126-.019-.191-.03-2.478-.368-5.142-1.258-8.073-2.706-.79-.675-1.662-1.007-2.66-1.007-.635 0-1.31.133-2.085.408-.495.301-.809.66-.926 1.073l-4.865 2.23-8.746-1.774c-1.021-.998-2.188-1.123-3.094-1.123-.507 0-1.025.047-1.546.097l-.374.044c-.417-.35-.958-.447-1.48-.54-.708-.12-1.378-.235-1.79-.889l.048-.178.092-.146-.082.099.037-.136-.173.249-.633-.014-.583.027a2.47 2.47 0 0 0-.163-.45c-1.646-1.14-3.493-1.76-5.105-2.22-.81.06-1.63.175-2.453.288-1.156.162-2.35.33-3.49.33-1.924 0-3.421-.482-4.748-1.547-.4-.34-.795-.725-1.167-1.207h-.052c-.019-.02-.042-.036-.06-.06l-.27-.076c-.01-.136-.016-.272-.094-.455l-1.754.026-1.73.044c-.14-.144-.295-.217-.463-.217-.115 0-.243.037-.306.118-2.206-1.526-4.635-1.654-6.937-1.654l-1.89.01c-.61 0-1.22-.01-1.84-.05-1.185.268-1.347 1.144-1.502 1.992-.052.293-.104.59-.201.856-.003.005-.335 3.193-.335 3.193l-.615 1.01-1.884 1.574a1.998 1.998 0 0 0-.299-.021c-.942 0-1.293.748-1.633 1.473-.685 1.479-1.588 2.992-3.064 2.992-.176 0-.354-.024-.534-.066-1.41-.332-1.358-1.617-1.306-2.86.018-.427.034-.851-.024-1.27-.748-.607-1.523-.913-2.313-.913-.68 0-1.384.23-2.117.712-.05.144-.123.225-.35.225-.043 0-.09-.003-.142-.008-1.3.495-1.27 1.575-1.225 2.85l.406.738-.652.427c-1.073.693-2.185 1.408-2.9 2.528-.557.1-.777.51-.986.908-.073.139-.147.272-.243.443.25 1.39-.54 2.19-1.374 3.033-.563.573-1.144 1.157-1.356 1.926a38.41 38.41 0 0 1-.97 1.398c-1.61 2.261-3.222 4.585-1.843 7.114.139.256.3.513.502.774.097.123.215.25.327.375.307.345.652.69 1.081 1.047-.254.18-.55.277-.897.277-.398 0-.809-.11-1.249-.228-.437-.117-.895-.238-1.334-.238-.825 0-1.434.44-1.919 1.385-.876 1.704-.196 2.803.458 3.868.23.37.464.743.628 1.136.89 5.057 1.314 9.912-3.19 13.751-.4.343-.505.861-.607 1.364-.102.49-.204.994-.589 1.395l-.026 1.806-1.86 3.413c-4.428 4.412-5.54 11.202-2.777 16.879l.078 1.753.137 2.204c-4.245 2.486-4.318 6.802-4.376 10.574-.296.364-.393.714-.298 1.052-.971 2.748-3.546 4.072-6.004 5.232-.21 0-.424.005-.678.036zm271.776-32.619c.583.05 1.172.094 1.759.094 1.318 0 2.305-.243 3.33-.821l.388-.168c.058-.018.113-.031.17-.047a.131.131 0 0 1-.02-.018l.06-.026-.537-.487c-.56-2.055-1.863-2.338-3.187-2.338-.338 0-.68.021-1.026.04-.335.02-.668.036-1.126.036h-.026c-1.2 0-1.792.608-1.85 1.908-.073 1.537.971 1.744 2.065 1.827m-225.591 147.73c.374 0 .788-.073 1.259-.23l1.706-1.96c.173-1.142.018-1.997-.448-2.537-.38-.44-.97-.664-1.965-.664h-.037c-.832.039-1.478.303-1.98.675-.03.02-.058.034-.084.055-.102.081-.252.13-.333.228-.39.447-.555 1.018-.497 1.7.157 1.765.997 2.733 2.379 2.733M749.175 82.892c.044.086.17.13.254.199l.039.031c.277.204.667.348 1.22.348l.29-.007c2.18-.16 2.53-1.846 2.586-3.474.052-1.408-.767-2.122-2.51-2.188-.775.087-1.282.304-1.547.66-.343.46-.227 1.094-.112 1.704.104.568.214 1.157-.05 1.591-.28.458-.338.84-.17 1.136M862.9 343.867c-.354-.772-.717-1.573-1.68-1.859-.916-1.115-2.188-1.486-3.423-1.72a8.137 8.137 0 0 0-1.008-.07c-.94 0-1.596.217-2.004.668-.673.732-.563 1.978-.456 3.185.042.466.084.932.084 1.382.646 2.884 1.565 4.172 2.991 4.172.84 0 1.887-.466 3.174-1.408l.33-.048c.531-.057 1.139-.128 1.204-.926l.93-.877c.748-.6.475-1.306.203-1.793-.13-.222-.235-.463-.345-.706m-60.434-9.768c-.28-.01-.57-.06-.858-.11-.335-.055-.668-.113-.987-.113-.767 0-1.274.328-1.651 1.11.418.641.005 1.26-.395 1.85-.325.485-.631.938-.537 1.409.058.295.264.56.641.811.427.288 1.115.46 1.845.46.597 0 1.125-.114 1.492-.326 1.55-.893 1.177-2.15.819-3.358-.168-.558-.338-1.139-.369-1.733m-325.303-11.9c-.387 0-.817.14-1.311.431-1.217.72-1.86 1.458-1.973 2.261-.097.704.23 1.458.997 2.259.285.089.5.084.756.136.089.021.175.034.26.045.245.039.533.136.748.136.884 0 1.523-.351 1.957-1.013.118-.168.22-.359.309-.573.02-.055.047-.097.068-.157a5.21 5.21 0 0 0 .275-1.118 1.463 1.463 0 0 1-.05-.113c.003-.036.016-.06.018-.099-.476-1.084-.968-2.196-2.054-2.196M339.608 77.61c.123 0 .251-.01.382-.031 1.638-.26 2.324-1.657 2.837-2.992-.49-1.023-1.086-2.112-2.041-2.112-.129 0-.267.021-.4.063-1.315.403-2.686 1.513-2.78 3.078a1.799 1.799 0 0 0 .481 1.369c.375.398.93.625 1.52.625"/><path d="M625.447 306.997c-.141.516.18 1.16.994 1.973.29.197.553.495.806.79.461.527.935 1.074 1.639 1.074.35 0 .725-.136 1.172-.46l.296-4.165c2.34-4.407 2.23-5.993-1.146-15.47-2.518.769-2.947 2.884-3.039 4.85-.183 3.907.11 7.299.94 10.3-.984.252-1.526.613-1.662 1.108m259.37-61.85c.723 0 1.2-.057 1.495-.368.5-.516.458-1.67.343-4.42 1.363-1.448 1.78-2.812 1.274-4.16-.444-1.18-1.504-2.177-2.53-3.14l-.67-.642a19.133 19.133 0 0 0-1.039-.923c-.94-.801-1.832-1.558-2.337-2.822-2.528-6.36-5.621-8.506-12.35-8.503h-.491c-2.45 0-4.842-.076-7.19-.99l-3.396-.908c-.458-.764-1.217-.895-1.947-1.015-.607-.105-1.183-.2-1.597-.582.06-.293.058-.58-.047-.91-.9-.409-1.86-.783-2.755-.783-1.029 0-1.871.487-2.575 1.495l-1.772 2.235c-.41.133-.803.44-1.186.735-.5.388-.973.754-1.46.754-.262 0-.51-.107-.75-.322-2.728-2.44-5.803-2.766-8.451-2.766-.898 0-1.795.041-2.698.078-.898.045-1.795.084-2.685.084a20.91 20.91 0 0 1-1.623-.055 41.902 41.902 0 0 0-3.012-.128c-3.79 0-7.976.709-10.243 5.977-.186.43-.735.728-1.272 1.013-.256.142-.518.283-.727.43l-7.88 2.596c-2.044.298-3.297.615-3.671 1.361-.343.694.083 1.727.936 3.2.553.02 1.202.341 1.835.653.67.332 1.36.675 1.973.675.99 0 1.578-.898 1.85-2.819.053-.094.87-.23 2.078-.23.414 0 .811.015 1.13.055 1.087.13 1.053.903 1.019 1.717a5.21 5.21 0 0 0-.003.638c.068.906.032 1.822-.005 2.735-.076 1.801-.152 3.664.62 5.41-.084.723-.084 1.691.387 2.217.218.246.516.37.888.37.298 0 .649-.082 1.044-.247.62-.254 1.198-.377 1.769-.377.568 0 1.138.12 1.824.38.144.013.285.018.426.018 1.788 0 3.332-.79 4.824-1.555 1.096-.562 2.224-1.14 3.446-1.403.338-.123.644-.264.89-.416l.421.118s.976-.102 1.272-.146a3.64 3.64 0 0 1 .544-.034c.273 0 .558.02.84.041.286.021.574.045.85.045.849 0 1.778-.186 2.212-1.544.555-1.717-.117-3.19-1.991-4.374-.134-.08-.142-.421-.15-.717-.005-.157-.007-.314-.062-.385l3.07-1.348 3.001-1.36.825.95c-.048.931.07 1.821 1.211 2.062.811.173 1.62.356 2.431.536 2.091.472 4.253.956 6.404 1.244.421.055.835.086 1.235.086 1.772 0 3.245-.633 4.63-1.997.978-.96 2.106-1.466 3.266-1.466 1.476 0 2.957.827 4.171 2.335 2.285 2.827 5.177 4.258 8.59 4.258l.473-.013 12.279 7.352.79.016M65.425 117.658c-2.253-.752-3.37-2.097-4.543-4.16-.811-1.429-1.819-2.39-2.942-2.962-.005-.005-.013-.008-.018-.01-.701-.354-1.442-.592-2.238-.592-1.292 0-2.669.47-4.155 1.437-.846.547-1.644 1.065-2.633 1.065-.136 0-.513-.008-.539-.008-.434.874-.531 1.615-.298 2.264.274.767.989 1.38 2.3 1.963.317.33.604.68.88 1.042.054.07.11.138.162.206.879 1.197 1.57 2.516 2.242 3.806.715 1.366 1.45 2.785 2.41 4.036 1.644 1.882 2.997 4.156 4.135 6.964.717 1.77 1.99 2.667 3.784 2.667.487 0 1.021-.07 1.586-.201 2.408-.565 3.544-2.031 3.379-4.353l-.024-.306c-.089-1.162-.18-2.366.33-3.5 1.36-4.3-.207-8.15-3.818-9.359M33.529 85.161l-.95-.932c-.162-.274-.382-.465-.565-.706a8.293 8.293 0 0 0-.393-.492 9.086 9.086 0 0 0-1.57-1.416c-.005-.003-.01-.005-.015-.01-1.408-.985-3.013-1.663-4.612-2.28l-.748-.288c-.442-.293-.93-.537-1.413-.785-1.492-.757-2.902-1.469-3.214-3.474-.91-1.096-1.834-1.628-2.818-1.628-1.398 0-2.693 1.113-3.774 2.202-1.225 1.232-1.808 2.473-1.732 3.687.075 1.191.785 2.32 2.101 3.348 1.29 1.646 3.187 2.235 5.289 2.884 1.955.607 3.96 1.3 5.77 2.447a12.714 12.714 0 0 1 1.923 1.487c.14.128.273.264.41.4.248.257.496.516.73.804.962 1.183 2.116 1.837 3.257 1.837h.003a3.37 3.37 0 0 0 1.437-.335c1.588-.74 1.565-2.17 1.541-3.554a11.73 11.73 0 0 1 .01-1.097c.048-.63-.24-1.225-.52-1.8l-.147-.299m98.388 141.493c.183-.123.353-.238.468-.364 1.552-1.685.882-3.146.021-4.352l-.434-.764c-.793-1.422-1.617-2.893-3.284-3.555l-1.508-2.81c-.44-.385-.437-.909-.432-1.464.006-.594.008-1.206-.575-1.633-.411-.235-.788-.523-1.167-.811-.42-.317-.84-.634-1.301-.888-.277-.146-.555-.321-.838-.494-.855-.526-1.74-1.073-2.666-1.073-.576 0-1.107.21-1.618.641-2.038 1.72-1.177 3.884-.075 5.755.74 2.924 2.208 4.937 4.762 6.52 2.128 1.324 3.143 3.675 4.127 5.946.296.686.59 1.367.914 2.016.526 1.057 1.206 1.554 2.146 1.554.319 0 .675-.06 1.086-.172.636-.186.981-.435 1.06-.757.115-.484-.42-1.02-.924-1.486-.382-.351-.56-.655-.54-.93.027-.371.427-.643.778-.879m-14.08-21.056c-.224-.398-.439-.77-.353-1.214a45.25 45.25 0 0 1-.887-1.463c-.657-1.107-1.334-2.256-2.206-3.201-1.157-1.262-2.601-1.987-3.957-1.987a3.93 3.93 0 0 0-1.638.364c-1.607.74-1.29 2.256-1.01 3.596.086.403.17.801.201 1.173.108 1.211.997 1.423 1.856 1.628.49.117.986.272 1.46.583.026.03.06.047.086.076.024 0 .04.013.063.013.024.019.05.021.074.04.803 0 1.345.497 1.868.973.364.333.738.678 1.196.853.249.095.492.244.738.396.434.264.882.539 1.374.539.358 0 .693-.144 1.031-.437.806-.704.45-1.327.105-1.932m56.945 73.096l-.434.023c-.079.073-.191.105-.348.105-.163 0-.349-.034-.542-.07a3.45 3.45 0 0 0-.67-.085c-.565 0-.906.296-1.068.94-.298 1.186.552 1.767 1.377 2.327.183.12.36.243.526.369.405.314.816.62 1.23.924.756.555 1.512 1.11 2.214 1.725.18.157.353.33.528.505.524.526 1.068 1.073 1.727 1.073.44 0 .89-.238 1.374-.728 1.416-1.431 1.424-3.216.013-4.774-1.418-1.57-3.357-2.334-5.927-2.334M82.511 143.987c.448 1.688 1.552 2.479 3.536 2.476h.541c1.385 0 2.772.037 4.156.07l2.115.053a.06.06 0 0 0 .057-.052c.296-3.638-1.908-3.866-4.038-4.09-.701-.072-1.429-.15-2.07-.349l-2.609.167c-.871.27-1.44.84-1.688 1.725m-29.52-45.666l.063-.005c1.377-.314 1.607-1.442 1.832-2.534.045-.222.092-.445.147-.678-.175-2.583-1.426-3.892-3.721-3.892l-.629.019-.991-.03c-.846 0-1.639.2-1.714 1.65-.03.528 1.216 2.135 2.462 3.447.45.476 1.963 2.023 2.552 2.023m50.303 88.577l-1.834-1.974-.618-.638.06-1.003-2.193-4.19c.094-.296.081-.521-.031-.678-.11-.15-.312-.23-.579-.23h-.026c-.714-.427-.748-1.128-.753-1.866a.788.788 0 0 0-.351-.082c-.1 0-.217.019-.364.053-.002 0-.008-.003-.013 0 .421-2.288-1.149-3.41-2.643-4.442.225-.77-.152-1.324-.513-1.855-.15-.22-.301-.44-.45-.71a2.039 2.039 0 0 0-.411-.039c-.798 0-1.418.463-2.018.913-.61.459-1.185.893-1.991.893-2.086.005-3.22 1.136-3.551 3.533l-1.029 1.733c-.56.85-.529 1.735.115 2.722l.88.877c-.142 1.478.787 2.224 1.685 2.944.282.228.565.456.803.686l.584 1.447c-.084 1.647.11 3.429 2.114 4.151l.087.607.115.652 5.752 3.172c.084.228.16.461.233.741.644.592 1.248.89 1.8.89.678 0 1.296-.45 1.82-1.327l1.784-1.591c2.46-.678 2.112-2.175 1.774-3.623-.136-.583-.277-1.185-.238-1.766M85.01 106.024c-.285-.202-.58-.409-.803-.7l-.563-.114c-.552-.118-1.122-.241-1.69-.241-.484 0-.914.089-1.348.29-.775 1.199-1.002 1.945-.746 2.421.04.068.139.097.194.152.008.008.02.016.031.024.262.233.66.382 1.322.382.217 0 .458-.01.727-.04.853-.078 1.714-.099 2.573-.12l1.238-.07c.335-1.087-.31-1.542-.935-1.984m-.871 56.355c.628-.657 1.416-1.476.88-2.675l.025-.487c.102-1.685.21-3.426-.722-4.986.204-2.845-1.484-4.857-2.771-6.122-.634-.62-1.393-.937-2.254-.937-.706 0-1.48.223-2.237.644-.395.22-.61.448-.654.7-.066.35.217.685.49 1.004.292.348.554.686.488 1.1-.01.028-.002.054-.018.083h.008c-.008.021 0 .037-.008.058.144.031.296.05.45.07.584.074 1.133.147 1.246.92-.175.418-.092.852-.01 1.266.099.508.193.99-.152 1.476-.11.626-.31 1.24-.505 1.85-.437 1.354-.89 2.751-.343 4.246-.021.798.112 1.35.322 1.79.02.047.042.086.062.128.071.12.108.285.2.377.31.322.743.471 1.363.471.38 0 .788-.055 1.196-.11.403-.055.803-.11 1.177-.11.372 0 .67.058.995.17l.835-.154c.151-.293.13-.578-.063-.772m672.238 188.054c-1.9.058-3.14 1.168-3.583 3.207-.13.615-.042 1.17.162 1.604v.003c.05.102.063.238.129.319.217.27.52.41.882.41l.144-.007c1.926-.186 3.42-1.424 4.006-3.324.06-.785-.086-1.374-.437-1.751-.283-.306-.69-.46-1.295-.46h-.008m-91.288-77.676a2.27 2.27 0 0 0-.6-.087c-.819 0-1.358.54-1.878 1.063-.317.314-.642.636-1.05.877l-.246 1.497c-1.005 1.594-.952 3.13.168 4.596l2.405 3.572c.623 1.152 1.523 1.96 2.672 2.408a.051.051 0 0 0 .02.003c.008 0 .016 0 .027-.005a.073.073 0 0 0 .031-.032c.073-.264.312-.419.558-.576.358-.233.732-.47.622-1.054-.02-1.223.019-2.408.689-3.56.206-1.578.421-3.214-.636-4.63-.173-1.696-.547-3.549-2.782-4.072m-130.386 91.348c.932-.798.966-1.963.882-3.24.27-.128.495-.33.67-.602.872-1.4 1.15-2.594.848-3.654-.337-1.19-1.395-2.19-3.329-3.148-2.248-1.123-4.297-1.665-6.26-1.665-1.379 0-2.703.262-4.035.796-2.09.458-3.347 1.604-3.836 3.488l-.799 1.233-.214.44c-.005.01-.013.02-.021.034h.005l-.026.052.267.066c-.432.72-.372 1.505-.26 2.12l-.038.455c-.066.743-.129 1.482-.244 2.186-.777 2.12-2.91 3.104-4.93 3.847.073 1.118.348 2.33 1.766 2.808 1.314 1.476 3.164 1.61 4.795 1.62l1.24.006c2.769 0 5.538-.053 8.306-.102l3.11-.11.745-.008-.002-.016.057-.003c-.678-2.269-.99-4.64 1.303-6.603m100.322 29.638l-2.36-1.821-.477-.508c-.837-.898-1.698-1.827-2.95-2.18-1.098-1.432-2.695-2.034-4.241-2.61l-.924-.348-.919-1.1c-2.37-2.868-5.056-6.116-7.866-6.116-.28 0-.552.032-.822.094-2.881.697-5.88.76-8.78.822-4.19.087-8.518.178-12.493 2.199-2.27 1.41-3.337 2.61-3.465 3.881-.15 1.419.835 3.018 3.287 5.353 1.565 1.382 3.302 1.56 4.64 1.56.66 0 1.33-.05 2-.1.664-.044 1.328-.094 1.988-.094.57 0 1.138.036 1.693.141.317.06.65.073.995.073l1.049-.013c1.193 0 2.395.157 2.832 2.084 1.797 2.256 4.294 3.415 7.097 4.554.063.767.468 1.306 1.209 1.61.387 2.64 2.423 3.37 4.394 4.077.505.183 1.013.361 1.518.579l.295-.053.27.236c.547.32.997.463 1.416.463.405 0 .78-.139 1.046-.445.312.419.822.558 1.275.654h.01c.006 0 3.007-.903 3.007-.903.15-.099.288-.217.432-.332.296-.238.602-.487.94-.586 4.344-1.309 6.416-2.589 6.935-4.287.044-.152.018-.333.036-.49.008-.063.013-.125.016-.186.115-1.528-.798-3.423-3.083-6.208m29.19 13.312c-.251 0-.51.015-.82.07-.162.15-.334.29-.507.435-.382.314-.772.633-1.036 1.034-.38.586-1.16.947-1.913 1.295-.882.414-1.717.798-1.96 1.523-.15.435-.063.94.259 1.547.452.859 1.266 1.28 2.491 1.28.85 0 1.78-.19 2.682-.377.385-.078.76-.16 1.115-.217.105-.016.204-.058.424-.141l.932-.545c1.172-.468 2.502-1 2.366-2.771-.822-2.11-2.141-3.133-4.033-3.133"/></g></svg>