<svg height="42" width="120" xmlns="http://www.w3.org/2000/svg"><g fill="none"><path d="M3.14.508l113.354.2c1.583 0 2.998-.234 2.998 3.161l-.138 37.33H.279V3.73C.279 2.055.442.507 3.14.507z" fill="#aab2ab"/><path d="M117.752 0H2.247A2.25 2.25 0 0 0 0 2.246v39.247c0 .28.228.507.508.507h118.984c.28 0 .508-.227.508-.507V2.246A2.25 2.25 0 0 0 117.752 0zM2.247 1.015h115.505c.68 0 1.233.552 1.233 1.231v27.276H36.16c-3.026 5.471-8.856 9.186-15.547 9.186-6.693 0-12.521-3.711-15.546-9.186H1.015V2.246c0-.679.553-1.231 1.232-1.231z" fill="#000"/><g fill="#fff"><path d="M73.809 32.747c.316 0 .604.028.865.083.26.056.482.147.669.274.185.126.33.295.431.505.102.21.154.47.154.779 0 .334-.076.611-.228.833-.152.224-.377.405-.674.548.41.117.715.323.917.617s.303.648.303 1.062c0 .334-.065.623-.195.868-.13.244-.306.443-.525.598-.22.155-.472.27-.753.343a3.381 3.381 0 0 1-.87.112h-3.216v-6.622zm-.186 2.678c.26 0 .473-.062.641-.185.167-.123.25-.323.25-.6a.768.768 0 0 0-.083-.38.625.625 0 0 0-.223-.232.945.945 0 0 0-.32-.116 2.156 2.156 0 0 0-.376-.032h-1.365v1.545zm.085 2.81c.143 0 .279-.013.409-.041a1.04 1.04 0 0 0 .344-.139.704.704 0 0 0 .237-.265.901.901 0 0 0 .088-.426c0-.34-.096-.582-.288-.728-.192-.144-.446-.217-.762-.217h-1.589v1.816h1.562zm2.795-5.488h1.634l1.55 2.615 1.542-2.615h1.623l-2.458 4.08v2.542h-1.46V36.79z"/></g><path d="M34.254 19.606c.005 7.53-6.097 13.637-13.627 13.642S6.989 27.153 6.984 19.623v-.017c-.004-7.53 6.097-13.636 13.627-13.64 7.53-.005 13.638 6.095 13.643 13.625z" fill="#fff"/><path d="M31.703 8.502c3.023 3.023 4.535 6.726 4.535 11.103 0 4.38-1.485 8.043-4.457 10.989-3.154 3.102-6.88 4.653-11.181 4.653-4.25 0-7.912-1.539-10.987-4.615-3.076-3.075-4.614-6.75-4.614-11.027 0-4.275 1.538-7.976 4.614-11.104 2.997-3.023 6.66-4.536 10.987-4.536 4.379 0 8.08 1.512 11.103 4.536zm-20.055 2.033c-2.556 2.582-3.834 5.606-3.834 9.075 0 3.468 1.266 6.466 3.795 8.995 2.53 2.53 5.542 3.794 9.037 3.794 3.494 0 6.532-1.277 9.114-3.832 2.451-2.374 3.678-5.358 3.678-8.957 0-3.572-1.246-6.604-3.737-9.095-2.49-2.49-5.509-3.735-9.055-3.735-3.547 0-6.547 1.252-8.998 3.755zm6.727 7.549c-.39-.852-.975-1.278-1.755-1.278-1.378 0-2.067.929-2.067 2.784 0 1.856.689 2.783 2.067 2.783.91 0 1.56-.452 1.95-1.357l1.912 1.017c-.911 1.618-2.278 2.428-4.1 2.428-1.405 0-2.53-.431-3.376-1.292-.847-.861-1.269-2.05-1.269-3.564 0-1.487.436-2.668 1.308-3.543s1.958-1.312 3.26-1.312c1.926 0 3.305.759 4.138 2.275zm8.99 0c-.39-.852-.964-1.278-1.72-1.278-1.406 0-2.11.929-2.11 2.784 0 1.856.704 2.783 2.11 2.783.912 0 1.551-.452 1.915-1.357l1.954 1.017c-.91 1.618-2.274 2.428-4.093 2.428-1.403 0-2.526-.431-3.371-1.292-.843-.861-1.266-2.05-1.266-3.564 0-1.487.429-2.668 1.286-3.543s1.948-1.312 3.274-1.312c1.922 0 3.3.759 4.13 2.275z" fill="#000"/><g transform="translate(63.794 2.981)"><ellipse cx="12.473" cy="12.236" fill="#fff" rx="10.739" ry="10.738"/><g fill="#000"><g transform="translate(8.944 3.975)"><path d="M6.637 5.154a.75.75 0 0 0-.749-.749H1.145a.75.75 0 0 0-.749.75v4.742H1.72v5.616h3.595V9.897h1.323V5.154z"/><ellipse cx="3.517" cy="2.159" rx="1.623" ry="1.622"/></g><path d="M12.446.405c-3.212 0-5.932 1.12-8.157 3.362C2.005 6.086.864 8.83.864 11.999s1.141 5.894 3.425 8.175c2.284 2.28 5.003 3.42 8.157 3.42 3.193 0 5.96-1.15 8.301-3.45 2.206-2.183 3.31-4.898 3.31-8.145s-1.123-5.99-3.367-8.232C18.444 1.525 15.697.405 12.446.405zm.029 2.086c2.632 0 4.867.928 6.705 2.784 1.858 1.835 2.786 4.077 2.786 6.724 0 2.667-.909 4.88-2.728 6.638-1.916 1.894-4.17 2.84-6.763 2.84-2.594 0-4.83-.936-6.705-2.81-1.878-1.876-2.815-4.098-2.815-6.668s.948-4.811 2.844-6.724C7.618 3.419 9.843 2.49 12.475 2.49z"/></g></g></g></svg>