<svg height="50" width="160" xmlns="http://www.w3.org/2000/svg"><g fill="#ecf0f1" fill-rule="evenodd"><path d="M155.363 13.792v.316c0 1.126-1.044 2.117-2.088 2.117-1.304 0-2.261-2.388-2.261-2.433 0-1.216 2.305-2.027 3.044-2.027.783 0 1.305.54 1.305 2.027zm-2.131 6.712c-.174 1.262-2.349 8.2-1.522 8.965 1.087.991 6.566-7.298 7.001-7.883.61-.811 1.697.63 1.13 1.486-2.434 3.694-5.826 9.55-9.697 8.064-.826-.315-2.827-1.036-2.827-4.505 0-2.568 1.348-7.478 2.783-8.334.436-.27.783-.09 1.305-.09 1.261 0 2.392 1.261 1.827 2.297z"/><path d="M151.22 20.247c-.181.353-.633 1.233-.86 1.41.046-.133.137-.265.137-.397-.181.22-.272.352-.272.44 0 .044.045.088.045.132.227 0 .452-.396.543-.528 0 0 .045 0 .045.044s-.045.044-.045.088h.045c-.226.705-.452.925-.542 1.145.09-.22-2.983 5.458-6.147 8.32-.994.88-2.35 1.452-4.022 1.452-1.627 0-3.525-.748-3.525-3.742 0-1.54.227-3.257.227-3.917v-.177c-1.176 1.541-3.074 6.56-6.102 6.56-2.575 0-3.163-2.07-3.163-5.811v-2.641c-2.124 2.773-3.796 9.552-5.92 9.552-2.17 0-3.615-2.2-3.615-3.918 0-2.42.497-4.666 1.13-7.395.316-1.453 1.355-3.213 3.48-3.213.903 0 2.213-.089 2.213.616.046.484-.225 1.056-.541 1.849-.814 1.98-1.266 4.138-1.402 6.25 1.402-2.289 3.661-7.615 6.011-7.615.136 0 .316 0 .452.044 1.717.484 2.666.484 2.847 1.849.226 1.804.135 4.578.362 6.735 1.084-1.233 3.57-7.132 5.694-7.132 1.536 0 3.525.22 3.525 3.742 0 1.805-.272 4.535-.272 5.59 0 .397.046.617.136.617 1.13 0 5.062-5.37 7.818-9.684 0 .088.135.088.135.088.136 0 .091-.353.227-.396v.043c.09 0 .27-.175.361-.175h.09c.136 0 .136-.088.317-.177 0 .089.09.132.09.132 0 .045-.045.045-.045.045h.045c.09 0 .136-.045.18-.045 0 .045-.044.045-.044.089 0 .088.045.176.18.176.046 0 .136-.045.182-.045zm-3.21 4.975l.046.044c.045 0 .045-.088.045-.132v-.044c-.09.088-.18.176-.18.22.09 0 .09 0 .09-.088zm.136-.88c-.09.043-.135.264-.135.307.09-.043.135-.043.135-.132 0-.043-.045-.043-.045-.088 0-.044.045-.044.045-.087zm.769-.705c.18-.308.18-.308.225-.484-.09.264-.361.484-.497.748 0 0 .046 0 .046.044 0 .088-.226.352-.316.484.225-.175.316-.22.406-.528 0-.132.18-.088.18-.22 0-.044-.044-.044-.044-.044zm1.355-1.54c.046 0 .046 0 .046-.044v-.089l-.407.705c0-.044.316-.705.27-.748-.18.307-.406.616-.406.88.045 0 .09-.088.09-.088.046 0 .046.044.046.044-.045.044-.09.176-.09.176.135-.132.451-.485.451-.837zm-35.286-9.833c.136-.363.363-.5.68-.5.637 0 1.41.545 1.41 1.044 0 .635-.91.68-1.137.68-.544 0-.999-.59-.999-1.043 0-.045.046-.136.046-.181zm-1.636 5.215c.41-.952 1.317-1.315 2-1.315.453 0 .726.136.726.409-.727 5.533-.318 14.105-2.272 20.093-.999 3.084-3.997 9.615-9.721 12.291-.272.181-.5.272-.727.272-.045 0-.136 0-.181-.045l.817-.454c-.363 0-1.226.726-2.09.862.228-.045.273-.227.364-.227 0 0 .046.046.09.046-.044-.091.727-.273.727-.545h-.045c-.363 0-.681.363-1.045.454-.09.227-1.408.68-2.725.68-.182 0-.319 0-.455-.045h-.363c-.545 0-1.363-.09-1.863-.544.273.045.59.045.863.045 5.361 0 8.632-5.896 10.04-10.523 2.135-6.985 2.953-14.332 5.86-21.454z"/><path d="M112.014 25.605c-.089.182-.4.91-.578.91 0-.091-.267.181-.267.363-.178.273-.222.41-.311.591.045 0-.133.273-.178.227-.044.137-.222.32-.311.456 0 0-1.378 1.728-1.556 1.818-.178.092-.355.137-.533.41-.445.546-.712.5-1.378.819-.756.181-.845.09-.934.09-1.156.41-2.356-.773-2.756-1.864-.578-1.456-.578-4.867-.445-7.004-.089.091-.177.41-.177.455-.667 2.274-2.935 6.549-3.557 6.458-.311.318-.356.591-.667.773-.578.273-1.29.182-1.867-.227-.667-.455-.89-1.183-.89-1.956.179-2.82 1.29-5.412 2.49-7.368.89-1.364 2.001-2.865 3.69-3.683.934-.455 2.534-.091 3.468.455.4.227.222.454.222.5a.418.418 0 0 1-.444.182c0 .272.177.227.177.455-.044.273-.089.318-.089.636 0 .137 0 .091-.044.637-.044 2.865 0 9.095.489 10.142.934.636 6.313-7.004 7.202-8.46.31-.545.89-1.41 1.067-.59.044.181.222.272.266.545.09.546.045.91-.178 1.455l-.177.41c-.356.09-.045.227-.4.59-.134.274-.4.501-.49.728v-.09c.045-.091.09-.182.179-.273-.134 0-.045-.091 0-.182-.045.09-.134.137-.178.182 0 .045-.09.227-.09.09l-.4.592c-.355.364-.31.455-.71.955l.044.046c.133-.091.178-.364.356-.364v.045zm1.067-1.501c-.044 0-.044.09-.044.09s.044-.044.044-.09zm-12.403.273s.044 0 .089-.046v-.045c-.045.045-.09.045-.09.09zm9.691 2.683l-.089.091c.045 0 .089.045.089 0zm-9.247-2.774c.09-.046.09-.091.09-.091.044-.045.044-.137 0-.137 0 .092 0 .092-.09.228zm-.089-.637c-.044.045-.133.091-.133.136v.092c0-.046.09-.092.133-.137 0-.046.045-.09 0-.09zm-.177 1.273c.044 0 .044 0 .089-.09.044-.046.088-.137.044-.137 0 0-.044 0-.089.046 0 .045 0 .136-.044.181zm1.822-4.002l-.133.182c.045.046.178-.091.267-.273 0 0-.09.137-.134.091zm8.625 5.504c.044-.046.044-.092.044-.092.09-.136.223-.227.267-.364l-.267.273c0 .046-.044.137-.044.183zm-9.87-2.32s.09-.137.178-.137c0-.045-.044-.09-.044-.136.133-.182-.089.09-.178.273h.045zm.045.09l.044.046c.045-.09.223-.182.267-.318l-.31.273zm.222-1.273c.045-.045.178-.045.223-.136l-.09-.045s.134-.092.178-.137a.458.458 0 0 0-.266.227s0 .046-.045.091zm8.669 4.139c.133.045.178-.045.223-.136l-.09-.092c-.088.092-.088.183-.133.228zm-8.758-2.774c.178.09.267-.228.312-.273-.134.045-.223.227-.312.273zm.178-1.82c.089-.181.089-.318.267-.5v-.09c-.045.045-.045.045-.045.09-.044.046-.133.091-.133.091 0 .046 0 .046-.044 0-.045.137 0 .091-.09.319 0 0-.044.045.045.09zm9.514 2.184c0 .045.089.136.044.181 0 .046.534-.454.489-.409 0 0-.178-.09-.222 0-.089.091-.134.091-.134.228zm-.49.773c.134.136.312-.455.356-.5-.133-.046-.4.364-.355.5zm-.4 2.365l.134-.227c.089-.137.133-.228.267-.273-.134-.092.089-.183 0-.273l-.045.045c.134-.182.134-.136.134-.364-.09.319-.356.455-.445.592.089.045-.133.136.089.273-.089 0-.133.045-.133.09-.045 0-.045.045 0 .137zm-9.38-3.593l.312-.5s.044-.046-.045-.091c-.044 0-.044.045-.044.045l.178-.273v-.091c-.045.046-.09.091-.09.136 0 .046-.044-.045-.088-.045 0-.091-.09.182-.178.364.044 0 .089-.046.178-.09l-.09.135-.4.455c.134.046.09-.09.267-.045zm9.825 2.274l-.044.136c.177-.09.222-.227.31-.364.134-.318.134-.136 0-.273-.133.137-.31.319-.444.637-.044-.09-.044 0-.088 0 0-.046-.045.046-.045.046.089.09.089.136.089.136.044 0 .178-.318.222-.318zm-.044-.546c-.09-.045.222-.273.222-.318.089-.137 0-.228 0-.228s-.178.137-.267.318c.178-.181.045-.045-.044.183.044-.137-.356.546-.534.818h.045c0 .046-.045.046-.045.046.134 0 .4-.364.356-.5.045.045.089 0 .133 0 .09-.228.134-.183.134-.319zm-12.715 2.638c.045.045.09.045.134-.046 1.689-3.138 2.934-5.639 4.668-8.868.044-.364.577-1.046.755-1.182-.978.545-2.356 2.592-3.245 4.365-.89 1.728-1.867 4.094-2.312 5.731zm-.538-21.89c0 .453-.136 2.675-.409 2.675-1.455 6.622-2.32 14.74-4.41 23.99-.82 3.357-4.502 3.538-6.32 2.041-2.638-3.945-3.411-17.505-3.911-22.312-.182-.953-.137-2.494-.591-3.084-3.456 6.394-4.366 15.6-5.139 22.993-.181.77-.318 1.859-.772 2.177-.319 0-.501-.545-.637-.68-.228-.272-.228-.726-.364-.862-.182-.273-.41-.68-.591-.862l-.137.046-.227-.318c-.136 0-.318.091-.454-.227-.137.046-.319-.136-.683-.363h-.181c-.137-.272-.137-.634-.319-.861-.864-8.3.773-18.186 5.457-23.673 3.955-3.81 6.956 1.587 8.685 4.49 0 .18.227.453.227.453 1.273 2.086 1.637 12.244 2.319 15.555.182.318.182.771.364.998.181-.317.09-.544.273-.68 1.637-9.07 2.591-16.327 4.865-22.449 0-1.043.5-.725.59-.816 0 .272.137 0 .137 0 .41.272 1.773 2.494 2.092 1.814l.136-.045zM79.51 13.337v.09l.045-.045c0-.045 0-.045-.045-.045zm8.593 11.02c0-.045 0-.09.091-.09 0 0-.045-.046-.045-.091-.046.045-.046.136-.046.181zm.137.5c-.046-.182-.046-.41-.046-.59 0 .18-.045.363 0 .453 0 .046 0 .09.046.136zm-8.958-13.38c-.045.046-.09.092-.09.182 0 0 0 .046.045.046v.045-.045c.045-.273.363-.59.363-.953-.136.227-.227.544-.318.771zm1.364-1.178l-.272.635c.09-.227.227-.454.454-.771h-.045c0-.046.045-.091.045-.091-.045 0-.045.09-.182.09 0-.09.182-.272.182-.362l-.273.363s.091 0 .091.136zm7.503 14.83c0-.409-.137-.772-.227-1.18.045.408.045.817.227 1.18zm-8.412-12.29c.09-.182.136-.137.136-.092.137 0 0-.18.137-.18 0-.046 0-.092-.137-.092-.045 0-.045 0-.045-.045.045-.09.045-.182.136-.318-.136.136-.273.363-.273.59 0 .045.046.09.046.136zm.773-3.72v.046h.045c-.136.363-.318.635-.409.998.273-.68.728-1.36 1.091-1.905-.318.317-.545.861-.727.861zm7.275 12.2c-.046.045-.046.045-.046.09 0 .046.046.136.046.272v.409c0 .045 0 .09.046.136v-.227c.045.136 0 .408.045.408 0-.181.046-.363 0-.59 0-.453-.09-.997-.182-1.27.045.318 0 .59.091.59-.046 0-.046.136 0 .182zm.318 2.812s.046 0 .046.045l-.182-1.769-.091.182.046-.046c.045 0 .045 0 .045.046.045.045-.045.045-.045.045.045.09.045.181.045.317v.136c0-.045-.045-.045-.045-.09v.181c0 .272.045.635.136.726v-.136c.045.09.045.136.045.181a.138.138 0 0 1 0 .182zm-9.32-11.656c0 .182-.046.363-.046.499 0 0 .454-.862.5-1.224h-.046l-.045-.045c-.091.226-.319.77-.364.77zm.954-1.995c0 .045-.046.09-.046.181 0 .046.137-.045.092-.181.227-.272.545-.726.545-1.088 0-.046 0-.046-.045-.091 0 0 0 .181-.046.181v-.045c-.273.408-.5 1.088-.5 1.043zm1.455 0c.136-.181.136-.408.363-.544 0-.136 0-.227-.135-.318-.319.499-.546 1.18-.82 1.723v-.09s-.045-.045-.045-.09c0 .18-.181.316-.272.362h.045c.046 0 .091.046.091.046h.045v.045c0 .045.046.045.046.09-.136 0-.455 1.18-.637 1.225-.045.136-.045.408-.227.499.09-.09.182-.363.182-.454 0 .046-.045.091-.045.091-.046 0-.046 0-.046-.045l-.09.181s.044.045.044.09c0 .046-.09.137-.181.137 0 .136-.046.18-.137.317 0 .046.045.136.045.182 0 0 0 .045-.045.045v-.136c-.09.136-.09.136-.09.272.09 0 .09 0 .227-.136l-.455 1.497c.091 0 .318-.862.363-.953 0 0 .046 0 .046.046.046-.046.09-.046.09-.046 0 .363-.272.59-.272.998.41-.952.682-1.814 1.137-3.084l-.091.045s0-.045-.045-.045c0-.045 0-.227.136-.227 0 .045-.045.091-.045.091.045 0 .09 0 .09-.046v-.045h.046s-.046.045-.046.091c.091 0 .046-.363.319-.59h-.046c.137-.363.5-.77.591-1.179h-.09c0-.045 0-.045-.046-.045zm-2.137 2.948l-.045-.046c0-.045 0-.045.045-.045.091 0 .091.181.091.227.227-.59.5-.998.727-1.542.273-.499.364-.771.5-1.088-.363.861-.863 1.859-.727 1.27.137-.273.318-.59.364-.817.045-.136.181-.453.273-.453 0-.046-.046-.091-.046-.136 0-.182.137-.091.318-.5 0-.135-.045 0-.045-.135.136-.091.273-.545.364-.635l-.046.18c.046 0 .091-.09.091-.18 0 0 0-.046-.045-.09a.314.314 0 0 0 .181-.137c0 .09-.045.09-.045.136a.728.728 0 0 0 .227-.499c0-.045-.045-.09-.045-.09 0-.182.136-.182.136-.318-.409.136-.727 1.088-1.045 1.542.045-.046.045-.046.045-.091s0-.045-.045-.045v.136c-.046.227-.182.317-.273.453.045-.136.09-.272.09-.317l-.045-.045c-.045.317-.227.498-.318.77 0 .137 0 .273-.09.363 0-.09 0-.09-.137-.09 0 .045.045.135.045.226l.182-.272c-.09.136-.182.363-.227.5h.09a.566.566 0 0 0-.272.452c0 .046.045.091.045.091l-.09.272v.046c.045-.136.272-.409.454-.816 0 .18-.227.906-.227.77-.137 0-.228.091-.228.182v-.182c-.227.545-.545 1.089-.545 1.497h.045c0 .045-.045.09-.045.136v-.09.18-.09c-.182 0-.364.635-.364 1.134 0 0 0 .09.136.09-.273.137-.273.318-.273.59 0 .046 0 .09.046.09.227-.725.773-1.813.773-2.448-.091.181-.091.136-.182.181 0-.136.045-.181.09-.272.047 0 .047 0 .092-.045zM59.664 33.24c0 .536.415 1.028.646 1.073 0-.224.046-.537.046-.85.184.403.23.805.277.76 0-.134.092-.268.138-.447 1.154-8.043 2.077-14.12 3-22.61.553-.09 3.137-.224 3.83-.224a.315.315 0 0 0-.185-.179c.276 0 .646-.447.877-.447-.97-.76-2.815-.85-4.292-.85.092-1.25.416-2.59.416-4.601 0-.537 0-1.028-.093-1.43.093-.18.093-.313.093-.403 0-.893-2.077-1.072-2.861-1.072-.83 0-1.754.223-2.076 1.162-.508 1.564-.831 5.05-1.154 6.211-.923.045-3.692.09-3.692.402 0 1.028 1.846 1.385 3.092 1.385h.323c-.692 5.854-1.015 10.636-1.477 16.668 0 .313-.046.67-.046.984 0 1.027.185 4.513.462 4.513.046 0 0-.804.138-.804.185 0 .139.715.415.804 0-.313 0-.537.139-.715 0 0 .138 1.296.323 1.296 0 .044.046-1.028.138-.939.092.09.185 1.386.416 1.386-.139-.358-.093-.626-.093-1.028.093.089.415.983.554.938 0-.09.046-.178.046-.268.046.09.184.179.184.134l-.092-.313c.277 0 .139.269.461.447-.045-.268-.092-.402-.092-.715 0-.178.092-.223.139-.268"/><path d="M57.427 24.195s0-.091.044-.091c0 .045-.044.09-.044.09-.133 0-.045-.09 0-.18-.045.09-.133.136-.178.18 0 .046-.089.228-.089.092l-.4.591c-.356.364-.311.455-.711.955l.044.046c.133-.091.178-.364.356-.364v.045l-.045.046c-.089.182-.4.91-.578.91 0-.091-.266.181-.266.363-.178.273-.223.41-.312.591.045 0-.133.273-.177.227-.045.137-.223.32-.312.456 0 0-1.378 1.728-1.555 1.818-.179.092-.356.137-.534.41-.444.546-.711.5-1.378.819-.756.181-.845.09-.934.09-1.156.41-2.356-.773-2.756-1.864-.578-1.456-.578-4.867-.445-7.004-.088.091-.178.41-.178.455-.666 2.274-2.934 6.549-3.556 6.458-.31.318-.356.591-.667.773-.578.273-1.289.182-1.867-.227-.667-.455-.889-1.183-.889-1.956.178-2.82 1.29-5.412 2.49-7.368.889-1.364 2-2.865 3.69-3.683.933-.455 2.533-.091 3.467.455.4.227.222.454.222.5a.418.418 0 0 1-.445.182c0 .272.178.227.178.455-.044.273-.088.318-.088.636 0 .137 0 .091-.045.637-.045 2.865 0 9.095.49 10.142.933.636 6.312-7.004 7.201-8.46.311-.545.889-1.41 1.067-.59.045.181.222.272.267.545.089.546.044.91-.178 1.455l-.178.41c-.355.09-.044.227-.4.59-.133.274-.4.501-.489.728v-.09c.045-.091.089-.182.178-.273zm-12.359.182s.044 0 .089-.046v-.045c-.045.045-.089.045-.089.09zm9.691 2.683l-.088.091c.044 0 .088.045.088 0zm-9.247-2.774c.09-.046.09-.091.09-.091.044-.045.044-.137 0-.137 0 .092 0 .092-.09.228zm-.088-.637c-.045.045-.134.091-.134.136v.092c0-.046.089-.092.134-.137 0-.046.044-.09 0-.09zm-.178 1.273c.044 0 .044 0 .089-.09.044-.046.089-.137.044-.137 0 0-.044 0-.089.046 0 .045 0 .136-.044.181zm1.823-4.002l-.134.182c.044.046.178-.091.267-.273 0 0-.09.137-.133.091zm8.624 5.504c.044-.046.044-.092.044-.092.09-.136.223-.227.267-.364l-.267.273c0 .046-.044.137-.044.183zm-9.87-2.32s.09-.137.178-.137c0-.045-.044-.09-.044-.136.134-.182-.089.09-.178.273h.045zm.045.09l.045.046c.044-.09.222-.182.266-.318l-.311.273zm.223-1.273c.044-.045.177-.045.222-.136l-.09-.045s.134-.092.179-.137a.458.458 0 0 0-.267.227s0 .046-.044.091zm8.668 4.139c.134.045.178-.045.223-.136l-.09-.092c-.088.092-.088.183-.133.228zm-8.758-2.774c.178.09.267-.228.312-.273-.134.045-.222.227-.312.273zm.178-1.82c.09-.181.09-.318.267-.5v-.09c-.044.045-.044.045-.044.09a.632.632 0 0 1-.134.091c0 .046 0 .046-.044 0-.045.137 0 .091-.09.319 0 0-.043.045.045.09zm9.514 2.184c0 .045.089.136.044.181 0 .046.534-.454.49-.409 0 0-.178-.09-.223 0-.089.091-.133.091-.133.228zm-.489.773c.133.136.311-.455.356-.5-.134-.046-.4.364-.356.5zm-.4 2.365l.133-.227c.09-.137.134-.228.267-.273-.133-.092.089-.183 0-.273l-.044.045c.133-.182.133-.136.133-.364-.089.319-.356.455-.445.592.09.045-.133.136.09.273-.09 0-.134.045-.134.09-.045 0-.045.045 0 .137zm-9.38-3.593l.31-.5s.045-.046-.044-.091c-.044 0-.044.045-.044.045l.178-.273v-.091c-.045.046-.09.091-.09.136 0 .046-.044-.045-.088-.045 0-.091-.089.182-.178.364.044 0 .09-.046.178-.09l-.089.135-.4.455c.133.046.089-.09.267-.045zm9.824 2.274l-.044.136c.178-.09.222-.227.311-.364.134-.318.134-.136 0-.273a1.914 1.914 0 0 0-.444.637c-.045-.09-.045 0-.09 0 0-.046-.044.046-.044.046.09.09.09.136.09.136.044 0 .177-.318.221-.318zm-.044-.546c-.09-.045.222-.273.222-.318.09-.137 0-.228 0-.228s-.178.137-.266.318c.177-.181.044-.045-.045.183.045-.137-.356.546-.533.818h.044c0 .046-.044.046-.044.046.133 0 .4-.364.355-.5.045.045.09 0 .134 0 .089-.228.133-.183.133-.319zM42.49 28.561c.044.045.088.045.133-.046 1.69-3.138 2.934-5.639 4.668-8.868.044-.364.578-1.046.756-1.182-.978.545-2.357 2.592-3.246 4.365-.889 1.728-1.867 4.094-2.311 5.731z"/><path d="M43.541 21.989c.09-.09-.222.268-.355.402-1.512.805-4.491 1.879-6.225 2.505 1.69 4.072 2.4 12.438 1.155 16.464-.044 0-.177.895-.222.984-.133-.089-.845 3.222-2.134 3.088-.267-.045-.445.402-.756.09-.267.178.044.536-1.156.402-.356-.045-1.157.313-1.423.85-2.046 1.029-3.513-.94-4.491-2.55-1.646-5.816.4-15.435 1.512-21.609 1.69-8.993 3.735-16.598 5.291-20.267.134-.358.667-1.342 1.556-1.208.267-.76 2.18-1.342 3.024-1.073 1.957-.359 1.245 1.789.623 3.847-1.824 5.816-3.246 11.81-4.403 18.075.09.089.312.313.312.626 3.202-.716 6.447-1.969 9.293-3.624.134-.134.534-.224.49.09h.178c-.179.134-.134.223-.179.268.045 0 .045-.045.179-.045 0 .045 0 0 .044 0-.044.09-.356.805-.4.76-1.112.761-.534.27-1.646 1.075.4-.09.979-.627.979-.403-.045.09-.223.134-.267.268.311-.134 1.023-.895.578-.179a3.116 3.116 0 0 1-.845.447h-.089l-.044.09c-.09.045-.267.09-.4.313-2.09 1.298-1.646.716-2.09 1.164.4-.224 1.245-.314 1.911-.85zm-6.002 6.308c-.045-.09.044-.18-.045-.314 0 .135-.134.224.045.314zm-.179.313c.134-.135.09-.224.09-.224l-.045-.045v-.044l-.045-.09s0-.09-.044-.134c0 .09.09.313.044.537zm-.088 0c-.044-.269.044-.313-.044-.313 0 0 0-.045-.09-.045.09.09-.044.313.134.358zm.355 3.534c-.133.045.045.09.134.224-.089-.224-.089-.447-.134-.447 0 0-.133.178 0 .223zm-.355 1.074c.088.268.133.09.133 0l-.133-.045c.044 0 .133.045.222-.09-.178-.089-.044-.044-.178-.134-.044 0 0 .045-.044.18 0 0-.044.089 0 .089zm-5.247 13.511s.044-.134 0-.223c-.045.089-.222.089-.222.268l-.09.044.045.09.356-.179h-.09zm5.692-14.182c0-.045-.09-.134-.045-.18-.045.046-.133.09-.133.09-.045-.09.088-.09-.09-.223.045.179.045.179-.089.089l-.044-.134s.044-.09-.044-.134a.462.462 0 0 1-.044.134c-.045 0 .088.134.088.134h-.355c.044.09.133.403.133.18l.089-.09.089-.045.044-.045c-.044.045-.044.134-.044.134l-.044.09v.045s0 .044.088.044c0-.044.044-.179.044-.268.134.09 0 .09.09.179-.134.09 0 .179-.045.224-.045 0-.133 0-.045.044.179 0 .179.18.09-.134.089 0 .044.045.089 0 0-.045-.045-.134.178-.134zm-.223-.448c0-.357.045-.715.045-1.118-.134-.045 0 0-.134-.134-.089.134.045.447-.089.492 0-.09 0-.358-.088-.358l-.09.224c.09.134.267.492.134.492.133.224 0 .179.133.358v-.134zm-7.115 11.677c-.133 0-.044.045-.044.045s0 .045.133.045c0-.045 0-.045.045-.045v.045l.044.045c-.044-.09-.044-.09.045-.09.044.045.044.179.089.224-.045-.134-.045-.224-.223-.582h-.044c.089-.09.044 0 .133-.044-.044-.09-.133-.403-.266-.269l.044.134c.133.045.044.045 0 .135.267.313 0 .134.044.178-.133-.044-.133 0-.133 0-.178-.313-.222-.67-.4-.94.133.404.089.582.133.896h-.089c.178.179.089.179.045.223.089 0 .044-.044.089 0 0 0-.045.045-.09 0 0 .045-.088.045-.044.18l.045.044s-.045.134.089.224c-.045-.09.088-.135.133-.135-.045-.134-.045-.089 0-.089 0 0 .134-.045.134.134l-.045-.045c.089.09.089.224.089.314-.133 0-.09-.134-.178-.269.045.18.045.358.311.447 0-.044-.133-.089 0-.178-.222-.134-.089-.403-.222-.627 0 0 .133-.179.133 0zm2.935-.537c2.446-3.355 2.402-11.721 1.29-16.106h-.134l.045.045c-.712 3.714-1.334 7.07-1.512 11.05a17.68 17.68 0 0 0 .311 5.011zm-3.868-1.655c-.223-.09 0 0 0-.09-.223 0-.223 0-.267.09 0 0 .044 0 0 .045.044 0 .044-.045.044-.045zm.222.537c0-.224-.045.134 0 .18 0 .088-.045.088.045.178-.045-.09-.045-.269.044-.179.044-.313.044-.268-.089-.18zm-.445-2.64c0 .224-.089.359.09.403 0-.044.043-.224-.09-.402zm.133 3.043c.09.134.045.313.134.492 0-.09 0-.09.133-.09 0 0 .045-.044-.044-.134-.133-.045.089.09-.044.09-.09-.135.044-.18.044-.224-.09-.045-.133 0-.178-.18zm.267-1.477c-.044 0-.044.179-.044.313.044-.09.089-.134.089-.134.045.045.089.045 0 .134v.09l.045.09c0 .044-.134.223-.09.312.134.18.045.045.134 0v-.178l.044-.045c.045 0-.088-.09-.044-.045-.044-.224-.044-.402-.134-.537zm.312 1.03c0 .089.044.089-.045.133.089.224.134.716.178.806 0-.09.134-.09.09-.18.044-.089-.179-.67-.179-.76h-.044z"/><path d="M28.533 13.792v.316c0 1.126-1.043 2.117-2.087 2.117-1.305 0-2.262-2.388-2.262-2.433 0-1.216 2.305-2.027 3.045-2.027.782 0 1.304.54 1.304 2.027zm-2.13 6.712c-.175 1.262-2.35 8.2-1.523 8.965 1.087.991 6.567-7.298 7.002-7.883.609-.811 1.696.63 1.13 1.486-2.435 3.694-5.827 9.55-9.698 8.064-.826-.315-2.826-1.036-2.826-4.505 0-2.568 1.348-7.478 2.783-8.334.435-.27.783-.09 1.305-.09 1.26 0 2.392 1.261 1.826 2.297zM20.35 33.638c-.045 0-.09.045-.09.045 0-.045-.046-.18-.228-.224-.091 0-.091.045-.091.09a.418.418 0 0 0-.319-.134s0 .044-.045.044c0 0 0-.044-.045-.044v.357c-.092-.134-.273-.357-.41-.357 0 .089 0 .223.09.312-.09 0-.136.045-.181.045s-.091-.045-.273-.134c0 .09.182.357.182.447-.045-.045-.045-.045-.091-.045 0 .045.137.134.137.224l-.046.044-.137-.09v.09c-.09 0-.181-.044-.273-.044-.045 0-.045 0-.045.044a1.366 1.366 0 0 0-.364-.358s.045.135.137.269c-.137 0-.092.134-.092.223-.09 0-.227-.134-.227-.178 0 .134.046.223.046.402-.046-.09-.046-.18-.137-.224v.045c-.273 0-.364-.313-.546-.447v.09c0 .134.09.312.137.357l-.364-.179c.045.09.045.134.045.134 0 .179-.273.134-.364.224-.637-.224-.91-.581-1.32-1.117v-.09l-.09-.044c-2.002-4.022-4.004-8.535-6.597-12.513-.137 1.028-1.32 14.21-1.684 14.21-.136-.089-.136-.134-.136-.134a.097.097 0 0 0-.09.09c0-.045-.046-.09-.046-.09s-.046 0-.091.045c-.046-.089-.182-.134-.319-.134-.273 0-.682.134-1 .223.045-.134-.183-.089-.183-.178-.045 0-.136-.045-.136.044-.045.045-.045.09-.045.134v.045s-.228-.134-.183-.313c-.045 0-.045.09-.045.09-.046-.09 0-.134-.136-.134v.134c-.046 0 0-.09-.046-.09s-.364.403-.319.403c0 0-.09-.045-.09-.09s.045-.09.09-.179v-.044c-.227 0-.09 0-.227.178-.045-.044-.045-.044-.045-.089.045-.045.045-.045.045-.089-.045 0-.091.09-.137.09 0 0 .046-.09-.045-.09.045.044 0 .178 0 .313-.091 0-.091.089-.136.089v-.358l-.137.045v-.089c-.09 0-.182.09-.227.09 0 0-.046 0 0-.046-.137.09-.137.18-.228.18 0 0-.045 0-.091-.046 0 0-.227.045-.364.045-.09 0-.136-.045-.136-.045-.182.045-.637.135-.637.224H1.88c0-.045.046-.134.046-.179-.228 0-.364.269-.637.358-.364 0-.364.76-.364.76-.955 0-.955-1.073-.91-2.011.182-9.608 2.184-18.277 2.684-28.42-.136 0-.182 0-.273-.135 0 0 .091 0 .137-.09-.091 0-.228.045-.364.045-.046 0-.137 0-.228-.045 0-.044.137-.134.182-.134 0-.044-.045-.044-.045-.044.273-.805 1.501-.357 1.728-.939.592-.491 1.32-.58 2.048-.58.682 0 1.41.089 2.092.089.228 0 .41 0 .637-.045.273 0 .547.045.865.09.045-.09.136-.09.227-.09.637.135.5.492 1.502.984 2.23.223 6.142 1.742 6.05 5.228-.045 2.592-2.82 4.96-5.732 5.81 1.684 2.814 3.14 6.3 5.005 9.383 1.5 2.547 2.911 5.228 3.958 7.999-.046 0-.091-.045-.137-.045-.09 0-.227 0-.182.045.137.134.137.179.182.268zm-17.743-.58c0-.09.091-.27-.045-.314 0 .045 0 .134.045.313zm-.91.937s-.09.134-.09.224c.136.134.136-.09.09-.224zm.637-3.217c-.136 0-.182.134-.136.268l.09-.045c0-.089.092-.223.046-.223zm-.227-3.128c-.046.045-.137.313.045.357 0-.09 0-.312-.045-.357zm.41 2.368c-.183-.09-.229.224-.137.268 0-.089.045 0 .045 0 .091-.089.091-.178.091-.268zm-.729.939h-.09c0 .134.045.178-.046.357.045.045.045.134.045.134.046-.044.046-.044.182-.044.046-.135.091-.358-.091-.447zm-.09 1.161c.09-.178.09-.357.045-.58-.228.134-.091.268-.137.536.046.044-.045.134-.045.223 0 0 .045.179.136.224 0-.18.091-.224 0-.403zm-.137 1.43c0 .09 0 .09-.046.09.182.134-.09.268 0 .357.091-.089.091 0 .228-.089 0-.09.09-.179.09-.357-.09-.045-.181 0-.181 0 .045-.045.045-.045 0-.134h.09l-.09-.224c0 .045 0-.09-.137-.134-.09.09.046.09.046.09v.133s.09.045.09.135c-.09 0-.181 0-.181.134h.09zm-.319-2.19a4.58 4.58 0 0 0 .182-.759c.091 0 .091 0 .091-.09-.045-.089.046-.223 0-.223-.182 0-.136.09-.227.134a2.226 2.226 0 0 0-.046.939c.046.045-.09.134 0 .179.046-.09.091-.18 0-.18zm.546-3.217c-.09.268-.09.76-.045.983 0 .269-.273.939.09 1.252.092-.179.092-.268.274-.402v.044c0-.09.136-.178.136-.312l-.136-.09c0-.179.136-.313 0-.358-.046.135 0 .358-.092.448-.045-.448.046-.67 0-1.028v-.045c-.09 0-.09.045-.227.045.046-.134.182-.358 0-.537zm7.644-13.986c2.547-.805 4.458-2.547 4.503-4.47.046-1.697-2.229-2.501-3.548-2.546-.455 2.28-.683 4.513-.955 7.016z"/></g></svg>