<svg width="262" height="73" xmlns="http://www.w3.org/2000/svg"><g fill="none" fill-rule="evenodd"><path fill="#ECF0F1" d="M201.069767 18.25L262 18.25 240.674419 45.625 262 73 201.069767 73z"/><path fill="#ECF0F1" transform="matrix(-1 0 0 1 60.93 0)" d="M0 18.25L60.9302326 18.25 39.6046512 45.625 60.9302326 73 0 73z"/><path fill="#E94B35" d="M30.465 0H231.535V54.75H30.465z"/><path fill="#2B3E51" d="M30.4651163 54.75L60.9302326 54.75 60.9302326 73 31.9094866 55.615244z"/><path fill="#2B3E51" d="M201.069767 54.75L231.534884 54.75 201.069767 73z"/><g transform="translate(42.651 12.167)"><path d="M115.767 15.208h6.093v6.084h-6.093v6.083h12.186v6.083h-18.279V3.042h18.279v6.083h-12.186v6.083zM9.14 21.292v12.166H3.047V3.042h18.279v6.083H9.14v6.083h6.093v6.084H9.14zm21.325 6.083h12.186v6.083H24.372V3.042h6.093v24.333zm21.326-6.083v12.166h-6.093V3.042h18.279v30.416h-6.093V21.292H51.79zm0-6.084h6.093V9.125H51.79v6.083zm27.418-6.083v24.333h-6.093V9.125h-6.093V3.042h18.28v6.083h-6.094zm57.884-6.083h12.186v6.083h-12.186v6.083h12.186v18.25H131v-6.083h12.186v-6.083H131V3.042h6.093zm30.465 18.25v12.166h-6.093V3.042h18.279v30.416h-6.093V21.292h-6.093zm0-6.084h6.093V9.125h-6.093v6.083zm-60.93 18.25h-6.093L94.442 18.25v15.208h-6.093V3.042h6.093l6.093 15.208V3.042h6.093v30.416zm45.698-30.416h6.093v30.416h-6.093V3.042z" fill="#2B3E51"/><path d="M112.72 12.167h6.094v6.083h-6.093v6.083h12.186v6.084h-18.279V0h18.279v6.083h-12.186v6.084zM6.094 18.25v12.167H0V0h18.279v6.083H6.093v6.084h6.093v6.083H6.093zm21.326 6.083h12.186v6.084H21.326V0h6.093v24.333zm21.325-6.083v12.167h-6.093V0H60.93v30.417h-6.093V18.25h-6.093zm0-6.083h6.093V6.083h-6.093v6.084zm27.419-6.084v24.334H70.07V6.083h-6.093V0h18.279v6.083h-6.093zM134.047 0h12.186v6.083h-12.186v6.084h12.186v18.25h-18.28v-6.084h12.187V18.25H127.953V0h6.094zm30.465 18.25v12.167h-6.093V0h18.279v30.417h-6.093V18.25h-6.093zm0-6.083h6.093V6.083h-6.093v6.084zm-60.93 18.25h-6.094l-6.093-15.209v15.209h-6.093V0h6.093l6.093 15.208V0h6.093v30.417zM149.278 0h6.093v30.417h-6.093V0z" fill="#ECF0F1"/></g></g></svg>