<svg height="32" width="32" xmlns="http://www.w3.org/2000/svg"><linearGradient id="b" x1="50%" x2="23.53%" y1="46.979%" y2="77.041%"><stop offset="0" stop-color="#f8d6e5"/><stop offset="1" stop-color="#f0e8ec"/></linearGradient><mask id="a" fill="#fff"><path d="M6.276.023C4.916.58-.194 1.92.039 3.576c.315 2.25.216 8.536 1.782 10.38 1.714 2.02 11.353 2.773 14.344 2.265.912-.155.996-4.875 1.199-6.187L6.276.024z" fill-rule="evenodd"/></mask><g fill="none"><path d="M20.672 4.333a9.164 9.164 0 0 1 .186-1.808c-3.138 1.228-4.765 4.24-4.765 4.24S12.165-.51 4.819 2.943c-6.834 3.221-5.997 11.888.047 17.635 5.532 5.283 9.832 8.967 11.11 9.408h.256c1.279-.44 5.58-4.148 11.111-9.408 2.488-2.387 4.115-5.26 4.65-8.041a8.493 8.493 0 0 1-2.674.417c-4.765 0-8.647-3.87-8.647-8.62z" fill="#f06da3"/><g mask="url(#a)" transform="translate(14.605 2.502)"><path d="M6.276.023c-.14.58-.21 1.205-.21 1.808 0 4.75 3.883 8.62 8.648 8.62.93 0 1.813-.14 2.65-.417L6.276.024z" fill="#000"/><path d="M.232.023a7.873 7.873 0 0 0-.209 1.808c0 4.75 3.882 8.62 8.647 8.62.93 0 1.813-.14 2.65-.417L.232.024z" fill="url(#b)" transform="translate(6.044)"/></g></g></svg>