<svg height="800" width="800" xmlns="http://www.w3.org/2000/svg"><g fill="none" fill-rule="evenodd"><path d="M491.385 215.818l55.684-55.684 69.685 69.685H491.01" fill="#e84c3d"/><path d="M570.84 461.88h28.32v-23.797h-28.32z" fill="#f9db9d"/><path d="M585 465.422c7.82 0 14.16-1.586 14.16-3.542s-6.34-3.542-14.16-3.542-14.16 1.586-14.16 3.542 6.34 3.542 14.16 3.542m90.217-86.939c7.204 0 13.043-5.84 13.043-13.043 0-7.204-5.839-13.044-13.043-13.044s-13.043 5.84-13.043 13.044c0 7.203 5.839 13.043 13.043 13.043m-180.434 0c7.204 0 13.043-5.84 13.043-13.043 0-7.204-5.839-13.044-13.043-13.044s-13.043 5.84-13.043 13.044c0 7.203 5.839 13.043 13.043 13.043" fill="#f9db9d"/><path d="M585 405.678c52.827 0 95.652-.565 95.652-97.304 0-52.226-42.825-76.24-95.652-76.24s-95.652 24.014-95.652 76.24c0 94.565 42.825 97.304 95.652 97.304" fill="#2d3e50"/><path d="M585 446.418c47.424 0 85.869-41.851 85.869-93.478 0-51.626-38.445-100-85.869-100s-85.869 48.374-85.869 100c0 51.627 38.445 93.478 85.869 93.478" fill="#f9db9d"/><g fill="#2d3e50"><path d="M549.477 362.099c4.346 0 7.869-3.525 7.869-7.873s-3.523-7.873-7.87-7.873-7.868 3.525-7.868 7.873 3.523 7.873 7.869 7.873m71.942 0c4.346 0 7.869-3.525 7.869-7.873s-3.523-7.873-7.87-7.873-7.868 3.525-7.868 7.873 3.523 7.873 7.869 7.873m-59.74 36.482c-.248.737-.4 1.492-.4 2.267 0 7.095 10.821 12.846 24.168 12.846 13.348 0 24.17-5.75 24.17-12.846 0-.775-.153-1.53-.4-2.267-2.018 6.012-11.88 10.58-23.77 10.58-11.889 0-21.75-4.568-23.769-10.58M529.684 744.06s-21.886 1.953-21.886 11.717v5.858h68.346v-17.575z"/></g><path d="M528.953 480.019s-4.348 56.522-6.522 67.391c-2.174 10.87-6.52 56.522 0 63.043 6.522 6.522 26.087 2.174 28.261-15.217s6.522-78.261 6.522-78.261v-36.956z" fill="#f9db9d"/><path d="M526.004 495.384l-9.869 92.435 24.75 5.065 6.75-97.5z" fill="#3598db"/><path d="M539.385 482.634l-10.285 108 9 2.25z" fill="#297fb8"/><path d="M519.164 556.952l-.144 1.493 23.288 2.242.144-1.493zm-1.385 12.812l-.144 1.493 23.168 2.23.144-1.492z" fill="#f1c40f"/><path d="M523.114 557.634l-.978.978 14.136 14.136.978-.979z" fill="#f1c40f"/><path d="M534.09 559.753l-.978-.978-11.668 11.667.978.979z" fill="#f1c40f"/><path d="M577.187 757.849l3.449-131.965s-3.45-12.444 3.065-12.444v-25.621h-45.6v156.055z" fill="#3598db"/><path d="M567.885 627.699h15.816v-43.815h-15.816z" fill="#c1392b"/><path d="M537.943 588.976l-6.594 46.099h46.156l2.473-46.099z" fill="#e84c3d"/><path d="M578.024 624.01h-45.385l-.265 1.845h45.55zm-46.675 8.977h46.19l.1-1.844h-46.025z" fill="#f1c40f"/><g fill="#f1c40f"><path d="M577.388 600.396a4.488 4.488 0 1 0-8.975-.001 4.488 4.488 0 0 0 8.975 0m-1.113 0a3.375 3.375 0 1 1-6.75 0 3.375 3.375 0 0 1 6.75 0m-9.292 13.477a4.488 4.488 0 1 0-8.975-.001 4.488 4.488 0 0 0 8.975 0m-1.113 0a3.375 3.375 0 1 1-6.75 0 3.375 3.375 0 0 1 6.75 0m-10.277-13.475a4.488 4.488 0 1 0-8.975-.001 4.488 4.488 0 0 0 8.975 0m-1.113 0a3.375 3.375 0 1 1-6.75 0 3.375 3.375 0 0 1 6.75 0m-7.235 14.052a4.488 4.488 0 1 0-8.975 0 4.488 4.488 0 0 0 8.975 0m-1.113 0a3.375 3.375 0 1 1-6.75 0 3.375 3.375 0 0 1 6.75 0"/></g><path d="M583.701 458.634v124.5s-1.566 6-5.316 6-39.838-.158-39.838-.158v-93.358h-12.543s1.204-42.678 27.744-42.678 29.953 5.694 29.953 5.694" fill="#3598db"/><path d="M538.101 570.514h45.6v-1.5h-45.6zm31.998-125.38l-9.546 9.546 13.602 13.602 9.546-9.546z" fill="#f1c40f"/><path d="M569.86 446.989l-7.452 7.452 11.986 11.986 7.452-7.452z" fill="#e84c3d"/><path d="M570.698 446.654l-1.297.203-2.134 13.616 1.297-.203zm5.993 5.993l-1.297.203-2.134 13.616 1.297-.203z" fill="#f1c40f"/><path d="M575.69 453.145l.202-1.297-13.616 2.134-.203 1.297zm5.992 5.993l.203-1.297-13.616 2.134-.203 1.297z" fill="#f1c40f"/><path d="M583.326 583.884h.375v-125.25h-.375z" fill="#297fb8"/><path d="M538.101 726.384h40.285v-2.25h-40.285zm0 10.5h40.285v-2.25h-40.285z" fill="#f1c40f"/><path d="M637.718 744.059s21.886 1.953 21.886 11.717v5.858h-68.346v-17.575z" fill="#2d3e50"/><path d="M638.449 480.019s4.348 56.522 6.522 67.391c2.174 10.87 6.52 56.522 0 63.043-6.522 6.522-26.087 2.174-28.261-15.217s-6.522-78.261-6.522-78.261v-36.956z" fill="#f9db9d"/><path d="M641.398 495.384l9.869 92.435-24.75 5.065-6.75-97.5z" fill="#3598db"/><path d="M628.016 482.634l10.285 108-9 2.25z" fill="#297fb8"/><path d="M648.238 556.952l.144 1.493-23.288 2.242-.144-1.493zm1.385 12.812l.144 1.493-23.168 2.23-.144-1.492z" fill="#f1c40f"/><path d="M644.288 557.634l.978.978-14.136 14.136-.978-.979z" fill="#f1c40f"/><path d="M633.312 559.753l.978-.978 11.668 11.667-.978.979z" fill="#f1c40f"/><path d="M590.215 757.849l-3.449-131.965s3.45-12.444-3.065-12.444v-25.621h45.6v156.055z" fill="#3598db"/><path d="M583.701 627.699h15.816v-43.815h-15.816z" fill="#c1392b"/><path d="M629.46 588.976l6.593 46.099h-46.156l-2.473-46.099z" fill="#e84c3d"/><path d="M589.378 624.01h45.385l.265 1.845h-45.55zm46.675 8.977h-46.19l-.1-1.844h46.025z" fill="#f1c40f"/><g fill="#f1c40f"><path d="M590.014 600.396a4.488 4.488 0 1 1 8.975-.001 4.488 4.488 0 0 1-8.975 0m1.113 0a3.375 3.375 0 1 0 6.75 0 3.375 3.375 0 0 0-6.75 0m9.292 13.477a4.488 4.488 0 1 1 8.975-.001 4.488 4.488 0 0 1-8.975 0m1.113 0a3.375 3.375 0 1 0 6.75 0 3.375 3.375 0 0 0-6.75 0m10.277-13.475a4.488 4.488 0 1 1 8.975-.001 4.488 4.488 0 0 1-8.975 0m1.113 0a3.375 3.375 0 1 0 6.75 0 3.375 3.375 0 0 0-6.75 0m7.235 14.052a4.488 4.488 0 1 1 8.975 0 4.488 4.488 0 0 1-8.975 0m1.113 0a3.375 3.375 0 1 0 6.75 0 3.375 3.375 0 0 0-6.75 0"/></g><path d="M583.7 458.634v124.5s1.567 6 5.317 6 39.838-.158 39.838-.158v-93.358h12.543s-1.204-42.678-27.744-42.678-29.953 5.694-29.953 5.694" fill="#3598db"/><path d="M583.701 570.514h45.6v-1.5h-45.6zm13.602-125.38l9.546 9.546-13.602 13.602-9.546-9.546z" fill="#f1c40f"/><path d="M597.542 446.989l7.452 7.452-11.986 11.986-7.452-7.452z" fill="#e84c3d"/><path d="M596.704 446.654l1.297.203 2.134 13.616-1.297-.203zm-5.993 5.993l1.297.203 2.134 13.616-1.297-.203z" fill="#f1c40f"/><path d="M591.712 453.145l-.203-1.297 13.616 2.134.203 1.297zm-5.992 5.993l-.203-1.297 13.616 2.134.203 1.297z" fill="#f1c40f"/><path d="M583.701 583.884h.374v-125.25h-.374z" fill="#297fb8"/><path d="M589.016 726.384h40.285v-2.25h-40.285zm0 10.5h40.285v-2.25h-40.285zm9.62-245.25h19.236v-4.074h-19.236z" fill="#f1c40f"/><path d="M599.779 491.187h16.95v-3.18h-16.95z" fill="#e84c3d"/><path d="M616.373 487.756l.773.32-8.12 3.361-.772-.32zm-8.475 0l.773.32-8.12 3.361-.772-.32z" fill="#f1c40f"/><path d="M608.254 488.076l.773-.32 8.12 3.361-.774.32zm-8.476 0l.773-.32 8.12 3.361-.774.32z" fill="#f1c40f"/><path d="M487.635 324.238h193.5v-54.21h-193.5z" fill="#e84c3d"/><path d="M487.635 277.819h193.5v-7.79h-193.5zm58.76-118.435l-5.51 5.509 74.757 74.757 5.51-5.51z" fill="#f1c40f"/><path d="M551.435 165.642l-5.509-5.509-56.145 56.146 5.51 5.508zm-63.8 158.596h193.5v-7.79h-193.5z" fill="#f1c40f"/><path d="M615.135 324.238h66v-54.21z" fill="#c1392b"/><path d="M491.385 270.028h184.5v-40.21h-184.5z" fill="#e84c3d"/><path d="M491.385 246.384h184.5v-16.565h-184.5z" fill="#f1c40f"/><path d="M557.01 270.028h-66v-54.21z" fill="#c1392b"/><path d="M319.702 299.748l-23.419 6.275-.517-1.932 23.418-6.275z" fill="#f39c11"/><path d="M341.423 292.893l-9.05 15.674-15.674-9.05 9.05-15.674z" fill="#f1c40f"/><path d="M310.2 271.72l-20.998 12.123-1-1.732 20.997-12.122z" fill="#f39c11"/><path d="M329.406 259.477l-4.684 17.483-17.483-4.685 4.684-17.483z" fill="#f1c40f"/><path d="M296.605 246.26l-15.584 18.573-1.532-1.286 15.584-18.573z" fill="#f39c11"/><path d="M310.466 228.186l1.577 18.03-18.03 1.578-1.577-18.03z" fill="#f1c40f"/><path d="M246.655 213.581l-6.275 23.42-1.932-.519 6.275-23.419z" fill="#f39c11"/><path d="M251.579 191.343l9.05 15.674-15.675 9.05-9.05-15.674z" fill="#f1c40f"/><path d="M274.483 225.513L262.36 246.51l-1.732-1 12.122-20.997z" fill="#f39c11"/><path d="M284.994 205.306l4.684 17.483-17.482 4.684-4.685-17.482z" fill="#f1c40f"/><path d="M214.007 229.044h2v-24.245h-2z" fill="#f39c11"/><path d="M215.007 182.044l12.798 12.798-12.798 12.798-12.798-12.798z" fill="#f1c40f"/><path d="M110.298 299.748l23.419 6.275.517-1.932-23.418-6.275z" fill="#f39c11"/><path d="M88.577 292.893l9.05 15.674 15.674-9.05-9.05-15.674z" fill="#f1c40f"/><path d="M119.8 271.72l20.998 12.123 1-1.732-20.997-12.122z" fill="#f39c11"/><path d="M100.594 259.477l4.684 17.483 17.483-4.685-4.684-17.483z" fill="#f1c40f"/><path d="M133.395 246.26l15.584 18.573 1.532-1.286-15.584-18.573z" fill="#f39c11"/><path d="M119.534 228.186l-1.577 18.03 18.03 1.578 1.577-18.03z" fill="#f1c40f"/><path d="M183.345 213.581l6.275 23.42 1.932-.519-6.275-23.419z" fill="#f39c11"/><path d="M178.421 191.343l-9.05 15.674 15.675 9.05 9.05-15.674z" fill="#f1c40f"/><path d="M155.517 225.513l12.122 20.997 1.732-1-12.122-20.997z" fill="#f39c11"/><path d="M145.006 205.306l-4.684 17.483 17.482 4.684 4.685-17.482z" fill="#f1c40f"/><path d="M215.007 409.258c53.572 0 97-43.039 97-96.129S268.578 229 215.007 229c-53.572 0-97 31.038-97 84.13 0 53.09 43.428 96.128 97 96.128" fill="#f1c40f"/><path d="M215.007 428c53.572 0 97-19.086 97-84.462S268.578 237 215.007 237c-53.572 0-97 41.162-97 106.538s43.428 84.462 97 84.462" fill="#2d3e50"/><g fill="#f9db9d"><path d="M215.007 451.838c44.61 0 80.773-43.846 80.773-104.922S259.617 255 215.007 255s-80.773 30.84-80.773 91.916 36.163 104.922 80.773 104.922"/><path d="M138.273 387.185c6.69 0 12.116-5.427 12.116-12.122s-5.425-12.123-12.116-12.123-12.116 5.428-12.116 12.123 5.425 12.122 12.116 12.122m153.468 0c6.691 0 12.116-5.427 12.116-12.122s-5.425-12.123-12.116-12.123-12.116 5.428-12.116 12.123 5.425 12.122 12.116 12.122"/></g><path d="M204.237 463.202h21.539v-18.099h-21.539z" fill="#f9db9d"/><path d="M215.007 465.896c5.948 0 10.77-1.206 10.77-2.694s-4.822-2.694-10.77-2.694-10.77 1.206-10.77 2.694 4.822 2.694 10.77 2.694" fill="#f9db9d"/><g fill="#2d3e50"><path d="M177.563 371.281a8.193 8.193 0 0 0 8.19-8.195c0-4.527-3.666-8.196-8.19-8.196s-8.191 3.67-8.191 8.196a8.193 8.193 0 0 0 8.19 8.195m74.89 0a8.193 8.193 0 0 0 8.191-8.195c0-4.527-3.667-8.196-8.19-8.196s-8.192 3.67-8.192 8.196a8.193 8.193 0 0 0 8.191 8.195m-62.188 37.977c-.257.767-.415 1.553-.415 2.36 0 7.385 11.264 13.372 25.158 13.372 13.895 0 25.158-5.987 25.158-13.372 0-.807-.157-1.593-.415-2.36-2.1 6.258-12.366 11.013-24.743 11.013s-22.643-4.755-24.743-11.013"/><path d="M215 250c-69.468 2.459-88.202 52.625-81.594 113.451 0 0 .531-41.623 43.907-65.582 0 0 9.68-6.231 37.687-7.05s37.687 7.05 37.687 7.05c43.376 23.959 43.907 65.582 43.907 65.582C303.202 302.625 284.468 252.459 215 250"/></g><path d="M307.41 358.42a78.56 78.56 0 0 0 .097-3.543c0-46.942-41.413-84.996-92.5-84.996-51.086 0-92.5 38.054-92.5 84.996 0 1.188.045 2.367.098 3.543 2.024-45.296 42.609-81.452 92.402-81.452 49.794 0 90.379 36.156 92.403 81.452" fill="#f1c40f"/><g fill="#f1c40f"><path d="M292.33 384.408l-8.322 8.322 8.322 8.323 8.322-8.323zm0 48.788l-8.322 8.322 8.322 8.323 8.322-8.323z"/><path d="M292.33 401.052l-8.322 8.322 8.322 8.323 8.322-8.323z"/><path d="M292.33 417.697l-8.322 8.322 8.322 8.323 8.322-8.323zm-154.645-33.29l-8.322 8.323 8.322 8.323 8.322-8.323zm0 48.79l-8.322 8.321 8.322 8.323 8.322-8.323z"/><path d="M137.685 401.052l-8.322 8.322 8.322 8.323 8.322-8.323z"/><path d="M137.685 417.697l-8.322 8.322 8.322 8.323 8.322-8.323zM312.18 314.151l-8.322 8.322 8.322 8.323 8.322-8.323zm0 48.789l-8.322 8.322 8.322 8.323 8.322-8.323z"/><path d="M312.18 330.796l-8.322 8.322 8.322 8.323 8.322-8.323zm0 48.789l-8.322 8.322 8.322 8.323 8.322-8.323zm0 33.29l-8.322 8.322 8.322 8.323 8.322-8.323z"/><path d="M312.18 347.44l-8.322 8.323 8.322 8.323 8.322-8.323zm0 48.79l-8.322 8.322 8.322 8.323 8.322-8.323zm0 33.29l-8.322 8.322 8.322 8.323 8.322-8.324zM117.834 314.15l-8.322 8.322 8.322 8.323 8.322-8.323zm0 48.789l-8.321 8.322 8.321 8.323 8.323-8.323z"/><path d="M117.835 330.796l-8.322 8.322 8.321 8.323 8.323-8.323zm0 48.789l-8.322 8.322 8.321 8.323 8.323-8.323zm0 33.29l-8.322 8.322 8.321 8.323 8.323-8.323z"/><path d="M117.835 347.44l-8.322 8.323 8.321 8.323 8.323-8.323zm0 48.79l-8.322 8.322 8.321 8.323 8.323-8.323zm0 33.29l-8.322 8.322 8.321 8.323 8.323-8.324z"/></g><path d="M215.007 313.726c32.063 0 58.055-6.43 58.055-14.363 0-7.932-25.992-14.363-58.055-14.363s-58.055 6.43-58.055 14.363 25.992 14.363 58.055 14.363" fill="#2d3e50"/><path d="M215 460.8l-9-8.8h-2.77v2.35l.77 65.812h11z" fill="#9a59b5"/><path d="M214 522.856L195.633 455.3l-9.386.168s-13.462-2.694-13.462 13.47v18.857h10.77s3.445 9.367 2.692 21.551c-.093 1.509-.917 6.629-2.055 13.51z" fill="#e84c3d"/><path d="M172.785 487.795s0 29.633-2.692 40.408c-2.693 10.776-10.77 78.122-5.385 83.51s10.77 0 13.462 0 13.462-123.918 13.462-123.918z" fill="#f9db9d"/><path d="M172.785 487.795S165 564.163 163 574.163l20 5.224 11.5-73.224v-21z" fill="#e84c3d"/><path d="M182 483.162s2 15 2 20-9.659 59-6.736 73l10.736-4 4.688-89H183" fill="#c1392b"/><path d="M170.873 502.162l-.366 2.978 22.52 2.765.365-2.978zm-7.147 67.858l-.675 2.923 22.107 5.104.675-2.923z" fill="#f1c40f"/><path d="M187.078 749.1s-24.986 11.062-11.118 11.062h24.927c3.307 0 2.153-12.123 2.153-12.123z" fill="#2d3e50"/><path d="M187 729.625l1.018 17.534-.018.003-3 3c-1 1 0 2 6 1 5.055-.843 10.094-2.477 11.562-2.973l.438-.027s.039-6.708.235-18.537z" fill="#f9db9d"/><path d="M180.187 640.55l4.475 93.612H206c.391-21.58 2.992-55.879 3.551-87.162z" fill="#e84c3d"/><path d="M177.264 656.774H215v-77.388h-37.736z" fill="#9a59b5"/><path d="M177.896 598.233l18.236 18.847 18.236-18.847-18.236-18.847z" fill="#e67f22"/><path d="M184.461 598.233l11.671 12.062 11.671-12.062-11.67-12.062z" fill="#e67f22"/><path d="M184.461 598.233l11.671 12.062 11.671-12.062-11.67-12.062z" fill="#7e8c8d"/><path d="M187.379 598.233l8.753 9.047 8.753-9.047-8.753-9.047z" fill="#f1c40f"/><path d="M191.026 598.233l5.106 5.277 5.106-5.277-5.106-5.277z" fill="#7e8c8d"/><path d="M177.896 635.927l18.236 18.847 18.236-18.847-18.236-18.847z" fill="#e67f22"/><path d="M184.461 635.927l11.671 12.062 11.671-12.062-11.67-12.062z" fill="#e67f22"/><path d="M184.461 635.927l11.671 12.062 11.671-12.062-11.67-12.062z" fill="#7e8c8d"/><path d="M187.379 635.927l8.753 9.047 8.753-9.047-8.753-9.047z" fill="#f1c40f"/><path d="M191.026 635.927l5.106 5.277 5.106-5.277-5.106-5.277z" fill="#7e8c8d"/><path d="M177.264 656.774h8.708v-77.388h-8.708z" fill="#e67f22"/><path d="M185.005 654.774h11.759v-75.388h-11.759z" fill="#7e8c8d"/><path d="M187.429 654.774h6.911v-75.388h-6.911z" fill="#f1c40f"/><path d="M177.264 667.162H215v-10.388h-37.736z" fill="#e67f22"/><path d="M177.264 667.162H215v-4h-37.736z" fill="#7e8c8d"/><path d="M177.264 660.968H215v-2h-37.736z" fill="#f1c40f"/><path d="M177.264 656.774H215v-2h-37.736z" fill="#7e8c8d"/><path d="M213.993 522.856c-.162-12.582-10.763-68.541-10.763-68.541H182c-4 0-5.287 4.847-5.287 4.847s3.474 16 6.287 28.633c2.813 12.632 4.401 19.466 1.701 29.548-.395 1.474-.805 3.357-1.221 5.513z" fill="#ecf0f1"/><path d="M176.306 579.386H215v-56.53l-31.822 2.694c-2.992 17.634-6.872 44.147-6.872 53.836" fill="#e67f22"/><path d="M177 567l-1 13h39v-13z" fill="#e84c3d"/><path d="M181 454h20l9 66h-21.052S190 511 190 507s-6-37-6-37z" fill="#e67f22"/><path d="M176 578h39v-2h-39zm0-4h39v-2h-39zm7.835-120h15.039l9 66h-16.091s1.052-9 1.052-13-6-37-6-37zm2.832 85.367L181 546.275l4 6.909 7.334-6.91z" fill="#f1c40f"/><path d="M198 539.367l-5.667 6.908 4.542 6.909 6.792-6.91zm-10.243-13.817l-5.45 6.908 4.36 6.909 6.539-6.91z" fill="#f1c40f"/><path d="M198.654 525.55l-5.449 6.908 4.795 6.909 6.103-6.91z" fill="#f1c40f"/><path d="M209.551 525.55l-5.449 6.908 5.231 6.909 5.667-6.91z" fill="#f1c40f"/><path d="M209.333 539.366l-5.667 6.908 5.334 6.91 6-6.91zm-24.541 13.817l-6.042 6.908 6.042 6.91 6.042-6.91z" fill="#f1c40f"/><path d="M196.875 553.183l-6.042 6.908 6.042 6.91 6.042-6.91z" fill="#f1c40f"/><path d="M208.958 553.183l-6.042 6.908 6.042 6.91 6.042-6.91z" fill="#f1c40f"/><path d="M184.032 520.162L183 525.55h32v-5.388z" fill="#7e8c8d"/><path d="M215 516c-6.351 0-11.5 2.91-11.5 6.5s5.149 6.5 11.5 6.5z" fill="#7e8c8d"/><path d="M215 517.413c-4.971 0-9 2.277-9 5.087 0 2.81 4.029 5.087 9 5.087z" fill="#f1c40f"/><path d="M215 460.8l9-8.8h2.77v2.35l-.77 65.812h-11z" fill="#9a59b5"/><path d="M216 522.856l18.367-67.556 9.386.168s13.462-2.694 13.462 13.47v18.857h-10.77s-3.445 9.367-2.692 21.551c.093 1.509.917 6.629 2.055 13.51z" fill="#e84c3d"/><path d="M257.215 487.795s0 29.633 2.692 40.408c2.693 10.776 10.77 78.122 5.385 83.51s-10.77 0-13.462 0-13.462-123.918-13.462-123.918z" fill="#f9db9d"/><path d="M257.215 487.795S265 564.163 267 574.163l-20 5.224-11.5-73.224v-21z" fill="#e84c3d"/><path d="M248 483.162s-2 15-2 20 9.659 59 6.736 73l-10.736-4-4.688-89H247" fill="#c1392b"/><path d="M259.127 502.162l.366 2.978-22.52 2.765-.365-2.978zm7.147 67.858l.675 2.923-22.107 5.104-.675-2.923z" fill="#f1c40f"/><path d="M242.922 749.1s24.986 11.062 11.118 11.062h-24.927c-3.307 0-2.153-12.123-2.153-12.123z" fill="#2d3e50"/><path d="M243 729.625l-1.018 17.534.018.003 3 3c1 1 0 2-6 1-5.055-.843-10.094-2.477-11.562-2.973l-.438-.027s-.039-6.708-.235-18.537z" fill="#f9db9d"/><path d="M249.813 640.55l-4.475 93.612H224c-.391-21.58-2.992-55.879-3.551-87.162z" fill="#e84c3d"/><path d="M215 656.774h37.736v-77.388H215z" fill="#9a59b5"/><path d="M251.472 618.08l-18.236 18.847L215 618.08l18.236-18.847z" fill="#e67f22"/><path d="M244.907 618.08l-11.67 12.062-11.672-12.062 11.671-12.062z" fill="#e67f22"/><path d="M244.907 618.08l-11.67 12.062-11.672-12.062 11.671-12.062z" fill="#7e8c8d"/><path d="M241.99 618.08l-8.754 9.047-8.753-9.047 8.753-9.047z" fill="#f1c40f"/><path d="M238.342 618.08l-5.106 5.277-5.106-5.277 5.106-5.277z" fill="#7e8c8d"/><path d="M251.472 580.386l-18.236 18.847L215 580.386l18.236-18.847z" fill="#e67f22"/><path d="M244.907 580.386l-11.67 12.062-11.672-12.062 11.671-12.062z" fill="#e67f22"/><path d="M244.907 580.386l-11.67 12.062-11.672-12.062 11.671-12.062z" fill="#7e8c8d"/><path d="M241.99 580.386l-8.754 9.047-8.753-9.047 8.753-9.047z" fill="#f1c40f"/><path d="M238.342 580.386l-5.106 5.277-5.106-5.277 5.106-5.277z" fill="#7e8c8d"/><path d="M252.583 655.774L235.131 664l-19.02-8.226 18.236-18.847z" fill="#e67f22"/><path d="M246.018 655.774L234.348 665l-11.672-9.226 11.671-12.062z" fill="#e67f22"/><path d="M245.456 655.172L235 666l-11.109-11.46 10.456-10.828z" fill="#7e8c8d"/><path d="M243.1 655.774l-8.753 9.047-8.753-9.047 8.753-9.047z" fill="#f1c40f"/><path d="M239.453 655.774l-5.106 5.277-5.106-5.277 5.106-5.277z" fill="#7e8c8d"/><path d="M244.028 656.774h8.708v-77.388h-8.708z" fill="#e67f22"/><path d="M233.236 654.774h11.759v-75.388h-11.759z" fill="#7e8c8d"/><path d="M235.66 654.774h6.911v-75.388h-6.911z" fill="#f1c40f"/><path d="M215 667.162h37.736v-10.388H215z" fill="#e67f22"/><path d="M215 667.162h37.736v-4H215z" fill="#7e8c8d"/><path d="M215 660.968h37.736v-2H215z" fill="#f1c40f"/><path d="M215 656.774h37.736v-2H215z" fill="#7e8c8d"/><g><path d="M216.007 522.856c.162-12.582 10.763-68.541 10.763-68.541H248c4 0 5.287 4.847 5.287 4.847s-3.474 16-6.287 28.633c-2.813 12.632-4.401 19.466-1.701 29.548.395 1.474.805 3.357 1.221 5.513z" fill="#ecf0f1"/><path d="M253.694 579.386H215v-56.53l31.822 2.694c2.992 17.634 6.872 44.147 6.872 53.836" fill="#e67f22"/></g><path d="M253 567l1 13h-39v-13z" fill="#e84c3d"/><path d="M249 454h-20l-9 66h21.052S240 511 240 507s6-37 6-37z" fill="#e67f22"/><path d="M215 578h39v-2h-39zm0-4h39v-2h-39zm31.165-120h-15.039l-9 66h16.091s-1.052-9-1.052-13 6-37 6-37zm-2.832 85.367l5.667 6.908-4 6.909-7.334-6.91z" fill="#f1c40f"/><path d="M232 539.367l5.667 6.908-4.542 6.909-6.792-6.91zm10.243-13.817l5.45 6.908-4.36 6.909-6.539-6.91z" fill="#f1c40f"/><path d="M231.346 525.55l5.449 6.908-4.795 6.909-6.103-6.91z" fill="#f1c40f"/><path d="M220.449 525.55l5.449 6.908-5.231 6.909-5.667-6.91z" fill="#f1c40f"/><path d="M220.667 539.366l5.667 6.908-5.334 6.91-6-6.91zm24.541 13.817l6.042 6.908-6.042 6.91-6.042-6.91z" fill="#f1c40f"/><path d="M233.125 553.183l6.042 6.908-6.042 6.91-6.042-6.91z" fill="#f1c40f"/><path d="M221.042 553.183l6.042 6.908-6.042 6.91-6.042-6.91z" fill="#f1c40f"/><path d="M245.968 520.162L247 525.55h-32v-5.388z" fill="#7e8c8d"/><g><path d="M215 516c6.351 0 11.5 2.91 11.5 6.5s-5.149 6.5-11.5 6.5z" fill="#7e8c8d"/><path d="M215 517.413c4.971 0 9 2.277 9 5.087 0 2.81-4.029 5.087-9 5.087z" fill="#f1c40f"/></g></g></svg>