<svg width="800" height="800" xmlns="http://www.w3.org/2000/svg"><g fill="none" fill-rule="evenodd"><path fill="#F9DB9D" d="M570.84 461.88h28.32v-23.797h-28.32z"/><path d="M585 465.422c7.82 0 14.16-1.586 14.16-3.542 0-1.956-6.34-3.542-14.16-3.542s-14.16 1.586-14.16 3.542c0 1.956 6.34 3.542 14.16 3.542m90.217-86.939c7.204 0 13.043-5.84 13.043-13.043 0-7.204-5.839-13.044-13.043-13.044-7.204 0-13.043 5.84-13.043 13.044 0 7.203 5.839 13.043 13.043 13.043m-180.434 0c7.204 0 13.043-5.84 13.043-13.043 0-7.204-5.839-13.044-13.043-13.044-7.204 0-13.043 5.84-13.043 13.044 0 7.203 5.839 13.043 13.043 13.043" fill="#F9DB9D"/><path d="M585 405.678c52.827 0 108.457-29.678 92.108-97.304-8.906-36.84-39.281-76.24-92.108-76.24-52.827 0-91.07 60.74-93.526 76.24C480.126 380 532.173 405.678 585 405.678" fill="#2D3E50"/><path d="M585 446.417c47.424 0 85.869-41.85 85.869-93.478 0-51.625-38.445-99.998-85.869-99.998s-85.869 48.373-85.869 99.998c0 51.627 38.445 93.478 85.869 93.478" fill="#F9DB9D"/><path d="M549.477 362.099a7.871 7.871 0 0 0 7.869-7.873 7.871 7.871 0 0 0-7.87-7.873 7.871 7.871 0 0 0-7.868 7.873 7.871 7.871 0 0 0 7.869 7.873m71.942 0a7.871 7.871 0 0 0 7.869-7.873 7.871 7.871 0 0 0-7.87-7.873 7.871 7.871 0 0 0-7.868 7.873 7.871 7.871 0 0 0 7.869 7.873m-59.74 36.482c-.248.737-.4 1.492-.4 2.267 0 7.095 10.821 12.846 24.168 12.846 13.348 0 24.17-5.75 24.17-12.846 0-.775-.153-1.53-.4-2.267-2.018 6.012-11.88 10.58-23.77 10.58-11.889 0-21.75-4.568-23.769-10.58M529.684 744.06s-21.886 1.953-21.886 11.717v5.858h68.346V744.06h-46.46z" fill="#2D3E50"/><path d="M528.953 480.019s-4.348 56.522-6.522 67.391c-2.174 10.87-6.52 56.522 0 63.043 6.522 6.522 26.087 2.174 28.261-15.217 2.174-17.391 6.522-78.261 6.522-78.261v-36.956h-28.26z" fill="#F9DB9D"/><path fill="#E84C3D" d="M526.004 495.384l-9.869 92.434 24.75 5.066 6.75-97.5z"/><path fill="#C1392B" d="M539.385 482.634l-10.285 108 9.65 2.365z"/><g fill="#E84C3D"><path d="M577.187 746l3.449-120.116s-3.45-12.445 3.065-12.445v-25.621H540l-1.9 156.056L577.188 746z"/><path d="M538.547 649V495.617h-12.542s1.204-42.678 27.742-42.678c26.54 0 29.955 5.695 29.955 5.695V649"/></g><path fill="#E84C3D" d="M570.099 445.134l-9.546 9.546 13.602 13.602 9.546-9.546z"/><path fill="#F1C40F" d="M580.435 479.799v-9.245L567 475.177zm0 56.267v-9.245L567 531.444zm0-28.132v-9.245L567 503.31zm0 56.266v-9.245L567 559.577zm0-70.334v-9.245L567 489.244zm0 56.268v-9.245L567 545.512zm0-28.134v-9.246L567 517.377zm0 56.268v-9.246L567 573.645zm0 12.977V582L567 586.623zm-10.188 39.995l5.303-7.573-13.657-3.92zm-10.992 9.222l7.573-5.303-11.493-8.353zM543 642.435h9.245L547.622 629zm35.83-37.37l1.604-9.104-14.033 2.218zm-2.444 13.854l1.606-9.106-14.034 2.22zM540.5 742h9.245l-4.623-13.435L540.5 742zm17.785-13.435L562.908 742h-9.246l4.623-13.435zM565.754 742H575l-4.623-13.435L565.754 742z"/><path fill="#F39C11" d="M538.101 570.514h45.6V559h-45.6z"/><path d="M519.155 582.738l7.143 1.004-2.113-10.881-5.03 9.877zm15.407-8.618l2.113 10.88-7.143-1.004 5.03-9.877zm.53 15.88a1.091 1.091 0 1 0 0-2.182 1.09 1.09 0 0 0 0 2.181zm-5.192-1.91a1.09 1.09 0 1 1 2.18-.001 1.09 1.09 0 0 1-2.18.001zm-3.895 0a1.09 1.09 0 1 0-.001-2.181 1.09 1.09 0 0 0 .001 2.181zm-6.078-1.909a1.092 1.092 0 1 1 2.184.002 1.092 1.092 0 0 1-2.184-.001zm57.982 53a1.091 1.091 0 1 0 0-2.182 1.091 1.091 0 0 0 0 2.183m-10.09 5.09a1.091 1.091 0 1 1 2.181 0 1.091 1.091 0 0 1-2.182 0m-8.727 3.273a1.09 1.09 0 1 0 0-2.18 1.09 1.09 0 0 0 0 2.18m20.91-17.454a1.091 1.091 0 1 1 2.181 0 1.091 1.091 0 0 1-2.182 0M542.353 592.5c0-.627 2.6-1.172 6.438-1.457-.112.47-.188.953-.188 1.457 0 .504.076.988.188 1.458-3.838-.285-6.438-.831-6.438-1.458m7.186-3.252c-2.515-2.917-3.968-5.143-3.525-5.587.444-.443 2.67 1.011 5.586 3.526a6.238 6.238 0 0 0-2.061 2.061m3.857-2.81c.284-3.838.83-6.438 1.457-6.438.627 0 1.173 2.6 1.457 6.438a6.253 6.253 0 0 0-1.457-.188c-.504 0-.987.076-1.457.188m4.71.749c2.916-2.515 5.142-3.969 5.586-3.526.443.444-1.011 2.67-3.525 5.587a6.238 6.238 0 0 0-2.061-2.061m2.809 3.856c3.838.285 6.438.83 6.438 1.457 0 .627-2.6 1.173-6.438 1.458.112-.47.188-.954.188-1.458s-.076-.987-.188-1.457m-.748 4.71c2.514 2.916 3.968 5.143 3.525 5.586-.444.444-2.67-1.01-5.586-3.525a6.247 6.247 0 0 0 2.06-2.061m-3.856 2.809c-.284 3.838-.83 6.438-1.457 6.438-.627 0-1.173-2.6-1.457-6.438.47.112.953.188 1.457.188.504 0 .987-.076 1.457-.188m-4.71-.748c-2.916 2.515-5.142 3.969-5.586 3.525-.443-.443 1.01-2.669 3.525-5.586a6.247 6.247 0 0 0 2.06 2.061m8.254-5.314a5 5 0 1 0-10.001.001 5 5 0 0 0 10-.001M544 576.361c0-.176.728-.329 1.803-.408a1.708 1.708 0 0 0-.053.408c0 .141.02.276.053.408-1.075-.08-1.803-.233-1.803-.408m2.012-.911c-.704-.817-1.111-1.44-.987-1.564.125-.124.748.282 1.565.987a1.742 1.742 0 0 0-.578.577m1.08-.786c.08-1.076.233-1.803.408-1.803.176 0 .329.727.408 1.803a1.715 1.715 0 0 0-.408-.053c-.141 0-.276.021-.408.053m1.319.209c.817-.705 1.44-1.111 1.564-.987.124.124-.283.747-.987 1.564a1.73 1.73 0 0 0-.577-.577m.787 1.08c1.074.079 1.802.232 1.802.408 0 .175-.728.328-1.802.408a1.83 1.83 0 0 0 .052-.408 1.76 1.76 0 0 0-.052-.408m-.21 1.318c.704.817 1.11 1.44.987 1.564-.124.124-.747-.282-1.564-.986.236-.145.433-.342.577-.578m-1.08.787c-.08 1.075-.232 1.803-.408 1.803-.175 0-.328-.728-.408-1.803.132.031.267.053.408.053.14 0 .277-.022.408-.053m-1.318-.209c-.817.704-1.44 1.11-1.565.986-.124-.124.283-.747.987-1.564.145.236.342.433.578.578m2.31-1.488a1.4 1.4 0 1 0-2.801-.001 1.4 1.4 0 0 0 2.8.001m6.692 33.471c0-.176.728-.328 1.803-.408a1.721 1.721 0 0 0-.053.408c0 .141.02.276.053.408-1.075-.08-1.803-.232-1.803-.408m2.012-.911c-.704-.817-1.111-1.44-.987-1.564.124-.124.748.283 1.564.987a1.768 1.768 0 0 0-.577.577m1.08-.786c.08-1.075.232-1.803.408-1.803.176 0 .328.728.408 1.803a1.715 1.715 0 0 0-.408-.053c-.141 0-.276.021-.408.053m1.319.209c.817-.704 1.44-1.111 1.564-.987.124.124-.283.747-.987 1.564a1.768 1.768 0 0 0-.577-.577m.786 1.08c1.075.08 1.803.232 1.803.408 0 .176-.728.328-1.803.408.032-.132.053-.267.053-.408 0-.141-.021-.276-.053-.408m-.21 1.319c.705.817 1.112 1.44.988 1.564-.124.124-.747-.283-1.564-.987.235-.145.432-.341.577-.577m-1.08.786c-.08 1.075-.232 1.803-.408 1.803-.176 0-.328-.728-.408-1.803.132.032.267.053.408.053.14 0 .277-.021.408-.053m-1.32-.209c-.815.704-1.44 1.111-1.563.987-.124-.124.283-.747.987-1.564.145.236.342.432.577.577m2.31-1.488a1.4 1.4 0 1 0-2.8 0 1.4 1.4 0 0 0 2.8 0M540.5 610c0-.175.728-.328 1.803-.408a1.721 1.721 0 0 0-.053.408c0 .142.02.277.053.408-1.075-.079-1.803-.232-1.803-.408m2.012-.911c-.704-.816-1.111-1.44-.987-1.564.125-.124.748.283 1.565.987a1.761 1.761 0 0 0-.578.577m1.08-.786c.08-1.075.233-1.803.408-1.803.176 0 .329.728.408 1.803a1.715 1.715 0 0 0-.408-.053c-.141 0-.276.021-.408.053m1.319.209c.817-.704 1.44-1.111 1.564-.987.124.124-.283.748-.987 1.564a1.749 1.749 0 0 0-.577-.577m.787 1.08c1.074.08 1.802.233 1.802.408 0 .176-.728.329-1.802.408a1.76 1.76 0 0 0 .052-.408c0-.141-.021-.276-.052-.408m-.21 1.319c.704.817 1.11 1.44.987 1.564-.124.124-.747-.283-1.564-.987a1.74 1.74 0 0 0 .577-.577m-1.08.786c-.08 1.075-.232 1.803-.408 1.803-.175 0-.328-.728-.408-1.803.132.032.267.053.408.053.14 0 .277-.021.408-.053m-1.318-.209c-.817.704-1.44 1.111-1.565.987-.124-.124.283-.747.987-1.564.145.235.342.433.578.577M545.4 610a1.4 1.4 0 1 0-2.8 0 1.4 1.4 0 0 0 2.8 0m-18.983-79.005a1.498 1.498 0 1 0 0-2.997 1.498 1.498 0 0 0 0 2.997m2.996 26.997a1.499 1.499 0 1 0-.001-2.997 1.498 1.498 0 0 0 0 2.997m34.086-17.997a1.499 1.499 0 1 0-.001-2.997 1.498 1.498 0 0 0 0 2.997m-13.497-24a1.498 1.498 0 1 0 0-2.997 1.498 1.498 0 0 0 0 2.997m5.498-28.991a1.499 1.499 0 1 0-.001-2.997 1.498 1.498 0 0 0 0 2.997m21.499-27.3a1.499 1.499 0 1 0-.001-2.998 1.498 1.498 0 0 0 0 2.997m-6.493-5.266a1.498 1.498 0 1 0 0-2.997 1.498 1.498 0 0 0 0 2.997m-8.785 121.419a1.498 1.498 0 1 0 0-2.997 1.498 1.498 0 0 0 0 2.997" fill="#F1C40F"/><path fill="#F1C40F" d="M561.717 453.5v1l21.984 14.869v-1z"/><path fill="#C1392B" d="M539 649v2.995h41l.435-2.995z"/><path d="M637.718 744.059s21.886 1.953 21.886 11.717v5.858h-68.346v-17.575h46.46z" fill="#2D3E50"/><path d="M638.449 480.019s4.348 56.522 6.522 67.391c2.174 10.87 6.52 56.522 0 63.043-6.522 6.522-26.087 2.174-28.261-15.217-2.174-17.391-6.522-78.261-6.522-78.261v-36.956h28.26z" fill="#F9DB9D"/><path fill="#E84C3D" d="M641.398 495.384l9.869 92.434-24.75 5.066-6.75-97.5z"/><path fill="#C1392B" d="M628.016 482.634l10.286 108-9.65 2.365z"/><g fill="#E84C3D"><path d="M590.215 746l-3.449-120.116s3.45-12.445-3.065-12.445v-25.621h43.701l1.9 156.056L590.214 746z"/><path d="M628.854 649V495.617h12.543s-1.203-42.678-27.743-42.678-29.954 5.695-29.954 5.695V649"/></g><path fill="#E84C3D" d="M597.303 445.134l9.546 9.546-13.602 13.602-9.546-9.546z"/><path fill="#F1C40F" d="M586.967 479.799v-9.245l13.435 4.623zm0 56.267v-9.245l13.435 4.623zm0-28.132v-9.245l13.435 4.622zm0 56.266v-9.245l13.435 4.622zm0-70.334v-9.245l13.435 4.623zm0 56.268v-9.245l13.435 4.623zm0-28.134v-9.246l13.435 4.623zm0 56.268v-9.246l13.435 4.623zm0 12.977V582l13.435 4.623zm10.188 39.995l-5.303-7.573 13.657-3.92zm10.991 9.222l-7.572-5.303 11.493-8.353zm16.256 1.973h-9.245L619.78 629zm-35.83-37.37l-1.604-9.104L601 598.18zm2.443 13.854l-1.606-9.106 14.034 2.22zM626.902 742h-9.245l4.623-13.435L626.902 742zm-17.785-13.435L604.494 742h9.246l-4.623-13.435zM601.648 742h-9.246l4.623-13.435L601.648 742z"/><path fill="#F39C11" d="M583.701 570.514h45.6V559h-45.6z"/><path d="M648.247 582.738l-7.143 1.004 2.113-10.881 5.03 9.877zm-15.407-8.618L630.727 585l7.143-1.004-5.03-9.877zm-.529 15.88a1.091 1.091 0 1 1 0-2.182 1.09 1.09 0 0 1 0 2.181zm5.191-1.91a1.09 1.09 0 1 0-2.18-.001 1.09 1.09 0 0 0 2.18.001zm3.895 0a1.09 1.09 0 1 1 .002-2.181 1.09 1.09 0 0 1-.002 2.181zm6.078-1.909a1.092 1.092 0 1 0-2.183.002 1.092 1.092 0 0 0 2.183-.001zm-57.982 53a1.091 1.091 0 1 1 0-2.182 1.091 1.091 0 0 1 0 2.183m10.09 5.09a1.091 1.091 0 1 0-2.181 0 1.091 1.091 0 0 0 2.182 0m8.727 3.273a1.091 1.091 0 1 1 0-2.183 1.091 1.091 0 0 1 0 2.183M587.4 630.09a1.091 1.091 0 1 0-2.181 0 1.091 1.091 0 0 0 2.182 0m37.648-37.59c0-.627-2.6-1.172-6.438-1.457.112.47.188.953.188 1.457 0 .504-.076.988-.188 1.458 3.838-.285 6.438-.831 6.438-1.458m-7.186-3.252c2.514-2.917 3.968-5.143 3.525-5.587-.444-.443-2.67 1.011-5.586 3.526a6.238 6.238 0 0 1 2.061 2.061m-3.857-2.81c-.284-3.838-.83-6.438-1.457-6.438-.627 0-1.173 2.6-1.457 6.438.47-.112.953-.188 1.457-.188.504 0 .987.076 1.457.188m-4.71.749c-2.916-2.515-5.142-3.969-5.586-3.526-.443.444 1.011 2.67 3.525 5.587a6.238 6.238 0 0 1 2.061-2.061m-2.809 3.856c-3.838.285-6.438.83-6.438 1.457 0 .627 2.6 1.173 6.438 1.458a6.262 6.262 0 0 1-.188-1.458c0-.504.076-.987.188-1.457m.748 4.71c-2.514 2.916-3.968 5.143-3.525 5.586.444.444 2.67-1.01 5.586-3.525a6.247 6.247 0 0 1-2.06-2.061m3.856 2.809c.284 3.838.83 6.438 1.457 6.438.627 0 1.173-2.6 1.457-6.438-.47.112-.953.188-1.457.188-.504 0-.987-.076-1.457-.188m4.71-.748c2.916 2.515 5.142 3.969 5.586 3.525.443-.443-1.01-2.669-3.525-5.586a6.247 6.247 0 0 1-2.06 2.061m-8.254-5.314a5 5 0 1 1 10.001.001 5 5 0 0 1-10-.001m15.852-16.139c0-.176-.728-.329-1.803-.408.031.131.053.266.053.408 0 .141-.022.276-.053.408 1.075-.08 1.803-.233 1.803-.408m-2.012-.911c.704-.817 1.111-1.44.987-1.564-.125-.124-.748.282-1.565.987.236.144.433.341.578.577m-1.08-.786c-.08-1.076-.233-1.803-.408-1.803-.176 0-.329.727-.408 1.803.131-.032.267-.053.408-.053.141 0 .276.021.408.053m-1.319.209c-.817-.705-1.44-1.111-1.564-.987-.124.124.283.747.987 1.564a1.73 1.73 0 0 1 .577-.577m-.787 1.08c-1.074.079-1.802.232-1.802.408 0 .175.728.328 1.802.408a1.774 1.774 0 0 1-.052-.408c0-.142.021-.277.052-.408m.21 1.318c-.704.817-1.11 1.44-.987 1.564.124.124.747-.282 1.564-.986a1.742 1.742 0 0 1-.577-.578m1.08.787c.08 1.075.232 1.803.408 1.803.175 0 .328-.728.408-1.803a1.775 1.775 0 0 1-.408.053c-.14 0-.277-.022-.408-.053m1.318-.209c.817.704 1.44 1.11 1.565.986.124-.124-.283-.747-.987-1.564a1.755 1.755 0 0 1-.578.578m-2.31-1.488a1.4 1.4 0 1 1 2.801-.001 1.4 1.4 0 0 1-2.8.001m-6.692 33.471c0-.176-.728-.328-1.803-.408.032.132.053.267.053.408 0 .141-.02.276-.053.408 1.075-.08 1.803-.232 1.803-.408m-2.012-.911c.704-.817 1.111-1.44.987-1.564-.124-.124-.748.283-1.564.987.235.145.432.342.577.577m-1.08-.786c-.08-1.075-.233-1.803-.408-1.803-.176 0-.328.728-.408 1.803.131-.032.267-.053.408-.053.141 0 .276.021.408.053m-1.319.209c-.817-.704-1.44-1.111-1.564-.987-.124.124.283.747.987 1.564.145-.235.342-.432.577-.577m-.786 1.08c-1.075.08-1.803.232-1.803.408 0 .176.728.328 1.803.408a1.721 1.721 0 0 1-.053-.408c0-.141.021-.276.053-.408m.21 1.319c-.705.817-1.112 1.44-.988 1.564.124.124.747-.283 1.564-.987a1.758 1.758 0 0 1-.577-.577m1.08.786c.08 1.075.232 1.803.408 1.803.175 0 .328-.728.408-1.803a1.721 1.721 0 0 1-.408.053c-.14 0-.277-.021-.408-.053m1.32-.209c.815.704 1.44 1.111 1.563.987.124-.124-.283-.747-.987-1.564a1.758 1.758 0 0 1-.577.577m-2.31-1.488a1.4 1.4 0 1 1 2.8 0 1.4 1.4 0 0 1-2.8 0m19.99.168c0-.175-.728-.328-1.803-.408.031.132.053.267.053.408 0 .142-.022.277-.053.408 1.075-.079 1.803-.232 1.803-.408m-2.012-.911c.704-.816 1.111-1.44.987-1.564-.125-.124-.748.283-1.565.987.236.145.433.342.578.577m-1.08-.786c-.08-1.075-.233-1.803-.408-1.803-.176 0-.329.728-.408 1.803.131-.032.267-.053.408-.053.141 0 .276.021.408.053m-1.319.209c-.817-.704-1.44-1.111-1.564-.987-.124.124.283.748.987 1.564.144-.235.341-.432.577-.577m-.787 1.08c-1.074.08-1.802.233-1.802.408 0 .176.728.329 1.802.408a1.76 1.76 0 0 1-.052-.408c0-.141.021-.276.052-.408m.21 1.319c-.704.817-1.11 1.44-.987 1.564.124.124.747-.283 1.564-.987a1.74 1.74 0 0 1-.577-.577m1.08.786c.08 1.075.232 1.803.408 1.803.175 0 .328-.728.408-1.803a1.721 1.721 0 0 1-.408.053c-.14 0-.277-.021-.408-.053m1.318-.209c.817.704 1.44 1.111 1.565.987.124-.124-.283-.747-.987-1.564a1.752 1.752 0 0 1-.578.577m-2.31-1.488a1.4 1.4 0 1 1 2.8 0 1.4 1.4 0 0 1-2.8 0m18.983-79.005a1.498 1.498 0 1 1 0-2.997 1.498 1.498 0 0 1 0 2.997m-2.996 26.997a1.499 1.499 0 1 1 .001-2.997 1.498 1.498 0 0 1 0 2.997m-34.087-17.997a1.499 1.499 0 1 1 .001-2.997 1.498 1.498 0 0 1 0 2.997m13.497-24a1.498 1.498 0 1 1 0-2.997 1.498 1.498 0 0 1 0 2.997m-5.498-28.991a1.499 1.499 0 1 1 .001-2.997 1.498 1.498 0 0 1 0 2.997m-21.499-27.3a1.499 1.499 0 1 1 .001-2.998 1.498 1.498 0 0 1 0 2.997m6.494-5.266a1.498 1.498 0 1 1 0-2.997 1.498 1.498 0 0 1 0 2.997m8.785 121.419a1.498 1.498 0 1 1 0-2.997 1.498 1.498 0 0 1 0 2.997" fill="#F1C40F"/><path fill="#F1C40F" d="M605.685 453.5v1L583.7 469.369v-1z"/><path fill="#C1392B" d="M628.402 649v2.995h-41l-.435-2.995z"/><path fill="#34495E" d="M531 461l98.119 165.702L632 571l-74-122z"/><path fill="#F1C40F" d="M540.881 472.276l-7.356-12.243 13.66.124zm44.77 74.51l-7.356-12.242 13.66.124zm-22.385-37.255l-7.356-12.243 13.659.124zm44.77 74.512l-7.355-12.244 13.659.125zm-55.962-93.14l-7.356-12.242 13.659.124zm44.77 74.511l-7.357-12.243 13.66.124zm-22.385-37.255l-7.356-12.243 13.659.124zm44.77 74.51l-7.356-12.243 13.66.124zm10.326 17.187l-7.356-12.244 7.801-3.61zM562.427 459.33L556 450l-7.233 9.206zm44.77 74.51l-7.356-12.242-6.303 12.119zm-22.385-37.255l-7.356-12.243-6.304 12.119zm44.771 74.51l-7.356-12.242-6.304 12.119zm-55.963-93.137l-7.356-12.243-6.304 12.119zm44.77 74.51l-7.356-12.244-6.304 12.12zm-22.385-37.255l-7.356-12.243-6.304 12.119z"/><path d="M585 295.328v-82.5c-8.878 0-17.117 3.51-23.965 9.495-3.081-2.707-10.035-.996-16.035 2.504-8.349 4.87-9 5.271-13 10.634-.179.24.03.59.045.885-10.803 2.913-19.103 14.681-20.171 29.204-13.228 5.498-23.649 19.09-27.849 36.277h51.433c8.132-4.215 22.129-7 38.042-7 3.973 0 7.826.175 11.5.501" fill="#F1C40F"/><path d="M517 298.827a9 9 0 0 0 9-9 9 9 0 0 0-9-9 9 9 0 0 0-9 9 9 9 0 0 0 9 9m25-31.115a9 9 0 0 0 9-9 9 9 0 0 0-9-9 9 9 0 0 0-9 9 9 9 0 0 0 9 9m29.26-19.385a9 9 0 0 0 9-9 9 9 0 0 0-9-9 9 9 0 0 0-9 9 9 9 0 0 0 9 9" fill="#F39C11"/><path d="M576.76 223.827a3.5 3.5 0 1 0 0-7 3.5 3.5 0 0 0 0 7m-14.5 1a3.5 3.5 0 1 1 7 0 3.5 3.5 0 0 1-7 0m-7.5 7a3.5 3.5 0 1 0 0-7 3.5 3.5 0 0 0 0 7m-14.5 1.771a3.5 3.5 0 1 1 7 0 3.5 3.5 0 0 1-7 0m-3.5 11.557a3.5 3.5 0 1 0 0-7 3.5 3.5 0 0 0 0 7m-12.13 3.172a3.5 3.5 0 1 1 7 0 3.5 3.5 0 0 1-7 0m-2.13 12.5a3.5 3.5 0 1 0 0-7 3.5 3.5 0 0 0 0 7m-7 6.177a3.5 3.5 0 1 1 7-.001 3.5 3.5 0 0 1-7 .001m-3.5 9.791a3.5 3.5 0 1 0 0-7 3.5 3.5 0 0 0 0 7m-11.583 2.615a3.5 3.5 0 1 1 7-.001 3.5 3.5 0 0 1-7 .001M496 291.327a3.5 3.5 0 1 0 0-7 3.5 3.5 0 0 0 0 7m-8.5 4.917a3.5 3.5 0 1 1 7 0 3.5 3.5 0 0 1-7 0" fill="#E67F22"/><path d="M532 279.827a4 4 0 1 0 0-8 4 4 0 0 0 0 8m14 8a4 4 0 1 0 0-8 4 4 0 0 0 0 8m13-32a4 4 0 1 0 0-8 4 4 0 0 0 0 8m8 16.75a4 4 0 1 0 0-8 4 4 0 0 0 0 8" fill="#F39C11"/><path d="M485.525 322.577c.828 0 1.5-4.646 1.5-10.375s-.672-10.375-1.5-10.375-1.5 4.646-1.5 10.375c0 5.73.672 10.375 1.5 10.375m31 0c.828 0 1.5-4.646 1.5-10.375s-.672-10.375-1.5-10.375-1.5 4.646-1.5 10.375c0 5.73.672 10.375 1.5 10.375m-16 0c.828 0 1.5-4.646 1.5-10.375s-.672-10.375-1.5-10.375-1.5 4.646-1.5 10.375c0 5.73.672 10.375 1.5 10.375m31 0c.828 0 1.5-4.646 1.5-10.375s-.672-10.375-1.5-10.375-1.5 4.646-1.5 10.375c0 5.73.672 10.375 1.5 10.375m-38.05 0c.828 0 1.5-4.646 1.5-10.375s-.672-10.375-1.5-10.375-1.5 4.646-1.5 10.375c0 5.73.672 10.375 1.5 10.375m31 0c.828 0 1.5-4.646 1.5-10.375s-.672-10.375-1.5-10.375-1.5 4.646-1.5 10.375c0 5.73.672 10.375 1.5 10.375m-16 0c.828 0 1.5-4.646 1.5-10.375s-.672-10.375-1.5-10.375-1.5 4.646-1.5 10.375c0 5.73.672 10.375 1.5 10.375m31.025-2.083c.828 0 1.5-4.646 1.5-10.375s-.672-10.375-1.5-10.375-1.5 4.646-1.5 10.376c0 5.73.672 10.375 1.5 10.375m6.5-1.917c.828 0 1.5-4.646 1.5-10.375s-.672-10.375-1.5-10.375-1.5 4.646-1.5 10.375c0 5.73.672 10.375 1.5 10.375m7.5-2c.828 0 1.5-4.646 1.5-10.375s-.672-10.375-1.5-10.375-1.5 4.646-1.5 10.375c0 5.73.672 10.375 1.5 10.375m7.5-1c.828 0 1.5-4.646 1.5-10.375s-.672-10.375-1.5-10.375-1.5 4.646-1.5 10.375c0 5.73.672 10.375 1.5 10.375m6 0c.828 0 1.5-4.646 1.5-10.375s-.672-10.375-1.5-10.375-1.5 4.646-1.5 10.375c0 5.73.672 10.375 1.5 10.375m6 0c.828 0 1.5-4.646 1.5-10.375s-.672-10.375-1.5-10.375-1.5 4.646-1.5 10.375c0 5.73.672 10.375 1.5 10.375m7.26 0c.828 0 1.5-4.646 1.5-10.375s-.672-10.375-1.5-10.375-1.5 4.646-1.5 10.375c0 5.73.672 10.375 1.5 10.375" fill="#ECF0F1"/><path d="M585 295.328v-82.5c8.878 0 17.117 3.51 23.965 9.495 3.081-2.707 10.035-.996 16.035 2.504 8.349 4.87 9 5.271 13 10.634.179.24-.03.59-.045.885 10.803 2.913 19.103 14.681 20.171 29.204 13.228 5.498 23.649 19.09 27.849 36.277h-51.433c-8.132-4.215-22.129-7-38.042-7-3.973 0-7.826.175-11.5.501" fill="#F1C40F"/><path d="M653 298.827a9 9 0 0 1-9-9 9 9 0 0 1 9-9 9 9 0 0 1 9 9 9 9 0 0 1-9 9m-25-31.115a9 9 0 0 1-9-9 9 9 0 0 1 9-9 9 9 0 0 1 9 9 9 9 0 0 1-9 9m-29.26-19.385a9 9 0 0 1-9-9 9 9 0 0 1 9-9 9 9 0 0 1 9 9 9 9 0 0 1-9 9" fill="#F39C11"/><path d="M593.24 223.827a3.5 3.5 0 1 1 0-7 3.5 3.5 0 0 1 0 7m14.5 1a3.5 3.5 0 1 0-7 0 3.5 3.5 0 0 0 7 0m7.5 7a3.5 3.5 0 1 1 0-7 3.5 3.5 0 0 1 0 7m14.5 1.771a3.5 3.5 0 1 0-7 0 3.5 3.5 0 0 0 7 0m3.5 11.557a3.5 3.5 0 1 1 0-7 3.5 3.5 0 0 1 0 7m12.13 3.172a3.5 3.5 0 1 0-7 0 3.5 3.5 0 0 0 7 0m2.13 12.5a3.5 3.5 0 1 1 0-7 3.5 3.5 0 0 1 0 7m7 6.177a3.5 3.5 0 1 0-7-.001 3.5 3.5 0 0 0 7 .001m3.5 9.791a3.5 3.5 0 1 1 0-7 3.5 3.5 0 0 1 0 7m11.583 2.615a3.5 3.5 0 1 0-7-.001 3.5 3.5 0 0 0 7 .001M674 291.327a3.5 3.5 0 1 1 0-7 3.5 3.5 0 0 1 0 7m8.5 4.917a3.5 3.5 0 1 0-7 0 3.5 3.5 0 0 0 7 0" fill="#E67F22"/><path d="M638 279.827a4 4 0 1 1 0-8 4 4 0 0 1 0 8m-14 8a4 4 0 1 1 0-8 4 4 0 0 1 0 8m-13-32a4 4 0 1 1 0-8 4 4 0 0 1 0 8m-8 16.75a4 4 0 1 1 0-8 4 4 0 0 1 0 8" fill="#F39C11"/><path d="M684.475 322.577c-.828 0-1.5-4.646-1.5-10.375s.672-10.375 1.5-10.375 1.5 4.646 1.5 10.375c0 5.73-.672 10.375-1.5 10.375m-31 0c-.828 0-1.5-4.646-1.5-10.375s.672-10.375 1.5-10.375 1.5 4.646 1.5 10.375c0 5.73-.672 10.375-1.5 10.375m16 0c-.828 0-1.5-4.646-1.5-10.375s.672-10.375 1.5-10.375 1.5 4.646 1.5 10.375c0 5.73-.672 10.375-1.5 10.375m-31 0c-.828 0-1.5-4.646-1.5-10.375s.672-10.375 1.5-10.375 1.5 4.646 1.5 10.375c0 5.73-.672 10.375-1.5 10.375m38.05 0c-.828 0-1.5-4.646-1.5-10.375s.672-10.375 1.5-10.375 1.5 4.646 1.5 10.375c0 5.73-.672 10.375-1.5 10.375m-31 0c-.828 0-1.5-4.646-1.5-10.375s.672-10.375 1.5-10.375 1.5 4.646 1.5 10.375c0 5.73-.672 10.375-1.5 10.375m16 0c-.828 0-1.5-4.646-1.5-10.375s.672-10.375 1.5-10.375 1.5 4.646 1.5 10.375c0 5.73-.672 10.375-1.5 10.375m-31.025-2.083c-.828 0-1.5-4.646-1.5-10.375s.672-10.375 1.5-10.375 1.5 4.646 1.5 10.376c0 5.73-.672 10.375-1.5 10.375m-6.5-1.917c-.828 0-1.5-4.646-1.5-10.375s.672-10.375 1.5-10.375 1.5 4.646 1.5 10.375c0 5.73-.672 10.375-1.5 10.375m-7.5-2c-.828 0-1.5-4.646-1.5-10.375s.672-10.375 1.5-10.375 1.5 4.646 1.5 10.375c0 5.73-.672 10.375-1.5 10.375m-7.5-1c-.828 0-1.5-4.646-1.5-10.375s.672-10.375 1.5-10.375 1.5 4.646 1.5 10.375c0 5.73-.672 10.375-1.5 10.375m-6 0c-.828 0-1.5-4.646-1.5-10.375s.672-10.375 1.5-10.375 1.5 4.646 1.5 10.375c0 5.73-.672 10.375-1.5 10.375m-6 0c-.828 0-1.5-4.646-1.5-10.375s.672-10.375 1.5-10.375 1.5 4.646 1.5 10.375c0 5.73-.672 10.375-1.5 10.375m-7.26 0c-.828 0-1.5-4.646-1.5-10.375s.672-10.375 1.5-10.375 1.5 4.646 1.5 10.375c0 5.73-.672 10.375-1.5 10.375" fill="#ECF0F1"/><path d="M215 454.153c53.572 0 97-53.758 97-120.071 0-66.313-43.428-54.525-97-54.525s-97-11.788-97 54.525 43.428 120.07 97 120.07" fill="#2D3E50"/><path d="M138.266 387.185c6.69 0 12.116-5.427 12.116-12.122s-5.425-12.123-12.116-12.123-12.116 5.428-12.116 12.123c0 6.695 5.425 12.122 12.116 12.122m153.468 0c6.691 0 12.116-5.427 12.116-12.122s-5.425-12.123-12.116-12.123c-6.69 0-12.116 5.428-12.116 12.123 0 6.695 5.425 12.122 12.116 12.122" fill="#F9DB9D"/><path fill="#F9DB9D" d="M204.23 463.202h21.539v-18.099H204.23z"/><path d="M215 451.838c44.61 0 80.773-43.846 80.773-104.922S259.61 294 215 294s-80.773-8.16-80.773 52.916c0 61.076 36.163 104.922 80.773 104.922" fill="#F9DB9D"/><path d="M177.556 371.281a8.193 8.193 0 0 0 8.19-8.195 8.193 8.193 0 0 0-8.19-8.196 8.193 8.193 0 0 0-8.191 8.196 8.193 8.193 0 0 0 8.19 8.195m74.89 0a8.193 8.193 0 0 0 8.191-8.195 8.193 8.193 0 0 0-8.19-8.196 8.193 8.193 0 0 0-8.192 8.196 8.193 8.193 0 0 0 8.191 8.195m-62.188 37.977c-.257.767-.415 1.553-.415 2.36 0 7.385 11.264 13.372 25.158 13.372 13.895 0 25.158-5.987 25.158-13.372 0-.807-.157-1.593-.415-2.36-2.1 6.258-12.366 11.013-24.743 11.013-12.377 0-22.643-4.755-24.743-11.013" fill="#2D3E50"/><path d="M186.752 729.625l1.018 17.534-.018.003-3 3c-1 1 0 2 6 1 5.055-.843 10.094-2.477 11.562-2.973l.438-.027s.039-6.708.235-18.537h-16.235z" fill="#F9DB9D"/><path d="M186.83 749.1s-24.986 11.062-11.118 11.062h24.928c3.307 0 2.153-12.123 2.153-12.123L186.83 749.1z" fill="#2D3E50"/><path fill="#C74D40" d="M215 740.6V579.239L176.197 578l-.856 162.6z"/><path fill="#C1392B" d="M195.795 727.862H215V578h-19.205z"/><path fill="#C74D40" d="M206.79 713.486l-8.07 8.07 8.07 8.069 8.07-8.07zm0-32.28l-8.07 8.07 8.07 8.07 8.07-8.07zm0-32.279l-8.07 8.07 8.07 8.069 8.07-8.069zm.14-32.28l-8.07 8.07 8.07 8.07 8.07-8.07zm-.14 80.699l-8.07 8.07 8.07 8.069 8.07-8.07zm0-32.28l-8.07 8.07 8.07 8.07 8.07-8.07zm0-32.279l-8.07 8.07 8.07 8.07 8.07-8.07zm0-32.279l-8.07 8.07 8.07 8.07 8.07-8.07z"/><path d="M178.86 696.115h14.511v-2.434H178.86v2.434zm0 4.868h14.511v-2.434H178.86v2.434zm0 4.868h14.511v-2.434H178.86v2.434zm0 4.868h14.511v-2.434H178.86v2.434zm0 4.302h14.511v-2.434H178.86v2.434zm0 4.869h14.511v-2.434H178.86v2.434zm0 4.867h14.511v-2.434H178.86v2.434zm0 4.868h14.511v-2.434H178.86v2.434zm.43-71.5h14.511v-2.434H179.29v2.434zm0 4.868h14.511v-2.434H179.29v2.434zm0 4.868h14.511v-2.434H179.29v2.434zm0 4.868h14.511v-2.434H179.29v2.434zm0 4.302h14.511v-2.434H179.29v2.434zm0 4.868h14.511v-2.434H179.29v2.434zm0 4.868h14.511v-2.434H179.29v2.434zm0 4.868h14.511v-2.434H179.29v2.434zm-.102-71.093h14.511v-2.434h-14.511v2.434zm0 4.869h14.511v-2.434h-14.511v2.434zm0 4.867h14.511v-2.434h-14.511v2.434zm0 4.868h14.511v-2.434h-14.511v2.434zm0 4.303h14.511v-2.434h-14.511v2.434zm0 4.868h14.511v-2.434h-14.511v2.434zm0 4.868h14.511v-2.434h-14.511v2.434zm0 4.868h14.511v-2.434h-14.511v2.434z" fill="#C1392B"/><path fill="#C74D40" d="M206.93 583.93l-8.07 8.07 8.07 8.07L215 592z"/><path d="M179.29 587.434h14.511V585H179.29v2.434zm0 4.868h14.511v-2.434H179.29v2.434zm0 4.868h14.511v-2.434H179.29v2.434zm0 4.868h14.511v-2.434H179.29v2.434zm0 4.303h14.511v-2.434H179.29v2.434zm0 4.867h14.511v-2.434H179.29v2.434zm0 4.869h14.511v-2.434H179.29v2.434zm0 4.868h14.511v-2.434H179.29v2.434z" fill="#C1392B"/><path d="M172.537 487.795s0 29.633-2.692 40.408c-2.693 10.776-10.77 78.122-5.385 83.51 5.385 5.388 10.77 0 13.462 0s13.462-123.918 13.462-123.918h-18.847" fill="#F9DB9D"/><path d="M173 481s-10.14 91-12.14 101l20 4 13.392-79.838v-21L173 481z" fill="#E84C3D"/><path d="M181.752 483.162S183.819 504 183.819 509s-11.882 62-8.959 76l12.892-12.838 4.688-89h-9.688" fill="#C1392B"/><path fill="#F1C40F" d="M167.507 579.2l-5.197-1.2-.449 1.949 5.196 1.2z"/><path fill="#F9DB9D" d="M196.867 478.806h17.993v-24.654h-17.993z"/><path d="M215 644V464c-10 0-12.501-9.847-12.501-9.847-5.371 0-21.131.483-22 .847-3.562 1.174-7.823 5.35-7.823 13.937v18.857h10.216c2.812 12.633 4.4 19.467 1.7 29.549-.394 1.474-1.601 8.654-1.601 8.654-2.075 12.09-11.641 90.561-14.241 118.003" fill="#E84C3D"/><path fill="#F39C11" d="M179.746 556l-2.19 8.408 37.445.592v-8.831z"/><path fill="#F1C40F" d="M206.65 641.364h7.641l-3.82-11.102zm-23.249 0h7.641l-3.82-11.102zm11.624 0h7.641l-3.82-11.102zm-23.249 0h7.64l-3.82-11.102zM166.9 473.58h.5V460h-.5v13.58zm.85 3.734h.5v-13.581h-.5v13.581zm1 4.415h.5v-13.581h-.5v13.581zm1 2.79h.5v-13.58h-.5v13.58zm1.25 2.642h.5V473.58h-.5v13.581zm1.25 1.358h.5v-13.58h-.5v13.58zm1.25 3.395h.5v-13.58h-.5v13.58zm1.5 1.357h.5v-13.58h-.5v13.58zm1.5 3.396h.5v-13.58h-.5v13.58zm1.5 3.395h.5v-13.58h-.5v13.58zm2 2.037h.5v-13.58h-.5v13.58zm2 3.395h.5v-13.58h-.5v13.58zm2 2.716h.5v-13.581h-.5v13.581zm2 1.358h.5v-13.58h-.5v13.58zm1.932 2.037h.5v-13.58h-.5v13.58zm2.318 1.358h.5v-13.58h-.5v13.58zm1.625 1.358h.5v-13.58h-.5v13.58zm1.375.679h.5v-13.58h-.5V515zm1.375 0h.5v-13.58h-.5V515z"/><path d="M186.776 483.144h.5v-15.69h-.5v15.69zm.849 4.314h.5v-15.691h-.5v15.691zm1 5.1h.5v-15.691h-.5v15.691zm1 3.224h.5v-15.69h-.5v15.69zm1.25 3.052h.5v-15.691h-.5v15.691zm1.25 1.569h.5v-15.69h-.5v15.69zm1.25 3.923h.5v-15.691h-.5v15.691zm1.5 1.569h.5v-15.69h-.5v15.69zm1.5 3.923h.5v-15.691h-.5v15.691zm1.5 3.922h.5v-15.69h-.5v15.69zm2 2.354h.5v-15.69h-.5v15.69zm2 3.923h.5v-15.69h-.5v15.69zm2 3.138h.5v-15.691h-.5v15.691zm2 1.569h.5v-15.69h-.5v15.69zm1.932 2.353h.5v-15.69h-.5v15.69zm2.318 1.569h.5v-15.691h-.5v15.691zm1.625 1.569h.5v-15.69h-.5v15.69zm1.375.785h.5v-15.69h-.5V531zm1.375 0h.5v-15.69h-.5V531z" fill="#F1C40F"/><path d="M215 461.977l-9.137-.646s-15.113 34.747-13.988 37.183S215 518 215 518v-56.022z" fill="#34495E"/><path d="M203 453.604s2.864 5.938 8 7.726L196 503s-8.624 4.244-17-9.357c-9-14.615-12.78-29.229-12-36.537 0 0 6-5.25 36-3.502" fill="#34495E"/><path d="M215 467.865c-.809 0-1.513 3.355-1.88 8.308a8.042 8.042 0 0 1 1.88-.243v-8.065zm-4.197 9.273c-3.764-3.245-6.636-5.12-7.209-4.549-.572.573 1.304 3.445 4.55 7.21a8.053 8.053 0 0 1 2.66-2.66zm-3.624 4.977c-4.954.367-8.31 1.071-8.31 1.88 0 .81 3.356 1.514 8.31 1.881a7.991 7.991 0 0 1-.244-1.88c0-.65.097-1.275.243-1.88zm.965 6.078c-3.245 3.764-5.121 6.636-4.55 7.21.572.571 3.445-1.306 7.21-4.55a8.053 8.053 0 0 1-2.66-2.66zm6.856 3.868c-.65 0-1.274-.098-1.88-.243.366 4.953 1.07 8.308 1.88 8.308v-8.065zm0-1.613v-12.905a6.452 6.452 0 0 0 0 12.905zm-29.865-28.872a1.5 1.5 0 1 0-.002-3 1.5 1.5 0 0 0 .002 3m16.773 6.403a1.5 1.5 0 1 0-.001-3 1.5 1.5 0 0 0 0 3m-7.655-9.403a1.5 1.5 0 1 0 0-3 1.5 1.5 0 0 0 0 3M189.45 474a1.5 1.5 0 1 0 0-3.001 1.5 1.5 0 0 0 0 3.001m-11.894 2.683a1.5 1.5 0 1 0 0-3.001 1.5 1.5 0 0 0 0 3m7.579 8.814a1.5 1.5 0 1 0-.002-3.001 1.5 1.5 0 0 0 .002 3.001m10.232-3.69a1.5 1.5 0 1 0 0-3 1.5 1.5 0 0 0 0 3m13.068 23.321a1.5 1.5 0 1 0 0-3.001 1.5 1.5 0 0 0 0 3.001M198.367 495a1.5 1.5 0 1 0 0-3.001 1.5 1.5 0 0 0 0 3.001m-22.31-28.52a1.501 1.501 0 1 0-.002-3.002 1.501 1.501 0 0 0 .001 3.002m12.079 27.367a1.5 1.5 0 1 0-.002-3.001 1.5 1.5 0 0 0 .002 3m21.8-25.866a1.501 1.501 0 1 0 0-3.002 1.501 1.501 0 0 0 0 3.002m5.066 121.89c-.81 0-1.514 3.355-1.88 8.308a8.042 8.042 0 0 1 1.88-.243v-8.065zm-4.197 9.273c-3.765-3.245-6.638-5.121-7.21-4.55-.572.574 1.304 3.446 4.55 7.21a8.053 8.053 0 0 1 2.66-2.66zm-3.626 4.977c-4.953.367-8.308 1.07-8.308 1.88 0 .809 3.355 1.514 8.309 1.88a7.991 7.991 0 0 1-.244-1.88c0-.65.097-1.274.243-1.88zm.966 6.078c-3.245 3.764-5.121 6.636-4.55 7.209.572.572 3.445-1.305 7.21-4.55a8.053 8.053 0 0 1-2.66-2.66zm6.856 3.868c-.65 0-1.274-.098-1.88-.243.366 4.953 1.07 8.308 1.88 8.308v-8.065zm0-1.613v-12.905a6.452 6.452 0 0 0 0 12.905z" fill="#F1C40F"/><path d="M243.249 729.625l-1.018 17.534.018.003 3 3c1 1 0 2-6 1-5.055-.843-10.094-2.477-11.562-2.973l-.438-.027s-.039-6.708-.235-18.537h16.235z" fill="#F9DB9D"/><path d="M243.17 749.1s24.987 11.062 11.119 11.062h-24.927c-3.307 0-2.153-12.123-2.153-12.123l15.961 1.061z" fill="#2D3E50"/><path fill="#C74D40" d="M215 740.6V579.239L253.803 578l.856 162.6z"/><path fill="#C1392B" d="M215.001 727.862h19.205V578h-19.205z"/><path fill="#C74D40" d="M223.21 713.486l8.07 8.07-8.07 8.069-8.07-8.07zm0-32.28l8.07 8.07-8.07 8.07-8.07-8.07zm0-32.279l8.07 8.07-8.07 8.069-8.07-8.069zm-.14-32.28l8.07 8.07-8.07 8.07-8.07-8.07zm.14 80.699l8.07 8.07-8.07 8.069-8.07-8.07zm0-32.28l8.07 8.07-8.07 8.07-8.07-8.07zm0-32.279l8.07 8.07-8.07 8.07-8.07-8.07zm0-32.279l8.07 8.07-8.07 8.07-8.07-8.07z"/><path d="M236.63 696.115h14.511v-2.434H236.63v2.434zm0 4.868h14.511v-2.434H236.63v2.434zm0 4.868h14.511v-2.434H236.63v2.434zm0 4.868h14.511v-2.434H236.63v2.434zm0 4.302h14.511v-2.434H236.63v2.434zm0 4.869h14.511v-2.434H236.63v2.434zm0 4.867h14.511v-2.434H236.63v2.434zm0 4.868h14.511v-2.434H236.63v2.434zm-.43-71.5h14.511v-2.434H236.2v2.434zm0 4.868h14.511v-2.434H236.2v2.434zm0 4.868h14.511v-2.434H236.2v2.434zm0 4.868h14.511v-2.434H236.2v2.434zm0 4.302h14.511v-2.434H236.2v2.434zm0 4.868h14.511v-2.434H236.2v2.434zm0 4.868h14.511v-2.434H236.2v2.434zm0 4.868h14.511v-2.434H236.2v2.434zm.102-71.093h14.511v-2.434h-14.511v2.434zm0 4.869h14.511v-2.434h-14.511v2.434zm0 4.867h14.511v-2.434h-14.511v2.434zm0 4.868h14.511v-2.434h-14.511v2.434zm0 4.303h14.511v-2.434h-14.511v2.434zm0 4.868h14.511v-2.434h-14.511v2.434zm0 4.868h14.511v-2.434h-14.511v2.434zm0 4.868h14.511v-2.434h-14.511v2.434z" fill="#C1392B"/><path fill="#C74D40" d="M223.07 583.93l8.07 8.07-8.07 8.07L215 592z"/><path d="M236.2 587.434h14.511V585H236.2v2.434zm0 4.868h14.511v-2.434H236.2v2.434zm0 4.868h14.511v-2.434H236.2v2.434zm0 4.868h14.511v-2.434H236.2v2.434zm0 4.303h14.511v-2.434H236.2v2.434zm0 4.867h14.511v-2.434H236.2v2.434zm0 4.869h14.511v-2.434H236.2v2.434zm0 4.868h14.511v-2.434H236.2v2.434z" fill="#C1392B"/><g><path d="M257.464 487.795s0 29.633 2.692 40.408c2.693 10.776 10.77 78.122 5.385 83.51-5.385 5.388-10.77 0-13.462 0s-13.462-123.918-13.462-123.918h18.847" fill="#F9DB9D"/><path d="M257.001 481s10.14 91 12.14 101l-20 4-13.392-79.838v-21L257.001 481z" fill="#E84C3D"/><path d="M248.249 483.162S246.182 504 246.182 509s11.882 62 8.959 76l-12.892-12.838-4.688-89h9.688" fill="#C1392B"/></g><path fill="#F1C40F" d="M262.494 579.2l5.197-1.2.449 1.949-5.196 1.2z"/><path fill="#F9DB9D" d="M215.141 478.806h17.993v-24.654h-17.993z"/><path d="M215.001 644V464c10 0 12.501-9.847 12.501-9.847 5.371 0 21.131.483 22 .847 3.562 1.174 7.822 5.35 7.822 13.937v18.857h-10.215c-2.812 12.633-4.4 19.467-1.7 29.549.394 1.474 1.601 8.654 1.601 8.654 2.075 12.09 11.641 90.561 14.241 118.003" fill="#E84C3D"/><path fill="#F39C11" d="M250.255 556l2.19 8.408L215 565v-8.831z"/><path fill="#F1C40F" d="M223.35 641.364h-7.64l3.82-11.102zm23.25 0h-7.641l3.82-11.102zm-11.624 0h-7.641l3.82-11.102zm23.249 0h-7.64l3.82-11.102zM262.6 473.58h.5V460h-.5v13.58zm-.85 3.734h.5v-13.581h-.5v13.581zm-1 4.415h.5v-13.581h-.5v13.581zm-1 2.79h.5v-13.58h-.5v13.58zm-1.25 2.642h.5V473.58h-.5v13.581zm-1.25 1.358h.5v-13.58h-.5v13.58zm-1.25 3.395h.5v-13.58h-.5v13.58zm-1.5 1.357h.5v-13.58h-.5v13.58zm-1.5 3.396h.5v-13.58h-.5v13.58zm-1.5 3.395h.5v-13.58h-.5v13.58zm-2 2.037h.5v-13.58h-.5v13.58zm-2 3.395h.5v-13.58h-.5v13.58zm-2 2.716h.5v-13.581h-.5v13.581zm-2 1.358h.5v-13.58h-.5v13.58zm-1.932 2.037h.5v-13.58h-.5v13.58zm-2.318 1.358h.5v-13.58h-.5v13.58zm-1.625 1.358h.5v-13.58h-.5v13.58zm-1.375.679h.5v-13.58h-.5V515zm-1.375 0h.5v-13.58h-.5V515z"/><path d="M242.725 483.144h.5v-15.69h-.5v15.69zm-.849 4.314h.5v-15.691h-.5v15.691zm-1 5.1h.5v-15.691h-.5v15.691zm-1 3.224h.5v-15.69h-.5v15.69zm-1.25 3.052h.5v-15.691h-.5v15.691zm-1.25 1.569h.5v-15.69h-.5v15.69zm-1.25 3.923h.5v-15.691h-.5v15.691zm-1.5 1.569h.5v-15.69h-.5v15.69zm-1.5 3.923h.5v-15.691h-.5v15.691zm-1.5 3.922h.5v-15.69h-.5v15.69zm-2 2.354h.5v-15.69h-.5v15.69zm-2 3.923h.5v-15.69h-.5v15.69zm-2 3.138h.5v-15.691h-.5v15.691zm-2 1.569h.5v-15.69h-.5v15.69zm-1.932 2.353h.5v-15.69h-.5v15.69zm-2.318 1.569h.5v-15.691h-.5v15.691zm-1.625 1.569h.5v-15.69h-.5v15.69zm-1.375.785h.5v-15.69h-.5V531zm-1.375 0h.5v-15.69h-.5V531z" fill="#F1C40F"/><g><path d="M215 461.977l9.138-.646s15.112 34.747 13.988 37.183C237 500.95 215 518 215 518v-56.022z" fill="#34495E"/><path d="M227.001 453.604s-2.864 5.938-8 7.726l15 41.67s8.624 4.244 17-9.357c9-14.615 12.78-29.229 12-36.537 0 0-6-5.25-36-3.502" fill="#34495E"/><path d="M215 467.865c.81 0 1.514 3.355 1.88 8.308a8.042 8.042 0 0 0-1.88-.243v-8.065zm4.197 9.273c3.764-3.245 6.638-5.12 7.21-4.549.572.573-1.305 3.445-4.55 7.21a8.053 8.053 0 0 0-2.66-2.66zm3.625 4.977c4.953.367 8.31 1.071 8.31 1.88 0 .81-3.357 1.514-8.31 1.881a7.99 7.99 0 0 0 .244-1.88 7.99 7.99 0 0 0-.244-1.88zm-.965 6.078c3.245 3.764 5.122 6.636 4.55 7.21-.572.571-3.446-1.306-7.21-4.55a8.053 8.053 0 0 0 2.66-2.66zM215 492.061c.65 0 1.274-.098 1.88-.243-.366 4.953-1.07 8.308-1.88 8.308v-8.065zm0-1.613v-12.905a6.452 6.452 0 0 1 0 12.905zm29.866-28.872a1.5 1.5 0 1 1 .002-3 1.5 1.5 0 0 1-.002 3m-16.773 6.404a1.5 1.5 0 1 1 .001-3 1.5 1.5 0 0 1 0 3m7.655-9.403a1.5 1.5 0 1 1 0-3 1.5 1.5 0 0 1 0 3M240.55 474a1.5 1.5 0 1 1 0-3.001 1.5 1.5 0 0 1 0 3.001m11.894 2.683a1.5 1.5 0 1 1 0-3.001 1.5 1.5 0 0 1 0 3m-7.579 8.814a1.5 1.5 0 1 1 .002-3.001 1.5 1.5 0 0 1-.002 3.001m-10.232-3.69a1.5 1.5 0 1 1 0-3 1.5 1.5 0 0 1 0 3m-13.067 23.322a1.5 1.5 0 1 1 0-3.001 1.5 1.5 0 0 1 0 3.001M231.634 495a1.5 1.5 0 1 1 0-3.001 1.5 1.5 0 0 1 0 3.001m22.31-28.52a1.501 1.501 0 1 1 .002-3.002 1.501 1.501 0 0 1-.001 3.002m-12.079 27.366a1.5 1.5 0 1 1 .002-3.001 1.5 1.5 0 0 1-.002 3m-21.8-25.865a1.501 1.501 0 1 1 0-3.002 1.501 1.501 0 0 1 0 3.002M215 589.87c.81 0 1.514 3.355 1.88 8.308a8.042 8.042 0 0 0-1.88-.243v-8.065zm4.197 9.273c3.764-3.245 6.638-5.121 7.21-4.55.572.574-1.305 3.446-4.55 7.21a8.053 8.053 0 0 0-2.66-2.66zm3.625 4.977c4.953.367 8.31 1.07 8.31 1.88 0 .809-3.357 1.514-8.31 1.88.146-.605.244-1.23.244-1.88a7.99 7.99 0 0 0-.244-1.88zm-.965 6.078c3.245 3.764 5.122 6.636 4.55 7.209-.572.572-3.446-1.305-7.21-4.55a8.053 8.053 0 0 0 2.66-2.66zM215 614.066c.65 0 1.274-.098 1.88-.243-.366 4.953-1.07 8.308-1.88 8.308v-8.065zm0-1.613v-12.905a6.452 6.452 0 0 1 0 12.905z" fill="#F1C40F"/></g><path fill="#F39C11" d="M147.242 218.899l-45.083 45.083 45.083 45.083 45.083-45.083zM215 166.08l-45.083 45.083L215 256.246z"/><path fill="#E67F22" d="M124.834 271.452l-30.145 30.145 30.145 30.144 30.144-30.145zm60.022-60.288l-30.145 30.145 30.144 30.144L215 241.308z"/><g><path d="M215 323.809v-82.501c-8.878 0-17.117 3.51-23.965 9.496-3.081-2.707-10.035-.996-16.035 2.504-8.348 4.87-9 5.27-13 10.634-.179.239.03.59.045.885-10.803 2.913-19.103 14.68-20.171 29.204C126.149 286.767 84.2 304.814 79.999 322l61 15.482c8.133-4.216 46.588-14.174 62.501-14.174 3.973 0 7.826.175 11.5.5" fill="#F1C40F"/><path d="M146.856 327.308a9 9 0 0 0 9-9 9 9 0 0 0-9-9 9 9 0 0 0-9 9 9 9 0 0 0 9 9m25-31.116a9 9 0 0 0 9-9 9 9 0 0 0-9-9 9 9 0 0 0-9 9 9 9 0 0 0 9 9m29.26-19.384a9 9 0 0 0 9-9 9 9 0 0 0-9-9 9 9 0 0 0-9 9 9 9 0 0 0 9 9" fill="#F39C11"/><path d="M206.616 252.308a3.5 3.5 0 1 0 0-7 3.5 3.5 0 0 0 0 7m-14.5 1a3.5 3.5 0 1 1 7 0 3.5 3.5 0 0 1-7 0m-7.5 7a3.5 3.5 0 1 0 0-7 3.5 3.5 0 0 0 0 7m-14.5 1.77a3.5 3.5 0 1 1 7 0 3.5 3.5 0 0 1-7 0m-3.5 11.558a3.5 3.5 0 1 0 0-7 3.5 3.5 0 0 0 0 7m-12.13 3.172a3.5 3.5 0 1 1 7 0 3.5 3.5 0 0 1-7 0m-2.13 12.5a3.5 3.5 0 1 0 0-7 3.5 3.5 0 0 0 0 7m-7 6.176a3.5 3.5 0 1 1 6.998 0 3.5 3.5 0 0 1-6.998 0m-9.5 8.408a3.5 3.5 0 1 0 0-7 3.5 3.5 0 0 0 0 7m-13.5-2.834a3.5 3.5 0 1 1 6.998-.002 3.5 3.5 0 0 1-6.999.002m-6.582 7a3.5 3.5 0 1 0 0-7 3.5 3.5 0 0 0 0 7m-12.918.249a3.5 3.5 0 1 1 7 0 3.5 3.5 0 0 1-7 0" fill="#E67F22"/><path d="M161.856 308.308a4 4 0 1 0 0-8 4 4 0 0 0 0 8m-29.5 7.5a4 4 0 1 0-.001-8 4 4 0 0 0 0 8m43.5.5a4 4 0 1 0 0-8 4 4 0 0 0 0 8m-45.85 14.318a4 4 0 1 0 0-8 4 4 0 0 0 0 8m58.85-46.318a4 4 0 1 0 0-8 4 4 0 0 0 0 8m8 16.75a4 4 0 1 0 0-8 4 4 0 0 0 0 8" fill="#F39C11"/><path d="M115.38 351.767c.829 0 1.5-4.646 1.5-10.375 0-5.73-.671-10.375-1.5-10.375-.827 0-1.5 4.646-1.5 10.375s.673 10.375 1.5 10.375m31 4.96c.829 0 1.5-4.646 1.5-10.375 0-5.73-.671-10.375-1.5-10.375-.827 0-1.5 4.646-1.5 10.375s.673 10.375 1.5 10.375m-16-1.417c.829 0 1.5-4.646 1.5-10.375 0-5.73-.671-10.375-1.5-10.375-.827 0-1.5 4.646-1.5 10.375s.673 10.375 1.5 10.375m31-3.543c.829 0 1.5-4.646 1.5-10.375 0-5.73-.671-10.375-1.5-10.375-.827 0-1.5 4.646-1.5 10.375s.673 10.375 1.5 10.375m-38.05 2.126c.829 0 1.5-4.646 1.5-10.375 0-5.73-.671-10.375-1.5-10.375-.827 0-1.5 4.646-1.5 10.375s.673 10.375 1.5 10.375m31 0c.829 0 1.5-4.646 1.5-10.375 0-5.73-.671-10.375-1.5-10.375-.827 0-1.5 4.646-1.5 10.375s.673 10.375 1.5 10.375m-16 2.834c.829 0 1.5-4.646 1.5-10.375 0-5.73-.671-10.375-1.5-10.375-.827 0-1.5 4.646-1.5 10.375s.673 10.375 1.5 10.375m31.026-7.043c.828 0 1.5-4.646 1.5-10.375 0-5.73-.672-10.375-1.5-10.375s-1.5 4.646-1.5 10.375.672 10.375 1.5 10.375m6.5-1.917c.828 0 1.5-4.646 1.5-10.375 0-5.73-.672-10.375-1.5-10.375s-1.5 4.646-1.5 10.375.672 10.375 1.5 10.375m7.5-2c.828 0 1.5-4.646 1.5-10.375 0-5.73-.672-10.375-1.5-10.375s-1.5 4.646-1.5 10.375.672 10.375 1.5 10.375m7.5-1c.828 0 1.5-4.646 1.5-10.375 0-5.73-.672-10.375-1.5-10.375s-1.5 4.646-1.5 10.375.672 10.375 1.5 10.375m6 0c.828 0 1.5-4.646 1.5-10.375 0-5.73-.672-10.375-1.5-10.375s-1.5 4.646-1.5 10.375.672 10.375 1.5 10.375m6 0c.828 0 1.5-4.646 1.5-10.375 0-5.73-.672-10.375-1.5-10.375s-1.5 4.646-1.5 10.375.672 10.375 1.5 10.375m7.26 0c.828 0 1.5-4.646 1.5-10.375 0-5.73-.672-10.375-1.5-10.375s-1.5 4.646-1.5 10.375.672 10.375 1.5 10.375m-102.26 4.983c.828 0 1.5-4.646 1.5-10.375s-.672-10.375-1.5-10.375-1.5 4.646-1.5 10.375.672 10.375 1.5 10.375m-7.525-1.894c.828 0 1.5-4.646 1.5-10.375 0-5.73-.672-10.375-1.5-10.375s-1.5 4.645-1.5 10.375c0 5.729.672 10.375 1.5 10.375m-7.525-2.106c.828 0 1.5-4.646 1.5-10.375S93.633 325 92.806 325c-.829 0-1.5 4.646-1.5 10.375s.671 10.375 1.5 10.375M85.28 344c.828 0 1.5-4.646 1.5-10.375s-.672-10.375-1.5-10.375-1.5 4.646-1.5 10.375S84.452 344 85.28 344" fill="#ECF0F1"/><path d="M94.69 313.016a3.5 3.5 0 1 1 7 0 3.5 3.5 0 0 1-7 0m-8.075 6.11a3.5 3.5 0 1 1 7 0 3.5 3.5 0 0 1-7 0" fill="#E67F22"/><path d="M116.773 327a9 9 0 0 0 9-9 9 9 0 0 0-9-9 9 9 0 0 0-9 9 9 9 0 0 0 9 9" fill="#F39C11"/></g><path fill="#F39C11" d="M282.758 218.899l45.083 45.083-45.083 45.083-45.083-45.083zM215 166.08l45.082 45.083L215 256.246z"/><path fill="#E67F22" d="M305.166 271.452l30.145 30.145-30.145 30.144-30.144-30.145zm-60.022-60.288l30.145 30.145-30.144 30.144L215 241.308z"/><g><path d="M215 323.809v-82.501c8.878 0 17.117 3.51 23.965 9.496 3.081-2.707 10.035-.996 16.035 2.504 8.349 4.87 9 5.27 13 10.634.179.239-.03.59-.045.885 10.803 2.913 19.103 14.68 20.171 29.204C303.851 286.767 345.8 304.814 350 322l-61 15.482c-8.132-4.216-46.587-14.174-62.5-14.174-3.973 0-7.826.175-11.5.5" fill="#F1C40F"/><path d="M283.144 327.308a9 9 0 0 1-9-9 9 9 0 0 1 9-9 9 9 0 0 1 9 9 9 9 0 0 1-9 9m-25-31.116a9 9 0 0 1-9-9 9 9 0 0 1 9-9 9 9 0 0 1 9 9 9 9 0 0 1-9 9m-29.26-19.384a9 9 0 0 1-9-9 9 9 0 0 1 9-9 9 9 0 0 1 9 9 9 9 0 0 1-9 9" fill="#F39C11"/><path d="M223.384 252.308a3.5 3.5 0 1 1 0-7 3.5 3.5 0 0 1 0 7m14.5 1a3.5 3.5 0 1 0-7 0 3.5 3.5 0 0 0 7 0m7.5 7a3.5 3.5 0 1 1 0-7 3.5 3.5 0 0 1 0 7m14.5 1.77a3.5 3.5 0 1 0-7 0 3.5 3.5 0 0 0 7 0m3.5 11.558a3.5 3.5 0 1 1 0-7 3.5 3.5 0 0 1 0 7m12.13 3.172a3.5 3.5 0 1 0-7 0 3.5 3.5 0 0 0 7 0m2.13 12.5a3.5 3.5 0 1 1 0-7 3.5 3.5 0 0 1 0 7m7 6.176a3.5 3.5 0 1 0-6.998 0 3.5 3.5 0 0 0 6.998 0m9.5 8.408a3.5 3.5 0 1 1 0-7 3.5 3.5 0 0 1 0 7m13.5-2.834a3.5 3.5 0 1 0-6.998-.002 3.5 3.5 0 0 0 6.999.002m6.583 7a3.5 3.5 0 1 1 0-7 3.5 3.5 0 0 1 0 7m12.917.249a3.5 3.5 0 1 0-7 0 3.5 3.5 0 0 0 7 0" fill="#E67F22"/><path d="M268.144 308.308a4 4 0 1 1 0-8 4 4 0 0 1 0 8m29.5 7.5a4 4 0 1 1 .001-8 4 4 0 0 1 0 8m-43.5.5a4 4 0 1 1 0-8 4 4 0 0 1 0 8m45.85 14.318a4 4 0 1 1 0-8 4 4 0 0 1 0 8m-58.85-46.318a4 4 0 1 1 0-8 4 4 0 0 1 0 8m-8 16.75a4 4 0 1 1 0-8 4 4 0 0 1 0 8" fill="#F39C11"/><path d="M314.62 351.767c-.829 0-1.5-4.646-1.5-10.375 0-5.73.671-10.375 1.5-10.375.827 0 1.5 4.646 1.5 10.375s-.673 10.375-1.5 10.375m-31 4.96c-.829 0-1.5-4.646-1.5-10.375 0-5.73.671-10.375 1.5-10.375.827 0 1.5 4.646 1.5 10.375s-.673 10.375-1.5 10.375m16-1.417c-.829 0-1.5-4.646-1.5-10.375 0-5.73.671-10.375 1.5-10.375.827 0 1.5 4.646 1.5 10.375s-.673 10.375-1.5 10.375m-31-3.543c-.829 0-1.5-4.646-1.5-10.375 0-5.73.671-10.375 1.5-10.375.827 0 1.5 4.646 1.5 10.375s-.673 10.375-1.5 10.375m38.05 2.126c-.829 0-1.5-4.646-1.5-10.375 0-5.73.671-10.375 1.5-10.375.827 0 1.5 4.646 1.5 10.375s-.673 10.375-1.5 10.375m-31 0c-.829 0-1.5-4.646-1.5-10.375 0-5.73.671-10.375 1.5-10.375.827 0 1.5 4.646 1.5 10.375s-.673 10.375-1.5 10.375m16 2.834c-.829 0-1.5-4.646-1.5-10.375 0-5.73.671-10.375 1.5-10.375.827 0 1.5 4.646 1.5 10.375s-.673 10.375-1.5 10.375m-31.026-7.043c-.828 0-1.5-4.646-1.5-10.375 0-5.73.672-10.375 1.5-10.375s1.5 4.646 1.5 10.375-.672 10.375-1.5 10.375m-6.5-1.917c-.828 0-1.5-4.646-1.5-10.375 0-5.73.672-10.375 1.5-10.375s1.5 4.646 1.5 10.375-.672 10.375-1.5 10.375m-7.5-2c-.828 0-1.5-4.646-1.5-10.375 0-5.73.672-10.375 1.5-10.375s1.5 4.646 1.5 10.375-.672 10.375-1.5 10.375m-7.5-1c-.828 0-1.5-4.646-1.5-10.375 0-5.73.672-10.375 1.5-10.375s1.5 4.646 1.5 10.375-.672 10.375-1.5 10.375m-6 0c-.828 0-1.5-4.646-1.5-10.375 0-5.73.672-10.375 1.5-10.375s1.5 4.646 1.5 10.375-.672 10.375-1.5 10.375m-6 0c-.828 0-1.5-4.646-1.5-10.375 0-5.73.672-10.375 1.5-10.375s1.5 4.646 1.5 10.375-.672 10.375-1.5 10.375m-7.26 0c-.828 0-1.5-4.646-1.5-10.375 0-5.73.672-10.375 1.5-10.375s1.5 4.646 1.5 10.375-.672 10.375-1.5 10.375m102.26 4.983c-.828 0-1.5-4.646-1.5-10.375s.672-10.375 1.5-10.375 1.5 4.646 1.5 10.375-.672 10.375-1.5 10.375m7.525-1.894c-.828 0-1.5-4.646-1.5-10.375 0-5.73.672-10.375 1.5-10.375s1.5 4.645 1.5 10.375c0 5.729-.672 10.375-1.5 10.375m7.526-2.106c-.828 0-1.5-4.646-1.5-10.375s.672-10.375 1.5-10.375 1.5 4.646 1.5 10.375-.672 10.375-1.5 10.375m7.525-1.75c-.828 0-1.5-4.646-1.5-10.375s.672-10.375 1.5-10.375 1.5 4.646 1.5 10.375-.672 10.375-1.5 10.375" fill="#ECF0F1"/><path d="M335.31 313.016a3.5 3.5 0 1 0-7 0 3.5 3.5 0 0 0 7 0m8.075 6.11a3.5 3.5 0 1 0-7 0 3.5 3.5 0 0 0 7 0" fill="#E67F22"/><path d="M313.228 327a9 9 0 0 1-9-9 9 9 0 0 1 9-9 9 9 0 0 1 9 9 9 9 0 0 1-9 9" fill="#F39C11"/></g></g></svg>