<svg height="800" width="800" xmlns="http://www.w3.org/2000/svg"><g fill="none" fill-rule="evenodd"><path d="M225 458.596c40 0 72.426-21.533 72.426-48.096 0-26.564-32.426-48.097-72.426-48.097s-72.426 21.533-72.426 48.097c0 26.563 32.426 48.096 72.426 48.096" fill="#2d3e50"/><path d="M243.302 647H259v-55h-15.698z" fill="#e67f22"/><path d="M215 454.153c53.572 0 97-53.758 97-120.071s-43.428-54.525-97-54.525-97-11.788-97 54.525 43.428 120.07 97 120.07" fill="#2d3e50"/><g fill="#f9db9d"><path d="M138.266 387.185c6.69 0 12.116-5.427 12.116-12.122s-5.425-12.123-12.116-12.123-12.116 5.428-12.116 12.123 5.425 12.122 12.116 12.122m153.468 0c6.691 0 12.116-5.427 12.116-12.122s-5.425-12.123-12.116-12.123-12.116 5.428-12.116 12.123 5.425 12.122 12.116 12.122"/></g><path d="M204.23 463.202h21.539v-18.099H204.23z" fill="#f9db9d"/><path d="M215 451.838c44.61 0 80.773-43.846 80.773-104.922S259.61 294 215 294s-80.773-8.16-80.773 52.916S170.39 451.838 215 451.838" fill="#f9db9d"/><g fill="#2d3e50"><path d="M177.556 371.281a8.193 8.193 0 0 0 8.19-8.195c0-4.527-3.666-8.196-8.19-8.196s-8.191 3.67-8.191 8.196a8.193 8.193 0 0 0 8.19 8.195m74.89 0a8.193 8.193 0 0 0 8.191-8.195c0-4.527-3.667-8.196-8.19-8.196s-8.192 3.67-8.192 8.196a8.193 8.193 0 0 0 8.191 8.195m-62.188 37.977c-.257.767-.415 1.553-.415 2.36 0 7.385 11.264 13.372 25.158 13.372 13.895 0 25.158-5.987 25.158-13.372 0-.807-.157-1.593-.415-2.36-2.1 6.258-12.366 11.013-24.743 11.013s-22.643-4.755-24.743-11.013"/></g><path d="M169.845 528.203c-2.693 10.775-10.77 78.121-5.385 83.51 5.385 5.386 10.77 0 13.462 0 2.192 0 9.734-82.096 12.465-112.643L215 502v-47.848h-12c-35.837-1.838-28.074 18.66-29.977 33.643 0 0-.486 29.633-3.178 40.408" fill="#f9db9d"/><path d="M214.86 696l.14-135h-35l-3 135z" fill="#425161"/><path d="M186.752 729.625l1.018 17.534-.018.003-3 3c-1 1 0 2 6 1 5.055-.843 10.094-2.477 11.562-2.973l.438-.027s.039-6.708.235-18.537z" fill="#f9db9d"/><path d="M186.83 749.1s-24.986 11.062-11.118 11.062h24.927c3.307 0 2.153-12.123 2.153-12.123z" fill="#2d3e50"/><path d="M196.867 478.806h17.993v-24.654h-17.993z" fill="#f9db9d"/><path d="M215 519v-34h-31c-7 14-.641 21.023 0 30l.288 4z" fill="#f39c11"/><path d="M180 561h35v-42h-30.712c1.695 23.347 1.406 18.276-4.288 42" fill="#9a59b5"/><path d="M203 527.4h12V519h-12z" fill="#f1c40f"/><path d="M203 535.801h12v-8.4h-12z" fill="#2dcc70"/><path d="M191 527.4h12V519h-12z" fill="#f86792"/><path d="M191 544.201h12v-8.4h-12z" fill="#f1c40f"/><path d="M185.186 535.8c-.05 2.995-.37 5.335-1.044 8.4H191v-8.4zM180 561h11v-8.4h-8.924A680.837 680.837 0 0 0 180 561" fill="#2dcc70"/><path d="M185.186 535.8H191v-8.4h-6.12c.23 3.553.343 6.167.306 8.4" fill="#f1c40f"/><path d="M203 544.199h12v-8.398h-12z" fill="#f86792"/><path d="M203 552.6h12v-8.398h-12z" fill="#2dcc70"/><path d="M191 552.6h12v-8.4h-12z" fill="#f86792"/><path d="M203 561h12v-8.4h-12z" fill="#f1c40f"/><g fill="#ecf0f1"><path d="M197 524.1a.9.9 0 1 0 .001-1.8.9.9 0 0 0-.001 1.8m12 8.4a.9.9 0 1 0 .001-1.799.9.9 0 0 0-.001 1.799m-12 8.4a.9.9 0 1 0 .001-1.798.9.9 0 0 0-.001 1.798m-10.702 8.4a.9.9 0 1 0 0-1.798.9.9 0 0 0 0 1.799M209 557.699a.9.9 0 1 0 .001-1.799.9.9 0 0 0-.001 1.8"/></g><path d="M179 738h36v-42h-36z" fill="#f86792"/><path d="M177 693h38v-5h-38zm0-14.834h38v-5h-38zM183 500h32v-1h-32z" fill="#f1c40f"/><path d="M177 677.999l12.001 12 1.333-1.332-12.001-12.001z" fill="#f1c40f"/><path d="M189.001 676.665l-12 12.001 1.332 1.334 12.001-12.002z" fill="#f1c40f"/><path d="M189.333 677.999l12 12 1.334-1.332-12.001-12.001z" fill="#f1c40f"/><path d="M201.334 676.665l-12.001 12.001 1.333 1.334 12.001-12.002z" fill="#f1c40f"/><path d="M201.665 678.333l12.001 12.001 1.333-1.333-12-12z" fill="#f1c40f"/><path d="M213.667 677l-12.001 12.001 1.333 1.334 12-12.002zM203 660.896h12v-2.4h-12zm0 4.799h12v-2.4h-12zm0 4.801h12v-2.4h-12zm0-70.378h12v-2.4h-12zm0 4.8h12v-2.4h-12zm0 4.8h12v-2.4h-12zm0 21.459h12v-2.4h-12zm0 4.801h12v-2.4h-12zm0 4.799h12v-2.4h-12zm0-70.377h12V568h-12zm0 4.8h12v-2.4h-12zm0 4.8h12v-2.4h-12zm9.6 75.826h2.4v-12h-2.4zm-4.8 0h2.4v-12h-2.4zm-4.8 0h2.4v-12H203zm9.6-60.778h2.4v-12h-2.4zm-4.8 0h2.4v-12h-2.4zm-4.8 0h2.4v-12H203zm9.6 31.059h2.4v-12h-2.4zm-4.8 0h2.4v-12h-2.4zm-4.8 0h2.4v-12H203zm9.6-60.777h2.4V561h-2.4zm-4.8 0h2.4V561h-2.4zm-4.8 0h2.4V561H203zM179.844 568l-.053 2.4h6.857V568zm-.107 4.8l-.053 2.4h6.964v-2.4zm-.106 4.8l-.054 2.4h7.071v-2.4zm2.217 5.448h-2.338l-.062 2.77v9.23h2.4zm-2.664 14.67l-.054 2.4h7.518v-2.4zm-.107 4.8l-.053 2.4h7.624v-2.4zm-.107 4.8l-.053 2.4h7.731v-2.4zm.478 18.789h2.4v-12h-2.4zm-.955 2.67l-.053 2.4h8.208v-2.4zm-.106 4.8l-.054 2.401h8.315v-2.401zm-.107 4.8l-.053 2.4h8.421v-2.4zm1.168 17.449h2.4v-12h-2.4zm-1.615 2.67l-.053 2.4h8.868v-2.4zm-.107 4.799l-.053 2.4h8.975v-2.4zm-.106 4.8l-.054 2.401h9.082v-2.401zm6.628-12.269h2.4v-12h-2.4zm0-29.719h2.4v-12h-2.4zm0-31.059h2.4v-12h-2.4zm0-29.718h2.4V561h-2.4zm-2.4 0V561H180l-.097 4.33zm6.976 80.896h12v-2.4h-12zm0 4.799h12v-2.4h-12zm0 4.801h12v-2.4h-12zm0-70.378h12v-2.4h-12zm0 4.8h12v-2.4h-12zm0 4.8h12v-2.4h-12zm0 21.459h12v-2.4h-12zm0 4.801h12v-2.4h-12zm0 4.8h12v-2.4h-12zm0-60.778h12v-2.4h-12zm9.6 105.166h2.4v-12h-2.4zm-4.8 0h2.4v-12h-2.4zm-4.8 0h2.4v-12h-2.4zm9.6-29.34h2.4v-12h-2.4zm-4.8 0h2.4v-12h-2.4zm-4.8 0h2.4v-12h-2.4zm9.6-60.778h2.4v-12h-2.4zm-4.8 0h2.4v-12h-2.4zm-4.8 0h2.4v-12h-2.4zm9.6 31.06h2.4v-12h-2.4zm-4.8 0h2.4v-12h-2.4zm-4.8 0h2.4v-12h-2.4z" fill="#f1c40f"/><path d="M179 738h36v-8.375h-36z" fill="#3598db"/><path d="M200.521 700.956s-6.262-2.827-5.656 3.232c.606 6.06 3.636 2.02 3.636 2.02s-3.273-2.828-.829-3.434c2.445-.606 9.313 9.696 3.455 12.322 0 0 3.232 2.02 4.747-2.222 0 0 3.333-1.818 3.94-.202 0 0 5.763-3.686.807-4.445-3.173-.485-1.01 1.456-1.01 1.456l.927.282s-4.967.888-5.169-4.767c-.202-5.656 1.818-7.878 3.232-5.857 1.414 2.02-.606 1.817-.606 1.817s.16 1.131 1.616 1.01c3.277-.272 1.212-6.06-3.03-5.252-4.242.81-2.899 9.29-2.899 9.29s-.737-4.038-3.16-5.25" fill="#f1c40f"/><path d="M187.805 713.204s-6.262-2.827-5.656 3.232c.606 6.06 3.636 2.02 3.636 2.02s-3.273-2.828-.83-3.434c2.446-.606 9.314 9.696 3.456 12.322 0 0 3.232 2.02 4.747-2.222 0 0 3.333-1.818 3.939-.202 0 0 5.764-3.686.808-4.445-3.173-.485-1.01 1.456-1.01 1.456l.927.282s-4.967.888-5.17-4.767c-.201-5.656 1.819-7.878 3.233-5.857 1.414 2.02-.606 1.817-.606 1.817s.16 1.131 1.616 1.01c3.277-.272 1.212-6.06-3.03-5.252-4.242.81-2.9 9.29-2.9 9.29s-.736-4.038-3.16-5.25" fill="#f1c40f"/><path d="M260.155 528.203c2.693 10.775 10.77 78.121 5.385 83.51-5.385 5.386-10.77 0-13.462 0-2.192 0-9.734-82.096-12.465-112.643L215 502v-47.848h12c35.837-1.838 28.074 18.66 29.977 33.643 0 0 .486 29.633 3.178 40.408" fill="#f9db9d"/><path d="M215.14 696L215 561h35l3 135z" fill="#425161"/><path d="M243.248 729.625l-1.018 17.534.018.003 3 3c1 1 0 2-6 1-5.055-.843-10.094-2.477-11.562-2.973l-.438-.027s-.039-6.708-.235-18.537z" fill="#f9db9d"/><path d="M243.17 749.1s24.986 11.062 11.118 11.062H229.36c-3.307 0-2.153-12.123-2.153-12.123z" fill="#2d3e50"/><path d="M215.14 478.806h17.993v-24.654H215.14z" fill="#f9db9d"/><path d="M215 519v-34h31c7 14 .641 21.023 0 30l-.288 4z" fill="#f39c11"/><path d="M250 561h-35v-42h30.712c-1.695 23.347-1.406 18.276 4.288 42" fill="#f1c40f"/><path d="M215 527.4h12V519h-12z" fill="#9a59b5"/><path d="M215 535.801h12v-8.4h-12zm12-8.401h12V519h-12z" fill="#f86792"/><path d="M227 544.201h12v-8.4h-12z" fill="#9a59b5"/><path d="M244.814 535.8c.05 2.995.37 5.335 1.044 8.4H239v-8.4z" fill="#f86792"/><path d="M250 561h-11v-8.4h8.924c.594 2.347 1.28 5.084 2.076 8.4" fill="#2dcc70"/><path d="M244.814 535.8H239v-8.4h6.12c-.23 3.553-.343 6.167-.306 8.4" fill="#9a59b5"/><path d="M215 544.199h12v-8.398h-12z" fill="#2dcc70"/><path d="M215 552.6h12v-8.398h-12z" fill="#f86792"/><path d="M227 552.6h12v-8.4h-12z" fill="#2dcc70"/><path d="M215 561h12v-8.4h-12z" fill="#9a59b5"/><g fill="#ecf0f1"><path d="M233 524.1a.9.9 0 1 1-.001-1.8.9.9 0 0 1 .001 1.8m-12 8.4a.9.9 0 1 1-.001-1.799.9.9 0 0 1 .001 1.799m12 8.4a.9.9 0 1 1-.001-1.798.9.9 0 0 1 .001 1.798m10.702 8.4a.9.9 0 1 1 0-1.798.9.9 0 0 1 0 1.799M221 557.699a.9.9 0 1 1-.001-1.799.9.9 0 0 1 .001 1.8"/></g><path d="M215 738h36v-42h-36z" fill="#f86792"/><path d="M215 693h38v-5h-38zm0-14.834h38v-5h-38zM215 500h32v-1h-32z" fill="#f1c40f"/><path d="M253 677.999l-12.001 12-1.333-1.332 12.001-12.001z" fill="#f1c40f"/><path d="M240.999 676.665l12 12.001-1.332 1.334-12.001-12.002z" fill="#f1c40f"/><path d="M240.667 677.999l-12 12-1.334-1.332 12.001-12.001z" fill="#f1c40f"/><path d="M228.666 676.665l12.001 12.001-1.333 1.334-12.001-12.002z" fill="#f1c40f"/><path d="M228.334 678.333l-12 12.001-1.334-1.333 12.001-12z" fill="#f1c40f"/><path d="M216.333 677l12.001 12.001-1.333 1.334-12-12.002zM215 660.896h12v-2.4h-12zm0 4.799h12v-2.4h-12zm0 4.801h12v-2.4h-12zm0-70.378h12v-2.4h-12zm0 4.8h12v-2.4h-12zm0 4.8h12v-2.4h-12zm0 21.459h12v-2.4h-12zm0 4.801h12v-2.4h-12zm0 4.799h12v-2.4h-12zm0-70.377h12V568h-12zm0 4.8h12v-2.4h-12zm0 4.8h12v-2.4h-12zm0 75.826h2.4v-12H215zm4.8 0h2.4v-12h-2.4zm4.8 0h2.4v-12h-2.4zm-9.6-60.778h2.4v-12H215zm4.8 0h2.4v-12h-2.4zm4.8 0h2.4v-12h-2.4zm-9.6 31.059h2.4v-12H215zm4.8 0h2.4v-12h-2.4zm4.8 0h2.4v-12h-2.4zM215 565.33h2.4V561H215zm4.8 0h2.4V561h-2.4zm4.8 0h2.4V561h-2.4zm25.556 2.67l.053 2.4h-6.857V568zm.107 4.8l.053 2.4h-6.964v-2.4zm.106 4.8l.054 2.4h-7.071v-2.4zm-2.217 5.448h2.338l.062 2.77v9.23h-2.4zm2.664 14.67l.054 2.4h-7.518v-2.4zm.107 4.8l.053 2.4h-7.624v-2.4zm.107 4.8l.053 2.4h-7.731v-2.4zm-2.878 18.789h2.4v-12h-2.4zm3.355 2.67l.053 2.4h-8.208v-2.4zm.106 4.8l.054 2.401h-8.315v-2.401zm.107 4.8l.053 2.4h-8.421v-2.4zm-3.568 17.449h2.4v-12h-2.4zm4.015 2.67l.053 2.4h-8.868v-2.4zm.107 4.799l.053 2.4h-8.975v-2.4zm.106 4.8l.054 2.401h-9.082v-2.401zm-9.028-12.269h2.4v-12h-2.4zm0-29.719h2.4v-12h-2.4zm0-31.059h2.4v-12h-2.4zm0-29.718h2.4V561h-2.4zm4.8 0V561H250l.097 4.33zm-18.976 80.896h12v-2.4h-12zm0 4.799h12v-2.4h-12zm0 4.801h12v-2.4h-12zm0-70.378h12v-2.4h-12zm0 4.8h12v-2.4h-12zm0 4.8h12v-2.4h-12zm0 21.459h12v-2.4h-12zm0 4.801h12v-2.4h-12zm0 4.8h12v-2.4h-12zm0-60.778h12v-2.4h-12zm0 105.166h2.4v-12h-2.4zm4.8 0h2.4v-12h-2.4zm4.8 0h2.4v-12h-2.4zm-9.6-29.34h2.4v-12h-2.4zm4.8 0h2.4v-12h-2.4zm4.8 0h2.4v-12h-2.4zm-9.6-60.778h2.4v-12h-2.4zm4.8 0h2.4v-12h-2.4zm4.8 0h2.4v-12h-2.4zm-9.6 31.06h2.4v-12h-2.4zm4.8 0h2.4v-12h-2.4zm4.8 0h2.4v-12h-2.4z" fill="#f1c40f"/><path d="M215 738h36v-8.375h-36z" fill="#3598db"/><g fill="#f1c40f"><path d="M229.479 700.956s6.262-2.827 5.656 3.232c-.606 6.06-3.636 2.02-3.636 2.02s3.273-2.828.829-3.434c-2.445-.606-9.313 9.696-3.455 12.322 0 0-3.232 2.02-4.747-2.222 0 0-3.333-1.818-3.94-.202 0 0-5.763-3.686-.807-4.445 3.173-.485 1.01 1.456 1.01 1.456l-.927.282s4.967.888 5.169-4.767c.202-5.656-1.818-7.878-3.232-5.857-1.414 2.02.606 1.817.606 1.817s-.16 1.131-1.616 1.01c-3.277-.272-1.212-6.06 3.03-5.252 4.242.81 2.899 9.29 2.899 9.29s.737-4.038 3.16-5.25"/><path d="M242.195 713.204s6.262-2.827 5.656 3.232c-.606 6.06-3.636 2.02-3.636 2.02s3.273-2.828.83-3.434c-2.446-.606-9.314 9.696-3.456 12.322 0 0-3.232 2.02-4.747-2.222 0 0-3.333-1.818-3.939-.202 0 0-5.764-3.686-.808-4.445 3.173-.485 1.01 1.456 1.01 1.456l-.927.282s4.967.888 5.17-4.767c.201-5.656-1.819-7.878-3.233-5.857-1.414 2.02.606 1.817.606 1.817s-.16 1.131-1.616 1.01c-3.277-.272-1.212-6.06 3.03-5.252 4.242.81 2.9 9.29 2.9 9.29s.736-4.038 3.16-5.25"/></g><path d="M229 485h15v-32h-15z" fill="#e67f22"/><path d="M229 485h15v-1h-15z" fill="#d25400"/><g><path d="M139 408s40.402 57 36.201 105S180 556.801 180 556.801s19.201 0 15.1-16.801c-4.1-16.801-2.77-37.447 0-51 2.771-13.553 8.9-36 8.9-36s-47-12-69-59" fill="#2d3e50"/><g fill="#f39c11"><path d="M197.569 245.719c9.627 0 17.431-21.937 17.431-49s-7.804-49-17.431-49-17.431 21.937-17.431 49 7.804 49 17.431 49"/><path d="M189.737 249.72c9.23-2.733 10.482-25.984 2.796-51.932s-21.4-44.765-30.63-42.032c-9.23 2.735-10.482 25.985-2.796 51.934 7.686 25.947 21.4 44.764 30.63 42.03"/><path d="M165.23 267.228c9.23-2.733 10.482-25.984 2.796-51.932s-21.4-44.765-30.63-42.032c-9.23 2.735-10.482 25.985-2.796 51.934 7.686 25.947 21.4 44.764 30.63 42.03"/><path d="M156.607 280.374c8.028-5.313 2.43-27.914-12.509-50.481-14.936-22.568-33.553-36.553-41.58-31.24-8.028 5.314-2.428 27.913 12.51 50.481 14.936 22.567 33.552 36.553 41.58 31.24"/><path d="M145 295.759c7.429-6.123-.504-28.015-17.718-48.896-17.214-20.882-37.188-32.846-44.617-26.723-7.428 6.124.503 28.015 17.717 48.897s37.19 32.846 44.618 26.722"/><path d="M149.754 307.526c6.058-7.48-6.08-27.352-27.11-44.383-21.032-17.03-42.993-24.772-49.05-17.29-6.06 7.481 6.079 27.352 27.11 44.383s42.99 24.771 49.05 17.29"/></g><path d="M135 334s41-11.77 80-11.77V229s-76 52.5-80 105" fill="#f1c40f"/><path d="M203.712 245.717c3.997-.244 6.024-20.26 4.529-44.71-1.495-24.444-5.947-44.065-9.944-43.821-3.996.246-6.024 20.26-4.529 44.707 1.495 24.449 5.947 44.07 9.944 43.824m-12.47 12.194c3.877-1.003 2.048-21.038-4.085-44.752-6.133-23.712-14.246-42.123-18.123-41.12-3.876 1.002-2.048 21.04 4.084 44.751 6.133 23.714 14.248 42.123 18.124 41.121m-18.93 12.914c3.643-1.66-1.638-21.075-11.795-43.363-10.157-22.287-21.345-39.008-24.988-37.348-3.644 1.66 1.636 21.074 11.793 43.361 10.157 22.288 21.345 39.01 24.99 37.35m-15.445 21.14c3.155-2.464-6.51-20.11-21.59-39.411-15.08-19.3-29.862-32.947-33.017-30.483-3.156 2.465 6.51 20.11 21.59 39.41 15.08 19.302 29.862 32.95 33.017 30.485m-12.735 20.618c2.807-2.855-9.08-19.088-26.55-36.256-17.47-17.167-33.906-28.768-36.713-25.913-2.806 2.856 9.08 19.089 26.55 36.256 17.47 17.168 33.906 28.769 36.713 25.913" fill="#e67f22"/><path d="M135 334c6.213 0 11.25-13.26 11.25-29.615 0-16.356-5.037-29.615-11.25-29.615s-11.25 13.259-11.25 29.615C123.75 320.74 128.787 334 135 334" fill="#f1c40f"/><path d="M155.585 324.277c7.594 0 13.75-16.205 13.75-36.197 0-19.99-6.156-36.196-13.75-36.196s-13.75 16.205-13.75 36.196c0 19.992 6.156 36.197 13.75 36.197" fill="#f1c40f"/><path d="M175 291.363c6.213 0 11.25-13.26 11.25-29.615 0-16.356-5.037-29.615-11.25-29.615s-11.25 13.26-11.25 29.615c0 16.355 5.037 29.615 11.25 29.615" fill="#f1c40f"/><path d="M195 274.77c6.213 0 11.25-13.26 11.25-29.615 0-16.357-5.037-29.616-11.25-29.616s-11.25 13.26-11.25 29.615c0 16.355 5.037 29.615 11.25 29.615" fill="#f1c40f"/><path d="M215 199.385c-6.213 0-11.25 13.26-11.25 29.615 0 16.356 5.037 29.615 11.25 29.615z" fill="#f1c40f"/><path d="M131 337l-4.85-15S171 304.385 215 304.385V323s-68 8-82.5 14" fill="#f39c11"/><path d="M198.138 249.236a4.861 4.861 0 1 0 .001-9.723 4.861 4.861 0 0 0-.001 9.723m-40.675 31.424a4.861 4.861 0 1 0 .001-9.723 4.861 4.861 0 0 0 0 9.723" fill="#1bbc9b"/><path d="M215 268.268a7.532 7.532 0 0 0 0 15.063z" fill="#d25400"/><path d="M232.431 245.719c-9.627 0-17.431-21.937-17.431-49s7.804-49 17.431-49 17.431 21.937 17.431 49-7.804 49-17.431 49" fill="#f39c11"/><path d="M240.263 249.72c-9.23-2.733-10.482-25.984-2.796-51.932s21.4-44.765 30.63-42.032c9.23 2.735 10.482 25.985 2.796 51.934-7.686 25.947-21.4 44.764-30.63 42.03" fill="#f39c11"/><path d="M264.77 267.228c-9.23-2.733-10.482-25.984-2.796-51.932s21.4-44.765 30.63-42.032c9.23 2.735 10.483 25.985 2.797 51.934-7.686 25.947-21.4 44.764-30.63 42.03" fill="#f39c11"/><path d="M273.393 280.374c-8.028-5.313-2.43-27.914 12.509-50.481 14.936-22.568 33.553-36.553 41.58-31.24 8.028 5.314 2.428 27.913-12.51 50.481-14.936 22.567-33.552 36.553-41.58 31.24" fill="#f39c11"/><path d="M285 295.759c-7.429-6.123.504-28.015 17.718-48.896 17.214-20.882 37.188-32.846 44.617-26.723 7.428 6.124-.503 28.015-17.717 48.897s-37.19 32.846-44.618 26.722" fill="#f39c11"/><path d="M280.246 307.526c-6.058-7.48 6.08-27.352 27.11-44.383 21.032-17.03 42.993-24.772 49.05-17.29 6.06 7.481-6.079 27.352-27.11 44.383s-42.99 24.771-49.05 17.29" fill="#f39c11"/><path d="M295 334s-41-11.77-80-11.77V229s76 52.5 80 105" fill="#f1c40f"/><path d="M226.288 245.717c-3.997-.244-6.024-20.26-4.529-44.71 1.495-24.444 5.947-44.065 9.944-43.821 3.996.246 6.024 20.26 4.529 44.707-1.495 24.449-5.947 44.07-9.944 43.824m12.47 12.194c-3.877-1.003-2.048-21.038 4.085-44.752 6.133-23.712 14.246-42.123 18.123-41.12 3.876 1.002 2.048 21.04-4.084 44.751-6.133 23.714-14.248 42.123-18.124 41.121m18.93 12.914c-3.644-1.66 1.637-21.075 11.794-43.363 10.157-22.287 21.345-39.008 24.988-37.348 3.644 1.66-1.636 21.074-11.793 43.361-10.157 22.288-21.345 39.01-24.989 37.35m15.445 21.14c-3.155-2.464 6.51-20.11 21.59-39.411 15.08-19.3 29.862-32.947 33.017-30.483 3.156 2.465-6.51 20.11-21.59 39.41-15.08 19.302-29.862 32.95-33.017 30.485m12.735 20.618c-2.807-2.855 9.08-19.088 26.55-36.256 17.47-17.167 33.906-28.768 36.713-25.913 2.806 2.856-9.08 19.089-26.55 36.256-17.47 17.168-33.906 28.769-36.713 25.913" fill="#e67f22"/><path d="M295 334c-6.213 0-11.25-13.26-11.25-29.615 0-16.356 5.037-29.615 11.25-29.615s11.25 13.259 11.25 29.615C306.25 320.74 301.213 334 295 334" fill="#f1c40f"/><path d="M274.415 324.277c-7.594 0-13.75-16.205-13.75-36.197 0-19.99 6.156-36.196 13.75-36.196s13.75 16.205 13.75 36.196c0 19.992-6.156 36.197-13.75 36.197" fill="#f1c40f"/><path d="M255 291.363c-6.213 0-11.25-13.26-11.25-29.615 0-16.356 5.037-29.615 11.25-29.615s11.25 13.26 11.25 29.615c0 16.355-5.037 29.615-11.25 29.615" fill="#f1c40f"/><path d="M235 274.77c-6.213 0-11.25-13.26-11.25-29.615 0-16.357 5.037-29.616 11.25-29.616s11.25 13.26 11.25 29.615c0 16.355-5.037 29.615-11.25 29.615" fill="#f1c40f"/><path d="M215 199.385c6.213 0 11.25 13.26 11.25 29.615 0 16.356-5.037 29.615-11.25 29.615z" fill="#f1c40f"/><path d="M299 337l4.85-15S259 304.385 215 304.385V323s68 8 82.5 14" fill="#f39c11"/><path d="M231.862 249.236a4.861 4.861 0 1 1-.001-9.723 4.861 4.861 0 0 1 .001 9.723m40.675 31.424a4.861 4.861 0 1 1-.001-9.723 4.861 4.861 0 0 1 0 9.723" fill="#1bbc9b"/><path d="M215 268.268a7.532 7.532 0 0 1 0 15.063z" fill="#d25400"/><path d="M585 495v-29.578l11.775-12.483c2.489-.136 15.096 0 18.178 0 24.683 0 27.449 36.894 27.716 42.061h.028l4.145 56.552c2.232 15.316 5.191 53.019-.691 58.901-6.521 6.522-26.087 2.174-28.26-15.217-2.175-17.391-6.522-78.261-6.522-78.261V495z" fill="#f9db9d"/></g><path d="M570.84 461.88h28.32v-23.797h-28.32z" fill="#f9db9d"/><g><g fill="#f9db9d"><path d="M585 465.422c7.82 0 14.16-1.586 14.16-3.542s-6.34-3.542-14.16-3.542-14.16 1.586-14.16 3.542 6.34 3.542 14.16 3.542m90.217-86.939c7.204 0 13.043-5.84 13.043-13.043 0-7.204-5.839-13.044-13.043-13.044s-13.043 5.84-13.043 13.044c0 7.203 5.839 13.043 13.043 13.043m-180.434 0c7.204 0 13.043-5.84 13.043-13.043 0-7.204-5.839-13.044-13.043-13.044s-13.043 5.84-13.043 13.044c0 7.203 5.839 13.043 13.043 13.043"/></g><path d="M585 405.678c52.827 0 108.457-29.678 92.108-97.304-8.906-36.84-39.281-76.24-92.108-76.24s-91.07 60.74-93.526 76.24C480.126 380 532.173 405.678 585 405.678" fill="#2d3e50"/><path d="M585 446.418c47.424 0 85.869-41.851 85.869-93.478 0-51.626-38.445-100-85.869-100s-85.869 48.374-85.869 100c0 51.627 38.445 93.478 85.869 93.478" fill="#f9db9d"/><path d="M549.477 362.099c4.346 0 7.869-3.525 7.869-7.873s-3.523-7.873-7.87-7.873-7.868 3.525-7.868 7.873 3.523 7.873 7.869 7.873m71.942 0c4.346 0 7.869-3.525 7.869-7.873s-3.523-7.873-7.87-7.873-7.868 3.525-7.868 7.873 3.523 7.873 7.869 7.873m-59.74 36.482c-.248.737-.4 1.492-.4 2.267 0 7.095 10.821 12.846 24.168 12.846 13.348 0 24.17-5.75 24.17-12.846 0-.775-.153-1.53-.4-2.267-2.018 6.012-11.88 10.58-23.77 10.58-11.889 0-21.75-4.568-23.769-10.58" fill="#2d3e50"/><path d="M585 495v-29.578l-11.775-12.483c-2.489-.136-15.096 0-18.178 0-24.683 0-27.449 36.894-27.716 42.061h-.028l-4.145 56.552c-2.232 15.316-5.191 53.019.691 58.901 6.521 6.522 26.087 2.174 28.26-15.217 2.175-17.391 6.522-78.261 6.522-78.261V495z" fill="#f9db9d"/></g><path d="M541.434 744.059h87.131V688h-87.131z" fill="#3598db"/><path d="M541.434 744.059h87.131v-8.375h-87.131z" fill="#297fb8"/><g fill="#f1c40f"><path d="M557.041 695.188s6.262-2.827 5.656 3.232c-.606 6.06-3.636 2.02-3.636 2.02s3.273-2.829.83-3.435c-2.446-.606-9.314 9.696-3.456 12.322 0 0-3.232 2.02-4.747-2.222 0 0-3.333-1.818-3.939-.202 0 0-5.764-3.686-.808-4.445 3.173-.485 1.01 1.456 1.01 1.456l-.927.282s4.967.888 5.17-4.767c.201-5.656-1.819-7.878-3.233-5.857-1.414 2.02.606 1.817.606 1.817s-.16 1.131-1.616 1.01c-3.277-.272-1.212-6.06 3.03-5.252 4.242.81 2.9 9.29 2.9 9.29s.736-4.038 3.16-5.25m31.118 0s6.262-2.827 5.656 3.232c-.606 6.06-3.636 2.02-3.636 2.02s3.273-2.828.83-3.434c-2.446-.606-9.314 9.696-3.456 12.322 0 0-3.232 2.02-4.747-2.222 0 0-3.333-1.818-3.939-.202 0 0-5.764-3.686-.808-4.445 3.173-.485 1.01 1.456 1.01 1.456l-.927.282s4.967.888 5.17-4.767c.201-5.656-1.819-7.878-3.233-5.857-1.414 2.02.606 1.817.606 1.817s-.16 1.131-1.616 1.01c-3.277-.272-1.212-6.06 3.03-5.252 4.242.81 2.9 9.29 2.9 9.29s.736-4.038 3.16-5.25m27.022 0s6.262-2.827 5.656 3.232c-.606 6.06-3.636 2.02-3.636 2.02s3.273-2.828.83-3.434c-2.446-.606-9.314 9.696-3.456 12.322 0 0-3.232 2.02-4.747-2.222 0 0-3.333-1.818-3.939-.202 0 0-5.764-3.686-.808-4.445 3.173-.485 1.01 1.456 1.01 1.456l-.927.282s4.967.888 5.17-4.767c.201-5.656-1.819-7.878-3.233-5.857-1.414 2.02.606 1.817.606 1.817s-.16 1.131-1.616 1.01c-3.277-.272-1.212-6.06 3.03-5.252 4.242.81 2.9 9.29 2.9 9.29s.736-4.038 3.16-5.25m-49.236 22.497s6.262-2.827 5.656 3.232c-.606 6.06-3.636 2.02-3.636 2.02s3.273-2.828.83-3.434c-2.446-.606-9.314 9.696-3.456 12.322 0 0-3.232 2.019-4.747-2.222 0 0-3.333-1.818-3.939-.202 0 0-5.764-3.686-.808-4.445 3.173-.485 1.01 1.456 1.01 1.456l-.927.282s4.967.888 5.17-4.767c.201-5.656-1.819-7.878-3.233-5.857-1.414 2.019.606 1.817.606 1.817s-.16 1.13-1.616 1.01c-3.277-.272-1.212-6.06 3.03-5.252 4.242.809 2.9 9.29 2.9 9.29s.736-4.038 3.16-5.25m27.882 0s6.262-2.827 5.656 3.232c-.606 6.06-3.636 2.02-3.636 2.02s3.273-2.828.83-3.434c-2.446-.606-9.314 9.696-3.456 12.322 0 0-3.232 2.019-4.747-2.222 0 0-3.333-1.818-3.939-.202 0 0-5.764-3.686-.808-4.445 3.173-.485 1.01 1.456 1.01 1.456l-.927.282s4.967.888 5.17-4.767c.201-5.656-1.819-7.878-3.233-5.857-1.414 2.019.606 1.817.606 1.817s-.16 1.13-1.616 1.01c-3.277-.272-1.212-6.06 3.03-5.252 4.242.809 2.9 9.29 2.9 9.29s.736-4.038 3.16-5.25m27.883 0s6.262-2.827 5.656 3.232c-.606 6.06-3.636 2.02-3.636 2.02s3.273-2.828.829-3.434c-2.445-.606-9.313 9.696-3.455 12.322 0 0-3.232 2.019-4.747-2.222 0 0-3.333-1.818-3.94-.202 0 0-5.763-3.686-.807-4.445 3.173-.485 1.01 1.456 1.01 1.456l-.927.282s4.967.888 5.169-4.767c.202-5.656-1.818-7.878-3.232-5.857-1.414 2.019.606 1.817.606 1.817s-.16 1.13-1.616 1.01c-3.277-.272-1.212-6.06 3.03-5.252 4.242.809 2.899 9.29 2.899 9.29s.737-4.038 3.16-5.25"/></g><path d="M538.75 688h92.5V495h-92.5z" fill="#f39c11"/><g fill="#f1c40f"><path d="M556.129 546.028h12v-2.4h-12zm-15.4 103.851h12v-2.4h-12zm15.4-14.638h12v-2.4h-12zm-15.4 19.438h12v-2.4h-12zm15.4-14.638h12v-2.4h-12zm-15.4 19.438h12v-2.4h-12zm15.4-14.638h12v-2.4h-12zm-15.4-54.322h12v-2.4h-12zm15.4-14.638h12v-2.4h-12zm-15.4-15.215h12v-2.4h-12zm0 34.652h12v-2.4h-12zm15.4-14.637h12v-2.4h-12zm-15.4-15.215h12v-2.4h-12zm15.4-14.638h12v-2.4h-12zm-15.4 49.291h12v-2.4h-12zm15.4-14.638h12v-2.4h-12zm-15.4-15.215h12v-2.4h-12zm15.4-14.638h12v-2.4h-12zm-15.4 64.533h12v-2.4h-12zm15.4-14.638h12v-2.4h-12zm-15.4 19.438h12v-2.4h-12zm15.4-14.638h12v-2.4h-12zm-15.4 19.438h12v-2.4h-12zm15.4-14.638h12v-2.4h-12zm0 44.388h2.4v-12h-2.4zm-15.4-103.883h2.4v-12h-2.4zm20.2 103.883h2.4v-12h-2.4zm-15.4-103.883h2.4v-12h-2.4zm20.2 103.883h2.4v-12h-2.4zm-15.4-103.883h2.4v-12h-2.4zm-9.6 89.181h2.4v-12h-2.4zm15.4-14.638h2.4v-12h-2.4zm-10.6 14.638h2.4v-12h-2.4zm15.4-14.638h2.4v-12h-2.4zm-10.6 14.638h2.4v-12h-2.4zm15.4-14.638h2.4v-12h-2.4zm-25-44.722h2.4v-12h-2.4zm15.4-14.638h2.4v-12h-2.4zm-10.6 14.638h2.4v-12h-2.4zm15.4-14.638h2.4v-12h-2.4zm-10.6 14.638h2.4v-12h-2.4zm15.4-14.638h2.4v-12h-2.4zm-25 44.28h2.4v-12h-2.4zm15.4-14.638h2.4v-12h-2.4zm-10.6 14.638h2.4v-12h-2.4zm15.4-14.638h2.4v-12h-2.4zm-10.6 14.638h2.4v-12h-2.4zm15.4-14.638h2.4v-12h-2.4zm21.118-54.39h12v-2.4h-12zm-15.4 103.851h12v-2.4h-12zm15.4-14.638h12v-2.4h-12zm-15.4 19.437h12v-2.4h-12zm15.4-14.637h12v-2.4h-12zm-15.4 19.438h12v-2.4h-12zm15.4-14.638h12v-2.4h-12zm-15.4-54.322h12v-2.4h-12zm15.4-14.638h12v-2.4h-12zm-15.4-15.215h12v-2.4h-12zm0 34.653h12v-2.4h-12zm15.4-14.639h12v-2.4h-12zm-15.4-15.214h12v-2.4h-12zm15.4-14.638h12v-2.4h-12zm-15.4 49.291h12v-2.4h-12zm15.4-14.638h12v-2.4h-12zm-15.4-15.215h12v-2.4h-12zm15.4-14.638h12v-2.4h-12zm-15.4 64.532h12v-2.4h-12zm15.4-14.637h12v-2.4h-12zm-15.4 19.438h12v-2.4h-12zm15.4-14.638h12v-2.4h-12zm-15.4 19.438h12v-2.4h-12zm15.4-14.638h12v-2.4h-12zm0 44.388h2.4v-12h-2.4zm-15.4-103.883h2.4v-12h-2.4zm20.2 103.883h2.4v-12h-2.4zm-15.4-103.883h2.4v-12h-2.4zm20.2 103.883h2.4v-12h-2.4zm-15.4-103.883h2.4v-12h-2.4zm-9.6 89.181h2.4v-12h-2.4zm15.4-14.638h2.4v-12h-2.4zm-10.6 14.638h2.4v-12h-2.4zm15.4-14.638h2.4v-12h-2.4zm-10.6 14.638h2.4v-12h-2.4zm15.4-14.638h2.4v-12h-2.4zm-25-44.722h2.4v-12h-2.4zm15.4-14.638h2.4v-12h-2.4zm-10.6 14.638h2.4v-12h-2.4zm15.4-14.638h2.4v-12h-2.4zm-10.6 14.638h2.4v-12h-2.4zm15.4-14.638h2.4v-12h-2.4zm-25 44.279h2.4v-12h-2.4zm15.4-14.637h2.4v-12h-2.4zm-10.6 14.637h2.4v-12h-2.4zm15.4-14.637h2.4v-12h-2.4zm-10.6 14.637h2.4v-12h-2.4zm15.4-14.637h2.4v-12h-2.4zm20.824-54.46h12v-2.4h-12zm-15.4 103.851h12v-2.4h-12zm15.4-14.638h12v-2.4h-12zm-15.4 19.438h12v-2.4h-12zm15.4-14.638h12v-2.4h-12zm-15.4 19.438h12v-2.4h-12zm15.4-14.638h12v-2.4h-12zm-15.4-54.322h12v-2.4h-12zm15.4-14.638h12v-2.4h-12zm-15.4-15.215h12v-2.4h-12zm0 34.652h12v-2.4h-12zm15.4-14.637h12v-2.4h-12zm-15.4-15.215h12v-2.4h-12zm15.4-14.638h12v-2.4h-12zm-15.4 49.291h12v-2.4h-12zm15.4-14.638h12v-2.4h-12zm-15.4-15.215h12v-2.4h-12zm15.4-14.638h12v-2.4h-12zm-15.4 64.533h12v-2.4h-12zm15.4-14.638h12v-2.4h-12zm-15.4 19.438h12v-2.4h-12zm15.4-14.638h12v-2.4h-12zm-15.4 19.438h12v-2.4h-12zm15.4-14.638h12v-2.4h-12zm0 44.388h2.4v-12h-2.4zm-15.4-103.883h2.4v-12h-2.4zm20.2 103.883h2.4v-12h-2.4zm-15.4-103.883h2.4v-12h-2.4zm20.2 103.883h2.4v-12h-2.4zm-15.4-103.883h2.4v-12h-2.4zm-9.6 89.181h2.4v-12h-2.4zm15.4-14.638h2.4v-12h-2.4zm-10.6 14.638h2.4v-12h-2.4zm15.4-14.638h2.4v-12h-2.4zm-10.6 14.638h2.4v-12h-2.4zm15.4-14.638h2.4v-12h-2.4zm-25-44.722h2.4v-12h-2.4zm15.4-14.638h2.4v-12h-2.4zm-10.6 14.638h2.4v-12h-2.4zm15.4-14.638h2.4v-12h-2.4zm-10.6 14.638h2.4v-12h-2.4zm15.4-14.638h2.4v-12h-2.4zm-25 44.28h2.4v-12h-2.4zm15.4-14.638h2.4v-12h-2.4zm-10.6 14.638h2.4v-12h-2.4zm15.4-14.638h2.4v-12h-2.4zm-10.6 14.638h2.4v-12h-2.4zm15.4-14.638h2.4v-12h-2.4zm-86.142-69.201h12v-2.4h-12zm15.4-14.637h12v-2.4h-12zm-15.4-15.215h12V499h-12zm0 34.652h12v-2.4h-12zm15.4-14.637h12v-2.4h-12zm-15.4-15.215h12v-2.4h-12zm0 34.653h12v-2.4h-12zm15.4-14.638h12v-2.4h-12zM540.729 511h12v-2.4h-12zm0 15.183h2.4v-12h-2.4zm15.4-14.638h2.4v-12h-2.4zm-10.6 14.638h2.4v-12h-2.4zm15.4-14.638h2.4v-12h-2.4zm-10.6 14.638h2.4v-12h-2.4zm15.4-14.638h2.4v-12h-2.4zm-9.6 29.642h2.4v-12h-2.4zm4.8 0h2.4v-12h-2.4zm4.8 0h2.4v-12h-2.4zm5.718-9.899h12v-2.4h-12zm15.4-14.638h12v-2.4h-12zm-15.4-15.215h12v-2.4h-12zm0 34.653h12v-2.4h-12zm15.4-14.638h12v-2.4h-12zm-15.4-15.215h12v-2.4h-12zm0 34.653h12v-2.4h-12zm15.4-14.638h12v-2.4h-12zm-15.4-15.215h12v-2.4h-12zm0 15.183h2.4v-12h-2.4zm15.4-14.638h2.4v-12h-2.4zm-10.6 14.638h2.4v-12h-2.4zm15.4-14.638h2.4v-12h-2.4zm-10.6 14.638h2.4v-12h-2.4zm15.4-14.638h2.4v-12h-2.4zm-9.6 29.642h2.4v-12h-2.4zm4.8 0h2.4v-12h-2.4zm4.8 0h2.4v-12h-2.4zm5.424-9.97h12v-2.4h-12zm15.4-14.637h12v-2.4h-12zm-15.4-15.215h12V499h-12zm0 34.652h12v-2.4h-12zm15.4-14.637h12v-2.4h-12zm-15.4-15.215h12v-2.4h-12zm0 34.653h12v-2.4h-12zm15.4-14.638h12v-2.4h-12zM601.871 511h12v-2.4h-12zm0 15.183h2.4v-12h-2.4zm15.4-14.638h2.4v-12h-2.4zm-10.6 14.638h2.4v-12h-2.4zm15.4-14.638h2.4v-12h-2.4zm-10.6 14.638h2.4v-12h-2.4zm15.4-14.638h2.4v-12h-2.4zm-9.6 29.642h2.4v-12h-2.4zm4.8 0h2.4v-12h-2.4zm4.8 0h2.4v-12h-2.4zM538.75 683.896H585v-5h-46.25zm0-14.833H585v-5h-46.25z"/><path d="M585 668.896l-14.607 12.001-1.623-1.333 14.607-12.001z"/><path d="M570.393 667.563l14.607 12-1.623 1.335-14.607-12.002z"/><path d="M569.99 668.896l-14.606 12.001-1.623-1.334 14.606-12z"/><path d="M555.383 667.563l14.607 12-1.623 1.335-14.607-12.002z"/><path d="M554.98 669.23l-14.607 12.002-1.622-1.333 14.606-12.001z"/><path d="M540.373 667.898l14.606 12-1.622 1.334-14.607-12.002zM585 683.896h46.25v-5H585zm0-14.833h46.25v-5H585z"/><path d="M631.25 668.896l-14.607 12.001-1.623-1.333 14.607-12.001z"/><path d="M616.643 667.563l14.607 12-1.623 1.335-14.607-12.002z"/><path d="M616.24 668.896l-14.606 12.001-1.623-1.334 14.606-12z"/><path d="M601.633 667.563l14.607 12-1.623 1.335-14.607-12.002z"/><path d="M601.23 669.23l-14.607 12.002-1.622-1.333 14.606-12.001z"/><path d="M586.623 667.898l14.606 12-1.622 1.334L585 669.23z"/></g><g><path d="M585 295.327v-82.5c-8.878 0-17.117 3.51-23.965 9.495-3.081-2.707-10.035-.996-16.035 2.504-8.349 4.87-9 5.271-13 10.634-.179.24.03.59.045.885-10.803 2.913-19.103 14.681-20.171 29.204-13.228 5.498-23.649 19.09-27.849 36.277h51.433c8.132-4.215 22.129-7 38.042-7 3.973 0 7.826.175 11.5.501" fill="#f1c40f"/><path d="M532 272.74a4 4 0 1 0 0-8 4 4 0 0 0 0 8" fill="#27ae61"/><path d="M546 280.74a4 4 0 1 0 0-8 4 4 0 0 0 0 8" fill="#c1392b"/><path d="M559 248.74a4 4 0 1 0 0-8 4 4 0 0 0 0 8" fill="#27ae61"/><path d="M567 265.49a4 4 0 1 0 0-8 4 4 0 0 0 0 8" fill="#c1392b"/><path d="M585 288v13.826H484.025S552 288 585 288" fill="#f39c11"/><path d="M585 295.327v-82.5c8.878 0 17.117 3.51 23.965 9.495 3.081-2.707 10.035-.996 16.035 2.504 8.349 4.87 9 5.271 13 10.634.179.24-.03.59-.045.885 10.803 2.913 19.103 14.681 20.171 29.204 13.228 5.498 23.649 19.09 27.849 36.277h-51.433c-8.132-4.215-22.129-7-38.042-7-3.973 0-7.826.175-11.5.501" fill="#f1c40f"/><path d="M638 272.74a4 4 0 1 1 0-8 4 4 0 0 1 0 8" fill="#27ae61"/><path d="M624 280.74a4 4 0 1 1 0-8 4 4 0 0 1 0 8" fill="#c1392b"/><path d="M611 248.74a4 4 0 1 1 0-8 4 4 0 0 1 0 8" fill="#27ae61"/><path d="M603 265.49a4 4 0 1 1 0-8 4 4 0 0 1 0 8" fill="#c1392b"/><path d="M585 288v13.826h100.975S618 288 585 288" fill="#f39c11"/><path d="M585 478s-18-10.242-19-25.121L554 464s11 29 31 29z" fill="#f1c40f"/><path d="M578 485a2 2 0 1 0 .001-3.999A2 2 0 0 0 578 485" fill="#27ae61"/><path d="M570 478a2 2 0 1 0 .001-3.999A2 2 0 0 0 570 478" fill="#c1392b"/><path d="M563 469a2 2 0 1 0 .001-3.999A2 2 0 0 0 563 469" fill="#27ae61"/><path d="M585 478s18-10.242 19-25.121L616 464s-11 29-31 29z" fill="#f1c40f"/><path d="M592 485a2 2 0 1 1-.001-3.999A2 2 0 0 1 592 485" fill="#c1392b"/><path d="M600 478a2 2 0 1 1-.001-3.999A2 2 0 0 1 600 478" fill="#27ae61"/><path d="M607 469a2 2 0 1 1-.001-3.999A2 2 0 0 1 607 469" fill="#c1392b"/><g fill="#2d3e50"><path d="M639.393 744.059s21.886 1.953 21.886 11.717v5.858h-68.346v-17.575zm-108.785 0s-21.886 1.953-21.886 11.717v5.858h68.346v-17.575z"/><path d="M639.018 744.059s21.886 1.953 21.886 11.717v5.858h-68.346v-17.575zm-108.035 0s-21.886 1.953-21.886 11.717v5.858h68.346v-17.575z"/></g></g><path d="M532.375 757h45.068v-12.941h-45.068zm60.182-.059h45.068V744h-45.068z" fill="#f9db9d"/></g></svg>