<svg height="800" width="800" xmlns="http://www.w3.org/2000/svg"><g fill="none" fill-rule="evenodd"><path d="M214 229.044h2v-24.245h-2z" fill="#f39c11"/><path d="M215 182.044l12.798 12.798L215 207.64l-12.798-12.798z" fill="#f1c40f"/><path d="M319.702 299.748l-23.419 6.275-.517-1.932 23.418-6.275z" fill="#f39c11"/><path d="M341.423 292.893l-9.05 15.674-15.674-9.05 9.05-15.674z" fill="#f1c40f"/><path d="M310.2 271.72l-20.998 12.123-1-1.732 20.997-12.122z" fill="#f39c11"/><path d="M329.406 259.477l-4.684 17.483-17.483-4.685 4.684-17.483z" fill="#f1c40f"/><path d="M296.605 246.26l-15.584 18.573-1.532-1.286 15.584-18.573z" fill="#f39c11"/><path d="M310.466 228.186l1.577 18.03-18.03 1.578-1.577-18.03z" fill="#f1c40f"/><path d="M246.655 213.581l-6.275 23.42-1.932-.519 6.275-23.419z" fill="#f39c11"/><path d="M251.579 191.343l9.05 15.674-15.675 9.05-9.05-15.674z" fill="#f1c40f"/><path d="M274.483 225.513L262.36 246.51l-1.732-1 12.122-20.997z" fill="#f39c11"/><path d="M284.994 205.306l4.684 17.483-17.482 4.684-4.685-17.482z" fill="#f1c40f"/><path d="M110.298 299.748l23.419 6.275.517-1.932-23.418-6.275z" fill="#f39c11"/><path d="M88.577 292.893l9.05 15.674 15.674-9.05-9.05-15.674z" fill="#f1c40f"/><path d="M119.8 271.72l20.998 12.123 1-1.732-20.997-12.122z" fill="#f39c11"/><path d="M100.594 259.477l4.684 17.483 17.483-4.685-4.684-17.483z" fill="#f1c40f"/><path d="M133.395 246.26l15.584 18.573 1.532-1.286-15.584-18.573z" fill="#f39c11"/><path d="M119.534 228.186l-1.577 18.03 18.03 1.578 1.577-18.03z" fill="#f1c40f"/><path d="M183.345 213.581l6.275 23.42 1.932-.519-6.275-23.419z" fill="#f39c11"/><path d="M178.421 191.343l-9.05 15.674 15.675 9.05 9.05-15.674z" fill="#f1c40f"/><path d="M155.517 225.513l12.122 20.997 1.732-1-12.122-20.997z" fill="#f39c11"/><path d="M145.006 205.306l-4.684 17.483 17.482 4.684 4.685-17.482z" fill="#f1c40f"/><path d="M215 409.258c53.572 0 97-43.039 97-96.129S268.571 229 215 229c-53.572 0-97 31.038-97 84.13 0 53.09 43.428 96.128 97 96.128" fill="#f1c40f"/><g fill="#f9db9d"><path d="M172.537 487.795s0 29.633-2.692 40.408c-2.693 10.776-10.77 78.122-5.385 83.51s10.77 0 13.462 0 13.462-123.918 13.462-123.918zm84.926 0s0 29.633 2.692 40.408c2.693 10.776 10.77 78.122 5.385 83.51s-10.77 0-13.462 0-13.462-123.918-13.462-123.918zm-70.711 241.83l1.018 17.534-.018.003-3 3c-1 1 0 2 6 1 5.055-.843 10.094-2.477 11.562-2.973l.438-.027s.039-6.708.235-18.537z"/></g><path d="M186.83 749.1s-24.986 11.062-11.118 11.062h24.927c3.307 0 2.153-12.123 2.153-12.123z" fill="#2d3e50"/><path d="M243.248 729.625l-1.018 17.534.018.003 3 3c1 1 0 2-6 1-5.055-.843-10.094-2.477-11.562-2.973l-.438-.027s-.039-6.708-.235-18.537z" fill="#f9db9d"/><path d="M243.17 749.1s24.986 11.062 11.118 11.062H229.36c-3.307 0-2.153-12.123-2.153-12.123z" fill="#2d3e50"/><path d="M253.803 600.508L215 601.575l-38.802-1.067-.857 140.093H254.66z" fill="#f1c40f"/><path d="M175.574 702.38l38.22 38.22H231.98l-56.294-56.293zm.226-36.64l74.858 74.86h4.002l-.088-14.268-78.663-78.663zm.223-36.636l78.435 78.434-.113-18.296-78.21-78.212zm8.495-28.367l69.712 69.712-.11-18.297-50.902-50.901zm37.508.645l31.978 31.978-.112-18.297-14.168-14.168zm-46.565 119.563l-.11 18.076 1.58 1.58h18.185z" fill="#e67f22"/><path d="M215 454.153c53.572 0 97-47.79 97-106.74S268.571 254 215 254c-53.572 0-97 34.464-97 93.414s43.428 106.739 97 106.739" fill="#2d3e50"/><path d="M215 400c53.572 0 97-16.288 97-72.08S268.571 237 215 237c-53.572 0-97 35.128-97 90.92S161.428 400 215 400" fill="#2d3e50"/><g fill="#f9db9d"><path d="M138.266 387.185c6.69 0 12.116-5.427 12.116-12.122s-5.425-12.123-12.116-12.123-12.116 5.428-12.116 12.123 5.425 12.122 12.116 12.122m153.468 0c6.691 0 12.116-5.427 12.116-12.122s-5.425-12.123-12.116-12.123-12.116 5.428-12.116 12.123 5.425 12.122 12.116 12.122"/></g><path d="M204.23 463.202h21.539v-18.099H204.23z" fill="#f9db9d"/><path d="M215 451.838c44.61 0 80.773-43.846 80.773-104.922S259.61 255 215 255s-80.773 30.84-80.773 91.916S170.39 451.838 215 451.838" fill="#f9db9d"/><g fill="#2d3e50"><path d="M177.556 371.281a8.193 8.193 0 0 0 8.19-8.195c0-4.527-3.666-8.196-8.19-8.196s-8.191 3.67-8.191 8.196a8.193 8.193 0 0 0 8.19 8.195m74.89 0a8.193 8.193 0 0 0 8.191-8.195c0-4.527-3.667-8.196-8.19-8.196s-8.192 3.67-8.192 8.196a8.193 8.193 0 0 0 8.191 8.195m-62.188 37.977c-.257.767-.415 1.553-.415 2.36 0 7.385 11.264 13.372 25.158 13.372 13.895 0 25.158-5.987 25.158-13.372 0-.807-.157-1.593-.415-2.36-2.1 6.258-12.366 11.013-24.743 11.013s-22.643-4.755-24.743-11.013"/><path d="M214.993 250c-69.468 2.459-88.202 52.625-81.594 113.451 0 0 .531-41.623 43.907-65.582 0 0 9.68-6.231 37.687-7.05s37.687 7.05 37.687 7.05c43.376 23.959 43.907 65.582 43.907 65.582 6.608-60.826-12.126-110.992-81.594-113.451"/><path d="M215 308.567c32.063 0 58.055-6.43 58.055-14.363 0-7.932-25.992-14.363-58.055-14.363s-58.055 6.431-58.055 14.363c0 7.933 25.992 14.363 58.055 14.363"/></g><path d="M194 454.153L187.93 479 215 490l-.14-35.847z" fill="#f9db9d"/><path d="M173 481s-10.14 91-12.14 101l20 4 13.392-79.838v-21z" fill="#ecf0f1"/><path d="M181.752 483.162S183.819 504 183.819 509s-11.882 62-8.959 76l12.892-12.838 4.688-89h-9.688" fill="#bec3c7"/><path d="M215 488l-.125-.064c.074-.472.125-.949.125-1.436 0-6.352-6.492-11.5-14.5-11.5-.796 0-1.572.064-2.333.162-.056-.056-.111-.106-.167-.162-9-9-1-20.848-1-20.848-5.371 0-15.632.485-16.501.848-3.562 1.174-7.823 5.351-7.823 13.938v18.856h10.216c2.812 12.633 4.4 19.467 1.7 29.549-.394 1.473-1.601 8.654-1.601 8.654-2.075 12.09-7.542 50.561-10.141 78.003H215z" fill="#ecf0f1"/><path d="M236 454.153L242.07 479 215 490l.14-35.847z" fill="#f9db9d"/><path d="M257 481s10.14 91 12.14 101l-20 4-13.392-79.838v-21z" fill="#ecf0f1"/><path d="M248.248 483.162S246.181 504 246.181 509s11.882 62 8.959 76l-12.892-12.838-4.688-89h9.688" fill="#bec3c7"/><path d="M215 488l.125-.064A9.245 9.245 0 0 1 215 486.5c0-6.352 6.492-11.5 14.5-11.5.796 0 1.572.064 2.333.162.056-.056.111-.106.167-.162 9-9 1-20.848 1-20.848 5.371 0 15.632.485 16.501.848 3.562 1.174 7.822 5.351 7.822 13.938v18.856h-10.215c-2.812 12.633-4.4 19.467-1.7 29.549.394 1.473 1.601 8.654 1.601 8.654 2.075 12.09 7.542 50.561 10.141 78.003H215z" fill="#ecf0f1"/><g fill="#2d3e50"><path d="M639.393 744.059s21.886 1.953 21.886 11.717v5.858h-68.346v-17.575zm-108.785 0s-21.886 1.953-21.886 11.717v5.858h68.346v-17.575z"/><path d="M639.018 744.059s21.886 1.953 21.886 11.717v5.858h-68.346v-17.575zm-108.035 0s-21.886 1.953-21.886 11.717v5.858h68.346v-17.575z"/></g><path d="M632.27 576.448L585 577.724l-47.27-1.276L536.686 744H633.315z" fill="#f1c40f"/><path d="M536.97 698.287L583.533 744h22.152l-68.578-67.328zm.273-43.819L628.439 744h4.877l-.108-17.066-95.83-94.082zm.274-43.82l95.552 93.807-.137-21.88-95.281-93.544zm10.35-33.927l84.925 83.376-.136-21.883-62.01-60.879zm45.692.771l38.957 38.244-.136-21.882-17.261-16.944zm-56.727 143l-.133 21.616 1.925 1.891h22.153z" fill="#e67f22"/><path d="M570.84 461.88h28.32v-23.797h-28.32z" fill="#f9db9d"/><g fill="#f9db9d"><path d="M585 465.422c7.82 0 14.16-1.586 14.16-3.542s-6.34-3.542-14.16-3.542-14.16 1.586-14.16 3.542 6.34 3.542 14.16 3.542m90.217-86.939c7.204 0 13.043-5.84 13.043-13.043 0-7.204-5.839-13.044-13.043-13.044s-13.043 5.84-13.043 13.044c0 7.203 5.839 13.043 13.043 13.043m-180.434 0c7.204 0 13.043-5.84 13.043-13.043 0-7.204-5.839-13.044-13.043-13.044s-13.043 5.84-13.043 13.044c0 7.203 5.839 13.043 13.043 13.043"/></g><path d="M585 405.678c52.827 0 108.457-29.678 92.108-97.304-8.906-36.84-39.281-76.24-92.108-76.24s-91.07 60.74-93.526 76.24C480.126 380 532.173 405.678 585 405.678" fill="#2d3e50"/><path d="M585 446.418c47.424 0 85.869-41.851 85.869-93.478 0-51.626-38.445-100-85.869-100s-85.869 48.374-85.869 100c0 51.627 38.445 93.478 85.869 93.478" fill="#f9db9d"/><path d="M549.477 362.099c4.346 0 7.869-3.525 7.869-7.873s-3.523-7.873-7.87-7.873-7.868 3.525-7.868 7.873 3.523 7.873 7.869 7.873m71.942 0c4.346 0 7.869-3.525 7.869-7.873s-3.523-7.873-7.87-7.873-7.868 3.525-7.868 7.873 3.523 7.873 7.869 7.873m-59.74 36.482c-.248.737-.4 1.492-.4 2.267 0 7.095 10.821 12.846 24.168 12.846 13.348 0 24.17-5.75 24.17-12.846 0-.775-.153-1.53-.4-2.267-2.018 6.012-11.88 10.58-23.77 10.58-11.889 0-21.75-4.568-23.769-10.58" fill="#2d3e50"/><path d="M639.748 480.019s4.348 56.522 6.522 67.391c2.174 10.87 6.521 56.522 0 63.043-6.522 6.522-26.087 2.174-28.261-15.217s-6.522-78.261-6.522-78.261v-36.956z" fill="#f9db9d"/><path d="M642.697 495.384l9.869 92.435-24.75 5.065-6.75-97.5z" fill="#ecf0f1"/><path d="M629.316 482.634L638 591l-7.4 1.884z" fill="#bec3c7"/><path d="M598.602 445.134l8.021 8.02c2.49-.135 5.248-.215 8.33-.215 26.541 0 27.744 42.678 27.744 42.678h-12.544L634.701 621h-43.7c-3.75 0-6-7-6-7V463z" fill="#ecf0f1"/><path d="M585 615h.25V465.001H585z" fill="#bec3c7"/><g><path d="M585 472.913a4 4 0 0 1 0 8zM585 516a4 4 0 0 0 0-8zm0 33.086a4 4 0 0 1 0 8zm.25 48.914a4 4 0 0 0 0-8z" fill="#f1c40f"/><path d="M530.252 480.019s-4.348 56.522-6.522 67.391c-2.174 10.87-6.52 56.522 0 63.043 6.522 6.522 26.087 2.174 28.261-15.217s6.522-78.261 6.522-78.261v-36.956z" fill="#f9db9d"/></g><path d="M527.303 495.384l-9.869 92.435 24.75 5.065 6.75-97.5z" fill="#ecf0f1"/><path d="M540.684 482.634L532 591l7.4 1.884z" fill="#bec3c7"/><path d="M571.398 445.134l-8.021 8.02a152.548 152.548 0 0 0-8.33-.215c-26.541 0-27.744 42.678-27.744 42.678h12.544L535.299 621h43.7c3.75 0 6-7 6-7V463z" fill="#ecf0f1"/><path d="M584.75 615h.25V465.001h-.25z" fill="#bec3c7"/><path d="M585 472.913a4 4 0 0 0 0 8zM585 516a4 4 0 0 1 0-8zm0 33.086a4 4 0 0 0 0 8zM584.75 598a4 4 0 0 1 0-8z" fill="#f1c40f"/><path d="M599 495h20v-1h-20z" fill="#bec3c7"/><g><path d="M682.5 322.297c0-53.848-43.652-97.5-97.5-97.5s-97.5 43.652-97.5 97.5a97.66 97.66 0 0 0 2.876 23.519L585 304l94.624 41.816a97.66 97.66 0 0 0 2.876-23.52" fill="#f1c40f"/><path d="M490 346s-3-16-2.5-25c0 0 52.5-26 72.5-26l23 10z" fill="#e67f22"/><path d="M682.5 327v-19.072C682.5 301 592.5 241 514 256c0 0-9 8.937-11.5 13.969z" fill="#f39c11"/><path d="M682.5 327s-82.5-67-180-57c0 0 174.5 74.631 176.5 75.815C681 347 682.5 333 682.5 327" fill="#e67f22"/><path d="M487.5 321s0-14 2.5-20c0 0 30-15.694 44-18 0 0 24 10 26 12 0 0-56 18-72.5 26" fill="#f39c11"/></g><g fill="#f9db9d"><path d="M532.375 757h45.068v-12.941h-45.068zm60.182-.059h45.068V744h-45.068z"/></g></g></svg>