<svg height="800" width="800" xmlns="http://www.w3.org/2000/svg"><g fill="none" fill-rule="evenodd"><path d="M570.84 461.88h28.32v-23.797h-28.32z" fill="#f9db9d"/><g fill="#f9db9d"><path d="M585 465.422c7.82 0 14.16-1.586 14.16-3.542s-6.34-3.542-14.16-3.542-14.16 1.586-14.16 3.542 6.34 3.542 14.16 3.542m90.217-86.939c7.204 0 13.043-5.84 13.043-13.043 0-7.204-5.839-13.044-13.043-13.044s-13.043 5.84-13.043 13.044c0 7.203 5.839 13.043 13.043 13.043m-180.434 0c7.204 0 13.043-5.84 13.043-13.043 0-7.204-5.839-13.044-13.043-13.044s-13.043 5.84-13.043 13.044c0 7.203 5.839 13.043 13.043 13.043"/></g><path d="M585 405.678c52.827 0 108.457-29.678 92.108-97.304-8.906-36.84-39.281-76.24-92.108-76.24s-91.07 60.74-93.526 76.24C480.126 380 532.173 405.678 585 405.678" fill="#2d3e50"/><path d="M585 446.418c47.424 0 85.869-41.851 85.869-93.478 0-51.626-38.445-100-85.869-100s-85.869 48.374-85.869 100c0 51.627 38.445 93.478 85.869 93.478" fill="#f9db9d"/><path d="M549.477 362.099c4.346 0 7.869-3.525 7.869-7.873s-3.523-7.873-7.87-7.873-7.868 3.525-7.868 7.873 3.523 7.873 7.869 7.873m71.942 0c4.346 0 7.869-3.525 7.869-7.873s-3.523-7.873-7.87-7.873-7.868 3.525-7.868 7.873 3.523 7.873 7.869 7.873m-59.74 36.482c-.248.737-.4 1.492-.4 2.267 0 7.095 10.821 12.846 24.168 12.846 13.348 0 24.17-5.75 24.17-12.846 0-.775-.153-1.53-.4-2.267-2.018 6.012-11.88 10.58-23.77 10.58-11.889 0-21.75-4.568-23.769-10.58" fill="#2d3e50"/><path d="M583.952 127.864l-97.183 97.183 97.183 97.183 97.183-97.183z" fill="#e84c3d"/><path d="M487.635 322.23h193.5v-97.183h-193.5z" fill="#e84c3d"/><g fill="#f1c40f"><path d="M645.052 309h9.333v-3.5h-9.333zm18.667 0h9.333v-3.5h-9.333zm-37.333 0h9.333v-3.5h-9.333zm-18.667 0h9.333v-3.5h-9.333zm-37.333 0h9.333v-3.5h-9.333zm18.666 0h9.333v-3.5h-9.333zm-37.333 0h9.333v-3.5h-9.333zm-18.667 0h9.333v-3.5h-9.333zm-37.333 0h9.333v-3.5h-9.333zm18.667 0h9.333v-3.5h-9.333z"/></g><g fill="#f1c40f"><path d="M512.146 296.28a3.396 3.396 0 1 0 0-6.792 3.396 3.396 0 0 0 0 6.792m53.208 0a3.396 3.396 0 1 0 0-6.792 3.396 3.396 0 0 0 0 6.792m-27.504-38.49a3.396 3.396 0 1 0 0-6.793 3.396 3.396 0 0 0 0 6.793m66.45 38.49a3.396 3.396 0 1 0 0-6.792 3.396 3.396 0 0 0 0 6.792m53.207 0a3.396 3.396 0 1 0 0-6.792 3.396 3.396 0 0 0 0 6.792m-27.503-38.49a3.396 3.396 0 1 0 0-6.793 3.396 3.396 0 0 0 0 6.793"/></g><path d="M585 613.44v-25.622h-45.601v158.028h37.669l4.866-119.963S578.486 613.44 585 613.44" fill="#f9db9d"/><path d="M530.608 744.059s-21.886 1.953-21.886 11.717v5.858h68.346v-17.575z" fill="#2d3e50"/><path d="M530.983 744.059s-21.886 1.953-21.886 11.717v5.858h68.346v-17.575z" fill="#2d3e50"/><path d="M538.912 740V578.637L585 561v179z" fill="#49a2df"/><path d="M538.75 727.261h22.318V577.399H538.75z" fill="#3598db"/><path d="M548.29 712.885l9.378 8.07-9.378 8.069-9.378-8.069zm0-32.28l9.378 8.07-9.378 8.07-9.378-8.07zm0-32.279l9.378 8.07-9.378 8.07-9.378-8.07zm-.162-32.279l9.378 8.07-9.378 8.07-9.378-8.07zm.162 80.698l9.378 8.07-9.378 8.07-9.378-8.07zm0-32.279l9.378 8.07-9.378 8.07-9.378-8.07zm0-32.28l9.378 8.07-9.378 8.07-9.378-8.07zm0-32.278l9.378 8.07-9.378 8.069-9.378-8.07z" fill="#49a2df"/><path d="M563.884 695.515h16.863v-2.434h-16.863zm0 4.867h16.863v-2.434h-16.863zm0 4.868h16.863v-2.434h-16.863zm0 4.869h16.863v-2.434h-16.863zm0 4.302h16.863v-2.434h-16.863zm0 4.868h16.863v-2.434h-16.863zm0 4.868h16.863v-2.434h-16.863zm0 4.868h16.863v-2.434h-16.863zm-.498-71.501h16.863v-2.434h-16.863zm0 4.868h16.863v-2.434h-16.863zm0 4.868h16.863v-2.434h-16.863zm0 4.868h16.863v-2.434h-16.863zm0 4.303h16.863v-2.434h-16.863zm0 4.868h16.863v-2.434h-16.863zm0 4.867h16.863v-2.434h-16.863zm0 4.869h16.863v-2.434h-16.863zm.118-71.093h16.863v-2.434h-16.863zm0 4.868h16.863v-2.434h-16.863zm0 4.868h16.863v-2.434h-16.863zm0 4.868h16.863v-2.434h-16.863zm0 4.302h16.863v-2.434h-16.863zm0 4.868h16.863v-2.434h-16.863zm0 4.868h16.863v-2.434h-16.863zm0 4.868h16.863v-2.434h-16.863z" fill="#3598db"/><path d="M548.128 583.33l9.378 8.07-9.378 8.07-9.378-8.07z" fill="#49a2df"/><path d="M563.386 586.833h16.863v-2.434h-16.863zm0 4.869h16.863v-2.434h-16.863zm0 4.868h16.863v-2.434h-16.863zm0 4.867h16.863v-2.434h-16.863zm0 4.303h16.863v-2.434h-16.863zm0 4.868h16.863v-2.434h-16.863zm0 4.868h16.863v-2.434h-16.863zm0 4.868h16.863v-2.434h-16.863z" fill="#3598db"/><path d="M569 448s-6 10-6 9 22 46 22 46v-37.578z" fill="#ecf0f1"/><path d="M530.252 480.019s-4.348 56.521-6.522 67.391-6.52 56.522 0 63.043c6.522 6.522 26.087 2.174 28.261-15.217s6.522-78.261 6.522-78.261v-36.956z" fill="#f9db9d"/><path d="M519 583.884L517.434 594l23.25 3L543 586z" fill="#ecf0f1"/><path d="M527.303 495.384l-9.869 92.435 24.75 5.065 6.75-97.5z" fill="#95a5a5"/><path d="M540.684 482.634L529.3 590l10.1 2.884z" fill="#7e8c8d"/><path d="M567 447l-3.623 6.154a153.633 153.633 0 0 0-8.33-.215c-26.541 0-27.744 42.678-27.744 42.678h12.543l-4.547 127.375s40.635.157 44.385.157 5.316-6 5.316-6V502.833z" fill="#95a5a5"/><path d="M560 456l-10 14 12 5-3.487 14L584 504l-23-16 2-14-9-5z" fill="#7e8c8d"/><path d="M585 613.44v-25.622h45.601v158.028h-37.669l-4.866-119.963s3.448-12.444-3.066-12.444" fill="#f9db9d"/><g fill="#2d3e50"><path d="M639.392 744.059s21.886 1.953 21.886 11.717v5.858h-68.346v-17.575z"/><path d="M639.017 744.059s21.886 1.953 21.886 11.717v5.858h-68.346v-17.575z"/></g><path d="M631.088 740V578.637L585 561v179z" fill="#49a2df"/><path d="M608.932 727.261h22.318V577.399h-22.318z" fill="#3598db"/><path d="M621.71 712.885l-9.378 8.07 9.378 8.069 9.378-8.069zm0-32.28l-9.378 8.07 9.378 8.07 9.378-8.07zm0-32.279l-9.378 8.07 9.378 8.07 9.378-8.07zm.162-32.279l-9.378 8.07 9.378 8.07 9.378-8.07zm-.162 80.698l-9.378 8.07 9.378 8.07 9.378-8.07zm0-32.279l-9.378 8.07 9.378 8.07 9.378-8.07zm0-32.28l-9.378 8.07 9.378 8.07 9.378-8.07zm0-32.278l-9.378 8.07 9.378 8.069 9.378-8.07z" fill="#49a2df"/><path d="M589.253 695.515h16.863v-2.434h-16.863zm0 4.867h16.863v-2.434h-16.863zm0 4.868h16.863v-2.434h-16.863zm0 4.869h16.863v-2.434h-16.863zm0 4.302h16.863v-2.434h-16.863zm0 4.868h16.863v-2.434h-16.863zm0 4.868h16.863v-2.434h-16.863zm0 4.868h16.863v-2.434h-16.863zm.498-71.501h16.863v-2.434h-16.863zm0 4.868h16.863v-2.434h-16.863zm0 4.868h16.863v-2.434h-16.863zm0 4.868h16.863v-2.434h-16.863zm0 4.303h16.863v-2.434h-16.863zm0 4.868h16.863v-2.434h-16.863zm0 4.867h16.863v-2.434h-16.863zm0 4.869h16.863v-2.434h-16.863zm-.118-71.093h16.863v-2.434h-16.863zm0 4.868h16.863v-2.434h-16.863zm0 4.868h16.863v-2.434h-16.863zm0 4.868h16.863v-2.434h-16.863zm0 4.302h16.863v-2.434h-16.863zm0 4.868h16.863v-2.434h-16.863zm0 4.868h16.863v-2.434h-16.863zm0 4.868h16.863v-2.434h-16.863z" fill="#3598db"/><path d="M621.872 583.33l-9.378 8.07 9.378 8.07 9.378-8.07z" fill="#49a2df"/><path d="M589.751 586.833h16.863v-2.434h-16.863zm0 4.869h16.863v-2.434h-16.863zm0 4.868h16.863v-2.434h-16.863zm0 4.867h16.863v-2.434h-16.863zm0 4.303h16.863v-2.434h-16.863zm0 4.868h16.863v-2.434h-16.863zm0 4.868h16.863v-2.434h-16.863zm0 4.868h16.863v-2.434h-16.863z" fill="#3598db"/><path d="M601 448s6 10 6 9-22 46-22 46v-37.578z" fill="#ecf0f1"/><path d="M639.748 480.019s4.348 56.521 6.522 67.391 6.52 56.522 0 63.043c-6.522 6.522-26.087 2.174-28.261-15.217s-6.522-78.261-6.522-78.261v-36.956z" fill="#f9db9d"/><path d="M651 583.884L652.566 594l-23.25 3L627 586z" fill="#ecf0f1"/><path d="M642.697 495.384l9.869 92.435-24.75 5.065-6.75-97.5z" fill="#95a5a5"/><path d="M629.316 482.634L640.7 590l-10.1 2.884z" fill="#7e8c8d"/><path d="M603 447l3.623 6.154c2.489-.135 5.248-.215 8.33-.215 26.541 0 27.744 42.678 27.744 42.678h-12.543l4.547 127.375s-40.635.157-44.385.157-5.316-6-5.316-6V502.833z" fill="#95a5a5"/><path d="M610 456l10 14-12 5 3.487 14L586 504l23-16-2-14 9-5zm-25.5 162h1.001V504H584.5zm14.639-24h24v-1h-24zm-52.278.5h24v-1h-24z" fill="#7e8c8d"/><path d="M186.752 729.625l1.018 17.534-.018.003-3 3c-1 1 0 2 6 1 5.055-.843 10.094-2.477 11.562-2.973l.438-.027s.039-6.708.235-18.537z" fill="#f9db9d"/><path d="M186.83 749.1s-24.986 11.062-11.118 11.062h24.927c3.307 0 2.153-12.123 2.153-12.123z" fill="#2d3e50"/><path d="M172.537 487.795s0 29.633-2.692 40.408c-2.693 10.776-10.77 78.122-5.385 83.51s10.77 0 13.462 0 13.462-123.918 13.462-123.918z" fill="#f9db9d"/><path d="M215 740.6V579.239L176.197 578l-.856 162.6z" fill="#49a2df"/><path d="M195.795 727.862H215V578h-19.205z" fill="#3598db"/><path d="M206.79 713.486l-8.07 8.07 8.07 8.069 8.07-8.07zm0-32.28l-8.07 8.07 8.07 8.07 8.07-8.07zm0-32.279l-8.07 8.07 8.07 8.069 8.07-8.069zm.14-32.28l-8.07 8.07 8.07 8.07 8.07-8.07zm-.14 80.699l-8.07 8.07 8.07 8.069 8.07-8.07zm0-32.28l-8.07 8.07 8.07 8.07 8.07-8.07zm0-32.279l-8.07 8.07 8.07 8.07 8.07-8.07zm0-32.279l-8.07 8.07 8.07 8.07 8.07-8.07z" fill="#49a2df"/><path d="M178.86 696.115h14.511v-2.434H178.86zm0 4.868h14.511v-2.434H178.86zm0 4.868h14.511v-2.434H178.86zm0 4.868h14.511v-2.434H178.86zm0 4.302h14.511v-2.434H178.86zm0 4.869h14.511v-2.434H178.86zm0 4.867h14.511v-2.434H178.86zm0 4.868h14.511v-2.434H178.86zm.43-71.5h14.511v-2.434H179.29zm0 4.868h14.511v-2.434H179.29zm0 4.868h14.511v-2.434H179.29zm0 4.868h14.511v-2.434H179.29zm0 4.302h14.511v-2.434H179.29zm0 4.868h14.511v-2.434H179.29zm0 4.868h14.511v-2.434H179.29zm0 4.868h14.511v-2.434H179.29zm-.102-71.093h14.511v-2.434h-14.511zm0 4.869h14.511v-2.434h-14.511zm0 4.867h14.511v-2.434h-14.511zm0 4.868h14.511v-2.434h-14.511zm0 4.303h14.511v-2.434h-14.511zm0 4.868h14.511v-2.434h-14.511zm0 4.868h14.511v-2.434h-14.511zm0 4.868h14.511v-2.434h-14.511z" fill="#3598db"/><path d="M206.93 583.93l-8.07 8.07 8.07 8.07L215 592z" fill="#49a2df"/><path d="M179.29 587.434h14.511V585H179.29zm0 4.868h14.511v-2.434H179.29zm0 4.868h14.511v-2.434H179.29zm0 4.868h14.511v-2.434H179.29zm0 4.303h14.511v-2.434H179.29zm0 4.867h14.511v-2.434H179.29zm0 4.869h14.511v-2.434H179.29zm0 4.868h14.511v-2.434H179.29z" fill="#3598db"/><path d="M196.867 478.806h17.993v-24.654h-17.993z" fill="#f9db9d"/><path d="M202.5 454.153c-5.372 0-21.132.484-22 .847-3.563 1.174-5.657 5.628-7.824 13.938C168.75 484 168.75 489 168.75 489l14.25 2c-2 15 2 13 1 24-.395 1.474-3 31-3 31-2.074 12.09-1.71 11-8.15 36.74H215V476z" fill="#f86792"/><path d="M180 544.333h28.736v-10.75H180z" fill="#f39c11"/><path d="M203.588 531l2.412 7.5-2.412 7.5L215 544.11v-12z" fill="#f1c40f"/><path d="M211 539.167c1.105 0 2-.299 2-.667s-.895-.666-2-.666-2 .298-2 .666.895.667 2 .667m-5-5.375c0-.369.895-.667 2-.667s2 .298 2 .667c0 .368-.895.666-2 .666s-2-.298-2-.666m2 10.083c1.105 0 2-.298 2-.666s-.895-.667-2-.667-2 .299-2 .667.895.666 2 .666" fill="#f39c11"/><g fill="#f1c40f"><path d="M201.7 467.503c0-.216-.896-.404-2.216-.5.04.16.065.326.065.5 0 .173-.026.34-.065.501 1.32-.098 2.215-.285 2.215-.5m-2.473-1.12c.866-1.004 1.366-1.77 1.213-1.923-.152-.152-.918.348-1.922 1.213.29.178.532.42.71.71m-1.328-.967c-.097-1.32-.285-2.215-.5-2.215s-.404.895-.502 2.215c.161-.039.328-.064.501-.064.174 0 .34.025.501.064m-1.62.257c-1.004-.865-1.769-1.365-1.922-1.213-.153.153.348.92 1.213 1.923a2.14 2.14 0 0 1 .71-.71m-.968 1.328c-1.32.097-2.215.285-2.215.501s.895.403 2.215.501a2.176 2.176 0 0 1-.064-.5c0-.175.026-.34.064-.502m.258 1.62c-.865 1.004-1.366 1.77-1.213 1.922.153.153.918-.348 1.922-1.213a2.136 2.136 0 0 1-.709-.709m1.327.966c.098 1.321.285 2.216.501 2.216s.404-.895.501-2.216c-.16.04-.327.065-.5.065-.174 0-.34-.025-.502-.065m1.62-.257c1.004.865 1.77 1.366 1.922 1.213.153-.152-.347-.918-1.213-1.922-.177.29-.419.531-.709.71m-1.119-.108a1.72 1.72 0 1 0 0-3.44 1.72 1.72 0 0 0 0 3.44m-16.08 10.269c0-.216-.896-.404-2.216-.501.04.16.065.327.065.5 0 .174-.026.34-.065.502 1.32-.098 2.215-.285 2.215-.501m-2.473-1.12c.866-1.003 1.366-1.77 1.213-1.922-.152-.152-.918.348-1.922 1.213.29.178.532.42.71.71m-1.328-.967c-.097-1.32-.285-2.215-.5-2.215s-.404.895-.502 2.215c.161-.04.328-.064.501-.064.174 0 .34.025.501.064m-1.62.257c-1.004-.865-1.769-1.365-1.922-1.213-.153.153.348.919 1.213 1.923a2.14 2.14 0 0 1 .71-.71m-.968 1.328c-1.32.097-2.215.285-2.215.5s.895.404 2.215.502a2.176 2.176 0 0 1-.064-.501c0-.174.026-.34.064-.501m.258 1.62c-.865 1.004-1.366 1.77-1.213 1.922.153.153.918-.348 1.922-1.213a2.136 2.136 0 0 1-.709-.71m1.327.967c.098 1.32.285 2.216.501 2.216s.404-.895.501-2.216c-.16.04-.327.065-.5.065-.174 0-.34-.025-.502-.065m1.62-.257c1.004.865 1.77 1.366 1.922 1.213.153-.152-.347-.918-1.213-1.922-.177.29-.419.53-.709.709m-1.119-.108a1.72 1.72 0 1 0 0-3.44 1.72 1.72 0 0 0 0 3.44m33.285 15.889c0-.216-.895-.404-2.215-.501.039.16.065.327.065.5 0 .174-.026.34-.065.502 1.32-.098 2.215-.285 2.215-.501m-2.473-1.12c.866-1.003 1.366-1.77 1.213-1.922-.152-.152-.918.348-1.922 1.213.29.178.532.42.709.71m-1.327-.967c-.097-1.32-.285-2.215-.501-2.215s-.403.895-.501 2.215c.16-.04.328-.064.5-.064.175 0 .34.025.502.064m-1.62.257c-1.004-.865-1.77-1.365-1.922-1.213-.153.153.348.919 1.213 1.923a2.14 2.14 0 0 1 .709-.71m-.967 1.328c-1.32.097-2.215.285-2.215.5s.895.404 2.215.502a2.176 2.176 0 0 1-.064-.501c0-.174.026-.34.064-.501m.258 1.62c-.865 1.004-1.366 1.77-1.213 1.922.153.153.918-.348 1.922-1.213a2.136 2.136 0 0 1-.71-.71m1.328.967c.098 1.32.285 2.216.5 2.216s.405-.895.502-2.216c-.161.04-.327.065-.501.065-.173 0-.34-.025-.501-.065m1.62-.257c1.004.865 1.77 1.366 1.922 1.213.153-.152-.347-.918-1.213-1.922-.177.29-.42.53-.71.709m-1.118-.108a1.72 1.72 0 1 0 0-3.44 1.72 1.72 0 0 0 0 3.44m-7.899 21.78c0-.216-.895-.404-2.215-.501.04.16.065.327.065.5 0 .174-.026.34-.065.502 1.32-.098 2.215-.285 2.215-.501m-2.473-1.12c.866-1.003 1.366-1.77 1.213-1.922-.152-.152-.918.348-1.922 1.213.29.178.532.42.71.71m-1.328-.967c-.097-1.32-.285-2.215-.5-2.215s-.404.895-.502 2.215c.161-.04.328-.064.501-.064.174 0 .34.025.501.064m-1.62.257c-1.004-.865-1.769-1.365-1.922-1.213-.153.153.348.919 1.213 1.923a2.14 2.14 0 0 1 .71-.71m-.968 1.328c-1.32.097-2.215.285-2.215.5s.895.404 2.215.502a2.176 2.176 0 0 1-.064-.501c0-.174.026-.34.064-.501m.258 1.62c-.865 1.004-1.366 1.77-1.213 1.922.153.153.918-.348 1.922-1.213a2.136 2.136 0 0 1-.709-.71m1.327.967c.098 1.32.285 2.216.501 2.216s.404-.895.501-2.216c-.16.04-.327.065-.5.065-.174 0-.34-.025-.502-.065m1.62-.257c1.004.865 1.77 1.366 1.922 1.213.153-.152-.347-.918-1.213-1.922-.177.29-.419.53-.709.709m-1.119-.108a1.72 1.72 0 1 0 0-3.44 1.72 1.72 0 0 0 0 3.44m15.899 34.705c0-.216-.895-.404-2.215-.5.039.16.065.326.065.5 0 .173-.026.34-.065.501 1.32-.098 2.215-.285 2.215-.5m-2.473-1.12c.866-1.004 1.366-1.77 1.213-1.923-.152-.152-.918.348-1.922 1.213.29.178.532.42.709.71m-1.327-.967c-.097-1.32-.285-2.215-.501-2.215s-.403.895-.501 2.215c.16-.039.328-.064.5-.064.175 0 .34.025.502.064m-1.62.257c-1.004-.865-1.77-1.365-1.922-1.213-.153.153.348.92 1.213 1.923a2.14 2.14 0 0 1 .709-.71m-.967 1.328c-1.32.097-2.215.285-2.215.501s.895.403 2.215.501a2.176 2.176 0 0 1-.064-.5c0-.175.026-.34.064-.502m.258 1.62c-.865 1.004-1.366 1.77-1.213 1.922.153.153.918-.348 1.922-1.213a2.136 2.136 0 0 1-.71-.709m1.328.966c.098 1.321.285 2.216.5 2.216s.405-.895.502-2.216c-.161.04-.327.065-.501.065-.173 0-.34-.025-.501-.065m1.62-.257c1.004.865 1.77 1.366 1.922 1.213.153-.152-.347-.918-1.213-1.922-.177.29-.42.531-.71.71m-1.118-.108a1.72 1.72 0 1 0 0-3.44 1.72 1.72 0 0 0 0 3.44m-14.014 14.265c0-.216-.895-.404-2.215-.5.04.16.065.326.065.5 0 .173-.026.34-.065.501 1.32-.098 2.215-.285 2.215-.5m-2.473-1.12c.866-1.004 1.366-1.77 1.213-1.923-.152-.152-.918.348-1.922 1.213.29.178.532.42.71.71m-1.328-.967c-.097-1.32-.285-2.215-.5-2.215s-.404.895-.502 2.215c.161-.039.328-.064.501-.064.174 0 .34.025.501.064m-1.62.257c-1.004-.865-1.769-1.365-1.922-1.213-.153.153.348.92 1.213 1.923a2.14 2.14 0 0 1 .71-.71m-.968 1.328c-1.32.097-2.215.285-2.215.501s.895.403 2.215.501a2.176 2.176 0 0 1-.064-.5c0-.175.026-.34.064-.502m.258 1.62c-.865 1.004-1.366 1.77-1.213 1.922.153.153.918-.348 1.922-1.213a2.136 2.136 0 0 1-.709-.709m1.327.966c.098 1.321.285 2.216.501 2.216s.404-.895.501-2.216c-.16.04-.327.065-.5.065-.174 0-.34-.025-.502-.065m1.62-.257c1.004.865 1.77 1.366 1.922 1.213.153-.152-.347-.918-1.213-1.922-.177.29-.419.531-.709.71m-1.119-.109a1.72 1.72 0 1 0 0-3.44 1.72 1.72 0 0 0 0 3.44"/></g><path d="M199.48 454.153l3.242 60.254h1.538l-3.241-60.254z" fill="#f39c11"/><g fill="#f1c40f"><path d="M195.766 510.57c0 5.746 8.611 10.402 19.234 10.402v-8.224c-.499.109-2.63 1.89-3.169 1.89-2.73 0-2.796-3.401-3.63-5.48-.625 2.079-2.959 3.776-5.008 3.776-2.576 0-4.664-2.363-4.664-5.277 0-1.236-2.763.6-2.763 2.914m12.41-12.153c0-1.285-.857-2.42-2.169-3.127-.707-1.312-1.842-2.168-3.127-2.168s-2.42.856-3.127 2.168c-1.313.707-2.169 1.842-2.169 3.127s.856 2.42 2.17 3.127c.705 1.312 1.841 2.168 3.126 2.168s2.42-.856 3.127-2.168c1.312-.707 2.168-1.842 2.168-3.127m-3.139 0a2.157 2.157 0 1 1-4.313.001 2.157 2.157 0 0 1 4.313 0m2.226-16.367c0-1.285-.856-2.42-2.168-3.127-.707-1.312-1.842-2.168-3.127-2.168s-2.42.856-3.127 2.168c-1.313.707-2.168 1.842-2.168 3.127s.855 2.42 2.168 3.127c.706 1.312 1.842 2.168 3.127 2.168s2.42-.856 3.127-2.168c1.312-.707 2.168-1.842 2.168-3.127m-3.139 0a2.157 2.157 0 1 1-4.313.001 2.157 2.157 0 0 1 4.313 0m2.51-16.05c0-1.286-.857-2.422-2.169-3.128-.707-1.312-1.842-2.168-3.127-2.168s-2.42.856-3.127 2.168c-1.313.706-2.168 1.842-2.168 3.127s.855 2.42 2.168 3.127c.706 1.312 1.842 2.168 3.127 2.168s2.42-.856 3.127-2.168c1.312-.707 2.168-1.842 2.168-3.127m-3.138 0a2.157 2.157 0 1 1-4.315 0 2.157 2.157 0 0 1 4.315 0"/></g><path d="M243.248 729.625l-1.018 17.534.018.003 3 3c1 1 0 2-6 1-5.055-.843-10.094-2.477-11.562-2.973l-.438-.027s-.039-6.708-.235-18.537z" fill="#f9db9d"/><path d="M243.17 749.1s24.986 11.062 11.118 11.062H229.36c-3.307 0-2.153-12.123-2.153-12.123z" fill="#2d3e50"/><path d="M257.463 487.795s0 29.633 2.692 40.408c2.693 10.776 10.77 78.122 5.385 83.51s-10.77 0-13.462 0-13.462-123.918-13.462-123.918z" fill="#f9db9d"/><path d="M215 740.6V579.239L253.803 578l.856 162.6z" fill="#49a2df"/><path d="M215 727.862h19.205V578H215z" fill="#3598db"/><path d="M223.21 713.486l8.07 8.07-8.07 8.069-8.07-8.07zm0-32.28l8.07 8.07-8.07 8.07-8.07-8.07zm0-32.279l8.07 8.07-8.07 8.069-8.07-8.069zm-.14-32.28l8.07 8.07-8.07 8.07-8.07-8.07zm.14 80.699l8.07 8.07-8.07 8.069-8.07-8.07zm0-32.28l8.07 8.07-8.07 8.07-8.07-8.07zm0-32.279l8.07 8.07-8.07 8.07-8.07-8.07zm0-32.279l8.07 8.07-8.07 8.07-8.07-8.07z" fill="#49a2df"/><path d="M236.629 696.115h14.511v-2.434h-14.511zm0 4.868h14.511v-2.434h-14.511zm0 4.868h14.511v-2.434h-14.511zm0 4.868h14.511v-2.434h-14.511zm0 4.302h14.511v-2.434h-14.511zm0 4.869h14.511v-2.434h-14.511zm0 4.867h14.511v-2.434h-14.511zm0 4.868h14.511v-2.434h-14.511zm-.43-71.5h14.511v-2.434h-14.511zm0 4.868h14.511v-2.434h-14.511zm0 4.868h14.511v-2.434h-14.511zm0 4.868h14.511v-2.434h-14.511zm0 4.302h14.511v-2.434h-14.511zm0 4.868h14.511v-2.434h-14.511zm0 4.868h14.511v-2.434h-14.511zm0 4.868h14.511v-2.434h-14.511zm.102-71.093h14.511v-2.434h-14.511zm0 4.869h14.511v-2.434h-14.511zm0 4.867h14.511v-2.434h-14.511zm0 4.868h14.511v-2.434h-14.511zm0 4.303h14.511v-2.434h-14.511zm0 4.868h14.511v-2.434h-14.511zm0 4.868h14.511v-2.434h-14.511zm0 4.868h14.511v-2.434h-14.511z" fill="#3598db"/><path d="M223.07 583.93l8.07 8.07-8.07 8.07L215 592z" fill="#49a2df"/><path d="M236.199 587.434h14.511V585h-14.511zm0 4.868h14.511v-2.434h-14.511zm0 4.868h14.511v-2.434h-14.511zm0 4.868h14.511v-2.434h-14.511zm0 4.303h14.511v-2.434h-14.511zm0 4.867h14.511v-2.434h-14.511zm0 4.869h14.511v-2.434h-14.511zm0 4.868h14.511v-2.434h-14.511z" fill="#3598db"/><path d="M215.14 478.806h17.993v-24.654H215.14z" fill="#f9db9d"/><path d="M227.5 454.153c5.372 0 21.132.484 22 .847 3.563 1.174 5.657 5.628 7.824 13.938C261.25 484 261.25 489 261.25 489L247 491c2 15-2 13-1 24 .395 1.474 3 31 3 31 2.074 12.09 1.71 11 8.15 36.74H215V476z" fill="#f86792"/><path d="M221.264 544.333H250v-10.75h-28.736z" fill="#f39c11"/><path d="M226.412 531L224 538.5l2.412 7.5L215 544.11v-12z" fill="#f1c40f"/><g><path d="M219 539.167c-1.105 0-2-.299-2-.667s.895-.666 2-.666 2 .298 2 .666-.895.667-2 .667m5-5.375c0-.369-.895-.667-2-.667s-2 .298-2 .667c0 .368.895.666 2 .666s2-.298 2-.666m-2 10.083c-1.105 0-2-.298-2-.666s.895-.667 2-.667 2 .299 2 .667-.895.666-2 .666" fill="#f39c11"/><g fill="#f1c40f"><path d="M228.3 467.503c0-.216.896-.404 2.216-.5a2.116 2.116 0 0 0-.065.5c0 .173.026.34.065.501-1.32-.098-2.215-.285-2.215-.5m2.473-1.12c-.866-1.004-1.366-1.77-1.213-1.923.152-.152.918.348 1.922 1.213a2.14 2.14 0 0 0-.71.71m1.328-.967c.097-1.32.285-2.215.5-2.215s.404.895.502 2.215a2.122 2.122 0 0 0-.501-.064c-.174 0-.34.025-.501.064m1.62.257c1.004-.865 1.769-1.365 1.922-1.213.153.153-.348.92-1.213 1.923a2.14 2.14 0 0 0-.71-.71m.968 1.328c1.32.097 2.215.285 2.215.501s-.895.403-2.215.501c.038-.16.064-.328.064-.5 0-.175-.026-.34-.064-.502m-.258 1.62c.865 1.004 1.366 1.77 1.213 1.922-.153.153-.918-.348-1.922-1.213.29-.178.532-.419.709-.709m-1.327.966c-.098 1.321-.285 2.216-.501 2.216s-.404-.895-.501-2.216c.16.04.327.065.5.065.174 0 .34-.025.502-.065m-1.62-.257c-1.004.865-1.77 1.366-1.922 1.213-.153-.152.347-.918 1.213-1.922.177.29.419.531.709.71m1.119-.108a1.72 1.72 0 1 1 0-3.44 1.72 1.72 0 0 1 0 3.44m16.08 10.269c0-.216.896-.404 2.216-.501a2.116 2.116 0 0 0-.065.5c0 .174.026.34.065.502-1.32-.098-2.215-.285-2.215-.501m2.473-1.12c-.866-1.003-1.366-1.77-1.213-1.922.152-.152.918.348 1.922 1.213a2.14 2.14 0 0 0-.71.71m1.328-.967c.097-1.32.285-2.215.5-2.215s.404.895.502 2.215a2.122 2.122 0 0 0-.501-.064c-.174 0-.34.025-.501.064m1.62.257c1.004-.865 1.769-1.365 1.922-1.213.153.153-.348.919-1.213 1.923a2.14 2.14 0 0 0-.71-.71m.968 1.328c1.32.097 2.215.285 2.215.5s-.895.404-2.215.502c.038-.161.064-.328.064-.501 0-.174-.026-.34-.064-.501m-.258 1.62c.865 1.004 1.366 1.77 1.213 1.922-.153.153-.918-.348-1.922-1.213.29-.178.532-.42.709-.71m-1.327.967c-.098 1.32-.285 2.216-.501 2.216s-.404-.895-.501-2.216c.16.04.327.065.5.065.174 0 .34-.025.502-.065m-1.62-.257c-1.004.865-1.77 1.366-1.922 1.213-.153-.152.347-.918 1.213-1.922.177.29.419.53.709.709m1.119-.108a1.72 1.72 0 1 1 0-3.44 1.72 1.72 0 0 1 0 3.44m-33.285 15.889c0-.216.895-.404 2.215-.501a2.116 2.116 0 0 0-.065.5c0 .174.026.34.065.502-1.32-.098-2.215-.285-2.215-.501m2.473-1.12c-.866-1.003-1.366-1.77-1.213-1.922.152-.152.918.348 1.922 1.213a2.14 2.14 0 0 0-.709.71m1.327-.967c.097-1.32.285-2.215.501-2.215s.403.895.501 2.215a2.122 2.122 0 0 0-.5-.064c-.175 0-.34.025-.502.064m1.62.257c1.004-.865 1.77-1.365 1.922-1.213.153.153-.348.919-1.213 1.923a2.14 2.14 0 0 0-.709-.71m.967 1.328c1.32.097 2.215.285 2.215.5s-.895.404-2.215.502c.038-.161.064-.328.064-.501 0-.174-.026-.34-.064-.501m-.258 1.62c.865 1.004 1.366 1.77 1.213 1.922-.153.153-.918-.348-1.922-1.213.29-.178.532-.42.71-.71m-1.328.967c-.098 1.32-.285 2.216-.5 2.216s-.405-.895-.502-2.216c.161.04.327.065.501.065.173 0 .34-.025.501-.065m-1.62-.257c-1.004.865-1.77 1.366-1.922 1.213-.153-.152.347-.918 1.213-1.922.177.29.42.53.71.709m1.118-.108a1.72 1.72 0 1 1 0-3.44 1.72 1.72 0 0 1 0 3.44m7.899 21.78c0-.216.895-.404 2.215-.501a2.116 2.116 0 0 0-.065.5c0 .174.026.34.065.502-1.32-.098-2.215-.285-2.215-.501m2.473-1.12c-.866-1.003-1.366-1.77-1.213-1.922.152-.152.918.348 1.922 1.213a2.14 2.14 0 0 0-.71.71m1.328-.967c.097-1.32.285-2.215.5-2.215s.404.895.502 2.215a2.122 2.122 0 0 0-.501-.064c-.174 0-.34.025-.501.064m1.62.257c1.004-.865 1.769-1.365 1.922-1.213.153.153-.348.919-1.213 1.923a2.14 2.14 0 0 0-.71-.71m.968 1.328c1.32.097 2.215.285 2.215.5s-.895.404-2.215.502c.038-.161.064-.328.064-.501 0-.174-.026-.34-.064-.501m-.258 1.62c.865 1.004 1.366 1.77 1.213 1.922-.153.153-.918-.348-1.922-1.213.29-.178.532-.42.709-.71m-1.327.967c-.098 1.32-.285 2.216-.501 2.216s-.404-.895-.501-2.216c.16.04.327.065.5.065.174 0 .34-.025.502-.065m-1.62-.257c-1.004.865-1.77 1.366-1.922 1.213-.153-.152.347-.918 1.213-1.922.177.29.419.53.709.709m1.119-.108a1.72 1.72 0 1 1 0-3.44 1.72 1.72 0 0 1 0 3.44m-15.898 34.705c0-.216.895-.404 2.215-.5a2.116 2.116 0 0 0-.065.5c0 .173.026.34.065.501-1.32-.098-2.215-.285-2.215-.5m2.473-1.12c-.866-1.004-1.366-1.77-1.213-1.923.152-.152.918.348 1.922 1.213a2.14 2.14 0 0 0-.71.71m1.328-.967c.097-1.32.285-2.215.5-2.215s.404.895.502 2.215a2.122 2.122 0 0 0-.501-.064c-.174 0-.34.025-.501.064m1.62.257c1.004-.865 1.769-1.365 1.922-1.213.153.153-.348.92-1.213 1.923a2.14 2.14 0 0 0-.71-.71m.968 1.328c1.32.097 2.215.285 2.215.501s-.895.403-2.215.501c.038-.16.064-.328.064-.5 0-.175-.026-.34-.064-.502m-.258 1.62c.865 1.004 1.366 1.77 1.213 1.922-.153.153-.918-.348-1.922-1.213.29-.178.532-.419.709-.709m-1.327.966c-.098 1.321-.285 2.216-.501 2.216s-.404-.895-.501-2.216c.16.04.327.065.5.065.174 0 .34-.025.502-.065m-1.62-.257c-1.004.865-1.77 1.366-1.922 1.213-.153-.152.347-.918 1.213-1.922.177.29.419.531.709.71m1.118-.108a1.72 1.72 0 1 1 0-3.44 1.72 1.72 0 0 1 0 3.44m14.014 14.265c0-.216.895-.404 2.215-.5a2.116 2.116 0 0 0-.065.5c0 .173.026.34.065.501-1.32-.098-2.215-.285-2.215-.5m2.473-1.12c-.866-1.004-1.366-1.77-1.213-1.923.152-.152.918.348 1.922 1.213a2.14 2.14 0 0 0-.71.71m1.328-.967c.097-1.32.285-2.215.5-2.215s.404.895.502 2.215a2.122 2.122 0 0 0-.501-.064c-.174 0-.34.025-.501.064m1.62.257c1.004-.865 1.769-1.365 1.922-1.213.153.153-.348.92-1.213 1.923a2.14 2.14 0 0 0-.71-.71m.968 1.328c1.32.097 2.215.285 2.215.501s-.895.403-2.215.501c.038-.16.064-.328.064-.5 0-.175-.026-.34-.064-.502m-.258 1.62c.865 1.004 1.366 1.77 1.213 1.922-.153.153-.918-.348-1.922-1.213.29-.178.532-.419.709-.709m-1.327.966c-.098 1.321-.285 2.216-.501 2.216s-.404-.895-.501-2.216c.16.04.327.065.5.065.174 0 .34-.025.502-.065m-1.62-.257c-1.004.865-1.77 1.366-1.922 1.213-.153-.152.347-.918 1.213-1.922.177.29.419.531.709.71m1.119-.109a1.72 1.72 0 1 1 0-3.44 1.72 1.72 0 0 1 0 3.44"/></g></g><path d="M230.52 454.153l-3.242 60.254h-1.538l3.241-60.254z" fill="#f39c11"/><g fill="#f1c40f"><path d="M234.234 510.57c0 5.746-8.611 10.402-19.234 10.402v-8.224c.499.109 2.63 1.89 3.169 1.89 2.73 0 2.796-3.401 3.63-5.48.625 2.079 2.959 3.776 5.008 3.776 2.576 0 4.664-2.363 4.664-5.277 0-1.236 2.763.6 2.763 2.914m-12.41-12.153c0-1.285.857-2.42 2.169-3.127.707-1.312 1.842-2.168 3.127-2.168s2.42.856 3.127 2.168c1.313.707 2.169 1.842 2.169 3.127s-.856 2.42-2.17 3.127c-.705 1.312-1.841 2.168-3.126 2.168s-2.42-.856-3.127-2.168c-1.312-.707-2.168-1.842-2.168-3.127m3.139 0a2.157 2.157 0 1 0 4.313.001 2.157 2.157 0 0 0-4.313 0m-2.226-16.367c0-1.285.856-2.42 2.168-3.127.707-1.312 1.842-2.168 3.127-2.168s2.421.856 3.127 2.168c1.313.707 2.168 1.842 2.168 3.127s-.855 2.42-2.168 3.127c-.706 1.312-1.842 2.168-3.127 2.168s-2.42-.856-3.127-2.168c-1.312-.707-2.168-1.842-2.168-3.127m3.139 0a2.157 2.157 0 1 0 4.313.001 2.157 2.157 0 0 0-4.313 0m-2.509-16.05c0-1.286.856-2.422 2.168-3.128.707-1.312 1.842-2.168 3.127-2.168s2.421.856 3.127 2.168c1.313.706 2.168 1.842 2.168 3.127s-.855 2.42-2.168 3.127c-.706 1.312-1.842 2.168-3.127 2.168s-2.42-.856-3.127-2.168c-1.312-.707-2.168-1.842-2.168-3.127m3.138 0a2.157 2.157 0 1 0 4.315 0 2.157 2.157 0 0 0-4.315 0"/></g><path d="M320.527 270.406l-23.274 13.438-1.109-1.92 23.274-13.438z" fill="#f39c11"/><path d="M341.817 256.834l-5.193 19.379-19.379-5.192 5.193-19.38z" fill="#f1c40f"/><path d="M280.936 233.358l-13.438 23.275-1.92-1.109 13.438-23.275z" fill="#f39c11"/><path d="M292.588 210.96l5.193 19.378-19.38 5.193-5.192-19.379z" fill="#f1c40f"/><path d="M109.473 270.406l23.274 13.438 1.109-1.92-23.274-13.438z" fill="#f39c11"/><path d="M88.183 256.834l5.193 19.379 19.379-5.192-5.193-19.38z" fill="#f1c40f"/><path d="M149.064 233.358l13.438 23.275 1.92-1.109-13.438-23.275z" fill="#f39c11"/><path d="M137.412 210.96l-5.193 19.378 19.38 5.193 5.192-19.379z" fill="#f1c40f"/><g><path d="M215 454.153c53.572 0 97-53.758 97-120.071S268.571 229 215 229c-53.572 0-97 38.769-97 105.082s43.428 120.07 97 120.07" fill="#2d3e50"/><path d="M215 400c53.572 0 97-16.288 97-72.08S268.571 237 215 237c-53.572 0-97 35.128-97 90.92S161.428 400 215 400" fill="#2d3e50"/><g fill="#f9db9d"><path d="M138.266 387.185c6.69 0 12.116-5.427 12.116-12.122s-5.425-12.123-12.116-12.123-12.116 5.428-12.116 12.123 5.425 12.122 12.116 12.122m153.468 0c6.691 0 12.116-5.427 12.116-12.122s-5.425-12.123-12.116-12.123-12.116 5.428-12.116 12.123 5.425 12.122 12.116 12.122"/></g></g><path d="M204.23 463.202h21.539v-18.099H204.23z" fill="#f9db9d"/><g><path d="M215 451.838c44.61 0 80.773-43.846 80.773-104.922S259.61 255 215 255s-80.773 30.84-80.773 91.916S170.39 451.838 215 451.838" fill="#f9db9d"/><g fill="#2d3e50"><path d="M177.556 371.281a8.193 8.193 0 0 0 8.19-8.195c0-4.527-3.666-8.196-8.19-8.196s-8.191 3.67-8.191 8.196a8.193 8.193 0 0 0 8.19 8.195m74.89 0a8.193 8.193 0 0 0 8.191-8.195c0-4.527-3.667-8.196-8.19-8.196s-8.192 3.67-8.192 8.196a8.193 8.193 0 0 0 8.191 8.195m-62.188 37.977c-.257.767-.415 1.553-.415 2.36 0 7.385 11.264 13.372 25.158 13.372 13.895 0 25.158-5.987 25.158-13.372 0-.807-.157-1.593-.415-2.36-2.1 6.258-12.366 11.013-24.743 11.013s-22.643-4.755-24.743-11.013"/><path d="M214.993 250c-69.468 2.459-88.202 52.625-81.594 113.451 0 0 .531-41.623 43.907-65.582 0 0 9.68-6.231 37.687-7.05s37.687 7.05 37.687 7.05c43.376 23.959 43.907 65.582 43.907 65.582 6.608-60.826-12.126-110.992-81.594-113.451"/><path d="M215 308.567c32.063 0 58.055-6.43 58.055-14.363 0-7.932-25.992-14.363-58.055-14.363s-58.055 6.431-58.055 14.363c0 7.933 25.992 14.363 58.055 14.363"/></g><path d="M294.242 440.815c1.98 0 3.586-12.495 3.586-27.908 0-15.412-1.606-27.907-3.586-27.907s-3.586 12.495-3.586 27.907c0 15.413 1.606 27.908 3.586 27.908m-160.015 0c1.98 0 3.586-12.495 3.586-27.908 0-15.412-1.606-27.907-3.586-27.907s-3.586 12.495-3.586 27.907c0 15.413 1.606 27.908 3.586 27.908" fill="#f1c40f"/></g></g></svg>