<svg height="800" width="800" xmlns="http://www.w3.org/2000/svg"><g fill="none" fill-rule="evenodd"><path d="M592.472 746L585 623s9.228-13.495 2.714-13.495v-25.621l45.6 27.116-5.12 133.932z" fill="#e84c3d"/><path d="M577.528 746L585 623s-9.228-13.495-2.714-13.495v-25.621L536.686 611l5.12 133.932z" fill="#e84c3d"/><g fill="#f9db9d"><path d="M639.748 480.019s4.348 56.521 6.522 67.391 6.52 56.522 0 63.043c-6.522 6.522-26.087 2.174-28.261-15.217s-6.522-78.261-6.522-78.261v-36.956zm-109.496 0s-4.348 56.521-6.522 67.391-6.52 56.522 0 63.043c6.522 6.522 26.087 2.174 28.261-15.217s6.522-78.261 6.522-78.261v-36.956z"/></g><path d="M585 649V548.472l-47.27-.771L536.686 649z" fill="#c1392b"/><path d="M561.604 641.064H585v-93.363h-23.396z" fill="#c74d40"/><path d="M575 629.393l-9.832 5.835 9.831 5.836 9.831-5.836zm-.001-23.34l-9.831 5.835 9.831 5.835 9.831-5.835zm0-23.341l-9.831 5.835 9.831 5.835 9.831-5.835zm.17-23.34l-9.83 5.834 9.83 5.835 9.831-5.835zm-.17 58.35l-9.83 5.836 9.83 5.835 9.831-5.835zm0-23.34l-9.831 5.835 9.831 5.835 9.831-5.835z" fill="#c1392b"/><path d="M575 571.041l-9.832 5.835 9.831 5.836 9.831-5.836z" fill="#c1392b"/><path d="M575.17 547.7l-9.832 5.836 9.831 5.835 9.831-5.835zm-34.197 66.285h17.678v-1.967h-17.678zm0 3.934h17.678v-1.967h-17.678zm0 3.933h17.678v-1.967h-17.678zm0 3.934h17.678v-1.967h-17.678zm0 3.477h17.678v-1.967h-17.678zm0 3.933h17.678v-1.967h-17.678zm0 3.935h17.678v-1.967h-17.678zm0 3.933h17.678v-1.967h-17.678zm.523-57.778h17.678v-1.967h-17.678zm0 3.933h17.678v-1.967h-17.678zm0 3.934h17.678v-1.967h-17.678zm0 3.934h17.678v-1.967h-17.678zm0 3.477h17.678v-1.967h-17.678zm0 3.933h17.678v-1.967h-17.678zm0 3.934h17.678v-1.967h-17.678zm0 3.934h17.678v-1.967h-17.678zm-.124-57.449h17.678v-1.967h-17.678zm0 3.934h17.678v-1.967h-17.678zm0 3.933h17.678v-1.967h-17.678zm0 3.934h17.678v-1.967h-17.678zm0 3.477h17.678v-1.967h-17.678zm0 3.934h17.678v-1.967h-17.678zm0 3.933h17.678v-1.967h-17.678zm0 3.934h17.678v-1.967h-17.678z" fill="#c74d40"/><path d="M585 649V548.472l47.27-.771L633.314 649z" fill="#c1392b"/><path d="M585 641.064h23.396v-93.363H585z" fill="#c74d40"/><path d="M595.001 629.393l9.831 5.835-9.831 5.836-9.831-5.836zm0-23.34l9.831 5.835-9.83 5.835-9.832-5.835zm0-23.341l9.831 5.835-9.83 5.835-9.832-5.835zm-.17-23.34l9.83 5.834-9.83 5.835-9.831-5.835zm.17 58.35l9.831 5.836-9.831 5.835-9.831-5.835zm0-23.34l9.831 5.835-9.83 5.835-9.832-5.835z" fill="#c1392b"/><path d="M595.001 571.041l9.831 5.835-9.831 5.836-9.831-5.836z" fill="#c1392b"/><path d="M594.83 547.7l9.832 5.836-9.831 5.835-9.831-5.835zm16.519 66.285h17.678v-1.967h-17.678zm0 3.934h17.678v-1.967h-17.678zm0 3.933h17.678v-1.967h-17.678zm0 3.934h17.678v-1.967h-17.678zm0 3.477h17.678v-1.967h-17.678zm0 3.933h17.678v-1.967h-17.678zm0 3.935h17.678v-1.967h-17.678zm0 3.933h17.678v-1.967h-17.678zm-.523-57.778h17.678v-1.967h-17.678zm0 3.933h17.678v-1.967h-17.678zm0 3.934h17.678v-1.967h-17.678zm0 3.934h17.678v-1.967h-17.678zm0 3.477h17.678v-1.967h-17.678zm0 3.933h17.678v-1.967h-17.678zm0 3.934h17.678v-1.967h-17.678zm0 3.934h17.678v-1.967h-17.678zm.124-57.449h17.678v-1.967H610.95zm0 3.934h17.678v-1.967H610.95zm0 3.933h17.678v-1.967H610.95zm0 3.934h17.678v-1.967H610.95zm0 3.477h17.678v-1.967H610.95zm0 3.934h17.678v-1.967H610.95zm0 3.933h17.678v-1.967H610.95zm0 3.934h17.678v-1.967H610.95z" fill="#c74d40"/><path d="M570.84 461.88h28.32v-23.797h-28.32z" fill="#f9db9d"/><g fill="#f9db9d"><path d="M585 465.422c7.82 0 14.16-1.586 14.16-3.542s-6.34-3.542-14.16-3.542-14.16 1.586-14.16 3.542 6.34 3.542 14.16 3.542m90.217-86.939c7.204 0 13.043-5.84 13.043-13.043 0-7.204-5.839-13.044-13.043-13.044s-13.043 5.84-13.043 13.044c0 7.203 5.839 13.043 13.043 13.043m-180.434 0c7.204 0 13.043-5.84 13.043-13.043 0-7.204-5.839-13.044-13.043-13.044s-13.043 5.84-13.043 13.044c0 7.203 5.839 13.043 13.043 13.043"/></g><path d="M585 405.678c52.827 0 108.457-29.678 92.108-97.304-8.906-36.84-39.281-76.24-92.108-76.24s-91.07 60.74-93.526 76.24C480.126 380 532.173 405.678 585 405.678" fill="#2d3e50"/><path d="M585 446.418c47.424 0 85.869-41.851 85.869-93.478 0-51.626-38.445-100-85.869-100s-85.869 48.374-85.869 100c0 51.627 38.445 93.478 85.869 93.478" fill="#f9db9d"/><path d="M549.477 362.099c4.346 0 7.869-3.525 7.869-7.873s-3.523-7.873-7.87-7.873-7.868 3.525-7.868 7.873 3.523 7.873 7.869 7.873m71.942 0c4.346 0 7.869-3.525 7.869-7.873s-3.523-7.873-7.87-7.873-7.868 3.525-7.868 7.873 3.523 7.873 7.869 7.873m-59.74 36.482c-.248.737-.4 1.492-.4 2.267 0 7.095 10.821 12.846 24.168 12.846 13.348 0 24.17-5.75 24.17-12.846 0-.775-.153-1.53-.4-2.267-2.018 6.012-11.88 10.58-23.77 10.58-11.889 0-21.75-4.568-23.769-10.58" fill="#2d3e50"/><path d="M583.952 127.864l-97.183 97.183 97.183 97.183 97.183-97.183z" fill="#e84c3d"/><path d="M487.635 322.23h193.5v-97.183h-193.5z" fill="#e84c3d"/><g fill="#f1c40f"><path d="M645.052 309h9.333v-3.5h-9.333zm18.667 0h9.333v-3.5h-9.333zm-37.333 0h9.333v-3.5h-9.333zm-18.667 0h9.333v-3.5h-9.333zm-37.333 0h9.333v-3.5h-9.333zm18.666 0h9.333v-3.5h-9.333zm-37.333 0h9.333v-3.5h-9.333zm-18.667 0h9.333v-3.5h-9.333zm-37.333 0h9.333v-3.5h-9.333zm18.667 0h9.333v-3.5h-9.333z"/><path d="M512.146 296.28a3.396 3.396 0 1 0 0-6.792 3.396 3.396 0 0 0 0 6.792m53.208 0a3.396 3.396 0 1 0 0-6.792 3.396 3.396 0 0 0 0 6.792m-27.504-38.49a3.396 3.396 0 1 0 0-6.793 3.396 3.396 0 0 0 0 6.793m66.45 38.49a3.396 3.396 0 1 0 0-6.792 3.396 3.396 0 0 0 0 6.792m53.207 0a3.396 3.396 0 1 0 0-6.792 3.396 3.396 0 0 0 0 6.792m-27.503-38.49a3.396 3.396 0 1 0 0-6.793 3.396 3.396 0 0 0 0 6.793"/></g><path d="M642.697 495.384L650.324 558h-24.881l-4.377-62.616z" fill="#e84c3d"/><path d="M630.6 495.384L636.306 558h-11z" fill="#c1392b"/><path d="M650 555l.323 3H631.25v-3zm-21.75-25.5H647v-2h-18.75zm-3-26.5H643v-3h-17.75z" fill="#f1c40f"/><path d="M639.392 744.059s21.886 1.953 21.886 11.717v5.858h-68.346v-17.575z" fill="#2d3e50"/><path d="M639.017 744.059s21.886 1.953 21.886 11.717v5.858h-68.346v-17.575z" fill="#2d3e50"/><path d="M599 452.939c2.489-.136 12.871 0 15.953 0 26.541 0 27.744 42.678 27.744 42.678h-12.543l3.16 68.383H585v-98.578" fill="#e84c3d"/><path d="M603 452.879l-15 13.12v26l-3 4v4l7-8v-26l15-13.12z" fill="#f1c40f"/><path d="M527.303 495.384L519.676 558h24.881l4.377-62.616z" fill="#e84c3d"/><path d="M539.4 495.384L533.694 558h11z" fill="#c1392b"/><path d="M520 555l-.323 3h19.073v-3zm3-25.5h18.75v-2H523zm4-26.5h17.75v-3H527z" fill="#f1c40f"/><path d="M530.608 744.059s-21.886 1.953-21.886 11.717v5.858h68.346v-17.575z" fill="#2d3e50"/><path d="M530.983 744.059s-21.886 1.953-21.886 11.717v5.858h68.346v-17.575z" fill="#2d3e50"/><path d="M571 452.939c-2.489-.136-12.871 0-15.953 0-26.541 0-27.744 42.678-27.744 42.678h12.543L536.686 564H585v-98.578" fill="#e84c3d"/><path d="M567 452.879l15 13.12v26l3 4v4l-7-8v-26l-15-13.12z" fill="#f1c40f"/><g fill="#f9db9d"><path d="M257.463 487.795s0 29.633 2.692 40.408c2.693 10.776 10.77 78.122 5.385 83.51s-10.77 0-13.462 0-13.462-123.918-13.462-123.918zm-84.926 0s0 29.633-2.692 40.408c-2.693 10.776-10.77 78.122-5.385 83.51s10.77 0 13.462 0 13.462-123.918 13.462-123.918zm14.215 241.83l1.018 17.534-.018.003-3 3c-1 1 0 2 6 1 5.055-.843 10.094-2.477 11.562-2.973l.438-.027s.039-6.708.235-18.537z"/></g><path d="M186.83 749.1s-24.986 11.062-11.118 11.062h24.927c3.307 0 2.153-12.123 2.153-12.123z" fill="#2d3e50"/><path d="M243.248 729.625l-1.018 17.534.018.003 3 3c1 1 0 2-6 1-5.055-.843-10.094-2.477-11.562-2.973l-.438-.027s-.039-6.708-.235-18.537z" fill="#f9db9d"/><path d="M243.17 749.1s24.986 11.062 11.118 11.062H229.36c-3.307 0-2.153-12.123-2.153-12.123z" fill="#2d3e50"/><path d="M215 740.6V579.239L253.803 578l.856 162.6z" fill="#c74d40"/><path d="M215.001 727.862h19.205V578h-19.205z" fill="#c1392b"/><path d="M223.21 713.486l8.07 8.07-8.07 8.069-8.07-8.07zm0-32.28l8.07 8.07-8.07 8.07-8.07-8.07zm0-32.279l8.07 8.07-8.07 8.069-8.07-8.069zm-.14-32.28l8.07 8.07-8.07 8.07-8.07-8.07zm.14 80.699l8.07 8.07-8.07 8.069-8.07-8.07zm0-32.28l8.07 8.07-8.07 8.07-8.07-8.07zm0-32.279l8.07 8.07-8.07 8.07-8.07-8.07zm0-32.279l8.07 8.07-8.07 8.07-8.07-8.07z" fill="#c74d40"/><path d="M236.629 696.115h14.511v-2.434h-14.511zm0 4.868h14.511v-2.434h-14.511zm0 4.868h14.511v-2.434h-14.511zm0 4.868h14.511v-2.434h-14.511zm0 4.302h14.511v-2.434h-14.511zm0 4.869h14.511v-2.434h-14.511zm0 4.867h14.511v-2.434h-14.511zm0 4.868h14.511v-2.434h-14.511zm-.429-71.5h14.511v-2.434H236.2zm0 4.868h14.511v-2.434H236.2zm0 4.868h14.511v-2.434H236.2zm0 4.868h14.511v-2.434H236.2zm0 4.302h14.511v-2.434H236.2zm0 4.868h14.511v-2.434H236.2zm0 4.868h14.511v-2.434H236.2zm0 4.868h14.511v-2.434H236.2zm.102-71.093h14.511v-2.434h-14.511zm0 4.869h14.511v-2.434h-14.511zm0 4.867h14.511v-2.434h-14.511zm0 4.868h14.511v-2.434h-14.511zm0 4.303h14.511v-2.434h-14.511zm0 4.868h14.511v-2.434h-14.511zm0 4.868h14.511v-2.434h-14.511zm0 4.868h14.511v-2.434h-14.511z" fill="#c1392b"/><path d="M223.07 583.93l8.07 8.07-8.07 8.07L215 592z" fill="#c74d40"/><path d="M236.2 587.434h14.511V585H236.2zm0 4.868h14.511v-2.434H236.2zm0 4.868h14.511v-2.434H236.2zm0 4.868h14.511v-2.434H236.2zm0 4.303h14.511v-2.434H236.2zm0 4.867h14.511v-2.434H236.2zm0 4.869h14.511v-2.434H236.2zm0 4.868h14.511v-2.434H236.2z" fill="#c1392b"/><path d="M215 740.6V579.239L176.197 578l-.856 162.6z" fill="#c74d40"/><path d="M195.794 727.862h19.205V578h-19.205z" fill="#c1392b"/><path d="M206.79 713.486l-8.07 8.07 8.07 8.069 8.07-8.07zm0-32.28l-8.07 8.07 8.07 8.07 8.07-8.07zm0-32.279l-8.07 8.07 8.07 8.069 8.07-8.069zm.14-32.28l-8.07 8.07 8.07 8.07 8.07-8.07zm-.14 80.699l-8.07 8.07 8.07 8.069 8.07-8.07zm0-32.28l-8.07 8.07 8.07 8.07 8.07-8.07zm0-32.279l-8.07 8.07 8.07 8.07 8.07-8.07zm0-32.279l-8.07 8.07 8.07 8.07 8.07-8.07z" fill="#c74d40"/><path d="M178.86 696.115h14.511v-2.434H178.86zm0 4.868h14.511v-2.434H178.86zm0 4.868h14.511v-2.434H178.86zm0 4.868h14.511v-2.434H178.86zm0 4.302h14.511v-2.434H178.86zm0 4.869h14.511v-2.434H178.86zm0 4.867h14.511v-2.434H178.86zm0 4.868h14.511v-2.434H178.86zm.429-71.5H193.8v-2.434h-14.511zm0 4.868H193.8v-2.434h-14.511zm0 4.868H193.8v-2.434h-14.511zm0 4.868H193.8v-2.434h-14.511zm0 4.302H193.8v-2.434h-14.511zm0 4.868H193.8v-2.434h-14.511zm0 4.868H193.8v-2.434h-14.511zm0 4.868H193.8v-2.434h-14.511zm-.102-71.093h14.511v-2.434h-14.511zm0 4.869h14.511v-2.434h-14.511zm0 4.867h14.511v-2.434h-14.511zm0 4.868h14.511v-2.434h-14.511zm0 4.303h14.511v-2.434h-14.511zm0 4.868h14.511v-2.434h-14.511zm0 4.868h14.511v-2.434h-14.511zm0 4.868h14.511v-2.434h-14.511z" fill="#c1392b"/><path d="M206.93 583.93l-8.07 8.07 8.07 8.07L215 592z" fill="#c74d40"/><path d="M179.289 587.434H193.8V585h-14.511zm0 4.868H193.8v-2.434h-14.511zm0 4.868H193.8v-2.434h-14.511zm0 4.868H193.8v-2.434h-14.511zm0 4.303H193.8v-2.434h-14.511zm0 4.867H193.8v-2.434h-14.511zm0 4.869H193.8v-2.434h-14.511zm0 4.868H193.8v-2.434h-14.511z" fill="#c1392b"/><path d="M213.892 237.272h2.217v-26.875h-2.217z" fill="#f39c11"/><path d="M215 185.173l14.187 14.187L215 213.546l-14.187-14.186z" fill="#f1c40f"/><path d="M320.527 270.406l-23.274 13.438-1.109-1.92 23.274-13.438z" fill="#f39c11"/><path d="M341.817 256.834l-5.193 19.379-19.379-5.192 5.193-19.38z" fill="#f1c40f"/><path d="M280.936 233.358l-13.438 23.275-1.92-1.109 13.438-23.275z" fill="#f39c11"/><path d="M292.588 210.96l5.193 19.378-19.38 5.193-5.192-19.379z" fill="#f1c40f"/><path d="M109.473 270.406l23.274 13.438 1.109-1.92-23.274-13.438z" fill="#f39c11"/><path d="M88.183 256.834l5.193 19.379 19.379-5.192-5.193-19.38z" fill="#f1c40f"/><path d="M149.064 233.358l13.438 23.275 1.92-1.109-13.438-23.275z" fill="#f39c11"/><path d="M137.412 210.96l-5.193 19.378 19.38 5.193 5.192-19.379z" fill="#f1c40f"/><g><path d="M215 409.258c53.572 0 97-43.039 97-96.129S268.571 229 215 229c-53.572 0-97 31.038-97 84.13 0 53.09 43.428 96.128 97 96.128" fill="#f1c40f"/><path d="M215 444.749c53.572 0 97-20.76 97-91.87C312 281.773 268.571 237 215 237c-53.572 0-97 44.773-97 115.88 0 71.11 43.428 91.87 97 91.87" fill="#2d3e50"/><g fill="#f9db9d"><path d="M138.266 387.185c6.69 0 12.116-5.427 12.116-12.122s-5.425-12.123-12.116-12.123-12.116 5.428-12.116 12.123 5.425 12.122 12.116 12.122m153.468 0c6.691 0 12.116-5.427 12.116-12.122s-5.425-12.123-12.116-12.123-12.116 5.428-12.116 12.123 5.425 12.122 12.116 12.122"/></g></g><path d="M204.23 463.202h21.539v-18.099H204.23z" fill="#f9db9d"/><g><path d="M215 451.838c44.61 0 80.773-43.846 80.773-104.922S259.61 255 215 255s-80.773 30.84-80.773 91.916S170.39 451.838 215 451.838" fill="#f9db9d"/><g fill="#2d3e50"><path d="M177.556 371.281a8.193 8.193 0 0 0 8.19-8.195c0-4.527-3.666-8.196-8.19-8.196s-8.191 3.67-8.191 8.196a8.193 8.193 0 0 0 8.19 8.195m74.89 0a8.193 8.193 0 0 0 8.191-8.195c0-4.527-3.667-8.196-8.19-8.196s-8.192 3.67-8.192 8.196a8.193 8.193 0 0 0 8.191 8.195m-62.188 37.977c-.257.767-.415 1.553-.415 2.36 0 7.385 11.264 13.372 25.158 13.372 13.895 0 25.158-5.987 25.158-13.372 0-.807-.157-1.593-.415-2.36-2.1 6.258-12.366 11.013-24.743 11.013s-22.643-4.755-24.743-11.013"/><path d="M214.993 250c-69.468 2.459-88.202 52.625-81.594 113.451 0 0 .531-41.623 43.907-65.582 0 0 9.68-6.231 37.687-7.05s37.687 7.05 37.687 7.05c43.376 23.959 43.907 65.582 43.907 65.582 6.608-60.826-12.126-110.992-81.594-113.451"/><path d="M215 308.567c32.063 0 58.055-6.43 58.055-14.363 0-7.932-25.992-14.363-58.055-14.363s-58.055 6.431-58.055 14.363c0 7.933 25.992 14.363 58.055 14.363"/></g></g><path d="M215 478.806h17.993v-24.654H215z" fill="#f9db9d"/><g><path d="M257 481s10.14 91 12.14 101l-20 4-13.392-79.838v-21z" fill="#e84c3d"/><path d="M248.248 483.162S246.181 504 246.181 509s11.882 62 8.959 76l-12.892-12.838-4.688-89h9.688" fill="#c1392b"/><path d="M215 604V464c10 0 12.501-9.847 12.501-9.847 5.371 0 21.131.483 22 .847 3.562 1.174 7.822 5.35 7.822 13.937v18.857h-10.215c-2.812 12.633-4.4 19.467-1.7 29.549.394 1.474 1.601 8.654 1.601 8.654 2.075 12.09 7.542 50.561 10.141 78.003z" fill="#e84c3d"/></g><path d="M231.001 455l-13 14.664v26l-3 4v4l7-8v-26L236 455z" fill="#f1c40f"/><g fill="#f1c40f"><path d="M222.403 491.12c0-.215.895-.403 2.215-.5a2.116 2.116 0 0 0-.065.5c0 .174.026.34.065.502-1.32-.098-2.215-.285-2.215-.501m2.473-1.12c-.866-1.003-1.366-1.77-1.213-1.922.152-.152.918.348 1.922 1.213a2.14 2.14 0 0 0-.71.71m1.328-.967c.097-1.32.285-2.215.5-2.215s.404.895.502 2.215a2.122 2.122 0 0 0-.501-.064c-.174 0-.34.025-.501.064m1.62.257c1.004-.865 1.769-1.365 1.922-1.213.153.153-.348.919-1.213 1.923a2.14 2.14 0 0 0-.71-.71m.968 1.328c1.32.097 2.215.285 2.215.5s-.895.404-2.215.502c.038-.161.064-.328.064-.501 0-.174-.026-.34-.064-.501m-.258 1.62c.865 1.004 1.366 1.77 1.213 1.922-.153.153-.918-.348-1.922-1.213.29-.178.532-.42.709-.71m-1.327.967c-.098 1.32-.285 2.216-.501 2.216s-.404-.895-.501-2.216c.16.04.327.065.5.065.174 0 .34-.025.502-.065m-1.62-.257c-1.004.865-1.77 1.366-1.922 1.213-.153-.152.347-.918 1.213-1.922.177.29.419.53.709.709m1.118-.108a1.72 1.72 0 1 1 0-3.44 1.72 1.72 0 0 1 0 3.44m7.899 21.78c0-.216.895-.404 2.215-.501a2.116 2.116 0 0 0-.065.5c0 .174.026.34.065.502-1.32-.098-2.215-.285-2.215-.501m2.473-1.12c-.866-1.003-1.366-1.77-1.213-1.922.152-.152.918.348 1.922 1.213a2.14 2.14 0 0 0-.71.71m1.328-.967c.097-1.32.285-2.215.5-2.215s.404.895.502 2.215a2.122 2.122 0 0 0-.501-.064c-.174 0-.34.025-.501.064m1.62.257c1.004-.865 1.769-1.365 1.922-1.213.153.153-.348.919-1.213 1.923a2.14 2.14 0 0 0-.71-.71m.968 1.328c1.32.097 2.215.285 2.215.5s-.895.404-2.215.502c.038-.161.064-.328.064-.501 0-.174-.026-.34-.064-.501m-.258 1.62c.865 1.004 1.366 1.77 1.213 1.922-.153.153-.918-.348-1.922-1.213.29-.178.532-.42.709-.71m-1.327.967c-.098 1.32-.285 2.216-.501 2.216s-.404-.895-.501-2.216c.16.04.327.065.5.065.174 0 .34-.025.502-.065m-1.62-.257c-1.004.865-1.77 1.366-1.922 1.213-.153-.152.347-.918 1.213-1.922.177.29.419.53.709.709m1.119-.108a1.72 1.72 0 1 1 0-3.44 1.72 1.72 0 0 1 0 3.44m-15.898 34.706c0-.216.895-.404 2.215-.501a2.116 2.116 0 0 0-.065.5c0 .174.026.34.065.502-1.32-.098-2.215-.285-2.215-.501m2.473-1.12c-.866-1.003-1.366-1.77-1.213-1.922.152-.152.918.348 1.922 1.213a2.14 2.14 0 0 0-.71.71m1.328-.967c.097-1.32.285-2.215.5-2.215s.404.895.502 2.215a2.122 2.122 0 0 0-.501-.064c-.174 0-.34.025-.501.064m1.62.257c1.004-.865 1.769-1.365 1.922-1.213.153.153-.348.919-1.213 1.923a2.14 2.14 0 0 0-.71-.71m.968 1.328c1.32.097 2.215.285 2.215.5s-.895.404-2.215.502c.038-.161.064-.328.064-.501 0-.174-.026-.34-.064-.501m-.258 1.62c.865 1.004 1.366 1.77 1.213 1.922-.153.153-.918-.348-1.922-1.213.29-.178.532-.42.709-.71m-1.327.967c-.098 1.32-.285 2.216-.501 2.216s-.404-.895-.501-2.216c.16.04.327.065.5.065.174 0 .34-.025.502-.065m-1.62-.257c-1.004.865-1.77 1.366-1.922 1.213-.153-.152.347-.918 1.213-1.922.177.29.419.53.709.709m1.119-.108a1.72 1.72 0 1 1 0-3.44 1.72 1.72 0 0 1 0 3.44m14.013 14.265c0-.216.895-.404 2.215-.5a2.116 2.116 0 0 0-.065.5c0 .173.026.34.065.501-1.32-.098-2.215-.285-2.215-.5m2.473-1.12c-.866-1.004-1.366-1.77-1.213-1.923.152-.152.918.348 1.922 1.213a2.14 2.14 0 0 0-.709.71m1.327-.967c.097-1.32.285-2.215.501-2.215s.403.895.501 2.215a2.122 2.122 0 0 0-.5-.064c-.175 0-.34.025-.502.064m1.62.257c1.004-.865 1.77-1.365 1.922-1.213.153.153-.348.92-1.213 1.923a2.14 2.14 0 0 0-.709-.71m.967 1.328c1.32.097 2.215.285 2.215.501s-.895.403-2.215.501c.038-.16.064-.328.064-.5 0-.175-.026-.34-.064-.502m-.258 1.62c.865 1.004 1.366 1.77 1.213 1.922-.153.153-.918-.348-1.922-1.213.29-.178.532-.419.71-.709m-1.328.966c-.098 1.321-.285 2.216-.5 2.216s-.405-.895-.502-2.216c.161.04.327.065.501.065.173 0 .34-.025.501-.065m-1.62-.257c-1.004.865-1.77 1.366-1.922 1.213-.153-.152.347-.918 1.213-1.922.177.29.42.531.71.71m1.118-.109a1.72 1.72 0 1 1 0-3.44 1.72 1.72 0 0 1 0 3.44m-4.3-95.053c0-.216.894-.404 2.214-.5a2.116 2.116 0 0 0-.065.5c0 .173.026.34.065.501-1.32-.098-2.215-.285-2.215-.5m2.473-1.12c-.866-1.004-1.366-1.77-1.213-1.923.152-.152.918.348 1.922 1.213a2.14 2.14 0 0 0-.709.71m1.327-.967c.097-1.32.285-2.215.501-2.215s.403.895.501 2.215a2.122 2.122 0 0 0-.5-.064c-.175 0-.34.025-.502.064m1.62.257c1.004-.865 1.77-1.365 1.922-1.213.153.153-.348.92-1.213 1.923a2.14 2.14 0 0 0-.709-.71m.967 1.328c1.32.097 2.215.285 2.215.501s-.895.403-2.215.501c.038-.16.064-.328.064-.5 0-.175-.026-.34-.064-.502m-.258 1.62c.865 1.004 1.366 1.77 1.213 1.922-.153.153-.918-.348-1.922-1.213.29-.178.532-.419.71-.709m-1.328.966c-.098 1.321-.285 2.216-.5 2.216s-.405-.895-.502-2.216c.161.04.327.065.501.065.173 0 .34-.025.501-.065m-1.62-.257c-1.004.865-1.77 1.366-1.922 1.213-.153-.152.347-.918 1.213-1.922.177.29.42.531.71.71m1.118-.109a1.72 1.72 0 1 1 0-3.44 1.72 1.72 0 0 1 0 3.44"/></g><path d="M197.007 478.806H215v-24.654h-17.993z" fill="#f9db9d"/><g><path d="M173 481s-10.14 91-12.14 101l20 4 13.392-79.838v-21z" fill="#e84c3d"/><path d="M181.752 483.162S183.819 504 183.819 509s-11.882 62-8.959 76l12.892-12.838 4.688-89h-9.688" fill="#c1392b"/><path d="M215 604V464c-10 0-12.501-9.847-12.501-9.847-5.371 0-21.131.483-22 .847-3.562 1.174-7.823 5.35-7.823 13.937v18.857h10.216c2.812 12.633 4.4 19.467 1.7 29.549-.394 1.474-1.601 8.654-1.601 8.654-2.075 12.09-7.542 50.561-10.141 78.003z" fill="#e84c3d"/></g><path d="M198.999 455l13 14.664v26l3 4v4l-7-8v-26L194 455z" fill="#f1c40f"/><g fill="#f1c40f"><path d="M207.597 491.12c0-.215-.895-.403-2.215-.5.04.16.065.327.065.5 0 .174-.026.34-.065.502 1.32-.098 2.215-.285 2.215-.501m-2.473-1.12c.866-1.003 1.366-1.77 1.213-1.922-.152-.152-.918.348-1.922 1.213.29.178.532.42.71.71m-1.328-.967c-.097-1.32-.285-2.215-.5-2.215s-.404.895-.502 2.215c.161-.04.328-.064.501-.064.174 0 .34.025.501.064m-1.62.257c-1.004-.865-1.769-1.365-1.922-1.213-.153.153.348.919 1.213 1.923a2.14 2.14 0 0 1 .71-.71m-.968 1.328c-1.32.097-2.215.285-2.215.5s.895.404 2.215.502a2.176 2.176 0 0 1-.064-.501c0-.174.026-.34.064-.501m.258 1.62c-.865 1.004-1.366 1.77-1.213 1.922.153.153.918-.348 1.922-1.213a2.136 2.136 0 0 1-.709-.71m1.327.967c.098 1.32.285 2.216.501 2.216s.404-.895.501-2.216c-.16.04-.327.065-.5.065-.174 0-.34-.025-.502-.065m1.62-.257c1.004.865 1.77 1.366 1.922 1.213.153-.152-.347-.918-1.213-1.922-.177.29-.419.53-.709.709m-1.118-.108a1.72 1.72 0 1 0 0-3.44 1.72 1.72 0 0 0 0 3.44m-7.899 21.78c0-.216-.895-.404-2.215-.501.04.16.065.327.065.5 0 .174-.026.34-.065.502 1.32-.098 2.215-.285 2.215-.501m-2.473-1.12c.866-1.003 1.366-1.77 1.213-1.922-.152-.152-.918.348-1.922 1.213.29.178.532.42.71.71m-1.328-.967c-.097-1.32-.285-2.215-.5-2.215s-.404.895-.502 2.215c.161-.04.328-.064.501-.064.174 0 .34.025.501.064m-1.62.257c-1.004-.865-1.769-1.365-1.922-1.213-.153.153.348.919 1.213 1.923a2.14 2.14 0 0 1 .71-.71m-.968 1.328c-1.32.097-2.215.285-2.215.5s.895.404 2.215.502a2.176 2.176 0 0 1-.064-.501c0-.174.026-.34.064-.501m.258 1.62c-.865 1.004-1.366 1.77-1.213 1.922.153.153.918-.348 1.922-1.213a2.136 2.136 0 0 1-.709-.71m1.327.967c.098 1.32.285 2.216.501 2.216s.404-.895.501-2.216c-.16.04-.327.065-.5.065-.174 0-.34-.025-.502-.065m1.62-.257c1.004.865 1.77 1.366 1.922 1.213.153-.152-.347-.918-1.213-1.922-.177.29-.419.53-.709.709m-1.119-.108a1.72 1.72 0 1 0 0-3.44 1.72 1.72 0 0 0 0 3.44m15.898 34.706c0-.216-.895-.404-2.215-.501.04.16.065.327.065.5 0 .174-.026.34-.065.502 1.32-.098 2.215-.285 2.215-.501m-2.473-1.12c.866-1.003 1.366-1.77 1.213-1.922-.152-.152-.918.348-1.922 1.213.29.178.532.42.71.71m-1.328-.967c-.097-1.32-.285-2.215-.5-2.215s-.404.895-.502 2.215c.161-.04.328-.064.501-.064.174 0 .34.025.501.064m-1.62.257c-1.004-.865-1.769-1.365-1.922-1.213-.153.153.348.919 1.213 1.923a2.14 2.14 0 0 1 .71-.71m-.968 1.328c-1.32.097-2.215.285-2.215.5s.895.404 2.215.502a2.176 2.176 0 0 1-.064-.501c0-.174.026-.34.064-.501m.258 1.62c-.865 1.004-1.366 1.77-1.213 1.922.153.153.918-.348 1.922-1.213a2.136 2.136 0 0 1-.709-.71m1.327.967c.098 1.32.285 2.216.501 2.216s.404-.895.501-2.216c-.16.04-.327.065-.5.065-.174 0-.34-.025-.502-.065m1.62-.257c1.004.865 1.77 1.366 1.922 1.213.153-.152-.347-.918-1.213-1.922-.177.29-.419.53-.709.709m-1.119-.108a1.72 1.72 0 1 0 0-3.44 1.72 1.72 0 0 0 0 3.44m-14.013 14.265c0-.216-.895-.404-2.215-.5.039.16.065.326.065.5 0 .173-.026.34-.065.501 1.32-.098 2.215-.285 2.215-.5m-2.473-1.12c.866-1.004 1.366-1.77 1.213-1.923-.152-.152-.918.348-1.922 1.213.29.178.532.42.709.71m-1.327-.967c-.097-1.32-.285-2.215-.501-2.215s-.403.895-.501 2.215c.16-.039.328-.064.5-.064.175 0 .34.025.502.064m-1.62.257c-1.004-.865-1.77-1.365-1.922-1.213-.153.153.348.92 1.213 1.923a2.14 2.14 0 0 1 .709-.71m-.967 1.328c-1.32.097-2.215.285-2.215.501s.895.403 2.215.501a2.176 2.176 0 0 1-.064-.5c0-.175.026-.34.064-.502m.258 1.62c-.865 1.004-1.366 1.77-1.213 1.922.153.153.918-.348 1.922-1.213a2.136 2.136 0 0 1-.71-.709m1.328.966c.098 1.321.285 2.216.5 2.216s.405-.895.502-2.216c-.161.04-.327.065-.501.065-.173 0-.34-.025-.501-.065m1.62-.257c1.004.865 1.77 1.366 1.922 1.213.153-.152-.347-.918-1.213-1.922-.177.29-.42.531-.71.71m-1.118-.109a1.72 1.72 0 1 0 0-3.44 1.72 1.72 0 0 0 0 3.44m4.3-95.053c0-.216-.894-.404-2.214-.5.039.16.065.326.065.5 0 .173-.026.34-.065.501 1.32-.098 2.215-.285 2.215-.5m-2.473-1.12c.866-1.004 1.366-1.77 1.213-1.923-.152-.152-.918.348-1.922 1.213.29.178.532.42.709.71m-1.327-.967c-.097-1.32-.285-2.215-.501-2.215s-.403.895-.501 2.215c.16-.039.328-.064.5-.064.175 0 .34.025.502.064m-1.62.257c-1.004-.865-1.77-1.365-1.922-1.213-.153.153.348.92 1.213 1.923a2.14 2.14 0 0 1 .709-.71m-.967 1.328c-1.32.097-2.215.285-2.215.501s.895.403 2.215.501a2.176 2.176 0 0 1-.064-.5c0-.175.026-.34.064-.502m.258 1.62c-.865 1.004-1.366 1.77-1.213 1.922.153.153.918-.348 1.922-1.213a2.136 2.136 0 0 1-.71-.709m1.328.966c.098 1.321.285 2.216.5 2.216s.405-.895.502-2.216c-.161.04-.327.065-.501.065-.173 0-.34-.025-.501-.065m1.62-.257c1.004.865 1.77 1.366 1.922 1.213.153-.152-.347-.918-1.213-1.922-.177.29-.42.531-.71.71m-1.118-.109a1.72 1.72 0 1 0 0-3.44 1.72 1.72 0 0 0 0 3.44"/></g></g></svg>