<svg height="800" width="800" xmlns="http://www.w3.org/2000/svg"><g fill="none" fill-rule="evenodd"><g transform="translate(160 420)"><path d="m52.93 43.202c28.757 0 52.07-9.67 52.07-21.6 0-11.931-23.313-21.602-52.07-21.602s-52.07 9.671-52.07 21.601 23.313 21.601 52.07 21.601" fill="#2d3e50"/><path d="m12.537 67.795s0 29.633-2.692 40.408c-2.693 10.776-10.77 78.122-5.385 83.51s10.77 0 13.462 0 13.462-123.918 13.462-123.918zm14.215 241.83 1.018 17.534-.018.003-3 3c-1 1 0 2 6 1 5.055-.843 10.094-2.477 11.562-2.973l.438-.027s.039-6.708.235-18.537z" fill="#f9db9d"/><path d="m26.83 329.1s-24.986 11.062-11.118 11.062h24.928c3.307 0 2.153-12.123 2.153-12.123z" fill="#2d3e50"/></g><path d="m215 740.6007v-139.026l-38.803-1.067-.856 140.093z" fill="#f1c40f"/><path d="m195.795 729.625h19.205v-129.117h-19.205z" fill="#f1c40f"/><path d="m215 713.556-.14-.07-16.139 8.07 16.139 8.069.14-.07v-16zm-16.279-8.14 16.139 8.07.14-.07v-16l-.14-.07zm0-16.14 16.139 8.07.14-.07v-16l-.14-.07zm0-16.14 16.139 8.07.14-.07v-16l-.14-.07zm0-16.14 16.139 8.07.14-.07v-16l-.14-.07zm0-16.138 16.139 8.069.14-.07v-16l-.14-.07-16.139 8.07zm.279-16.14 16 8v-16zm0-16.14 16 8v-16z" fill="#e84c3d"/><path d="m193 740.601h2.795v-136.601h-2.795z" fill="#e84c3d"/><path d="m193.898 698.706h.971v-2.889h-.971zm0 5.777h.971v-2.889h-.971zm0 5.778h.971v-2.889h-.971zm0 5.777h.971v-2.889h-.971zm0 5.107h.971v-2.889h-.971zm0 5.777h.971v-2.889h-.971zm0 5.778h.971v-2.889h-.971zm0 5.777h.971v-2.888h-.971zm.029-84.86h.971v-2.888h-.971zm0 5.778h.971v-2.889h-.971zm0 5.778h.971v-2.889h-.971zm0 5.777h.971v-2.889h-.971zm0 5.107h.971v-2.889h-.971zm0 5.777h.971v-2.889h-.971zm0 5.778h.971v-2.889h-.971zm0 5.777h.971v-2.889h-.971zm-.008-84.376h.971v-2.889h-.971zm0 5.778h.971v-2.889h-.971zm0 5.777h.971v-2.889h-.971zm0 5.778h.971v-2.889h-.971zm0 5.106h.971v-2.889h-.971zm0 5.778h.971v-2.889h-.971zm0 5.777h.971v-2.888h-.971zm0 5.778h.971v-2.889h-.971z" fill="#f1c40f"/><path d="m181.987 740.601h2.795v-136.601h-2.795z" fill="#e84c3d"/><path d="m182.884 698.706h.971v-2.889h-.971zm0 5.777h.971v-2.889h-.971zm0 5.778h.971v-2.889h-.971zm0 5.777h.971v-2.889h-.971zm0 5.107h.971v-2.889h-.971zm0 5.777h.971v-2.889h-.971zm0 5.778h.971v-2.889h-.971zm0 5.777h.971v-2.888h-.971zm.029-84.86h.971v-2.888h-.971zm0 5.778h.971v-2.889h-.971zm0 5.778h.971v-2.889h-.971zm0 5.777h.971v-2.889h-.971zm0 5.107h.971v-2.889h-.971zm0 5.777h.971v-2.889h-.971zm0 5.778h.971v-2.889h-.971zm0 5.777h.971v-2.889h-.971zm-.007-84.376h.971v-2.889h-.971zm0 5.778h.971v-2.889h-.971zm0 5.777h.971v-2.889h-.971zm0 5.778h.971v-2.889h-.971zm0 5.106h.971v-2.889h-.971zm0 5.778h.971v-2.889h-.971zm0 5.777h.971v-2.888h-.971zm0 5.778h.971v-2.889h-.971z" fill="#f1c40f"/><path d="m184.782 741h8.218v-149.847h-8.218z" fill="#27ae61"/><path d="m196.867 478.806h17.993v-24.654h-17.993z" fill="#f9db9d"/><g transform="translate(160 454)"><path d="m13 27s-10.14 91-12.14 101l20 4 13.392-79.838v-21z" fill="#9a59b5"/><path d="m21.752 29.162s2.067 20.838 2.067 25.838-11.882 62-8.959 76l12.892-12.838 4.688-89h-9.688" fill="#8d44ad"/><path d="m55 150v-140c-10 0-12.501-9.847-12.501-9.847-5.371 0-21.131.483-22 .847-3.562 1.174-7.823 5.35-7.823 13.937v18.857h10.216c2.812 12.633 4.4 19.467 1.7 29.549-.394 1.474-1.601 8.654-1.601 8.654-2.075 12.09-7.542 50.561-10.141 78.003z" fill="#9a59b5"/><path d="m28.891 156.694a1.847 1.847 0 1 0 0-3.694 1.847 1.847 0 0 0 0 3.694m0 33.084a1.846 1.846 0 1 0 .002-3.692 1.846 1.846 0 0 0 -.002 3.692m0-16.094a1.847 1.847 0 1 0 0-3.695 1.847 1.847 0 0 0 0 3.695m0 33.085a1.847 1.847 0 1 0 0-3.694 1.847 1.847 0 0 0 0 3.695m0-41.582a1.847 1.847 0 1 0 0-3.694 1.847 1.847 0 0 0 0 3.695m0 33.085a1.847 1.847 0 1 0 0-3.694 1.847 1.847 0 0 0 0 3.694m0-16.095a1.847 1.847 0 1 0 0-3.694 1.847 1.847 0 0 0 0 3.694m0 33.085a1.847 1.847 0 1 0 0-3.694 1.847 1.847 0 0 0 0 3.694m0 8.513a1.846 1.846 0 1 0 .001-3.693 1.846 1.846 0 0 0 -.001 3.693m0 33.085a1.847 1.847 0 1 0 0-3.694 1.847 1.847 0 0 0 0 3.694m0-16.095a1.846 1.846 0 1 0 .002-3.693 1.846 1.846 0 0 0 -.002 3.693m0 33.086a1.846 1.846 0 1 0 .001-3.693 1.846 1.846 0 0 0 -.001 3.692m0-41.58a1.846 1.846 0 1 0 .001-3.693 1.846 1.846 0 0 0 -.001 3.692m0 33.086a1.846 1.846 0 1 0 .001-3.692 1.846 1.846 0 0 0 -.001 3.692m0-16.095a1.846 1.846 0 1 0 .002-3.693 1.846 1.846 0 0 0 -.002 3.693m0 33.085a1.846 1.846 0 1 0 .002-3.693 1.846 1.846 0 0 0 -.002 3.693" fill="#f1c40f"/></g><path d="m207.209 604h.499v-139.999h-.499z" fill="#8d44ad"/><g transform="translate(227 487)"><path d="m30.463.795s0 29.633 2.692 40.408c2.693 10.776 10.77 78.122 5.385 83.51s-10.77 0-13.462 0-13.462-123.918-13.462-123.918zm-14.215 241.83-1.018 17.535.018.003 3 3c1 1 0 2-6 1-5.055-.843-10.094-2.477-11.562-2.973l-.438-.027s-.039-6.708-.235-18.537h16.235z" fill="#f9db9d"/><path d="m16.17 262.1s24.986 11.062 11.118 11.062h-24.928c-3.307 0-2.153-12.123-2.153-12.123z" fill="#2d3e50"/></g><path d="m215 740.6007v-139.026l38.803-1.067.856 140.093z" fill="#f1c40f"/><path d="m215 729.625h19.205v-129.117h-19.205z" fill="#f1c40f"/><path d="m215 713.556.14-.07 16.139 8.07-16.139 8.069-.14-.07v-16zm16.279-8.14-16.139 8.07-.14-.07v-16l.14-.07zm0-16.14-16.139 8.07-.14-.07v-16l.14-.07zm0-16.14-16.139 8.07-.14-.07v-16l.14-.07zm0-16.14-16.139 8.07-.14-.07v-16l.14-.07zm0-16.138-16.139 8.069-.14-.07v-16l.14-.07 16.139 8.07zm-.279-16.14-16 8v-16zm0-16.14-16 8v-16z" fill="#e84c3d"/><path d="m234.205 740.601h2.795v-136.601h-2.795z" fill="#e84c3d"/><path d="m235.131 698.706h.971v-2.889h-.971zm0 5.777h.971v-2.889h-.971zm0 5.778h.971v-2.889h-.971zm0 5.777h.971v-2.889h-.971zm0 5.107h.971v-2.889h-.971zm0 5.777h.971v-2.889h-.971zm0 5.778h.971v-2.889h-.971zm0 5.777h.971v-2.888h-.971zm-.029-84.86h.971v-2.888h-.971zm0 5.778h.971v-2.889h-.971zm0 5.778h.971v-2.889h-.971zm0 5.777h.971v-2.889h-.971zm0 5.107h.971v-2.889h-.971zm0 5.777h.971v-2.889h-.971zm0 5.778h.971v-2.889h-.971zm0 5.777h.971v-2.889h-.971zm.007-84.376h.972v-2.889h-.972zm0 5.778h.972v-2.889h-.972zm0 5.777h.972v-2.889h-.972zm0 5.778h.972v-2.889h-.972zm0 5.106h.972v-2.889h-.972zm0 5.778h.972v-2.889h-.972zm0 5.777h.972v-2.888h-.972zm0 5.778h.972v-2.889h-.972z" fill="#f1c40f"/><path d="m245.218 740.601h2.795v-136.601h-2.795z" fill="#e84c3d"/><path d="m246.145 698.706h.971v-2.889h-.971zm0 5.777h.971v-2.889h-.971zm0 5.778h.971v-2.889h-.971zm0 5.777h.971v-2.889h-.971zm0 5.107h.971v-2.889h-.971zm0 5.777h.971v-2.889h-.971zm0 5.778h.971v-2.889h-.971zm0 5.777h.971v-2.888h-.971zm-.029-84.86h.971v-2.888h-.971zm0 5.778h.971v-2.889h-.971zm0 5.778h.971v-2.889h-.971zm0 5.777h.971v-2.889h-.971zm0 5.107h.971v-2.889h-.971zm0 5.777h.971v-2.889h-.971zm0 5.778h.971v-2.889h-.971zm0 5.777h.971v-2.889h-.971zm.006-84.376h.972v-2.889h-.972zm0 5.778h.972v-2.889h-.972zm0 5.777h.972v-2.889h-.972zm0 5.778h.972v-2.889h-.972zm0 5.106h.972v-2.889h-.972zm0 5.778h.972v-2.889h-.972zm0 5.777h.972v-2.888h-.972zm0 5.778h.972v-2.889h-.972z" fill="#f1c40f"/><path d="m237 741h8.218v-149.847h-8.218z" fill="#27ae61"/><path d="m215.14 478.806h17.993v-24.654h-17.993z" fill="#f9db9d"/><g transform="translate(215 454)"><path d="m42 27s10.14 91 12.14 101l-20 4-13.392-79.838v-21z" fill="#9a59b5"/><path d="m33.248 29.162s-2.067 20.838-2.067 25.838 11.882 62 8.959 76l-12.892-12.838-4.688-89h9.688" fill="#8d44ad"/><path d="m0 150v-140c10 0 12.501-9.847 12.501-9.847 5.371 0 21.131.483 22 .847 3.562 1.174 7.822 5.35 7.822 13.937v18.857h-10.215c-2.812 12.633-4.4 19.467-1.7 29.549.394 1.474 1.601 8.654 1.601 8.654 2.075 12.09 7.542 50.561 10.141 78.003z" fill="#9a59b5"/><path d="m26.109 156.694a1.847 1.847 0 1 1 0-3.694 1.847 1.847 0 0 1 0 3.694m0 33.084a1.846 1.846 0 1 1 -.002-3.692 1.846 1.846 0 0 1 .002 3.692m0-16.094a1.847 1.847 0 1 1 0-3.695 1.847 1.847 0 0 1 0 3.695m0 33.085a1.847 1.847 0 1 1 0-3.694 1.847 1.847 0 0 1 0 3.695m0-41.582a1.847 1.847 0 1 1 0-3.694 1.847 1.847 0 0 1 0 3.695m0 33.085a1.847 1.847 0 1 1 0-3.694 1.847 1.847 0 0 1 0 3.694m0-16.095a1.847 1.847 0 1 1 0-3.694 1.847 1.847 0 0 1 0 3.694m0 33.085a1.847 1.847 0 1 1 0-3.694 1.847 1.847 0 0 1 0 3.694m0 8.513a1.846 1.846 0 1 1 -.001-3.693 1.846 1.846 0 0 1 .001 3.693m0 33.085a1.847 1.847 0 1 1 0-3.694 1.847 1.847 0 0 1 0 3.694m0-16.095a1.846 1.846 0 1 1 -.002-3.693 1.846 1.846 0 0 1 .002 3.693m0 33.086a1.846 1.846 0 1 1 -.001-3.693 1.846 1.846 0 0 1 .001 3.692m0-41.58a1.846 1.846 0 1 1 -.001-3.693 1.846 1.846 0 0 1 .001 3.692m0 33.086a1.846 1.846 0 1 1 -.001-3.692 1.846 1.846 0 0 1 .001 3.692m0-16.095a1.846 1.846 0 1 1 -.002-3.693 1.846 1.846 0 0 1 .002 3.693m0 33.085a1.846 1.846 0 1 1 -.002-3.693 1.846 1.846 0 0 1 .002 3.693" fill="#f1c40f"/></g><path d="m222.291 604h.5v-139.999h-.5z" fill="#8d44ad"/><g transform="translate(118 237)"><path d="m97 207.749c53.572 0 97-20.76 97-91.87 0-71.106-43.429-115.879-97-115.879-53.573 0-97 44.773-97 115.88 0 71.11 43.428 91.87 97 91.87" fill="#2d3e50"/><path d="m20.266 150.185c6.69 0 12.116-5.427 12.116-12.122s-5.425-12.123-12.116-12.123-12.116 5.428-12.116 12.123 5.425 12.122 12.116 12.122m153.468 0c6.691 0 12.116-5.427 12.116-12.122s-5.425-12.123-12.116-12.123c-6.69 0-12.116 5.428-12.116 12.123s5.425 12.122 12.116 12.122" fill="#f9db9d"/></g><path d="m204.23 463.202h21.539v-18.099h-21.539z" fill="#f9db9d"/><g transform="translate(110 228)"><path d="m105 223.838c44.61 0 80.773-43.846 80.773-104.922s-36.163-91.916-80.773-91.916-80.773 30.84-80.773 91.916 36.163 104.922 80.773 104.922" fill="#f9db9d"/><g fill="#2d3e50"><path d="m67.556 143.281a8.193 8.193 0 0 0 8.19-8.195 8.193 8.193 0 0 0 -8.19-8.196 8.193 8.193 0 0 0 -8.191 8.196 8.193 8.193 0 0 0 8.19 8.195m74.89 0a8.193 8.193 0 0 0 8.191-8.195 8.193 8.193 0 0 0 -8.19-8.196 8.193 8.193 0 0 0 -8.192 8.196 8.193 8.193 0 0 0 8.191 8.195m-62.188 37.977c-.257.767-.415 1.553-.415 2.36 0 7.385 11.264 13.372 25.158 13.372 13.895 0 25.158-5.987 25.158-13.372 0-.807-.157-1.593-.415-2.36-2.1 6.258-12.366 11.013-24.743 11.013s-22.643-4.755-24.743-11.013"/><path d="m104.993 22c-69.468 2.459-88.202 52.625-81.594 113.451 0 0 .531-41.623 43.907-65.582 0 0 9.68-6.231 37.687-7.05s37.687 7.05 37.687 7.05c43.376 23.959 43.907 65.582 43.907 65.582 6.608-60.826-12.126-110.992-81.594-113.451"/><path d="m105 80.567c32.063 0 58.055-6.43 58.055-14.363 0-7.932-25.992-14.363-58.055-14.363s-58.055 6.431-58.055 14.363c0 7.933 25.992 14.363 58.055 14.363"/></g><path d="m206.1 139.114c.096-2.356.15-4.727.15-7.114 0-72.902-45.331-132-101.25-132-55.918 0-101.25 59.098-101.25 132 0 2.387.055 4.758.15 7.114 2.837-62.476 47.014-112.114 101.1-112.114 54.088 0 98.264 49.638 101.1 112.114" fill="#e84c3d"/><path d="m193.85 84s-.906 71.517-15.85 97.259c-14.944 25.741-57.849 36.49-73.007 67.741-9.839 20.284-9.993 58-9.993 58l35.158 6s-8.468-47.142-2.158-57c16-25 21.227-22 51-47 10.035-8.427 29.84-38.689 28.5-69.886-1.25-29.114-13.65-55.114-13.65-55.114" fill="#e84c3d"/><path d="m15.343 84s-11.593 59.281 17.735 97.259c30.474 39.461 40.922 44.893 64.922 46.741 22.616 1.74 50 7.202 50 7.202v15.798s-61-3-81-8c-11.52-2.88-30-16.848-42.619-31-9.487-10.64-24.38-28-24.31-72.886.044-29.147 15.271-55.114 15.271-55.114" fill="#e84c3d"/></g><path d="m242 478-27-2 25 5z" fill="#c1392b"/><path d="m255 463.2021-26-5.202 3-2z" fill="#c1392b"/><path d="m542 454s20-15 43-15 42 15 42 15z" fill="#c1392b"/><path d="m570.84 461.88h28.32v-23.797h-28.32z" fill="#f9db9d"/><g transform="translate(481 232)"><path d="m104 233.422c7.82 0 14.16-1.586 14.16-3.542s-6.34-3.542-14.16-3.542-14.16 1.586-14.16 3.542 6.34 3.542 14.16 3.542m90.217-86.939c7.204 0 13.043-5.84 13.043-13.043 0-7.204-5.839-13.044-13.043-13.044s-13.043 5.84-13.043 13.044c0 7.203 5.839 13.043 13.043 13.043m-180.434 0c7.204 0 13.043-5.84 13.043-13.043 0-7.204-5.839-13.044-13.043-13.044s-13.043 5.84-13.043 13.044c0 7.203 5.839 13.043 13.043 13.043" fill="#f9db9d"/><path d="m104 173.678c52.827 0 108.457-29.678 92.108-97.304-8.906-36.84-39.281-76.24-92.108-76.24s-91.07 60.74-93.526 76.24c-11.348 71.626 40.699 97.304 93.526 97.304" fill="#2d3e50"/><path d="m104 214.417c47.424 0 85.869-41.85 85.869-93.478 0-51.625-38.445-99.998-85.869-99.998s-85.869 48.373-85.869 99.998c0 51.627 38.445 93.478 85.869 93.478" fill="#f9db9d"/><path d="m68.477 130.099a7.871 7.871 0 0 0 7.869-7.873 7.871 7.871 0 0 0 -7.87-7.873 7.871 7.871 0 0 0 -7.868 7.873 7.871 7.871 0 0 0 7.869 7.873m71.942 0a7.871 7.871 0 0 0 7.869-7.873 7.871 7.871 0 0 0 -7.87-7.873 7.871 7.871 0 0 0 -7.868 7.873 7.871 7.871 0 0 0 7.869 7.873m-59.74 36.482c-.248.737-.4 1.492-.4 2.267 0 7.095 10.821 12.846 24.168 12.846 13.348 0 24.17-5.75 24.17-12.846 0-.775-.153-1.53-.4-2.267-2.018 6.012-11.88 10.58-23.77 10.58-11.889 0-21.75-4.568-23.769-10.58" fill="#2d3e50"/></g><path d="m487.635 322.23h193.5v-97.183h-193.5z" fill="#34495e"/><g transform="translate(585 480)"><g fill="#2d3e50"><path d="m54.392 264.059s21.886 1.953 21.886 11.717v5.858h-68.346v-17.575z"/><path d="m54.017 264.059s21.886 1.953 21.886 11.717v5.858h-68.346v-17.575z"/><path d="m7.472 266-7.472-123s9.228-13.495 2.714-13.495v-25.621l45.6 27.116-5.12 133.932-35.721 1.068z"/></g><path d="m54.748.019s4.348 56.522 6.522 67.391c2.174 10.87 6.52 56.522 0 63.043-6.522 6.522-26.087 2.174-28.261-15.217s-6.522-78.261-6.522-78.261v-36.956h28.26z" fill="#f9db9d"/></g><path d="m642.6966 495.3835 9.869 92.435-24.75 5.065-6.75-97.5z" fill="#ecf0f1"/><path d="m629.3156 482.6335 8.684 108.366-7.399 1.884z" fill="#bec3c7"/><path d="m598.602 445.134 8.021 8.02c2.49-.135 5.248-.215 8.33-.215 26.541 0 27.744 42.678 27.744 42.678h-12.544l4.548 141.548s-40.635.158-44.385.158-5.316-6-5.316-6v-172.69l13.602-13.5z" fill="#ecf0f1"/><path d="m596.583 593.291h30v-1h-30z" fill="#bec3c7"/><path d="m585 615h.25v-157h-.25z" fill="#bec3c7"/><g transform="translate(508 480)"><g fill="#2d3e50"><path d="m22.608 264.059s-21.886 1.953-21.886 11.717v5.858h68.346v-17.575z"/><path d="m22.983 264.059s-21.886 1.953-21.886 11.717v5.858h68.346v-17.575z"/><path d="m69.528 266 7.472-123s-9.228-13.495-2.714-13.495v-25.621l-45.6 27.116 5.12 133.932 35.721 1.068z"/></g><path d="m22.252.019s-4.348 56.522-6.522 67.391c-2.174 10.87-6.52 56.522 0 63.043 6.522 6.522 26.087 2.174 28.261-15.217s6.522-78.261 6.522-78.261v-36.956h-28.26z" fill="#f9db9d"/></g><path d="m527.3034 495.3835-9.869 92.435 24.75 5.065 6.75-97.5z" fill="#ecf0f1"/><path d="m540.6844 482.6335-8.684 108.366 7.399 1.884z" fill="#bec3c7"/><path d="m571.398 445.134-8.021 8.02a152.548 152.548 0 0 0 -8.33-.215c-26.541 0-27.744 42.678-27.744 42.678h12.544l-4.548 141.548s40.635.158 44.385.158 5.316-6 5.316-6v-172.69l-13.602-13.5z" fill="#ecf0f1"/><path d="m543.417 593.291h30v-1h-30z" fill="#bec3c7"/><path d="m584.75 615h.25v-157h-.25z" fill="#bec3c7"/><path d="m607 564v-112l20 2v110z" fill="#c74d40"/><path d="m607 452v103.226h10v-102.226z" fill="#c1392b"/><g fill="#c74d40"><path d="m612.0349 542.6733 4.035 5.559-4.035 5.558-4.035-5.559z"/><path d="m612.0349 520.439 4.035 5.559-4.035 5.558-4.035-5.558z"/><path d="m612.0349 498.2051 4.035 5.559-4.035 5.558-4.035-5.559z"/><path d="m611.9651 475.9707 4.035 5.559-4.035 5.558-4.035-5.558z"/><path d="m612.0347 531.5559 4.035 5.559-4.035 5.558-4.034-5.558z"/><path d="m612.0349 509.3218 4.035 5.559-4.035 5.558-4.035-5.558z"/><path d="m612.0349 487.0879 4.035 5.558-4.035 5.559-4.035-5.558z"/><path d="m612.0347 464.8538 4.035 5.559-4.035 5.558-4.035-5.558z"/><path d="m611.9651 453.4351 4.035 5.559-4.035 5.558-4.035-5.558z"/></g><path d="m618.372 555.226h7.255v-1.677h-7.255zm0-3.353h7.255v-1.677h-7.255zm0-3.354h7.255v-1.676h-7.255zm0-2.963h7.255v-1.677h-7.255zm0-3.353h7.255v-1.677h-7.255zm0-3.353h7.255v-1.677h-7.255zm0-3.353h7.255v-1.677h-7.255zm0-26.168h7.256v-1.677h-7.256zm0 3.352h7.256v-1.676h-7.256zm0 3.353h7.256v-1.676h-7.256zm0 3.353h7.256v-1.676h-7.256zm0 2.965h7.256v-1.677h-7.256zm0 3.353h7.256v-1.677h-7.256zm0 3.353h7.256v-1.677h-7.256zm0 3.352h7.256v-1.676h-7.256zm0-48.968h7.256v-1.677h-7.256zm0 3.353h7.256v-1.677h-7.256zm0 3.353h7.256v-1.677h-7.256zm0 3.353h7.256v-1.676h-7.256zm0 2.963h7.256v-1.676h-7.256zm0 3.354h7.256v-1.677h-7.256zm0 3.353h7.256v-1.677h-7.256zm0 3.353h7.256v-1.677h-7.256zm0-49.305h7.256v-1.676h-7.256zm0 3.354h7.256v-1.677h-7.256zm0 3.354h7.256v-1.677h-7.256zm0 3.353h7.256v-1.677h-7.256zm0 2.962h7.256v-1.676h-7.256zm0 3.353h7.256v-1.676h-7.256zm0 3.353h7.256v-1.676h-7.256zm0 3.354h7.256v-1.677h-7.256z" fill="#c1392b"/><path d="m562 564v-112l-20 2v110z" fill="#c74d40"/><path d="m562 452v103.226h-10v-102.226z" fill="#c1392b"/><path d="m556.9651 542.6733-4.035 5.559 4.035 5.558 4.035-5.559z" fill="#c74d40"/><path d="m556.9651 520.439-4.035 5.559 4.035 5.558 4.035-5.558z" fill="#c74d40"/><path d="m556.9651 498.2051-4.035 5.559 4.035 5.558 4.035-5.559z" fill="#c74d40"/><path d="m557.0349 475.9707-4.035 5.559 4.035 5.558 4.035-5.558z" fill="#c74d40"/><path d="m556.9653 531.5559-4.035 5.559 4.035 5.558 4.034-5.558z" fill="#c74d40"/><path d="m556.9651 509.3218-4.035 5.559 4.035 5.558 4.035-5.558z" fill="#c74d40"/><path d="m556.9651 487.0879-4.035 5.558 4.035 5.559 4.035-5.558z" fill="#c74d40"/><path d="m556.9653 464.8538-4.035 5.559 4.035 5.558 4.035-5.558z" fill="#c74d40"/><path d="m557.0349 453.4351-4.035 5.559 4.035 5.558 4.035-5.558z" fill="#c74d40"/><path d="m543.372 555.226h7.256v-1.677h-7.256zm0-3.353h7.256v-1.677h-7.256zm0-3.354h7.256v-1.676h-7.256zm0-2.963h7.256v-1.677h-7.256zm0-3.353h7.256v-1.677h-7.256zm0-3.353h7.256v-1.677h-7.256zm0-3.353h7.256v-1.677h-7.256zm0-26.168h7.256v-1.677h-7.256zm0 3.352h7.256v-1.676h-7.256zm0 3.353h7.256v-1.676h-7.256zm0 3.353h7.256v-1.676h-7.256zm0 2.965h7.256v-1.677h-7.256zm0 3.353h7.256v-1.677h-7.256zm0 3.353h7.256v-1.677h-7.256zm0 3.352h7.256v-1.676h-7.256zm0-48.968h7.256v-1.677h-7.256zm0 3.353h7.256v-1.677h-7.256zm0 3.353h7.256v-1.677h-7.256zm0 3.353h7.256v-1.676h-7.256zm0 2.963h7.256v-1.676h-7.256zm0 3.354h7.256v-1.677h-7.256zm0 3.353h7.256v-1.677h-7.256zm0 3.353h7.256v-1.677h-7.256zm0-49.305h7.256v-1.676h-7.256zm0 3.354h7.256v-1.677h-7.256zm0 3.354h7.256v-1.677h-7.256zm0 3.353h7.256v-1.677h-7.256zm0 2.962h7.256v-1.676h-7.256zm0 3.353h7.256v-1.676h-7.256zm0 3.353h7.256v-1.676h-7.256zm0 3.354h7.256v-1.677h-7.256z" fill="#c1392b"/></g></svg>