<svg height="800" width="800" xmlns="http://www.w3.org/2000/svg"><g fill="none" fill-rule="evenodd"><g fill="#2d3e50"><path d="m639.392 744.059s21.886 1.953 21.886 11.717v5.858h-68.346v-17.575zm-108.784 0s-21.886 1.953-21.886 11.717v5.858h68.346v-17.575z"/><path d="m639.017 744.059s21.886 1.953 21.886 11.717v5.858h-68.346v-17.575z"/></g><path d="m592.472 746-7.472-127s9.228-9.495 2.714-9.495v-25.621l45.6 27.116-5.12 133.932z" fill="#e84c3d"/><path d="m607.847 742h5.333v-2h-5.333zm-10.666 0h5.333v-2h-5.333zm21.333 0h5.333v-2h-5.333z" fill="#f1c40f"/><path d="m600.304 715a1.5 1.5 0 1 1 0 3 1.5 1.5 0 0 1 0-3m23.5 0a1.5 1.5 0 1 1 0 3 1.5 1.5 0 0 1 0-3m-12.148 17a1.5 1.5 0 1 1 0 3 1.5 1.5 0 0 1 0-3" fill="#f1c40f"/><path d="m530.983 744.059s-21.886 1.953-21.886 11.717v5.858h68.346v-17.575z" fill="#2d3e50"/><path d="m577.528 746 7.472-123s-9.228-13.495-2.714-13.495v-25.621l-45.6 27.116 5.12 133.932z" fill="#e84c3d"/><path d="m556.82 742h5.333v-2h-5.333zm10.666 0h5.333v-2h-5.333zm-21.333 0h5.333v-2h-5.333z" fill="#f1c40f"/><path d="m569.696 715a1.5 1.5 0 1 0 0 3 1.5 1.5 0 0 0 0-3m-23.5 0a1.5 1.5 0 1 0 0 3 1.5 1.5 0 0 0 0-3m12.148 17a1.5 1.5 0 1 0 0 3 1.5 1.5 0 0 0 0-3" fill="#f1c40f"/><path d="m565 672.758h68.375v-77.241h-68.375z" fill="#8d44ad"/><path d="m573.592 650.244-8.592 8.592 8.592 8.592 8.592-8.592zm34.188 0-8.592 8.592 8.592 8.592 8.592-8.592z" fill="#9857b5"/><path d="m590.596 650.244-8.592 8.592 8.592 8.592 8.592-8.592zm34.188 0-8.592 8.592 8.592 8.592 8.592-8.592zm-59.784-4.601h68.375v-3h-68.375z" fill="#9857b5"/><path d="m536.625 647.517h48.25v-52h-48.25z" fill="#9a59b5"/><path d="m560.834 629.165-8.07 8.07 8.07 8.07 8.07-8.07z" fill="#a46abc"/><path d="m544.694 629.165-8.07 8.07 8.07 8.07 8.07-8.07zm32.11 0-8.07 8.07 8.07 8.07 8.07-8.07zm-40.179-3.739h48.25v-2h-48.25z" fill="#a46abc"/><path d="m587.625 642.643h3v-47.126h-3z" fill="#9857b5"/><path d="m539.75 624.226h3v-28.709h-3z" fill="#a46abc"/><path d="m597.375 642.643h3v-47.126h-3z" fill="#9857b5"/><path d="m549.5 624.226h3v-28.709h-3z" fill="#a46abc"/><path d="m607.125 642.643h3v-47.126h-3z" fill="#9857b5"/><path d="m559.25 624.226h3v-28.709h-3z" fill="#a46abc"/><path d="m616.875 642.643h3v-47.126h-3z" fill="#9857b5"/><path d="m569 624.226h3v-28.709h-3z" fill="#a46abc"/><path d="m626.625 642.643h3v-47.126h-3z" fill="#9857b5"/><path d="m578.75 624.226h3v-28.709h-3z" fill="#a46abc"/><path d="m570.84 461.88h28.32v-23.797h-28.32z" fill="#f9db9d"/><path d="m585 465.422c7.82 0 14.16-1.586 14.16-3.542s-6.34-3.542-14.16-3.542-14.16 1.586-14.16 3.542 6.34 3.542 14.16 3.542m90.217-86.939c7.204 0 13.043-5.84 13.043-13.043 0-7.204-5.839-13.044-13.043-13.044s-13.043 5.84-13.043 13.044c0 7.203 5.839 13.043 13.043 13.043m-180.434 0c7.204 0 13.043-5.84 13.043-13.043 0-7.204-5.839-13.044-13.043-13.044s-13.043 5.84-13.043 13.044c0 7.203 5.839 13.043 13.043 13.043" fill="#f9db9d"/><path d="m585 405.678c52.827 0 108.457-29.678 92.108-97.304-8.906-36.84-39.281-76.24-92.108-76.24s-91.07 60.74-93.526 76.24c-11.348 71.626 40.699 97.304 93.526 97.304" fill="#2d3e50"/><path d="m585 446.418c47.424 0 85.869-41.851 85.869-93.478 0-51.626-38.445-100-85.869-100s-85.869 48.374-85.869 100c0 51.627 38.445 93.478 85.869 93.478" fill="#f9db9d"/><path d="m549.477 362.099c4.346 0 7.869-3.525 7.869-7.873s-3.523-7.873-7.87-7.873-7.868 3.525-7.868 7.873 3.523 7.873 7.869 7.873m71.942 0c4.346 0 7.869-3.525 7.869-7.873s-3.523-7.873-7.87-7.873-7.868 3.525-7.868 7.873 3.523 7.873 7.869 7.873m-59.74 36.482c-.248.737-.4 1.492-.4 2.267 0 7.095 10.821 12.846 24.168 12.846 13.348 0 24.17-5.75 24.17-12.846 0-.775-.153-1.53-.4-2.267-2.018 6.012-11.88 10.58-23.77 10.58-11.889 0-21.75-4.568-23.769-10.58" fill="#2d3e50"/><path d="m530.252 480.019s-4.348 56.522-6.522 67.391c-2.174 10.87-6.52 56.522 0 63.043 6.522 6.522 26.087 2.174 28.261-15.217s6.522-78.261 6.522-78.261v-36.956z" fill="#f9db9d"/><path d="m527.303 495.384-9.869 92.435 24.75 5.065 6.75-97.5z" fill="#e84c3d"/><path d="m540.684 482.634-11.384 107.366 10.1 2.884z" fill="#c1392b"/><path d="m571.398 445.134-8.021 8.02a152.548 152.548 0 0 0 -8.33-.215c-26.541 0-27.744 42.678-27.744 42.678h12.544l-4.548 127.375s40.635.158 44.385.158 5.316-6 5.316-6v-158.516z" fill="#e84c3d"/><path d="m577.943 529.422h2v-5.333h-2zm0-10.666h2v-5.333h-2zm0 21.333h2v-5.333h-2zm0-64h2v-5.333h-2zm0 21.333h2v-5.333h-2zm0-10.666h2v-5.333h-2zm0 21.333h2v-5.333h-2zm0 42.667h2v-5.333h-2zm0 21.333h2v-5.333h-2zm0-10.667h2v-5.333h-2zm0 21.334h2v-5.333h-2zm0 10.666h2v-5.333h-2zm0 21.334h2v-5.333h-2zm0-10.667h2v-5.333h-2zm-11.728-148.59 3.77 3.771 1.416-1.414-3.772-3.771zm7.542 7.543 3.771 3.77 1.414-1.413-3.77-3.771zm-47.892 121.285-5.217-1.11-.416 1.958 5.217 1.108z" fill="#f1c40f"/><path d="m536.299 586.544-5.217-1.109-.416 1.956 5.217 1.11z" fill="#f39c11"/><path d="m568.686 619.627h5.333v-2h-5.333zm-21.333 0h5.333v-2h-5.333zm10.666 0h5.333v-2h-5.333zm-21.333 0h5.333v-2h-5.333z" fill="#f1c40f"/><path d="m543.299 613a1.5 1.5 0 1 0 0-3 1.5 1.5 0 0 0 0 3m23.5 0a1.5 1.5 0 1 0 0-3 1.5 1.5 0 0 0 0 3m-12.147-17a1.5 1.5 0 1 0 0-3 1.5 1.5 0 0 0 0 3m-9.558-64a1.5 1.5 0 1 0 0-3 1.5 1.5 0 0 0 0 3m23.5 0a1.5 1.5 0 1 0 0-3 1.5 1.5 0 0 0 0 3m-12.148-17a1.5 1.5 0 1 0 0-3 1.5 1.5 0 0 0 0 3m-12.044 60a1.5 1.5 0 1 0 0-3 1.5 1.5 0 0 0 0 3m23.5 0a1.5 1.5 0 1 0 0-3 1.5 1.5 0 0 0 0 3m-12.148-17a1.5 1.5 0 1 0 0-3 1.5 1.5 0 0 0 0 3m-9.558-64a1.5 1.5 0 1 0 0-3 1.5 1.5 0 0 0 0 3m23.5 0a1.5 1.5 0 1 0 0-3 1.5 1.5 0 0 0 0 3m-12.147-17a1.5 1.5 0 1 0 0-3 1.5 1.5 0 0 0 0 3" fill="#f1c40f"/><path d="m639.748 480.019s4.348 56.522 6.522 67.391c2.174 10.87 6.52 56.522 0 63.043-6.522 6.522-26.087 2.174-28.261-15.217s-6.522-78.261-6.522-78.261v-36.956z" fill="#f9db9d"/><path d="m642.697 495.384 9.869 92.435-24.75 5.065-6.75-97.5z" fill="#e84c3d"/><path d="m629.316 482.634 11.384 107.366-10.1 2.884z" fill="#c1392b"/><path d="m598.602 445.134 8.021 8.02c2.49-.135 5.248-.215 8.33-.215 26.541 0 27.744 42.678 27.744 42.678h-12.544l4.548 127.375s-40.635.158-44.385.158-5.316-6-5.316-6v-158.516z" fill="#e84c3d"/><path d="m590.057 529.422h2v-5.333h-2zm0-10.666h2v-5.333h-2zm0 21.333h2v-5.333h-2zm0-64h2v-5.333h-2zm0 21.333h2v-5.333h-2zm0-10.666h2v-5.333h-2zm0 21.333h2v-5.333h-2zm0 42.667h2v-5.333h-2zm0 21.333h2v-5.333h-2zm0-10.667h2v-5.333h-2zm0 21.334h2v-5.333h-2zm0 10.666h2v-5.333h-2zm0 21.334h2v-5.333h-2zm0-10.667h2v-5.333h-2zm13.728-148.59-3.77 3.771-1.416-1.414 3.772-3.771zm-7.542 7.543-3.771 3.77-1.414-1.413 3.77-3.771zm47.892 121.285 5.217-1.11.416 1.958-5.217 1.108z" fill="#f1c40f"/><path d="m633.701 586.544 5.217-1.109.416 1.956-5.217 1.11z" fill="#f39c11"/><path d="m595.981 619.627h5.333v-2h-5.333zm21.333 0h5.333v-2h-5.333zm-10.666 0h5.333v-2h-5.333zm21.333 0h5.333v-2h-5.333z" fill="#f1c40f"/><path d="m626.701 613a1.5 1.5 0 1 1 0-3 1.5 1.5 0 0 1 0 3m-23.5 0a1.5 1.5 0 1 1 0-3 1.5 1.5 0 0 1 0 3m12.147-17a1.5 1.5 0 1 1 0-3 1.5 1.5 0 0 1 0 3m9.558-64a1.5 1.5 0 1 1 0-3 1.5 1.5 0 0 1 0 3m-23.5 0a1.5 1.5 0 1 1 0-3 1.5 1.5 0 0 1 0 3m12.148-17a1.5 1.5 0 1 1 0-3 1.5 1.5 0 0 1 0 3m12.044 60a1.5 1.5 0 1 1 0-3 1.5 1.5 0 0 1 0 3m-23.5 0a1.5 1.5 0 1 1 0-3 1.5 1.5 0 0 1 0 3m12.148-17a1.5 1.5 0 1 1 0-3 1.5 1.5 0 0 1 0 3m9.558-64a1.5 1.5 0 1 1 0-3 1.5 1.5 0 0 1 0 3m-23.5 0a1.5 1.5 0 1 1 0-3 1.5 1.5 0 0 1 0 3m12.147-17a1.5 1.5 0 1 1 0-3 1.5 1.5 0 0 1 0 3" fill="#f1c40f"/><path d="m583.952 127.864-97.183 97.183 97.183 97.183 97.183-97.183z" fill="#e84c3d"/><path d="m487.635 322.23h193.5v-97.183h-193.5z" fill="#e84c3d"/><path d="m645.052 309h9.333v-3.5h-9.333zm18.667 0h9.333v-3.5h-9.333zm-37.333 0h9.333v-3.5h-9.333zm-18.667 0h9.333v-3.5h-9.333zm-37.333 0h9.333v-3.5h-9.333zm18.666 0h9.333v-3.5h-9.333zm-37.333 0h9.333v-3.5h-9.333zm-18.667 0h9.333v-3.5h-9.333zm-37.333 0h9.333v-3.5h-9.333zm18.667 0h9.333v-3.5h-9.333z" fill="#f1c40f"/><path d="m512.146 296.28a3.396 3.396 0 1 0 0-6.792 3.396 3.396 0 0 0 0 6.792m53.208 0a3.396 3.396 0 1 0 0-6.792 3.396 3.396 0 0 0 0 6.792m-27.504-38.49a3.396 3.396 0 1 0 0-6.793 3.396 3.396 0 0 0 0 6.793m66.45 38.49a3.396 3.396 0 1 0 0-6.792 3.396 3.396 0 0 0 0 6.792m53.207 0a3.396 3.396 0 1 0 0-6.792 3.396 3.396 0 0 0 0 6.792m-27.503-38.49a3.396 3.396 0 1 0 0-6.793 3.396 3.396 0 0 0 0 6.793" fill="#f1c40f"/><path d="m213.892 237.272h2.217v-26.875h-2.217z" fill="#f39c11"/><path d="m215 185.173 14.187 14.187-14.187 14.186-14.187-14.186z" fill="#f1c40f"/><path d="m320.527 270.406-23.274 13.438-1.109-1.92 23.274-13.438z" fill="#f39c11"/><path d="m341.817 256.834-5.193 19.379-19.379-5.192 5.193-19.38z" fill="#f1c40f"/><path d="m280.936 233.358-13.438 23.275-1.92-1.109 13.438-23.275z" fill="#f39c11"/><path d="m292.588 210.96 5.193 19.378-19.38 5.193-5.192-19.379z" fill="#f1c40f"/><path d="m109.473 270.406 23.274 13.438 1.109-1.92-23.274-13.438z" fill="#f39c11"/><path d="m88.183 256.834 5.193 19.379 19.379-5.192-5.193-19.38z" fill="#f1c40f"/><path d="m149.064 233.358 13.438 23.275 1.92-1.109-13.438-23.275z" fill="#f39c11"/><path d="m137.412 210.96-5.193 19.378 19.38 5.193 5.192-19.379z" fill="#f1c40f"/><path d="m215 409.258c53.572 0 97-43.039 97-96.129s-43.429-84.129-97-84.129c-53.572 0-97 31.038-97 84.13 0 53.09 43.428 96.128 97 96.128" fill="#2d3e50"/><path d="m215 444.749c53.572 0 97-20.76 97-91.87 0-71.106-43.429-115.879-97-115.879-53.572 0-97 44.773-97 115.88 0 71.11 43.428 91.87 97 91.87" fill="#2d3e50"/><path d="m138.266 387.185c6.69 0 12.116-5.427 12.116-12.122s-5.425-12.123-12.116-12.123-12.116 5.428-12.116 12.123 5.425 12.122 12.116 12.122m153.468 0c6.691 0 12.116-5.427 12.116-12.122s-5.425-12.123-12.116-12.123-12.116 5.428-12.116 12.123 5.425 12.122 12.116 12.122" fill="#f9db9d"/><path d="m204.23 463.202h21.539v-18.099h-21.539z" fill="#f9db9d"/><path d="m215 451.838c44.61 0 80.773-43.846 80.773-104.922s-36.163-91.916-80.773-91.916-80.773 30.84-80.773 91.916 36.163 104.922 80.773 104.922" fill="#f9db9d"/><g fill="#2d3e50"><path d="m177.556 371.281a8.193 8.193 0 0 0 8.19-8.195c0-4.527-3.666-8.196-8.19-8.196s-8.191 3.67-8.191 8.196a8.193 8.193 0 0 0 8.19 8.195m74.89 0a8.193 8.193 0 0 0 8.191-8.195c0-4.527-3.667-8.196-8.19-8.196s-8.192 3.67-8.192 8.196a8.193 8.193 0 0 0 8.191 8.195m-62.188 37.977c-.257.767-.415 1.553-.415 2.36 0 7.385 11.264 13.372 25.158 13.372 13.895 0 25.158-5.987 25.158-13.372 0-.807-.157-1.593-.415-2.36-2.1 6.258-12.366 11.013-24.743 11.013s-22.643-4.755-24.743-11.013"/><path d="m214.993 250c-69.468 2.459-88.202 52.625-81.594 113.451 0 0 .531-41.623 43.907-65.582 0 0 9.68-6.231 37.687-7.05s37.687 7.05 37.687 7.05c43.376 23.959 43.907 65.582 43.907 65.582 6.608-60.826-12.126-110.992-81.594-113.451"/><path d="m215 308.567c32.063 0 58.055-6.43 58.055-14.363 0-7.932-25.992-14.363-58.055-14.363s-58.055 6.431-58.055 14.363c0 7.933 25.992 14.363 58.055 14.363"/></g><path d="m172.537 487.795s0 29.633-2.692 40.408c-2.693 10.776-10.77 78.122-5.385 83.51s10.77 0 13.462 0 13.462-123.918 13.462-123.918zm14.215 241.83 1.018 17.534-.018.003-3 3c-1 1 0 2 6 1 5.055-.843 10.094-2.477 11.562-2.973l.438-.027s.039-6.708.235-18.537z" fill="#f9db9d"/><path d="m186.83 749.1s-24.986 11.062-11.118 11.062h24.927c3.307 0 2.153-12.123 2.153-12.123z" fill="#2d3e50"/><path d="m215 740.6v-139.024l-38.803-1.067-.856 140.093z" fill="#a46abc"/><path d="m195.795 729.625h19.205v-129.117h-19.205z" fill="#9a59b5"/><path d="m206.79 713.486-8.07 8.07 8.07 8.069 8.07-8.07zm0-32.28-8.07 8.07 8.07 8.07 8.07-8.07zm0-32.279-8.07 8.07 8.07 8.069 8.07-8.069zm.14-32.28-8.07 8.07 8.07 8.07 8.07-8.07zm-.14 80.699-8.07 8.07 8.07 8.069 8.07-8.07zm0-32.28-8.07 8.07 8.07 8.07 8.07-8.07zm0-32.279-8.07 8.07 8.07 8.07 8.07-8.07zm.14-32.279-8.07 8.07 8.07 8.07 8.07-8.07z" fill="#a46abc"/><path d="m196.867 478.806h17.993v-24.654h-17.993z" fill="#f9db9d"/><path d="m173 481s-10.14 91-12.14 101l20 4 13.392-79.838v-21z" fill="#e84c3d"/><path d="m181.752 483.162s2.067 20.838 2.067 25.838-11.882 62-8.959 76l12.892-12.838 4.688-89h-9.688" fill="#c1392b"/><path d="m215 604v-140c-10 0-12.501-9.847-12.501-9.847-5.371 0-21.131.483-22 .847-3.562 1.174-7.823 5.35-7.823 13.937v18.857h10.216c2.812 12.633 4.4 19.467 1.7 29.549-.394 1.474-1.601 8.654-1.601 8.654-2.075 12.09-7.542 50.561-10.141 78.003z" fill="#e84c3d"/><path d="m199.48 454.385 3.242 60.254h1.538l-3.241-60.254z" fill="#f39c11"/><g fill="#f1c40f"><path d="m195.766 510.803c0 5.745 8.611 10.401 19.234 10.401v-8.224c-.499.109-2.63 1.89-3.169 1.89-2.73 0-2.796-3.401-3.63-5.48-.625 2.079-2.959 3.776-5.008 3.776-2.576 0-4.664-2.363-4.664-5.277 0-1.236-2.763.6-2.763 2.914m12.41-12.152c0-1.285-.857-2.42-2.169-3.127-.707-1.312-1.842-2.168-3.127-2.168s-2.42.856-3.127 2.168c-1.313.707-2.169 1.842-2.169 3.127s.856 2.42 2.17 3.127c.705 1.312 1.841 2.168 3.126 2.168s2.42-.856 3.127-2.168c1.312-.707 2.168-1.842 2.168-3.127m-3.139 0a2.157 2.157 0 1 1 -4.313 0 2.157 2.157 0 0 1 4.313 0m2.226-16.366c0-1.285-.856-2.42-2.168-3.127-.707-1.312-1.842-2.168-3.127-2.168s-2.42.856-3.127 2.168c-1.313.707-2.168 1.842-2.168 3.127s.855 2.42 2.168 3.127c.706 1.312 1.842 2.168 3.127 2.168s2.42-.856 3.127-2.168c1.312-.707 2.168-1.842 2.168-3.127m-3.139 0a2.157 2.157 0 1 1 -4.313 0 2.157 2.157 0 0 1 4.313 0m2.51-16.05c0-1.286-.857-2.422-2.169-3.128-.707-1.312-1.842-2.168-3.127-2.168s-2.42.856-3.127 2.168c-1.313.706-2.168 1.842-2.168 3.127s.855 2.42 2.168 3.127c.706 1.312 1.842 2.168 3.127 2.168s2.42-.856 3.127-2.168c1.312-.707 2.168-1.842 2.168-3.127m-3.138 0a2.157 2.157 0 1 1 -4.315 0 2.157 2.157 0 0 1 4.315 0"/><path d="m209.159 507.974h2v-5.333h-2zm0-10.666h2v-5.333h-2zm0 21.333h2v-5.333h-2zm0-42.667h2v-5.333h-2zm0 10.667h2v-5.333h-2zm0 42.667h2v-5.333h-2zm0 21.333h2v-5.333h-2zm0-10.667h2v-5.333h-2zm0 21.334h2v-5.333h-2zm0 10.666h2v-5.333h-2zm0 21.334h2v-5.333h-2zm0-10.667h2v-5.333h-2zm-9.257 15.538h5.333v-2h-5.333zm-21.333 0h5.333v-2h-5.333zm10.666 0h5.333v-2h-5.333z"/><path d="m215 541.003c-.01 0-.019-.003-.029-.003a7.486 7.486 0 1 0 0 14.97l.029-.002zm-15.769 11.24h6v-8h-6zm-8.373 0h6v-8h-6zm-8.58 0h6v-8h-6z"/><path d="m182.375 585a1.5 1.5 0 1 0 0-3 1.5 1.5 0 0 0 0 3m23.5 0a1.5 1.5 0 1 0 0-3 1.5 1.5 0 0 0 0 3m-12.147-17a1.5 1.5 0 1 0 0-3 1.5 1.5 0 0 0 0 3m-6.636-30.81a1.217 1.217 0 1 0 0-2.435 1.217 1.217 0 0 0 0 2.434m19.066 0a1.217 1.217 0 1 0 0-2.434 1.217 1.217 0 0 0 0 2.434m-9.855-13.792a1.217 1.217 0 1 0 0-2.434 1.217 1.217 0 0 0 0 2.434m-8.226-23.17a1.217 1.217 0 1 0 0-2.435 1.217 1.217 0 0 0 0 2.435m19.066 0a1.217 1.217 0 1 0 0-2.435 1.217 1.217 0 0 0 0 2.435m-9.855-13.793a1.217 1.217 0 1 0 0-2.434 1.217 1.217 0 0 0 0 2.434"/><path d="m167.507 579.2-5.197-1.2-.449 1.949 5.196 1.2zm7.2 1.662-5.197-1.2-.449 1.95 5.196 1.2z"/></g><path d="m178.86 692.176h14.511v-2.72h-14.511zm0 5.44h14.511v-2.72h-14.511zm0 5.44h14.511v-2.72h-14.511zm0 5.44h14.511v-2.72h-14.511zm0 4.809h14.511v-2.72h-14.511zm0 5.44h14.511v-2.72h-14.511zm0 5.44h14.511v-2.72h-14.511zm0 5.44h14.511v-2.72h-14.511zm.43-79.905h14.511v-2.72h-14.511zm0 5.44h14.511v-2.72h-14.511zm0 5.44h14.511v-2.72h-14.511zm0 5.441h14.511v-2.72h-14.511zm0 4.808h14.511v-2.72h-14.511zm0 5.44h14.511v-2.72h-14.511zm0 5.44h14.511v-2.72h-14.511zm0 5.441h14.511v-2.72h-14.511zm-.102-79.45h14.511v-2.72h-14.511zm0 5.44h14.511v-2.72h-14.511zm0 5.44h14.511v-2.72h-14.511zm0 5.441h14.511v-2.72h-14.511zm0 4.808h14.511v-2.72h-14.511zm0 5.44h14.511v-2.72h-14.511zm0 5.44h14.511v-2.72h-14.511zm0 5.441h14.511v-2.72h-14.511z" fill="#9a59b5"/><path d="m257.463 487.795s0 29.633 2.692 40.408c2.693 10.776 10.77 78.122 5.385 83.51s-10.77 0-13.462 0-13.462-123.918-13.462-123.918zm-14.215 241.83-1.018 17.534.018.003 3 3c1 1 0 2-6 1-5.055-.843-10.094-2.477-11.562-2.973l-.438-.027s-.039-6.708-.235-18.537z" fill="#f9db9d"/><path d="m243.17 749.1s24.986 11.062 11.118 11.062h-24.928c-3.307 0-2.153-12.123-2.153-12.123z" fill="#2d3e50"/><path d="m215 740.6v-139.024l38.803-1.067.856 140.093z" fill="#a46abc"/><path d="m215 729.625h19.205v-129.117h-19.205z" fill="#9a59b5"/><path d="m223.21 713.486 8.07 8.07-8.07 8.069-8.07-8.07zm0-32.28 8.07 8.07-8.07 8.07-8.07-8.07zm0-32.279 8.07 8.07-8.07 8.069-8.07-8.069zm-.14-32.28 8.07 8.07-8.07 8.07-8.07-8.07zm.14 80.699 8.07 8.07-8.07 8.069-8.07-8.07zm0-32.28 8.07 8.07-8.07 8.07-8.07-8.07zm0-32.279 8.07 8.07-8.07 8.07-8.07-8.07zm-.14-32.279 8.07 8.07-8.07 8.07-8.07-8.07z" fill="#a46abc"/><path d="m215.14 478.806h17.993v-24.654h-17.993z" fill="#f9db9d"/><path d="m257 481s10.14 91 12.14 101l-20 4-13.392-79.838v-21z" fill="#e84c3d"/><path d="m248.248 483.162s-2.067 20.838-2.067 25.838 11.882 62 8.959 76l-12.892-12.838-4.688-89h9.688" fill="#c1392b"/><path d="m215 604v-140c10 0 12.501-9.847 12.501-9.847 5.371 0 21.131.483 22 .847 3.562 1.174 7.822 5.35 7.822 13.937v18.857h-10.215c-2.812 12.633-4.4 19.467-1.7 29.549.394 1.474 1.601 8.654 1.601 8.654 2.075 12.09 7.542 50.561 10.141 78.003z" fill="#e84c3d"/><path d="m230.52 454.385-3.242 60.254h-1.538l3.241-60.254z" fill="#f39c11"/><g fill="#f1c40f"><path d="m234.234 510.803c0 5.745-8.611 10.401-19.234 10.401v-8.224c.499.109 2.63 1.89 3.169 1.89 2.73 0 2.796-3.401 3.63-5.48.625 2.079 2.959 3.776 5.008 3.776 2.576 0 4.664-2.363 4.664-5.277 0-1.236 2.763.6 2.763 2.914m-12.41-12.152c0-1.285.857-2.42 2.169-3.127.707-1.312 1.842-2.168 3.127-2.168s2.42.856 3.127 2.168c1.313.707 2.169 1.842 2.169 3.127s-.856 2.42-2.17 3.127c-.705 1.312-1.841 2.168-3.126 2.168s-2.42-.856-3.127-2.168c-1.312-.707-2.168-1.842-2.168-3.127m3.139 0a2.157 2.157 0 1 0 4.313 0 2.157 2.157 0 0 0 -4.313 0m-2.226-16.366c0-1.285.856-2.42 2.168-3.127.707-1.312 1.842-2.168 3.127-2.168s2.421.856 3.127 2.168c1.313.707 2.168 1.842 2.168 3.127s-.855 2.42-2.168 3.127c-.706 1.312-1.842 2.168-3.127 2.168s-2.42-.856-3.127-2.168c-1.312-.707-2.168-1.842-2.168-3.127m3.139 0a2.157 2.157 0 1 0 4.313 0 2.157 2.157 0 0 0 -4.313 0m-2.509-16.05c0-1.286.856-2.422 2.168-3.128.707-1.312 1.842-2.168 3.127-2.168s2.421.856 3.127 2.168c1.313.706 2.168 1.842 2.168 3.127s-.855 2.42-2.168 3.127c-.706 1.312-1.842 2.168-3.127 2.168s-2.42-.856-3.127-2.168c-1.312-.707-2.168-1.842-2.168-3.127m3.138 0a2.157 2.157 0 1 0 4.315 0 2.157 2.157 0 0 0 -4.315 0"/><path d="m218.841 507.974h2v-5.333h-2zm0-10.666h2v-5.333h-2zm0 21.333h2v-5.333h-2zm0-42.667h2v-5.333h-2zm0 10.667h2v-5.333h-2zm0 42.667h2v-5.333h-2zm0 21.333h2v-5.333h-2zm0-10.667h2v-5.333h-2zm0 21.334h2v-5.333h-2zm0 10.666h2v-5.333h-2zm0 21.334h2v-5.333h-2zm0-10.667h2v-5.333h-2zm5.924 15.538h5.333v-2h-5.333zm21.333 0h5.333v-2h-5.333zm-10.666 0h5.333v-2h-5.333z"/><path d="m215 541.003c.01 0 .019-.003.029-.003a7.486 7.486 0 1 1 0 14.97l-.029-.002zm9.769 11.24h6v-8h-6zm8.373 0h6v-8h-6zm8.58 0h6v-8h-6z"/><path d="m247.625 585a1.5 1.5 0 1 1 0-3 1.5 1.5 0 0 1 0 3m-23.5 0a1.5 1.5 0 1 1 0-3 1.5 1.5 0 0 1 0 3m12.147-17a1.5 1.5 0 1 1 0-3 1.5 1.5 0 0 1 0 3m6.636-30.81a1.217 1.217 0 1 1 0-2.435 1.217 1.217 0 0 1 0 2.434m-19.066 0a1.217 1.217 0 1 1 0-2.434 1.217 1.217 0 0 1 0 2.434m9.855-13.792a1.217 1.217 0 1 1 0-2.434 1.217 1.217 0 0 1 0 2.434m8.226-23.17a1.217 1.217 0 1 1 0-2.435 1.217 1.217 0 0 1 0 2.435m-19.066 0a1.217 1.217 0 1 1 0-2.435 1.217 1.217 0 0 1 0 2.435m9.855-13.793a1.217 1.217 0 1 1 0-2.434 1.217 1.217 0 0 1 0 2.434"/><path d="m262.493 579.2 5.197-1.2.449 1.949-5.196 1.2zm-7.2 1.662 5.197-1.2.449 1.95-5.196 1.2z"/></g><path d="m236.629 692.176h14.511v-2.72h-14.511zm0 5.44h14.511v-2.72h-14.511zm0 5.44h14.511v-2.72h-14.511zm0 5.44h14.511v-2.72h-14.511zm0 4.809h14.511v-2.72h-14.511zm0 5.44h14.511v-2.72h-14.511zm0 5.44h14.511v-2.72h-14.511zm0 5.44h14.511v-2.72h-14.511zm-.43-79.905h14.511v-2.72h-14.511zm0 5.44h14.511v-2.72h-14.511zm0 5.44h14.511v-2.72h-14.511zm0 5.441h14.511v-2.72h-14.511zm0 4.808h14.511v-2.72h-14.511zm0 5.44h14.511v-2.72h-14.511zm0 5.44h14.511v-2.72h-14.511zm0 5.441h14.511v-2.72h-14.511zm.102-79.45h14.511v-2.72h-14.511zm0 5.44h14.511v-2.72h-14.511zm0 5.44h14.511v-2.72h-14.511zm0 5.441h14.511v-2.72h-14.511zm0 4.808h14.511v-2.72h-14.511zm0 5.44h14.511v-2.72h-14.511zm0 5.44h14.511v-2.72h-14.511zm0 5.441h14.511v-2.72h-14.511z" fill="#9a59b5"/></g></svg>