<svg height="800" width="800" xmlns="http://www.w3.org/2000/svg"><g fill="none" fill-rule="evenodd"><g fill="#2d3e50"><path d="M639.393 744.059s21.886 1.953 21.886 11.717v5.858h-68.346v-17.575zm-108.785 0s-21.886 1.953-21.886 11.717v5.858h68.346v-17.575z"/><path d="M639.018 744.059s21.886 1.953 21.886 11.717v5.858h-68.346v-17.575zm-108.035 0s-21.886 1.953-21.886 11.717v5.858h68.346v-17.575z"/></g><path d="M632.27 573.613l-47.27 1.3-47.27-1.3-1.044 170.665H633.315z" fill="#e67f22"/><path d="M536.97 697.717l46.562 46.56H585v.002l20.684-.001-68.578-68.58zm.273-44.634l91.196 91.196h4.876l-.107-17.383-95.83-95.83zm.274-44.635L633.069 704l-.137-22.29-95.28-95.28zm10.35-34.556l84.925 84.926-.136-22.29-62.01-62.01zm45.692.786l38.956 38.956-.137-22.29-17.26-17.26zm-56.727 145.656l-.133 22.019 1.925 1.926h22.153z" fill="#e84c3d"/><path d="M570.84 461.88h28.32v-23.797h-28.32z" fill="#f9db9d"/><g fill="#f9db9d"><path d="M585 465.422c7.82 0 14.16-1.586 14.16-3.542s-6.34-3.542-14.16-3.542-14.16 1.586-14.16 3.542 6.34 3.542 14.16 3.542m90.217-86.939c7.204 0 13.043-5.84 13.043-13.043 0-7.204-5.839-13.044-13.043-13.044s-13.043 5.84-13.043 13.044c0 7.203 5.839 13.043 13.043 13.043m-180.434 0c7.204 0 13.043-5.84 13.043-13.043 0-7.204-5.839-13.044-13.043-13.044s-13.043 5.84-13.043 13.044c0 7.203 5.839 13.043 13.043 13.043"/></g><path d="M585 405.678c52.827 0 108.457-29.678 92.108-97.304-8.906-36.84-39.281-76.24-92.108-76.24s-91.07 60.74-93.526 76.24C480.126 380 532.173 405.678 585 405.678" fill="#2d3e50"/><path d="M585 446.418c47.424 0 85.869-41.851 85.869-93.478 0-51.626-38.445-100-85.869-100s-85.869 48.374-85.869 100c0 51.627 38.445 93.478 85.869 93.478" fill="#f9db9d"/><path d="M549.477 362.099c4.346 0 7.869-3.525 7.869-7.873s-3.523-7.873-7.87-7.873-7.868 3.525-7.868 7.873 3.523 7.873 7.869 7.873m71.942 0c4.346 0 7.869-3.525 7.869-7.873s-3.523-7.873-7.87-7.873-7.868 3.525-7.868 7.873 3.523 7.873 7.869 7.873m-59.74 36.482c-.248.737-.4 1.492-.4 2.267 0 7.095 10.821 12.846 24.168 12.846 13.348 0 24.17-5.75 24.17-12.846 0-.775-.153-1.53-.4-2.267-2.018 6.012-11.88 10.58-23.77 10.58-11.889 0-21.75-4.568-23.769-10.58" fill="#2d3e50"/><path d="M547 456s11-2 14-2l2 2s-1 4 0 5 4 5 4 4-2 1.841-3 1-5-4.079-6-5-6 0-7-2-4-3-4-3" fill="#f1c40f"/><path d="M530.252 480.019s-4.348 56.522-6.522 67.391c-2.174 10.87-6.52 56.522 0 63.043 6.522 6.522 26.087 2.174 28.261-15.217s6.522-78.261 6.522-78.261v-36.956z" fill="#f9db9d"/><path d="M527.303 495.384l-9.869 92.435 24.75 5.065 6.75-97.5z" fill="#34495e"/><path d="M540.684 482.634L532 591l7.4 1.884z" fill="#2d3e50"/><path d="M518 587l20 4 .75-8-19.75-5z" fill="#f1c40f"/><path d="M571.398 445.134l-8.021 8.02a152.548 152.548 0 0 0-8.33-.215c-26.541 0-27.744 42.678-27.744 42.678h12.544L535.299 621h43.7c3.75 0 6-7 6-7V463z" fill="#34495e"/><g fill="#f1c40f"><path d="M564 455l7-7 12 15 1 150.332S581 619 579 619h-41.026v-2H579s3-1.337 3-3.668C582 611 581 465 581 465l-10-14-6 5z"/><path d="M538.75 611s-.25-5 5-5 5 5 5 5-.25-7 7-7 7 7 7 7 2.25-6 6.25-10 7-4 7-4-6 0-6-6 6-6 6-6-6-3-6-9 6-8 6-8-4-6-4-12 4-8 4-14-6-14-6-22 7-14 7-21-7-3-7-10 6-2 6-6 3-9-2-14-2-8-6-6-2-6-2-6l4-3 9 12v145s-1 4-4 4h-36.252zM519 577l2-17s2 2 2 4-2 3-2 3 3 1 3 4-5 6-5 6"/></g><path d="M639.748 480.019s4.348 56.522 6.522 67.391c2.174 10.87 6.52 56.522 0 63.043-6.522 6.522-26.087 2.174-28.261-15.217s-6.522-78.261-6.522-78.261v-36.956z" fill="#f9db9d"/><path d="M642.697 495.384l9.869 92.435-24.75 5.065-6.75-97.5z" fill="#34495e"/><path d="M629.316 482.634L638 591l-7.4 1.884z" fill="#2d3e50"/><path d="M652 587l-20 4-.75-8 19.75-5z" fill="#f1c40f"/><path d="M598.602 445.134l8.021 8.02c2.49-.135 5.248-.215 8.33-.215 26.541 0 27.744 42.678 27.744 42.678h-12.544L634.701 621h-43.7c-3.75 0-6-7-6-7V463z" fill="#34495e"/><g fill="#f1c40f"><path d="M606 455l-7-7-12 15-1 150.332s3 5.668 5 5.668h41.026v-2H591s-3-1.337-3-3.668C588 611 589 465 589 465l10-14 6 5z"/><path d="M631.25 611s.25-5-5-5-5 5-5 5 .25-7-7-7-7 7-7 7-2.25-6-6.25-10-7-4-7-4 6 0 6-6-6-6-6-6 6-3 6-9-6-8-6-8 4-6 4-12-4-8-4-14 6-14 6-22-7-14-7-21 7-3 7-10-6-2-6-6-3-9 2-14 2-8 6-6 2-6 2-6l-4-3-9 12v145s1 4 4 4h36.252zM651 577l-2-17s-2 2-2 4 2 3 2 3-3 1-3 4 5 6 5 6"/></g><path d="M642.391 152l40.148 165.152H585V152z" fill="#34495e"/><g fill="#f1c40f"><path d="M585 310.065h97.539v-7.79H585zM585 167h59v-7h-59z"/><path d="M602.087 304.076h7v-139h-7zm25.663 0h7v-139h-7z"/></g><path d="M527.609 152L487.46 317.152H585V152z" fill="#34495e"/><path d="M487.461 310.065H585v-7.79h-97.539zM526 167h59v-7h-59z" fill="#f1c40f"/><path d="M560.913 304.076h7v-139h-7zm-25.663 0h7v-139h-7z" fill="#f1c40f"/><path d="M194.252 608.823H215V481h-20.748zm20.748 0h20.748V481H215z" fill="#2d3e50"/><path d="M186.752 729.625l1.018 17.534-.018.003-3 3c-1 1 0 2 6 1 5.055-.843 10.094-2.477 11.562-2.973l.438-.027s.039-6.708.235-18.537z" fill="#f9db9d"/><path d="M186.83 749.1s-24.986 11.062-11.118 11.062h24.927c3.307 0 2.153-12.123 2.153-12.123z" fill="#2d3e50"/><path d="M243.248 729.625l-1.018 17.534.018.003 3 3c1 1 0 2-6 1-5.055-.843-10.094-2.477-11.562-2.973l-.438-.027s-.039-6.708-.235-18.537z" fill="#f9db9d"/><path d="M245 750s23.156 10.162 9.288 10.162h-24.927c-3.307 0-2.153-12.122-2.153-12.122z" fill="#2d3e50"/><path d="M253.803 574L215 575.269 176.198 574l-.857 166.601H254.66z" fill="#e84c3d"/><path d="M175.575 695.15l38.22 45.45h18.184l-56.295-66.945zm.225-43.573l74.858 89.022h4.002l-.088-16.969-78.662-93.546zm.223-43.572l78.435 93.277-.112-21.759-78.212-93.01zm8.496-33.734l69.711 82.902-.11-21.757-50.903-60.534zm37.507.767l31.978 38.028-.113-21.757-14.167-16.85zm-46.565 142.188l-.11 21.493 1.581 1.881h18.184z" fill="#e67f22"/><path d="M214 229.044h2v-24.245h-2z" fill="#f39c11"/><path d="M215 182.044l12.798 12.798L215 207.64l-12.798-12.798z" fill="#f1c40f"/><path d="M319.702 299.748l-23.419 6.275-.517-1.932 23.418-6.275z" fill="#f39c11"/><path d="M341.423 292.893l-9.05 15.674-15.674-9.05 9.05-15.674z" fill="#f1c40f"/><path d="M310.2 271.72l-20.998 12.123-1-1.732 20.997-12.122z" fill="#f39c11"/><path d="M329.406 259.477l-4.684 17.483-17.483-4.685 4.684-17.483z" fill="#f1c40f"/><path d="M296.605 246.26l-15.584 18.573-1.532-1.286 15.584-18.573z" fill="#f39c11"/><path d="M310.466 228.186l1.577 18.03-18.03 1.578-1.577-18.03z" fill="#f1c40f"/><path d="M246.655 213.581l-6.275 23.42-1.932-.519 6.275-23.419z" fill="#f39c11"/><path d="M251.579 191.343l9.05 15.674-15.675 9.05-9.05-15.674z" fill="#f1c40f"/><path d="M274.483 225.513L262.36 246.51l-1.732-1 12.122-20.997z" fill="#f39c11"/><path d="M284.994 205.306l4.684 17.483-17.482 4.684-4.685-17.482z" fill="#f1c40f"/><path d="M110.298 299.748l23.419 6.275.517-1.932-23.418-6.275z" fill="#f39c11"/><path d="M88.577 292.893l9.05 15.674 15.674-9.05-9.05-15.674z" fill="#f1c40f"/><path d="M119.8 271.72l20.998 12.123 1-1.732-20.997-12.122z" fill="#f39c11"/><path d="M100.594 259.477l4.684 17.483 17.483-4.685-4.684-17.483z" fill="#f1c40f"/><path d="M133.395 246.26l15.584 18.573 1.532-1.286-15.584-18.573z" fill="#f39c11"/><path d="M119.534 228.186l-1.577 18.03 18.03 1.578 1.577-18.03z" fill="#f1c40f"/><path d="M183.345 213.581l6.275 23.42 1.932-.519-6.275-23.419z" fill="#f39c11"/><path d="M178.421 191.343l-9.05 15.674 15.675 9.05 9.05-15.674z" fill="#f1c40f"/><path d="M155.517 225.513l12.122 20.997 1.732-1-12.122-20.997z" fill="#f39c11"/><path d="M145.006 205.306l-4.684 17.483 17.482 4.684 4.685-17.482z" fill="#f1c40f"/><g><path d="M215 409.258c53.572 0 97-43.039 97-96.129S268.571 229 215 229c-53.572 0-97 31.038-97 84.13 0 53.09 43.428 96.128 97 96.128" fill="#f1c40f"/><path d="M215 448.432c53.572 0 97-43.04 97-96.13 0-53.09-43.429-84.128-97-84.128-53.572 0-97 31.038-97 84.129 0 53.09 43.428 96.129 97 96.129" fill="#2d3e50"/><path d="M215 387c53.572 0 97-14.989 97-66.332C312 269.326 268.571 237 215 237c-53.572 0-97 32.326-97 83.668C118 372.011 161.428 387 215 387" fill="#2d3e50"/><g fill="#f9db9d"><path d="M138.266 387.185c6.69 0 12.116-5.427 12.116-12.122s-5.425-12.123-12.116-12.123-12.116 5.428-12.116 12.123 5.425 12.122 12.116 12.122m153.468 0c6.691 0 12.116-5.427 12.116-12.122s-5.425-12.123-12.116-12.123-12.116 5.428-12.116 12.123 5.425 12.122 12.116 12.122"/></g></g><path d="M204.23 463.202h21.539v-18.099H204.23z" fill="#f9db9d"/><g><path d="M215 451.838c44.61 0 80.773-43.846 80.773-104.922S259.61 255 215 255s-80.773 30.84-80.773 91.916S170.39 451.838 215 451.838" fill="#f9db9d"/><g fill="#2d3e50"><path d="M177.556 371.281a8.193 8.193 0 0 0 8.19-8.195c0-4.527-3.666-8.196-8.19-8.196s-8.191 3.67-8.191 8.196a8.193 8.193 0 0 0 8.19 8.195m74.89 0a8.193 8.193 0 0 0 8.191-8.195c0-4.527-3.667-8.196-8.19-8.196s-8.192 3.67-8.192 8.196a8.193 8.193 0 0 0 8.191 8.195m-62.188 37.977c-.257.767-.415 1.553-.415 2.36 0 7.385 11.264 13.372 25.158 13.372 13.895 0 25.158-5.987 25.158-13.372 0-.807-.157-1.593-.415-2.36-2.1 6.258-12.366 11.013-24.743 11.013s-22.643-4.755-24.743-11.013"/><path d="M214.993 250c-69.468 2.459-88.202 52.625-81.594 113.451 0 0 .531-41.623 43.907-65.582 0 0 9.68-6.231 37.687-7.05s37.687 7.05 37.687 7.05c43.376 23.959 43.907 65.582 43.907 65.582 6.608-60.826-12.126-110.992-81.594-113.451"/><path d="M215 308.567c32.063 0 58.055-6.43 58.055-14.363 0-7.932-25.992-14.363-58.055-14.363s-58.055 6.431-58.055 14.363c0 7.933 25.992 14.363 58.055 14.363"/></g></g><path d="M194 455l-6.07 24L215 490l-.14-35.847z" fill="#f9db9d"/><g><path d="M172.537 487.795s0 29.633-2.692 40.408c-2.693 10.776-10.77 78.122-5.385 83.51s10.77 0 13.462 0 13.462-123.918 13.462-123.918z" fill="#f9db9d"/><path d="M173 481s-10.14 91-12.14 101l20 4 13.392-79.838v-21z" fill="#34495e"/><path d="M181.752 483.162S183.819 504 183.819 509s-11.882 62-8.959 76l12.892-12.838 4.688-89h-9.688" fill="#2d3e50"/><path d="M202.5 454.153c-5.372 0-21.132.484-22 .847-3.563 1.174-7.824 5.35-7.824 13.938v18.857h10.216c2.812 12.632 4.4 19.466 1.7 29.548-.394 1.474-1.6 8.654-1.6 8.654-2.076 12.09-11.642 90.56-14.242 118.003h33.75z" fill="#34495e"/><g fill="#f1c40f"><path d="M171.244 634.383s-.168-5.772 3.363-5.772c3.53 0 3.362 5.772 3.362 5.772s-.168-8.081 4.708-8.081c4.875 0 4.707 8.08 4.707 8.08s1.513-6.926 4.203-11.543 4.708-4.617 4.708-4.617-4.035 0-4.035-6.927c0-6.926 4.035-6.926 4.035-6.926s-4.035-3.463-4.035-10.39 4.035-9.234 4.035-9.234-2.69-6.926-2.69-13.852 2.69-9.236 2.69-16.161c0-6.926-4.035-16.162-4.035-25.397 0-9.234 4.708-16.161 4.708-24.241 0-8.081-4.708-3.463-4.708-11.544 0-8.08 4.035-2.31 4.035-6.926s2.018-10.39-1.345-16.161-1.345-9.235-4.035-6.927C188.225 465.846 190 456 190 456h8.63l-.317 11v167.383s-.673 4.617-2.69 4.617h-24.38zM163.041 580l2-17s2 2 2 4-2 3-2 3 3 1 3 4-5 6-5 6"/></g></g><path d="M205.518 497.206L203.671 455h-1.198l1.847 42.206z" fill="#f39c11"/><g fill="#f1c40f"><path d="M200.017 482.93c0 4.475 6.708 8.102 14.983 8.102v-6.406c-.389.085-2.049 1.472-2.469 1.472-2.127 0-2.177-2.649-2.827-4.269-.488 1.62-2.305 2.942-3.902 2.942-2.006 0-3.632-1.84-3.632-4.11 0-.964-2.153.466-2.153 2.27m0 10.681c0 4.475 6.708 8.102 14.983 8.102v-6.406c-.389.085-2.049 1.472-2.469 1.472-2.127 0-2.177-2.649-2.827-4.269-.488 1.62-2.305 2.942-3.902 2.942-2.006 0-3.632-1.84-3.632-4.11 0-.964-2.153.466-2.153 2.27"/></g><path d="M236 455l6.07 24L215 490l.14-35.847z" fill="#f9db9d"/><g><path d="M257.463 487.795s0 29.633 2.692 40.408c2.693 10.776 10.77 78.122 5.385 83.51s-10.769 0-13.462 0c-2.692 0-13.462-123.918-13.462-123.918z" fill="#f9db9d"/><path d="M257 481s10.14 91 12.14 101l-20 4-13.392-79.838v-21z" fill="#34495e"/><path d="M248.248 483.162S246.181 504 246.181 509s11.882 62 8.96 76l-12.893-12.838-4.688-89h9.688" fill="#2d3e50"/><path d="M227.501 454.153c5.371 0 21.131.484 22 .847 3.562 1.174 7.823 5.35 7.823 13.938v18.857h-10.216c-2.812 12.632-4.4 19.466-1.7 29.548.394 1.474 1.601 8.654 1.601 8.654 2.075 12.09 11.641 90.56 14.241 118.003h-33.749z" fill="#34495e"/><g fill="#f1c40f"><path d="M258.756 634.383s.168-5.772-3.363-5.772c-3.53 0-3.362 5.772-3.362 5.772s.168-8.081-4.708-8.081c-4.875 0-4.707 8.08-4.707 8.08s-1.513-6.926-4.203-11.543-4.708-4.617-4.708-4.617 4.035 0 4.035-6.927c0-6.926-4.035-6.926-4.035-6.926s4.035-3.463 4.035-10.39-4.035-9.234-4.035-9.234 2.69-6.926 2.69-13.852-2.69-9.236-2.69-16.161c0-6.926 4.035-16.162 4.035-25.397 0-9.234-4.708-16.161-4.708-24.241 0-8.081 4.708-3.463 4.708-11.544 0-8.08-4.035-2.31-4.035-6.926s-2.018-10.39 1.345-16.161 1.345-9.235 4.035-6.927c2.69 2.31.915-7.536.915-7.536h-8.63l.317 11v167.383s.673 4.617 2.691 4.617h24.38zM266.959 580l-2-17s-2 2-2 4 2 3 2 3-3 1-3 4 5 6 5 6"/></g></g><path d="M224.482 497.206L226.329 455h1.198l-1.847 42.206z" fill="#f39c11"/><g fill="#f1c40f"><path d="M229.983 482.93c0 4.475-6.708 8.102-14.983 8.102v-6.406c.389.085 2.049 1.472 2.469 1.472 2.127 0 2.178-2.649 2.827-4.269.488 1.62 2.305 2.942 3.902 2.942 2.006 0 3.632-1.84 3.632-4.11 0-.964 2.153.466 2.153 2.27m0 10.681c0 4.475-6.708 8.102-14.983 8.102v-6.406c.389.085 2.049 1.472 2.469 1.472 2.127 0 2.178-2.649 2.827-4.269.488 1.62 2.305 2.942 3.902 2.942 2.006 0 3.632-1.84 3.632-4.11 0-.964 2.153.466 2.153 2.27"/></g><path d="M532.375 757h45.068v-12.941h-45.068zm60.182-.059h45.068V744h-45.068z" fill="#f9db9d"/></g></svg>