<svg height="800" width="800" xmlns="http://www.w3.org/2000/svg"><g fill="none" fill-rule="evenodd"><path d="m570.84 476h28.32v-37.916h-28.32z" fill="#f9db9d"/><path d="m675.217 378.483c7.204 0 13.043-5.84 13.043-13.043 0-7.204-5.839-13.044-13.043-13.044s-13.043 5.84-13.043 13.044c0 7.203 5.839 13.043 13.043 13.043m-180.434 0c7.204 0 13.043-5.84 13.043-13.043 0-7.204-5.839-13.044-13.043-13.044s-13.043 5.84-13.043 13.044c0 7.203 5.839 13.043 13.043 13.043" fill="#f9db9d"/><path d="m585 405.678c52.827 0 108.457-29.678 92.108-97.304-8.906-36.84-39.281-76.24-92.108-76.24s-91.07 60.74-93.526 76.24c-11.348 71.626 40.699 97.304 93.526 97.304" fill="#2d3e50"/><path d="m585 446.417c47.424 0 85.869-41.85 85.869-93.478 0-51.625-38.445-99.998-85.869-99.998s-85.869 48.373-85.869 99.998c0 51.627 38.445 93.478 85.869 93.478" fill="#f9db9d"/><path d="m549.477 362.099a7.871 7.871 0 0 0 7.869-7.873 7.871 7.871 0 0 0 -7.87-7.873 7.871 7.871 0 0 0 -7.868 7.873 7.871 7.871 0 0 0 7.869 7.873m71.942 0a7.871 7.871 0 0 0 7.869-7.873 7.871 7.871 0 0 0 -7.87-7.873 7.871 7.871 0 0 0 -7.868 7.873 7.871 7.871 0 0 0 7.869 7.873m-59.74 36.482c-.248.737-.4 1.492-.4 2.267 0 7.095 10.821 12.846 24.168 12.846 13.348 0 24.17-5.75 24.17-12.846 0-.775-.153-1.53-.4-2.267-2.018 6.012-11.88 10.58-23.77 10.58-11.889 0-21.75-4.568-23.769-10.58" fill="#2d3e50"/><path d="m487.635 322.23h193.5v-97.183h-193.5z" fill="#c1392b"/><path d="m528.357 744.059s-20.56 1.953-20.56 11.717v5.858h64.203v-17.575z" fill="#f9db9d"/><path d="m568.276 468.83 4.724 118.988h12v-113.938c-6.905 0-13-1.997-16.724-5.05" fill="#ecf0f1"/><path d="m560.802 489.918h24.099v-4.461h-24.099zm0 16.06h24.099v-4.461h-24.099zm.099 16.793h24.099v-4.461h-24.099zm0 17.858h24.099v-4.461h-24.099zm0 19.371h24.099v-4.461h-24.099z" fill="#c1392b"/><path d="m576.144 705.386v-9.386h-34.174v48.06h30.03" fill="#f9db9d"/><path d="m585 613.332v-25.513h-46.999v131.18h40.9" fill="#2d3e50"/><path d="m565 590h20v-15.818h-20z" fill="#f1c40f"/><path d="m528.953 480.019s-4.348 56.522-6.522 67.391c-2.174 10.87-6.52 56.522 0 63.043 6.522 6.522 26.087 2.174 28.261-15.217s6.522-78.261 6.522-78.261v-36.956h-28.26z" fill="#f9db9d"/><path d="m526.004 495.384-9.869 92.434 24.75 5.066 6.75-97.5z" fill="#34495e"/><path d="m536.675 480.019-3.675 110.98 5.1 1.885z" fill="#2d3e50"/><path d="m571 452.94 3.684 179.8s-1.321 6-4.485 6-33.524-13.74-33.524-13.74l-.088-129.383h-10.583s1.016-42.677 23.408-42.677z" fill="#34495e"/><path d="m641.643 744.059s20.56 1.953 20.56 11.717v5.858h-64.203v-17.575z" fill="#f9db9d"/><path d="m601.724 468.83-4.724 118.988h-12v-113.938c6.905 0 13-1.997 16.724-5.05" fill="#ecf0f1"/><path d="m585.099 489.918h24.099v-4.461h-24.099zm0 16.06h24.099v-4.461h-24.099zm-.099 16.793h24.099v-4.461h-24.099zm0 17.858h24.099v-4.461h-24.099zm0 19.371h24.099v-4.461h-24.099z" fill="#c1392b"/><path d="m593.856 705.386v-9.386h34.173v48.06h-30.029" fill="#f9db9d"/><path d="m585 613.332v-25.513h46.999v131.18h-40.9" fill="#2d3e50"/><path d="m585 590h20v-15.818h-20z" fill="#f1c40f"/><path d="m641.047 480.019s4.348 56.522 6.522 67.391c2.174 10.87 6.52 56.522 0 63.043-6.522 6.522-26.087 2.174-28.261-15.217s-6.522-78.261-6.522-78.261v-36.956h28.26z" fill="#f9db9d"/><path d="m643.996 495.384 9.869 92.434-24.75 5.066-6.75-97.5z" fill="#34495e"/><path d="m633.325 480.019 3.675 110.98-5.1 1.885z" fill="#2d3e50"/><path d="m599 452.94-3.684 179.8s1.321 6 4.485 6 33.524-13.74 33.524-13.74l.088-129.383h10.583s-1.016-42.678-23.408-42.678h-21.588z" fill="#34495e"/><path d="m215 448.432c53.572 0 97-33.394 97-74.588 0-41.193-43.429-65.276-97-65.276-53.572 0-97 24.083-97 65.276 0 41.194 43.428 74.588 97 74.588" fill="#2d3e50"/><path d="m215 430c53.572 0 97-47.991 97-107.19 0-59.2-43.429-93.81-97-93.81-53.572 0-97 34.61-97 93.81 0 59.199 43.428 107.19 97 107.19" fill="#2d3e50"/><path d="m215 400c53.572 0 97-16.288 97-72.08s-43.429-90.92-97-90.92c-53.573 0-97 35.128-97 90.92s43.428 72.08 97 72.08" fill="#2d3e50"/><g fill="#f9db9d"><path d="m138.266 387.185c6.69 0 12.116-5.427 12.116-12.122s-5.425-12.123-12.116-12.123-12.116 5.428-12.116 12.123 5.425 12.122 12.116 12.122m153.468 0c6.691 0 12.116-5.427 12.116-12.122s-5.425-12.123-12.116-12.123c-6.69 0-12.116 5.428-12.116 12.123s5.425 12.122 12.116 12.122"/><path d="m204.23 463.202h21.539v-18.099h-21.539z"/><path d="m215 451.838c44.61 0 80.773-43.846 80.773-104.922s-36.163-91.916-80.773-91.916-80.773 30.84-80.773 91.916 36.163 104.922 80.773 104.922"/></g><path d="m177.556 371.281a8.193 8.193 0 0 0 8.19-8.195 8.193 8.193 0 0 0 -8.19-8.196 8.193 8.193 0 0 0 -8.191 8.196 8.193 8.193 0 0 0 8.19 8.195m74.89 0a8.193 8.193 0 0 0 8.191-8.195 8.193 8.193 0 0 0 -8.19-8.196 8.193 8.193 0 0 0 -8.192 8.196 8.193 8.193 0 0 0 8.191 8.195" fill="#2d3e50"/><path d="m214.993 250c-69.468 2.459-88.202 52.625-81.594 113.451 0 0 .531-41.623 43.907-65.582 0 0 9.68-6.231 37.687-7.05s37.687 7.05 37.687 7.05c43.376 23.959 43.907 65.582 43.907 65.582 6.608-60.826-12.126-110.992-81.594-113.451m-24.736 159.258c-.257.767-.415 1.553-.415 2.36 0 7.385 11.264 13.372 25.158 13.372 13.895 0 25.158-5.987 25.158-13.372 0-.807-.157-1.593-.415-2.36-2.1 6.258-12.366 11.013-24.743 11.013s-22.643-4.755-24.743-11.013" fill="#2d3e50"/><path d="m197.007 478.806h17.993v-24.654h-17.993z" fill="#f9db9d"/><path d="m168.994 487.795s0 29.633-2.692 40.408c-2.693 10.776-10.77 78.122-5.385 83.51s10.769 0 13.462 0c2.692 0 13.462-123.918 13.462-123.918z" fill="#f9db9d"/><path d="m169.457 481s-10.14 91-12.14 101l20 4 13.392-79.838v-21z" fill="#f86792"/><path d="m181.752 483.162s-.752 19.838-.752 24.838-9.063 63-6.14 77l11.14 4 6.44-105.838h-9.08" fill="#d65492"/><path d="m202.892 454.84-.393-.688c-5.371 0-21.131.484-22 .848-3.562 1.174-5.656 5.628-7.822 13.938-3.927 15.062-3.927 20.062-3.927 20.062l14.25 2c-2 15 2 13 1 24-.395 1.473-3 31-3 31 2 12 8 10 5 36.74h29v-106.74c-6.718 0-12.164-8.686-12.164-19.399 0-.595.023-1.18.056-1.762" fill="#f86792"/><path d="m187.042 696 .728 51.16-.018.002-3 3c-1 1 0 2 6 1 5.054-.842 10.094-2.477 11.562-2.972l.438-.028s2.052-40.333 2.248-52.162z" fill="#f9db9d"/><path d="m186.83 749.1s-24.986 11.062-11.118 11.062h24.928c3.307 0 2.153-12.123 2.153-12.123z" fill="#f9db9d"/><path d="m215 708.412v-24.825h-.001v-142.587h-34l-2 155c.001 6.855 16.118 12.412 36 12.412z" fill="#c1392b"/><path d="m179 694s6.001 12 36.001 13l-.001-3s-24 2-36-13z" fill="#f1c40f"/><path d="m211.864 545.193s-12-10-12-32 12-38.193 12-38.193z" fill="#d65492"/><path d="m215 549s-12-10-12-32 12-38.193 12-38.193z" fill="#f86792"/><path d="m215 474a6 6 0 0 0 0 12v-2a4 4 0 0 1 0-8zm0 12a4 4 0 0 0 0 8v-1.334a2.667 2.667 0 1 1 0-5.333z" fill="#f1c40f"/><path d="m202 454.152s-3.272 21.85 3.864 31.848l-.864 4s-10-21-3-35.848" fill="#d65492"/><path d="m180 692 7-12 3 20 9-15 2 18 14.001-17v2l-13.001 16h-2l-2-15-7 13-2.74-1-2.26-17-5 10z" fill="#f1c40f"/><path d="m215 478.806h17.993v-24.654h-17.993z" fill="#f9db9d"/><path d="m261.007 487.795s0 29.633 2.692 40.408c2.693 10.776 10.77 78.122 5.385 83.51s-10.769 0-13.462 0c-2.692 0-13.462-123.918-13.462-123.918z" fill="#f9db9d"/><path d="m260.544 481s10.14 91 12.14 101l-20 4-13.392-79.838v-21z" fill="#f86792"/><path d="m248.249 483.162s.752 19.838.752 24.838 9.063 63 6.14 77l-11.14 4-6.44-105.838h9.08" fill="#d65492"/><path d="m227.109 454.84.393-.688c5.371 0 21.131.484 22 .848 3.562 1.174 5.656 5.628 7.823 13.938 3.926 15.062 3.926 20.062 3.926 20.062l-14.25 2c2 15-2 13-1 24 .395 1.473 3 31 3 31-2 12-8 10-5 36.74h-29v-106.74c6.718 0 12.164-8.686 12.164-19.399 0-.595-.023-1.18-.056-1.762" fill="#f86792"/><path d="m242.959 696-.728 51.16.018.002 3 3c1 1 0 2-6 1-5.054-.842-10.094-2.477-11.562-2.972l-.438-.028s-2.052-40.333-2.249-52.162h17.958z" fill="#f9db9d"/><path d="m243.17 749.1s24.987 11.062 11.119 11.062h-24.927c-3.307 0-2.153-12.123-2.153-12.123z" fill="#f9db9d"/><path d="m215 708.412v-24.825h.001v-142.587h34l2 155c-.001 6.855-16.118 12.412-36 12.412z" fill="#c1392b"/><path d="m251.001 694s-6.001 12-36.001 13l.001-3s24 2 36-13z" fill="#f1c40f"/><path d="m218.137 545.193s12-10 12-32-12-38.193-12-38.193z" fill="#d65492"/><path d="m215 549s12-10 12-32-12-38.193-12-38.193z" fill="#f86792"/><path d="m215.001 474a6 6 0 0 1 0 12v-2a4 4 0 0 0 0-8zm0 12a4 4 0 0 1 0 8v-1.334a2.667 2.667 0 1 0 0-5.333z" fill="#f1c40f"/><path d="m228.001 454.152s3.272 21.85-3.864 31.848l.864 4s10-21 3-35.848" fill="#d65492"/><path d="m250.001 692-7-12-3 20-9-15-2 18-14.001-17v2l13.001 16h2l2-15 7 13 2.74-1 2.26-17 5 10z" fill="#f1c40f"/><path d="m224.642 650.69s-11.697-5.282-10.565 6.037c1.132 11.32 6.792 3.774 6.792 3.774s-6.114-5.283-1.548-6.415c4.566-1.13 17.395 18.111 6.453 23.016 0 0 6.037 3.774 8.867-4.15 0 0 6.225-3.396 7.357-.377 0 0 10.768-6.885 1.509-8.302-5.925-.906-1.886 2.718-1.886 2.718l1.733.526s-9.28 1.661-9.657-8.903c-.377-10.565 3.396-14.715 6.037-10.943 2.642 3.774-1.132 3.397-1.132 3.397s.3 2.111 3.019 1.887c6.12-.508 2.264-11.32-5.66-9.81-7.923 1.51-5.415 17.351-5.415 17.351s-1.376-7.54-5.904-9.806m-25.632-74.5s-11.697-5.282-10.565 6.037c1.132 11.32 6.792 3.774 6.792 3.774s-6.114-5.283-1.548-6.415c4.566-1.13 17.395 18.111 6.453 23.016 0 0 6.037 3.774 8.867-4.15 0 0 6.225-3.396 7.357-.377 0 0 10.768-6.885 1.509-8.302-5.925-.906-1.886 2.718-1.886 2.718l1.733.526s-9.28 1.661-9.657-8.903 3.395-14.714 6.037-10.943c2.642 3.774-1.132 3.397-1.132 3.397s.3 2.111 3.019 1.887c6.12-.508 2.264-11.32-5.66-9.81-7.923 1.51-5.415 17.351-5.415 17.351s-1.376-7.54-5.904-9.806m-7.791 55.496s-7.125-3.22-6.436 3.676c.69 6.895 4.138 2.3 4.138 2.3s-3.725-3.219-.943-3.909c2.78-.689 10.596 11.034 3.93 14.022 0 0 3.678 2.298 5.402-2.529 0 0 3.792-2.069 4.482-.23 0 0 6.56-4.193.919-5.056-3.61-.552-1.15 1.656-1.15 1.656l1.057.32s-5.653 1.011-5.883-5.425c-.23-6.434 2.069-8.963 3.678-6.664 1.609 2.297-.69 2.068-.69 2.068s.183 1.286 1.839 1.15c3.729-.31 1.379-6.897-3.448-5.977-4.826.92-3.298 10.57-3.298 10.57s-.84-4.594-3.597-5.972m42.264-25s-7.125-3.22-6.436 3.676c.69 6.895 4.138 2.3 4.138 2.3s-3.725-3.219-.943-3.909c2.781-.689 10.596 11.034 3.931 14.022 0 0 3.677 2.298 5.401-2.529 0 0 3.792-2.069 4.482-.23 0 0 6.56-4.193.92-5.056-3.61-.552-1.15 1.656-1.15 1.656l1.056.32s-5.652 1.011-5.882-5.426c-.229-6.434 2.07-8.963 3.678-6.664 1.61 2.297-.69 2.068-.69 2.068s.183 1.286 1.84 1.15c3.728-.31 1.378-6.896-3.449-5.977-4.826.92-3.298 10.57-3.298 10.57s-.839-4.594-3.597-5.972m-6.5-59.322s-7.125-3.219-6.436 3.677c.69 6.895 4.138 2.3 4.138 2.3s-3.725-3.219-.943-3.909c2.781-.689 10.596 11.033 3.931 14.021 0 0 3.677 2.3 5.401-2.528 0 0 3.792-2.069 4.482-.23 0 0 6.56-4.193.919-5.057-3.609-.552-1.149 1.656-1.149 1.656l1.056.32s-5.653 1.012-5.883-5.424c-.23-6.435 2.069-8.964 3.678-6.665 1.609 2.298-.69 2.068-.69 2.068s.183 1.287 1.839 1.15c3.729-.309 1.379-6.896-3.448-5.977-4.826.92-3.298 10.571-3.298 10.571s-.839-4.594-3.597-5.973m-35.984 122.637a2.632 2.632 0 1 0 0-5.263 2.632 2.632 0 0 0 0 5.263m38.633-35.34a2.632 2.632 0 1 0 0-5.263 2.632 2.632 0 0 0 0 5.263m-37.001-79.396a2.632 2.632 0 1 0 0-5.263 2.632 2.632 0 0 0 0 5.263m47.132 23a2.632 2.632 0 1 0 .001-5.264 2.632 2.632 0 0 0 0 5.263m-49.765 32.322a2.632 2.632 0 1 0 .001-5.263 2.632 2.632 0 0 0 -.001 5.263m5.58 133.415c5.202 0 9.42-.672 9.42-1.5s-4.218-1.5-9.42-1.5c-5.204 0-9.422.672-9.422 1.5s4.218 1.5 9.421 1.5m38.843 0c5.203 0 9.42-.672 9.42-1.5s-4.217-1.5-9.42-1.5-9.421.672-9.421 1.5 4.218 1.5 9.42 1.5" fill="#f1c40f"/></g></svg>