<svg height="800" width="800" xmlns="http://www.w3.org/2000/svg"><g fill="none" fill-rule="evenodd"><path d="M172.898 234.648c6.935-1.857 5.254-30.619-3.755-64.24-9.008-33.619-21.933-59.369-28.869-57.512-6.935 1.86-5.253 30.621 3.755 64.24 9.01 33.621 21.934 59.371 28.87 57.512" fill="#f3ca27"/><path d="M139.499 109.998l41.032 160.861 1.93-.517zm42.964 160.344l1.932-.518-44.897-159.826z" fill="#f4a629"/><g fill="#f9db9d"><path d="M169.845 528.203c-2.693 10.775-10.77 78.121-5.385 83.51 5.385 5.386 10.77 0 13.462 0 2.192 0 9.734-82.096 12.465-112.643L215 502v-47.848h-12c-35.837-1.838-28.074 18.66-29.977 33.643 0 0-.486 29.633-3.178 40.408m90.311 0c2.693 10.775 10.77 78.121 5.385 83.51-5.385 5.386-10.77 0-13.462 0-2.192 0-9.734-82.096-12.465-112.643L215.001 502v-47.848h12c35.837-1.838 28.074 18.66 29.977 33.643 0 0 .486 29.633 3.178 40.408"/></g><path d="M215 709.23V578h-35l-4.659 131.23zm39.66 0L250.001 578h-35v131.23z" fill="#425161"/><path d="M186.752 709.23l1.018 37.93-.018.002-3 3c-1 1 0 2 6 1 5.055-.842 10.094-2.477 11.562-2.972l.438-.028s.039-27.103.235-38.932z" fill="#f9db9d"/><path d="M186.83 749.1s-24.986 11.062-11.118 11.062h24.927c3.307 0 2.153-12.123 2.153-12.123z" fill="#f9db9d"/><path d="M215 432c49.706 0 90-19.486 90-86.231S264.705 237 215 237c-49.706 0-90 42.024-90 108.769S165.294 432 215 432" fill="#2d3e50"/><g fill="#f9db9d"><path d="M138.266 387.185c6.69 0 12.116-5.427 12.116-12.122s-5.425-12.123-12.116-12.123-12.116 5.428-12.116 12.123 5.425 12.122 12.116 12.122m153.468 0c6.691 0 12.116-5.427 12.116-12.122s-5.425-12.123-12.116-12.123-12.116 5.428-12.116 12.123 5.425 12.122 12.116 12.122"/></g><path d="M204.23 463.202h21.539v-18.099H204.23z" fill="#f9db9d"/><path d="M215 451.838c44.61 0 80.773-43.846 80.773-104.922S259.61 255 215 255s-80.773 30.84-80.773 91.916S170.39 451.838 215 451.838" fill="#f9db9d"/><g fill="#2d3e50"><path d="M177.556 371.281a8.193 8.193 0 0 0 8.19-8.195c0-4.527-3.666-8.196-8.19-8.196s-8.191 3.67-8.191 8.196a8.193 8.193 0 0 0 8.19 8.195m74.89 0a8.193 8.193 0 0 0 8.191-8.195c0-4.527-3.667-8.196-8.19-8.196s-8.192 3.67-8.192 8.196a8.193 8.193 0 0 0 8.191 8.195m-62.188 37.977c-.257.767-.415 1.553-.415 2.36 0 7.385 11.264 13.372 25.158 13.372 13.895 0 25.158-5.987 25.158-13.372 0-.807-.157-1.593-.415-2.36-2.1 6.258-12.366 11.013-24.743 11.013s-22.643-4.755-24.743-11.013"/><path d="M214.993 250c-69.468 2.459-88.202 52.625-81.594 113.451 0 0 .531-41.623 43.907-65.582 0 0 9.68-6.231 37.687-7.05s37.687 7.05 37.687 7.05c43.376 23.959 43.907 65.582 43.907 65.582 6.608-60.826-12.126-110.992-81.594-113.451"/></g><path d="M294.242 440.815c1.98 0 3.586-12.495 3.586-27.908 0-15.412-1.606-27.907-3.586-27.907s-3.586 12.495-3.586 27.907c0 15.413 1.606 27.908 3.586 27.908m-160.015 0c1.98 0 3.586-12.495 3.586-27.908 0-15.412-1.606-27.907-3.586-27.907s-3.586 12.495-3.586 27.907c0 15.413 1.606 27.908 3.586 27.908" fill="#f1c40f"/><path d="M196.867 478.806h17.993v-24.654h-17.993z" fill="#f9db9d"/><path d="M177.598 582.914h37.38l.021-21.914v-76H215l-19.483-31.436s-1.517 0-5.518.436c-1.368.148-7 2-7 2l1 29c-7 14-.64 21.023 0 30 .102 1.428.197 2.744.29 4 1.693 23.348-6.3 58.137-6.69 63.914" fill="#485b6e"/><path d="M214 582.914h1V484h-1z" fill="#c1392b"/><path d="M177.599 582.914H215v-2h-37.401zM215 484.947v-1.638l-17.174-29.744h-2.31l18.461 31.973z" fill="#c1392b"/><g fill="#ecf0f1"><path d="M204.4 502.695a5.44 5.44 0 0 0-.82-.723c10.316-27.373.346-15.339.346-15.339 4.505-3.174.11 7.853-2.686 14.242-.221-.065-.435-.139-.667-.188 1.99-9.99-.49-4.869-.49-4.869 1.022-1.23.478 1.811-.198 4.73a10.654 10.654 0 0 0-1.071-.074c-.075-1.613-.187-2.662-.314-2.662-.126 0-.238 1.05-.313 2.662-.363.012-.725.026-1.071.073-.676-2.918-1.22-5.959-.2-4.729 0 0-2.48-5.12-.488 4.87-.233.048-.446.122-.668.187-2.796-6.389-7.191-17.416-2.685-14.242 0 0-9.971-12.034.346 15.34a5.392 5.392 0 0 0-.82.722c-7.917-1.434-3.342.781-3.342.781-.966-.8.702-.638 2.874-.205-.347.551-.54 1.154-.54 1.79 0 .632.193 1.236.54 1.786-2.172.434-3.84.598-2.874-.203 0 0-4.561 2.21 3.34.78.248.273.53.53.854.761-10.337 27.416-.378 15.412-.378 15.412-4.522 3.186-.082-7.925 2.712-14.302.205.058.427.091.64.136-1.99 9.991.489 4.87.489 4.87-1.02 1.232-.476-1.81.2-4.727.345.047.705.06 1.066.07.075 1.668.189 2.756.318 2.756.13 0 .243-1.088.318-2.756.362-.01.722-.023 1.067-.07.676 2.916 1.22 5.96.199 4.726 0 0 2.48 5.122.489-4.869.214-.045.436-.078.64-.136 2.795 6.377 7.234 17.488 2.713 14.302 0 0 9.958 12.004-.38-15.412a5.3 5.3 0 0 0 .855-.76c7.9 1.428 3.34-.78 3.34-.78.967.8-.701.636-2.873.202.347-.55.54-1.154.54-1.787 0-.635-.193-1.238-.541-1.789 2.173-.433 3.84-.596 2.874.205 0 0 4.576-2.215-3.341-.78"/><path d="M196.706 467.033a2.559 2.559 0 0 0-.536-.107c-2.377-14.434-3.686-6.729-3.686-6.729 1.158-2.502 2.012 3.371 2.398 6.838-.113.027-.223.047-.336.086-1.636-4.824-1.429-1.988-1.429-1.988.134-.788.66.666 1.096 2.1a5.08 5.08 0 0 0-.482.234c-.436-.68-.746-1.104-.8-1.073-.056.032.158.514.528 1.23-.153.096-.307.192-.444.3-1.023-1.094-2.019-2.278-1.27-1.998 0 0-2.353-1.598 1.007 2.23-.089.078-.163.164-.242.25-2.809-2.068-7.469-5.746-4.724-5.498 0 0-7.326-2.717 3.984 6.557a2.618 2.618 0 0 0-.173.517c-3.787 1.36-1.252 1.174-1.252 1.174-.619-.103.143-.453 1.193-.807-.014.325.055.635.213.91.158.272.393.49.681.64-.832.73-1.514 1.218-1.295.63 0 0-1.423 2.096 1.64-.5.176.06.363.1.561.117 2.378 14.457 3.69 6.768 3.69 6.768-1.163 2.51-2.018-3.41-2.4-6.869.1-.028.206-.067.31-.104 1.635 4.826 1.428 1.988 1.428 1.988-.134.788-.659-.666-1.095-2.097.162-.065.32-.15.48-.235.45.704.77 1.145.826 1.112.056-.033-.167-.53-.55-1.272.153-.095.306-.189.443-.297 1.021 1.092 2.017 2.276 1.268 1.997 0 0 2.354 1.6-1.007-2.23.082-.073.17-.144.245-.22 2.804 2.063 7.503 5.764 4.75 5.516 0 0 7.313 2.71-4.018-6.58.083-.182.141-.363.18-.543 3.78-1.358 1.252-1.172 1.252-1.172.62.104-.145.451-1.194.807a1.663 1.663 0 0 0-.214-.91 1.672 1.672 0 0 0-.679-.639c.831-.733 1.513-1.219 1.295-.63 0 0 1.427-2.105-1.642.497m8.82 84.623a6.174 6.174 0 0 0-.882-.908c14.406-30.682 1.795-17.69 1.795-17.69 5.493-3.256-.586 9.08-4.397 16.207-.25-.093-.49-.197-.755-.275 3.208-11.359-.121-5.67-.121-5.67 1.29-1.33.386 2.135-.661 5.443a12.293 12.293 0 0 0-1.23-.18c.06-1.87.026-3.093-.12-3.105-.147-.009-.371 1.19-.604 3.047-.42-.019-.84-.037-1.244-.014-.516-3.429-.868-6.996.199-5.478 0 0-2.398-6.143-1.006 5.58-.274.035-.527.1-.788.154-2.65-7.634-6.724-20.77-1.808-16.695 0 0-10.424-14.805-.995 17.752-.372.228-.717.48-1.013.76-9.015-2.377-3.931.597-3.931.597-1.044-1.013.869-.67 3.338.026-.451.603-.728 1.283-.786 2.015-.058.733.11 1.448.46 2.116-2.548.302-4.49.34-3.3-.498 0 0-5.47 2.138 3.788 1.207.26.336.563.658.917.957-14.434 30.728-1.84 17.767-1.84 17.767-5.511 3.268.627-9.162 4.435-16.275.23.088.485.146.728.217-3.208 11.36.12 5.67.12 5.67-1.29 1.33-.385-2.135.662-5.444.393.086.809.135 1.225.182-.065 1.931-.033 3.197.117 3.21.149.011.379-1.234.618-3.154.418.02.836.038 1.238.014.516 3.43.868 6.996-.2 5.48 0 0 2.399 6.141 1.007-5.58.252-.033.51-.052.753-.1 2.649 7.62 6.766 20.856 1.833 16.767 0 0 10.412 14.773.964-17.838a6.079 6.079 0 0 0 1.055-.803c8.998 2.371 3.93-.596 3.93-.596 1.044 1.014-.868.672-3.338-.025.45-.606.729-1.285.786-2.018.058-.732-.11-1.447-.461-2.113 2.548-.303 4.49-.34 3.3.498 0 0 5.488-2.143-3.788-1.207"/></g><path d="M215.141 478.806h17.993v-24.654h-17.993z" fill="#f9db9d"/><path d="M252.403 582.914h-37.38L215.003 561v-76H215l19.483-31.436s1.517 0 5.518.436c1.368.148 7 2 7 2l-1 29c7 14 .64 21.023 0 30-.102 1.428-.197 2.744-.29 4-1.693 23.348 6.3 58.137 6.69 63.914" fill="#485b6e"/><path d="M215.001 582.914h1V484h-1z" fill="#c1392b"/><path d="M215.001 582.914h37.401v-2h-37.401zM215 484.947v-1.638l17.174-29.744h2.31l-18.461 31.973z" fill="#c1392b"/><g fill="#ecf0f1"><path d="M225.601 502.695c.236-.26.515-.5.82-.723-10.316-27.373-.346-15.339-.346-15.339-4.505-3.174-.11 7.853 2.686 14.242.221-.065.435-.139.667-.188-1.99-9.99.49-4.869.49-4.869-1.022-1.23-.478 1.811.198 4.73.346-.048.708-.062 1.071-.074.075-1.613.187-2.662.314-2.662.126 0 .238 1.05.313 2.662.363.012.725.026 1.071.073.676-2.918 1.22-5.959.2-4.729 0 0 2.48-5.12.488 4.87.233.048.446.122.668.187 2.796-6.389 7.191-17.416 2.685-14.242 0 0 9.971-12.034-.346 15.34.305.222.585.462.82.722 7.917-1.434 3.342.781 3.342.781.966-.8-.702-.638-2.874-.205.347.551.54 1.154.54 1.79 0 .632-.193 1.236-.54 1.786 2.172.434 3.84.598 2.874-.203 0 0 4.561 2.21-3.34.78a5.335 5.335 0 0 1-.854.761c10.337 27.416.378 15.412.378 15.412 4.522 3.186.082-7.925-2.712-14.302-.205.058-.427.091-.64.136 1.99 9.991-.489 4.87-.489 4.87 1.02 1.232.476-1.81-.2-4.727-.345.047-.705.06-1.066.07-.075 1.668-.189 2.756-.318 2.756-.13 0-.243-1.088-.318-2.756-.362-.01-.722-.023-1.067-.07-.676 2.916-1.22 5.96-.199 4.726 0 0-2.48 5.122-.489-4.869-.214-.045-.436-.078-.64-.136-2.795 6.377-7.234 17.488-2.713 14.302 0 0-9.958 12.004.38-15.412a5.3 5.3 0 0 1-.855-.76c-7.9 1.428-3.34-.78-3.34-.78-.967.8.701.636 2.873.202a3.328 3.328 0 0 1-.54-1.787c0-.635.193-1.238.541-1.789-2.173-.433-3.84-.596-2.874.205 0 0-4.576-2.215 3.341-.78"/><path d="M233.295 467.033c.168-.055.349-.088.536-.107 2.377-14.434 3.686-6.729 3.686-6.729-1.158-2.502-2.012 3.371-2.398 6.838.113.027.223.047.336.086 1.636-4.824 1.429-1.988 1.429-1.988-.134-.788-.66.666-1.096 2.1.16.064.32.148.482.234.436-.68.746-1.104.8-1.073.056.032-.158.514-.528 1.23.153.096.307.192.444.3 1.023-1.094 2.019-2.278 1.27-1.998 0 0 2.353-1.598-1.007 2.23.089.078.163.164.242.25 2.809-2.068 7.469-5.746 4.724-5.498 0 0 7.326-2.717-3.984 6.557.076.172.137.345.173.517 3.787 1.36 1.252 1.174 1.252 1.174.619-.103-.143-.453-1.193-.807.014.325-.055.635-.213.91-.158.272-.393.49-.681.64.832.73 1.514 1.218 1.295.63 0 0 1.423 2.096-1.64-.5-.176.06-.363.1-.561.117-2.378 14.457-3.69 6.768-3.69 6.768 1.163 2.51 2.018-3.41 2.4-6.869-.1-.028-.206-.067-.31-.104-1.635 4.826-1.428 1.988-1.428 1.988.134.788.659-.666 1.095-2.097-.162-.065-.32-.15-.48-.235-.45.704-.77 1.145-.826 1.112-.056-.033.167-.53.55-1.272-.153-.095-.306-.189-.443-.297-1.021 1.092-2.017 2.276-1.268 1.997 0 0-2.354 1.6 1.007-2.23-.082-.073-.17-.144-.245-.22-2.804 2.063-7.503 5.764-4.75 5.516 0 0-7.313 2.71 4.018-6.58a2.658 2.658 0 0 1-.18-.543c-3.78-1.358-1.252-1.172-1.252-1.172-.62.104.145.451 1.194.807a1.663 1.663 0 0 1 .214-.91c.158-.274.392-.487.679-.639-.831-.733-1.513-1.219-1.295-.63 0 0-1.427-2.105 1.642.497m-8.82 84.623c.25-.322.55-.625.882-.908-14.406-30.682-1.795-17.69-1.795-17.69-5.493-3.256.586 9.08 4.397 16.207.25-.093.49-.197.755-.275-3.208-11.359.121-5.67.121-5.67-1.29-1.33-.386 2.135.661 5.443.395-.086.812-.134 1.23-.18-.06-1.87-.026-3.093.12-3.105.147-.009.371 1.19.604 3.047.42-.019.84-.037 1.244-.014.516-3.429.868-6.996-.199-5.478 0 0 2.398-6.143 1.006 5.58.274.035.527.1.788.154 2.65-7.634 6.724-20.77 1.808-16.695 0 0 10.424-14.805.995 17.752.372.228.717.48 1.013.76 9.015-2.377 3.931.597 3.931.597 1.044-1.013-.869-.67-3.338.026.451.603.728 1.283.786 2.015.058.733-.11 1.448-.46 2.116 2.548.302 4.49.34 3.3-.498 0 0 5.47 2.138-3.788 1.207a6.328 6.328 0 0 1-.917.957c14.434 30.728 1.84 17.767 1.84 17.767 5.511 3.268-.627-9.162-4.435-16.275-.23.088-.485.146-.728.217 3.208 11.36-.12 5.67-.12 5.67 1.29 1.33.385-2.135-.662-5.444-.393.086-.809.135-1.225.182.065 1.931.033 3.197-.117 3.21-.149.011-.379-1.234-.618-3.154-.418.02-.836.038-1.238.014-.516 3.43-.868 6.996.2 5.48 0 0-2.399 6.141-1.007-5.58-.252-.033-.51-.052-.753-.1-2.649 7.62-6.766 20.856-1.833 16.767 0 0-10.412 14.773-.964-17.838a6.079 6.079 0 0 1-1.055-.803c-8.998 2.371-3.93-.596-3.93-.596-1.044 1.014.868.672 3.338-.025-.45-.606-.729-1.285-.786-2.018-.058-.732.11-1.447.461-2.113-2.548-.303-4.49-.34-3.3.498 0 0-5.488-2.143 3.788-1.207"/></g><path d="M243.248 709.23l-1.018 37.93.018.002 3 3c1 1 0 2-6 1-5.055-.842-10.094-2.477-11.562-2.972l-.438-.028s-.039-27.103-.235-38.932z" fill="#f9db9d"/><path d="M243.17 749.1s24.986 11.062 11.118 11.062H229.36c-3.307 0-2.153-12.123-2.153-12.123z" fill="#f9db9d"/><path d="M299.933 296.826L292.458 250 215 258.263v49.793z" fill="#ea5e50"/><path d="M215 308.057v-6.965l84.084-9.58.848 5.315zm78.93-48.836L215 266.823v-8.557L292.457 250z" fill="#f3ca27"/><path d="M248.943 269.217a9.243 9.243 0 0 0-1.104 1.555c-49.384-12.91-26.685 2.198-26.685 2.198-6.33-7.24 13.607-1.626 25.203 2.063-.07.395-.156.78-.199 1.192-17.699-1.633-8.36 1.736-8.36 1.736-2.326-1.547 3.053-1.158 8.24-.516-.02.61.022 1.24.07 1.871-2.786.424-4.587.81-4.563 1.03.023.22 1.863.223 4.675.06.086.626.176 1.252.321 1.844-4.94 1.705-10.119 3.204-8.166 1.208 0 0-8.436 5.236 8.54-.04.126.394.29.752.442 1.124-10.576 6.02-28.912 15.656-24.223 7.258 0 0-19.062 19.498 26.557-3.398.443.488.906.93 1.404 1.292-1.045 14 1.963 5.656 1.963 5.656-1.215 1.823-1.234-1.102-.877-4.95 1.018.502 2.1.727 3.201.611 1.098-.116 2.112-.56 3.002-1.263 1.151 3.69 1.74 6.555.172 5.024 0 0 4.666 7.512.742-5.939a9.11 9.11 0 0 0 1.168-1.62c49.463 12.937 26.817-2.155 26.817-2.155 6.351 7.265-13.74 1.588-25.317-2.098.065-.366.082-.758.122-1.138 17.697 1.633 8.36-1.735 8.36-1.735 2.321 1.547-3.056 1.158-8.243.516.02-.606-.024-1.235-.067-1.864 2.88-.434 4.746-.83 4.723-1.054s-1.934-.223-4.84-.05c-.086-.624-.176-1.247-.32-1.837 4.941-1.705 10.12-3.204 8.168-1.208 0 0 8.435-5.237-8.537.04-.118-.363-.215-.742-.354-1.087 10.557-6.013 29.028-15.743 24.324-7.316 0 0 19.014-19.47-26.675 3.468a9.35 9.35 0 0 0-1.48-1.342c1.04-13.973-1.962-5.655-1.962-5.655 1.215-1.824 1.235 1.101.875 4.95-1.015-.502-2.099-.727-3.197-.61-1.102.115-2.113.56-3.006 1.262-1.148-3.69-1.736-6.556-.17-5.024 0 0-4.676-7.537-.744 5.941" fill="#f1c40f"/><path d="M130.067 296.826L137.542 250 215 258.263v49.793z" fill="#ea5e50"/><path d="M215 308.057v-6.965l-84.084-9.58-.848 5.315zm-78.93-48.836l78.93 7.602v-8.557L137.543 250z" fill="#f3ca27"/><path d="M181.057 269.217c.412.457.773.985 1.104 1.555 49.384-12.91 26.685 2.198 26.685 2.198 6.33-7.24-13.607-1.626-25.203 2.063.07.395.156.78.199 1.192 17.699-1.633 8.36 1.736 8.36 1.736 2.326-1.547-3.053-1.158-8.24-.516.02.61-.022 1.24-.07 1.871 2.786.424 4.587.81 4.563 1.03-.023.22-1.863.223-4.675.06-.086.626-.176 1.252-.321 1.844 4.94 1.705 10.119 3.204 8.166 1.208 0 0 8.436 5.236-8.54-.04-.126.394-.29.752-.442 1.124 10.576 6.02 28.912 15.656 24.223 7.258 0 0 19.062 19.498-26.557-3.398-.443.488-.906.93-1.404 1.292 1.045 14-1.963 5.656-1.963 5.656 1.215 1.823 1.234-1.102.877-4.95-1.018.502-2.1.727-3.201.611-1.098-.116-2.112-.56-3.002-1.263-1.151 3.69-1.74 6.555-.172 5.024 0 0-4.666 7.512-.742-5.939a9.11 9.11 0 0 1-1.168-1.62c-49.463 12.937-26.817-2.155-26.817-2.155-6.351 7.265 13.74 1.588 25.317-2.098-.065-.366-.082-.758-.122-1.138-17.697 1.633-8.36-1.735-8.36-1.735-2.321 1.547 3.056 1.158 8.243.516-.02-.606.024-1.235.067-1.864-2.88-.434-4.746-.83-4.723-1.054s1.934-.223 4.84-.05c.086-.624.176-1.247.32-1.837-4.941-1.705-10.12-3.204-8.168-1.208 0 0-8.435-5.237 8.537.04.118-.363.215-.742.354-1.087-10.557-6.013-29.028-15.743-24.324-7.316 0 0-19.014-19.47 26.675 3.468a9.35 9.35 0 0 1 1.48-1.342c-1.04-13.973 1.962-5.655 1.962-5.655-1.215-1.824-1.235 1.101-.875 4.95 1.015-.502 2.099-.727 3.197-.61 1.102.115 2.113.56 3.006 1.262 1.148-3.69 1.736-6.556.17-5.024 0 0 4.676-7.537.744 5.941" fill="#f1c40f"/><path d="M179.826 582.914l-.107 3h35.28v-3zm35.175 0v3h35.28l-.105-3zm-36.283 31.193l-.107 3H215v-3zm-.241 6.785l-.071 2H215v-2zm-.213 6l-.071 2H215v-2zm-.213 6l-.106 3H215v-3zm36.95 0v3h37.056l-.107-3zm36.807-4l-.071-2h-36.736v2zm-.213-6l-.071-2h-36.523v2zm-.206-5.785l-.106-3h-36.282v3z" fill="#c1392b"/><path d="M178.193 628.893l-.142 4h36.95v-4zm36.808 0v4h36.95l-.143-4zm0-7.893v-4h-36.386l-.142 4zm0 0h36.527l-.142-4h-36.385z" fill="#ecf0f1"/><path d="M178.406 622.893l-.142 4H215v-4zm36.595 0v4h36.736l-.142-4z" fill="#f1c40f"/><path d="M176.168 700l-.114 1.271H215V700zm-.258 2.875l-.076.848H215v-.848zm-.228 2.543l-.076.848H215v-.848zm-.228 2.541l-.114 1.271H215v-1.271zm39.547 0v1.271h39.66l-.115-1.271zm39.393-1.693l-.076-.848h-39.317v.848zm-.228-2.543l-.076-.848h-39.089v.848zm-.22-2.452l-.114-1.271h-38.83v1.271z" fill="#c1392b"/><path d="M175.607 706.266l-.152 1.693H215v-1.693zm39.394 0v1.693h39.546l-.152-1.693zM215 702.92v-1.693h-38.941l-.152 1.693zm0 0h39.095l-.152-1.693H215z" fill="#ecf0f1"/><path d="M175.835 703.723l-.152 1.695H215v-1.695zm39.166 0v1.695h39.318l-.152-1.695z" fill="#f1c40f"/><path d="M175.84 695.156l-.061 1.715c1.153-.393 2.436-.852 3.899-1.404.164.226.342.422.533.593-.953 5.318.527 2.288.527 2.288-.55.665-.437-.482-.138-1.973.377.238.79.37 1.226.37.436 0 .85-.132 1.229-.37.297 1.491.41 2.638-.141 1.973 0 0 1.5 3.085.53-2.29.183-.164.347-.358.5-.569 18.808 7.088 10.54.238 10.54.238 2.182 3.095-5.394.076-9.783-1.845.045-.154.096-.302.13-.464 6.786 1.347 3.343-.33 3.343-.33.848.702-1.242.328-3.246-.137a7.19 7.19 0 0 0 0-1.902c2.004-.465 4.094-.839 3.246-.137 0 0 3.443-1.677-3.342-.33-.035-.162-.086-.31-.131-.464 4.389-1.922 11.965-4.94 9.784-1.845 0 0 8.267-6.85-10.54.238a3.584 3.584 0 0 0-.5-.568c.969-5.377-.531-2.292-.531-2.292.55-.664.438.483.14 1.975a2.286 2.286 0 0 0-1.228-.37 2.28 2.28 0 0 0-1.226.37c-.3-1.492-.412-2.639.138-1.975 0 0-1.48-3.029-.527 2.29a3.737 3.737 0 0 0-.533.592c-1.318-.498-2.492-.92-3.557-1.288l-.06 1.687c1.01.41 1.996.828 2.855 1.205-.041.142-.064.296-.094.445-1.257-.25-2.162-.394-2.802-.466l-.016.426c.666.06 1.703.271 2.72.507a7.188 7.188 0 0 0 0 1.902c-1.077.25-2.167.468-2.823.512l-.016.434c.648-.066 1.582-.21 2.937-.479.03.15.053.303.094.445-.922.404-1.988.857-3.076 1.293m26.463-6.883c-2.19-3.109 5.445-.056 9.824 1.864-.041.142-.062.296-.094.445-6.787-1.347-3.343.33-3.343.33-.848-.702 1.244-.328 3.248.137a6.86 6.86 0 0 0 0 1.902c-2.004.465-4.096.84-3.248.137 0 0-3.444 1.677 3.343.33.032.15.053.303.094.445-4.38 1.92-12.014 4.972-9.824 1.864 0 0-8.246 6.841 10.588-.26.162.226.34.422.53.593-.952 5.318.528 2.288.528 2.288-.55.665-.437-.482-.138-1.973.367.231.767.357 1.189.364v-9.479a2.291 2.291 0 0 0-1.19.365c-.298-1.49-.411-2.638.139-1.974 0 0-1.48-3.029-.527 2.29a3.632 3.632 0 0 0-.531.592c-18.834-7.102-10.588-.26-10.588-.26m12.734-1.018c-.011 0-.023.005-.037.005v9.48c.014 0 .026.005.037.005a2.28 2.28 0 0 0 1.229-.37c.299 1.491.41 2.638-.141 1.973 0 0 1.502 3.086.53-2.29.183-.164.349-.357.503-.569 18.805 7.088 10.539.238 10.539.238 2.18 3.095-5.396.077-9.785-1.845.045-.154.096-.302.13-.464 6.786 1.347 3.345-.33 3.345-.33.846.702-1.244.328-3.248-.137a7.186 7.186 0 0 0 0-1.902c2.004-.465 4.094-.839 3.248-.137 0 0 3.44-1.677-3.344-.33-.035-.162-.086-.31-.131-.464 4.389-1.922 11.965-4.94 9.785-1.845 0 0 8.266-6.85-10.54.238a3.594 3.594 0 0 0-.501-.568c.97-5.377-.531-2.292-.531-2.292.55-.664.44.483.14 1.975a2.28 2.28 0 0 0-1.228-.37m31.067 8.211c.162.226.34.422.53.593-.952 5.318.528 2.288.528 2.288-.551.665-.437-.482-.138-1.973.377.238.79.37 1.226.37.436 0 .85-.132 1.229-.37.299 1.491.41 2.638-.141 1.973 0 0 1.5 3.086.53-2.29.183-.164.347-.358.5-.569 1.447.544 2.712.997 3.853 1.387l-.061-1.719c-1.072-.43-2.123-.875-3.035-1.275.045-.154.096-.302.13-.464 1.296.257 2.216.403 2.86.472l-.015-.43c-.664-.057-1.715-.269-2.748-.509a7.19 7.19 0 0 0 0-1.902c.98-.227 1.976-.43 2.644-.5l-.013-.423c-.64.074-1.514.215-2.727.456-.035-.162-.086-.31-.131-.464.85-.372 1.82-.785 2.815-1.187l-.061-1.69c-1.053.363-2.211.78-3.51 1.27a3.584 3.584 0 0 0-.5-.568c.969-5.377-.531-2.292-.531-2.292.55-.664.44.483.14 1.975a2.286 2.286 0 0 0-1.228-.37 2.28 2.28 0 0 0-1.226.37c-.3-1.492-.413-2.639.138-1.975 0 0-1.48-3.029-.527 2.29a3.632 3.632 0 0 0-.531.592c-18.834-7.102-10.588-.26-10.588-.26-2.192-3.109 5.445-.056 9.824 1.864-.041.142-.062.296-.096.445-6.785-1.347-3.341.33-3.341.33-.848-.702 1.244-.328 3.246.137a7.188 7.188 0 0 0 0 1.902c-2.002.465-4.094.84-3.246.137 0 0-3.444 1.677 3.34.33.035.148.056.303.097.445-4.38 1.92-12.016 4.972-9.824 1.864 0 0-8.246 6.841 10.588-.26" fill="#ecf0f1"/><g fill="#f9db9d"><path d="M585 495v-29.578l-11.775-12.483c-2.489-.136-15.096 0-18.178 0-24.683 0-27.449 36.894-27.716 42.061h-.028l-4.145 56.552c-2.232 15.316-5.191 53.019.691 58.901 6.521 6.522 26.087 2.174 28.26-15.217 2.175-17.391 6.522-78.261 6.522-78.261V495zm0 0v-29.578l11.775-12.483c2.489-.136 15.096 0 18.178 0 24.683 0 27.449 36.894 27.716 42.061h.028l4.145 56.552c2.232 15.316 5.191 53.019-.691 58.901-6.521 6.522-26.087 2.174-28.26-15.217-2.175-17.391-6.522-78.261-6.522-78.261V495z"/></g><path d="M524.596 506.674l-2.783 19.807 41.591 5.845 2.783-19.806zm79.217 5.846l2.783 19.807 41.592-5.846-2.784-19.807z" fill="#f1c40f"/><path d="M585 613.332v-25.513h46.999L629 744.999l-36 1" fill="#f9db9d"/><path d="M632.5 567l2.5 63h-50v-63z" fill="#425161"/><path d="M629.833 574.986l2.08 52.96-1.748.067-2.081-52.959z" fill="#ecf0f1"/><path d="M639.392 744.059s21.886 1.953 21.886 11.717v5.858h-68.346v-17.575z" fill="#f9db9d"/><path d="M589.25 733h42v-20h-42z" fill="#f1c40f"/><path d="M585 613.332v-25.513h-46.999L541 744.999l36 1" fill="#f9db9d"/><path d="M537.5 567l-2.5 63h50v-63z" fill="#425161"/><path d="M540.167 574.986l-2.081 52.96 1.749.067 2.081-52.959z" fill="#ecf0f1"/><path d="M530.608 744.059s-21.886 1.953-21.886 11.717v5.858h68.346v-17.575z" fill="#f9db9d"/><path d="M538.75 733h42v-20h-42z" fill="#f1c40f"/><path d="M570.84 461.88h28.32v-23.797h-28.32z" fill="#f9db9d"/><g fill="#f9db9d"><path d="M585 465.422c7.82 0 14.16-1.586 14.16-3.542s-6.34-3.542-14.16-3.542-14.16 1.586-14.16 3.542 6.34 3.542 14.16 3.542m90.217-86.939c7.204 0 13.043-5.84 13.043-13.043 0-7.204-5.839-13.044-13.043-13.044s-13.043 5.84-13.043 13.044c0 7.203 5.839 13.043 13.043 13.043m-180.434 0c7.204 0 13.043-5.84 13.043-13.043 0-7.204-5.839-13.044-13.043-13.044s-13.043 5.84-13.043 13.044c0 7.203 5.839 13.043 13.043 13.043"/></g><path d="M585 405.678c52.827 0 108.457-29.678 92.108-97.304-8.906-36.84-39.281-76.24-92.108-76.24s-91.07 60.74-93.526 76.24C480.126 380 532.173 405.678 585 405.678" fill="#2d3e50"/><path d="M585 446.418c47.424 0 85.869-41.851 85.869-93.478 0-51.626-38.445-100-85.869-100s-85.869 48.374-85.869 100c0 51.627 38.445 93.478 85.869 93.478" fill="#f9db9d"/><path d="M549.477 362.099c4.346 0 7.869-3.525 7.869-7.873s-3.523-7.873-7.87-7.873-7.868 3.525-7.868 7.873 3.523 7.873 7.869 7.873m71.942 0c4.346 0 7.869-3.525 7.869-7.873s-3.523-7.873-7.87-7.873-7.868 3.525-7.868 7.873 3.523 7.873 7.869 7.873m-59.74 36.482c-.248.737-.4 1.492-.4 2.267 0 7.095 10.821 12.846 24.168 12.846 13.348 0 24.17-5.75 24.17-12.846 0-.775-.153-1.53-.4-2.267-2.018 6.012-11.88 10.58-23.77 10.58-11.889 0-21.75-4.568-23.769-10.58" fill="#2d3e50"/><path d="M552.702 573H585v-87h-32.298zM585 573h32.298v-87H585z" fill="#f9db9d"/><path d="M631.999 570l-47-2.292V486l24-34.007c1.366-.075 5.579-1.071 13 .885 6.113 1.611 18 18.122 19 19.122" fill="#e84c3d"/><path d="M585 574h48v-12h-48z" fill="#ecf0f1"/><path d="M538.001 570l47-2.292V486l-24-34.007c-1.366-.075-5.579-1.071-13 .885-6.113 1.611-18 18.122-19 19.122" fill="#e84c3d"/><path d="M537 574h48v-12h-48z" fill="#ecf0f1"/><path d="M542.81 213.475c5.772-1.547 4.373-25.482-3.125-53.467-7.498-27.984-18.255-49.416-24.027-47.87s-4.373 25.485 3.125 53.47c7.498 27.984 18.255 49.414 24.027 47.867" fill="#f1c40f"/><path d="M515.012 109.728l34.15 133.885 1.609-.432zm35.759 133.454l1.608-.43-37.367-133.024z" fill="#f4a629"/><path d="M585 307l-92.5-10 6.5-78 86 4z" fill="#f1c40f"/><path d="M585 290.285L494 281l4-48.867L585 237z" fill="#ea5e50"/><path d="M548.018 244.677c.516.635.986 1.388 1.428 2.209 54.146-27.787 30.343-.932 30.343-.932 6.282-12.135-15.533-.3-28.17 7.233.128.596.272 1.172.37 1.799 19.76-5.363 9.63 1.315 9.63 1.315 2.438-2.75-3.58-1.284-9.351.538.094.93.12 1.906.143 2.883 3.19.202 5.265.504 5.265.845 0 .342-2.074.643-5.265.845-.022.977-.05 1.952-.143 2.884 5.77 1.82 11.789 3.287 9.352.538 0 0 10.13 6.677-9.631 1.315-.098.626-.242 1.203-.37 1.798 12.637 7.533 34.452 19.369 28.17 7.233 0 0 23.803 26.856-30.343-.932-.442.822-.912 1.575-1.428 2.21 2.836 21.324-1.545 9-1.545 9 1.586 2.603 1.262-1.891.402-7.741-1.086.935-2.281 1.455-3.535 1.455s-2.447-.52-3.535-1.454c-.857 5.85-1.182 10.344.402 7.74 0 0-4.371 12.284-1.541-8.998a13.816 13.816 0 0 1-1.51-2.3c-54.23 27.843-30.486 1.02-30.486 1.02-6.3 12.179 15.678.222 28.29-7.305-.114-.552-.178-1.15-.268-1.726-19.762 5.362-9.631-1.315-9.631-1.315-2.438 2.749 3.58 1.283 9.352-.538-.094-.928-.122-1.9-.143-2.872-3.297-.202-5.45-.51-5.45-.857s2.153-.654 5.45-.856c.02-.973.049-1.945.143-2.872-5.772-1.822-11.79-3.287-9.352-.538 0 0-10.131-6.678 9.63-1.315.09-.577.155-1.175.27-1.726-12.613-7.527-34.591-19.484-28.291-7.306 0 0-23.744-26.823 30.487 1.02.46-.874.966-1.634 1.509-2.3-2.83-21.282 1.54-8.997 1.54-8.997-1.583-2.604-1.258 1.889-.401 7.74 1.088-.935 2.28-1.454 3.535-1.454s2.449.519 3.535 1.455c.86-5.851 1.184-10.345-.402-7.741 0 0 4.38-12.325 1.545 9" fill="#f1c40f"/><path d="M585 307l92.5-10-6.5-78-86 4z" fill="#f1c40f"/><path d="M585 290.285L676 281l-4-48.867L585 237z" fill="#ea5e50"/><path d="M621.982 244.677c-.516.635-.986 1.388-1.428 2.209-54.146-27.787-30.343-.932-30.343-.932-6.282-12.135 15.533-.3 28.17 7.233-.128.596-.272 1.172-.37 1.799-19.76-5.363-9.63 1.315-9.63 1.315-2.438-2.75 3.58-1.284 9.351.538-.094.93-.12 1.906-.143 2.883-3.19.202-5.265.504-5.265.845 0 .342 2.074.643 5.265.845.022.977.05 1.952.143 2.884-5.77 1.82-11.789 3.287-9.352.538 0 0-10.13 6.677 9.631 1.315.098.626.242 1.203.37 1.798-12.637 7.533-34.452 19.369-28.17 7.233 0 0-23.803 26.856 30.343-.932.442.822.912 1.575 1.428 2.21-2.836 21.324 1.545 9 1.545 9-1.586 2.603-1.262-1.891-.402-7.741 1.086.935 2.281 1.455 3.535 1.455s2.447-.52 3.535-1.454c.857 5.85 1.182 10.344-.402 7.74 0 0 4.371 12.284 1.541-8.998a13.816 13.816 0 0 0 1.51-2.3c54.23 27.843 30.486 1.02 30.486 1.02 6.3 12.179-15.678.222-28.29-7.305.114-.552.178-1.15.268-1.726 19.762 5.362 9.631-1.315 9.631-1.315 2.438 2.749-3.58 1.283-9.352-.538.094-.928.122-1.9.143-2.872 3.297-.202 5.45-.51 5.45-.857s-2.153-.654-5.45-.856c-.02-.973-.049-1.945-.143-2.872 5.772-1.822 11.79-3.287 9.352-.538 0 0 10.131-6.678-9.63-1.315-.09-.577-.155-1.175-.27-1.726 12.613-7.527 34.591-19.484 28.291-7.306 0 0 23.744-26.823-30.487 1.02a13.826 13.826 0 0 0-1.509-2.3c2.83-21.282-1.54-8.997-1.54-8.997 1.583-2.604 1.258 1.889.401 7.74-1.088-.935-2.28-1.454-3.535-1.454s-2.449.519-3.535 1.455c-.86-5.851-1.184-10.345.402-7.741 0 0-4.38-12.325-1.545 9" fill="#f1c40f"/><path d="M535 630h100v-6H535z" fill="#ecf0f1"/><path d="M571.5 701h27V574h-27z" fill="#c1392b"/><g fill="#f1c40f"><path d="M537 592.854h3.467V580H537zm13.867 0h3.467V580h-3.467zm13.833 0h3.467V580H564.7zm-20.766 0h3.467V580h-3.467zm34.599 0H582V580h-3.467zm-20.766 0h3.467V580h-3.467zm13.832 0h3.467V580h-3.467zm14.651 0h3.467V580h-3.467zm13.867 0h3.467V580h-3.467zm13.833 0h3.467V580h-3.467zm-20.766 0h3.467V580h-3.467zm34.599 0h3.467V580h-3.467zm-20.766 0h3.467V580h-3.467zm13.832 0h3.467V580h-3.467zM537 580h96v-6h-96z"/></g></g></svg>