<svg height="800" width="800" xmlns="http://www.w3.org/2000/svg"><g fill="none" fill-rule="evenodd"><path d="M570.84 461.88h28.32v-23.797h-28.32z" fill="#f9db9d"/><path d="M675.217 378.483c7.204 0 13.043-5.84 13.043-13.043 0-7.204-5.839-13.044-13.043-13.044s-13.043 5.84-13.043 13.044c0 7.203 5.839 13.043 13.043 13.043m-180.434 0c7.204 0 13.043-5.84 13.043-13.043 0-7.204-5.839-13.044-13.043-13.044s-13.043 5.84-13.043 13.044c0 7.203 5.839 13.043 13.043 13.043" fill="#f9db9d"/><path d="M585 405.678c52.827 0 108.457-29.678 92.108-97.304-8.906-36.84-39.281-76.24-92.108-76.24s-91.07 60.74-93.526 76.24C480.126 380 532.173 405.678 585 405.678" fill="#2d3e50"/><path d="M585 446.418c47.424 0 85.869-41.851 85.869-93.478 0-51.626-38.445-100-85.869-100s-85.869 48.374-85.869 100c0 51.627 38.445 93.478 85.869 93.478" fill="#f9db9d"/><g fill="#2d3e50"><path d="M549.477 362.099c4.346 0 7.869-3.525 7.869-7.873s-3.523-7.873-7.87-7.873-7.868 3.525-7.868 7.873 3.523 7.873 7.869 7.873m71.942 0c4.346 0 7.869-3.525 7.869-7.873s-3.523-7.873-7.87-7.873-7.868 3.525-7.868 7.873 3.523 7.873 7.869 7.873m-59.74 36.482c-.248.737-.4 1.492-.4 2.267 0 7.095 10.821 12.846 24.168 12.846 13.348 0 24.17-5.75 24.17-12.846 0-.775-.153-1.53-.4-2.267-2.018 6.012-11.88 10.58-23.77 10.58-11.889 0-21.75-4.568-23.769-10.58"/></g><path d="M577.187 744.059l3.449-118.175s-3.45-12.445 3.065-12.445v-25.621h-45.6v156.056z" fill="#f39c11"/><path d="M537 668h48V559h-48z" fill="#d25400"/><path d="M537 668h48v-6h-48zm0-36h48v-6h-48z" fill="#f1c40f"/><path d="M529.684 744.059s-21.886 1.953-21.886 11.717v5.858h68.346v-17.575z" fill="#2d3e50"/><path d="M573 559h12v-97h-12z" fill="#ecf0f1"/><path d="M570.496 447.496l-7.5 7.5L578.5 470.5l6.5-8.5z" fill="#ecf0f1"/><path d="M528.953 480.019s-4.348 56.522-6.522 67.391c-2.174 10.87-6.52 56.522 0 63.043 6.522 6.522 26.087 2.174 28.261-15.217s6.522-78.261 6.522-78.261v-36.956z" fill="#f9db9d"/><path d="M526.004 495.384l-9.869 92.435 24.75 5.065 6.75-97.5z" fill="#f39c11"/><path d="M536.675 480.019L533 590.999l5.1 1.885z" fill="#e67f22"/><path d="M574.684 458.634V632.74s-1.321 6-4.485 6-33.611-.157-33.611-.157V495.618h-10.583s1.015-42.678 23.407-42.678 25.272 5.694 25.272 5.694" fill="#f39c11"/><path d="M564.918 447.496l-9.765 7.183 11.476 13.602 8.054-9.546z" fill="#f39c11"/><g fill="#f1c40f"><path d="M568.022 529.422h2v-5.333h-2zm0-10.666h2v-5.333h-2zm0 21.333h2v-5.333h-2zm0-64h2v-5.333h-2zm0 21.333h2v-5.333h-2zm0-10.666h2v-5.333h-2zm0 21.333h2v-5.333h-2zm0 42.667h2v-5.333h-2zm0 21.333h2v-5.333h-2zm0-10.667h2v-5.333h-2zm0 21.334h2v-5.333h-2zm0 10.666h2v-5.333h-2zm0 21.334h2v-5.333h-2zm0-10.667h2v-5.333h-2zM559 454.147l3.06 4.369 1.637-1.147-3.059-4.369zm6.118 8.738l3.06 4.37 1.637-1.148-3.059-4.369zM524.566 585.11l-5.217-1.11-.416 1.958 5.217 1.108zM535 587.327l-5.217-1.11-.416 1.957 5.217 1.109zm23.765 46.473h5.333v-2h-5.333zm-21.333 0h5.333v-2h-5.333zm10.666 0h5.333v-2h-5.333zm19.924 0h2v-5.333h-2zm0-10.667h2V617.8h-2z"/></g><path d="M583 464l-8.316 6.5.316 1.5z" fill="#bec3c7"/><path d="M577 626h2v-67h-2zm4.701 0h2v-67h-2z" fill="#e84c3d"/><g fill="#f39c11"><path d="M585 643c-11 0-21 9-31 9-3.656 0-13-3-17-6v3s6 6 17 6c13 0 22-8 31-9z"/><path d="M555.95 647c2.734 0 4.95-1.344 4.95-3s-2.216-3-4.95-3-4.95 1.344-4.95 3 2.216 3 4.95 3m-14 9c0-1.656-2.216-3-4.95-3v6c2.734 0 4.95-1.344 4.95-3m43.05-3c-2.734 0-4.95 1.344-4.95 3s2.216 3 4.95 3zm7.813 91.059l-3.449-118.175s3.45-12.445-3.065-12.445v-25.621h45.6v156.056z"/></g><path d="M585 668h48V559h-48z" fill="#d25400"/><path d="M585 668h48v-6h-48zm0-36h48v-6h-48z" fill="#f1c40f"/><path d="M640.316 744.059s21.886 1.953 21.886 11.717v5.858h-68.346v-17.575z" fill="#2d3e50"/><path d="M585 559h12v-97h-12z" fill="#ecf0f1"/><path d="M599.504 447.496l7.5 7.5L591.5 470.5 585 462z" fill="#ecf0f1"/><path d="M641.047 480.019s4.348 56.522 6.522 67.391c2.174 10.87 6.52 56.522 0 63.043-6.522 6.522-26.087 2.174-28.261-15.217s-6.522-78.261-6.522-78.261v-36.956z" fill="#f9db9d"/><path d="M643.996 495.384l9.869 92.435-24.75 5.065-6.75-97.5z" fill="#f39c11"/><path d="M633.325 480.019L637 590.999l-5.1 1.885z" fill="#e67f22"/><path d="M595.316 458.634V632.74s1.321 6 4.485 6 33.611-.157 33.611-.157V495.618h10.583s-1.015-42.678-23.407-42.678-25.272 5.694-25.272 5.694" fill="#f39c11"/><path d="M605.082 447.496l9.765 7.183-11.476 13.602-8.054-9.546z" fill="#f39c11"/><path d="M599.978 529.422h2v-5.333h-2zm0-10.666h2v-5.333h-2zm0 21.333h2v-5.333h-2zm0-64h2v-5.333h-2zm0 21.333h2v-5.333h-2zm0-10.666h2v-5.333h-2zm0 21.333h2v-5.333h-2zm0 42.667h2v-5.333h-2zm0 21.333h2v-5.333h-2zm0-10.667h2v-5.333h-2zm0 21.334h2v-5.333h-2zm0 10.666h2v-5.333h-2zm0 21.334h2v-5.333h-2zm0-10.667h2v-5.333h-2zM611 454.147l-3.06 4.369-1.637-1.147 3.059-4.369zm-6.118 8.738l-3.06 4.37-1.637-1.148 3.059-4.369zm40.552 122.224l5.217-1.11.416 1.958-5.217 1.108zM635 587.327l5.217-1.11.416 1.957-5.217 1.109zM605.902 633.8h5.333v-2h-5.333zm21.333 0h5.333v-2h-5.333zm-10.666 0h5.333v-2h-5.333zm-16.591 0h2v-5.333h-2zm0-10.667h2V617.8h-2z" fill="#f1c40f"/><path d="M587 464l8.316 6.5L595 472z" fill="#bec3c7"/><path d="M591 626h2v-67h-2zm-4.701 0h2v-67h-2z" fill="#e84c3d"/><g fill="#f39c11"><path d="M585 643c11 0 21 9 31 9 3.656 0 13-3 17-6v3s-6 6-17 6c-13 0-22-8-31-9z"/><path d="M614.05 647c-2.734 0-4.95-1.344-4.95-3s2.216-3 4.95-3 4.95 1.344 4.95 3-2.216 3-4.95 3m14 9c0-1.656 2.216-3 4.95-3v6c-2.734 0-4.95-1.344-4.95-3M585 653c2.734 0 4.95 1.344 4.95 3s-2.216 3-4.95 3z"/></g><path d="M487.635 232.134V322h193.5v-89.866L585 136.317z" fill="#e84c3d"/><path d="M487.635 253h193.5v-20.867h-193.5zm0 72h193.5v-12h-193.5zm0-47.133h193.5V257h-193.5zm145.922-45.734L585 183.576l-48.557 48.557h10.147l38.41-38.41 38.41 38.41z" fill="#f1c40f"/><path d="M214 229.044h2v-24.245h-2z" fill="#f39c11"/><path d="M215 182.044l12.798 12.798L215 207.64l-12.798-12.798z" fill="#f1c40f"/><path d="M319.702 299.748l-23.419 6.275-.517-1.932 23.418-6.275z" fill="#f39c11"/><path d="M341.423 292.893l-9.05 15.674-15.674-9.05 9.05-15.674z" fill="#f1c40f"/><path d="M310.2 271.72l-20.998 12.123-1-1.732 20.997-12.122z" fill="#f39c11"/><path d="M329.406 259.477l-4.684 17.483-17.483-4.685 4.684-17.483z" fill="#f1c40f"/><path d="M296.605 246.26l-15.584 18.573-1.532-1.286 15.584-18.573z" fill="#f39c11"/><path d="M310.466 228.186l1.577 18.03-18.03 1.578-1.577-18.03z" fill="#f1c40f"/><path d="M246.655 213.581l-6.275 23.42-1.932-.519 6.275-23.419z" fill="#f39c11"/><path d="M251.579 191.343l9.05 15.674-15.675 9.05-9.05-15.674z" fill="#f1c40f"/><path d="M274.483 225.513L262.36 246.51l-1.732-1 12.122-20.997z" fill="#f39c11"/><path d="M284.994 205.306l4.684 17.483-17.482 4.684-4.685-17.482z" fill="#f1c40f"/><path d="M110.298 299.748l23.419 6.275.517-1.932-23.418-6.275z" fill="#f39c11"/><path d="M88.577 292.893l9.05 15.674 15.674-9.05-9.05-15.674z" fill="#f1c40f"/><path d="M119.8 271.72l20.998 12.123 1-1.732-20.997-12.122z" fill="#f39c11"/><path d="M100.594 259.477l4.684 17.483 17.483-4.685-4.684-17.483z" fill="#f1c40f"/><path d="M133.395 246.26l15.584 18.573 1.532-1.286-15.584-18.573z" fill="#f39c11"/><path d="M119.534 228.186l-1.577 18.03 18.03 1.578 1.577-18.03z" fill="#f1c40f"/><path d="M183.345 213.581l6.275 23.42 1.932-.519-6.275-23.419z" fill="#f39c11"/><path d="M178.421 191.343l-9.05 15.674 15.675 9.05 9.05-15.674z" fill="#f1c40f"/><path d="M155.517 225.513l12.122 20.997 1.732-1-12.122-20.997z" fill="#f39c11"/><path d="M145.006 205.306l-4.684 17.483 17.482 4.684 4.685-17.482z" fill="#f1c40f"/><path d="M215 409.258c53.572 0 97-43.039 97-96.129S268.571 229 215 229c-53.572 0-97 31.038-97 84.13 0 53.09 43.428 96.128 97 96.128" fill="#f1c40f"/><path d="M215 448.432c53.572 0 97-43.04 97-96.13 0-53.09-43.429-84.128-97-84.128-53.572 0-97 31.038-97 84.129 0 53.09 43.428 96.129 97 96.129" fill="#2d3e50"/><path d="M215 387c53.572 0 97-14.989 97-66.332C312 269.326 268.571 237 215 237c-53.572 0-97 32.326-97 83.668C118 372.011 161.428 387 215 387" fill="#2d3e50"/><g fill="#f9db9d"><path d="M138.266 387.185c6.69 0 12.116-5.427 12.116-12.122s-5.425-12.123-12.116-12.123-12.116 5.428-12.116 12.123 5.425 12.122 12.116 12.122m153.468 0c6.691 0 12.116-5.427 12.116-12.122s-5.425-12.123-12.116-12.123-12.116 5.428-12.116 12.123 5.425 12.122 12.116 12.122"/></g><path d="M204.23 463.202h21.539v-18.099H204.23z" fill="#f9db9d"/><path d="M215 451.838c44.61 0 80.773-43.846 80.773-104.922S259.61 255 215 255s-80.773 30.84-80.773 91.916S170.39 451.838 215 451.838" fill="#f9db9d"/><g fill="#2d3e50"><path d="M177.556 371.281a8.193 8.193 0 0 0 8.19-8.195c0-4.527-3.666-8.196-8.19-8.196s-8.191 3.67-8.191 8.196a8.193 8.193 0 0 0 8.19 8.195m74.89 0a8.193 8.193 0 0 0 8.191-8.195c0-4.527-3.667-8.196-8.19-8.196s-8.192 3.67-8.192 8.196a8.193 8.193 0 0 0 8.191 8.195m-62.188 37.977c-.257.767-.415 1.553-.415 2.36 0 7.385 11.264 13.372 25.158 13.372 13.895 0 25.158-5.987 25.158-13.372 0-.807-.157-1.593-.415-2.36-2.1 6.258-12.366 11.013-24.743 11.013s-22.643-4.755-24.743-11.013"/><path d="M214.993 250c-69.468 2.459-88.202 52.625-81.594 113.451 0 0 .531-41.623 43.907-65.582 0 0 9.68-6.231 37.687-7.05s37.687 7.05 37.687 7.05c43.376 23.959 43.907 65.582 43.907 65.582 6.608-60.826-12.126-110.992-81.594-113.451"/><path d="M215 308.567c32.063 0 58.055-6.43 58.055-14.363 0-7.932-25.992-14.363-58.055-14.363s-58.055 6.431-58.055 14.363c0 7.933 25.992 14.363 58.055 14.363"/></g><path d="M197.007 478.806H215v-24.654h-17.993z" fill="#f9db9d"/><path d="M186.752 729.625l1.018 17.534-.018.003-3 3c-1 1 0 2 6 1 5.055-.843 10.094-2.477 11.562-2.973l.438-.027s.039-6.708.235-18.537z" fill="#f9db9d"/><path d="M186.83 749.1s-24.986 11.062-11.118 11.062h24.927c3.307 0 2.153-12.123 2.153-12.123z" fill="#2d3e50"/><path d="M172.537 487.795s0 29.633-2.692 40.408c-2.693 10.776-10.77 78.122-5.385 83.51s10.77 0 13.462 0 13.462-123.918 13.462-123.918z" fill="#f9db9d"/><path d="M215 740.6V579.239L176.197 578l.16 162.6z" fill="#d25400"/><path d="M183 543c-2.074 12.09-1.22 13.26-7.659 39 0 0 10.332-4.59 21.659 1 8.631 4.26 18 4 18 4V476l-18.133-21.847c-5.37 0-15.499.483-16.368.847-3.562 1.174-5.656 5.628-7.823 13.937C168.75 484 168.75 489 168.75 489l14.25 2c3.972 24 0 52 0 52" fill="#f1c40f"/><path d="M176.478 577.811c-.512 2.27-.408 1.272-1.138 4.188 0 0 10.333-4.59 21.66 1.001 8.631 4.26 18 4 18 4v-3s-9.369.425-18-3.835c-8.455-4.173-17.059-3.383-20.522-2.354" fill="#297fb8"/><path d="M176.357 740.602H215v-4.83h-38.643zm0-28.983H215v-4.83h-38.643z" fill="#f1c40f"/><g fill="#f39c11"><path d="M215 718.348c-8.856 0-16.906 7.246-24.957 7.246-2.943 0-10.466-2.416-13.686-4.83v2.414s4.83 4.83 13.686 4.83c10.466 0 17.711-6.44 24.957-7.244z"/><path d="M191.613 721.568c2.201 0 3.985-1.082 3.985-2.416s-1.784-2.414-3.985-2.414-3.985 1.08-3.985 2.414 1.784 2.416 3.985 2.416m-11.27 7.247c0-1.335-1.785-2.417-3.986-2.417v4.83c2.201 0 3.985-1.08 3.985-2.414M215 726.398c-2.201 0-3.985 1.082-3.985 2.416s1.784 2.414 3.985 2.414z"/></g><path d="M215 469s-13-7.695-12-14.848h-16S185 504 215 506z" fill="#297fb8"/><path d="M215 470.674s-14-6.674-13.568-16.521H188s.383 47.574 27 49.347z" fill="#d25400"/><path d="M168.75 489v2l14.25 2v-2z" fill="#d25400"/><path d="M183 541h32v-10.012h-32z" fill="#f39c11"/><g><g fill="#ecf0f1"><path d="M214.006 552.986c0-2.074-2.21-3.78-5.043-3.989-.225-2.811-1.922-4.997-3.984-4.997-2.075 0-3.782 2.21-3.991 5.044-2.81.224-4.996 1.921-4.996 3.984 0 2.074 2.21 3.78 5.043 3.989.225 2.811 1.922 4.997 3.985 4.997 2.074 0 3.78-2.21 3.99-5.044 2.81-.224 4.996-1.921 4.996-3.984m-6.191.021a2.817 2.817 0 0 1-5.631 0 2.815 2.815 0 0 1 5.63 0m-15.939 15.557c0-1.254-1.336-2.285-3.049-2.411-.135-1.7-1.162-3.021-2.408-3.021-1.254 0-2.285 1.336-2.41 3.049-1.699.136-3.022 1.162-3.022 2.408 0 1.254 1.336 2.285 3.049 2.412.135 1.699 1.162 3.02 2.408 3.02 1.254 0 2.286-1.336 2.412-3.05 1.7-.134 3.02-1.16 3.02-2.407m-3.742.013a1.702 1.702 0 1 1-3.403-.001 1.702 1.702 0 0 1 3.403 0m26.18-50.103c0-2.074-2.21-3.78-5.043-3.989-.225-2.81-1.922-4.997-3.984-4.997-2.075 0-3.782 2.21-3.991 5.044-2.81.224-4.996 1.921-4.996 3.984 0 2.074 2.21 3.78 5.042 3.99.225 2.81 1.922 4.996 3.985 4.996 2.075 0 3.782-2.21 3.99-5.044 2.81-.224 4.997-1.92 4.997-3.984m-6.191.021a2.817 2.817 0 0 1-5.631 0 2.815 2.815 0 0 1 5.63 0m-21.148-50.01c0-1.496-1.596-2.727-3.641-2.878-.162-2.028-1.386-3.606-2.875-3.606-1.498 0-2.728 1.595-2.88 3.64-2.028.162-3.604 1.387-3.604 2.875 0 1.497 1.594 2.728 3.639 2.879.162 2.029 1.386 3.606 2.875 3.606 1.498 0 2.728-1.595 2.879-3.64 2.029-.162 3.607-1.386 3.607-2.875m-4.47.015a2.031 2.031 0 1 1-4.062 0 2.031 2.031 0 0 1 4.063 0m15.871 37.485c0-1.497-1.596-2.728-3.641-2.88-.162-2.027-1.386-3.605-2.875-3.605-1.498 0-2.728 1.595-2.879 3.64-2.029.162-3.605 1.387-3.605 2.875 0 1.497 1.594 2.728 3.639 2.879.162 2.029 1.386 3.606 2.875 3.606 1.498 0 2.728-1.595 2.879-3.64 2.029-.162 3.607-1.386 3.607-2.875m-4.469.015a2.031 2.031 0 1 1-4.062 0 2.031 2.031 0 0 1 4.062 0m13.58-32.439c0-1.497-1.596-2.728-3.64-2.879-.163-2.028-1.387-3.606-2.876-3.606-1.498 0-2.728 1.595-2.879 3.64-2.029.162-3.605 1.387-3.605 2.875 0 1.497 1.594 2.728 3.64 2.88.161 2.028 1.385 3.605 2.874 3.605 1.498 0 2.728-1.595 2.88-3.64 2.028-.162 3.606-1.386 3.606-2.875m-4.469.015a2.031 2.031 0 1 1-4.062 0 2.031 2.031 0 0 1 4.062 0m11.983 7.72l-.016-.001c-1.498 0-2.728 1.595-2.879 3.64-2.029.162-3.605 1.387-3.605 2.875 0 1.497 1.594 2.728 3.639 2.879.162 2.02 1.379 3.593 2.861 3.604v-4.467a2.03 2.03 0 1 1 0-4.063zm0 86.228l-.016-.002c-1.498 0-2.728 1.595-2.879 3.64-2.029.162-3.605 1.387-3.605 2.875 0 1.497 1.594 2.728 3.639 2.879.162 2.02 1.379 3.593 2.861 3.604v-4.467a2.03 2.03 0 1 1 0-4.062z"/></g><path d="M206.074 599.313s6.262-2.827 5.656 3.232c-.606 6.06-3.636 2.02-3.636 2.02s3.273-2.828.829-3.434c-2.445-.606-9.313 9.696-3.455 12.322 0 0-3.232 2.02-4.747-2.222 0 0-3.333-1.818-3.94-.202 0 0-5.763-3.686-.807-4.445 3.173-.485 1.01 1.456 1.01 1.456l-.927.282s4.967.888 5.169-4.767c.202-5.656-1.818-7.878-3.232-5.857-1.414 2.02.606 1.817.606 1.817s-.16 1.131-1.616 1.01c-3.277-.272-1.212-6.06 3.03-5.252 4.242.81 2.899 9.29 2.899 9.29s.737-4.038 3.16-5.25m-14.866 26.931s6.262-2.827 5.656 3.232c-.606 6.06-3.636 2.02-3.636 2.02s3.273-2.828.829-3.434c-2.445-.606-9.313 9.696-3.455 12.322 0 0-3.232 2.02-4.747-2.222 0 0-3.333-1.818-3.94-.202 0 0-5.763-3.686-.807-4.445 3.173-.485 1.01 1.456 1.01 1.456l-.927.282s4.967.888 5.169-4.767c.202-5.656-1.818-7.878-3.232-5.857-1.414 2.02.606 1.817.606 1.817s-.16 1.131-1.616 1.01c-3.277-.272-1.212-6.06 3.03-5.252 4.242.81 2.899 9.29 2.899 9.29s.737-4.038 3.16-5.25M205.319 653s6.262-2.827 5.656 3.232c-.606 6.06-3.636 2.02-3.636 2.02s3.273-2.828.829-3.434c-2.445-.606-9.313 9.696-3.455 12.322 0 0-3.232 2.019-4.747-2.222 0 0-3.333-1.818-3.94-.202 0 0-5.763-3.686-.807-4.445 3.173-.485 1.01 1.456 1.01 1.456l-.927.282s4.967.888 5.169-4.767c.202-5.656-1.818-7.878-3.232-5.857-1.414 2.019.606 1.817.606 1.817s-.16 1.131-1.616 1.01c-3.277-.272-1.212-6.06 3.03-5.252 4.242.809 2.899 9.29 2.899 9.29s.737-4.038 3.16-5.25m-15.138 28.953s6.262-2.827 5.656 3.232c-.606 6.06-3.636 2.02-3.636 2.02s3.273-2.828.83-3.434c-2.446-.606-9.314 9.696-3.456 12.322 0 0-3.232 2.02-4.747-2.222 0 0-3.333-1.818-3.939-.202 0 0-5.764-3.686-.808-4.445 3.173-.485 1.01 1.456 1.01 1.456l-.927.282s4.967.888 5.17-4.767c.201-5.656-1.819-7.878-3.233-5.857-1.414 2.02.606 1.817.606 1.817s-.16 1.131-1.616 1.01c-3.277-.272-1.212-6.06 3.03-5.252 4.242.81 2.9 9.29 2.9 9.29s.736-4.038 3.16-5.25" fill="#f1c40f"/></g><path d="M215 478.806h17.993v-24.654H215z" fill="#f9db9d"/><g><path d="M243.248 729.625l-1.018 17.534.018.003 3 3c1 1 0 2-6 1-5.055-.843-10.094-2.477-11.562-2.973l-.438-.027s-.039-6.708-.235-18.537z" fill="#f9db9d"/><path d="M243.17 749.1s24.986 11.062 11.118 11.062H229.36c-3.307 0-2.153-12.123-2.153-12.123z" fill="#2d3e50"/><path d="M257.463 487.795s0 29.633 2.692 40.408c2.693 10.776 10.77 78.122 5.385 83.51s-10.77 0-13.462 0-13.462-123.918-13.462-123.918z" fill="#f9db9d"/></g><path d="M215 740.6V579.239L253.803 578l-.16 162.6z" fill="#d25400"/><g><path d="M247 543c2.074 12.09 1.22 13.26 7.659 39 0 0-10.332-4.59-21.659 1-8.631 4.26-18 4-18 4V476l18.133-21.847c5.37 0 15.499.483 16.368.847 3.562 1.174 5.656 5.628 7.822 13.937C261.25 484 261.25 489 261.25 489L247 491c-3.972 24 0 52 0 52" fill="#f1c40f"/><path d="M253.522 577.811c.512 2.27.408 1.272 1.138 4.188 0 0-10.333-4.59-21.66 1.001-8.631 4.26-18 4-18 4v-3s9.369.425 18-3.835c8.455-4.173 17.059-3.383 20.522-2.354" fill="#297fb8"/></g><path d="M215 740.602h38.643v-4.83H215zm0-28.983h38.643v-4.83H215z" fill="#f1c40f"/><g><g fill="#f39c11"><path d="M215 718.348c8.856 0 16.906 7.246 24.957 7.246 2.943 0 10.466-2.416 13.686-4.83v2.414s-4.83 4.83-13.686 4.83c-10.466 0-17.711-6.44-24.957-7.244z"/><path d="M238.387 721.568c-2.201 0-3.985-1.082-3.985-2.416s1.784-2.414 3.985-2.414 3.985 1.08 3.985 2.414-1.784 2.416-3.985 2.416m11.27 7.247c0-1.335 1.785-2.417 3.986-2.417v4.83c-2.201 0-3.985-1.08-3.985-2.414M215 726.398c2.201 0 3.985 1.082 3.985 2.416s-1.784 2.414-3.985 2.414z"/></g><path d="M215 469s13-7.695 12-14.848h16S245 504 215 506z" fill="#297fb8"/><path d="M215 470.674s14-6.674 13.568-16.521H242s-.383 47.574-27 49.347z" fill="#d25400"/></g><path d="M261.25 489v2L247 493v-2z" fill="#d25400"/><path d="M215 541h32v-10.012h-32z" fill="#f39c11"/><g><g fill="#ecf0f1"><path d="M215.994 552.986c0-2.074 2.21-3.78 5.043-3.989.225-2.811 1.922-4.997 3.984-4.997 2.075 0 3.782 2.21 3.991 5.044 2.81.224 4.996 1.921 4.996 3.984 0 2.074-2.21 3.78-5.043 3.989-.225 2.811-1.922 4.997-3.985 4.997-2.074 0-3.78-2.21-3.99-5.044-2.81-.224-4.996-1.921-4.996-3.984m6.191.021a2.817 2.817 0 0 0 5.631 0 2.815 2.815 0 0 0-5.63 0m15.939 15.557c0-1.254 1.336-2.285 3.049-2.411.135-1.7 1.162-3.021 2.408-3.021 1.254 0 2.285 1.336 2.41 3.049 1.699.136 3.022 1.162 3.022 2.408 0 1.254-1.336 2.285-3.049 2.412-.135 1.699-1.162 3.02-2.408 3.02-1.254 0-2.286-1.336-2.412-3.05-1.7-.134-3.02-1.16-3.02-2.407m3.742.013a1.702 1.702 0 1 0 3.403-.001 1.702 1.702 0 0 0-3.403 0m-26.18-50.103c0-2.074 2.21-3.78 5.043-3.989.225-2.81 1.922-4.997 3.984-4.997 2.075 0 3.782 2.21 3.991 5.044 2.81.224 4.996 1.921 4.996 3.984 0 2.074-2.21 3.78-5.043 3.99-.225 2.81-1.922 4.996-3.985 4.996-2.074 0-3.78-2.21-3.99-5.044-2.81-.224-4.996-1.92-4.996-3.984m6.191.021a2.817 2.817 0 0 0 5.631 0 2.815 2.815 0 0 0-5.63 0m21.148-50.01c0-1.496 1.596-2.727 3.641-2.878.162-2.028 1.386-3.606 2.875-3.606 1.498 0 2.728 1.595 2.88 3.64 2.028.162 3.604 1.387 3.604 2.875 0 1.497-1.594 2.728-3.639 2.879-.162 2.029-1.386 3.606-2.875 3.606-1.498 0-2.728-1.595-2.879-3.64-2.029-.162-3.607-1.386-3.607-2.875m4.47.015a2.031 2.031 0 1 0 4.062 0 2.031 2.031 0 0 0-4.063 0m-15.871 37.485c0-1.497 1.596-2.728 3.641-2.88.162-2.027 1.386-3.605 2.875-3.605 1.498 0 2.728 1.595 2.879 3.64 2.029.162 3.605 1.387 3.605 2.875 0 1.497-1.594 2.728-3.639 2.879-.162 2.029-1.386 3.606-2.875 3.606-1.498 0-2.728-1.595-2.879-3.64-2.029-.162-3.607-1.386-3.607-2.875m4.469.015a2.031 2.031 0 1 0 4.062 0 2.031 2.031 0 0 0-4.062 0m-13.58-32.439c0-1.497 1.596-2.728 3.64-2.879.163-2.028 1.387-3.606 2.876-3.606 1.498 0 2.728 1.595 2.879 3.64 2.029.162 3.605 1.387 3.605 2.875 0 1.497-1.594 2.728-3.64 2.88-.161 2.028-1.385 3.605-2.874 3.605-1.498 0-2.728-1.595-2.88-3.64-2.028-.162-3.606-1.386-3.606-2.875m4.469.015a2.031 2.031 0 1 0 4.062 0 2.031 2.031 0 0 0-4.062 0M215 481.296l.016-.001c1.498 0 2.728 1.595 2.879 3.64 2.029.162 3.605 1.387 3.605 2.875 0 1.497-1.594 2.728-3.639 2.879-.162 2.02-1.379 3.593-2.861 3.604v-4.467a2.03 2.03 0 1 0 0-4.063zm0 86.228l.016-.002c1.498 0 2.728 1.595 2.879 3.64 2.029.162 3.605 1.387 3.605 2.875 0 1.497-1.594 2.728-3.639 2.879-.162 2.02-1.379 3.593-2.861 3.604v-4.467a2.03 2.03 0 1 0 0-4.062z"/></g><path d="M223.926 599.313s-6.262-2.827-5.656 3.232c.606 6.06 3.636 2.02 3.636 2.02s-3.273-2.828-.829-3.434c2.445-.606 9.313 9.696 3.455 12.322 0 0 3.232 2.02 4.747-2.222 0 0 3.333-1.818 3.94-.202 0 0 5.763-3.686.807-4.445-3.173-.485-1.01 1.456-1.01 1.456l.927.282s-4.967.888-5.169-4.767c-.202-5.656 1.818-7.878 3.232-5.857 1.414 2.02-.606 1.817-.606 1.817s.16 1.131 1.616 1.01c3.277-.272 1.212-6.06-3.03-5.252-4.242.81-2.899 9.29-2.899 9.29s-.737-4.038-3.16-5.25m14.866 26.931s-6.262-2.827-5.656 3.232c.606 6.06 3.636 2.02 3.636 2.02s-3.273-2.828-.829-3.434c2.445-.606 9.313 9.696 3.455 12.322 0 0 3.232 2.02 4.747-2.222 0 0 3.333-1.818 3.94-.202 0 0 5.763-3.686.807-4.445-3.173-.485-1.01 1.456-1.01 1.456l.927.282s-4.967.888-5.169-4.767c-.202-5.656 1.818-7.878 3.232-5.857 1.414 2.02-.606 1.817-.606 1.817s.16 1.131 1.616 1.01c3.277-.272 1.212-6.06-3.03-5.252-4.242.81-2.899 9.29-2.899 9.29s-.737-4.038-3.16-5.25M224.681 653s-6.262-2.827-5.656 3.232c.606 6.06 3.636 2.02 3.636 2.02s-3.273-2.828-.829-3.434c2.445-.606 9.313 9.696 3.455 12.322 0 0 3.232 2.019 4.747-2.222 0 0 3.333-1.818 3.94-.202 0 0 5.763-3.686.807-4.445-3.173-.485-1.01 1.456-1.01 1.456l.927.282s-4.967.888-5.169-4.767c-.202-5.656 1.818-7.878 3.232-5.857 1.414 2.019-.606 1.817-.606 1.817s.16 1.131 1.616 1.01c3.277-.272 1.212-6.06-3.03-5.252-4.242.809-2.899 9.29-2.899 9.29s-.737-4.038-3.16-5.25m15.138 28.953s-6.262-2.827-5.656 3.232c.606 6.06 3.636 2.02 3.636 2.02s-3.273-2.828-.83-3.434c2.446-.606 9.314 9.696 3.456 12.322 0 0 3.232 2.02 4.747-2.222 0 0 3.333-1.818 3.939-.202 0 0 5.764-3.686.808-4.445-3.173-.485-1.01 1.456-1.01 1.456l.927.282s-4.967.888-5.17-4.767c-.201-5.656 1.819-7.878 3.233-5.857 1.414 2.02-.606 1.817-.606 1.817s.16 1.131 1.616 1.01c3.277-.272 1.212-6.06-3.03-5.252-4.242.81-2.9 9.29-2.9 9.29s-.736-4.038-3.16-5.25" fill="#f1c40f"/></g></g></svg>