<svg height="800" width="800" xmlns="http://www.w3.org/2000/svg"><g fill="none" fill-rule="evenodd"><path d="m172.898 234.648c6.935-1.857 5.254-30.619-3.755-64.24-9.008-33.619-21.933-59.369-28.869-57.512-6.935 1.86-5.253 30.621 3.755 64.24 9.01 33.621 21.934 59.371 28.87 57.512" fill="#ea5e50"/><path d="m139.499 109.998 41.031 160.861 1.931-.517-42.963-160.344zm42.964 160.344 1.931-.518-44.894-159.826 42.964 160.344z" fill="#c74d40"/><path d="m169.845 528.203c-2.693 10.775-10.77 78.121-5.385 83.51 5.385 5.386 10.77 0 13.462 0 2.192 0 9.734-82.096 12.465-112.643l24.613 2.93v-47.848h-12c-35.837-1.838-28.074 18.66-29.977 33.643 0 0-.486 29.633-3.178 40.408m90.311 0c2.693 10.775 10.77 78.121 5.385 83.51-5.385 5.386-10.77 0-13.462 0-2.192 0-9.734-82.096-12.465-112.643l-24.613 2.93v-47.848h12c35.837-1.838 28.074 18.66 29.977 33.643 0 0 .486 29.633 3.178 40.408" fill="#f9db9d"/><path d="m215 709.23v-131.23h-35l-4.659 131.23zm39.66 0-4.659-131.23h-35v131.23z" fill="#425161"/><path d="m186.752 709.23 1.018 37.93-.018.002-3 3c-1 1 0 2 6 1 5.055-.842 10.094-2.477 11.562-2.972l.438-.028s.039-27.103.235-38.932z" fill="#f9db9d"/><path d="m186.83 749.1s-24.986 11.062-11.118 11.062h24.928c3.307 0 2.153-12.123 2.153-12.123z" fill="#f9db9d"/><path d="m215 432c49.706 0 90-19.486 90-86.231s-40.295-108.769-90-108.769c-49.707 0-90 42.024-90 108.769s40.294 86.231 90 86.231" fill="#2d3e50"/><path d="m138.266 387.185c6.69 0 12.116-5.427 12.116-12.122s-5.425-12.123-12.116-12.123-12.116 5.428-12.116 12.123 5.425 12.122 12.116 12.122m153.468 0c6.691 0 12.116-5.427 12.116-12.122s-5.425-12.123-12.116-12.123c-6.69 0-12.116 5.428-12.116 12.123s5.425 12.122 12.116 12.122" fill="#f9db9d"/><path d="m204.23 463.202h21.539v-18.099h-21.539z" fill="#f9db9d"/><path d="m215 451.838c44.61 0 80.773-43.846 80.773-104.922s-36.163-91.916-80.773-91.916-80.773 30.84-80.773 91.916 36.163 104.922 80.773 104.922" fill="#f9db9d"/><path d="m177.556 371.281a8.193 8.193 0 0 0 8.19-8.195 8.193 8.193 0 0 0 -8.19-8.196 8.193 8.193 0 0 0 -8.191 8.196 8.193 8.193 0 0 0 8.19 8.195m74.89 0a8.193 8.193 0 0 0 8.191-8.195 8.193 8.193 0 0 0 -8.19-8.196 8.193 8.193 0 0 0 -8.192 8.196 8.193 8.193 0 0 0 8.191 8.195m-62.188 37.977c-.257.767-.415 1.553-.415 2.36 0 7.385 11.264 13.372 25.158 13.372 13.895 0 25.158-5.987 25.158-13.372 0-.807-.157-1.593-.415-2.36-2.1 6.258-12.366 11.013-24.743 11.013s-22.643-4.755-24.743-11.013" fill="#2d3e50"/><path d="m214.993 250c-69.468 2.459-88.202 52.625-81.594 113.451 0 0 .531-41.623 43.907-65.582 0 0 9.68-6.231 37.687-7.05s37.687 7.05 37.687 7.05c43.376 23.959 43.907 65.582 43.907 65.582 6.608-60.826-12.126-110.992-81.594-113.451" fill="#2d3e50"/><path d="m294.242 440.815c1.98 0 3.586-12.495 3.586-27.908 0-15.412-1.606-27.907-3.586-27.907s-3.586 12.495-3.586 27.907c0 15.413 1.606 27.908 3.586 27.908m-160.015 0c1.98 0 3.586-12.495 3.586-27.908 0-15.412-1.606-27.907-3.586-27.907s-3.586 12.495-3.586 27.907c0 15.413 1.606 27.908 3.586 27.908" fill="#f1c40f"/><path d="m196.867 478.806h17.993v-24.654h-17.993z" fill="#f9db9d"/><path d="m177.598 582.914h37.38l.021-21.914v-76h.001l-19.483-31.436s-1.517 0-5.518.436c-1.368.148-7 2-7 2l1 29c-7 14-.64 21.023 0 30 .102 1.428.197 2.744.29 4 1.693 23.348-6.3 58.137-6.69 63.914" fill="#485b6e"/><g fill="#f1c40f"><path d="m214 582.914h1v-98.914h-1z"/><path d="m177.599 582.914h37.401v-2h-37.401zm37.401-97.967v-1.638l-17.174-29.744h-2.31l18.461 31.973z"/><path d="m204.4 502.695a5.44 5.44 0 0 0 -.82-.723c10.316-27.373.346-15.339.346-15.339 4.505-3.174.11 7.853-2.686 14.242-.221-.065-.435-.139-.667-.188 1.99-9.99-.49-4.869-.49-4.869 1.022-1.23.478 1.811-.198 4.73a10.654 10.654 0 0 0 -1.071-.074c-.075-1.613-.187-2.662-.314-2.662-.126 0-.238 1.05-.313 2.662-.363.012-.725.026-1.071.073-.676-2.918-1.22-5.959-.2-4.729 0 0-2.48-5.12-.488 4.87-.233.048-.446.122-.668.187-2.796-6.389-7.191-17.416-2.685-14.242 0 0-9.971-12.034.346 15.34a5.392 5.392 0 0 0 -.82.722c-7.917-1.434-3.342.781-3.342.781-.966-.8.702-.638 2.874-.205-.347.551-.54 1.154-.54 1.79 0 .632.193 1.236.54 1.786-2.172.434-3.84.598-2.874-.203 0 0-4.561 2.21 3.34.78.248.273.53.53.854.761-10.337 27.416-.378 15.412-.378 15.412-4.522 3.186-.082-7.925 2.712-14.302.205.058.427.091.64.136-1.99 9.991.489 4.87.489 4.87-1.02 1.232-.476-1.81.2-4.727.345.047.705.06 1.066.07.075 1.668.189 2.756.318 2.756.13 0 .243-1.088.318-2.756.362-.01.722-.023 1.067-.07.676 2.916 1.22 5.96.199 4.726 0 0 2.48 5.122.489-4.869.214-.045.436-.078.64-.136 2.795 6.377 7.234 17.488 2.713 14.302 0 0 9.958 12.004-.38-15.412a5.3 5.3 0 0 0 .855-.76c7.9 1.428 3.34-.78 3.34-.78.967.8-.701.636-2.873.202.347-.55.54-1.154.54-1.787 0-.635-.193-1.238-.541-1.789 2.173-.433 3.84-.596 2.874.205 0 0 4.576-2.215-3.341-.78"/><path d="m196.706 467.033a2.559 2.559 0 0 0 -.536-.107c-2.377-14.434-3.686-6.729-3.686-6.729 1.158-2.502 2.012 3.371 2.398 6.838-.113.027-.223.047-.336.086-1.636-4.824-1.429-1.988-1.429-1.988.134-.788.66.666 1.096 2.1a5.08 5.08 0 0 0 -.482.234c-.436-.68-.746-1.104-.8-1.073-.056.032.158.514.528 1.23-.153.096-.307.192-.444.3-1.023-1.094-2.019-2.278-1.27-1.998 0 0-2.353-1.598 1.007 2.23-.089.078-.163.164-.242.25-2.809-2.068-7.469-5.746-4.724-5.498 0 0-7.326-2.717 3.984 6.557a2.618 2.618 0 0 0 -.173.517c-3.787 1.36-1.252 1.174-1.252 1.174-.619-.103.143-.453 1.193-.807-.014.325.055.635.213.91.158.272.393.49.681.64-.832.73-1.514 1.218-1.295.63 0 0-1.423 2.096 1.64-.5.176.06.363.1.561.117 2.378 14.457 3.69 6.768 3.69 6.768-1.163 2.51-2.018-3.41-2.4-6.869.1-.028.206-.067.31-.104 1.635 4.826 1.428 1.988 1.428 1.988-.134.788-.659-.666-1.095-2.097.162-.065.32-.15.48-.235.45.704.77 1.145.826 1.112s-.167-.53-.55-1.272c.153-.095.306-.189.443-.297 1.021 1.092 2.017 2.276 1.268 1.997 0 0 2.354 1.6-1.007-2.23.082-.073.17-.144.245-.22 2.804 2.063 7.503 5.764 4.75 5.516 0 0 7.313 2.71-4.018-6.58.083-.182.141-.363.18-.543 3.78-1.358 1.252-1.172 1.252-1.172.62.104-.145.451-1.194.807a1.663 1.663 0 0 0 -.214-.91 1.672 1.672 0 0 0 -.679-.639c.831-.733 1.513-1.219 1.295-.63 0 0 1.427-2.105-1.642.497m8.82 84.623a6.174 6.174 0 0 0 -.882-.908c14.406-30.682 1.795-17.69 1.795-17.69 5.493-3.256-.586 9.08-4.397 16.207-.25-.093-.49-.197-.755-.275 3.208-11.359-.121-5.67-.121-5.67 1.29-1.33.386 2.135-.661 5.443a12.293 12.293 0 0 0 -1.23-.18c.06-1.87.026-3.093-.12-3.105-.147-.009-.371 1.19-.604 3.047-.42-.019-.84-.037-1.244-.014-.516-3.429-.868-6.996.199-5.478 0 0-2.398-6.143-1.006 5.58-.274.035-.527.1-.788.154-2.65-7.634-6.724-20.77-1.808-16.695 0 0-10.424-14.805-.995 17.752-.372.228-.717.48-1.013.76-9.015-2.377-3.931.597-3.931.597-1.044-1.013.869-.67 3.338.026-.451.603-.728 1.283-.786 2.015-.058.733.11 1.448.46 2.116-2.548.302-4.49.34-3.3-.498 0 0-5.47 2.138 3.788 1.207.26.336.563.658.917.957-14.434 30.728-1.84 17.767-1.84 17.767-5.511 3.268.627-9.162 4.435-16.275.23.088.485.146.728.217-3.208 11.36.12 5.67.12 5.67-1.29 1.33-.385-2.135.662-5.444.393.086.809.135 1.225.182-.065 1.931-.033 3.197.117 3.21.149.011.379-1.234.618-3.154.418.02.836.038 1.238.014.516 3.43.868 6.996-.2 5.48 0 0 2.399 6.141 1.007-5.58.252-.033.51-.052.753-.1 2.649 7.62 6.766 20.856 1.833 16.767 0 0 10.412 14.773.964-17.838a6.079 6.079 0 0 0 1.055-.803c8.998 2.371 3.93-.596 3.93-.596 1.044 1.014-.868.672-3.338-.025.45-.606.729-1.285.786-2.018.058-.732-.11-1.447-.461-2.113 2.548-.303 4.49-.34 3.3.498 0 0 5.488-2.143-3.788-1.207"/></g><path d="m215 550v-10h-32l-1 10zm-28-5a.5.5 0 1 1 -1 0 .5.5 0 0 1 1 0zm6 0a.5.5 0 1 1 -1 0 .5.5 0 0 1 1 0zm6 0a.5.5 0 1 1 -1 0 .5.5 0 0 1 1 0zm6 0a.5.5 0 1 1 -1 0 .5.5 0 0 1 1 0zm6 0a.5.5 0 1 1 -1 0 .5.5 0 0 1 1 0z" fill="#f39c11"/><path d="m215.141 478.806h17.993v-24.654h-17.993z" fill="#f9db9d"/><path d="m252.403 582.914h-37.38l-.02-21.914v-76h-.003l19.483-31.436s1.517 0 5.518.436c1.368.148 7 2 7 2l-1 29c7 14 .64 21.023 0 30-.102 1.428-.197 2.744-.29 4-1.693 23.348 6.3 58.137 6.69 63.914" fill="#485b6e"/><path d="m215.001 582.914h1v-98.914h-1z" fill="#f1c40f"/><path d="m215.001 582.914h37.401v-2h-37.401zm-.001-97.967v-1.638l17.174-29.744h2.31l-18.461 31.973z" fill="#f1c40f"/><path d="m225.601 502.695c.236-.26.515-.5.82-.723-10.316-27.373-.346-15.339-.346-15.339-4.505-3.174-.11 7.853 2.686 14.242.221-.065.435-.139.667-.188-1.99-9.99.49-4.869.49-4.869-1.022-1.23-.478 1.811.198 4.73.346-.048.708-.062 1.071-.074.075-1.613.187-2.662.314-2.662.126 0 .238 1.05.313 2.662.363.012.725.026 1.071.073.676-2.918 1.22-5.959.2-4.729 0 0 2.48-5.12.488 4.87.233.048.446.122.668.187 2.796-6.389 7.191-17.416 2.685-14.242 0 0 9.971-12.034-.346 15.34.305.222.585.462.82.722 7.917-1.434 3.342.781 3.342.781.966-.8-.702-.638-2.874-.205.347.551.54 1.154.54 1.79 0 .632-.193 1.236-.54 1.786 2.172.434 3.84.598 2.874-.203 0 0 4.561 2.21-3.34.78a5.335 5.335 0 0 1 -.854.761c10.337 27.416.378 15.412.378 15.412 4.522 3.186.082-7.925-2.712-14.302-.205.058-.427.091-.64.136 1.99 9.991-.489 4.87-.489 4.87 1.02 1.232.476-1.81-.2-4.727-.345.047-.705.06-1.066.07-.075 1.668-.189 2.756-.318 2.756-.13 0-.243-1.088-.318-2.756-.362-.01-.722-.023-1.067-.07-.676 2.916-1.22 5.96-.199 4.726 0 0-2.48 5.122-.489-4.869-.214-.045-.436-.078-.64-.136-2.795 6.377-7.234 17.488-2.713 14.302 0 0-9.958 12.004.38-15.412a5.3 5.3 0 0 1 -.855-.76c-7.9 1.428-3.34-.78-3.34-.78-.967.8.701.636 2.873.202a3.328 3.328 0 0 1 -.54-1.787c0-.635.193-1.238.541-1.789-2.173-.433-3.84-.596-2.874.205 0 0-4.576-2.215 3.341-.78m-49.761 192.459-.061 1.715c1.153-.393 2.436-.852 3.899-1.404.164.226.342.422.533.593-.953 5.318.527 2.29.527 2.29-.55.663-.437-.484-.138-1.975.377.238.79.37 1.226.37s.85-.132 1.229-.37c.297 1.491.41 2.638-.141 1.974 0 0 1.5 3.084.53-2.292.183-.163.347-.357.5-.568 18.808 7.088 10.54.238 10.54.238 2.182 3.095-5.394.076-9.783-1.845.045-.154.096-.302.13-.464 6.786 1.347 3.343-.33 3.343-.33.848.702-1.242.328-3.246-.137a7.19 7.19 0 0 0 0-1.902c2.004-.465 4.094-.839 3.246-.137 0 0 3.443-1.677-3.342-.33-.035-.162-.086-.31-.131-.464 4.389-1.922 11.965-4.94 9.784-1.845 0 0 8.267-6.85-10.54.238a3.584 3.584 0 0 0 -.5-.568c.969-5.377-.531-2.292-.531-2.292.55-.664.438.483.14 1.975a2.286 2.286 0 0 0 -1.228-.37 2.28 2.28 0 0 0 -1.226.37c-.3-1.492-.412-2.639.138-1.975 0 0-1.48-3.029-.527 2.29a3.737 3.737 0 0 0 -.533.592c-1.318-.498-2.492-.92-3.557-1.288l-.06 1.687c1.01.41 1.996.828 2.855 1.205-.041.142-.064.296-.096.445-1.255-.25-2.16-.394-2.8-.466l-.016.426c.666.06 1.703.271 2.72.507a7.188 7.188 0 0 0 0 1.902c-1.077.25-2.167.468-2.823.512l-.016.434c.648-.066 1.582-.21 2.935-.479.032.15.055.303.096.445-.922.404-1.988.857-3.076 1.293m37.97 1.22c.368.23.768.356 1.19.363v-9.479a2.291 2.291 0 0 0 -1.19.365c-.298-1.49-.411-2.638.139-1.974 0 0-1.48-3.029-.527 2.29a3.632 3.632 0 0 0 -.531.592c-18.834-7.102-10.588-.26-10.588-.26-2.19-3.109 5.445-.056 9.824 1.864-.041.142-.062.296-.094.445-6.787-1.347-3.343.33-3.343.33-.848-.702 1.244-.328 3.248.137a6.86 6.86 0 0 0 0 1.902c-2.004.465-4.096.84-3.248.137 0 0-3.444 1.677 3.343.33.032.15.053.303.094.445-4.38 1.92-12.014 4.972-9.824 1.864 0 0-8.246 6.841 10.588-.26.162.226.34.422.53.593-.952 5.318.528 2.29.528 2.29-.55.663-.437-.484-.138-1.975m1.189-9.114v9.48c.014 0 .026.005.037.005a2.28 2.28 0 0 0 1.229-.37c.299 1.491.41 2.638-.141 1.974 0 0 1.502 3.085.53-2.292a3.55 3.55 0 0 0 .503-.568c18.805 7.088 10.539.238 10.539.238 2.18 3.095-5.396.077-9.785-1.845.045-.154.096-.302.13-.464 6.786 1.347 3.345-.33 3.345-.33.846.702-1.244.328-3.248-.137a7.186 7.186 0 0 0 0-1.902c2.004-.465 4.094-.839 3.248-.137 0 0 3.44-1.677-3.344-.33-.035-.162-.086-.31-.131-.464 4.389-1.922 11.965-4.94 9.785-1.845 0 0 8.266-6.85-10.54.238a3.594 3.594 0 0 0 -.501-.568c.97-5.377-.531-2.292-.531-2.292.55-.664.44.483.14 1.975a2.28 2.28 0 0 0 -1.228-.37c-.011 0-.023.004-.037.004m35.369 8.23c1.446.543 2.71.996 3.852 1.386l-.061-1.719c-1.072-.43-2.123-.875-3.035-1.275.045-.154.096-.302.13-.464 1.296.257 2.216.403 2.86.472l-.015-.43c-.664-.057-1.715-.269-2.748-.509a7.19 7.19 0 0 0 0-1.902c.98-.227 1.976-.43 2.644-.5l-.013-.423c-.64.074-1.514.215-2.727.456-.035-.162-.086-.31-.131-.464.85-.372 1.82-.785 2.815-1.187l-.061-1.69c-1.053.363-2.211.78-3.51 1.27a3.584 3.584 0 0 0 -.5-.568c.969-5.377-.531-2.292-.531-2.292.55-.664.44.483.14 1.975a2.286 2.286 0 0 0 -1.228-.37 2.28 2.28 0 0 0 -1.226.37c-.3-1.492-.413-2.639.138-1.975 0 0-1.48-3.029-.527 2.29a3.632 3.632 0 0 0 -.531.592c-18.834-7.102-10.588-.26-10.588-.26-2.192-3.109 5.445-.056 9.824 1.864-.041.142-.062.296-.096.445-6.785-1.347-3.341.33-3.341.33-.848-.702 1.242-.328 3.246.137a7.188 7.188 0 0 0 0 1.902c-2.004.465-4.094.84-3.246.137 0 0-3.444 1.677 3.34.33.035.148.056.303.097.445-4.38 1.92-12.016 4.972-9.824 1.864 0 0-8.246 6.841 10.588-.26.162.226.34.422.53.593-.952 5.318.528 2.29.528 2.29-.551.663-.437-.484-.138-1.975.377.238.79.37 1.226.37s.85-.132 1.229-.37c.299 1.491.41 2.638-.141 1.974 0 0 1.5 3.085.53-2.292.183-.163.347-.357.5-.568m-6.208-54.084c-2.052-2.915 3.282-1.198 8.119.755l-.072-2.019c-16.312-5.599-8.047 1.264-8.047 1.264m8.442 9.852-.071-1.986c-4.902 1.994-10.461 3.822-8.371.857 0 0-8.412 6.981 8.442 1.13m-.967-6.765c-.508-.42-.107-.508.71-.423l-.017-.512c-3.46-.406-.693.935-.693.935m.85 3.46-.018-.506c-.895.105-1.363.031-.832-.408 0 0-2.83 1.375.85.914m-.65-18.257-.17-4.799c-6.118 1.29-15.571 4.19-29.833 9.565a11.924 11.924 0 0 0 -1.605-1.826c3.189-17.619-1.74-7.436-1.74-7.436 1.785-2.15 1.42 1.562.455 6.396-1.213-.766-2.543-1.192-3.942-1.199v30.74c1.399-.009 2.729-.434 3.942-1.2.966 4.833 1.33 8.547-.454 6.395 0 0 4.928 10.184 1.739-7.436.58-.524 1.11-1.147 1.605-1.826 15.483 5.835 25.293 8.751 31.326 9.86l-.173-4.91c-6.66-.89-19.735-6.228-28.706-10.156.143-.492.307-.968.416-1.486 22.23 4.43 10.834-1.087 10.834-1.087 2.743 2.272-4.027 1.061-10.52-.444.104-.77.136-1.576.16-2.383 3.589-.167 5.923-.416 5.923-.698s-2.334-.53-5.922-.698c-.025-.807-.057-1.613-.16-2.383 6.492-1.505 13.262-2.715 10.519-.444 0 0 11.399-5.518-10.834-1.087-.11-.518-.273-.994-.416-1.486 8.479-3.712 20.629-8.687 27.557-9.972m-69.707 20.432c1.566 2.223-1.174 1.747-4.71.53l-.063 1.8c11.875 3.561 4.773-2.33 4.773-2.33m-4.293-11.197-.064 1.826c3.359-1.126 5.87-1.5 4.357.648 0 0 6.924-5.74-4.293-2.474m37.164 22.205v-30.74l-.037-.002c-1.41 0-2.752.43-3.977 1.201-.964-4.834-1.33-8.547.454-6.395 0 0-4.918-10.15-1.735 7.434a11.887 11.887 0 0 0 -1.697 1.9c-14.121-5.324-23.535-8.225-29.676-9.546l-.17 4.77c7.016 1.381 19.02 6.308 27.375 9.97-.131.455-.203.95-.304 1.426-22.233-4.43-10.834 1.087-10.834 1.087-2.743-2.27 4.027-1.06 10.519.444-.103.767-.133 1.57-.158 2.373-3.711.167-6.133.42-6.133.708s2.422.541 6.133.708c.025.803.055 1.606.158 2.373-6.492 1.505-13.262 2.716-10.52.444 0 0-11.396 5.517 10.835 1.087.1.476.173.971.304 1.426-8.828 3.87-21.732 9.153-28.52 10.172l-.171 4.87c6.07-1.148 15.853-4.076 31.162-9.848a11.79 11.79 0 0 0 1.697 1.9c-3.183 17.585 1.735 7.434 1.735 7.434-1.784 2.152-1.418-1.56-.454-6.395 1.225.773 2.567 1.201 3.977 1.201zm3.266-68.242c.354.319.678.698.979 1.11 37.082-13.975 20.78-.468 20.78-.468 4.302-6.103-10.636-.15-19.29 3.638.086.3.185.59.252.905 13.533-2.697 6.595.66 6.595.66 1.668-1.381-2.451-.644-6.404.272.065.468.082.959.098 1.45 2.185.102 3.605.253 3.605.425s-1.42.323-3.605.425c-.016.49-.033.982-.098 1.45 3.953.916 8.072 1.653 6.404.27 0 0 6.938 3.359-6.595.662-.067.315-.166.605-.252.905 8.654 3.788 23.592 9.74 19.29 3.638 0 0 16.302 13.507-20.78-.47a7.189 7.189 0 0 1 -.98 1.112c1.944 10.725-1.056 4.527-1.056 4.527 1.086 1.309.864-.951.276-3.894-.744.47-1.563.732-2.42.732-.86 0-1.678-.261-2.422-.731-.588 2.942-.811 5.202.275 3.893 0 0-2.992 6.178-1.056-4.526a7.237 7.237 0 0 1 -1.033-1.156c-37.14 14.003-20.877.513-20.877.513-4.317 6.125 10.736.11 19.375-3.675-.081-.277-.125-.578-.186-.868-13.533 2.697-6.596-.661-6.596-.661-1.668 1.382 2.453.645 6.405-.271a14.42 14.42 0 0 1 -.098-1.444c-2.258-.102-3.732-.256-3.732-.431s1.474-.33 3.732-.431a14.4 14.4 0 0 1 .098-1.444c-3.952-.916-8.073-1.653-6.405-.271 0 0-6.937-3.358 6.596-.661.06-.29.105-.591.186-.868-8.64-3.786-23.692-9.8-19.375-3.675 0 0-16.262-13.49 20.878.513a7.1 7.1 0 0 1 1.034-1.156c-1.938-10.704 1.054-4.526 1.054-4.526-1.086-1.31-.863.95-.275 3.893.744-.47 1.562-.731 2.422-.731.857 0 1.676.26 2.42.732.588-2.943.81-5.203-.276-3.894 0 0 3-6.198 1.057 4.527" fill="#f1c40f"/><path d="m233.295 467.033c.168-.055.349-.088.536-.107 2.377-14.434 3.686-6.729 3.686-6.729-1.158-2.502-2.012 3.371-2.398 6.838.113.027.223.047.336.086 1.636-4.824 1.429-1.988 1.429-1.988-.134-.788-.66.666-1.096 2.1.16.064.32.148.482.234.436-.68.746-1.104.8-1.073.056.032-.158.514-.528 1.23.153.096.307.192.444.3 1.023-1.094 2.019-2.278 1.27-1.998 0 0 2.353-1.598-1.007 2.23.089.078.163.164.242.25 2.809-2.068 7.469-5.746 4.724-5.498 0 0 7.326-2.717-3.984 6.557.076.172.137.345.173.517 3.787 1.36 1.252 1.174 1.252 1.174.619-.103-.143-.453-1.193-.807.014.325-.055.635-.213.91a1.67 1.67 0 0 1 -.681.64c.832.73 1.514 1.218 1.295.63 0 0 1.423 2.096-1.64-.5-.176.06-.363.1-.561.117-2.378 14.457-3.69 6.768-3.69 6.768 1.163 2.51 2.018-3.41 2.4-6.869-.1-.028-.206-.067-.31-.104-1.635 4.826-1.428 1.988-1.428 1.988.134.788.659-.666 1.095-2.097-.162-.065-.32-.15-.48-.235-.45.704-.77 1.145-.826 1.112s.167-.53.55-1.272c-.153-.095-.306-.189-.443-.297-1.021 1.092-2.017 2.276-1.268 1.997 0 0-2.354 1.6 1.007-2.23-.082-.073-.17-.144-.245-.22-2.804 2.063-7.503 5.764-4.75 5.516 0 0-7.313 2.71 4.018-6.58a2.658 2.658 0 0 1 -.18-.543c-3.78-1.358-1.252-1.172-1.252-1.172-.62.104.145.451 1.194.807a1.663 1.663 0 0 1 .214-.91c.158-.274.392-.487.679-.639-.831-.733-1.513-1.219-1.295-.63 0 0-1.427-2.105 1.642.497m-8.82 84.623c.25-.322.55-.625.882-.908-14.406-30.682-1.795-17.69-1.795-17.69-5.493-3.256.586 9.08 4.397 16.207.25-.093.49-.197.755-.275-3.208-11.359.121-5.67.121-5.67-1.29-1.33-.386 2.135.661 5.443.395-.086.812-.134 1.23-.18-.06-1.87-.026-3.093.12-3.105.147-.009.371 1.19.604 3.047.42-.019.84-.037 1.244-.014.516-3.429.868-6.996-.199-5.478 0 0 2.398-6.143 1.006 5.58.274.035.527.1.788.154 2.65-7.634 6.724-20.77 1.808-16.695 0 0 10.424-14.805.995 17.752.372.228.717.48 1.013.76 9.015-2.377 3.931.597 3.931.597 1.044-1.013-.869-.67-3.338.026.451.603.728 1.283.786 2.015.058.733-.11 1.448-.46 2.116 2.548.302 4.49.34 3.3-.498 0 0 5.47 2.138-3.788 1.207a6.328 6.328 0 0 1 -.917.957c14.434 30.728 1.84 17.767 1.84 17.767 5.511 3.268-.627-9.162-4.435-16.275-.23.088-.485.146-.728.217 3.208 11.36-.12 5.67-.12 5.67 1.29 1.33.385-2.135-.662-5.444-.393.086-.809.135-1.225.182.065 1.931.033 3.197-.117 3.21-.149.011-.379-1.234-.618-3.154-.418.02-.836.038-1.238.014-.516 3.43-.868 6.996.2 5.48 0 0-2.399 6.141-1.007-5.58-.252-.033-.51-.052-.753-.1-2.649 7.62-6.766 20.856-1.833 16.767 0 0-10.412 14.773-.964-17.838a6.079 6.079 0 0 1 -1.055-.803c-8.998 2.371-3.93-.596-3.93-.596-1.044 1.014.868.672 3.338-.025-.45-.606-.729-1.285-.786-2.018-.058-.732.11-1.447.461-2.113-2.548-.303-4.49-.34-3.3.498 0 0-5.488-2.143 3.788-1.207" fill="#f1c40f"/><path d="m215 550v-10h32.001l1 10h-33zm28.001-5a.5.5 0 1 0 1 0 .5.5 0 0 0 -1 0zm-6 0a.5.5 0 1 0 1 0 .5.5 0 0 0 -1 0zm-6 0a.5.5 0 1 0 1 0 .5.5 0 0 0 -1 0zm-6 0a.5.5 0 1 0 1 0 .5.5 0 0 0 -1 0zm-6 0a.5.5 0 1 0 1 0 .5.5 0 0 0 -1 0z" fill="#f39c11"/><path d="m176.001 678h78v-2h-78zm-.661 29h79.32v-1h-79.32z" fill="#f1c40f"/><g fill="#f9db9d"><path d="m243.248 709.23-1.018 37.93.018.002 3 3c1 1 0 2-6 1-5.055-.842-10.094-2.477-11.562-2.972l-.438-.028s-.039-27.102-.235-38.932z"/><path d="m243.17 749.1s24.986 11.062 11.118 11.062h-24.928c-3.306 0-2.152-12.122-2.152-12.122z"/></g><path d="m299.933 296.826-7.475-46.826-77.458 8.263v49.793z" fill="#ea5e50"/><path d="m215 308.057v-6.965l84.084-9.58.849 5.315zm78.93-48.836-78.93 7.602v-8.557l77.457-8.266 1.473 9.22z" fill="#f3ca27"/><path d="m248.943 269.217a9.243 9.243 0 0 0 -1.104 1.555c-49.384-12.91-26.685 2.198-26.685 2.198-6.33-7.24 13.607-1.626 25.203 2.063-.07.395-.156.78-.199 1.192-17.699-1.633-8.36 1.736-8.36 1.736-2.326-1.547 3.053-1.158 8.24-.516-.02.61.022 1.24.07 1.871-2.786.424-4.587.81-4.563 1.03.023.22 1.863.223 4.675.06.086.626.176 1.252.321 1.844-4.94 1.705-10.119 3.204-8.166 1.208 0 0-8.436 5.236 8.54-.04.126.394.29.752.442 1.124-10.576 6.02-28.912 15.656-24.223 7.258 0 0-19.062 19.498 26.557-3.398.443.488.906.93 1.404 1.292-1.045 14 1.963 5.656 1.963 5.656-1.215 1.823-1.234-1.102-.877-4.95 1.018.502 2.1.727 3.201.611 1.098-.116 2.112-.56 3.002-1.263 1.151 3.69 1.74 6.555.172 5.024 0 0 4.666 7.512.742-5.939a9.11 9.11 0 0 0 1.168-1.62c49.463 12.937 26.817-2.155 26.817-2.155 6.351 7.265-13.74 1.588-25.317-2.098.065-.366.082-.758.122-1.138 17.697 1.633 8.36-1.735 8.36-1.735 2.321 1.547-3.056 1.158-8.243.516.02-.606-.024-1.235-.067-1.864 2.88-.434 4.746-.83 4.723-1.054s-1.934-.223-4.84-.05c-.086-.624-.176-1.247-.32-1.837 4.941-1.705 10.12-3.204 8.168-1.208 0 0 8.435-5.237-8.537.04-.118-.363-.215-.742-.354-1.087 10.557-6.013 29.028-15.743 24.324-7.316 0 0 19.014-19.47-26.675 3.468a9.35 9.35 0 0 0 -1.48-1.342c1.04-13.973-1.962-5.655-1.962-5.655 1.215-1.824 1.235 1.101.875 4.95-1.015-.502-2.099-.727-3.197-.61-1.102.115-2.113.56-3.006 1.262-1.148-3.69-1.736-6.556-.17-5.024 0 0-4.676-7.537-.744 5.941" fill="#f1c40f"/><path d="m130.067 296.826 7.475-46.826 77.458 8.263v49.793z" fill="#ea5e50"/><path d="m215 308.057v-6.965l-84.084-9.58-.849 5.315zm-78.93-48.836 78.93 7.602v-8.557l-77.458-8.266-1.471 9.22z" fill="#f3ca27"/><path d="m181.057 269.217c.412.457.773.985 1.104 1.555 49.384-12.91 26.685 2.198 26.685 2.198 6.33-7.24-13.607-1.626-25.203 2.063.07.395.156.78.199 1.192 17.699-1.633 8.36 1.736 8.36 1.736 2.326-1.547-3.053-1.158-8.24-.516.02.61-.022 1.24-.07 1.871 2.786.424 4.587.81 4.563 1.03-.023.22-1.863.223-4.675.06-.086.626-.176 1.252-.321 1.844 4.94 1.705 10.119 3.204 8.166 1.208 0 0 8.436 5.236-8.54-.04-.126.394-.29.752-.442 1.124 10.576 6.02 28.912 15.656 24.223 7.258 0 0 19.062 19.498-26.557-3.398-.443.488-.906.93-1.404 1.292 1.045 14-1.963 5.656-1.963 5.656 1.215 1.823 1.234-1.102.877-4.95-1.018.502-2.1.727-3.201.611-1.098-.116-2.112-.56-3.002-1.263-1.151 3.69-1.74 6.555-.172 5.024 0 0-4.666 7.512-.742-5.939a9.11 9.11 0 0 1 -1.168-1.62c-49.463 12.937-26.817-2.155-26.817-2.155-6.351 7.265 13.74 1.588 25.317-2.098-.065-.366-.082-.758-.122-1.138-17.697 1.633-8.36-1.735-8.36-1.735-2.321 1.547 3.056 1.158 8.243.516-.02-.606.024-1.235.067-1.864-2.88-.434-4.746-.83-4.723-1.054s1.934-.223 4.84-.05c.086-.624.176-1.247.32-1.837-4.941-1.705-10.12-3.204-8.168-1.208 0 0-8.435-5.237 8.537.04.118-.363.215-.742.354-1.087-10.557-6.013-29.028-15.743-24.324-7.316 0 0-19.014-19.47 26.675 3.468a9.35 9.35 0 0 1 1.48-1.342c-1.04-13.973 1.962-5.655 1.962-5.655-1.215-1.824-1.235 1.101-.875 4.95 1.015-.502 2.099-.727 3.197-.61 1.102.115 2.113.56 3.006 1.262 1.148-3.69 1.736-6.556.17-5.024 0 0 4.676-7.537.744 5.941" fill="#f1c40f"/><path d="m542.81 213.475c5.772-1.547 4.373-25.482-3.125-53.467-7.498-27.984-18.255-49.416-24.027-47.87-5.772 1.548-4.373 25.485 3.125 53.47 7.498 27.984 18.255 49.414 24.027 47.867" fill="#ea5e50"/><path d="m515.012 109.728 34.15 133.885 1.609-.431-35.76-133.453zm35.759 133.454 1.608-.43-37.367-133.024z" fill="#c74d40"/><path d="m570.84 461.88h28.32v-23.797h-28.32z" fill="#f9db9d"/><path d="m585 465.422c7.82 0 14.16-1.586 14.16-3.542s-6.34-3.542-14.16-3.542-14.16 1.586-14.16 3.542 6.34 3.542 14.16 3.542m90.217-86.939c7.204 0 13.043-5.84 13.043-13.043 0-7.204-5.839-13.044-13.043-13.044s-13.043 5.84-13.043 13.044c0 7.203 5.839 13.043 13.043 13.043m-180.434 0c7.204 0 13.043-5.84 13.043-13.043 0-7.204-5.839-13.044-13.043-13.044s-13.043 5.84-13.043 13.044c0 7.203 5.839 13.043 13.043 13.043" fill="#f9db9d"/><path d="m585 405.678c52.827 0 108.457-29.678 92.108-97.304-8.906-36.84-39.281-76.24-92.108-76.24s-91.07 60.74-93.526 76.24c-11.348 71.626 40.699 97.304 93.526 97.304" fill="#2d3e50"/><path d="m585 446.417c47.424 0 85.869-41.85 85.869-93.478 0-51.625-38.445-99.998-85.869-99.998s-85.869 48.373-85.869 99.998c0 51.627 38.445 93.478 85.869 93.478" fill="#f9db9d"/><path d="m549.477 362.099a7.871 7.871 0 0 0 7.869-7.873 7.871 7.871 0 0 0 -7.87-7.873 7.871 7.871 0 0 0 -7.868 7.873 7.871 7.871 0 0 0 7.869 7.873m71.942 0a7.871 7.871 0 0 0 7.869-7.873 7.871 7.871 0 0 0 -7.87-7.873 7.871 7.871 0 0 0 -7.868 7.873 7.871 7.871 0 0 0 7.869 7.873m-59.74 36.482c-.248.737-.4 1.492-.4 2.267 0 7.095 10.821 12.846 24.168 12.846 13.348 0 24.17-5.75 24.17-12.846 0-.775-.153-1.53-.4-2.267-2.018 6.012-11.88 10.58-23.77 10.58-11.889 0-21.75-4.568-23.769-10.58" fill="#2d3e50"/><path d="m552.702 573h32.298v-87h-32.298z" fill="#f9db9d"/><path d="m585 495v-29.578l-11.775-12.483c-2.489-.136-15.096 0-18.178 0-24.683 0-27.449 36.894-27.716 42.061h-.028l-4.145 56.552c-2.232 15.316-5.191 53.019.691 58.901 6.521 6.522 26.087 2.174 28.26-15.217 2.175-17.391 6.522-78.261 6.522-78.261v-21.975zm-54.392 249.059s-21.886 1.953-21.886 11.717v5.858h68.346v-17.575z" fill="#f9db9d"/><path d="m585 613.332v-25.513h-46.999l2.999 157.18 36 1" fill="#f9db9d"/><path d="m537.5 567-2.5 93h50v-93z" fill="#425161"/><path d="m552.46 652.268h7.642l-3.821-11.102-3.82 11.102zm15.445-11.102 3.82 11.102h-7.64zm-27.07 11.102h7.642l-3.821-11.102-3.82 11.102zm38.82-11.102 3.82 11.102h-7.64zm-44.655 18.834h50v-3h-50z" fill="#f1c40f"/><path d="m585 573h32.298v-87h-32.298z" fill="#f9db9d"/><path d="m585 495v-29.578l11.775-12.483c2.489-.136 15.096 0 18.178 0 24.683 0 27.449 36.894 27.716 42.061h.028l4.145 56.552c2.232 15.316 5.191 53.019-.691 58.901-6.521 6.522-26.087 2.174-28.26-15.217-2.175-17.391-6.522-78.261-6.522-78.261v-21.975zm54.392 249.059s21.886 1.953 21.886 11.717v5.858h-68.346v-17.575z" fill="#f9db9d"/><path d="m585 613.332v-25.513h46.999l-3 157.18-36 1" fill="#f9db9d"/><path d="m632.5 567 2.5 93h-50v-93z" fill="#425161"/><path d="m617.54 652.268h-7.642l3.821-11.102 3.82 11.102zm-15.445-11.102-3.82 11.102h7.64zm27.07 11.102h-7.642l3.821-11.102 3.82 11.102zm-38.82-11.102-3.82 11.102h7.64zm-5.345 18.834h50v-3h-50z" fill="#f1c40f"/><path d="m564 698h42v-131h-42z" fill="#c74d40"/><path d="m564 698h42v-18h-42z" fill="#c74d40"/><path d="m570 684h30v-117h-30z" fill="#485b6e"/><path d="m563 452.878c-2.489-.136-15.917 0-19 0l-4.154 42.74-4.547 105.382 39.701-.75v-116z" fill="#485b6e"/><path d="m536 599.5h39v-2h-39z" fill="#f3ca27"/><path d="m551.68 595.102h7.64l-3.82-11.102zm11.625 0h7.64l-3.819-11.102zm-23.25 0h7.64l-3.819-11.102zm11.715-72.802c.236-.26.515-.5.82-.722-10.316-27.373-.346-15.34-.346-15.34-4.505-3.173-.111 7.854 2.686 14.243.22-.065.435-.14.667-.188-1.991-9.99.489-4.87.489-4.87-1.021-1.23-.477 1.812.199 4.73.346-.047.708-.061 1.07-.073.076-1.613.188-2.662.315-2.662.126 0 .238 1.049.313 2.662.363.012.725.026 1.07.073.677-2.918 1.22-5.96.2-4.73 0 0 2.48-5.12.489 4.87.233.049.446.123.668.188 2.796-6.39 7.19-17.416 2.685-14.242 0 0 9.97-12.034-.346 15.339.305.223.585.463.82.723 7.917-1.434 3.342.78 3.342.78.966-.8-.702-.637-2.874-.204.347.55.54 1.154.54 1.789 0 .633-.193 1.237-.54 1.787 2.172.434 3.84.598 2.874-.203 0 0 4.56 2.209-3.341.78a5.3 5.3 0 0 1 -.854.76c10.338 27.417.379 15.413.379 15.413 4.522 3.186.082-7.925-2.712-14.302-.205.058-.427.09-.641.136 1.99 9.99-.488 4.869-.488 4.869 1.02 1.233.476-1.81-.2-4.726-.345.047-.705.06-1.066.07-.075 1.668-.19 2.756-.318 2.756-.13 0-.243-1.088-.318-2.756-.362-.01-.722-.023-1.067-.07-.676 2.916-1.22 5.959-.2 4.726 0 0-2.48 5.122-.488-4.87-.214-.044-.436-.077-.641-.135-2.794 6.377-7.233 17.488-2.712 14.302 0 0-9.958 12.004.379-15.412a5.3 5.3 0 0 1 -.854-.761c-7.901 1.429-3.34-.78-3.34-.78-.967.8.7.637 2.873.203a3.328 3.328 0 0 1 -.54-1.787c0-.635.193-1.238.54-1.79-2.172-.432-3.84-.595-2.873.206 0 0-4.576-2.215 3.34-.781" fill="#f1c40f"/><path d="m573 598.5h2v-114.5h-2z" fill="#f3ca27"/><path d="m561.617 452.879 11.383 32.12 2.001-1-11-31.12z" fill="#f3ca27"/><path d="m607 452.878c2.489-.136 15.917 0 19 0l4.154 42.74 4.547 105.382-39.701-.75v-116z" fill="#485b6e"/><path d="m595 599.5h39v-2h-39z" fill="#f3ca27"/><path d="m618.32 595.102h-7.64l3.82-11.102zm-11.625 0h-7.64l3.82-11.102zm23.25 0h-7.64l3.82-11.102zm-11.715-72.802a5.44 5.44 0 0 0 -.82-.722c10.316-27.373.346-15.34.346-15.34 4.505-3.173.111 7.854-2.686 14.243-.22-.065-.435-.14-.667-.188 1.991-9.99-.489-4.87-.489-4.87 1.021-1.23.477 1.812-.199 4.73a10.654 10.654 0 0 0 -1.07-.073c-.076-1.613-.188-2.662-.315-2.662-.126 0-.238 1.049-.313 2.662-.363.012-.725.026-1.07.073-.677-2.918-1.22-5.96-.2-4.73 0 0-2.48-5.12-.489 4.87-.233.049-.446.123-.668.188-2.796-6.39-7.19-17.416-2.685-14.242 0 0-9.97-12.034.346 15.339a5.392 5.392 0 0 0 -.82.723c-7.917-1.434-3.342.78-3.342.78-.966-.8.702-.637 2.874-.204a3.33 3.33 0 0 0 -.54 1.789c0 .633.193 1.237.54 1.787-2.172.434-3.84.598-2.874-.203 0 0-4.56 2.209 3.341.78a5.3 5.3 0 0 0 .854.76c-10.338 27.417-.379 15.413-.379 15.413-4.522 3.186-.082-7.925 2.712-14.302.205.058.427.09.641.136-1.99 9.99.488 4.869.488 4.869-1.02 1.233-.476-1.81.2-4.726.345.047.705.06 1.066.07.075 1.668.19 2.756.318 2.756.13 0 .243-1.088.318-2.756.362-.01.722-.023 1.067-.07.676 2.916 1.22 5.959.2 4.726 0 0 2.48 5.122.488-4.87.214-.044.436-.077.641-.135 2.794 6.377 7.233 17.488 2.712 14.302 0 0 9.958 12.004-.379-15.412a5.3 5.3 0 0 0 .854-.761c7.901 1.429 3.34-.78 3.34-.78.967.8-.7.637-2.873.203.347-.55.54-1.154.54-1.787 0-.635-.193-1.238-.54-1.79 2.172-.432 3.84-.595 2.873.206 0 0 4.576-2.215-3.34-.781" fill="#f1c40f"/><path d="m595 598.5h2v-114.5h-2z" fill="#f3ca27"/><path d="m608.383 452.879-11.383 32.12-2.001-1 11-31.12z" fill="#f3ca27"/><path d="m590.969 661.835h-4.704l2.352-6.835zm-9.51-6.835-2.35 6.835h4.703l-2.352-6.835zm16.667 6.835h-4.704l2.352-6.835zm-23.9-6.835-2.351 6.835h4.703l-2.351-6.835zm17.23-31.912a5.44 5.44 0 0 0 -.82-.723c10.316-27.373.346-15.34.346-15.34 4.505-3.173.111 7.854-2.686 14.243-.22-.065-.435-.14-.667-.188 1.991-9.99-.489-4.87-.489-4.87 1.021-1.23.477 1.812-.199 4.73a10.654 10.654 0 0 0 -1.07-.073c-.076-1.613-.188-2.662-.315-2.662-.126 0-.238 1.049-.313 2.662-.363.012-.725.026-1.07.073-.677-2.918-1.22-5.96-.2-4.73 0 0-2.48-5.12-.489 4.87-.233.049-.446.123-.668.188-2.796-6.39-7.19-17.416-2.685-14.242 0 0-9.97-12.034.346 15.339a5.392 5.392 0 0 0 -.82.723c-7.917-1.434-3.342.78-3.342.78-.966-.8.702-.637 2.874-.204a3.33 3.33 0 0 0 -.54 1.789c0 .633.193 1.237.54 1.787-2.172.434-3.84.598-2.874-.203 0 0-4.56 2.209 3.341.78.247.273.53.529.853.76-10.337 27.417-.378 15.413-.378 15.413-4.522 3.186-.082-7.925 2.712-14.302.205.058.427.09.641.136-1.99 9.99.488 4.869.488 4.869-1.02 1.233-.476-1.81.2-4.726.345.047.705.06 1.066.07.075 1.668.19 2.756.318 2.756.13 0 .243-1.088.318-2.756.362-.01.722-.023 1.067-.07.676 2.916 1.22 5.959.2 4.726 0 0 2.48 5.122.488-4.87.214-.044.436-.077.641-.135 2.794 6.377 7.233 17.488 2.712 14.302 0 0 9.958 12.004-.379-15.412a5.3 5.3 0 0 0 .854-.761c7.901 1.429 3.34-.78 3.34-.78.967.8-.7.637-2.873.203.347-.55.54-1.154.54-1.787 0-.635-.193-1.238-.54-1.79 2.172-.432 3.84-.595 2.873.206 0 0 4.576-2.215-3.34-.781" fill="#f1c40f"/><path d="m564 684h42v-13h-42z" fill="#eef1f3"/><path d="m564 704h42v-6h-42z" fill="#e67f22"/><path d="m564 713.854h3.236v-12.854h-3.236zm12.943 0h3.236v-12.854h-3.236zm12.911 0h3.236v-12.854h-3.236zm-19.383 0h3.236v-12.854h-3.236zm32.293 0h3.236v-12.854h-3.236zm-19.382 0h3.236v-12.854h-3.236zm12.911 0h3.236v-12.854h-3.236z" fill="#e67f22"/><path d="m564 698h42v-3h-42z" fill="#f1c40f"/><path d="m575 573h20v-6h-20z" fill="#eef1f3"/><path d="m575 579h20v-6h-20z" fill="#c74d40"/><path d="m585 307-92.5-10 6.5-78 86 4z" fill="#f1c40f"/><path d="m585 290.285-91-9.285 4-48.867 87 4.867z" fill="#ea5e50"/><path d="m548.018 244.677c.516.635.986 1.388 1.428 2.209 54.146-27.787 30.343-.933 30.343-.933 6.282-12.135-15.533-.3-28.17 7.233.128.596.272 1.172.37 1.8 19.76-5.363 9.63 1.315 9.63 1.315 2.438-2.75-3.58-1.284-9.351.538.094.93.12 1.906.143 2.882 3.19.202 5.265.505 5.265.846s-2.074.642-5.265.844c-.022.978-.05 1.952-.143 2.885 5.77 1.82 11.789 3.286 9.352.538 0 0 10.13 6.676-9.631 1.315-.098.625-.242 1.202-.37 1.798 12.637 7.532 34.452 19.368 28.17 7.233 0 0 23.803 26.856-30.343-.933-.442.822-.912 1.575-1.428 2.21 2.836 21.325-1.545 9-1.545 9 1.586 2.603 1.262-1.89.402-7.74-1.086.935-2.281 1.454-3.535 1.454s-2.447-.519-3.535-1.454c-.857 5.85-1.182 10.345.402 7.74 0 0-4.371 12.284-1.541-8.998a13.816 13.816 0 0 1 -1.51-2.298c-54.23 27.841-30.486 1.019-30.486 1.019-6.3 12.178 15.678.221 28.29-7.305-.114-.553-.178-1.15-.268-1.726-19.762 5.361-9.631-1.315-9.631-1.315-2.438 2.748 3.58 1.282 9.352-.538-.094-.928-.122-1.9-.143-2.873-3.297-.202-5.45-.509-5.45-.856 0-.349 2.153-.654 5.45-.856.02-.974.049-1.946.143-2.873-5.772-1.822-11.79-3.287-9.352-.538 0 0-10.131-6.678 9.63-1.315.09-.577.155-1.175.27-1.726-12.613-7.526-34.591-19.483-28.291-7.305 0 0-23.744-26.823 30.487 1.02.46-.874.966-1.635 1.509-2.3-2.83-21.282 1.54-8.998 1.54-8.998-1.583-2.603-1.258 1.89-.401 7.74 1.088-.934 2.28-1.453 3.535-1.453 1.254 0 2.449.519 3.535 1.454.86-5.85 1.184-10.345-.402-7.74 0 0 4.38-12.326 1.545 9" fill="#f1c40f"/><path d="m585 307 92.5-10-6.5-78-86 4z" fill="#f1c40f"/><path d="m585 290.285 91-9.285-4-48.867-87 4.867z" fill="#ea5e50"/><path d="m621.982 244.677c-.516.635-.986 1.388-1.428 2.209-54.146-27.787-30.343-.933-30.343-.933-6.282-12.135 15.533-.3 28.17 7.233-.128.596-.272 1.172-.37 1.8-19.76-5.363-9.63 1.315-9.63 1.315-2.438-2.75 3.58-1.284 9.351.538-.094.93-.12 1.906-.143 2.882-3.19.202-5.265.505-5.265.846s2.074.642 5.265.844c.022.978.05 1.952.143 2.885-5.77 1.82-11.789 3.286-9.352.538 0 0-10.13 6.676 9.631 1.315.098.625.242 1.202.37 1.798-12.637 7.532-34.452 19.368-28.17 7.233 0 0-23.803 26.856 30.343-.933.442.822.912 1.575 1.428 2.21-2.836 21.325 1.545 9 1.545 9-1.586 2.603-1.262-1.89-.402-7.74 1.086.935 2.281 1.454 3.535 1.454s2.447-.519 3.535-1.454c.857 5.85 1.182 10.345-.402 7.74 0 0 4.371 12.284 1.541-8.998a13.816 13.816 0 0 0 1.51-2.298c54.23 27.841 30.486 1.019 30.486 1.019 6.3 12.178-15.678.221-28.29-7.305.114-.553.178-1.15.268-1.726 19.762 5.361 9.631-1.315 9.631-1.315 2.438 2.748-3.58 1.282-9.352-.538.094-.928.122-1.9.143-2.873 3.297-.202 5.45-.509 5.45-.856 0-.349-2.153-.654-5.45-.856-.02-.974-.049-1.946-.143-2.873 5.772-1.822 11.79-3.287 9.352-.538 0 0 10.131-6.678-9.63-1.315-.09-.577-.155-1.175-.27-1.726 12.613-7.526 34.591-19.483 28.291-7.305 0 0 23.744-26.823-30.487 1.02a13.826 13.826 0 0 0 -1.509-2.3c2.83-21.282-1.54-8.998-1.54-8.998 1.583-2.603 1.258 1.89.401 7.74-1.088-.934-2.28-1.453-3.535-1.453-1.254 0-2.449.519-3.535 1.454-.86-5.85-1.184-10.345.402-7.74 0 0-4.38-12.326-1.545 9" fill="#f1c40f"/></g></svg>