<svg height="800" width="800" xmlns="http://www.w3.org/2000/svg"><mask id="a" fill="#fff"><path d="M31.209 2.457c1.086-1.31.864.95.275 3.893-.744-.471-1.562-.732-2.42-.732-.859 0-1.678.261-2.421.731-.589-2.942-.811-5.202.275-3.892s-2.992-6.179-1.054 4.525a7.054 7.054 0 0 0-1.034 1.156C-12.311-5.866 3.951 7.625 3.951 7.625-.365 1.5 14.687 7.514 23.326 11.3c-.08.277-.125.578-.186.868-13.532-2.698-6.595.661-6.595.661-1.668-1.382 2.453-.645 6.404.271a14.42 14.42 0 0 0-.098 1.445c-2.257.101-3.732.255-3.732.43s1.475.329 3.732.431c.016.489.035.977.098 1.444-3.951.917-8.072 1.654-6.404.27s-6.937 3.359 6.595.662c.061.291.106.591.186.868-8.639 3.787-23.691 9.8-19.375 3.675s-16.262 13.49 20.877-.513c.317.439.662.822 1.033 1.157-1.935 10.703 1.057 4.525 1.057 4.525-1.086 1.309-.864-.951-.275-3.893.743.47 1.562.731 2.421.731.858 0 1.676-.261 2.42-.732.589 2.942.811 5.203-.275 3.894s3 6.198 1.056-4.526c.354-.32.678-.699.979-1.112 37.082 13.975 20.781.469 20.781.469 4.302 6.103-10.637.15-19.291-3.639.086-.299.186-.588.252-.904 13.533 2.697 6.596-.662 6.596-.662 1.668 1.384-2.452.647-6.404-.27.064-.469.082-.959.098-1.45 2.185-.101 3.605-.253 3.605-.425s-1.42-.323-3.605-.425a14.247 14.247 0 0 0-.098-1.45c3.952-.916 8.072-1.653 6.404-.271s6.937-3.359-6.596-.661c-.066-.315-.166-.605-.252-.905 8.654-3.789 23.593-9.742 19.291-3.638s16.301-13.507-20.781.469a7.189 7.189 0 0 0-.979-1.111c.902-4.975.74-6.309.307-6.309-.501.001-1.363 1.783-1.363 1.783" fill-rule="evenodd"/></mask><g fill="none" fill-rule="evenodd"><path d="M169.845 528.203c-2.693 10.775-10.77 78.121-5.385 83.51 5.385 5.386 11.54 3.556 13.462 0 1.042-1.928 9.734-82.096 12.465-112.643L215 502v-47.848h-12c-35.837-1.838-28.074 18.66-29.977 33.643 0 0-.486 29.633-3.178 40.408" fill="#f9db9d"/><path d="M163.342 560.527l-1.361 25.965 18.696.98 1.36-25.965z" fill="#f1c40f"/><path d="M260.156 528.203c2.693 10.775 10.77 78.121 5.385 83.51-5.385 5.386-10.54 3.388-13.462 0-1.43-1.66-9.734-82.096-12.465-112.643L215.001 502v-47.848h12c35.837-1.838 28.074 18.66 29.977 33.643 0 0 .486 29.633 3.178 40.408" fill="#f9db9d"/><path d="M266.66 560.527l1.36 25.965-18.696.98-1.36-25.965z" fill="#f1c40f"/><g fill="#f9db9d"><path d="M186.752 659.624l1.018 87.536-.018.002-3 3c-1 1 0 2 6 1 5.055-.842 10.094-2.477 11.562-2.972l.438-.028s2.052-76.71 2.248-88.538z"/><path d="M186.83 749.1s-24.986 11.062-11.118 11.062h24.927c3.307 0 2.153-12.123 2.153-12.123zm56.418-89.476l-1.018 87.536.018.002 3 3c1 1 0 2-6 1-5.055-.842-10.094-2.477-11.562-2.972l-.438-.028s-2.052-76.71-2.248-88.538z"/><path d="M243.17 749.1s24.986 11.062 11.118 11.062H229.36c-3.307 0-2.153-12.123-2.153-12.123z"/></g><path d="M172.898 234.648c6.935-1.857 5.254-30.619-3.755-64.24-9.008-33.619-21.933-59.369-28.869-57.512-6.935 1.86-5.253 30.621 3.755 64.24 9.01 33.621 21.934 59.371 28.87 57.512" fill="#ea5e50"/><path d="M139.499 109.998l41.032 160.861 1.93-.517zm42.964 160.344l1.932-.518-44.897-159.826z" fill="#c74d40"/><path d="M180 662h35V549.654h-35zm70 0l.001-112.346h-35V662z" fill="#2d3e50"/><path d="M215 432c49.706 0 90-19.486 90-86.231S264.705 237 215 237c-49.706 0-90 42.024-90 108.769S165.294 432 215 432" fill="#2d3e50"/><g fill="#f9db9d"><path d="M138.266 387.185c6.69 0 12.116-5.427 12.116-12.122s-5.425-12.123-12.116-12.123-12.116 5.428-12.116 12.123 5.425 12.122 12.116 12.122m153.468 0c6.691 0 12.116-5.427 12.116-12.122s-5.425-12.123-12.116-12.123-12.116 5.428-12.116 12.123 5.425 12.122 12.116 12.122"/></g><path d="M204.23 463.202h21.539v-18.099H204.23z" fill="#f9db9d"/><path d="M215 451.838c44.61 0 80.773-43.846 80.773-104.922S259.61 255 215 255s-80.773 30.84-80.773 91.916S170.39 451.838 215 451.838" fill="#f9db9d"/><g fill="#2d3e50"><path d="M177.556 371.281a8.193 8.193 0 0 0 8.19-8.195c0-4.527-3.666-8.196-8.19-8.196s-8.191 3.67-8.191 8.196a8.193 8.193 0 0 0 8.19 8.195m74.89 0a8.193 8.193 0 0 0 8.191-8.195c0-4.527-3.667-8.196-8.19-8.196s-8.192 3.67-8.192 8.196a8.193 8.193 0 0 0 8.191 8.195m-62.188 37.977c-.257.767-.415 1.553-.415 2.36 0 7.385 11.264 13.372 25.158 13.372 13.895 0 25.158-5.987 25.158-13.372 0-.807-.157-1.593-.415-2.36-2.1 6.258-12.366 11.013-24.743 11.013s-22.643-4.755-24.743-11.013"/><path d="M214.993 250c-69.468 2.459-88.202 52.625-81.594 113.451 0 0 .531-41.623 43.907-65.582 0 0 9.68-6.231 37.687-7.05s37.687 7.05 37.687 7.05c43.376 23.959 43.907 65.582 43.907 65.582 6.608-60.826-12.126-110.992-81.594-113.451"/></g><path d="M294.242 440.815c1.98 0 3.586-12.495 3.586-27.908 0-15.412-1.606-27.907-3.586-27.907s-3.586 12.495-3.586 27.907c0 15.413 1.606 27.908 3.586 27.908m-160.015 0c1.98 0 3.586-12.495 3.586-27.908 0-15.412-1.606-27.907-3.586-27.907s-3.586 12.495-3.586 27.907c0 15.413 1.606 27.908 3.586 27.908" fill="#f1c40f"/><path d="M197.007 478.806H215v-24.654h-17.993z" fill="#f9db9d"/><path d="M299.933 300.861l-7.475-30L215 276.154v31.902z" fill="#ea5e50"/><path d="M215 308.057v-4.461l84.083-6.14.85 3.408zm78.93-31.287L215 281.639v-5.482l77.457-5.293z" fill="#f3ca27"/><path d="M248.943 283.173a6.815 6.815 0 0 0-1.104.996c-49.386-8.27-26.687 1.408-26.687 1.408-6.328-4.638 13.61-1.04 25.207 1.322-.072.253-.162.5-.205.764-17.697-1.046-8.357 1.112-8.357 1.112-2.325-.99 3.052-.742 8.24-.33-.02.39.023.794.068 1.198-2.783.272-4.584.52-4.56.66.023.141 1.865.143 4.675.038.086.402.178.803.321 1.182-4.94 1.092-10.118 2.053-8.168.774 0 0-8.434 3.355 8.541-.026.125.253.293.482.445.721-10.576 3.855-28.912 10.03-24.225 4.65 0 0-19.064 12.491 26.557-2.178.443.313.906.596 1.402.828-1.04 8.97 1.965 3.624 1.965 3.624-1.215 1.168-1.232-.706-.879-3.172a8.68 8.68 0 0 0 3.201.392 7.798 7.798 0 0 0 3.004-.809c1.15 2.364 1.74 4.2.17 3.218 0 0 4.668 4.813.746-3.805.43-.307.823-.65 1.166-1.038 49.463 8.29 26.815-1.38 26.815-1.38 6.353 4.655-13.738 1.018-25.315-1.345.065-.234.082-.485.122-.728 17.7 1.046 8.36-1.112 8.36-1.112 2.323.991-3.056.742-8.243.331.021-.389-.022-.792-.069-1.194 2.881-.278 4.748-.532 4.725-.676s-1.936-.143-4.842-.03c-.086-.4-.172-.8-.316-1.179 4.94-1.092 10.117-2.052 8.166-.774 0 0 8.435-3.355-8.537.026-.118-.233-.217-.476-.356-.696 10.557-3.853 29.031-10.087 24.324-4.687 0 0 19.02-12.475-26.675 2.222a8.95 8.95 0 0 0-1.479-.86c1.043-8.953-1.959-3.624-1.959-3.624 1.211-1.168 1.231.706.873 3.172a8.648 8.648 0 0 0-3.197-.392 7.776 7.776 0 0 0-3.004.81c-1.148-2.364-1.736-4.2-.17-3.219 0 0-4.68-4.829-.746 3.806" fill="#f1c40f"/><path d="M130.067 300.861l7.475-30L215 276.154v31.902z" fill="#ea5e50"/><path d="M215 308.057v-4.461l-84.083-6.14-.85 3.408zm-78.93-31.287l78.93 4.869v-5.482l-77.457-5.293z" fill="#f3ca27"/><path d="M181.057 283.173c.412.292.773.631 1.104.996 49.386-8.27 26.687 1.408 26.687 1.408 6.328-4.638-13.61-1.04-25.207 1.322.072.253.162.5.205.764 17.697-1.046 8.357 1.112 8.357 1.112 2.325-.99-3.052-.742-8.24-.33.02.39-.023.794-.068 1.198 2.783.272 4.584.52 4.56.66-.023.141-1.865.143-4.675.038a8.204 8.204 0 0 1-.321 1.182c4.94 1.092 10.118 2.053 8.168.774 0 0 8.434 3.355-8.541-.026-.125.253-.293.482-.445.721 10.576 3.855 28.912 10.03 24.225 4.65 0 0 19.064 12.491-26.557-2.178a9.157 9.157 0 0 1-1.402.828c1.04 8.97-1.965 3.624-1.965 3.624 1.215 1.168 1.232-.706.879-3.172a8.68 8.68 0 0 1-3.201.392 7.798 7.798 0 0 1-3.004-.809c-1.15 2.364-1.74 4.2-.17 3.218 0 0-4.668 4.813-.746-3.805a6.886 6.886 0 0 1-1.166-1.038c-49.463 8.29-26.815-1.38-26.815-1.38-6.353 4.655 13.738 1.018 25.315-1.345-.065-.234-.082-.485-.122-.728-17.7 1.046-8.36-1.112-8.36-1.112-2.323.991 3.056.742 8.243.331-.021-.389.022-.792.069-1.194-2.881-.278-4.748-.532-4.725-.676s1.936-.143 4.842-.03c.086-.4.172-.8.316-1.179-4.94-1.092-10.117-2.052-8.166-.774 0 0-8.435-3.355 8.537.026.118-.233.217-.476.356-.696-10.557-3.853-29.031-10.087-24.324-4.687 0 0-19.02-12.475 26.675 2.222a8.95 8.95 0 0 1 1.479-.86c-1.043-8.953 1.959-3.624 1.959-3.624-1.211-1.168-1.231.706-.873 3.172a8.648 8.648 0 0 1 3.197-.392 7.776 7.776 0 0 1 3.004.81c1.148-2.364 1.736-4.2.17-3.219 0 0 4.68-4.829.746 3.806M180 546l-1 11h36.001v-11zm35.001 0v11h36l-1-11z" fill="#f1c40f"/><path d="M181.161 520.879c7.383 1.039 13.462 1.213 13.577.393.116-.82-5.776-2.325-13.16-3.364-7.383-1.037-13.462-1.213-13.577-.394-.115.82 5.777 2.328 13.16 3.365" fill="#f1c40f"/><path d="M215 472s-13 1-17.993-14L199 549.654H215z" fill="#c1392b"/><path d="M202.5 454.153c-5.372 0-21.132.484-22 .847-3.563 1.174-5.657 5.628-7.824 13.938C168.75 484 168.75 489 168.75 489l14.25 2c-2 15 2 13 1 24-.395 1.474 0 9.654-4 34.654h35" fill="#e84c3d"/><g fill="#c1392b"><path d="M198.325 478.36a4.963 4.963 0 0 0-.838-.616c7.516-26.832-.945-14.586-.945-14.586 4.01-3.385.757 7.441-1.366 13.736-.215-.043-.424-.094-.65-.12 1.06-9.645-.867-4.58-.867-4.58.867-1.255.603 1.677.203 4.501-.332-.018-.676 0-1.021.02-.206-1.526-.4-2.51-.52-2.499-.12.01-.138 1.014-.076 2.551a9.851 9.851 0 0 0-1.01.156c-.883-2.71-1.652-5.552-.581-4.466 0 0-2.778-4.655-.06 4.66-.216.066-.413.152-.618.232-3.184-5.83-8.268-15.927-3.73-13.29 0 0-10.46-10.59 1.602 14.527a5.024 5.024 0 0 0-.72.752c-7.63-.702-3.104 1.02-3.104 1.02-.984-.683.613-.663 2.71-.435a3.17 3.17 0 0 0-.364 1.743c.052.601.285 1.158.66 1.65-2.025.594-3.594.885-2.743.045 0 0-4.144 2.477 3.234.463.257.24.546.46.873.652-7.532 26.871.92 14.654.92 14.654-4.025 3.401-.735-7.51 1.387-13.792.199.037.412.05.619.076-1.06 9.642.868 4.58.868 4.58-.866 1.25-.603-1.68-.203-4.506.33.017.674 0 1.017-.02.21 1.577.408 2.6.53 2.59.124-.01.14-1.054.074-2.642a9.467 9.467 0 0 0 1.006-.157c.884 2.713 1.652 5.553.582 4.471 0 0 2.777 4.652.059-4.66.199-.063.407-.11.597-.184 3.18 5.82 8.315 15.994 3.76 13.344 0 0 10.446 10.565-1.638-14.592.288-.248.535-.513.746-.795 7.616.703 3.105-1.015 3.105-1.015.984.68-.612.664-2.71.431.284-.55.417-1.138.364-1.74a3.156 3.156 0 0 0-.661-1.652c2.026-.59 3.595-.885 2.744-.043 0 0 4.158-2.483-3.235-.465"/><path d="M201.848 521.465a4.498 4.498 0 0 0-.751-.553c6.733-24.033-.846-13.064-.846-13.064 3.593-3.031.678 6.666-1.224 12.305-.192-.038-.38-.084-.581-.11.949-8.637-.777-4.103-.777-4.103.776-1.123.54 1.504.182 4.033-.298-.014-.606.002-.915.017-.184-1.363-.357-2.246-.465-2.238-.108.01-.125.91-.07 2.285a9.218 9.218 0 0 0-.903.14c-.792-2.427-1.48-4.972-.521-4.001 0 0-2.488-4.166-.053 4.174-.194.06-.371.138-.554.21-2.852-5.224-7.406-14.267-3.341-11.906 0 0-9.37-9.484 1.435 13.014a4.477 4.477 0 0 0-.644.674c-6.835-.631-2.782.91-2.782.91-.881-.607.55-.594 2.428-.385a2.82 2.82 0 0 0-.326 1.559c.047.539.255 1.037.59 1.478-1.813.532-3.218.795-2.456.04 0 0-3.712 2.218 2.897.416.23.214.489.412.782.585-6.747 24.069.824 13.125.824 13.125-3.606 3.045-.66-6.73 1.242-12.355.178.035.37.045.555.068-.95 8.637.777 4.1.777 4.1-.776 1.123-.54-1.502-.182-4.033.296.015.604 0 .912-.016.187 1.41.365 2.326.475 2.317.11-.01.125-.944.065-2.366.306-.035.612-.074.9-.14.793 2.429 1.48 4.972.522 4.002 0 0 2.488 4.17.053-4.17.179-.057.365-.1.535-.166 2.849 5.21 7.448 14.326 3.368 11.953 0 0 9.356 9.463-1.468-13.07.259-.221.48-.461.669-.711 6.822.627 2.782-.911 2.782-.911.88.61-.55.592-2.428.385.254-.492.373-1.02.326-1.558s-.256-1.038-.592-1.48c1.814-.53 3.22-.792 2.458-.04 0 0 3.724-2.223-2.898-.414"/><path d="M197.336 501.28a2.413 2.413 0 0 0-.403-.298c3.611-12.885-.454-7.004-.454-7.004 1.927-1.625.364 3.574-.655 6.596-.104-.02-.204-.045-.312-.059.51-4.632-.417-2.197-.417-2.197.416-.603.29.805.098 2.16-.16-.006-.325.004-.49.012-.1-.732-.192-1.205-.25-1.2-.058.005-.067.485-.037 1.225a5.28 5.28 0 0 0-.485.075c-.425-1.303-.794-2.666-.28-2.145 0 0-1.334-2.238-.028 2.236-.104.032-.199.075-.297.112-1.529-2.799-3.97-7.649-1.792-6.383 0 0-5.023-5.084.77 6.976a2.401 2.401 0 0 0-.345.364c-3.665-.338-1.492.488-1.492.488-.472-.324.295-.318 1.302-.207-.137.264-.2.547-.175.834.025.291.137.557.317.795-.973.283-1.726.426-1.318.021 0 0-1.99 1.19 1.554.223.123.115.262.221.42.313-3.619 12.906.441 7.04.441 7.04-1.933 1.63-.353-3.609.666-6.626.096.02.198.025.297.037-.508 4.631.417 2.2.417 2.2-.416.6-.289-.808-.097-2.165.158.008.324 0 .488-.01.101.758.197 1.25.255 1.244.06-.004.068-.506.035-1.269.165-.018.328-.04.483-.076.425 1.304.794 2.667.28 2.148 0 0 1.334 2.234.028-2.238.096-.028.196-.053.287-.088 1.528 2.795 3.994 7.68 1.806 6.41 0 0 5.017 5.072-.787-7.01.14-.117.257-.246.36-.38 3.657.337 1.49-.489 1.49-.489.473.326-.294.316-1.3.207.135-.266.2-.547.173-.838a1.517 1.517 0 0 0-.317-.79c.973-.286 1.727-.425 1.318-.022 0 0 1.997-1.192-1.554-.223"/></g><path d="M248.84 520.879c-7.383 1.039-13.462 1.213-13.577.393-.116-.82 5.776-2.325 13.16-3.364 7.383-1.037 13.462-1.213 13.577-.394.115.82-5.777 2.328-13.16 3.365" fill="#f1c40f"/><path d="M215 472s13.001 1 17.993-14l-1.992 91.654h-16z" fill="#c1392b"/><path d="M227.502 454.153c5.37 0 21.13.484 22 .847 3.562 1.174 5.656 5.628 7.823 13.938C261.25 484 261.25 489 261.25 489L247 491c2 15-2 13-1 24 .395 1.474 0 9.654 4 34.654h-35" fill="#e84c3d"/><path d="M231.676 478.36c.245-.228.53-.433.838-.616-7.516-26.832.945-14.586.945-14.586-4.01-3.385-.757 7.441 1.366 13.736.215-.043.424-.094.65-.12-1.06-9.645.867-4.58.867-4.58-.867-1.255-.603 1.677-.203 4.501.332-.018.676 0 1.021.02.206-1.526.4-2.51.52-2.499.12.01.138 1.014.076 2.551.343.04.685.084 1.01.156.883-2.71 1.652-5.552.581-4.466 0 0 2.778-4.655.06 4.66.216.066.413.152.618.232 3.184-5.83 8.268-15.927 3.73-13.29 0 0 10.46-10.59-1.602 14.527.271.234.517.486.72.752 7.63-.702 3.104 1.02 3.104 1.02.984-.683-.613-.663-2.71-.435a3.17 3.17 0 0 1 .364 1.743 3.156 3.156 0 0 1-.66 1.65c2.025.594 3.594.885 2.743.045 0 0 4.144 2.477-3.234.463-.257.24-.546.46-.873.652 7.532 26.871-.92 14.654-.92 14.654 4.025 3.401.735-7.51-1.387-13.792-.199.037-.412.05-.619.076 1.06 9.642-.868 4.58-.868 4.58.866 1.25.603-1.68.203-4.506a9.39 9.39 0 0 1-1.017-.02c-.21 1.577-.408 2.6-.53 2.59-.124-.01-.14-1.054-.074-2.642a9.467 9.467 0 0 1-1.006-.157c-.884 2.713-1.652 5.553-.582 4.471 0 0-2.777 4.652-.059-4.66-.199-.063-.407-.11-.597-.184-3.18 5.82-8.315 15.994-3.76 13.344 0 0-10.446 10.565 1.638-14.592a5.002 5.002 0 0 1-.746-.795c-7.616.703-3.105-1.015-3.105-1.015-.984.68.612.664 2.71.431a3.157 3.157 0 0 1-.364-1.74c.052-.6.285-1.16.661-1.652-2.026-.59-3.595-.885-2.744-.043 0 0-4.158-2.483 3.235-.465" fill="#c1392b"/><path d="M228.153 521.465c.22-.205.475-.387.751-.553-6.733-24.033.846-13.064.846-13.064-3.593-3.031-.678 6.666 1.224 12.305.192-.038.38-.084.581-.11-.949-8.637.777-4.103.777-4.103-.776-1.123-.54 1.504-.182 4.033.298-.014.606.002.915.017.184-1.363.357-2.246.465-2.238.108.01.125.91.07 2.285.306.037.613.076.903.14.792-2.427 1.48-4.972.521-4.001 0 0 2.488-4.166.053 4.174.194.06.371.138.554.21 2.852-5.224 7.406-14.267 3.341-11.906 0 0 9.37-9.484-1.435 13.014.243.21.463.434.644.674 6.835-.631 2.782.91 2.782.91.881-.607-.55-.594-2.428-.385a2.82 2.82 0 0 1 .326 1.559 2.829 2.829 0 0 1-.59 1.478c1.813.532 3.218.795 2.456.04 0 0 3.712 2.218-2.897.416-.23.214-.489.412-.782.585 6.747 24.069-.824 13.125-.824 13.125 3.606 3.045.66-6.73-1.242-12.355-.178.035-.37.045-.555.068.95 8.637-.777 4.1-.777 4.1.776 1.123.54-1.502.182-4.033-.296.015-.604 0-.912-.016-.187 1.41-.365 2.326-.475 2.317-.11-.01-.125-.944-.065-2.366a8.342 8.342 0 0 1-.9-.14c-.793 2.429-1.48 4.972-.522 4.002 0 0-2.488 4.17-.053-4.17-.179-.057-.365-.1-.535-.166-2.849 5.21-7.448 14.326-3.368 11.953 0 0-9.356 9.463 1.468-13.07a4.495 4.495 0 0 1-.669-.711c-6.822.627-2.782-.911-2.782-.911-.88.61.55.592 2.428.385-.254-.492-.373-1.02-.326-1.558s.256-1.038.592-1.48c-1.814-.53-3.22-.792-2.458-.04 0 0-3.724-2.223 2.898-.414" fill="#c1392b"/><path d="M232.665 501.28c.118-.11.255-.21.403-.298-3.611-12.885.454-7.004.454-7.004-1.927-1.625-.364 3.574.655 6.596.104-.02.204-.045.312-.059-.51-4.632.417-2.197.417-2.197-.416-.603-.29.805-.098 2.16.16-.006.325.004.49.012.1-.732.192-1.205.25-1.2.058.005.067.485.037 1.225.165.02.329.041.485.075.425-1.303.794-2.666.28-2.145 0 0 1.334-2.238.028 2.236.104.032.199.075.297.112 1.529-2.799 3.97-7.649 1.792-6.383 0 0 5.023-5.084-.77 6.976.13.114.248.235.345.364 3.665-.338 1.492.488 1.492.488.472-.324-.295-.318-1.302-.207.137.264.2.547.175.834a1.523 1.523 0 0 1-.317.795c.973.283 1.726.426 1.318.021 0 0 1.99 1.19-1.554.223a2.358 2.358 0 0 1-.42.313c3.619 12.906-.441 7.04-.441 7.04 1.933 1.63.353-3.609-.666-6.626-.096.02-.198.025-.297.037.508 4.631-.417 2.2-.417 2.2.416.6.289-.808.097-2.165-.158.008-.324 0-.488-.01-.101.758-.197 1.25-.255 1.244-.06-.004-.068-.506-.035-1.269a4.346 4.346 0 0 1-.483-.076c-.425 1.304-.794 2.667-.28 2.148 0 0-1.334 2.234-.028-2.238-.096-.028-.196-.053-.287-.088-1.528 2.795-3.994 7.68-1.806 6.41 0 0-5.017 5.072.787-7.01a2.333 2.333 0 0 1-.36-.38c-3.657.337-1.49-.489-1.49-.489-.473.326.294.316 1.3.207a1.522 1.522 0 0 1-.173-.838c.025-.287.137-.555.317-.79-.973-.286-1.727-.425-1.318-.022 0 0-1.997-1.192 1.554-.223" fill="#c1392b"/><path d="M180 659.623h70.001v-7.086H180z" fill="#e67f22"/><path d="M239.923 652.537h-5.734l2.867-8.332zm-11.592-8.332l-2.867 8.332h5.734zm20.317 8.332h-5.735l2.867-8.332zm-29.134-8.332l-2.867 8.332h5.734zm-17.75 0l-2.866 8.332h5.734zm-5.857 8.332h-5.734l2.867-8.332zm14.582-8.332l-2.867 8.332h5.735zm-23.4 8.332h-5.733l2.867-8.332z" fill="#f1c40f"/><path d="M180 640.74h70.001v-2H180zm38.266-27.757c.354.319.678.698.979 1.111 37.082-13.976 20.78-.469 20.78-.469 4.302-6.103-10.636-.15-19.29 3.638.086.3.185.59.252.905 13.533-2.697 6.595.661 6.595.661 1.668-1.382-2.451-.645-6.404.271.065.468.082.959.098 1.45 2.185.102 3.605.253 3.605.425s-1.42.323-3.605.425c-.016.491-.033.982-.098 1.45 3.953.916 8.072 1.653 6.404.271 0 0 6.938 3.358-6.595.661-.067.315-.166.605-.252.905 8.654 3.788 23.592 9.741 19.29 3.638 0 0 16.302 13.507-20.78-.469a7.189 7.189 0 0 1-.98 1.111c1.944 10.725-1.056 4.527-1.056 4.527 1.086 1.309.864-.951.276-3.894-.744.471-1.563.732-2.42.732-.86 0-1.678-.261-2.422-.731-.588 2.942-.811 5.202.275 3.893 0 0-2.992 6.178-1.056-4.526a7.237 7.237 0 0 1-1.033-1.156c-37.14 14.003-20.877.513-20.877.513-4.317 6.125 10.736.111 19.375-3.675-.081-.277-.125-.578-.186-.868-13.533 2.697-6.596-.661-6.596-.661-1.668 1.382 2.453.645 6.405-.271a14.42 14.42 0 0 1-.098-1.444c-2.258-.102-3.732-.256-3.732-.431s1.474-.329 3.732-.431c.016-.489.035-.978.098-1.444-3.952-.916-8.073-1.653-6.405-.271 0 0-6.937-3.358 6.596-.661.06-.29.105-.591.186-.868-8.64-3.786-23.692-9.8-19.375-3.675 0 0-16.262-13.49 20.878.513a7.1 7.1 0 0 1 1.034-1.156c-1.938-10.704 1.054-4.526 1.054-4.526-1.086-1.309-.863.951-.275 3.893.744-.47 1.562-.731 2.422-.731.857 0 1.676.261 2.42.732.588-2.943.81-5.203-.276-3.894 0 0 3-6.198 1.057 4.527" fill="#ecf0f1"/><path d="M32.266 6.983c.354.319.678.698.979 1.111 37.082-13.976 20.78-.469 20.78-.469 4.302-6.103-10.636-.15-19.29 3.638.086.3.185.59.252.905 13.533-2.697 6.595.661 6.595.661 1.668-1.382-2.451-.645-6.404.271.065.468.082.959.098 1.45 2.185.102 3.605.253 3.605.425s-1.42.323-3.605.425c-.016.491-.033.982-.098 1.45 3.953.916 8.072 1.653 6.404.271 0 0 6.938 3.358-6.595.661-.067.315-.166.605-.252.905 8.654 3.788 23.592 9.741 19.29 3.638 0 0 16.302 13.507-20.78-.469a7.189 7.189 0 0 1-.98 1.111c1.944 10.725-1.056 4.527-1.056 4.527 1.086 1.309.864-.951.276-3.894-.744.471-1.563.732-2.42.732-.86 0-1.678-.261-2.422-.731-.588 2.942-.811 5.202.275 3.893 0 0-2.992 6.178-1.056-4.526a7.237 7.237 0 0 1-1.033-1.156c-37.14 14.003-20.877.513-20.877.513-4.317 6.125 10.736.111 19.375-3.675-.081-.277-.125-.578-.186-.868-13.533 2.697-6.596-.661-6.596-.661-1.668 1.382 2.453.645 6.405-.271a14.42 14.42 0 0 1-.098-1.444c-2.258-.102-3.732-.256-3.732-.431s1.474-.329 3.732-.431c.016-.489.035-.978.098-1.444-3.952-.916-8.073-1.653-6.405-.271 0 0-6.937-3.358 6.596-.661.06-.29.105-.591.186-.868C14.687 7.514-.365 1.5 3.952 7.625c0 0-16.262-13.49 20.878.513a7.1 7.1 0 0 1 1.034-1.156c-1.938-10.704 1.054-4.526 1.054-4.526-1.086-1.309-.863.951-.275 3.893.744-.47 1.562-.731 2.422-.731.857 0 1.676.261 2.42.732.588-2.943.81-5.203-.276-3.894 0 0 3-6.198 1.057 4.527" fill="#ecf0f1" mask="url(#a)" transform="translate(186 606)"/><path d="M180 598.74h70.001v-4.73H180zm0-22.642h70.001v-4.73H180z" fill="#f1c40f"/><path d="M180 594.01h70.001v-4.732H180zm0-22.643h70.001v-4.732H180z" fill="#e67f22"/><g fill="#f9db9d"><path d="M585 495v-29.578l-11.775-12.483c-2.489-.136-15.096 0-18.178 0-24.683 0-27.449 36.894-27.716 42.061h-.028l-4.145 56.552c-2.232 15.316-5.191 53.019.691 58.901 6.521 6.522 26.087 2.174 28.26-15.217 2.175-17.391 6.522-78.261 6.522-78.261V495zm0 0v-29.578l11.775-12.483c2.489-.136 15.096 0 18.178 0 24.683 0 27.449 36.894 27.716 42.061h.028l4.145 56.552c2.232 15.316 5.191 53.019-.691 58.901-6.521 6.522-26.087 2.174-28.26-15.217-2.175-17.391-6.522-78.261-6.522-78.261V495z"/></g><path d="M524.596 506.674l-2.783 19.807 41.591 5.845 2.783-19.806zm79.217 5.846l2.783 19.807 41.592-5.846-2.784-19.807z" fill="#f1c40f"/><path d="M585 613.332v-25.513h46.999L629 744.999l-36 1" fill="#f9db9d"/><path d="M632.5 567l2.5 63h-50v-63z" fill="#425161"/><path d="M629.833 574.986l2.08 52.96-1.748.067-2.081-52.959zm-13.597 53.028h-7.64l3.82-11.102zm-15.444-11.102l-3.82 11.102h7.64zm27.07 11.102h-7.642l3.821-11.102zm-38.82-11.102l-3.82 11.102h7.64z" fill="#f1c40f"/><path d="M639.392 744.059s21.886 1.953 21.886 11.717v5.858h-68.346v-17.575z" fill="#f9db9d"/><path d="M589.25 733h42v-20h-42z" fill="#f1c40f"/><path d="M585 613.332v-25.513h-46.999L541 744.999l36 1" fill="#f9db9d"/><path d="M537.5 567l-2.5 63h50v-63z" fill="#425161"/><path d="M540.167 574.986l-2.081 52.96 1.749.067 2.081-52.959zm13.597 53.028h7.64l-3.82-11.102zm15.444-11.102l3.82 11.102h-7.64zm-27.07 11.102h7.642l-3.821-11.102zm38.82-11.102l3.82 11.102h-7.64z" fill="#f1c40f"/><path d="M530.608 744.059s-21.886 1.953-21.886 11.717v5.858h68.346v-17.575z" fill="#f9db9d"/><path d="M538.75 733h42v-20h-42z" fill="#f1c40f"/><path d="M570.84 461.88h28.32v-23.797h-28.32z" fill="#f9db9d"/><g fill="#f9db9d"><path d="M585 465.422c7.82 0 14.16-1.586 14.16-3.542s-6.34-3.542-14.16-3.542-14.16 1.586-14.16 3.542 6.34 3.542 14.16 3.542m90.217-86.939c7.204 0 13.043-5.84 13.043-13.043 0-7.204-5.839-13.044-13.043-13.044s-13.043 5.84-13.043 13.044c0 7.203 5.839 13.043 13.043 13.043m-180.434 0c7.204 0 13.043-5.84 13.043-13.043 0-7.204-5.839-13.044-13.043-13.044s-13.043 5.84-13.043 13.044c0 7.203 5.839 13.043 13.043 13.043"/></g><path d="M585 405.678c52.827 0 108.457-29.678 92.108-97.304-8.906-36.84-39.281-76.24-92.108-76.24s-91.07 60.74-93.526 76.24C480.126 380 532.173 405.678 585 405.678" fill="#2d3e50"/><path d="M585 446.418c47.424 0 85.869-41.851 85.869-93.478 0-51.626-38.445-100-85.869-100s-85.869 48.374-85.869 100c0 51.627 38.445 93.478 85.869 93.478" fill="#f9db9d"/><path d="M549.477 362.099c4.346 0 7.869-3.525 7.869-7.873s-3.523-7.873-7.87-7.873-7.868 3.525-7.868 7.873 3.523 7.873 7.869 7.873m71.942 0c4.346 0 7.869-3.525 7.869-7.873s-3.523-7.873-7.87-7.873-7.868 3.525-7.868 7.873 3.523 7.873 7.869 7.873m-59.74 36.482c-.248.737-.4 1.492-.4 2.267 0 7.095 10.821 12.846 24.168 12.846 13.348 0 24.17-5.75 24.17-12.846 0-.775-.153-1.53-.4-2.267-2.018 6.012-11.88 10.58-23.77 10.58-11.889 0-21.75-4.568-23.769-10.58" fill="#2d3e50"/><path d="M552.702 573H585v-87h-32.298zM585 573h32.298v-87H585z" fill="#f9db9d"/><path d="M631.999 570l-47-2.292 24-115.715c1.366-.075 5.579-1.071 13 .885 6.113 1.611 18 18.122 19 19.122" fill="#e84c3d"/><path d="M585 574h48v-12h-48z" fill="#f1c40f"/><path d="M538.001 570l47-2.292-24-115.715c-1.366-.075-5.579-1.071-13 .885-6.113 1.611-18 18.122-19 19.122" fill="#e84c3d"/><path d="M537 574h48v-12h-48z" fill="#f1c40f"/><path d="M564 698h42V567h-42z" fill="#c74d40"/><path d="M564 698h42v-18h-42z" fill="#c74d40"/><g fill="#e84c3d"><path d="M566.725 666.654h16.149v-2.704h-16.149zm0 5.408h16.149v-2.704h-16.149zm0 5.409h16.149v-2.704h-16.149zm0-79.296h16.149v-2.704h-16.149zm0 5.408h16.149v-2.704h-16.149zm0 5.408h16.149v-2.704h-16.149zm0 24.179h16.149v-2.704h-16.149zm0 5.408h16.149v-2.704h-16.149zm0 5.408h16.149v-2.704h-16.149zm0 50.014h3.23v-13.521h-3.23zm6.459 0h3.23v-13.521h-3.23zm6.46 0h3.23v-13.521h-3.23zm-12.919-33.058h3.23v-13.521h-3.23zm6.46 0h3.23v-13.521h-3.23zm6.459 0h3.23v-13.521h-3.23zm-12.919-68.48h3.23v-13.521h-3.23zm6.459 0h3.23v-13.521h-3.23zm6.46 0h3.23v-13.521h-3.23zm-12.919 34.996h3.23v-13.521h-3.23zm6.46 0h3.23v-13.521h-3.23zm6.459 0h3.23v-13.521h-3.23zm7.282 39.196h16.149v-2.704h-16.149zm0 5.408h16.149v-2.704h-16.149zm0 5.409h16.149v-2.704h-16.149zm0-79.296h16.149v-2.704h-16.149zm0 5.408h16.149v-2.704h-16.149zm0 5.408h16.149v-2.704h-16.149zm0 24.179h16.149v-2.704h-16.149zm0 5.408h16.149v-2.704h-16.149zm0 5.408h16.149v-2.704h-16.149zm0 50.014h3.23v-13.521h-3.23zm6.459 0h3.23v-13.521h-3.23zm6.46 0h3.23v-13.521h-3.23zm-12.92-33.058h3.23v-13.521h-3.23zm6.46 0h3.23v-13.521h-3.23zm6.459 0h3.23v-13.521h-3.23zm-12.918-68.48h3.23v-13.521h-3.23zm6.459 0h3.23v-13.521h-3.23zm6.46 0h3.23v-13.521h-3.23zm-12.92 34.996h3.23v-13.521h-3.23zm6.46 0h3.23v-13.521h-3.23zm6.459 0h3.23v-13.521h-3.23z"/></g><g><path d="M585 577.709c16.569 0 30-4.477 30-10s-13.431-10-30-10-30 4.477-30 10 13.431 10 30 10" fill="#f39c11"/><g fill="#f1c40f"><path d="M603.789 467.892a1.342 1.342 0 1 1 0-2.684 1.342 1.342 0 0 1 0 2.684m.586-3.158a1.342 1.342 0 1 1 0-2.685 1.342 1.342 0 0 1 0 2.685m.475-3.16a1.342 1.342 0 1 1 0-2.684 1.342 1.342 0 0 1 0 2.684m.196-6.012a1.342 1.342 0 1 1 0-2.684 1.342 1.342 0 0 1 0 2.684m-.196 3.16a1.342 1.342 0 1 1 0-2.685 1.342 1.342 0 0 1 0 2.685"/><path d="M603.313 470.576a1.342 1.342 0 1 1 0-2.685 1.342 1.342 0 0 1 0 2.685m-.475 2.684a1.342 1.342 0 1 1 0-2.685 1.342 1.342 0 0 1 0 2.685"/><path d="M601.887 475.808a1.342 1.342 0 1 1 0-2.685 1.342 1.342 0 0 1 0 2.685"/><path d="M601.216 478.491a1.342 1.342 0 1 1 0-2.684 1.342 1.342 0 0 1 0 2.684m-.866 2.684a1.342 1.342 0 1 1 0-2.684 1.342 1.342 0 0 1 0 2.684m-1.342 2.684a1.342 1.342 0 1 1 0-2.685 1.342 1.342 0 0 1 0 2.685m-1.538 2.488a1.342 1.342 0 1 1 0-2.684 1.342 1.342 0 0 1 0 2.684m-2.292 2.208a1.342 1.342 0 1 1 0-2.684 1.342 1.342 0 0 1 0 2.684m-2.39 1.818a1.342 1.342 0 1 1 0-2.684 1.342 1.342 0 0 1 0 2.684"/><path d="M590.286 491.239a1.342 1.342 0 1 1 0-2.685 1.342 1.342 0 0 1 0 2.685m-2.944.195a1.342 1.342 0 1 1 0-2.684 1.342 1.342 0 0 1 0 2.684m-20.13-23.42a1.342 1.342 0 1 0-.001-2.685 1.342 1.342 0 0 0 0 2.684m-.586-3.158a1.342 1.342 0 1 0 0-2.684 1.342 1.342 0 0 0 0 2.684m-.475-3.16a1.342 1.342 0 1 0 0-2.684 1.342 1.342 0 0 0 0 2.684m-.196-6.01a1.342 1.342 0 1 0 0-2.685 1.342 1.342 0 0 0 0 2.684m.196 3.159a1.342 1.342 0 1 0 0-2.685 1.342 1.342 0 0 0 0 2.685"/><path d="M567.687 470.697a1.342 1.342 0 1 0 0-2.685 1.342 1.342 0 0 0 0 2.685m.475 2.684a1.342 1.342 0 1 0 0-2.685 1.342 1.342 0 0 0 0 2.685"/><path d="M569.113 475.929a1.342 1.342 0 1 0 0-2.685 1.342 1.342 0 0 0 0 2.685"/><path d="M569.784 478.612a1.342 1.342 0 1 0 0-2.684 1.342 1.342 0 0 0 0 2.684m.866 2.684a1.342 1.342 0 1 0 0-2.684 1.342 1.342 0 0 0 0 2.684m1.342 2.684a1.342 1.342 0 1 0 0-2.684 1.342 1.342 0 0 0 0 2.684m1.538 2.488a1.342 1.342 0 1 0 0-2.684 1.342 1.342 0 0 0 0 2.684m2.292 2.208a1.342 1.342 0 1 0 0-2.684 1.342 1.342 0 0 0 0 2.684m2.39 1.818a1.342 1.342 0 1 0 0-2.684 1.342 1.342 0 0 0 0 2.684"/><path d="M580.714 491.36a1.342 1.342 0 1 0 0-2.685 1.342 1.342 0 0 0 0 2.685m2.944.196a1.342 1.342 0 1 0 0-2.684 1.342 1.342 0 0 0 0 2.684"/></g><path d="M556.084 488.28a4.963 4.963 0 0 0-.838-.616c7.516-26.832-.945-14.586-.945-14.586 4.01-3.385.757 7.441-1.366 13.736-.215-.043-.424-.094-.65-.12 1.06-9.645-.867-4.58-.867-4.58.867-1.255.603 1.677.203 4.501-.332-.018-.676 0-1.021.02-.206-1.526-.4-2.51-.52-2.499-.12.01-.138 1.014-.076 2.551a9.851 9.851 0 0 0-1.01.156c-.883-2.71-1.652-5.552-.581-4.466 0 0-2.778-4.655-.06 4.66-.216.066-.413.152-.618.232-3.184-5.83-8.268-15.927-3.73-13.29 0 0-10.46-10.59 1.602 14.527a5.024 5.024 0 0 0-.72.752c-7.63-.702-3.104 1.02-3.104 1.02-.984-.683.613-.663 2.71-.435a3.17 3.17 0 0 0-.364 1.743c.052.601.285 1.158.66 1.65-2.025.594-3.594.885-2.743.045 0 0-4.144 2.477 3.234.463.257.24.546.46.873.652-7.532 26.871.92 14.654.92 14.654-4.025 3.401-.735-7.51 1.387-13.792.199.037.412.05.619.076-1.06 9.642.868 4.58.868 4.58-.866 1.25-.603-1.68-.203-4.506.33.017.674 0 1.017-.02.21 1.577.408 2.6.53 2.59.124-.01.14-1.054.074-2.642a9.467 9.467 0 0 0 1.006-.157c.884 2.713 1.652 5.553.582 4.471 0 0 2.777 4.652.059-4.66.199-.063.407-.11.597-.184 3.18 5.82 8.315 15.994 3.76 13.344 0 0 10.446 10.565-1.638-14.592.288-.248.535-.513.746-.795 7.616.703 3.105-1.015 3.105-1.015.984.68-.612.664-2.71.431.284-.55.417-1.138.364-1.74a3.156 3.156 0 0 0-.661-1.652c2.026-.59 3.595-.885 2.744-.043 0 0 4.158-2.483-3.235-.465" fill="#c1392b"/><path d="M559.607 531.385a4.498 4.498 0 0 0-.751-.553c6.733-24.033-.846-13.064-.846-13.064 3.593-3.031.678 6.666-1.224 12.305-.192-.038-.38-.084-.581-.11.949-8.637-.777-4.103-.777-4.103.776-1.123.54 1.504.182 4.033-.298-.014-.606.002-.915.017-.184-1.363-.357-2.246-.465-2.238-.108.01-.125.91-.07 2.285a9.218 9.218 0 0 0-.903.14c-.792-2.427-1.48-4.972-.521-4.001 0 0-2.488-4.166-.053 4.174-.194.06-.371.138-.554.21-2.852-5.224-7.406-14.267-3.341-11.906 0 0-9.37-9.484 1.435 13.014a4.477 4.477 0 0 0-.644.674c-6.835-.631-2.782.91-2.782.91-.881-.607.55-.594 2.428-.385a2.82 2.82 0 0 0-.326 1.559c.047.539.255 1.037.59 1.478-1.813.532-3.218.795-2.456.04 0 0-3.712 2.218 2.897.416.23.214.489.412.782.585-6.747 24.069.824 13.125.824 13.125-3.606 3.045-.66-6.73 1.242-12.355.178.035.37.045.555.068-.95 8.637.777 4.1.777 4.1-.776 1.123-.54-1.502-.182-4.033.296.015.604 0 .912-.016.187 1.41.365 2.326.475 2.317.11-.01.125-.944.065-2.366.306-.035.612-.074.9-.14.793 2.429 1.48 4.972.522 4.002 0 0 2.488 4.17.053-4.17.179-.057.365-.1.535-.166 2.849 5.21 7.448 14.326 3.368 11.953 0 0 9.356 9.463-1.468-13.07.259-.221.48-.461.669-.711 6.822.627 2.782-.911 2.782-.911.88.61-.55.592-2.428.385.254-.492.373-1.02.326-1.558s-.256-1.038-.592-1.48c1.814-.53 3.22-.792 2.458-.04 0 0 3.724-2.223-2.898-.414" fill="#c1392b"/><path d="M555.095 511.2a2.413 2.413 0 0 0-.403-.298c3.611-12.885-.454-7.004-.454-7.004 1.927-1.625.364 3.574-.655 6.596-.104-.02-.204-.045-.312-.059.51-4.632-.417-2.197-.417-2.197.416-.603.29.805.098 2.16-.16-.006-.325.004-.49.012-.1-.732-.192-1.205-.25-1.2-.058.005-.067.485-.037 1.225a5.28 5.28 0 0 0-.485.075c-.425-1.303-.794-2.666-.28-2.145 0 0-1.334-2.238-.028 2.236-.104.032-.199.075-.297.112-1.529-2.799-3.97-7.649-1.792-6.383 0 0-5.023-5.084.77 6.976a2.401 2.401 0 0 0-.345.364c-3.665-.338-1.492.488-1.492.488-.472-.324.295-.318 1.302-.207-.137.264-.2.547-.175.834.025.291.137.557.317.795-.973.283-1.726.426-1.318.021 0 0-1.99 1.19 1.554.223.123.115.262.221.42.313-3.619 12.906.441 7.04.441 7.04-1.933 1.63-.353-3.609.666-6.626.096.02.198.025.297.037-.508 4.631.417 2.2.417 2.2-.416.6-.289-.808-.097-2.165.158.008.324 0 .488-.01.101.758.197 1.25.255 1.244.06-.004.068-.506.035-1.269.165-.018.328-.04.483-.076.425 1.304.794 2.667.28 2.148 0 0 1.334 2.234.028-2.238.096-.028.196-.053.287-.088 1.528 2.795 3.994 7.68 1.806 6.41 0 0 5.017 5.072-.787-7.01.14-.117.257-.246.36-.38 3.657.337 1.49-.489 1.49-.489.473.326-.294.316-1.3.207.135-.266.2-.547.173-.838a1.517 1.517 0 0 0-.317-.79c.973-.286 1.727-.425 1.318-.022 0 0 1.997-1.192-1.554-.223m58.821-22.92c.245-.227.53-.432.838-.615-7.516-26.832.945-14.586.945-14.586-4.01-3.385-.757 7.441 1.366 13.736.215-.043.424-.094.65-.12-1.06-9.645.867-4.58.867-4.58-.867-1.255-.603 1.677-.203 4.501.332-.018.676 0 1.021.02.206-1.526.4-2.51.52-2.499.12.01.138 1.014.076 2.551.343.04.685.084 1.01.156.883-2.71 1.652-5.552.581-4.466 0 0 2.778-4.655.06 4.66.216.066.413.152.618.232 3.184-5.83 8.268-15.927 3.73-13.29 0 0 10.46-10.59-1.602 14.527.271.234.517.486.72.752 7.63-.702 3.104 1.02 3.104 1.02.984-.683-.613-.663-2.71-.435a3.17 3.17 0 0 1 .364 1.743 3.156 3.156 0 0 1-.66 1.65c2.025.594 3.594.885 2.743.045 0 0 4.144 2.477-3.234.463-.257.24-.546.46-.873.652 7.532 26.871-.92 14.654-.92 14.654 4.025 3.401.735-7.51-1.387-13.792-.199.037-.412.05-.619.076 1.06 9.642-.868 4.58-.868 4.58.866 1.25.603-1.68.203-4.506a9.39 9.39 0 0 1-1.017-.02c-.21 1.577-.408 2.6-.53 2.59-.124-.01-.14-1.054-.074-2.642a9.467 9.467 0 0 1-1.006-.157c-.884 2.713-1.652 5.553-.582 4.471 0 0-2.777 4.652-.059-4.66-.199-.063-.407-.11-.597-.184-3.18 5.82-8.315 15.994-3.76 13.344 0 0-10.446 10.565 1.638-14.592a5.002 5.002 0 0 1-.746-.795c-7.616.703-3.105-1.015-3.105-1.015-.984.68.612.664 2.71.431a3.157 3.157 0 0 1-.364-1.74c.052-.6.285-1.16.661-1.652-2.026-.59-3.595-.885-2.744-.043 0 0-4.158-2.483 3.235-.465" fill="#c1392b"/><path d="M610.393 531.385c.22-.205.475-.387.751-.553-6.733-24.033.846-13.064.846-13.064-3.593-3.031-.678 6.666 1.224 12.305.192-.038.38-.084.581-.11-.949-8.637.777-4.103.777-4.103-.776-1.123-.54 1.504-.182 4.033.298-.014.606.002.915.017.184-1.363.357-2.246.465-2.238.108.01.125.91.07 2.285.306.037.613.076.903.14.792-2.427 1.48-4.972.521-4.001 0 0 2.488-4.166.053 4.174.194.06.371.138.554.21 2.852-5.224 7.406-14.267 3.341-11.906 0 0 9.37-9.484-1.435 13.014.243.21.463.434.644.674 6.835-.631 2.782.91 2.782.91.881-.607-.55-.594-2.428-.385a2.82 2.82 0 0 1 .326 1.559 2.829 2.829 0 0 1-.59 1.478c1.813.532 3.218.795 2.456.04 0 0 3.712 2.218-2.897.416-.23.214-.489.412-.782.585 6.747 24.069-.824 13.125-.824 13.125 3.606 3.045.66-6.73-1.242-12.355-.178.035-.37.045-.555.068.95 8.637-.777 4.1-.777 4.1.776 1.123.54-1.502.182-4.033-.296.015-.604 0-.912-.016-.187 1.41-.365 2.326-.475 2.317-.11-.01-.125-.944-.065-2.366a8.342 8.342 0 0 1-.9-.14c-.793 2.429-1.48 4.972-.522 4.002 0 0-2.488 4.17-.053-4.17-.179-.057-.365-.1-.535-.166-2.849 5.21-7.448 14.326-3.368 11.953 0 0-9.356 9.463 1.468-13.07a4.495 4.495 0 0 1-.669-.711c-6.822.627-2.782-.911-2.782-.911-.88.61.55.592 2.428.385-.254-.492-.373-1.02-.326-1.558s.256-1.038.592-1.48c-1.814-.53-3.22-.792-2.458-.04 0 0-3.724-2.223 2.898-.414" fill="#c1392b"/><path d="M614.905 511.2c.118-.11.255-.21.403-.298-3.611-12.885.454-7.004.454-7.004-1.927-1.625-.364 3.574.655 6.596.104-.02.204-.045.312-.059-.51-4.632.417-2.197.417-2.197-.416-.603-.29.805-.098 2.16.16-.006.325.004.49.012.1-.732.192-1.205.25-1.2.058.005.067.485.037 1.225.165.02.329.041.485.075.425-1.303.794-2.666.28-2.145 0 0 1.334-2.238.028 2.236.104.032.199.075.297.112 1.529-2.799 3.97-7.649 1.792-6.383 0 0 5.023-5.084-.77 6.976.13.114.248.235.345.364 3.665-.338 1.492.488 1.492.488.472-.324-.295-.318-1.302-.207.137.264.2.547.175.834a1.523 1.523 0 0 1-.317.795c.973.283 1.726.426 1.318.021 0 0 1.99 1.19-1.554.223a2.358 2.358 0 0 1-.42.313c3.619 12.906-.441 7.04-.441 7.04 1.933 1.63.353-3.609-.666-6.626-.096.02-.198.025-.297.037.508 4.631-.417 2.2-.417 2.2.416.6.289-.808.097-2.165-.158.008-.324 0-.488-.01-.101.758-.197 1.25-.255 1.244-.06-.004-.068-.506-.035-1.269a4.346 4.346 0 0 1-.483-.076c-.425 1.304-.794 2.667-.28 2.148 0 0-1.334 2.234-.028-2.238-.096-.028-.196-.053-.287-.088-1.528 2.795-3.994 7.68-1.806 6.41 0 0-5.017 5.072.787-7.01a2.333 2.333 0 0 1-.36-.38c-3.657.337-1.49-.489-1.49-.489-.473.326.294.316 1.3.207a1.522 1.522 0 0 1-.173-.838c.025-.287.137-.555.317-.79-.973-.286-1.727-.425-1.318-.022 0 0-1.997-1.192 1.554-.223" fill="#c1392b"/><path d="M542.81 213.475c5.772-1.547 4.373-25.482-3.125-53.467-7.498-27.984-18.255-49.416-24.027-47.87s-4.373 25.485 3.125 53.47c7.498 27.984 18.255 49.414 24.027 47.867" fill="#ea5e50"/></g><path d="M515.012 109.728l34.15 133.885 1.609-.432zm35.759 133.454l1.608-.43-37.367-133.024z" fill="#c74d40"/><path d="M585 307l-92.5-10 6.5-78 86 4z" fill="#f1c40f"/><path d="M585 290.285L494 281l4-48.867L585 237z" fill="#ea5e50"/><path d="M548.018 244.677c.516.635.986 1.388 1.428 2.209 54.146-27.787 30.343-.932 30.343-.932 6.282-12.135-15.533-.3-28.17 7.233.128.596.272 1.172.37 1.799 19.76-5.363 9.63 1.315 9.63 1.315 2.438-2.75-3.58-1.284-9.351.538.094.93.12 1.906.143 2.883 3.19.202 5.265.504 5.265.845 0 .342-2.074.643-5.265.845-.022.977-.05 1.952-.143 2.884 5.77 1.82 11.789 3.287 9.352.538 0 0 10.13 6.677-9.631 1.315-.098.626-.242 1.203-.37 1.798 12.637 7.533 34.452 19.369 28.17 7.233 0 0 23.803 26.856-30.343-.932-.442.822-.912 1.575-1.428 2.21 2.836 21.324-1.545 9-1.545 9 1.586 2.603 1.262-1.891.402-7.741-1.086.935-2.281 1.455-3.535 1.455s-2.447-.52-3.535-1.454c-.857 5.85-1.182 10.344.402 7.74 0 0-4.371 12.284-1.541-8.998a13.816 13.816 0 0 1-1.51-2.3c-54.23 27.843-30.486 1.02-30.486 1.02-6.3 12.179 15.678.222 28.29-7.305-.114-.552-.178-1.15-.268-1.726-19.762 5.362-9.631-1.315-9.631-1.315-2.438 2.749 3.58 1.283 9.352-.538-.094-.928-.122-1.9-.143-2.872-3.297-.202-5.45-.51-5.45-.857s2.153-.654 5.45-.856c.02-.973.049-1.945.143-2.872-5.772-1.822-11.79-3.287-9.352-.538 0 0-10.131-6.678 9.63-1.315.09-.577.155-1.175.27-1.726-12.613-7.527-34.591-19.484-28.291-7.306 0 0-23.744-26.823 30.487 1.02.46-.874.966-1.634 1.509-2.3-2.83-21.282 1.54-8.997 1.54-8.997-1.583-2.604-1.258 1.889-.401 7.74 1.088-.935 2.28-1.454 3.535-1.454s2.449.519 3.535 1.455c.86-5.851 1.184-10.345-.402-7.741 0 0 4.38-12.325 1.545 9" fill="#f1c40f"/><path d="M585 307l92.5-10-6.5-78-86 4z" fill="#f1c40f"/><path d="M585 290.285L676 281l-4-48.867L585 237z" fill="#ea5e50"/><path d="M621.982 244.677c-.516.635-.986 1.388-1.428 2.209-54.146-27.787-30.343-.932-30.343-.932-6.282-12.135 15.533-.3 28.17 7.233-.128.596-.272 1.172-.37 1.799-19.76-5.363-9.63 1.315-9.63 1.315-2.438-2.75 3.58-1.284 9.351.538-.094.93-.12 1.906-.143 2.883-3.19.202-5.265.504-5.265.845 0 .342 2.074.643 5.265.845.022.977.05 1.952.143 2.884-5.77 1.82-11.789 3.287-9.352.538 0 0-10.13 6.677 9.631 1.315.098.626.242 1.203.37 1.798-12.637 7.533-34.452 19.369-28.17 7.233 0 0-23.803 26.856 30.343-.932.442.822.912 1.575 1.428 2.21-2.836 21.324 1.545 9 1.545 9-1.586 2.603-1.262-1.891-.402-7.741 1.086.935 2.281 1.455 3.535 1.455s2.447-.52 3.535-1.454c.857 5.85 1.182 10.344-.402 7.74 0 0 4.371 12.284 1.541-8.998a13.816 13.816 0 0 0 1.51-2.3c54.23 27.843 30.486 1.02 30.486 1.02 6.3 12.179-15.678.222-28.29-7.305.114-.552.178-1.15.268-1.726 19.762 5.362 9.631-1.315 9.631-1.315 2.438 2.749-3.58 1.283-9.352-.538.094-.928.122-1.9.143-2.872 3.297-.202 5.45-.51 5.45-.857s-2.153-.654-5.45-.856c-.02-.973-.049-1.945-.143-2.872 5.772-1.822 11.79-3.287 9.352-.538 0 0 10.131-6.678-9.63-1.315-.09-.577-.155-1.175-.27-1.726 12.613-7.527 34.591-19.484 28.291-7.306 0 0 23.744-26.823-30.487 1.02a13.826 13.826 0 0 0-1.509-2.3c2.83-21.282-1.54-8.997-1.54-8.997 1.583-2.604 1.258 1.889.401 7.74-1.088-.935-2.28-1.454-3.535-1.454s-2.449.519-3.535 1.455c-.86-5.851-1.184-10.345.402-7.741 0 0-4.38-12.325-1.545 9" fill="#f1c40f"/></g></svg>