<svg height="800" width="800" xmlns="http://www.w3.org/2000/svg"><g fill="none" fill-rule="evenodd"><path d="M570.84 461.88h28.32v-23.797h-28.32z" fill="#f9db9d"/><path d="M585 465.422c7.82 0 14.16-1.586 14.16-3.542s-6.34-3.542-14.16-3.542-14.16 1.586-14.16 3.542 6.34 3.542 14.16 3.542m90.217-86.939c7.204 0 13.043-5.84 13.043-13.043 0-7.204-5.839-13.044-13.043-13.044s-13.043 5.84-13.043 13.044c0 7.203 5.839 13.043 13.043 13.043m-180.434 0c7.204 0 13.043-5.84 13.043-13.043 0-7.204-5.839-13.044-13.043-13.044s-13.043 5.84-13.043 13.044c0 7.203 5.839 13.043 13.043 13.043" fill="#f9db9d"/><path d="M585 405.678c52.827 0 95.652-.565 95.652-97.304 0-52.226-42.825-76.24-95.652-76.24s-95.652 24.014-95.652 76.24c0 94.565 42.825 97.304 95.652 97.304" fill="#2d3e50"/><path d="M585 446.418c47.424 0 85.869-41.851 85.869-93.478 0-51.626-38.445-100-85.869-100s-85.869 48.374-85.869 100c0 51.627 38.445 93.478 85.869 93.478" fill="#f9db9d"/><g fill="#2d3e50"><path d="M549.477 362.099c4.346 0 7.869-3.525 7.869-7.873s-3.523-7.873-7.87-7.873-7.868 3.525-7.868 7.873 3.523 7.873 7.869 7.873m71.942 0c4.346 0 7.869-3.525 7.869-7.873s-3.523-7.873-7.87-7.873-7.868 3.525-7.868 7.873 3.523 7.873 7.869 7.873m-59.74 36.482c-.248.737-.4 1.492-.4 2.267 0 7.095 10.821 12.846 24.168 12.846 13.348 0 24.17-5.75 24.17-12.846 0-.775-.153-1.53-.4-2.267-2.018 6.012-11.88 10.58-23.77 10.58-11.889 0-21.75-4.568-23.769-10.58M529.684 744.06s-21.886 1.953-21.886 11.717v5.858h68.346v-17.575z"/></g><path d="M577.187 757.849l3.449-131.965s-3.45-12.444 3.065-12.444v-25.621h-45.6v156.055z" fill="#f39c11"/><path d="M637.718 744.059s21.886 1.953 21.886 11.717v5.858h-68.346v-17.575z" fill="#2d3e50"/><path d="M590.215 757.849l-3.449-131.965s3.45-12.444-3.065-12.444v-25.621h45.6v156.055z" fill="#f39c11"/><path d="M638.449 480.019s4.348 56.522 6.522 67.391c2.174 10.87 6.52 56.522 0 63.043-6.522 6.522-26.087 2.174-28.261-15.217s-6.522-78.261-6.522-78.261v-36.956z" fill="#f9db9d"/><path d="M641.398 495.384l9.869 92.435-24.75 5.065-6.75-97.5z" fill="#f1c40f"/><path d="M628.017 482.634l10.285 108-9 2.25z" fill="#f39c11"/><path d="M528.953 480.019s-4.348 56.522-6.522 67.391c-2.174 10.87-6.52 56.522 0 63.043 6.522 6.522 26.087 2.174 28.261-15.217s6.522-78.261 6.522-78.261v-36.956z" fill="#f9db9d"/><path d="M526.004 495.384l-9.869 92.435 24.75 5.065 6.75-97.5z" fill="#f1c40f"/><path d="M539.385 482.634l-10.285 108 9 2.25z" fill="#f39c11"/><path d="M628.854 495.617h12.543s-1.203-42.678-27.743-42.678-29.953 12.483-29.953 12.483-3.414-12.483-29.954-12.483-27.743 42.678-27.743 42.678h12.543L534.033 632h98.324z" fill="#f1c40f"/><path d="M570.099 445.134l-9.546 9.546 9.884 9.884 9.546-9.546z" fill="#f39c11"/><path d="M569.64 446.768l-7.453 7.452 8.71 8.709 7.451-7.452z" fill="#f1c40f"/><path d="M579.555 602h8.293V468h-8.293z" fill="#f39c11"/><path d="M580.201 601h7V469h-7z" fill="#f1c40f"/><path d="M681.135 322v-89.866l-95.817-95.817-95.817 95.817h-1.866V322z" fill="#e84c3d"/><path d="M583.701 580.732h47.026V560h-47.026zm13.602-135.598l9.546 9.546-9.884 9.884-9.546-9.546z" fill="#f39c11"/><path d="M597.763 446.768l7.452 7.452-8.71 8.709-7.451-7.452z" fill="#f1c40f"/><path d="M536.675 560L536 580.732h61.134V560z" fill="#f39c11"/><path d="M539.494 624.388l18.81-35.264" stroke="#f39c11" stroke-dasharray="0 2.96" stroke-linecap="round" stroke-linejoin="round"/><path d="M560.647 590.43l22.23 35.265" stroke="#f39c11" stroke-dasharray="0 3.088" stroke-linecap="round" stroke-linejoin="round"/><path d="M585.356 624.55l24.004-35.507" stroke="#f39c11" stroke-dasharray="0 2.956" stroke-linecap="round" stroke-linejoin="round"/><path d="M611.462 590.43l17.202 35.265" stroke="#f39c11" stroke-dasharray="0 2.906" stroke-linecap="round" stroke-linejoin="round"/><path d="M214 229.044h2v-24.245h-2z" fill="#f39c11"/><path d="M215 182.044l12.798 12.798L215 207.64l-12.798-12.798z" fill="#f1c40f"/><path d="M319.702 299.748l-23.419 6.275-.517-1.932 23.418-6.275z" fill="#f39c11"/><path d="M341.423 292.893l-9.05 15.674-15.674-9.05 9.05-15.674z" fill="#f1c40f"/><path d="M310.2 271.72l-20.998 12.123-1-1.732 20.997-12.122z" fill="#f39c11"/><path d="M329.406 259.477l-4.684 17.483-17.483-4.685 4.684-17.483z" fill="#f1c40f"/><path d="M296.605 246.26l-15.584 18.573-1.532-1.286 15.584-18.573z" fill="#f39c11"/><path d="M310.466 228.186l1.577 18.03-18.03 1.578-1.577-18.03z" fill="#f1c40f"/><path d="M246.655 213.581l-6.275 23.42-1.932-.519 6.275-23.419z" fill="#f39c11"/><path d="M251.579 191.343l9.05 15.674-15.675 9.05-9.05-15.674z" fill="#f1c40f"/><path d="M274.483 225.513L262.36 246.51l-1.732-1 12.122-20.997z" fill="#f39c11"/><path d="M284.994 205.306l4.684 17.483-17.482 4.684-4.685-17.482z" fill="#f1c40f"/><path d="M110.298 299.748l23.419 6.275.517-1.932-23.418-6.275z" fill="#f39c11"/><path d="M88.577 292.893l9.05 15.674 15.674-9.05-9.05-15.674z" fill="#f1c40f"/><path d="M119.8 271.72l20.998 12.123 1-1.732-20.997-12.122z" fill="#f39c11"/><path d="M100.594 259.477l4.684 17.483 17.483-4.685-4.684-17.483z" fill="#f1c40f"/><path d="M133.395 246.26l15.584 18.573 1.532-1.286-15.584-18.573z" fill="#f39c11"/><path d="M119.534 228.186l-1.577 18.03 18.03 1.578 1.577-18.03z" fill="#f1c40f"/><path d="M183.345 213.581l6.275 23.42 1.932-.519-6.275-23.419z" fill="#f39c11"/><path d="M178.421 191.343l-9.05 15.674 15.675 9.05 9.05-15.674z" fill="#f1c40f"/><path d="M155.517 225.513l12.122 20.997 1.732-1-12.122-20.997z" fill="#f39c11"/><path d="M145.006 205.306l-4.684 17.483 17.482 4.684 4.685-17.482z" fill="#f1c40f"/><path d="M215.007 450.827c46.944 0 85-38.44 85-85.86s-38.056-75.14-85-75.14c-46.945 0-85 27.722-85 75.14s38.056 85.86 85 85.86" fill="#2d3e50"/><path d="M215 409.258c53.572 0 97-43.039 97-96.129S268.571 229 215 229c-53.572 0-97 31.038-97 84.13 0 53.09 43.428 96.128 97 96.128" fill="#f1c40f"/><path d="M215 400c53.572 0 97-16.288 97-72.08S268.571 237 215 237c-53.572 0-97 35.128-97 90.92S161.428 400 215 400" fill="#2d3e50"/><g fill="#f9db9d"><path d="M138.266 387.185c6.69 0 12.116-5.427 12.116-12.122s-5.425-12.123-12.116-12.123-12.116 5.428-12.116 12.123 5.425 12.122 12.116 12.122m153.468 0c6.691 0 12.116-5.427 12.116-12.122s-5.425-12.123-12.116-12.123-12.116 5.428-12.116 12.123 5.425 12.122 12.116 12.122"/></g><path d="M204.23 473.867h21.539v-28.764H204.23z" fill="#f9db9d"/><path d="M215 451.838c44.61 0 80.773-43.846 80.773-104.922S259.61 255 215 255s-80.773 30.84-80.773 91.916S170.39 451.838 215 451.838" fill="#f9db9d"/><g fill="#2d3e50"><path d="M177.556 371.281a8.193 8.193 0 0 0 8.19-8.195c0-4.527-3.666-8.196-8.19-8.196s-8.191 3.67-8.191 8.196a8.193 8.193 0 0 0 8.19 8.195m74.89 0a8.193 8.193 0 0 0 8.191-8.195c0-4.527-3.667-8.196-8.19-8.196s-8.192 3.67-8.192 8.196a8.193 8.193 0 0 0 8.191 8.195m-62.188 37.977c-.257.767-.415 1.553-.415 2.36 0 7.385 11.264 13.372 25.158 13.372 13.895 0 25.158-5.987 25.158-13.372 0-.807-.157-1.593-.415-2.36-2.1 6.258-12.366 11.013-24.743 11.013s-22.643-4.755-24.743-11.013"/><path d="M214.993 250c-69.468 2.459-88.202 52.625-81.594 113.451 0 0 .531-41.623 43.907-65.582 0 0 9.68-6.231 37.687-7.05s37.687 7.05 37.687 7.05c43.376 23.959 43.907 65.582 43.907 65.582 6.608-60.826-12.126-110.992-81.594-113.451"/><path d="M215 308.567c32.063 0 58.055-6.43 58.055-14.363 0-7.932-25.992-14.363-58.055-14.363s-58.055 6.431-58.055 14.363c0 7.933 25.992 14.363 58.055 14.363"/></g><path d="M294.242 440.815c1.98 0 3.586-12.495 3.586-27.908 0-15.412-1.606-27.907-3.586-27.907s-3.586 12.495-3.586 27.907c0 15.413 1.606 27.908 3.586 27.908m-160.015 0c1.98 0 3.586-12.495 3.586-27.908 0-15.412-1.606-27.907-3.586-27.907s-3.586 12.495-3.586 27.907c0 15.413 1.606 27.908 3.586 27.908" fill="#f1c40f"/><path d="M196.867 478.806h17.993v-24.654h-17.993z" fill="#f9db9d"/><path d="M172.537 487.795s0 29.633-2.692 40.408c-2.693 10.776-10.77 78.122-5.385 83.51s10.77 0 13.462 0 13.462-123.918 13.462-123.918zm14.215 241.83l1.018 17.534-.018.003-3 3c-1 1 0 2 6 1 5.055-.843 10.094-2.477 11.562-2.973l.438-.027s.039-6.708.235-18.537z" fill="#f9db9d"/><path d="M186.83 749.1s-24.986 11.062-11.118 11.062h24.927c3.307 0 2.153-12.123 2.153-12.123z" fill="#2d3e50"/><path d="M215 740.6V579.239L176.197 578l-.856 162.6z" fill="#f4a629"/><path d="M195.795 727.862H215V578h-19.205z" fill="#f39c11"/><path d="M206.79 713.486l-8.07 8.07 8.07 8.069 8.07-8.07zm0-32.28l-8.07 8.07 8.07 8.07 8.07-8.07zm0-32.279l-8.07 8.07 8.07 8.069 8.07-8.069zm.14-32.28l-8.07 8.07 8.07 8.07 8.07-8.07zm-.14 80.699l-8.07 8.07 8.07 8.069 8.07-8.07zm0-32.28l-8.07 8.07 8.07 8.07 8.07-8.07zm0-32.279l-8.07 8.07 8.07 8.07 8.07-8.07zm0-32.279l-8.07 8.07 8.07 8.07 8.07-8.07z" fill="#f4a629"/><path d="M178.86 696.115h14.511v-2.434H178.86zm0 4.868h14.511v-2.434H178.86zm0 4.868h14.511v-2.434H178.86zm0 4.868h14.511v-2.434H178.86zm0 4.302h14.511v-2.434H178.86zm0 4.869h14.511v-2.434H178.86zm0 4.867h14.511v-2.434H178.86zm0 4.868h14.511v-2.434H178.86zm.43-71.5h14.511v-2.434H179.29zm0 4.868h14.511v-2.434H179.29zm0 4.868h14.511v-2.434H179.29zm0 4.868h14.511v-2.434H179.29zm0 4.302h14.511v-2.434H179.29zm0 4.868h14.511v-2.434H179.29zm0 4.868h14.511v-2.434H179.29zm0 4.868h14.511v-2.434H179.29zm-.102-71.093h14.511v-2.434h-14.511zm0 4.869h14.511v-2.434h-14.511zm0 4.867h14.511v-2.434h-14.511zm0 4.868h14.511v-2.434h-14.511zm0 4.303h14.511v-2.434h-14.511zm0 4.868h14.511v-2.434h-14.511zm0 4.868h14.511v-2.434h-14.511zm0 4.868h14.511v-2.434h-14.511z" fill="#f39c11"/><path d="M206.93 583.93l-8.07 8.07 8.07 8.07L215 592z" fill="#f4a629"/><path d="M179.29 587.434h14.511V585H179.29zm0 4.868h14.511v-2.434H179.29zm0 4.868h14.511v-2.434H179.29zm0 4.868h14.511v-2.434H179.29zm0 4.303h14.511v-2.434H179.29zm0 4.867h14.511v-2.434H179.29zm0 4.869h14.511v-2.434H179.29zm0 4.868h14.511v-2.434H179.29z" fill="#f39c11"/><path d="M173 481s-10.14 91-12.14 101l20 4 13.392-79.838v-21z" fill="#f1c40f"/><path d="M181.752 483.162S183.819 504 183.819 509s-11.882 62-8.959 76l12.892-12.838 4.688-89h-9.688" fill="#f39c11"/><path d="M207.914 627.5L215 597.333 215 476v-12c-10 0-12.501-9.847-12.501-9.847-5.371 0-21.131.483-22 .847-3.562 1.174-7.822 5.35-7.822 13.937v18.857h10.215C185.704 500.427 188.7 509.918 186 520c-.395 1.474-2.581 20.826-2.581 20.826-2.074 12.091-7.97 59.232-10.57 86.674z" fill="#f1c40f"/><path d="M179 561h36v-10.049h-36z" fill="#f39c11"/><path d="M257.464 487.795s0 29.633 2.692 40.408c2.693 10.776 10.77 78.122 5.385 83.51s-10.77 0-13.462 0-13.462-123.918-13.462-123.918zm-14.215 241.83l-1.018 17.534.018.003 3 3c1 1 0 2-6 1-5.055-.843-10.094-2.477-11.562-2.973l-.438-.027s-.04-6.708-.235-18.537z" fill="#f9db9d"/><path d="M243.17 749.1s24.987 11.062 11.119 11.062h-24.927c-3.307 0-2.153-12.123-2.153-12.123z" fill="#2d3e50"/><path d="M215 740.6V579.239L253.803 578l.856 162.6z" fill="#f4a629"/><path d="M215.001 727.862h19.205V578h-19.205z" fill="#f39c11"/><path d="M223.21 713.486l8.07 8.07-8.07 8.069-8.07-8.07zm0-32.28l8.07 8.07-8.07 8.07-8.07-8.07zm0-32.279l8.07 8.07-8.07 8.069-8.07-8.069zm-.14-32.28l8.07 8.07-8.07 8.07-8.07-8.07zm.14 80.699l8.07 8.07-8.07 8.069-8.07-8.07zm0-32.28l8.07 8.07-8.07 8.07-8.07-8.07zm0-32.279l8.07 8.07-8.07 8.07-8.07-8.07zm0-32.279l8.07 8.07-8.07 8.07-8.07-8.07z" fill="#f4a629"/><path d="M236.629 696.115h14.511v-2.434h-14.511zm0 4.868h14.511v-2.434h-14.511zm0 4.868h14.511v-2.434h-14.511zm0 4.868h14.511v-2.434h-14.511zm0 4.302h14.511v-2.434h-14.511zm0 4.869h14.511v-2.434h-14.511zm0 4.867h14.511v-2.434h-14.511zm0 4.868h14.511v-2.434h-14.511zm-.429-71.5h14.511v-2.434H236.2zm0 4.868h14.511v-2.434H236.2zm0 4.868h14.511v-2.434H236.2zm0 4.868h14.511v-2.434H236.2zm0 4.302h14.511v-2.434H236.2zm0 4.868h14.511v-2.434H236.2zm0 4.868h14.511v-2.434H236.2zm0 4.868h14.511v-2.434H236.2zm.102-71.093h14.511v-2.434h-14.511zm0 4.869h14.511v-2.434h-14.511zm0 4.867h14.511v-2.434h-14.511zm0 4.868h14.511v-2.434h-14.511zm0 4.303h14.511v-2.434h-14.511zm0 4.868h14.511v-2.434h-14.511zm0 4.868h14.511v-2.434h-14.511zm0 4.868h14.511v-2.434h-14.511z" fill="#f39c11"/><path d="M223.07 583.93l8.07 8.07-8.07 8.07L215 592z" fill="#f4a629"/><path d="M236.2 587.434h14.511V585H236.2zm0 4.868h14.511v-2.434H236.2zm0 4.868h14.511v-2.434H236.2zm0 4.868h14.511v-2.434H236.2zm0 4.303h14.511v-2.434H236.2zm0 4.867h14.511v-2.434H236.2zm0 4.869h14.511v-2.434H236.2zm0 4.868h14.511v-2.434H236.2z" fill="#f39c11"/><g><path d="M257 481s10.14 91 12.14 101l-20 4-13.391-79.838v-21z" fill="#f1c40f"/><path d="M248.249 483.162S246.182 504 246.182 509s11.882 62 8.959 76l-12.892-12.838-4.688-89h9.688" fill="#f39c11"/><path d="M222.087 627.5L215 597.333V464c10 0 12.502-9.847 12.502-9.847 5.37 0 21.13.483 22 .847 3.562 1.174 7.822 5.35 7.822 13.937v18.857h-10.215C244.297 500.427 241.3 509.918 244 520c.395 1.474 2.58 20.826 2.58 20.826 2.075 12.091 7.97 59.232 10.57 86.674z" fill="#f1c40f"/></g><path d="M215.001 561h36v-10.049h-36z" fill="#f39c11"/><g><path d="M307.41 358.42a78.56 78.56 0 0 0 .097-3.543c0-46.942-41.413-99.877-92.5-99.877-51.086 0-92.5 52.935-92.5 99.877 0 1.188.045 2.367.098 3.543 2.024-45.296 42.609-47.007 92.402-47.007 49.794 0 90.379 1.711 92.403 47.007" fill="#c1392b"/><path d="M307.41 358.42a78.56 78.56 0 0 0 .097-3.543c0-46.942-41.413-84.996-92.5-84.996-51.086 0-92.5 38.054-92.5 84.996 0 1.188.045 2.367.098 3.543 2.024-45.296 42.609-64.216 92.402-64.216 49.794 0 90.379 18.92 92.403 64.216" fill="#f1c40f"/></g><g fill="#f1c40f"><path d="M312.18 314.151l-8.322 8.322 8.322 8.323 8.322-8.323zm0 48.789l-8.322 8.322 8.322 8.323 8.322-8.323z"/><path d="M312.18 330.796l-8.322 8.322 8.322 8.323 8.322-8.323zm0 48.789l-8.322 8.322 8.322 8.323 8.322-8.323zm0 33.29l-8.322 8.322 8.322 8.323 8.322-8.323z"/><path d="M312.18 347.44l-8.322 8.323 8.322 8.323 8.322-8.323zm0 48.79l-8.322 8.322 8.322 8.323 8.322-8.323zm0 33.29l-8.322 8.322 8.322 8.323 8.322-8.324zM117.834 314.15l-8.322 8.322 8.322 8.323 8.322-8.323zm0 48.789l-8.321 8.322 8.321 8.323 8.323-8.323z"/><path d="M117.835 330.796l-8.322 8.322 8.321 8.323 8.323-8.323zm0 48.789l-8.322 8.322 8.321 8.323 8.323-8.323zm0 33.29l-8.322 8.322 8.321 8.323 8.323-8.323z"/><path d="M117.835 347.44l-8.322 8.323 8.321 8.323 8.323-8.323zm0 48.79l-8.322 8.322 8.321 8.323 8.323-8.323zm0 33.29l-8.322 8.322 8.321 8.323 8.323-8.324z"/></g><g fill="#f39c11"><path d="M241.514 476.53a2 2 0 1 1 0-4 2 2 0 0 1 0 4m.874-4.708a2 2 0 1 1 0-4 2 2 0 0 1 0 4m.708-4.709a2 2 0 1 1 0-4 2 2 0 0 1 0 4m.292-8.96a2 2 0 1 1 0-4 2 2 0 0 1 0 4m-.292 4.708a2 2 0 1 1 0-4 2 2 0 0 1 0 4m-2.29 17.67a2 2 0 1 1 0-4 2 2 0 0 1 0 4m-.71 4a2 2 0 1 1 0-4 2 2 0 0 1 0 4"/><path d="M238.68 488.328a2 2 0 1 1 0-4 2 2 0 0 1 0 4m-1 4a2 2 0 1 1 0-4 2 2 0 0 1 0 4m-1.292 4a2 2 0 1 1 0-4 2 2 0 0 1 0 4m-2 4a2 2 0 1 1 0-4 2 2 0 0 1 0 4m-2.292 3.71a2 2 0 1 1 0-4.001 2 2 0 0 1 0 4m-3.417 3.291a2 2 0 1 1 0-4 2 2 0 0 1 0 4m-3.563 2.71a2 2 0 1 1 0-4.001 2 2 0 0 1 0 4"/><path d="M221.388 511.328a2 2 0 1 1 0-4 2 2 0 0 1 0 4m-4.388.291a2 2 0 1 1 0-4 2 2 0 0 1 0 4"/></g><path d="M227.172 487.795l1.809-33.642h1.538l-1.809 33.642z" fill="#f39c11"/><g fill="#f39c11"><path d="M234.234 469.468c0 5.745-8.611 10.401-19.234 10.401v-8.224c.499.109 2.63 1.89 3.169 1.89 2.73 0 2.796-3.401 3.63-5.48.625 2.079 2.959 3.776 5.008 3.776 2.576 0 4.664-2.363 4.664-5.277 0-1.236 2.763.6 2.763 2.914m0 13.713c0 5.745-8.611 10.4-19.234 10.4v-8.223c.499.109 2.63 1.89 3.169 1.89 2.73 0 2.796-3.401 3.63-5.48.625 2.079 2.959 3.776 5.008 3.776 2.576 0 4.664-2.363 4.664-5.277 0-1.236 2.763.6 2.763 2.914m-45.74-6.65a2 2 0 1 0-.001-4 2 2 0 0 0 0 4m-.874-4.709a2 2 0 1 0 0-4 2 2 0 0 0 0 4m-.708-4.709a2 2 0 1 0 0-4 2 2 0 0 0 0 4m-.292-8.96a2 2 0 1 0 0-4 2 2 0 0 0 0 4m.292 4.708a2 2 0 1 0 0-4 2 2 0 0 0 0 4m2.29 17.67a2 2 0 1 0 0-4 2 2 0 0 0 0 4m.71 4a2 2 0 1 0 0-4 2 2 0 0 0 0 4"/><path d="M191.328 488.328a2 2 0 1 0 0-4 2 2 0 0 0 0 4m1 4a2 2 0 1 0 0-4 2 2 0 0 0 0 4m1.291 4a2 2 0 1 0 0-4 2 2 0 0 0 0 4m2 4a2 2 0 1 0 0-4 2 2 0 0 0 0 4m2.292 3.71a2 2 0 1 0 0-4.001 2 2 0 0 0 0 4m3.417 3.291a2 2 0 1 0 0-4 2 2 0 0 0 0 4m3.563 2.71a2 2 0 1 0 0-4.001 2 2 0 0 0 0 4"/><path d="M208.62 511.328a2 2 0 1 0-.001-4 2 2 0 0 0 0 4m4.388.291a2 2 0 1 0 0-4 2 2 0 0 0 0 4"/></g><path d="M202.835 487.795l-1.809-33.642h-1.538l1.809 33.642z" fill="#f39c11"/><g fill="#f39c11"><path d="M195.773 469.468c0 5.745 8.611 10.401 19.234 10.401v-8.224c-.499.109-2.63 1.89-3.169 1.89-2.73 0-2.796-3.401-3.63-5.48-.625 2.079-2.959 3.776-5.008 3.776-2.576 0-4.664-2.363-4.664-5.277 0-1.236-2.763.6-2.763 2.914m0 13.713c0 5.745 8.611 10.4 19.234 10.4v-8.223c-.499.109-2.63 1.89-3.169 1.89-2.73 0-2.796-3.401-3.63-5.48-.625 2.079-2.959 3.776-5.008 3.776-2.576 0-4.664-2.363-4.664-5.277 0-1.236-2.763.6-2.763 2.914"/></g></g></svg>