<svg height="800" width="800" xmlns="http://www.w3.org/2000/svg"><g fill="none" fill-rule="evenodd"><path d="m215 454.153c53.572 0 97-53.758 97-120.071s-43.428-54.525-97-54.525-97-11.788-97 54.525 43.428 120.07 97 120.07" fill="#2d3e50"/><path d="m138.266 387.185c6.69 0 12.116-5.427 12.116-12.122s-5.425-12.123-12.116-12.123-12.116 5.428-12.116 12.123 5.425 12.122 12.116 12.122m153.468 0c6.691 0 12.116-5.427 12.116-12.122s-5.425-12.123-12.116-12.123c-6.69 0-12.116 5.428-12.116 12.123s5.425 12.122 12.116 12.122" fill="#f9db9d"/><path d="m204.23 463.202h21.539v-18.099h-21.539z" fill="#f9db9d"/><path d="m215 451.838c44.61 0 80.773-43.846 80.773-104.922s-36.163-52.916-80.773-52.916-80.773-8.16-80.773 52.916 36.163 104.922 80.773 104.922" fill="#f9db9d"/><path d="m177.556 371.281a8.193 8.193 0 0 0 8.19-8.195 8.193 8.193 0 0 0 -8.19-8.196 8.193 8.193 0 0 0 -8.191 8.196 8.193 8.193 0 0 0 8.19 8.195m74.89 0a8.193 8.193 0 0 0 8.191-8.195 8.193 8.193 0 0 0 -8.19-8.196 8.193 8.193 0 0 0 -8.192 8.196 8.193 8.193 0 0 0 8.191 8.195m-62.188 37.977c-.257.767-.415 1.553-.415 2.36 0 7.385 11.264 13.372 25.158 13.372 13.895 0 25.158-5.987 25.158-13.372 0-.807-.157-1.593-.415-2.36-2.1 6.258-12.366 11.013-24.743 11.013s-22.643-4.755-24.743-11.013" fill="#2d3e50"/><path d="m118 339.834h194v-19h-194z" fill="#e84c3d"/><g fill="#f1c40f"><path d="m43.63 277.708c-4.023-18.258 6.048-34.274 6.048-34.274s8.322 40.74 68.322 38.74c55.929-1.864 97-8.363 97-8.363l-.094 53.585c-12.092 0-155.82 20.461-171.276-49.688"/><path d="m84.508 254.187c-2.872-18.529 7.376-31.101 7.376-31.101s-1.125 36.528 39.506 39.385c39.898 2.805 83.61-6.062 83.61-6.062l-.067 48.562c-8.631 0-119.392 20.408-130.425-50.784"/><path d="m120.324 240.455c-2.083-16.68 6.554-27.995 6.554-27.995s-.728 30.974 45.122 30.974c29.056 0 43-17.607 43-17.607l-.049 60.34c-6.262 0-86.622 18.37-94.627-45.712"/><path d="m215 240.74v-72s-24 23.421-23 36.421c0 0-16.679-2.402-10-12.42 8-12-37.5 11.808-13.25 33 24.25 21.19 46.25 15 46.25 15m171.37 36.967c4.023-18.258-6.048-34.274-6.048-34.274s-8.322 40.74-68.322 38.74c-55.929-1.864-97-8.363-97-8.363l-9 54.189c12.092 0 164.913 19.857 180.37-50.292"/><path d="m345.492 254.187c2.872-18.529-7.376-31.101-7.376-31.101s1.125 36.528-39.507 39.385c-39.897 2.805-83.609-6.062-83.609-6.062l-9 48.591c8.631 0 128.46 20.379 139.492-50.813"/><path d="m309.676 240.455c2.083-16.68-6.554-27.995-6.554-27.995s.728 30.974-45.122 30.974c-29.056 0-43-17.607-43-17.607l-7 60.173c6.263 0 93.67 18.537 101.676-45.545"/><path d="m212 241 3-72.26s24 23.421 23 36.421c0 0 16.679-2.402 10-12.421-8-12 37.5 11.809 13.25 33s-49.25 15.26-49.25 15.26"/></g><path d="m172.537 487.795s0 29.633-2.692 40.408c-2.693 10.776-10.77 78.122-5.385 83.51s10.77 0 13.462 0 13.462-123.918 13.462-123.918z" fill="#f9db9d"/><path d="m171.134 496.569-.21 1.989 13.924 1.463.209-1.99zm-2.785 35.954-.21 1.988 13.923 1.464.21-1.99zm-1 3.625-.21 1.99 13.923 1.462.21-1.989zm-4.256 34.126-.21 1.989 13.924 1.463.209-1.99zm0 3.453-.21 1.989 13.924 1.463.209-1.99zm0 3.838-.21 1.99 13.924 1.462.209-1.989zm-.016 3.45-.21 1.988 13.924 1.463.209-1.989z" fill="#f1c40f"/><path d="m169.688 499.56a2.126 2.126 0 1 0 .444-4.229 2.125 2.125 0 1 0 -.444 4.227" fill="#f1c40f"/><path d="m186.752 729.625 1.018 17.534-.018.003-3 3c-1 1 0 2 6 1 5.055-.843 10.094-2.477 11.562-2.973l.438-.027s.039-6.708.235-18.537z" fill="#f9db9d"/><path d="m186.83 749.1s-24.986 11.062-11.118 11.062h24.928c3.307 0 2.153-12.123 2.153-12.123z" fill="#2d3e50"/><path d="m215 740.6v-161.361l-38.803-1.239-.856 162.6z" fill="#f4a629"/><path d="m195.795 727.862h19.205v-149.862h-19.205z" fill="#f39c11"/><path d="m206.79 713.486-8.07 8.07 8.07 8.069 8.07-8.07zm0-32.28-8.07 8.07 8.07 8.07 8.07-8.07zm0-32.279-8.07 8.07 8.07 8.069 8.07-8.069zm.14-32.28-8.07 8.07 8.07 8.07 8.07-8.07zm-.14 80.699-8.07 8.07 8.07 8.069 8.07-8.07zm0-32.28-8.07 8.07 8.07 8.07 8.07-8.07zm0-32.279-8.07 8.07 8.07 8.07 8.07-8.07zm0-32.279-8.07 8.07 8.07 8.07 8.07-8.07z" fill="#f4a629"/><path d="m178.86 696.115h14.511v-2.434h-14.511zm0 4.868h14.511v-2.434h-14.511zm0 4.868h14.511v-2.434h-14.511zm0 4.868h14.511v-2.434h-14.511zm0 4.302h14.511v-2.434h-14.511zm0 4.869h14.511v-2.434h-14.511zm0 4.867h14.511v-2.434h-14.511zm0 4.868h14.511v-2.434h-14.511zm.43-71.5h14.511v-2.434h-14.511zm0 4.868h14.511v-2.434h-14.511zm0 4.868h14.511v-2.434h-14.511zm0 4.868h14.511v-2.434h-14.511zm0 4.302h14.511v-2.434h-14.511zm0 4.868h14.511v-2.434h-14.511zm0 4.868h14.511v-2.434h-14.511zm0 4.868h14.511v-2.434h-14.511zm-.102-71.093h14.511v-2.434h-14.511zm0 4.869h14.511v-2.434h-14.511zm0 4.867h14.511v-2.434h-14.511zm0 4.868h14.511v-2.434h-14.511zm0 4.303h14.511v-2.434h-14.511zm0 4.868h14.511v-2.434h-14.511zm0 4.868h14.511v-2.434h-14.511zm0 4.868h14.511v-2.434h-14.511z" fill="#f39c11"/><path d="m206.93 583.93-8.07 8.07 8.07 8.07 8.07-8.07z" fill="#f4a629"/><path d="m179.29 587.434h14.511v-2.434h-14.511zm0 4.868h14.511v-2.434h-14.511zm0 4.868h14.511v-2.434h-14.511zm0 4.868h14.511v-2.434h-14.511zm0 4.303h14.511v-2.434h-14.511zm0 4.867h14.511v-2.434h-14.511zm0 4.869h14.511v-2.434h-14.511zm0 4.868h14.511v-2.434h-14.511z" fill="#f39c11"/><path d="m196.867 478.806h17.993v-24.654h-17.993z" fill="#f9db9d"/><path d="m202.5 454.153c-5.372 0-21.132.484-22 .847-3.563 1.174-5.657 5.628-7.824 13.938-3.926 15.062-3.926 20.062-3.926 20.062l14.25 2c-2 15 2 13 1 24-.395 1.474-3 31-3 31-2.074 12.09-1.71 11-8.15 36.74h42.15v-119.537z" fill="#3598db"/><path d="m202.828 487.795-1.809-33.642h-1.538l1.809 33.642z" fill="#f39c11"/><path d="m195.766 469.468c0 5.745 8.611 10.401 19.234 10.401v-8.224c-.499.109-2.63 1.89-3.169 1.89-2.73 0-2.796-3.401-3.63-5.48-.625 2.079-2.959 3.776-5.008 3.776-2.576 0-4.664-2.363-4.664-5.277 0-1.236-2.763.6-2.763 2.914m0 13.713c0 5.745 8.611 10.4 19.234 10.4v-8.223c-.499.109-2.63 1.89-3.169 1.89-2.73 0-2.796-3.401-3.63-5.48-.625 2.079-2.959 3.776-5.008 3.776-2.576 0-4.664-2.363-4.664-5.277 0-1.236-2.763.6-2.763 2.914" fill="#f1c40f"/><path d="m180 548h35v-14.417h-35z" fill="#e84c3d"/><path d="m173 582.74 6 4.26 5-4.26 6 4.26 5.1-4.26 4.9 4.26 4-4.26 4 4.26 3.5-4.26 3.5 4.26v-4.26z" fill="#3598db"/><path d="m204 625h11v-91.417h-11z" fill="#e84c3d"/><path d="m204 550h11v-2h-11z" fill="#c1392b"/><g fill="#f1c40f"><path d="m188.486 476.53a2 2 0 1 0 0-4 2 2 0 0 0 0 4m-.874-4.708a2 2 0 1 0 0-4 2 2 0 0 0 0 4m-.708-4.709a2 2 0 1 0 0-4 2 2 0 0 0 0 4m-.292-8.96a2 2 0 1 0 0-4 2 2 0 0 0 0 4m.292 4.708a2 2 0 1 0 0-4 2 2 0 0 0 0 4m2.29 17.67a2 2 0 1 0 0-4 2 2 0 0 0 0 4m.71 4a2 2 0 1 0 0-4 2 2 0 0 0 0 4"/><path d="m191.32 488.328a2 2 0 1 0 0-4 2 2 0 0 0 0 4m1 4a2 2 0 1 0 0-4 2 2 0 0 0 0 4m1.292 4a2 2 0 1 0 0-4 2 2 0 0 0 0 4m2 4a2 2 0 1 0 0-4 2 2 0 0 0 0 4m2.292 3.71a2 2 0 1 0 0-4.001 2 2 0 0 0 0 4m3.417 3.291a2 2 0 1 0 0-4 2 2 0 0 0 0 4m3.563 2.71a2 2 0 1 0 0-4.001 2 2 0 0 0 0 4"/><path d="m208.612 511.328a2 2 0 1 0 0-4 2 2 0 0 0 0 4m4.388.292a2 2 0 1 0 0-4 2 2 0 0 0 0 4"/></g><path d="m205.76 631h.88v-5.999h-.88zm-1.76 0h.879v-5.999h-.879zm5.28 0h.88v-5.999h-.88zm3.52 0h.88v-5.999h-.88zm-5.28 0h.88v-5.999h-.88zm3.52 0h.88v-5.999h-.88zm3.52 0h.44v-5.999h-.44z" fill="#e84c3d"/><path d="m205 623h10v-1h-10z" fill="#f1c40f"/><path d="m215 537.291a3.5 3.5 0 1 0 0 7z" fill="#f1c40f"/><path d="m257.463 487.795s0 29.633 2.692 40.408c2.693 10.776 10.77 78.122 5.385 83.51s-10.77 0-13.462 0-13.462-123.918-13.462-123.918z" fill="#f9db9d"/><path d="m258.866 496.569.209 1.989-13.923 1.463-.209-1.99zm2.786 35.954.209 1.988-13.923 1.464-.21-1.99zm1 3.625.209 1.99-13.923 1.462-.21-1.989zm4.255 34.126.209 1.989-13.923 1.463-.209-1.99zm0 3.453.209 1.989-13.923 1.463-.209-1.99zm0 3.838.209 1.99-13.923 1.462-.209-1.989zm.016 3.45.21 1.988-13.924 1.463-.209-1.989z" fill="#f1c40f"/><path d="m260.312 499.56a2.126 2.126 0 1 1 -.444-4.228 2.125 2.125 0 1 1 .444 4.227" fill="#f1c40f"/><path d="m243.248 729.625-1.018 17.535.018.003 3 3c1 1 0 2-6 1-5.055-.843-10.094-2.477-11.562-2.973l-.438-.027s-.039-6.708-.235-18.537h16.235z" fill="#f9db9d"/><path d="m243.17 749.1s24.986 11.062 11.118 11.062h-24.928c-3.307 0-2.153-12.123-2.153-12.123z" fill="#2d3e50"/><path d="m215 740.6v-161.361l38.803-1.239.856 162.6z" fill="#f4a629"/><path d="m215 727.862h19.205v-149.862h-19.205z" fill="#f39c11"/><path d="m223.21 713.486 8.07 8.07-8.07 8.069-8.07-8.07zm0-32.28 8.07 8.07-8.07 8.07-8.07-8.07zm0-32.279 8.07 8.07-8.07 8.069-8.07-8.069zm-.14-32.28 8.07 8.07-8.07 8.07-8.07-8.07zm.14 80.699 8.07 8.07-8.07 8.069-8.07-8.07zm0-32.28 8.07 8.07-8.07 8.07-8.07-8.07zm0-32.279 8.07 8.07-8.07 8.07-8.07-8.07zm0-32.279 8.07 8.07-8.07 8.07-8.07-8.07z" fill="#f4a629"/><path d="m236.629 696.115h14.511v-2.434h-14.511zm0 4.868h14.511v-2.434h-14.511zm0 4.868h14.511v-2.434h-14.511zm0 4.868h14.511v-2.434h-14.511zm0 4.302h14.511v-2.434h-14.511zm0 4.869h14.511v-2.434h-14.511zm0 4.867h14.511v-2.434h-14.511zm0 4.868h14.511v-2.434h-14.511zm-.43-71.5h14.511v-2.434h-14.511zm0 4.868h14.511v-2.434h-14.511zm0 4.868h14.511v-2.434h-14.511zm0 4.868h14.511v-2.434h-14.511zm0 4.302h14.511v-2.434h-14.511zm0 4.868h14.511v-2.434h-14.511zm0 4.868h14.511v-2.434h-14.511zm0 4.868h14.511v-2.434h-14.511zm.102-71.093h14.511v-2.434h-14.511zm0 4.869h14.511v-2.434h-14.511zm0 4.867h14.511v-2.434h-14.511zm0 4.868h14.511v-2.434h-14.511zm0 4.303h14.511v-2.434h-14.511zm0 4.868h14.511v-2.434h-14.511zm0 4.868h14.511v-2.434h-14.511zm0 4.868h14.511v-2.434h-14.511z" fill="#f39c11"/><path d="m223.07 583.93 8.07 8.07-8.07 8.07-8.07-8.07z" fill="#f4a629"/><path d="m236.199 587.434h14.511v-2.434h-14.511zm0 4.868h14.511v-2.434h-14.511zm0 4.868h14.511v-2.434h-14.511zm0 4.868h14.511v-2.434h-14.511zm0 4.303h14.511v-2.434h-14.511zm0 4.867h14.511v-2.434h-14.511zm0 4.869h14.511v-2.434h-14.511zm0 4.868h14.511v-2.434h-14.511z" fill="#f39c11"/><path d="m215.14 478.806h17.993v-24.654h-17.993z" fill="#f9db9d"/><path d="m227.5 454.153c5.372 0 21.132.484 22 .847 3.563 1.174 5.657 5.628 7.824 13.938 3.926 15.062 3.926 20.062 3.926 20.062l-14.25 2c2 15-2 13-1 24 .395 1.474 3 31 3 31 2.074 12.09 1.71 11 8.15 36.74h-42.15v-119.537z" fill="#3598db"/><path d="m227.172 487.795 1.809-33.642h1.538l-1.809 33.642z" fill="#f39c11"/><path d="m234.234 469.468c0 5.745-8.611 10.401-19.234 10.401v-8.224c.499.109 2.63 1.89 3.169 1.89 2.73 0 2.796-3.401 3.63-5.48.625 2.079 2.959 3.776 5.008 3.776 2.576 0 4.664-2.363 4.664-5.277 0-1.236 2.763.6 2.763 2.914m0 13.713c0 5.745-8.611 10.4-19.234 10.4v-8.223c.499.109 2.63 1.89 3.169 1.89 2.73 0 2.796-3.401 3.63-5.48.625 2.079 2.959 3.776 5.008 3.776 2.576 0 4.664-2.363 4.664-5.277 0-1.236 2.763.6 2.763 2.914" fill="#f1c40f"/><path d="m215 548h35v-14.417h-35z" fill="#e84c3d"/><path d="m257 582.74-6 4.26-5-4.26-6 4.26-5.1-4.26-4.9 4.26-4-4.26-4 4.26-3.5-4.26-3.5 4.26v-4.26z" fill="#3598db"/><path d="m215 625h11v-91.417h-11z" fill="#e84c3d"/><path d="m215 550h11v-2h-11z" fill="#c1392b"/><g fill="#f1c40f"><path d="m241.514 476.53a2 2 0 1 1 0-4 2 2 0 0 1 0 4m.874-4.708a2 2 0 1 1 0-4 2 2 0 0 1 0 4m.708-4.709a2 2 0 1 1 0-4 2 2 0 0 1 0 4m.292-8.96a2 2 0 1 1 0-4 2 2 0 0 1 0 4m-.292 4.708a2 2 0 1 1 0-4 2 2 0 0 1 0 4m-2.29 17.67a2 2 0 1 1 0-4 2 2 0 0 1 0 4m-.71 4a2 2 0 1 1 0-4 2 2 0 0 1 0 4"/><path d="m238.68 488.328a2 2 0 1 1 0-4 2 2 0 0 1 0 4m-1 4a2 2 0 1 1 0-4 2 2 0 0 1 0 4m-1.292 4a2 2 0 1 1 0-4 2 2 0 0 1 0 4m-2 4a2 2 0 1 1 0-4 2 2 0 0 1 0 4m-2.292 3.71a2 2 0 1 1 0-4.001 2 2 0 0 1 0 4m-3.417 3.291a2 2 0 1 1 0-4 2 2 0 0 1 0 4m-3.563 2.71a2 2 0 1 1 0-4.001 2 2 0 0 1 0 4"/><path d="m221.388 511.328a2 2 0 1 1 0-4 2 2 0 0 1 0 4m-4.388.292a2 2 0 1 1 0-4 2 2 0 0 1 0 4"/></g><path d="m223.36 631h.88v-5.999h-.88zm1.76 0h.88v-5.999h-.88zm-5.28 0h.879v-5.999h-.879zm-3.52 0h.879v-5.999h-.879zm5.28 0h.88v-5.999h-.88zm-3.52 0h.88v-5.999h-.88zm-3.08 0h.44v-5.999h-.44z" fill="#e84c3d"/><path d="m215 623h10v-1h-10zm0-85.709a3.5 3.5 0 1 1 0 7z" fill="#f1c40f"/><path d="m570.84 461.88h28.32v-23.797h-28.32z" fill="#f9db9d"/><path d="m585 465.422c7.82 0 14.16-1.586 14.16-3.542s-6.34-3.542-14.16-3.542-14.16 1.586-14.16 3.542 6.34 3.542 14.16 3.542m90.217-86.939c7.204 0 13.043-5.84 13.043-13.043 0-7.204-5.839-13.044-13.043-13.044s-13.043 5.84-13.043 13.044c0 7.203 5.839 13.043 13.043 13.043m-180.434 0c7.204 0 13.043-5.84 13.043-13.043 0-7.204-5.839-13.044-13.043-13.044s-13.043 5.84-13.043 13.044c0 7.203 5.839 13.043 13.043 13.043" fill="#f9db9d"/><path d="m585 405.678c52.827 0 108.457-29.678 92.108-97.304-8.906-36.84-39.281-76.24-92.108-76.24s-91.07 60.74-93.526 76.24c-11.348 71.626 40.699 97.304 93.526 97.304" fill="#2d3e50"/><path d="m585 446.417c47.424 0 85.869-41.85 85.869-93.478 0-51.625-38.445-99.998-85.869-99.998s-85.869 48.373-85.869 99.998c0 51.627 38.445 93.478 85.869 93.478" fill="#f9db9d"/><path d="m549.477 362.099a7.871 7.871 0 0 0 7.869-7.873 7.871 7.871 0 0 0 -7.87-7.873 7.871 7.871 0 0 0 -7.868 7.873 7.871 7.871 0 0 0 7.869 7.873m71.942 0a7.871 7.871 0 0 0 7.869-7.873 7.871 7.871 0 0 0 -7.87-7.873 7.871 7.871 0 0 0 -7.868 7.873 7.871 7.871 0 0 0 7.869 7.873m-59.74 36.482c-.248.737-.4 1.492-.4 2.267 0 7.095 10.821 12.846 24.168 12.846 13.348 0 24.17-5.75 24.17-12.846 0-.775-.153-1.53-.4-2.267-2.018 6.012-11.88 10.58-23.77 10.58-11.889 0-21.75-4.568-23.769-10.58" fill="#2d3e50"/><path d="m639.63 480.019s4.347 56.521 6.522 67.391c2.174 10.87 6.52 56.522 0 63.043-6.522 6.522-26.087 2.174-28.261-15.217s-6.522-78.261-6.522-78.261v-36.956h28.26z" fill="#f9db9d"/><path d="m642.697 495 7.704 85.616-22.818.384-6.818-86z" fill="#3598db"/><path d="m630.615 482.634 6.385 93.365h-9z" fill="#297fb8"/><path d="m629.582 576h22.865v-2h-22.865z" fill="#f1c40f"/><path d="m629.582 578h22.865v-2h-22.865z" fill="#f39c11"/><path d="m629.833 510h15.75v-2h-15.75z" fill="#f1c40f"/><path d="m629.833 512h15.75v-2h-15.75z" fill="#f39c11"/><path d="m640.316 744.059s21.886 1.953 21.886 11.717v5.858h-68.346v-17.575z" fill="#2d3e50"/><path d="m592.813 757.849-3.449-131.965s3.45-12.444-3.064-12.444v-25.621h45.6v156.055z" fill="#8d44ad"/><path d="m585 583.134v-117.711l11.775-12.484c2.489-.136 15.096 0 18.178 0 26.541 0 27.744 42.678 27.744 42.678h-12.543v93.359s-36.088.158-39.838.158-5.316-6-5.316-6" fill="#3598db"/><path d="m630.482 560 6.87 114h-35.118v-115z" fill="#e84c3d"/><path d="m615.701 452s-2.402 21-30.701 21v40s20 3 26.369-8c6.278-10.844 8.424-22.315 8.424-22.315s25.79-2.666 10.807-24.051c-7.6-10.849-14.899-6.634-14.899-6.634" fill="#f1c40f"/><path d="m630.6 555 .601 17.575h-46.2v-17.575z" fill="#e84c3d"/><path d="m602.234 672h35.118v-4h-35.118zm31.737-12 2.73 2.828-2.73 2.829-2.73-2.829zm-23.12 0 2.729 2.828-2.73 2.828-2.728-2.828zm11.774 0 2.729 2.828-2.729 2.829-2.729-2.829zm5.46 0 2.728 2.828-2.728 2.829-2.73-2.829zm-23.122 0 2.73 2.828-2.73 2.829-2.73-2.829zm11.774 0 2.73 2.828-2.73 2.829-2.729-2.83z" fill="#f1c40f"/><g fill="#f1c40f"><path d="m609.936 513.674a1.88 1.88 0 1 1 0-3.761 1.88 1.88 0 0 1 0 3.761m.823-4.428a1.881 1.881 0 1 1 0-3.762 1.881 1.881 0 0 1 0 3.762m.666-4.43a1.88 1.88 0 1 1 0-3.761 1.88 1.88 0 0 1 0 3.761m.274-8.426a1.881 1.881 0 1 1 0-3.762 1.881 1.881 0 0 1 0 3.762m-.274 4.427a1.88 1.88 0 1 1 0-3.761 1.88 1.88 0 0 1 0 3.761m-2.155 16.62a1.881 1.881 0 1 1 0-3.762 1.88 1.88 0 0 1 0 3.761m-.666 3.762a1.88 1.88 0 1 1 0-3.761 1.88 1.88 0 0 1 0 3.761"/><path d="m607.27 524.77a1.881 1.881 0 1 1 0-3.762 1.88 1.88 0 0 1 0 3.761m-.94 3.762a1.88 1.88 0 1 1 0-3.761 1.88 1.88 0 0 1 0 3.761m-1.214 3.762a1.88 1.88 0 1 1 0-3.761 1.88 1.88 0 0 1 0 3.761m-1.882 3.763a1.881 1.881 0 1 1 0-3.762 1.881 1.881 0 0 1 0 3.762m-2.155 3.488a1.881 1.881 0 1 1 0-3.762 1.881 1.881 0 0 1 0 3.762m-3.214 3.095a1.88 1.88 0 1 1 0-3.761 1.88 1.88 0 0 1 0 3.761m-3.35 2.548a1.881 1.881 0 1 1 -.001-3.762 1.881 1.881 0 0 1 0 3.762"/><path d="m591.008 546.4a1.88 1.88 0 1 1 0-3.76 1.88 1.88 0 0 1 0 3.76m-4.127.275a1.88 1.88 0 1 1 0-3.761 1.88 1.88 0 0 1 0 3.761m21.523-90.053a1.88 1.88 0 1 1 .523-3.725 1.88 1.88 0 0 1 -.523 3.725m-1.726 3.558a1.882 1.882 0 1 1 .525-3.727 1.882 1.882 0 0 1 -.525 3.727m-2.386 3.463a1.881 1.881 0 1 1 .523-3.726 1.881 1.881 0 0 1 -.523 3.726m-2.62 3.155a1.882 1.882 0 1 1 .525-3.727 1.882 1.882 0 0 1 -.525 3.727m-3.614 2.619a1.882 1.882 0 1 1 .526-3.727 1.882 1.882 0 0 1 -.525 3.727m-3.673 2.053a1.881 1.881 0 1 1 .523-3.726 1.881 1.881 0 0 1 -.523 3.726"/><path d="m590.744 472.186a1.88 1.88 0 1 1 .522-3.724 1.88 1.88 0 0 1 -.522 3.724m-4.125-.303a1.882 1.882 0 1 1 .526-3.727 1.882 1.882 0 0 1 -.526 3.727"/></g><path d="m585 667h17.234v-94.425h-17.234z" fill="#c1392b"/><path d="m585 574h46.201v-1.425h-46.201z" fill="#c1392b"/><path d="m585 664h17.234v-4h-17.234zm14.076-12 2.73 2.828-2.73 2.829-2.73-2.829zm-11.346 0 2.729 2.828-2.729 2.829-2.729-2.829zm5.459 0 2.729 2.828-2.729 2.829-2.729-2.829z" fill="#f39c11"/><path d="m587.799 593.58a1.5 1.5 0 1 1 0-3 1.5 1.5 0 0 1 0 3m10.701-12.668a1.5 1.5 0 1 1 0-3 1.5 1.5 0 0 1 0 3m0 25.332a1.5 1.5 0 1 1 0-3 1.5 1.5 0 0 1 0 3m.467 23.003a1.5 1.5 0 1 1 0 3 1.5 1.5 0 0 1 0-3m-10.7 12.666a1.5 1.5 0 1 1 0 3 1.5 1.5 0 0 1 0-3m0-25.332a1.5 1.5 0 1 1 0 3 1.5 1.5 0 0 1 0-3" fill="#f39c11"/><path d="m585 554c7.892 0 14.29 4.317 14.29 9.643s-6.398 9.645-14.29 9.645z" fill="#f1c40f"/><path d="m583.952 127.864-97.183 97.183 97.183 97.183 97.183-97.183z" fill="#e84c3d"/><path d="m487.635 322.23h193.5v-97.183h-193.5z" fill="#e84c3d"/><path d="m530.37 480.019s-4.347 56.521-6.522 67.391c-2.173 10.87-6.52 56.522 0 63.043 6.523 6.522 26.088 2.174 28.262-15.217 2.173-17.391 6.521-78.261 6.521-78.261v-36.956h-28.26z" fill="#f9db9d"/><path d="m527.303 495-7.704 85.616 22.818.384 6.818-86z" fill="#3598db"/><path d="m539.385 482.634-6.385 93.365h9z" fill="#297fb8"/><path d="m517.553 576h22.865v-2h-22.865z" fill="#f1c40f"/><path d="m517.553 578h22.865v-2h-22.865z" fill="#f39c11"/><path d="m524.417 510h15.75v-2h-15.75z" fill="#f1c40f"/><path d="m524.417 512h15.75v-2h-15.75z" fill="#f39c11"/><path d="m529.684 744.059s-21.886 1.953-21.886 11.717v5.858h68.346v-17.575z" fill="#2d3e50"/><path d="m577.187 757.849 3.449-131.965s-3.45-12.444 3.065-12.444v-25.621h-45.601v156.055l39.086 13.975z" fill="#8d44ad"/><path d="m585 583.134v-117.711l-11.775-12.484c-2.489-.136-15.096 0-18.178 0-26.541 0-27.744 42.678-27.744 42.678h12.543v93.359s36.088.158 39.838.158 5.316-6 5.316-6" fill="#3598db"/><path d="m539.518 560-6.87 114h35.119v-115z" fill="#e84c3d"/><path d="m554.299 452s2.402 21 30.701 21v40s-20 3-26.369-8c-6.278-10.844-8.424-22.315-8.424-22.315s-25.79-2.666-10.807-24.051c7.6-10.849 14.899-6.634 14.899-6.634" fill="#f1c40f"/><path d="m539.4 555-.601 17.575h46.2v-17.575z" fill="#e84c3d"/><path d="m532.648 672h35.118v-4h-35.118zm3.38-12-2.728 2.828 2.729 2.829 2.73-2.829zm23.121 0-2.729 2.828 2.73 2.828 2.728-2.828zm-11.774 0-2.729 2.828 2.729 2.829 2.729-2.829zm-5.46 0-2.728 2.828 2.728 2.829 2.73-2.829zm23.122 0-2.73 2.828 2.73 2.829 2.73-2.829zm-11.774 0-2.73 2.828 2.73 2.829 2.729-2.83z" fill="#f1c40f"/><g fill="#f1c40f"><path d="m560.064 513.674a1.88 1.88 0 1 0 0-3.761 1.88 1.88 0 0 0 0 3.761m-.823-4.428a1.881 1.881 0 1 0 0-3.762 1.881 1.881 0 0 0 0 3.762m-.666-4.43a1.88 1.88 0 1 0 0-3.761 1.88 1.88 0 0 0 0 3.761m-.274-8.426a1.881 1.881 0 1 0 0-3.762 1.881 1.881 0 0 0 0 3.762m.274 4.427a1.88 1.88 0 1 0 0-3.761 1.88 1.88 0 0 0 0 3.761m2.155 16.62a1.881 1.881 0 1 0 0-3.762 1.88 1.88 0 0 0 0 3.761m.666 3.762a1.88 1.88 0 1 0 0-3.761 1.88 1.88 0 0 0 0 3.761"/><path d="m562.73 524.77a1.881 1.881 0 1 0 0-3.762 1.88 1.88 0 0 0 0 3.761m.94 3.762a1.88 1.88 0 1 0 0-3.761 1.88 1.88 0 0 0 0 3.761m1.214 3.762a1.88 1.88 0 1 0 0-3.761 1.88 1.88 0 0 0 0 3.761m1.881 3.763a1.881 1.881 0 1 0 0-3.762 1.881 1.881 0 0 0 0 3.762m2.155 3.488a1.881 1.881 0 1 0 0-3.762 1.881 1.881 0 0 0 0 3.762m3.215 3.095a1.88 1.88 0 1 0 0-3.761 1.88 1.88 0 0 0 0 3.761m3.35 2.548a1.881 1.881 0 1 0 .001-3.762 1.881 1.881 0 0 0 0 3.762"/><path d="m578.992 546.4a1.88 1.88 0 1 0 0-3.76 1.88 1.88 0 0 0 0 3.76m4.127.275a1.88 1.88 0 1 0 0-3.761 1.88 1.88 0 0 0 0 3.761m-21.523-90.053a1.88 1.88 0 1 0 -.523-3.725 1.88 1.88 0 0 0 .523 3.725m1.726 3.558a1.882 1.882 0 1 0 -.525-3.727 1.882 1.882 0 0 0 .525 3.727m2.386 3.463a1.881 1.881 0 1 0 -.523-3.726 1.881 1.881 0 0 0 .523 3.726m2.62 3.155a1.882 1.882 0 1 0 -.525-3.727 1.882 1.882 0 0 0 .525 3.727m3.613 2.619a1.882 1.882 0 1 0 -.525-3.727 1.882 1.882 0 0 0 .525 3.727m3.673 2.055a1.881 1.881 0 1 0 -.523-3.726 1.881 1.881 0 0 0 .523 3.726"/><path d="m579.256 472.186a1.88 1.88 0 1 0 -.523-3.725 1.88 1.88 0 0 0 .523 3.725m4.125-.303a1.882 1.882 0 1 0 -.526-3.727 1.882 1.882 0 0 0 .526 3.727"/></g><path d="m567.766 667h17.234v-94.425h-17.234z" fill="#c1392b"/><path d="m538.799 574h46.201v-1.425h-46.201z" fill="#c1392b"/><path d="m567.766 664h17.234v-4h-17.234zm3.158-12-2.73 2.828 2.73 2.829 2.73-2.829zm11.346 0-2.729 2.828 2.729 2.829 2.729-2.829zm-5.459 0-2.729 2.828 2.729 2.829 2.729-2.829z" fill="#f39c11"/><path d="m582.201 593.58a1.5 1.5 0 1 0 0-3 1.5 1.5 0 0 0 0 3m-10.701-12.668a1.5 1.5 0 1 0 0-3 1.5 1.5 0 0 0 0 3m0 25.332a1.5 1.5 0 1 0 0-3 1.5 1.5 0 0 0 0 3m-.467 23.003a1.5 1.5 0 1 0 0 3 1.5 1.5 0 0 0 0-3m10.7 12.666a1.5 1.5 0 1 0 0 3 1.5 1.5 0 0 0 0-3m0-25.332a1.5 1.5 0 1 0 0 3 1.5 1.5 0 0 0 0-3" fill="#f39c11"/><path d="m585 554c-7.892 0-14.29 4.317-14.29 9.643s6.398 9.645 14.29 9.645z" fill="#f1c40f"/></g></svg>