<svg height="800" width="800" xmlns="http://www.w3.org/2000/svg"><g fill="none" fill-rule="evenodd"><path d="M570.84 461.88h28.32v-23.797h-28.32z" fill="#f9db9d"/><path d="M675.217 378.483c7.204 0 13.043-5.84 13.043-13.043 0-7.204-5.839-13.044-13.043-13.044s-13.043 5.84-13.043 13.044c0 7.203 5.839 13.043 13.043 13.043m-180.434 0c7.204 0 13.043-5.84 13.043-13.043 0-7.204-5.839-13.044-13.043-13.044s-13.043 5.84-13.043 13.044c0 7.203 5.839 13.043 13.043 13.043" fill="#f9db9d"/><path d="M585 405.678c52.827 0 108.457-29.678 92.108-97.304-8.906-36.84-39.281-76.24-92.108-76.24s-91.07 60.74-93.526 76.24C480.126 380 532.173 405.678 585 405.678" fill="#2d3e50"/><path d="M585 446.418c47.424 0 85.869-41.851 85.869-93.478 0-51.626-38.445-100-85.869-100s-85.869 48.374-85.869 100c0 51.627 38.445 93.478 85.869 93.478" fill="#f9db9d"/><g fill="#2d3e50"><path d="M549.477 362.099c4.346 0 7.869-3.525 7.869-7.873s-3.523-7.873-7.87-7.873-7.868 3.525-7.868 7.873 3.523 7.873 7.869 7.873m71.942 0c4.346 0 7.869-3.525 7.869-7.873s-3.523-7.873-7.87-7.873-7.868 3.525-7.868 7.873 3.523 7.873 7.869 7.873m-59.74 36.482c-.248.737-.4 1.492-.4 2.267 0 7.095 10.821 12.846 24.168 12.846 13.348 0 24.17-5.75 24.17-12.846 0-.775-.153-1.53-.4-2.267-2.018 6.012-11.88 10.58-23.77 10.58-11.889 0-21.75-4.568-23.769-10.58"/></g><path d="M487.635 325h193.5V160h-193.5z" fill="#e84c3d"/><path d="M585 617.26V579h-46.899v164.874l39.086.185s1.299-126.8 7.813-126.8" fill="#c1392b"/><path d="M573 462l-.568 120H585V462z" fill="#ecf0f1"/><path d="M570.496 447.496l-7.5 7.5L578.5 470.5l6.5-8.5z" fill="#ecf0f1"/><path d="M528.953 480.019s-4.348 56.522-6.522 67.391c-2.174 10.87-6.52 56.522 0 63.043 6.522 6.522 26.087 2.174 28.261-15.217s6.522-78.261 6.522-78.261v-36.956z" fill="#f9db9d"/><path d="M526.004 495.384l-9.869 92.435 24.75 5.065 6.75-97.5z" fill="#e84c3d"/><path d="M536.675 480.019L533 590.999l5.1 1.885z" fill="#c1392b"/><path d="M574.684 458.634V632.74s-1.321 6-4.485 6-33.611-.157-33.611-.157V495.618h-10.583s1.015-42.678 23.407-42.678 25.272 5.694 25.272 5.694" fill="#e84c3d"/><path d="M564.918 447.496l-9.765 7.183 11.476 13.602 8.054-9.546z" fill="#e84c3d"/><g fill="#f1c40f"><path d="M568.022 529.422h2v-5.333h-2zm0-10.666h2v-5.333h-2zm0 21.333h2v-5.333h-2zm0-64h2v-5.333h-2zm0 21.333h2v-5.333h-2zm0-10.666h2v-5.333h-2zm0 21.333h2v-5.333h-2zm0 42.667h2v-5.333h-2zm0 21.333h2v-5.333h-2zm0-10.667h2v-5.333h-2zm0 21.334h2v-5.333h-2zm0 10.666h2v-5.333h-2zm0 21.334h2v-5.333h-2zm0-10.667h2v-5.333h-2zM559 454.147l3.06 4.369 1.637-1.147-3.059-4.369zm6.118 8.738l3.06 4.37 1.637-1.148-3.059-4.369zM524.566 585.11l-5.217-1.11-.416 1.958 5.217 1.108zM535 587.327l-5.217-1.11-.416 1.957 5.217 1.109zm23.765 46.473h5.333v-2h-5.333zm-21.333 0h5.333v-2h-5.333zm10.666 0h5.333v-2h-5.333zm19.924 0h2v-5.333h-2zm0-10.667h2V617.8h-2z"/></g><path d="M583 464l-8.316 6.5.316 1.5z" fill="#bec3c7"/><path d="M530.983 744.059s-21.886 1.953-21.886 11.717v5.858h68.346v-17.575z" fill="#2d3e50"/><path d="M532.375 757h45.068v-12.941h-45.068z" fill="#f9db9d"/><path d="M541.585 740h2.25v-71h-2.25z" fill="#f1c40f"/><path d="M551.96 472s16.085 22.5 6.87 30.5-14.847 29.84-5.297 44.84 13.913 44.16 3.237 58.16c0 0 7.843-37-8.132-60.6-10.87-16.058 0-38.4 7.195-46.4 7.194-8-3.872-26.5-3.872-26.5" fill="#f39c11"/><path d="M585 617.26V579h46.899v164.874l-39.086.185s-1.299-126.8-7.813-126.8" fill="#c1392b"/><path d="M597 462l.568 120H585V462z" fill="#ecf0f1"/><path d="M599.504 447.496l7.5 7.5L591.5 470.5 585 462z" fill="#ecf0f1"/><path d="M641.047 480.019s4.348 56.522 6.522 67.391c2.174 10.87 6.52 56.522 0 63.043-6.522 6.522-26.087 2.174-28.261-15.217s-6.522-78.261-6.522-78.261v-36.956z" fill="#f9db9d"/><path d="M643.996 495.384l9.869 92.435-24.75 5.065-6.75-97.5z" fill="#e84c3d"/><path d="M633.325 480.019L637 590.999l-5.1 1.885z" fill="#c1392b"/><path d="M595.316 458.634V632.74s1.321 6 4.485 6 33.611-.157 33.611-.157V495.618h10.583s-1.015-42.678-23.407-42.678-25.272 5.694-25.272 5.694" fill="#e84c3d"/><path d="M605.082 447.496l9.765 7.183-11.476 13.602-8.054-9.546z" fill="#e84c3d"/><path d="M599.978 529.422h2v-5.333h-2zm0-10.666h2v-5.333h-2zm0 21.333h2v-5.333h-2zm0-64h2v-5.333h-2zm0 21.333h2v-5.333h-2zm0-10.666h2v-5.333h-2zm0 21.333h2v-5.333h-2zm0 42.667h2v-5.333h-2zm0 21.333h2v-5.333h-2zm0-10.667h2v-5.333h-2zm0 21.334h2v-5.333h-2zm0 10.666h2v-5.333h-2zm0 21.334h2v-5.333h-2zm0-10.667h2v-5.333h-2zM611 454.147l-3.06 4.369-1.637-1.147 3.059-4.369zm-6.118 8.738l-3.06 4.37-1.637-1.148 3.059-4.369zm40.552 122.224l5.217-1.11.416 1.958-5.217 1.108zM635 587.327l5.217-1.11.416 1.957-5.217 1.109zM605.902 633.8h5.333v-2h-5.333zm21.333 0h5.333v-2h-5.333zm-10.666 0h5.333v-2h-5.333zm-16.591 0h2v-5.333h-2zm0-10.667h2V617.8h-2z" fill="#f1c40f"/><path d="M587 464l8.316 6.5L595 472z" fill="#bec3c7"/><path d="M639.017 744.059s21.886 1.953 21.886 11.717v5.858h-68.346v-17.575z" fill="#2d3e50"/><path d="M592.557 757h45.068v-12.941h-45.068z" fill="#f9db9d"/><path d="M626.165 740h2.25v-71h-2.25z" fill="#f1c40f"/><path d="M618.04 472s-16.085 22.5-6.87 30.5 14.847 29.84 5.297 44.84-13.913 44.16-3.237 58.16c0 0-7.843-37 8.132-60.6 10.87-16.058 0-38.4-7.195-46.4-7.194-8 3.872-26.5 3.872-26.5" fill="#f39c11"/><path d="M487.635 315h193.5v-7h-193.5zm0-12.5h193.5v-7h-193.5z" fill="#f1c40f"/><path d="M215 409.258c53.572 0 97-43.039 97-96.129S268.571 229 215 229c-53.572 0-97 31.038-97 84.13 0 53.09 43.428 96.128 97 96.128" fill="#2d3e50"/><path d="M215 444.749c53.572 0 97-20.76 97-91.87C312 281.773 268.571 237 215 237c-53.572 0-97 44.773-97 115.88 0 71.11 43.428 91.87 97 91.87" fill="#2d3e50"/><g fill="#f9db9d"><path d="M138.266 387.185c6.69 0 12.116-5.427 12.116-12.122s-5.425-12.123-12.116-12.123-12.116 5.428-12.116 12.123 5.425 12.122 12.116 12.122m153.468 0c6.691 0 12.116-5.427 12.116-12.122s-5.425-12.123-12.116-12.123-12.116 5.428-12.116 12.123 5.425 12.122 12.116 12.122"/></g><path d="M204.23 463.202h21.539v-18.099H204.23z" fill="#f9db9d"/><path d="M215 451.838c44.61 0 80.773-43.846 80.773-104.922S259.61 255 215 255s-80.773 30.84-80.773 91.916S170.39 451.838 215 451.838" fill="#f9db9d"/><g fill="#2d3e50"><path d="M177.556 371.281a8.193 8.193 0 0 0 8.19-8.195c0-4.527-3.666-8.196-8.19-8.196s-8.191 3.67-8.191 8.196a8.193 8.193 0 0 0 8.19 8.195m74.89 0a8.193 8.193 0 0 0 8.191-8.195c0-4.527-3.667-8.196-8.19-8.196s-8.192 3.67-8.192 8.196a8.193 8.193 0 0 0 8.191 8.195m-62.188 37.977c-.257.767-.415 1.553-.415 2.36 0 7.385 11.264 13.372 25.158 13.372 13.895 0 25.158-5.987 25.158-13.372 0-.807-.157-1.593-.415-2.36-2.1 6.258-12.366 11.013-24.743 11.013s-22.643-4.755-24.743-11.013"/><path d="M214.993 250c-69.468 2.459-88.202 52.625-81.594 113.451 0 0 .531-41.623 43.907-65.582 0 0 9.68-6.231 37.687-7.05s37.687 7.05 37.687 7.05c43.376 23.959 43.907 65.582 43.907 65.582 6.608-60.826-12.126-110.992-81.594-113.451"/><path d="M215 308.567c32.063 0 58.055-6.43 58.055-14.363 0-7.932-25.992-14.363-58.055-14.363s-58.055 6.431-58.055 14.363c0 7.933 25.992 14.363 58.055 14.363"/></g><path d="M196.867 478.806h17.993v-24.654h-17.993z" fill="#f9db9d"/><path d="M172.537 487.795s0 29.633-2.692 40.408c-2.693 10.776-10.77 78.122-5.385 83.51s10.77 0 13.462 0 13.462-123.918 13.462-123.918zm14.215 241.83l1.018 17.534-.018.003-3 3c-1 1 0 2 6 1 5.055-.843 10.094-2.477 11.562-2.973l.438-.027s.039-6.708.235-18.537z" fill="#f9db9d"/><path d="M186.83 749.1s-24.986 11.062-11.118 11.062h24.927c3.307 0 2.153-12.123 2.153-12.123z" fill="#2d3e50"/><path d="M173 481s-10.14 91-12.14 101l20 4 13.392-79.838v-21z" fill="#ecf0f1"/><path d="M181.752 483.162S183.819 504 183.819 509s-11.882 62-8.959 76l12.892-12.838 4.688-89h-9.688" fill="#bec3c7"/><path d="M215 604V464c-10 0-12.501-9.847-12.501-9.847-5.371 0-21.131.483-22 .847-3.562 1.174-7.823 5.35-7.823 13.937v18.857h10.216c2.812 12.633 4.4 19.467 1.7 29.549-.394 1.474-1.601 8.654-1.601 8.654-2.075 12.09-7.542 50.561-10.141 78.003z" fill="#ecf0f1"/><path d="M173.514 744.894H215V604h-41.486z" fill="#c1392b"/><path d="M173.514 737H215v-5h-41.486zm0-9.5H215v-5h-41.486z" fill="#f1c40f"/><g><path d="M214.86 467.82c-8.187-.066-14.992-5.918-16.53-13.668h-18.162c1.672 17.723 16.55 31.596 34.692 31.668z" fill="#d25400"/><g fill="#f1c40f"><path d="M208.432 475.123a2.568 2.568 0 1 0 0-5.137 2.568 2.568 0 0 0 0 5.137m-14.864-1.871a2.568 2.568 0 1 0 0-5.137 2.568 2.568 0 0 0 0 5.137m0-12.883a2.568 2.568 0 1 0 0-5.137 2.568 2.568 0 0 0 0 5.137M201 478a1 1 0 1 0 0-2 1 1 0 0 0 0 2m0-10.898a1 1 0 1 0 0-2 1 1 0 0 0 0 2m-16-9.301a1 1 0 1 0 0-2 1 1 0 0 0 0 2m2 8.8a1 1 0 1 0 0-1.999 1 1 0 0 0 0 2"/></g></g><path d="M215.14 478.806h17.993v-24.654H215.14z" fill="#f9db9d"/><g><path d="M257.463 487.795s0 29.633 2.692 40.408c2.693 10.776 10.77 78.122 5.385 83.51s-10.77 0-13.462 0-13.462-123.918-13.462-123.918zm-14.215 241.83l-1.018 17.534.018.003 3 3c1 1 0 2-6 1-5.055-.843-10.094-2.477-11.562-2.973l-.438-.027s-.039-6.708-.235-18.537z" fill="#f9db9d"/><path d="M243.17 749.1s24.986 11.062 11.118 11.062H229.36c-3.307 0-2.153-12.123-2.153-12.123z" fill="#2d3e50"/><path d="M257 481s10.14 91 12.14 101l-20 4-13.392-79.838v-21z" fill="#ecf0f1"/><path d="M248.248 483.162S246.181 504 246.181 509s11.882 62 8.959 76l-12.892-12.838-4.688-89h9.688" fill="#bec3c7"/><path d="M215 604V464c10 0 12.501-9.847 12.501-9.847 5.371 0 21.131.483 22 .847 3.562 1.174 7.822 5.35 7.822 13.937v18.857h-10.215c-2.812 12.633-4.4 19.467-1.7 29.549.394 1.474 1.601 8.654 1.601 8.654 2.075 12.09 7.542 50.561 10.141 78.003z" fill="#ecf0f1"/></g><path d="M215 744.894h41.486V604H215z" fill="#c1392b"/><path d="M215 737h41.486v-5H215zm0-9.5h41.486v-5H215z" fill="#f1c40f"/><g><path d="M215.14 467.82c8.187-.066 14.992-5.918 16.53-13.668h18.162c-1.672 17.723-16.55 31.596-34.692 31.668z" fill="#d25400"/><g fill="#f1c40f"><path d="M221.568 475.123a2.568 2.568 0 1 1 0-5.137 2.568 2.568 0 0 1 0 5.137m14.864-1.871a2.568 2.568 0 1 1 0-5.137 2.568 2.568 0 0 1 0 5.137m0-12.883a2.568 2.568 0 1 1 0-5.137 2.568 2.568 0 0 1 0 5.137M229 478a1 1 0 1 1 0-2 1 1 0 0 1 0 2m0-10.898a1 1 0 1 1 0-2 1 1 0 0 1 0 2m16-9.301a1 1 0 1 1 0-2 1 1 0 0 1 0 2m-2 8.8a1 1 0 1 1 0-1.999 1 1 0 0 1 0 2"/></g></g></g></svg>