<svg height="800" width="800" xmlns="http://www.w3.org/2000/svg"><g fill="none" fill-rule="evenodd"><path d="M585 744V574.635l-47.27-1.299L536.686 744z" fill="#a46abc"/><path d="M561.604 730.629H585V573.336h-23.396z" fill="#9a59b5"/><path d="M574.999 710.967l-9.831 9.831 9.83 9.831 9.832-9.83zm0-39.323l-9.831 9.831 9.83 9.831 9.832-9.83zm0-39.323l-9.831 9.83 9.831 9.832 9.831-9.831zm.17-39.323l-9.831 9.83 9.83 9.83 9.832-9.83z" fill="#a46abc"/><path d="M574.999 691.306l-9.831 9.83 9.831 9.832 9.831-9.831zm0-39.324l-9.831 9.831 9.831 9.831 9.831-9.83zm0-39.323l-9.831 9.831 9.83 9.831 9.831-9.83zm.17-39.323l-9.83 9.83 9.83 9.832 9.831-9.831z" fill="#a46abc"/><path d="M540.973 685.007h17.678v-3.313h-17.678zm0 6.628h17.678v-3.313h-17.678zm0 6.627h17.678v-3.313h-17.678zm0 6.628h17.678v-3.314h-17.678zm0 5.857h17.678v-3.313h-17.678zm0 6.628h17.678v-3.313h-17.678zm0 6.627h17.678v-3.314h-17.678zm0 6.628h17.678v-3.314h-17.678zm.523-97.343h17.678v-3.313h-17.678zm0 6.627h17.678v-3.313h-17.678zm0 6.628h17.678v-3.313h-17.678zm0 6.627h17.678v-3.313h-17.678zm0 5.857h17.678v-3.313h-17.678zm0 6.628h17.678v-3.313h-17.678zm0 6.627h17.678v-3.313h-17.678zm0 6.628h17.678v-3.314h-17.678zm-.124-96.787h17.678v-3.314h-17.678zm0 6.628h17.678v-3.314h-17.678zm0 6.626h17.678v-3.313h-17.678zm0 6.627h17.678v-3.313h-17.678zm0 5.859h17.678v-3.314h-17.678zm0 6.626h17.678v-3.313h-17.678zm0 6.628h17.678v-3.313h-17.678zm0 6.627h17.678v-3.313h-17.678z" fill="#9a59b5"/><path d="M585 744V574.635l47.27-1.299L633.314 744z" fill="#a46abc"/><path d="M585 730.629h23.396V573.336H585z" fill="#9a59b5"/><path d="M595.001 710.967l9.831 9.831-9.831 9.831-9.831-9.83zm0-39.323l9.831 9.831-9.831 9.831-9.831-9.83zm0-39.323l9.83 9.83-9.83 9.832-9.831-9.831zm-.17-39.323l9.83 9.83-9.83 9.83-9.831-9.83z" fill="#a46abc"/><path d="M595 691.306l9.832 9.83-9.831 9.832-9.831-9.831zm0-39.324l9.832 9.831-9.831 9.831-9.831-9.83zm.001-39.323l9.831 9.831-9.83 9.831-9.832-9.83zm-.17-39.323l9.83 9.83-9.83 9.832-9.831-9.831z" fill="#a46abc"/><path d="M611.349 685.007h17.678v-3.313h-17.678zm0 6.628h17.678v-3.313h-17.678zm0 6.627h17.678v-3.313h-17.678zm0 6.628h17.678v-3.314h-17.678zm0 5.857h17.678v-3.313h-17.678zm0 6.628h17.678v-3.313h-17.678zm0 6.627h17.678v-3.314h-17.678zm0 6.628h17.678v-3.314h-17.678zm-.523-97.343h17.678v-3.313h-17.678zm0 6.627h17.678v-3.313h-17.678zm0 6.628h17.678v-3.313h-17.678zm0 6.627h17.678v-3.313h-17.678zm0 5.857h17.678v-3.313h-17.678zm0 6.628h17.678v-3.313h-17.678zm0 6.627h17.678v-3.313h-17.678zm0 6.628h17.678v-3.314h-17.678zm.124-96.787h17.678v-3.314H610.95zm0 6.628h17.678v-3.314H610.95zm0 6.626h17.678v-3.313H610.95zm0 6.627h17.678v-3.313H610.95zm0 5.859h17.678v-3.314H610.95zm0 6.626h17.678v-3.313H610.95zm0 6.628h17.678v-3.313H610.95zm0 6.627h17.678v-3.313H610.95z" fill="#9a59b5"/><path d="M570.84 461.88h28.32v-23.797h-28.32z" fill="#f9db9d"/><g fill="#f9db9d"><path d="M585 465.422c7.82 0 14.16-1.586 14.16-3.542s-6.34-3.542-14.16-3.542-14.16 1.586-14.16 3.542 6.34 3.542 14.16 3.542m90.217-86.939c7.204 0 13.043-5.84 13.043-13.043 0-7.204-5.839-13.044-13.043-13.044s-13.043 5.84-13.043 13.044c0 7.203 5.839 13.043 13.043 13.043m-180.434 0c7.204 0 13.043-5.84 13.043-13.043 0-7.204-5.839-13.044-13.043-13.044s-13.043 5.84-13.043 13.044c0 7.203 5.839 13.043 13.043 13.043"/></g><path d="M585 405.678c52.827 0 108.457-29.678 92.108-97.304-8.906-36.84-39.281-76.24-92.108-76.24s-91.07 60.74-93.526 76.24C480.126 380 532.173 405.678 585 405.678" fill="#2d3e50"/><path d="M585 446.418c47.424 0 85.869-41.851 85.869-93.478 0-51.626-38.445-100-85.869-100s-85.869 48.374-85.869 100c0 51.627 38.445 93.478 85.869 93.478" fill="#f9db9d"/><path d="M549.477 362.099c4.346 0 7.869-3.525 7.869-7.873s-3.523-7.873-7.87-7.873-7.868 3.525-7.868 7.873 3.523 7.873 7.869 7.873m71.942 0c4.346 0 7.869-3.525 7.869-7.873s-3.523-7.873-7.87-7.873-7.868 3.525-7.868 7.873 3.523 7.873 7.869 7.873m-59.74 36.482c-.248.737-.4 1.492-.4 2.267 0 7.095 10.821 12.846 24.168 12.846 13.348 0 24.17-5.75 24.17-12.846 0-.775-.153-1.53-.4-2.267-2.018 6.012-11.88 10.58-23.77 10.58-11.889 0-21.75-4.568-23.769-10.58" fill="#2d3e50"/><path d="M639.748 480.019s4.348 56.522 6.522 67.391c2.174 10.87 6.521 56.522 0 63.043-6.522 6.522-26.087 2.174-28.261-15.217s-6.522-78.261-6.522-78.261v-36.956z" fill="#f9db9d"/><path d="M642.697 495.384l9.869 92.435-24.75 5.065-6.75-97.5z" fill="#34495e"/><path d="M629.316 482.634L638 591l-7.4 1.884z" fill="#2d3e50"/><path d="M598.602 445.134l8.021 8.02c2.49-.135 5.248-.215 8.33-.215 26.541 0 27.744 42.678 27.744 42.678h-12.544L634.701 621h-43.7c-3.75 0-6-7-6-7V463z" fill="#34495e"/><path d="M585 615h.25V465.001H585z" fill="#2d3e50"/><path d="M589.5 472.913a3.294 3.294 0 0 1 0 6.588zm0 35.481a3.293 3.293 0 1 0 0-6.587zm0 27.247a3.294 3.294 0 0 1 0 6.588zm.206 40.28a3.294 3.294 0 0 0 0-6.588z" fill="#f1c40f"/><path d="M530.252 480.019s-4.348 56.522-6.522 67.391c-2.174 10.87-6.52 56.522 0 63.043 6.522 6.522 26.087 2.174 28.261-15.217s6.522-78.261 6.522-78.261v-36.956z" fill="#f9db9d"/><path d="M527.303 495.384l-9.869 92.435 24.75 5.065 6.75-97.5z" fill="#34495e"/><path d="M540.684 482.634L532 591l7.4 1.884z" fill="#2d3e50"/><path d="M571.398 445.134l-8.021 8.02a152.548 152.548 0 0 0-8.33-.215c-26.541 0-27.744 42.678-27.744 42.678h12.544L535.299 621h43.7c3.75 0 6-7 6-7V463z" fill="#34495e"/><path d="M584.75 615h.25V465.001h-.25z" fill="#2d3e50"/><path d="M589.92 472.913a3.294 3.294 0 0 0 0 6.588zm0 35.481a3.293 3.293 0 1 1 0-6.587zm0 27.247a3.294 3.294 0 0 0 0 6.588zm-.207 40.28a3.294 3.294 0 0 1 0-6.588z" fill="#f1c40f"/><g fill="#2d3e50"><path d="M639.393 744.059s21.886 1.953 21.886 11.717v5.858h-68.346v-17.575zm-108.785 0s-21.886 1.953-21.886 11.717v5.858h68.346v-17.575z"/><path d="M639.018 744.059s21.886 1.953 21.886 11.717v5.858h-68.346v-17.575zm-108.035 0s-21.886 1.953-21.886 11.717v5.858h68.346v-17.575z"/></g><path d="M532.375 757h45.068v-12.941h-45.068zm60.182-.059h45.068V744h-45.068z" fill="#f9db9d"/><path d="M598.328 587.126h23v-1h-23zm-49.656-1h22.999v-1h-22.999z" fill="#2d3e50"/><path d="M583.952 127.864l-97.183 97.183 97.183 97.183 97.183-97.183z" fill="#a46abc"/><path d="M487.635 322.23h193.5v-97.183h-193.5z" fill="#a46abc"/><g fill="#9a59b5"><path d="M645.052 309h9.333v-3.5h-9.333zm18.667 0h9.333v-3.5h-9.333zm-37.333 0h9.333v-3.5h-9.333zm-18.667 0h9.333v-3.5h-9.333zm-37.333 0h9.333v-3.5h-9.333zm18.666 0h9.333v-3.5h-9.333zm-37.333 0h9.333v-3.5h-9.333zm-18.667 0h9.333v-3.5h-9.333zm-37.333 0h9.333v-3.5h-9.333zm18.667 0h9.333v-3.5h-9.333z"/><path d="M512.146 296.28a3.396 3.396 0 1 0 0-6.792 3.396 3.396 0 0 0 0 6.792m53.208 0a3.396 3.396 0 1 0 0-6.792 3.396 3.396 0 0 0 0 6.792m-27.504-38.49a3.396 3.396 0 1 0 0-6.793 3.396 3.396 0 0 0 0 6.793m66.45 38.49a3.396 3.396 0 1 0 0-6.792 3.396 3.396 0 0 0 0 6.792m53.207 0a3.396 3.396 0 1 0 0-6.792 3.396 3.396 0 0 0 0 6.792m-27.503-38.49a3.396 3.396 0 1 0 0-6.793 3.396 3.396 0 0 0 0 6.793"/></g><path d="M320.527 270.406l-23.274 13.438-1.109-1.92 23.274-13.438z" fill="#f39c11"/><path d="M341.817 256.834l-5.193 19.379-19.379-5.192 5.193-19.38z" fill="#f1c40f"/><path d="M280.936 233.358l-13.438 23.275-1.92-1.109 13.438-23.275z" fill="#f39c11"/><path d="M292.588 210.96l5.193 19.378-19.38 5.193-5.192-19.379z" fill="#f1c40f"/><path d="M109.473 270.406l23.274 13.438 1.109-1.92-23.274-13.438z" fill="#f39c11"/><path d="M88.183 256.834l5.193 19.379 19.379-5.192-5.193-19.38z" fill="#f1c40f"/><path d="M149.064 233.358l13.438 23.275 1.92-1.109-13.438-23.275z" fill="#f39c11"/><path d="M137.412 210.96l-5.193 19.378 19.38 5.193 5.192-19.379z" fill="#f1c40f"/><path d="M215 445c53.572 0 97-51.572 97-115.19C312 266.193 268.571 229 215 229c-53.572 0-97 37.193-97 100.81C118 393.428 161.428 445 215 445" fill="#2d3e50"/><path d="M215 400c53.572 0 97-16.288 97-72.08S268.571 237 215 237c-53.572 0-97 35.128-97 90.92S161.428 400 215 400" fill="#2d3e50"/><g fill="#f9db9d"><path d="M138.266 387.185c6.69 0 12.116-5.427 12.116-12.122s-5.425-12.123-12.116-12.123-12.116 5.428-12.116 12.123 5.425 12.122 12.116 12.122m153.468 0c6.691 0 12.116-5.427 12.116-12.122s-5.425-12.123-12.116-12.123-12.116 5.428-12.116 12.123 5.425 12.122 12.116 12.122"/></g><path d="M204.23 463.202h21.539v-18.099H204.23z" fill="#f9db9d"/><path d="M215 451.838c44.61 0 80.773-43.846 80.773-104.922S259.61 255 215 255s-80.773 30.84-80.773 91.916S170.39 451.838 215 451.838" fill="#f9db9d"/><g fill="#2d3e50"><path d="M177.556 371.281a8.193 8.193 0 0 0 8.19-8.195c0-4.527-3.666-8.196-8.19-8.196s-8.191 3.67-8.191 8.196a8.193 8.193 0 0 0 8.19 8.195m74.89 0a8.193 8.193 0 0 0 8.191-8.195c0-4.527-3.667-8.196-8.19-8.196s-8.192 3.67-8.192 8.196a8.193 8.193 0 0 0 8.191 8.195m-62.188 37.977c-.257.767-.415 1.553-.415 2.36 0 7.385 11.264 13.372 25.158 13.372 13.895 0 25.158-5.987 25.158-13.372 0-.807-.157-1.593-.415-2.36-2.1 6.258-12.366 11.013-24.743 11.013s-22.643-4.755-24.743-11.013"/><path d="M214.993 250c-69.468 2.459-88.202 52.625-81.594 113.451 0 0 .531-41.623 43.907-65.582 0 0 9.68-6.231 37.687-7.05s37.687 7.05 37.687 7.05c43.376 23.959 43.907 65.582 43.907 65.582 6.608-60.826-12.126-110.992-81.594-113.451"/><path d="M215 308.567c32.063 0 58.055-6.43 58.055-14.363 0-7.932-25.992-14.363-58.055-14.363s-58.055 6.431-58.055 14.363c0 7.933 25.992 14.363 58.055 14.363"/></g><path d="M294.242 440.815c1.98 0 3.586-12.495 3.586-27.908 0-15.412-1.606-27.907-3.586-27.907s-3.586 12.495-3.586 27.907c0 15.413 1.606 27.908 3.586 27.908m-160.015 0c1.98 0 3.586-12.495 3.586-27.908 0-15.412-1.606-27.907-3.586-27.907s-3.586 12.495-3.586 27.907c0 15.413 1.606 27.908 3.586 27.908" fill="#f1c40f"/><path d="M257.463 487.795s0 29.633 2.692 40.408c2.693 10.776 10.77 78.122 5.385 83.51s-10.77 0-13.462 0-13.462-123.918-13.462-123.918z" fill="#f9db9d"/><path d="M261.25 489v2L247 493v-2z" fill="#c74d40"/><path d="M261 491v2l-14.25 2v-2z" fill="#f3ca27"/><path d="M243.248 729.625l-1.018 17.534.018.003 3 3c1 1 0 2-6 1-5.055-.843-10.094-2.477-11.562-2.973l-.438-.027s-.039-6.708-.235-18.537z" fill="#f9db9d"/><path d="M243.17 749.1s24.986 11.062 11.118 11.062H229.36c-3.307 0-2.153-12.123-2.153-12.123z" fill="#2d3e50"/><path d="M215 740.6l.14-181.35h37.844l1.675 181.35z" fill="#a46abc"/><path d="M215 726.393h19.205V559.249H215z" fill="#9a59b5"/><path d="M223.21 710.358l8.07 9.001-8.07 9-8.07-9zm0-36l8.07 9-8.07 9-8.07-9zm0-36.003l8.07 9.001-8.07 9-8.07-9zm-.14-36.001l8.07 9-8.07 9.001-8.07-9.001z" fill="#a46abc"/><path d="M223.21 692.358l8.07 9-8.07 9-8.07-9zm0-36.002l8.07 9-8.07 9.001-8.07-9zm0-36.001l8.07 9-8.07 9-8.07-9zm0-36.002l8.07 9-8.07 9.001-8.07-9z" fill="#a46abc"/><path d="M236.629 690.985h14.511v-2.714h-14.511zm0 5.43h14.511V693.7h-14.511zm0 5.429h14.511v-2.715h-14.511zm0 5.429h14.511v-2.714h-14.511zm0 4.799h14.511v-2.715h-14.511zm0 5.429h14.511v-2.714h-14.511zm0 5.429h14.511v-2.714h-14.511zm0 5.43h14.511v-2.715h-14.511zm-.43-79.747h14.511v-2.714h-14.511zm0 5.43h14.511v-2.714h-14.511zm0 5.43h14.511v-2.715h-14.511zm0 5.429h14.511v-2.715h-14.511zm0 4.799h14.511v-2.715h-14.511zm0 5.429h14.511v-2.715h-14.511zm0 5.429h14.511v-2.714h-14.511zm0 5.43h14.511v-2.715h-14.511zm.102-79.291h14.511v-2.715h-14.511zm0 5.429h14.511v-2.715h-14.511zm0 5.429h14.511v-2.714h-14.511zm0 5.43h14.511v-2.715h-14.511zm0 4.798h14.511v-2.714h-14.511zm0 5.43h14.511v-2.715h-14.511zm0 5.429h14.511v-2.715h-14.511zm0 5.429h14.511v-2.714h-14.511z" fill="#9a59b5"/><path d="M223.07 565.863l8.07 9-8.07 9.001-8.07-9z" fill="#a46abc"/><path d="M236.199 569.772h14.511v-2.715h-14.511zm0 5.429h14.511v-2.715h-14.511zm0 5.429h14.511v-2.714h-14.511zm0 5.43h14.511v-2.715h-14.511zm0 4.798h14.511v-2.714h-14.511zm0 5.43h14.511v-2.715h-14.511zm0 5.429h14.511v-2.715h-14.511zm0 5.429h14.511v-2.714h-14.511z" fill="#9a59b5"/><path d="M215.14 478.806h17.993v-24.654H215.14z" fill="#f9db9d"/><path d="M252 555l-37-1.126V476l12.501-21.847c5.371 0 21.131.483 22 .847 3.562 1.174 5.656 5.628 7.822 13.937C261.25 484 261.25 489 261.25 489L247 491c2 15-2 13-1 24" fill="#34495e"/><path d="M237 454.152L225 477v82.25h-10V476l12-21.848z" fill="#c74d40"/><path d="M230 454.152L218 476l-1 83.25h-2V476l12-21.848z" fill="#f3ca27"/><path d="M215 559.249h37.984v-10.75H215z" fill="#f39c11"/><path d="M172.537 487.795s0 29.633-2.692 40.408c-2.693 10.776-10.77 78.122-5.385 83.51s10.77 0 13.462 0 13.462-123.918 13.462-123.918z" fill="#f9db9d"/><path d="M168.75 489v2l14.25 2v-2z" fill="#c74d40"/><path d="M169 491v2l14.25 2v-2z" fill="#f3ca27"/><path d="M186.752 729.625l1.018 17.534-.018.003-3 3c-1 1 0 2 6 1 5.055-.843 10.094-2.477 11.562-2.973l.438-.027s.039-6.708.235-18.537z" fill="#f9db9d"/><path d="M186.83 749.1s-24.986 11.062-11.118 11.062h24.927c3.307 0 2.153-12.123 2.153-12.123z" fill="#2d3e50"/><path d="M215 740.6l-.14-181.35h-37.844l-1.675 181.35z" fill="#a46abc"/><path d="M195.795 726.393H215V559.249h-19.205z" fill="#9a59b5"/><path d="M206.79 710.358l-8.07 9.001 8.07 9 8.07-9zm0-36l-8.07 9 8.07 9 8.07-9zm0-36.003l-8.07 9.001 8.07 9 8.07-9zm.14-36.001l-8.07 9 8.07 9.001 8.07-9.001z" fill="#a46abc"/><path d="M206.79 692.358l-8.07 9 8.07 9 8.07-9zm0-36.002l-8.07 9 8.07 9.001 8.07-9zm0-36.001l-8.07 9 8.07 9 8.07-9zm0-36.002l-8.07 9 8.07 9.001 8.07-9z" fill="#a46abc"/><path d="M178.86 690.985h14.511v-2.714H178.86zm0 5.43h14.511V693.7H178.86zm0 5.429h14.511v-2.715H178.86zm0 5.429h14.511v-2.714H178.86zm0 4.799h14.511v-2.715H178.86zm0 5.429h14.511v-2.714H178.86zm0 5.429h14.511v-2.714H178.86zm0 5.43h14.511v-2.715H178.86zm.43-79.747h14.511v-2.714H179.29zm0 5.43h14.511v-2.714H179.29zm0 5.43h14.511v-2.715H179.29zm0 5.429h14.511v-2.715H179.29zm0 4.799h14.511v-2.715H179.29zm0 5.429h14.511v-2.715H179.29zm0 5.429h14.511v-2.714H179.29zm0 5.43h14.511v-2.715H179.29zm-.102-79.291h14.511v-2.715h-14.511zm0 5.429h14.511v-2.715h-14.511zm0 5.429h14.511v-2.714h-14.511zm0 5.43h14.511v-2.715h-14.511zm0 4.798h14.511v-2.714h-14.511zm0 5.43h14.511v-2.715h-14.511zm0 5.429h14.511v-2.715h-14.511zm0 5.429h14.511v-2.714h-14.511z" fill="#9a59b5"/><path d="M206.93 565.863l-8.07 9 8.07 9.001 8.07-9z" fill="#a46abc"/><path d="M179.29 569.772h14.511v-2.715H179.29zm0 5.429h14.511v-2.715H179.29zm0 5.429h14.511v-2.714H179.29zm0 5.43h14.511v-2.715H179.29zm0 4.798h14.511v-2.714H179.29zm0 5.43h14.511v-2.715H179.29zm0 5.429h14.511v-2.715H179.29zm0 5.429h14.511v-2.714H179.29z" fill="#9a59b5"/><path d="M196.867 478.806h17.993v-24.654h-17.993z" fill="#f9db9d"/><path d="M178 555l37-1.126V476l-12.501-21.847c-5.371 0-21.131.483-22 .847-3.562 1.174-5.656 5.628-7.823 13.937C168.75 484 168.75 489 168.75 489l14.25 2c-2 15 2 13 1 24" fill="#34495e"/><path d="M193 454.152L205 477v82.25h10V476l-12-21.848z" fill="#c74d40"/><path d="M200 454.152L212 476l1 83.25h2V476l-12-21.848z" fill="#f3ca27"/><path d="M177.016 559.249H215v-10.75h-37.984z" fill="#f39c11"/></g></svg>