<svg height="800" width="800" xmlns="http://www.w3.org/2000/svg"><g fill="none" fill-rule="evenodd"><path d="m215 463c53.572 0 97-22.584 97-99.94 0-77.355-43.429-126.06-97-126.06-53.572 0-97 48.705-97 126.06 0 77.356 43.428 99.94 97 99.94" fill="#2d3e50"/><path d="m215 370.081c46.944 0 85-33.685 85-75.236 0-41.552-38.056-65.845-85-65.845-46.945 0-85 24.293-85 65.845 0 41.551 38.056 75.236 85 75.236" fill="#2d3e50"/><path d="m138.266 387.185c6.69 0 12.116-5.427 12.116-12.122s-5.425-12.123-12.116-12.123-12.116 5.428-12.116 12.123 5.425 12.122 12.116 12.122m153.468 0c6.691 0 12.116-5.427 12.116-12.122s-5.425-12.123-12.116-12.123-12.116 5.428-12.116 12.123 5.425 12.122 12.116 12.122" fill="#f9db9d"/><path d="m204.23 463.202h21.539v-18.099h-21.539z" fill="#f9db9d"/><path d="m215 451.838c44.61 0 80.773-43.846 80.773-104.922s-36.163-91.916-80.773-91.916-80.773 30.84-80.773 91.916 36.163 104.922 80.773 104.922m0 33.324c5.948 0 10.77-20.472 10.77-21.96 0-1.487-4.822-2.694-10.77-2.694s-10.77 1.207-10.77 2.694c0 1.488 4.822 21.96 10.77 21.96" fill="#f9db9d"/><g fill="#2d3e50"><path d="m177.556 371.281a8.193 8.193 0 0 0 8.19-8.195c0-4.527-3.666-8.196-8.19-8.196s-8.191 3.67-8.191 8.196a8.193 8.193 0 0 0 8.19 8.195m74.89 0a8.193 8.193 0 0 0 8.191-8.195c0-4.527-3.667-8.196-8.19-8.196s-8.192 3.67-8.192 8.196a8.193 8.193 0 0 0 8.191 8.195m-62.188 37.977c-.257.767-.415 1.553-.415 2.36 0 7.385 11.264 13.372 25.158 13.372 13.895 0 25.158-5.987 25.158-13.372 0-.807-.157-1.593-.415-2.36-2.1 6.258-12.366 11.013-24.743 11.013s-22.643-4.755-24.743-11.013"/><path d="m214.993 250c-69.468 2.459-88.202 52.625-81.594 113.451 0 0 .531-41.623 43.907-65.582 0 0 9.68-6.231 37.687-7.05s37.687 7.05 37.687 7.05c43.376 23.959 43.907 65.582 43.907 65.582 6.608-60.826-12.126-110.992-81.594-113.451"/><path d="m215 308.567c32.063 0 58.055-6.43 58.055-14.363 0-7.932-25.992-14.363-58.055-14.363s-58.055 6.431-58.055 14.363c0 7.933 25.992 14.363 58.055 14.363"/></g><path d="m260.155 528.203c2.693 10.775 10.77 78.121 5.385 83.51-5.385 5.386-10.77 0-13.462 0-2.192 0-9.734-82.096-12.465-112.643l-24.613 2.93v-47.848h12c35.837-1.838 28.074 18.66 29.977 33.643 0 0 .486 29.633 3.178 40.408" fill="#f9db9d"/><path d="m258.816 584.777c-6.727 1.553-12.32 2.2-12.496 1.441-.175-.757 5.137-2.628 11.863-4.18 6.727-1.556 12.321-2.2 12.496-1.443.175.758-5.136 2.627-11.863 4.182m0-6.258c-6.727 1.553-12.32 2.2-12.496 1.441-.175-.757 5.137-2.628 11.863-4.18 6.727-1.556 12.321-2.2 12.496-1.443.175.758-5.136 2.627-11.863 4.182m.684 11.897c-6.727 1.553-12.32 2.199-12.496 1.441-.175-.757 5.137-2.628 11.863-4.181 6.727-1.555 12.321-2.199 12.496-1.442.175.758-5.136 2.627-11.863 4.182" fill="#f1c40f"/><path d="m243.248 729.625-1.018 17.534.018.003 3 3c1 1 0 2-6 1-5.055-.843-10.094-2.477-11.562-2.973l-.438-.027s-.039-6.708-.235-18.537z" fill="#f9db9d"/><path d="m243.17 749.1s24.986 11.062 11.118 11.062h-24.928c-3.307 0-2.153-12.123-2.153-12.123z" fill="#2d3e50"/><path d="m215.14 478.806h17.993v-24.654h-17.993z" fill="#f9db9d"/><path d="m215 561v-76h31c7 14 .641 21.023 0 30l-.288 4c-1.695 23.347 3.712 41.053 5.288 55 6 53.107 2 170.894 2 170.894h-37.86z" fill="#425161"/><path d="m249.001 493.536-2.834 2.834-2.834-2.834 2.834-2.834zm-17.001 0-2.833 2.833-2.834-2.834 2.833-2.833z" fill="#f39c11"/><path d="m243.333 493.537-2.832 2.832-2.834-2.834 2.832-2.832zm-16.999-.002-2.834 2.834-2.833-2.833 2.834-2.834z" fill="#e84c3d"/><path d="m237.667 493.536-2.834 2.834-2.834-2.834 2.834-2.834zm-17 0-2.833 2.833-2.833-2.833 2.833-2.833z" fill="#ecf0f1"/><path d="m241.667 548.076h5.333l-2.667 7.75zm-8 7.75 2.666-7.75h-5.333zm2.666-7.75h5.334l-2.667 7.75zm-8 7.75 2.667-7.75h-5.333zm-8-7.75h5.334l-2.667 7.75zm-2.666 7.75 2.666-7.75h-5.333zm26.5 12.686h5.833l-2.917 8.476zm-8.75 8.476 2.916-8.476h-5.833zm2.916-8.476h5.834l-2.917 8.476zm-8.75 8.476 2.917-8.476h-5.833zm-8.75-8.476h5.834l-2.917 8.476zm-2.916 8.476 2.916-8.476h-5.833z" fill="#f39c11"/><path d="m215 502.404 1.406-1.406 1.407 1.406-1.407 1.406zm4.219 1.406-1.406-1.406 1.406-1.406 1.406 1.406zm2.813 0-1.407-1.406 1.407-1.406 1.406 1.406zm2.812 0-1.406-1.406 1.406-1.406 1.407 1.406zm2.813 0-1.406-1.406 1.406-1.406 1.406 1.406zm2.813 0-1.407-1.406 1.407-1.406 1.406 1.406zm3.06 0-1.406-1.406 1.406-1.406 1.407 1.406zm2.813 0-1.406-1.406 1.406-1.406 1.406 1.406zm2.813 0-1.407-1.406 1.407-1.406 1.406 1.406 1.406-1.406 1.407 1.406-1.407 1.406-1.406-1.406zm5.625 0-1.406-1.406 1.406-1.406 1.406 1.406zm2.813 0-1.407-1.406 1.407-1.406 1.406 1.406z" fill="#ecf0f1"/><path d="m215 509.844 1.324-1.324 1.323 1.324-1.323 1.322zm3.971 1.322-1.324-1.322 1.324-1.324 1.323 1.324zm2.647 0-1.324-1.322 1.324-1.324 1.324 1.324zm2.647 0-1.323-1.322 1.323-1.324 1.324 1.324zm2.647 0-1.323-1.322 1.323-1.324 1.324 1.324zm2.648 0-1.324-1.322 1.324-1.324 1.323 1.324zm2.88 0-1.323-1.322 1.323-1.324 1.324 1.324zm2.648 0-1.324-1.322 1.324-1.324 1.323 1.324zm2.647 0-1.324-1.322 1.324-1.324 1.323 1.324 1.324-1.324 1.324 1.324-1.324 1.322-1.324-1.322zm5.294 0-1.323-1.322 1.323-1.324 1.324 1.324zm2.647 0-1.323-1.322 1.323-1.324 1.324 1.324z" fill="#f39c11"/><path d="m215 560.766 1.406-1.406 1.407 1.406-1.407 1.406zm4.219 1.406-1.406-1.406 1.406-1.406 1.406 1.406zm2.813 0-1.407-1.406 1.407-1.406 1.406 1.406zm2.812 0-1.406-1.406 1.406-1.406 1.407 1.406zm2.813 0-1.406-1.406 1.406-1.406 1.406 1.406zm2.813 0-1.407-1.406 1.407-1.406 1.406 1.406zm3.06 0-1.406-1.406 1.406-1.406 1.407 1.406zm2.813 0-1.406-1.406 1.406-1.406 1.406 1.406zm2.813 0-1.407-1.406 1.407-1.406 1.406 1.406 1.406-1.406 1.407 1.406-1.407 1.406-1.406-1.406zm5.625 0-1.406-1.406 1.406-1.406 1.406 1.406zm2.813 0-1.407-1.406 1.407-1.406 1.406 1.406zm-32.454-21.504 1.276-1.277 1.277 1.277-1.277 1.275zm3.829 1.275-1.276-1.275 1.276-1.277 1.277 1.277zm2.553 0-1.276-1.275 1.276-1.277 1.277 1.277zm2.553 0-1.276-1.275 1.276-1.277 1.277 1.277zm2.553 0-1.276-1.275 1.276-1.277 1.277 1.277zm2.553 0-1.276-1.275 1.276-1.277 1.277 1.277zm2.778 0-1.276-1.275 1.276-1.277 1.277 1.277zm2.553 0-1.276-1.275 1.276-1.277 1.277 1.277zm2.553 0-1.276-1.275 1.276-1.277 1.277 1.277 1.276-1.277 1.276 1.277-1.276 1.275-1.276-1.275zm5.106 0-1.277-1.275 1.277-1.277 1.276 1.277zm2.553 0-1.277-1.275 1.277-1.277 1.276 1.277z" fill="#ecf0f1"/><path d="m215 517.203 1.282-1.283 1.282 1.283-1.282 1.281zm3.847 1.281-1.283-1.28 1.283-1.284 1.282 1.283zm2.564 0-1.282-1.28 1.282-1.284 1.282 1.283zm2.565 0-1.283-1.28 1.283-1.284 1.282 1.283zm2.564 0-1.282-1.28 1.282-1.284 1.282 1.283zm2.565 0-1.283-1.28 1.283-1.284 1.282 1.283zm2.79 0-1.282-1.28 1.282-1.284 1.283 1.283zm2.565 0-1.282-1.28 1.282-1.284 1.282 1.283zm2.564 0-1.282-1.28 1.282-1.284 1.283 1.283 1.282-1.283 1.282 1.283-1.282 1.281-1.282-1.28zm5.129 0-1.282-1.28 1.282-1.284 1.283 1.283zm2.565 0-1.282-1.28 1.282-1.284 1.282 1.283z" fill="#e84c3d"/><path d="m251.942 583.834c.264 3.242.502 6.637.715 10.166h-37.632l-.007-10.166zm2.075 47.166c.064 3.369.117 6.762.158 10.166h-39.115l-.007-10.166z" fill="#e84c3d"/><path d="m251.001 588.918-3 3-3-3 3-3zm-18.001 0-3 3-3-3 3-3zm12.001-.001-3 3-3-3 3-3zm-18.002.001-2.999 2.999-3-3 2.999-2.999z" fill="#ecf0f1"/><path d="m239 588.917-3.001 3.001-3-3 3.001-3.001zm-17.999.001-3 3-3-3 3-3zm33 47.165-3.25 3.25-3.25-3.25 3.25-3.25zm-19.501 0-3.25 3.25-3.25-3.25 3.25-3.25zm13.001-.001-3.25 3.25-3.25-3.25 3.25-3.25zm-19.502.001-3.249 3.249-3.25-3.25 3.249-3.249z" fill="#ecf0f1"/><path d="m241 636.082-3.251 3.251-3.25-3.25 3.251-3.251zm-19.499.001-3.25 3.25-3.25-3.25 3.25-3.25z" fill="#ecf0f1"/><path d="m252.657 607.001-3.138 3.138-3.137-3.138 3.137-3.138zm-18.829 0-3.138 3.138-3.137-3.138 3.137-3.138zm12.554-.001-3.138 3.138-3.137-3.138 3.137-3.138zm-18.83.001-3.138 3.138-3.137-3.138 3.137-3.138zm12.554-.001-3.14 3.139-3.137-3.138 3.138-3.139zm-18.829 0-3.139 3.139-3.137-3.138 3.138-3.139z" fill="#e84c3d"/><path d="m253.994 702a2856.18 2856.18 0 0 1 -.214 12.176h-38.664l-.009-12.176zm-.994 42.893h-37.86l-.016-18.893h38.398c-.278 11.668-.523 18.893-.523 18.893z" fill="#e84c3d"/><path d="m254.204 685c-.019 2.088-.04 4.148-.064 6.178h-39.04l-.006-6.178z" fill="#f39c11"/><path d="m215 619.553h39.306v-2.553h-39.306zm39.001 68.536-3.25 3.25-3.25-3.25 3.25-3.25zm-19.501 0-3.25 3.25-3.25-3.25 3.25-3.25zm13.001-.001-3.25 3.25-3.25-3.25 3.25-3.25zm-19.502 0-3.249 3.25-3.25-3.25 3.249-3.25z" fill="#ecf0f1"/><path d="m241 688.088-3.251 3.25-3.25-3.25 3.251-3.25zm-19.499 0-3.25 3.25-3.25-3.25 3.25-3.25z" fill="#ecf0f1"/><path d="m169.845 528.203c-2.693 10.775-10.77 78.121-5.385 83.51 5.385 5.386 10.77 0 13.462 0 2.192 0 9.734-82.096 12.465-112.643l24.613 2.93v-47.848h-12c-35.837-1.838-28.074 18.66-29.977 33.643 0 0-.486 29.633-3.178 40.408" fill="#f9db9d"/><path d="m171.184 584.777c6.727 1.553 12.32 2.2 12.496 1.441.175-.757-5.137-2.628-11.863-4.18-6.727-1.556-12.321-2.2-12.496-1.443-.175.758 5.136 2.627 11.863 4.182m0-6.258c6.727 1.553 12.32 2.2 12.496 1.441.175-.757-5.137-2.628-11.863-4.18-6.727-1.555-12.321-2.2-12.496-1.442s5.136 2.627 11.863 4.182m-.684 11.896c6.727 1.553 12.32 2.199 12.496 1.441.175-.757-5.137-2.628-11.863-4.181-6.727-1.555-12.321-2.199-12.496-1.442-.175.758 5.136 2.627 11.863 4.182" fill="#f1c40f"/><path d="m186.752 729.625 1.018 17.534-.018.003-3 3c-1 1 0 2 6 1 5.055-.843 10.094-2.477 11.562-2.973l.438-.027s.039-6.708.235-18.537z" fill="#f9db9d"/><path d="m186.83 749.1s-24.986 11.062-11.118 11.062h24.927c3.307 0 2.153-12.123 2.153-12.123z" fill="#2d3e50"/><path d="m196.867 478.806h17.993v-24.654h-17.993z" fill="#f9db9d"/><path d="m215 561v-76h-31c-7 14-.641 21.023 0 30l.288 4c1.695 23.347-3.712 41.053-5.288 55-6 53.107-2 170.894-2 170.894h37.86z" fill="#425161"/><path d="m180.999 493.536 2.834 2.834 2.834-2.834-2.834-2.834zm17.001 0 2.833 2.833 2.834-2.834-2.833-2.833z" fill="#f39c11"/><path d="m186.667 493.537 2.832 2.832 2.834-2.834-2.832-2.832zm16.999-.002 2.834 2.834 2.833-2.833-2.834-2.834z" fill="#e84c3d"/><path d="m192.333 493.536 2.834 2.834 2.834-2.834-2.834-2.834zm17 0 2.833 2.833 2.833-2.833-2.833-2.833z" fill="#ecf0f1"/><path d="m188.333 548.076h-5.333l2.667 7.75zm8 7.75-2.666-7.75h5.333zm-2.666-7.75h-5.334l2.667 7.75zm8 7.75-2.667-7.75h5.333zm8-7.75h-5.334l2.667 7.75zm2.666 7.75-2.666-7.75h5.333zm-26.5 12.686h-5.833l2.917 8.476zm8.75 8.476-2.916-8.476h5.833zm-2.916-8.476h-5.834l2.917 8.476zm8.75 8.476-2.917-8.476h5.833zm8.75-8.476h-5.834l2.917 8.476zm2.916 8.476-2.916-8.476h5.833z" fill="#f39c11"/><path d="m215 502.404-1.406-1.406-1.407 1.406 1.407 1.406zm-4.219 1.406 1.406-1.406-1.406-1.406-1.406 1.406zm-2.813 0 1.407-1.406-1.407-1.406-1.406 1.406zm-2.812 0 1.406-1.406-1.406-1.406-1.407 1.406zm-2.813 0 1.406-1.406-1.406-1.406-1.406 1.406zm-2.813 0 1.407-1.406-1.407-1.406-1.406 1.406zm-3.06 0 1.406-1.406-1.406-1.406-1.407 1.406zm-2.813 0 1.406-1.406-1.406-1.406-1.406 1.406zm-2.813 0 1.407-1.406-1.407-1.406-1.406 1.406-1.406-1.406-1.407 1.406 1.407 1.406 1.406-1.406zm-5.625 0 1.406-1.406-1.406-1.406-1.406 1.406zm-2.813 0 1.407-1.406-1.407-1.406-1.406 1.406z" fill="#ecf0f1"/><path d="m215 509.844-1.324-1.324-1.323 1.324 1.323 1.322zm-3.971 1.322 1.324-1.322-1.324-1.324-1.323 1.324zm-2.647 0 1.324-1.322-1.324-1.324-1.324 1.324zm-2.647 0 1.323-1.322-1.323-1.324-1.324 1.324zm-2.647 0 1.323-1.322-1.323-1.324-1.324 1.324zm-2.648 0 1.324-1.322-1.324-1.324-1.323 1.324zm-2.88 0 1.323-1.322-1.323-1.324-1.324 1.324zm-2.648 0 1.324-1.322-1.324-1.324-1.323 1.324zm-2.647 0 1.324-1.322-1.324-1.324-1.323 1.324-1.324-1.324-1.324 1.324 1.324 1.322 1.324-1.322zm-5.294 0 1.323-1.322-1.323-1.324-1.324 1.324zm-2.647 0 1.323-1.322-1.323-1.324-1.324 1.324z" fill="#f39c11"/><path d="m215 560.766-1.406-1.406-1.407 1.406 1.407 1.406zm-4.219 1.406 1.406-1.406-1.406-1.406-1.406 1.406zm-2.813 0 1.407-1.406-1.407-1.406-1.406 1.406zm-2.812 0 1.406-1.406-1.406-1.406-1.407 1.406zm-2.813 0 1.406-1.406-1.406-1.406-1.406 1.406zm-2.813 0 1.407-1.406-1.407-1.406-1.406 1.406zm-3.06 0 1.406-1.406-1.406-1.406-1.407 1.406zm-2.813 0 1.406-1.406-1.406-1.406-1.406 1.406zm-2.813 0 1.407-1.406-1.407-1.406-1.406 1.406-1.406-1.406-1.407 1.406 1.407 1.406 1.406-1.406zm-5.625 0 1.406-1.406-1.406-1.406-1.406 1.406zm-2.813 0 1.407-1.406-1.407-1.406-1.406 1.406zm32.454-21.504-1.276-1.277-1.277 1.277 1.277 1.275zm-3.829 1.275 1.276-1.275-1.276-1.277-1.277 1.277zm-2.553 0 1.276-1.275-1.276-1.277-1.277 1.277zm-2.553 0 1.276-1.275-1.276-1.277-1.277 1.277zm-2.553 0 1.276-1.275-1.276-1.277-1.277 1.277zm-2.553 0 1.276-1.275-1.276-1.277-1.277 1.277zm-2.778 0 1.276-1.275-1.276-1.277-1.277 1.277zm-2.553 0 1.276-1.275-1.276-1.277-1.277 1.277zm-2.553 0 1.276-1.275-1.276-1.277-1.277 1.277-1.276-1.277-1.276 1.277 1.276 1.275 1.276-1.275zm-5.106 0 1.277-1.275-1.277-1.277-1.276 1.277zm-2.553 0 1.277-1.275-1.277-1.277-1.276 1.277z" fill="#ecf0f1"/><path d="m215 517.203-1.282-1.283-1.282 1.283 1.282 1.281zm-3.847 1.281 1.283-1.28-1.283-1.284-1.282 1.283zm-2.564 0 1.282-1.28-1.282-1.284-1.282 1.283zm-2.565 0 1.283-1.28-1.283-1.284-1.282 1.283zm-2.564 0 1.282-1.28-1.282-1.284-1.282 1.283zm-2.565 0 1.283-1.28-1.283-1.284-1.282 1.283zm-2.79 0 1.282-1.28-1.282-1.284-1.283 1.283zm-2.565 0 1.282-1.28-1.282-1.284-1.282 1.283zm-2.564 0 1.282-1.28-1.282-1.284-1.283 1.283-1.282-1.283-1.282 1.283 1.282 1.281 1.282-1.28zm-5.129 0 1.282-1.28-1.282-1.284-1.283 1.283zm-2.565 0 1.282-1.28-1.282-1.284-1.282 1.283z" fill="#e84c3d"/><path d="m178.058 583.834a487.333 487.333 0 0 0 -.715 10.166h37.632l.007-10.166zm-2.075 47.166a1463.71 1463.71 0 0 0 -.159 10.166h39.115l.008-10.166z" fill="#e84c3d"/><path d="m178.999 588.918 3 3 3-3-3-3zm18.001 0 3 3 3-3-3-3zm-12.001-.001 3 3 3-3-3-3zm18.002.001 2.999 2.999 3-3-2.999-2.999z" fill="#ecf0f1"/><path d="m191 588.917 3.001 3.001 3-3-3.001-3.001zm17.999.001 3 3 3-3-3-3zm-33 47.165 3.25 3.25 3.25-3.25-3.25-3.25zm19.501 0 3.25 3.25 3.25-3.25-3.25-3.25zm-13.001-.001 3.25 3.25 3.25-3.25-3.25-3.25zm19.502.001 3.249 3.249 3.25-3.25-3.249-3.249z" fill="#ecf0f1"/><path d="m189 636.082 3.251 3.251 3.25-3.25-3.251-3.251zm19.499.001 3.25 3.25 3.25-3.25-3.25-3.25z" fill="#ecf0f1"/><path d="m177.343 607.001 3.138 3.138 3.137-3.138-3.137-3.138zm18.829 0 3.138 3.138 3.137-3.138-3.137-3.138zm-12.554-.001 3.138 3.138 3.137-3.138-3.137-3.138zm18.83.001 3.138 3.138 3.137-3.138-3.137-3.138zm-12.554-.001 3.14 3.139 3.137-3.138-3.138-3.139zm18.829 0 3.139 3.139 3.137-3.138-3.138-3.139z" fill="#e84c3d"/><path d="m176.006 702c.066 4.289.139 8.359.214 12.176h38.664l.009-12.176zm.994 42.893h37.86l.015-18.893h-38.398c.278 11.668.523 18.893.523 18.893z" fill="#e84c3d"/><path d="m175.796 685c.019 2.088.04 4.148.064 6.178h39.04l.006-6.178z" fill="#f39c11"/><path d="m175.694 619.553h39.306v-2.553h-39.306zm.305 68.536 3.25 3.25 3.25-3.25-3.25-3.25zm19.501 0 3.25 3.25 3.25-3.25-3.25-3.25zm-13.001-.001 3.25 3.25 3.25-3.25-3.25-3.25zm19.502 0 3.249 3.25 3.25-3.25-3.249-3.25z" fill="#ecf0f1"/><path d="m189 688.088 3.251 3.25 3.25-3.25-3.251-3.25zm19.499 0 3.25 3.25 3.25-3.25-3.25-3.25z" fill="#ecf0f1"/><path d="m126.15 313.813h177.7v-12.521h-177.7z" fill="#f39c11"/><path d="m149.553 262.088a44.481 44.481 0 0 0 -1.553 11.6c0 29.949 29.997 54.226 67 54.226 37.004 0 67-24.277 67-54.226a44.48 44.48 0 0 0 -1.552-11.6c-6.565 15.78-33.366 27.604-65.448 27.604-32.081 0-58.882-11.823-65.447-27.604" fill="#f1c40f"/><path d="m179 458s6.262-2.979 9.175-3.635 13.835-.656 13.835-.656l44.126 73h-25.195z" fill="#c1392b"/><path d="m246 581.292v-48.292h-22.743v48.292h1.752v-7.204h1.752v7.204h1.752v-7.204h1.752v7.204h1.752v-7.204h1.735v7.204h1.752v-7.204h1.753v7.204h1.752v-7.204h1.734v7.204h1.753v-7.204h1.752v7.204z" fill="#c1392b"/><g fill="#f1c40f"><path d="m196.197 453.582c-.008.699-.017 1.396-.017 2.102 0 33.193 8.426 60.101 18.82 60.101s18.82-26.908 18.82-60.101c0-.706-.01-1.403-.017-2.102h-1.597c.008.699.017 1.396.017 2.102 0 30.375-7.711 55-17.223 55s-17.222-24.625-17.222-55c0-.706.008-1.403.016-2.102z"/><path d="m196.197 453.582c-.008.602-.017 1.203-.017 1.809 0 28.56 8.426 51.712 18.82 51.712s18.82-23.152 18.82-51.712c0-.606-.01-1.207-.017-1.809h-1.597c.008.602.017 1.203.017 1.809 0 26.136-7.711 47.324-17.223 47.324s-17.222-21.188-17.222-47.324c0-.606.008-1.207.016-1.809z"/><path d="m196.197 453.582c-.008.496-.017.988-.017 1.486 0 23.481 8.426 42.514 18.82 42.514s18.82-19.033 18.82-42.514c0-.498-.01-.99-.017-1.486h-1.597c.008.494.017.988.017 1.486 0 21.489-7.711 38.907-17.223 38.907s-17.222-17.418-17.222-38.907c0-.498.008-.992.016-1.486z"/></g><path d="m215 533.334h31v-9h-31z" fill="#f4a629"/><path d="m215 520.834c8.522 0 15.43 3.582 15.43 8s-6.908 8-15.43 8z" fill="#f1c40f"/><path d="m184 533.334h31v-9h-31z" fill="#f4a629"/><path d="m215 520.834c-8.522 0-15.43 3.582-15.43 8s6.908 8 15.43 8z" fill="#f1c40f"/><path d="m570.84 461.88h28.32v-23.797h-28.32z" fill="#f9db9d"/><path d="m585 465.422c7.82 0 14.16-1.586 14.16-3.542s-6.34-3.542-14.16-3.542-14.16 1.586-14.16 3.542 6.34 3.542 14.16 3.542m90.217-86.939c7.204 0 13.043-5.84 13.043-13.043 0-7.204-5.839-13.044-13.043-13.044s-13.043 5.84-13.043 13.044c0 7.203 5.839 13.043 13.043 13.043m-180.434 0c7.204 0 13.043-5.84 13.043-13.043 0-7.204-5.839-13.044-13.043-13.044s-13.043 5.84-13.043 13.044c0 7.203 5.839 13.043 13.043 13.043" fill="#f9db9d"/><path d="m585 405.678c52.827 0 108.457-29.678 92.108-97.304-8.906-36.84-39.281-76.24-92.108-76.24s-91.07 60.74-93.526 76.24c-11.348 71.626 40.699 97.304 93.526 97.304" fill="#2d3e50"/><path d="m585 446.418c47.424 0 85.869-41.851 85.869-93.478 0-51.626-38.445-100-85.869-100s-85.869 48.374-85.869 100c0 51.627 38.445 93.478 85.869 93.478" fill="#f9db9d"/><path d="m549.477 362.099c4.346 0 7.869-3.525 7.869-7.873s-3.523-7.873-7.87-7.873-7.868 3.525-7.868 7.873 3.523 7.873 7.869 7.873m71.942 0c4.346 0 7.869-3.525 7.869-7.873s-3.523-7.873-7.87-7.873-7.868 3.525-7.868 7.873 3.523 7.873 7.869 7.873m-59.74 36.482c-.248.737-.4 1.492-.4 2.267 0 7.095 10.821 12.846 24.168 12.846 13.348 0 24.17-5.75 24.17-12.846 0-.775-.153-1.53-.4-2.267-2.018 6.012-11.88 10.58-23.77 10.58-11.889 0-21.75-4.568-23.769-10.58m-31.07 345.478s-21.886 1.953-21.886 11.717v5.858h68.346v-17.575z" fill="#2d3e50"/><path d="m529.877 480.019s-4.348 56.522-6.522 67.391c-2.174 10.87-6.52 56.522 0 63.043 6.522 6.522 26.087 2.174 28.261-15.217s6.522-78.261 6.522-78.261v-36.956z" fill="#f9db9d"/><path d="m526.928 495.384-9.869 92.435 24.75 5.065 6.75-97.5z" fill="#e84c3d"/><path d="m540.31 482.634-4.387 109.366 3.1.884z" fill="#c1392b"/><path d="m584.625 458.634v124.5s-1.566 6-5.316 6-39.837-.158-39.837-.158v-93.358h-12.544s1.204-42.678 27.744-42.678 29.953 5.694 29.953 5.694" fill="#e84c3d"/><path d="m562.924 456 12 15 9.326-12z" fill="#cd6155"/><path d="m571.023 445.134-9.546 9.546 13.602 13.602 9.546-9.546z" fill="#e84c3d"/><path d="m584.625 583.884h.375v-125.25h-.375z" fill="#c1392b"/><path d="m539.025 572.575h45.975v-17.575h-45.975z" fill="#f1c40f"/><path d="m538.375 744.059h46.625v-171.484h-46.625z" fill="#2d3e50"/><path d="m577.068 744.059h7.932v-171.484h-7.932z" fill="#c1392b"/><path d="m566.659 744h7.932v-171.484h-7.932z" fill="#8d44ad"/><path d="m581.034 610.683-3.175-3.175 3.176-3.176 3.175 3.175zm.001-19.054-3.177-3.177 3.176-3.176 3.177 3.177zm0 12.702-3.177-3.177 3.176-3.176 3.177 3.177z" fill="#ecf0f1"/><path d="m581.034 585.277-3.176-3.176 3.176-3.176 3.176 3.176zm0 12.703-3.175-3.175 3.176-3.175 3.175 3.175zm.001-19.054-3.176-3.176 3.175-3.175 3.176 3.176zm0 107.971-3.176-3.175 3.176-3.175 3.175 3.175zm0-19.052-3.177-3.176 3.176-3.176 3.176 3.176zm.001 12.702-3.177-3.177 3.175-3.175 3.177 3.177zm-.002-19.055-3.175-3.175 3.176-3.176 3.175 3.175z" fill="#ecf0f1"/><path d="m581.034 674.195-3.175-3.175 3.176-3.176 3.175 3.175zm0-19.053-3.175-3.175 3.176-3.176 3.175 3.175zm0-6.352-3.175-3.175 3.176-3.176 3.175 3.175zm.001-19.054-3.177-3.177 3.175-3.175 3.177 3.177zm0 12.702-3.176-3.176 3.176-3.176 3.176 3.176zm0-19.053-3.176-3.175 3.176-3.176 3.175 3.175z" fill="#ecf0f1"/><path d="m581.034 636.088-3.175-3.175 3.176-3.176 3.175 3.175zm.001-19.055-3.175-3.175 3.175-3.175 3.175 3.175zm0 107.973-3.177-3.177 3.176-3.176 3.177 3.177zm0-19.053-3.177-3.177 3.176-3.176 3.177 3.177zm0 12.7-3.177-3.175 3.176-3.176 3.175 3.175zm0-19.053-3.176-3.175 3.176-3.176 3.175 3.175z" fill="#ecf0f1"/><path d="m581.034 712.303-3.175-3.175 3.176-3.176 3.175 3.175zm0-19.054-3.176-3.176 3.176-3.176 3.176 3.176zm0 50.81-3.176-3.175 3.176-3.176 3.176 3.176zm.001-6.351-3.177-3.177 3.176-3.176 3.177 3.177z" fill="#ecf0f1"/><path d="m581.033 731.356-3.175-3.175 3.176-3.176 3.175 3.175z" fill="#ecf0f1"/><g fill="#f39c11"><path d="m558.952 610.107-3.175-3.175 3.176-3.176 3.175 3.175zm.001-19.053-3.177-3.177 3.176-3.176 3.177 3.177zm0 12.702-3.177-3.177 3.176-3.176 3.177 3.177z"/><path d="m558.952 584.702-3.176-3.176 3.176-3.176 3.176 3.176zm0 12.703-3.175-3.175 3.176-3.176 3.175 3.175zm.001-19.054-3.176-3.176 3.175-3.175 3.176 3.176zm0 107.971-3.176-3.175 3.176-3.176 3.175 3.175zm0-19.053-3.177-3.176 3.176-3.176 3.176 3.176zm.001 12.703-3.177-3.177 3.175-3.175 3.177 3.177zm-.002-19.055-3.175-3.175 3.176-3.176 3.175 3.175z"/><path d="m558.952 673.62-3.175-3.175 3.176-3.176 3.175 3.175zm0-19.054-3.175-3.175 3.176-3.176 3.175 3.175zm0-6.351-3.175-3.175 3.176-3.176 3.175 3.175zm.001-19.054-3.177-3.177 3.175-3.175 3.177 3.177zm0 12.702-3.176-3.176 3.176-3.176 3.176 3.176zm0-19.053-3.176-3.175 3.176-3.176 3.175 3.175z"/><path d="m558.952 635.513-3.175-3.175 3.176-3.176 3.175 3.175zm.001-19.055-3.175-3.175 3.175-3.175 3.175 3.175zm0 107.973-3.177-3.177 3.176-3.176 3.177 3.177zm0-19.053-3.177-3.177 3.176-3.176 3.177 3.177zm0 12.7-3.177-3.175 3.176-3.176 3.175 3.175zm0-19.054-3.176-3.175 3.176-3.176 3.175 3.175z"/><path d="m558.952 711.727-3.175-3.175 3.176-3.176 3.175 3.175zm0-19.053-3.176-3.176 3.176-3.176 3.176 3.176zm0 50.81-3.176-3.176 3.176-3.176 3.176 3.176zm.001-6.351-3.177-3.177 3.176-3.176 3.177 3.177z"/><path d="m558.951 730.781-3.175-3.175 3.176-3.176 3.175 3.175zm15.674 13.278h2.443v-171.484h-2.443z"/></g><path d="m539.938 690.504h10.38v-3.667h-10.38zm0 7.336h10.38v-3.667h-10.38zm0 7.336h10.38v-3.668h-10.38zm0 7.334h10.38v-3.667h-10.38zm0 6.484h10.38v-3.667h-10.38zm0 7.336h10.38v-3.668h-10.38zm0 7.334h10.38v-3.667h-10.38zm0 7.336h10.38v-3.667h-10.38zm.307-107.741h10.38v-3.667h-10.38zm0 7.336h10.38v-3.667h-10.38zm0 7.336h10.38v-3.668h-10.38zm0 7.334h10.38v-3.667h-10.38zm0 6.484h10.38v-3.668h-10.38zm0 7.335h10.38v-3.667h-10.38zm0 7.335h10.38v-3.667h-10.38zm0 7.336h10.38v-3.668h-10.38zm-.073-107.126h10.38v-3.668h-10.38zm0 7.335h10.38v-3.667h-10.38zm0 7.335h10.38v-3.667h-10.38zm0 7.336h10.38v-3.668h-10.38zm0 6.483h10.38v-3.667h-10.38zm0 7.335h10.38v-3.667h-10.38zm0 7.336h10.38v-3.668h-10.38zm0 7.335h10.38v-3.667h-10.38z" fill="#c1392b"/><path d="m639.392 744.059s21.886 1.953 21.886 11.717v5.858h-68.346v-17.575z" fill="#2d3e50"/><path d="m640.123 480.019s4.348 56.522 6.522 67.391c2.174 10.87 6.52 56.522 0 63.043-6.522 6.522-26.087 2.174-28.261-15.217s-6.522-78.261-6.522-78.261v-36.956z" fill="#f9db9d"/><path d="m643.072 495.384 9.869 92.435-24.75 5.065-6.75-97.5z" fill="#e84c3d"/><path d="m629.69 482.634 4.387 109.366-3.1.884z" fill="#c1392b"/><path d="m585.375 458.634v124.5s1.566 6 5.316 6 39.837-.158 39.837-.158v-93.358h12.544s-1.204-42.678-27.744-42.678-29.953 5.694-29.953 5.694" fill="#e84c3d"/><path d="m607.076 456-12 15-9.326-12z" fill="#cd6155"/><path d="m598.977 445.134 9.546 9.546-13.602 13.602-9.546-9.546z" fill="#e84c3d"/><path d="m585 583.884h.375v-125.25h-.375z" fill="#c1392b"/><path d="m585 572.575h45.975v-17.575h-45.975z" fill="#f1c40f"/><path d="m585 744.059h46.625v-171.484h-46.625z" fill="#2d3e50"/><path d="m585 744.059h7.932v-171.484h-7.932z" fill="#c1392b"/><path d="m595.409 744h7.932v-171.484h-7.932z" fill="#8d44ad"/><path d="m588.966 610.683 3.175-3.175-3.176-3.176-3.175 3.175zm-.001-19.054 3.177-3.177-3.176-3.176-3.177 3.177zm0 12.702 3.177-3.177-3.176-3.176-3.177 3.177z" fill="#ecf0f1"/><path d="m588.966 585.277 3.176-3.176-3.176-3.176-3.176 3.176zm0 12.703 3.175-3.175-3.176-3.175-3.175 3.175zm-.001-19.054 3.176-3.176-3.175-3.175-3.176 3.176zm0 107.971 3.176-3.175-3.176-3.175-3.175 3.175zm0-19.052 3.177-3.176-3.176-3.176-3.176 3.176zm-.001 12.702 3.177-3.177-3.175-3.175-3.177 3.177zm.002-19.055 3.175-3.175-3.176-3.176-3.175 3.175z" fill="#ecf0f1"/><path d="m588.966 674.195 3.175-3.175-3.176-3.176-3.175 3.175zm0-19.053 3.175-3.175-3.176-3.176-3.175 3.175zm0-6.352 3.175-3.175-3.176-3.176-3.175 3.175zm-.001-19.054 3.177-3.177-3.175-3.175-3.177 3.177zm0 12.702 3.176-3.176-3.176-3.176-3.176 3.176zm0-19.053 3.176-3.175-3.176-3.176-3.175 3.175z" fill="#ecf0f1"/><path d="m588.966 636.088 3.175-3.175-3.176-3.176-3.175 3.175zm-.001-19.055 3.175-3.175-3.175-3.175-3.175 3.175zm0 107.973 3.177-3.177-3.176-3.176-3.177 3.177zm0-19.053 3.177-3.177-3.176-3.176-3.177 3.177zm0 12.7 3.177-3.175-3.176-3.176-3.175 3.175zm0-19.053 3.176-3.175-3.176-3.176-3.175 3.175z" fill="#ecf0f1"/><path d="m588.966 712.303 3.175-3.175-3.176-3.176-3.175 3.175zm0-19.054 3.176-3.176-3.176-3.176-3.176 3.176zm0 50.81 3.176-3.175-3.176-3.176-3.176 3.176zm-.001-6.351 3.177-3.177-3.176-3.176-3.177 3.177z" fill="#ecf0f1"/><path d="m588.967 731.356 3.175-3.175-3.176-3.176-3.175 3.175z" fill="#ecf0f1"/><g fill="#f39c11"><path d="m611.048 610.107 3.175-3.175-3.176-3.176-3.175 3.175zm-.001-19.053 3.177-3.177-3.176-3.176-3.177 3.177zm0 12.702 3.177-3.177-3.176-3.176-3.177 3.177z"/><path d="m611.048 584.702 3.176-3.176-3.176-3.176-3.176 3.176zm0 12.703 3.175-3.175-3.176-3.176-3.175 3.175zm-.001-19.054 3.176-3.176-3.175-3.175-3.176 3.176zm0 107.971 3.176-3.175-3.176-3.176-3.175 3.175zm0-19.053 3.177-3.176-3.176-3.176-3.176 3.176zm-.001 12.703 3.177-3.177-3.175-3.175-3.177 3.177zm.002-19.055 3.175-3.175-3.176-3.176-3.175 3.175z"/><path d="m611.048 673.62 3.175-3.175-3.176-3.176-3.175 3.175zm0-19.054 3.175-3.175-3.176-3.176-3.175 3.175zm0-6.351 3.175-3.175-3.176-3.176-3.175 3.175zm-.001-19.054 3.177-3.177-3.175-3.175-3.177 3.177zm0 12.702 3.176-3.176-3.176-3.176-3.176 3.176zm0-19.053 3.176-3.175-3.176-3.176-3.175 3.175z"/><path d="m611.048 635.513 3.175-3.175-3.176-3.176-3.175 3.175zm-.001-19.055 3.175-3.175-3.175-3.175-3.175 3.175zm0 107.973 3.177-3.177-3.176-3.176-3.177 3.177zm0-19.053 3.177-3.177-3.176-3.176-3.177 3.177zm0 12.7 3.177-3.175-3.176-3.176-3.175 3.175zm0-19.054 3.176-3.175-3.176-3.176-3.175 3.175z"/><path d="m611.048 711.727 3.175-3.175-3.176-3.176-3.175 3.175zm0-19.053 3.176-3.176-3.176-3.176-3.176 3.176zm0 50.81 3.176-3.176-3.176-3.176-3.176 3.176zm-.001-6.351 3.177-3.177-3.176-3.176-3.177 3.177z"/><path d="m611.049 730.781 3.175-3.175-3.176-3.176-3.175 3.175zm-18.117 13.278h2.443v-171.484h-2.443z"/></g><path d="m619.682 690.504h10.38v-3.667h-10.38zm0 7.336h10.38v-3.667h-10.38zm0 7.336h10.38v-3.668h-10.38zm0 7.334h10.38v-3.667h-10.38zm0 6.484h10.38v-3.667h-10.38zm0 7.336h10.38v-3.668h-10.38zm0 7.334h10.38v-3.667h-10.38zm0 7.336h10.38v-3.667h-10.38zm-.307-107.741h10.38v-3.667h-10.38zm0 7.336h10.38v-3.667h-10.38zm0 7.336h10.38v-3.668h-10.38zm0 7.334h10.38v-3.667h-10.38zm0 6.484h10.38v-3.668h-10.38zm0 7.335h10.38v-3.667h-10.38zm0 7.335h10.38v-3.667h-10.38zm0 7.336h10.38v-3.668h-10.38zm.073-107.126h10.38v-3.668h-10.38zm0 7.335h10.38v-3.667h-10.38zm0 7.335h10.38v-3.667h-10.38zm0 7.336h10.38v-3.668h-10.38zm0 6.483h10.38v-3.667h-10.38zm0 7.335h10.38v-3.667h-10.38zm0 7.336h10.38v-3.668h-10.38zm0 7.335h10.38v-3.667h-10.38z" fill="#c1392b"/><path d="m539.4 456.241s8.544-2.262 12.518-3.187c3.974-.924 18.877-.924 18.877-.924l60.205 102.87h-34.375zm60.568 165.759h31.032v-49.425h-31.031z" fill="#3598db"/><path d="m600 630.593h2.388v-12.854h-2.388zm9.553 0h2.388v-12.854h-2.388zm9.529 0h2.388v-12.854h-2.388zm-14.305 0h2.388v-12.854h-2.388zm23.835 0h2.388v-12.854h-2.388zm-14.306 0h2.388v-12.854h-2.388zm9.529 0h2.388v-12.854h-2.388z" fill="#3598db"/><path d="m477 321.434 89-202.434 111.5 167.434z" fill="#f39c11"/><path d="m446.25 322.434s231.25-23 277.5-64l3.25 9.566s-39.5 42.434-280.75 62.434z" fill="#f1c40f"/></g></svg>