<svg height="800" width="800" xmlns="http://www.w3.org/2000/svg" xmlns:xlink="http://www.w3.org/1999/xlink"><mask id="a" fill="#fff"><path d="m1 800h800v-800h-800z" fill="#fff" fill-rule="evenodd"/></mask><mask id="b" fill="#fff"><path d="m0 800h800v-800h-800z" fill="#fff" fill-rule="evenodd"/></mask><mask id="c" fill="#fff"><path d="m0 800h800v-800h-800z" fill="#fff" fill-rule="evenodd"/></mask><mask id="d" fill="#fff"><path d="m0 800h800v-800h-800z" fill="#fff" fill-rule="evenodd"/></mask><g fill="none" fill-rule="evenodd"><path d="m215 413c47.496 0 86-17.587 86-77.829s-38.504-98.171-86-98.171c-47.498 0-86 37.929-86 98.171s38.504 77.829 86 77.829" fill="#2d3e50"/><path d="m138.266 387.185c6.69 0 12.116-5.427 12.116-12.122s-5.425-12.123-12.116-12.123-12.116 5.428-12.116 12.123 5.425 12.122 12.116 12.122m153.468 0c6.691 0 12.116-5.427 12.116-12.122s-5.425-12.123-12.116-12.123c-6.69 0-12.116 5.428-12.116 12.123s5.425 12.122 12.116 12.122" fill="#f9db9d"/><path d="m204.23 463.202h21.539v-18.099h-21.539z" fill="#f9db9d"/><g transform="translate(-1)"><path d="m216 451.838c44.61 0 80.773-43.846 80.773-104.922s-36.163-91.916-80.773-91.916-80.773 30.84-80.773 91.916 36.163 104.922 80.773 104.922" fill="#f9db9d"/><path d="m178.556 371.281a8.193 8.193 0 0 0 8.19-8.195 8.193 8.193 0 0 0 -8.19-8.196 8.193 8.193 0 0 0 -8.191 8.196 8.193 8.193 0 0 0 8.19 8.195m74.89 0a8.193 8.193 0 0 0 8.191-8.195 8.193 8.193 0 0 0 -8.19-8.196 8.193 8.193 0 0 0 -8.192 8.196 8.193 8.193 0 0 0 8.191 8.195m-62.188 37.977c-.257.767-.415 1.553-.415 2.36 0 7.385 11.264 13.372 25.158 13.372 13.895 0 25.158-5.987 25.158-13.372 0-.807-.157-1.593-.415-2.36-2.1 6.258-12.366 11.013-24.743 11.013s-22.643-4.755-24.743-11.013" fill="#2d3e50"/><path d="m215.993 250c-69.468 2.459-88.202 52.625-81.594 113.451 0 0 .531-41.623 43.907-65.582 0 0 9.68-6.231 37.687-7.05s37.687 7.05 37.687 7.05c43.376 23.959 43.907 65.582 43.907 65.582 6.608-60.826-12.126-110.992-81.594-113.451" fill="#2d3e50"/><path d="m170.845 528.203c-2.693 10.775-10.77 78.121-5.385 83.51 5.385 5.386 10.77 0 13.462 0 2.192 0 9.734-82.096 12.465-112.643l24.613 2.93v-47.848h-12c-35.837-1.838-28.074 18.66-29.977 33.643 0 0-.486 29.633-3.178 40.408" fill="#f9db9d"/><path d="m172.184 584.777c6.727 1.553 12.32 2.2 12.496 1.441.175-.757-5.137-2.628-11.863-4.18-6.727-1.556-12.321-2.2-12.496-1.443-.175.758 5.136 2.627 11.863 4.182m0-6.258c6.727 1.553 12.32 2.2 12.496 1.442.175-.758-5.137-2.629-11.863-4.182-6.727-1.554-12.321-2.198-12.496-1.442-.175.759 5.136 2.628 11.863 4.183m-.684 11.896c6.726 1.553 12.32 2.199 12.495 1.441.175-.757-5.137-2.628-11.863-4.181-6.727-1.555-12.32-2.199-12.495-1.442-.175.758 5.136 2.627 11.863 4.182" fill="#f1c40f"/><path d="m187.752 630 1.018 117.16-.018.002-3 3c-1 1 0 2 6 1 5.055-.842 10.094-2.477 11.562-2.972l.438-.028s2.916-106.333 3.112-118.162z" fill="#f9db9d"/><path d="m187.83 749.1s-24.986 11.062-11.118 11.062h24.927c3.307 0 2.153-12.123 2.153-12.123z" fill="#f9db9d"/><path d="m180 574c-1.685 14.913-2.581 34.927-2.999 56h38.947l.052-69v-3.5h-33.34c-1.043 6.035-2.097 11.513-2.66 16.5" fill="#f4a629"/><path d="m216 557.5v-72.5h-31c-7 14-.641 21.023 0 30l.288 4c1.089 14.998-.753 27.659-2.628 38.5z" fill="#d6651a"/><path d="m214 634h2v-76.5h-2zm-4.568 0h2v-76.5h-2zm-4.568 0h2v-76.5h-2zm-4.568 0h2v-76.5h-2zm-3.795 0h2v-76.5h-2zm-3.796 0h2v-76.5h-2zm-12.963-57.494v57.494h2v-71.26c-.706 4.006-1.347 7.762-1.742 11.26-.091.805-.172 1.672-.258 2.506zm3.942 57.494h2v-76.5h-2zm4.14 0h2v-76.5h-2z" fill="#e67f22" mask="url(#a)"/></g><path d="m211.14 557.338h3.86v-72.338h-3.86zm-22.21 0h3.86v-72.338h-3.86z" fill="#f1c40f"/><path d="m211.14 557.338h.72v-72.338h-.72zm-22.21 0h.721v-72.338h-.721zm3.861 0h.721v-72.338h-.721z" fill="#ecf0f1"/><path d="m195.501 489.898h14.511v-4.898h-14.511zm0 9.797h14.511v-4.898h-14.511zm0 9.797h14.511v-4.898h-14.511zm0 9.797h14.511v-4.898h-14.511zm0 8.658h14.511v-4.898h-14.511zm0 9.797h14.511v-4.898h-14.511zm0 9.797h14.511v-4.898h-14.511zm0 9.796h14.511v-4.898h-14.511z" fill="#c1392b"/><path d="m174.93 469.807h3l4 7 5-7h2l-7 9zm7 14.209 7-9h-2l-5 7-4-7h-3zm-1.189 47.4a5.584 5.584 0 1 0 -11.168 0 5.584 5.584 0 0 0 11.168 0m-2.169.346a4 4 0 1 1 -8 0 4 4 0 0 1 8 0m-11.196 19.123-.216 2.057 9.12.959.215-2.057-9.119-.96zm8.792 4.068-.216 2.059-9.119-.96.216-2.058 9.12.959zm-9.447 2.168-.217 2.057 9.12.959.216-2.057-9.119-.96zm34.364 105.295a5.584 5.584 0 1 0 -11.168 0 5.584 5.584 0 0 0 11.168 0m-2.169.346a4 4 0 1 1 -8 0 4 4 0 0 1 8 0m-10.416 25.215h3l4 7 5-7h2l-7 9zm7 14.209 7-9h-2l-5 7-4-7h-3z" fill="#ecf0f1"/><path d="m194 473 3.871-6 1.129 13 5-9 .5 11 4.5-5.5 1.012 9.5 3.058-10 1.93 13v-14l-10-8-8.547-12.963z" fill="#2d3e50"/><path d="m215 472s-12.953-5-14.709-17.963h-3.838s6.303 18.963 18.547 20.963z" fill="#d25400"/><path d="m212.621 473.76a1 1 0 1 0 0-2 1 1 0 0 0 0 2m-5.33-3.662a1 1 0 1 1 2 0 1 1 0 0 1 -2 0m-2.708-2.996a1 1 0 1 0 0-2 1 1 0 0 0 0 2" fill="#ecf0f1"/><path d="m260.156 528.203c2.693 10.775 10.77 78.121 5.385 83.51-5.385 5.386-10.77 0-13.462 0-2.192 0-9.734-82.096-12.465-112.643l-24.613 2.93v-47.848h12c35.837-1.838 28.074 18.66 29.977 33.643 0 0 .486 29.633 3.178 40.408" fill="#f9db9d"/><path d="m258.817 584.777c-6.727 1.553-12.32 2.2-12.496 1.441-.175-.757 5.137-2.628 11.863-4.18 6.727-1.556 12.321-2.2 12.496-1.443.175.758-5.136 2.627-11.863 4.182m0-6.258c-6.727 1.553-12.32 2.2-12.496 1.442-.175-.758 5.137-2.629 11.863-4.182 6.727-1.554 12.321-2.198 12.496-1.442.175.759-5.136 2.628-11.863 4.183m.685 11.896c-6.728 1.553-12.322 2.199-12.496 1.441-.175-.757 5.137-2.628 11.862-4.181 6.728-1.555 12.322-2.199 12.497-1.442.174.758-5.137 2.627-11.863 4.182" fill="#f1c40f"/><path d="m243.249 630-1.018 117.16.018.002 3 3c1 1 0 2-6 1-5.055-.842-10.094-2.477-11.562-2.972l-.438-.028s-2.916-106.333-3.112-118.162z" fill="#f9db9d"/><path d="m243.17 749.1s24.987 11.062 11.119 11.062h-24.927c-3.307 0-2.153-12.123-2.153-12.123l15.962 1.061z" fill="#f9db9d"/><path d="m251 574c1.686 14.913 2.582 34.927 3 56h-38.947l-.053-69v-3.5h33.34c1.043 6.035 2.097 11.513 2.66 16.5" fill="#e67f22"/><path d="m215 557.5v-72.5h31c7 14 .642 21.023 0 30-.101 1.428-.196 2.745-.287 4-1.09 14.998.753 27.659 2.628 38.5z" fill="#d6651a"/><path d="m215.001 634h2v-76.5h-2zm4.568 0h2v-76.5h-2zm4.568 0h2v-76.5h-2zm4.568 0h2v-76.5h-2zm3.795 0h2v-76.5h-2zm3.795 0h2v-76.5h-2zm14.964-57.494v57.494h-2v-71.26c.705 4.006 1.347 7.762 1.742 11.26.091.805.172 1.672.258 2.506zm-5.942 57.494h2v-76.5h-2zm-4.14 0h2v-76.5h-2z" fill="#f4a629" mask="url(#b)"/><path d="m215.001 557.338h3.86v-72.338h-3.86zm22.21 0h3.86v-72.338h-3.86z" fill="#f1c40f"/><path d="m218.14 557.338h.721v-72.338h-.721zm22.21 0h.721v-72.338h-.721zm-3.861 0h.721v-72.338h-.721z" fill="#ecf0f1"/><path d="m219.989 489.898h14.511v-4.898h-14.511zm0 9.797h14.511v-4.898h-14.511zm0 9.797h14.511v-4.898h-14.511zm0 9.797h14.511v-4.898h-14.511zm0 8.658h14.511v-4.898h-14.511zm0 9.797h14.511v-4.898h-14.511zm0 9.797h14.511v-4.898h-14.511zm0 9.796h14.511v-4.898h-14.511z" fill="#c1392b"/><path d="m255.07 469.807h-3l-4 7-5-7h-2l7 9zm-7 14.209-7-9h2l5 7 4-7h3zm1.19 47.4a5.584 5.584 0 1 1 11.168 0 5.584 5.584 0 0 1 -11.169 0m2.17.346a4 4 0 1 0 8 0 4 4 0 0 0 -8 0m11.196 19.123.216 2.057-9.12.959-.215-2.057 9.119-.96zm-8.792 4.068.215 2.059 9.12-.96-.216-2.058-9.12.959zm9.446 2.168.218 2.057-9.12.959-.216-2.057 9.118-.96zm-34.363 105.295a5.584 5.584 0 1 1 11.168 0 5.584 5.584 0 0 1 -11.168 0m2.169.346a4 4 0 1 0 8 0 4 4 0 0 0 -8 0m10.417 25.215h-3l-4 7-5-7h-2l7 9zm-7 14.209-7-9h2l5 7 4-7h3z" fill="#ecf0f1"/><path d="m236 473-3.87-6-1.13 13-5-9-.5 11-4.5-5.5-1.011 9.5-3.058-10-1.93 13v-14l10-8 8.547-12.963z" fill="#2d3e50"/><path d="m215 472s12.953-5 14.71-17.963h3.837s-6.303 18.963-18.547 20.963z" fill="#d25400"/><path d="m217.38 473.76a1 1 0 1 1 0-2 1 1 0 0 1 0 2m5.33-3.662a1 1 0 1 0 -2 0 1 1 0 0 0 2 0m2.708-2.996a1 1 0 1 1 0-2 1 1 0 0 1 0 2" fill="#ecf0f1"/><path d="m126.15 349h177.7v-52h-177.7z" fill="#f39c11"/><path d="m126.15 340h177.7v-34h-177.7z" fill="#2d3e50"/><path d="m164 323c0-9.389-7.611-17-17-17-9.39 0-17 7.611-17 17s7.61 17 17 17c9.389 0 17-7.611 17-17m-4.725 0c0 6.779-5.496 12.275-12.275 12.275-6.78 0-12.275-5.496-12.275-12.275s5.495-12.275 12.275-12.275 12.275 5.496 12.275 12.275m21.725 17c-9.39 0-17-7.611-17-17s7.61-17 17-17c9.389 0 17 7.611 17 17s-7.611 17-17 17m0-29.275c-6.78 0-12.275 5.496-12.275 12.275s5.495 12.275 12.275 12.275 12.275-5.496 12.275-12.275-5.496-12.275-12.275-12.275m51 12.275c0-9.389-7.611-17-17-17-9.39 0-17 7.611-17 17s7.61 17 17 17c9.389 0 17-7.611 17-17m-4.725 0c0 6.779-5.496 12.275-12.275 12.275-6.78 0-12.275-5.496-12.275-12.275s5.495-12.275 12.275-12.275 12.275 5.496 12.275 12.275m21.725 17c-9.39 0-17-7.611-17-17s7.61-17 17-17c9.389 0 17 7.611 17 17s-7.611 17-17 17m0-29.275c-6.78 0-12.275 5.496-12.275 12.275s5.496 12.275 12.275 12.275 12.275-5.496 12.275-12.275-5.496-12.275-12.275-12.275m51 12.275c0-9.389-7.611-17-17-17-9.39 0-17 7.611-17 17s7.61 17 17 17c9.389 0 17-7.611 17-17m-4.725 0c0 6.779-5.496 12.275-12.275 12.275-6.78 0-12.274-5.496-12.274-12.275s5.495-12.275 12.274-12.275 12.275 5.496 12.275 12.275" fill="#c1392b"/><path d="m215 291.11c7.732 0 14-21.938 14-49 0-27.064-6.268-49-14-49s-14 21.936-14 49c0 27.062 6.268 49 14 49" fill="#2dcc70"/><path d="m216.5 297-1.503-100-1.497 100z" fill="#ecf0f1"/><path d="m243 291.11c7.732 0 14-21.938 14-49 0-27.064-6.268-49-14-49s-14 21.936-14 49c0 27.062 6.268 49 14 49" fill="#e67f22"/><path d="m244.5 297-1.503-100-1.497 100z" fill="#ecf0f1"/><path d="m131 291.219c7.732 0 14-21.937 14-49s-6.268-49-14-49-14 21.937-14 49 6.268 49 14 49" fill="#e67f22"/><path d="m132.5 297.11-1.503-100-1.497 100z" fill="#ecf0f1"/><path d="m271 291.11c7.732 0 14-21.938 14-49 0-27.064-6.268-49-14-49s-14 21.936-14 49c0 27.062 6.268 49 14 49" fill="#f1c40f"/><path d="m272.5 297-1.503-100-1.497 100z" fill="#ecf0f1"/><path d="m159 291.219c7.732 0 14-21.937 14-49s-6.268-49-14-49-14 21.937-14 49 6.268 49 14 49" fill="#f1c40f"/><path d="m160.5 297.11-1.503-100-1.497 100z" fill="#ecf0f1"/><path d="m299 291c7.732 0 14-21.937 14-49s-6.268-49-14-49-14 21.937-14 49 6.268 49 14 49" fill="#3598db"/><path d="m300.5 296.89-1.503-100-1.497 100z" fill="#ecf0f1"/><path d="m187 291.11c7.732 0 14-21.938 14-49 0-27.064-6.268-49-14-49s-14 21.936-14 49c0 27.062 6.268 49 14 49" fill="#3598db"/><path d="m188.5 297-1.503-100-1.497 100z" fill="#ecf0f1"/><path d="m184.5 393a4.501 4.501 0 0 0 0-9 4.501 4.501 0 0 0 0 9m-18.5-5.814a4.5 4.5 0 0 1 4.5-4.5 4.5 4.5 0 1 1 0 9 4.501 4.501 0 0 1 -4.5-4.5m-7.368-4.5a4.5 4.5 0 1 0 0-9 4.5 4.5 0 0 0 0 9m86.868 10.314a4.501 4.501 0 0 1 0-9 4.501 4.501 0 0 1 0 9m18.5-5.814a4.5 4.5 0 0 0 -4.5-4.5 4.5 4.5 0 1 0 0 9c2.485 0 4.5-2.016 4.5-4.5m7.368-4.5a4.5 4.5 0 1 1 0-9 4.5 4.5 0 0 1 0 9" fill="#ecf0f1"/><g fill="#2d3e50"><path d="m604 230c-5.523 0-10-4.477-10-10s4.477-10 10-10 10 4.477 10 10-4.477 10-10 10m20 4c-5.523 0-10-4.477-10-10s4.477-10 10-10 10 4.477 10 10-4.477 10-10 10"/><path d="m641.25 244c-5.523 0-10-4.477-10-10s4.477-10 10-10 10 4.477 10 10-4.477 10-10 10"/><path d="m657.5 253c-5.523 0-10-4.477-10-10s4.477-10 10-10 10 4.477 10 10-4.477 10-10 10"/><path d="m667.5 268c-5.523 0-10-4.477-10-10s4.477-10 10-10 10 4.477 10 10-4.477 10-10 10"/><path d="m675 285c-5.523 0-10-4.477-10-10s4.477-10 10-10 10 4.477 10 10-4.477 10-10 10"/><path d="m678.26 303c-5.523 0-10-4.477-10-10s4.477-10 10-10 10 4.477 10 10-4.477 10-10 10"/><path d="m678 320c-5.523 0-10-4.477-10-10s4.477-10 10-10 10 4.477 10 10-4.477 10-10 10"/><path d="m678 338c-5.523 0-10-4.477-10-10s4.477-10 10-10 10 4.477 10 10-4.477 10-10 10"/><path d="m678 355c-5.523 0-10-4.477-10-10s4.477-10 10-10 10 4.477 10 10-4.477 10-10 10m-112-125c5.523 0 10-4.477 10-10s-4.477-10-10-10-10 4.477-10 10 4.477 10 10 10m-20 4c5.523 0 10-4.477 10-10s-4.477-10-10-10-10 4.477-10 10 4.477 10 10 10"/><path d="m528.75 244c5.523 0 10-4.477 10-10s-4.477-10-10-10-10 4.477-10 10 4.477 10 10 10"/><path d="m512.5 253c5.523 0 10-4.477 10-10s-4.477-10-10-10-10 4.477-10 10 4.477 10 10 10"/><path d="m502.5 268c5.523 0 10-4.477 10-10s-4.477-10-10-10-10 4.477-10 10 4.477 10 10 10"/><path d="m495 285c5.523 0 10-4.477 10-10s-4.477-10-10-10-10 4.477-10 10 4.477 10 10 10"/><path d="m491.74 303c5.523 0 10-4.477 10-10s-4.477-10-10-10-10 4.477-10 10 4.477 10 10 10"/><path d="m492 320c5.523 0 10-4.477 10-10s-4.477-10-10-10-10 4.477-10 10 4.477 10 10 10"/><path d="m492 338c5.523 0 10-4.477 10-10s-4.477-10-10-10-10 4.477-10 10 4.477 10 10 10"/><path d="m492 355c5.523 0 10-4.477 10-10s-4.477-10-10-10-10 4.477-10 10 4.477 10 10 10"/></g><path d="m570.84 460.247h28.32v-23.797h-28.32z" fill="#f9db9d"/><path d="m675.217 376.85c7.204 0 13.043-5.84 13.043-13.044s-5.839-13.044-13.043-13.044-13.043 5.84-13.043 13.044c0 7.203 5.839 13.043 13.043 13.043m-180.434 0c7.204 0 13.043-5.84 13.043-13.043 0-7.204-5.839-13.044-13.043-13.044s-13.043 5.84-13.043 13.044c0 7.203 5.839 13.043 13.043 13.043" fill="#f9db9d"/><path d="m585 404.045c52.827 0 95.652-.565 95.652-97.304 0-52.226-42.825-88.043-95.652-88.043s-95.652 35.817-95.652 88.042c0 94.565 42.825 97.304 95.652 97.304" fill="#2d3e50"/><path d="m585 444.784c47.424 0 85.869-41.851 85.869-93.478 0-51.626-38.445-100-85.869-100s-85.869 48.374-85.869 100c0 51.627 38.445 93.478 85.869 93.478" fill="#f9db9d"/><path d="m549.477 360.465a7.871 7.871 0 0 0 7.869-7.873 7.871 7.871 0 0 0 -7.87-7.873 7.871 7.871 0 0 0 -7.868 7.873 7.871 7.871 0 0 0 7.869 7.873m71.942 0a7.871 7.871 0 0 0 7.869-7.873 7.871 7.871 0 0 0 -7.87-7.873 7.871 7.871 0 0 0 -7.868 7.873 7.871 7.871 0 0 0 7.869 7.873m-59.74 36.483c-.248.737-.4 1.492-.4 2.267 0 7.095 10.821 12.846 24.168 12.846 13.348 0 24.17-5.751 24.17-12.846 0-.775-.153-1.53-.4-2.267-2.018 6.012-11.88 10.579-23.77 10.579-11.889 0-21.75-4.567-23.769-10.58" fill="#2d3e50"/><path d="m585 495v-40l-11.775-2.061c-2.489-.136-15.096 0-18.178 0-24.683 0-27.449 36.894-27.716 42.061h-.028l-4.145 56.552c-2.232 15.316-5.191 53.019.691 58.901 6.521 6.522 26.087 2.174 28.26-15.217 2.175-17.391 6.522-78.261 6.522-78.261v-21.975z" fill="#f9db9d"/><path d="m552.702 573h32.298v-87h-32.298zm-22.094 171.059s-21.886 1.953-21.886 11.717v5.858h68.346v-17.575z" fill="#f9db9d"/><path d="m585 613.332v-40.332h-46.999l2.999 172 36 1" fill="#f9db9d"/><path d="m546 456 13.5-3.121 25.5 47.121v24l-43.999 37 2.999-20 33-27z" fill="#eae9e7"/><path d="m555 383.658a4.501 4.501 0 0 0 0-9 4.501 4.501 0 0 0 0 9m-18.5-5.814a4.5 4.5 0 0 1 4.5-4.5 4.5 4.5 0 1 1 0 9 4.501 4.501 0 0 1 -4.5-4.5m-7.368-4.5a4.5 4.5 0 1 0 0-9 4.5 4.5 0 0 0 0 9" fill="#ecf0f1"/><path d="m526 518h17v-8h-17z" fill="#eae9e7"/><path d="m542 561 .036-1.363 1.964-63.637-5.999 90" fill="#ebd096"/><path d="m537.922 586.882c-2.203 23.393-3.375 54.787-3.922 87.843h50.932l.068-108.235v-5.49h-43.6c-1.364 9.466-2.741 18.06-3.478 25.882" fill="#f4a629"/><path d="m582.385 681h2.615v-120h-2.615zm-5.974 0h2.615v-120h-2.615zm-5.974 0h2.615v-120h-2.615zm-5.974 0h2.615v-120h-2.615zm-4.963 0h2.615v-120h-2.615zm-4.963 0h2.615v-120h-2.615zm-16.953-90.187v90.187h2.615v-111.779c-.922 6.281-1.76 12.174-2.277 17.662-.119 1.262-.225 2.621-.338 3.93zm5.156 90.187h2.615v-120h-2.615zm5.414 0h2.615v-120h-2.615z" fill="#e67f22" mask="url(#c)"/><path d="m531.001 478.02h3l4 7 5-7h2l-7 9zm7 14.209 7-9h-2l-5 7-4-7h-3z" fill="#ecf0f1"/><path d="m536.586 561a5.585 5.585 0 1 0 -11.169 0 5.585 5.585 0 0 0 11.169 0m-2.17.346a4 4 0 1 1 -8 0 4 4 0 0 1 8 0m36.501 145.072c0-6.307-5.111-11.418-11.418-11.418-6.305 0-11.417 5.111-11.417 11.418 0 6.305 5.113 11.416 11.417 11.416 6.306 0 11.418-5.111 11.418-11.416m-4.434.707a8.178 8.178 0 0 1 -16.356 0 8.18 8.18 0 1 1 16.356 0" fill="#ecf0f1"/><path d="m585 495v-40l11.775-2.061c2.489-.136 15.096 0 18.178 0 24.683 0 27.449 36.894 27.716 42.061h.028l4.145 56.552c2.232 15.316 5.191 53.019-.691 58.901-6.521 6.522-26.087 2.174-28.26-15.217-2.175-17.391-6.522-78.261-6.522-78.261v-21.975z" fill="#f9db9d"/><path d="m585 573h32.298v-87h-32.298zm54.392 171.059s21.886 1.953 21.886 11.717v5.858h-68.346v-17.575z" fill="#f9db9d"/><path d="m585 613.332v-40.332h46.999l-2.999 172-36 1" fill="#f9db9d"/><path d="m624 456-13.5-3.121-25.5 47.121v24l43.999 37-2.999-20-33-27z" fill="#eae9e7"/><path d="m615 383.658a4.501 4.501 0 0 1 0-9 4.501 4.501 0 0 1 0 9m18.5-5.814a4.5 4.5 0 0 0 -4.5-4.5 4.5 4.5 0 1 0 0 9c2.485 0 4.5-2.016 4.5-4.5m7.368-4.5a4.5 4.5 0 1 1 0-9 4.5 4.5 0 0 1 0 9" fill="#ecf0f1"/><path d="m627 518h17v-8h-17z" fill="#eae9e7"/><path d="m628 561-.036-1.363-1.964-63.637 5.999 90" fill="#ebd096"/><path d="m632.078 586.882c2.203 23.393 3.375 54.787 3.922 87.843h-50.932l-.068-108.235v-5.49h43.6c1.363 9.466 2.741 18.06 3.478 25.882" fill="#e67f22"/><path d="m585 681h2.615v-120h-2.615zm5.974 0h2.615v-120h-2.615zm5.974 0h2.615v-120h-2.615zm5.974 0h2.615v-120h-2.615zm4.963 0h2.615v-120h-2.615zm4.963 0h2.615v-120h-2.615zm19.568-90.187v90.187h-2.615v-111.779c.922 6.281 1.76 12.174 2.277 17.662.119 1.262.225 2.621.338 3.93zm-7.771 90.187h2.615v-120h-2.615zm-5.414 0h2.615v-120h-2.615z" fill="#f4a629" mask="url(#d)"/><path d="m638.999 478.02h-3l-4 7-5-7h-2l7 9zm-7 14.209-7-9h2l5 7 4-7h3z" fill="#ecf0f1"/><path d="m633.414 561a5.585 5.585 0 1 1 11.169 0 5.585 5.585 0 0 1 -11.169 0m2.17.346a4 4 0 1 0 8 0 4 4 0 0 0 -8 0m-36.503 145.072c0-6.307 5.113-11.418 11.417-11.418 6.306 0 11.418 5.111 11.418 11.418 0 6.305-5.111 11.416-11.418 11.416-6.305 0-11.417-5.111-11.417-11.416m4.435.707a8.178 8.178 0 1 0 16.357 0 8.178 8.178 0 0 0 -16.356 0" fill="#ecf0f1"/><path d="m585 228.697c5.523 0 10-4.477 10-10s-4.477-10-10-10-10 4.477-10 10 4.477 10 10 10" fill="#2d3e50"/></g></svg>