<svg height="800" width="800" xmlns="http://www.w3.org/2000/svg" xmlns:xlink="http://www.w3.org/1999/xlink"><mask id="a" fill="#fff"><path d="m0 800h800v-800h-800z" fill="#fff" fill-rule="evenodd"/></mask><mask id="b" fill="#fff"><path d="m0 800h800v-800h-800z" fill="#fff" fill-rule="evenodd"/></mask><g fill="none" fill-rule="evenodd"><g transform="translate(110 227)"><g fill="#2d3e50"><path d="m206 72.227c0-5.523-4.477-10-10-10-.129 0-.254.014-.382.018a9.96 9.96 0 0 0 2.882-7.018c0-5.523-4.477-10-10-10-.482 0-.953.045-1.417.11a9.939 9.939 0 0 0 1.417-5.11c0-5.523-4.477-10-10-10a9.96 9.96 0 0 0 -6.339 2.266 9.98 9.98 0 0 0 .089-1.266c0-5.523-4.477-10-10-10a9.989 9.989 0 0 0 -8.271 4.379 9.945 9.945 0 0 0 1.021-4.38c0-5.522-4.477-10-10-10s-10 4.478-10 10 4.477 10 10 10a9.99 9.99 0 0 0 8.271-4.38 9.947 9.947 0 0 0 -1.021 4.38c0 5.522 4.477 10 10 10a9.959 9.959 0 0 0 6.339-2.267 9.985 9.985 0 0 0 -.089 1.268c0 5.52 4.477 10 10 10 .482 0 .953-.047 1.417-.113a9.94 9.94 0 0 0 -1.417 5.113c0 5.52 4.477 10 10 10 .129 0 .254-.016.382-.02a9.965 9.965 0 0 0 -2.882 7.02c0 4.719 3.274 8.664 7.672 9.715a9.997 9.997 0 0 0 -4.393 7.912c-3.018 1.72-5.058 4.963-5.058 8.685 0 3.596 1.904 6.739 4.751 8.5-2.847 1.764-4.751 4.907-4.751 8.5 0 3.633 1.953 6.786 4.85 8.536-.036.318-.056.64-.061.965-2.864 1.757-4.789 4.894-4.789 8.5 0 3.609 1.922 6.755 4.788 8.515-.001.047-.007.092-.007.139-2.718 1.787-4.52 4.849-4.52 8.346a9.99 9.99 0 0 0 4.401 8.287c-4.393 1.054-7.662 4.998-7.662 9.713a9.966 9.966 0 0 0 2.882 7.019c-.127-.004-.253-.02-.382-.02-5.522 0-10 4.477-10 10 0 1.872.523 3.616 1.417 5.112a10.171 10.171 0 0 0 -1.417-.111c-5.522 0-10 4.476-10 9.999 0 .43.037.852.089 1.268a9.956 9.956 0 0 0 -6.339-2.267c-5.522 0-10 4.476-10 9.999 0 1.575.374 3.057 1.021 4.38a9.987 9.987 0 0 0 -8.271-4.38c-5.522 0-10 4.477-10 10 0 5.524 4.478 10 10 10 5.523 0 10-4.476 10-10a9.929 9.929 0 0 0 -1.021-4.38 9.987 9.987 0 0 0 8.271 4.38c5.523 0 10-4.476 10-10 0-.43-.036-.851-.089-1.267a9.96 9.96 0 0 0 6.339 2.267c5.523 0 10-4.476 10-10a9.937 9.937 0 0 0 -1.416-5.111c.464.067.934.112 1.416.112 5.523 0 10-4.477 10-10a9.97 9.97 0 0 0 -2.881-7.02c.127.006.252.02.381.02 5.523 0 10-4.477 10-10a9.987 9.987 0 0 0 -4.401-8.286c4.378-1.05 7.635-4.972 7.658-9.668a9.98 9.98 0 0 0 4.522-8.36c0-3.595-1.905-6.735-4.754-8.5 2.849-1.761 4.754-4.903 4.754-8.5 0-3.64-1.952-6.817-4.86-8.565.034-.301.055-.604.066-.91 2.872-1.756 4.794-4.911 4.794-8.524 0-3.543-1.854-6.64-4.633-8.414 2.927-1.744 4.893-4.932 4.893-8.586 0-4.717-3.268-8.66-7.661-9.715a9.986 9.986 0 0 0 4.401-8.285m-71-55c0-5.523-4.477-10-10-10s-10 4.477-10 10c0 5.52 4.477 10 10 10s10-4.48 10-10m-20.007-7.227c0-5.523-4.477-10-10-10s-10 4.477-10 10c0 5.524 4.477 10 10 10s10-4.476 10-10m-19.993 7.227c0-5.523-4.477-10-10-10s-10 4.477-10 10c0 5.52 4.477 10 10 10s10-4.48 10-10m-20 4c0-5.523-4.477-10-10-10s-10 4.477-10 10c0 1.572.374 3.055 1.021 4.379a9.987 9.987 0 0 0 -8.271-4.38c-5.523 0-10 4.478-10 10 0 .43.036.85.089 1.267a9.96 9.96 0 0 0 -6.339-2.266c-5.523 0-10 4.477-10 10 0 1.869.523 3.613 1.417 5.11a10.032 10.032 0 0 0 -1.417-.11c-5.523 0-10 4.477-10 10a9.96 9.96 0 0 0 2.882 7.018c-.128-.004-.253-.018-.382-.018-5.523 0-10 4.477-10 10a9.989 9.989 0 0 0 4.401 8.285c-4.393 1.055-7.661 4.998-7.661 9.715 0 3.654 1.966 6.842 4.893 8.586-2.779 1.775-4.633 4.87-4.633 8.414 0 3.613 1.923 6.768 4.794 8.525.012.305.033.61.066.909-2.908 1.748-4.86 4.925-4.86 8.566 0 3.596 1.905 6.738 4.754 8.502-2.848 1.761-4.754 4.901-4.754 8.498a9.983 9.983 0 0 0 4.522 8.359c.023 4.696 3.28 8.618 7.658 9.668a9.99 9.99 0 0 0 -4.401 8.286c0 5.523 4.477 10 10 10 .129 0 .254-.014.382-.02a9.966 9.966 0 0 0 -2.882 7.02c0 5.523 4.477 10 10 10 .482 0 .952-.045 1.416-.112a9.937 9.937 0 0 0 -1.416 5.11c0 5.525 4.477 10 10 10a9.96 9.96 0 0 0 6.339-2.266c-.053.416-.089.838-.089 1.267 0 5.524 4.477 10 10 10a9.987 9.987 0 0 0 8.271-4.38 9.929 9.929 0 0 0 -1.021 4.38c0 5.524 4.477 10 10 10s10-4.476 10-10c0-5.523-4.477-10-10-10a9.987 9.987 0 0 0 -8.271 4.38 9.943 9.943 0 0 0 1.021-4.38c0-5.523-4.477-10-10-10a9.956 9.956 0 0 0 -6.339 2.268c.053-.416.089-.838.089-1.268 0-5.523-4.477-10-10-10-.482 0-.953.047-1.417.112a9.928 9.928 0 0 0 1.417-5.111c0-5.524-4.477-10-10-10-.129 0-.254.015-.382.019a9.962 9.962 0 0 0 2.882-7.02c0-4.714-3.269-8.658-7.662-9.712a9.99 9.99 0 0 0 4.401-8.287c0-3.497-1.802-6.56-4.52-8.348 0-.045-.006-.09-.007-.137 2.866-1.758 4.788-4.906 4.788-8.515 0-3.606-1.925-6.743-4.788-8.5a10.263 10.263 0 0 0 -.062-.965c2.897-1.75 4.85-4.903 4.85-8.535 0-3.594-1.904-6.737-4.751-8.5 2.847-1.762 4.751-4.905 4.751-8.501 0-3.722-2.04-6.964-5.058-8.685a9.997 9.997 0 0 0 -4.393-7.912c4.398-1.052 7.672-4.996 7.672-9.715a9.965 9.965 0 0 0 -2.882-7.02c.128.004.253.02.382.02 5.523 0 10-4.48 10-10a9.94 9.94 0 0 0 -1.417-5.113c.464.066.935.113 1.417.113 5.523 0 10-4.48 10-10 0-.432-.036-.852-.089-1.268a9.96 9.96 0 0 0 6.339 2.268c5.523 0 10-4.48 10-10a9.933 9.933 0 0 0 -1.021-4.381 9.99 9.99 0 0 0 8.271 4.38c5.523 0 10-4.478 10-10m4.779 202.313c0 5.524 4.477 10 10 10s10-4.476 10-10c0-5.523-4.477-10-10-10s-10 4.477-10 10m30.442 0c0 5.524 4.478 10 10 10 5.523 0 10-4.476 10-10 0-5.523-4.477-10-10-10-5.522 0-10 4.477-10 10"/><path d="m105 217.749c53.572 0 97-20.76 97-91.87 0-71.106-43.429-115.879-97-115.879-53.573 0-97 44.773-97 115.88 0 71.11 43.428 91.87 97 91.87"/><path d="m105 186c47.496 0 86-17.587 86-77.829s-38.504-98.171-86-98.171c-47.497 0-86 37.929-86 98.171s38.504 77.829 86 77.829"/></g><path d="m28.266 160.185c6.69 0 12.116-5.427 12.116-12.122s-5.425-12.123-12.116-12.123-12.116 5.428-12.116 12.123 5.425 12.122 12.116 12.122m153.468 0c6.691 0 12.116-5.427 12.116-12.122s-5.425-12.123-12.116-12.123c-6.69 0-12.116 5.428-12.116 12.123s5.425 12.122 12.116 12.122" fill="#f9db9d"/></g><path d="m204.23 463.202h21.539v-18.099h-21.539z" fill="#f9db9d"/><g transform="translate(-1 250)"><path d="m216 201.838c44.61 0 80.773-43.846 80.773-104.922s-36.163-91.916-80.773-91.916-80.773 30.84-80.773 91.916 36.163 104.922 80.773 104.922" fill="#f9db9d"/><path d="m178.556 121.281a8.193 8.193 0 0 0 8.19-8.195 8.193 8.193 0 0 0 -8.19-8.196 8.193 8.193 0 0 0 -8.191 8.196 8.193 8.193 0 0 0 8.19 8.195m74.89 0a8.193 8.193 0 0 0 8.191-8.195 8.193 8.193 0 0 0 -8.19-8.196 8.193 8.193 0 0 0 -8.192 8.196 8.193 8.193 0 0 0 8.191 8.195m-62.188 37.977c-.257.767-.415 1.553-.415 2.36 0 7.385 11.264 13.372 25.158 13.372 13.895 0 25.158-5.987 25.158-13.372 0-.807-.157-1.593-.415-2.36-2.1 6.258-12.366 11.013-24.743 11.013s-22.643-4.755-24.743-11.013" fill="#2d3e50"/><path d="m215.993 0c-69.468 2.459-88.202 52.625-81.594 113.451 0 0 .531-41.623 43.907-65.582 0 0 9.68-6.231 37.687-7.05s37.687 7.05 37.687 7.05c43.376 23.959 43.907 65.582 43.907 65.582 6.608-60.826-12.126-110.992-81.594-113.451" fill="#2d3e50"/><path d="m185.5 143a4.501 4.501 0 0 0 0-9 4.501 4.501 0 0 0 0 9m-18.5-5.814a4.5 4.5 0 0 1 4.5-4.5 4.5 4.5 0 1 1 0 9 4.501 4.501 0 0 1 -4.5-4.5m-7.368-4.5a4.5 4.5 0 1 0 0-9 4.5 4.5 0 0 0 0 9m86.868 10.314a4.501 4.501 0 0 1 0-9 4.501 4.501 0 0 1 0 9m18.5-5.814a4.5 4.5 0 0 0 -4.5-4.5 4.5 4.5 0 1 0 0 9c2.485 0 4.5-2.016 4.5-4.5m7.368-4.5a4.5 4.5 0 1 1 0-9 4.5 4.5 0 0 1 0 9" fill="#ecf0f1"/><path d="m187.752 380 1.018 117.16-.018.002-3 3c-1 1 0 2 6 1 5.055-.842 10.094-2.477 11.562-2.972l.438-.028s2.916-106.333 3.112-118.162z" fill="#f9db9d"/><path d="m187.83 499.1s-24.986 11.062-11.118 11.062h24.927c3.307 0 2.153-12.123 2.153-12.123z" fill="#f9db9d"/><path d="m202.085 412.416a5.584 5.584 0 1 0 -11.168 0 5.584 5.584 0 0 0 11.168 0m-2.169.346a4 4 0 1 1 -8 0 4 4 0 0 1 8 0" fill="#ecf0f1"/></g><path d="m188.499 687.977h3l4 7 5-7h2l-7 9zm7 14.209 7-9h-2l-5 7-4-7h-3z" fill="#ecf0f1"/><g transform="translate(158 454)"><path d="m11.845 74.203c-2.693 10.775-10.77 78.121-5.385 83.51 5.385 5.386 10.77 0 13.462 0 2.192 0 9.734-82.096 12.465-112.643l24.613 2.93v-47.848h-12c-35.837-1.838-28.074 18.66-29.977 33.643 0 0-.486 29.633-3.178 40.408" fill="#f9db9d"/><path d="m13.184 130.777c6.727 1.553 12.32 2.2 12.496 1.441.175-.757-5.137-2.628-11.863-4.18-6.727-1.556-12.321-2.2-12.496-1.443-.175.758 5.136 2.627 11.863 4.182m0-6.257c6.727 1.553 12.32 2.199 12.496 1.44.175-.756-5.137-2.627-11.863-4.18-6.727-1.555-12.321-2.2-12.496-1.442s5.136 2.627 11.863 4.181m-.684 11.897c6.727 1.553 12.32 2.199 12.495 1.441.175-.757-5.137-2.628-11.863-4.181-6.726-1.555-12.32-2.199-12.495-1.442-.175.758 5.136 2.627 11.862 4.182" fill="#f1c40f"/></g><path d="m174.93 469.807h3l4 7 5-7h2l-7 9zm7 14.209 7-9h-2l-5 7-4-7h-3zm-1.189 47.4a5.584 5.584 0 1 0 -11.168 0 5.584 5.584 0 0 0 11.168 0m-2.169.346a4 4 0 1 1 -8 0 4 4 0 0 1 8 0m-11.196 19.123-.216 2.057 9.12.959.215-2.057-9.119-.96zm8.792 4.068-.216 2.059-9.119-.96.216-2.058 9.12.959zm-9.447 2.168-.217 2.057 9.12.959.216-2.057-9.119-.96z" fill="#ecf0f1"/><path d="m214.946 630.166.052-69v-76h-31c-7 14-.641 21.023 0 30 .102 1.428.198 2.745.289 4 1.694 23.347-3.713 41.053-5.29 55-1.684 14.913-2.58 34.927-2.997 56z" fill="#d6651a"/><path d="m214 639.379h1v-154.213h-1zm-35.002-65.213c.25-2.213.603-4.531 1.002-6.941v72.154h-2v-54.666c.298-3.731.628-7.268.998-10.547zm5.002-33.373v98.586h-2v-83.727c.776-4.615 1.508-9.558 2-14.859zm0-25.602-.002-.025c-.228-3.199-1.181-6.152-1.998-9.26v-15.904a34.495 34.495 0 0 1 1.998-4.836h.002zm2 124.188h2v-154.213h-2zm4 0h2v-154.213h-2zm4 0h2v-154.213h-2zm4 0h2v-154.213h-2zm4 0h2v-154.213h-2zm4 0h2v-154.213h-2zm4 0h2v-154.213h-2z" fill="#c1392b" mask="url(#a)"/><path d="m195 730.5c5.523 0 10-.895 10-2s-4.477-2-10-2-10 .895-10 2 4.477 2 10 2" fill="#f1c40f" mask="url(#a)"/><path d="m188.5 736c.828 0 1.5-3.357 1.5-7.5s-.672-7.5-1.5-7.5-1.5 3.357-1.5 7.5.672 7.5 1.5 7.5m6 0c.828 0 1.5-3.357 1.5-7.5s-.672-7.5-1.5-7.5-1.5 3.357-1.5 7.5.672 7.5 1.5 7.5m6 0c.828 0 1.5-3.357 1.5-7.5s-.672-7.5-1.5-7.5-1.5 3.357-1.5 7.5.672 7.5 1.5 7.5" fill="#f1c40f" mask="url(#a)"/><g fill="#27ae61"><path d="m197.538 468.89a1.317 1.317 0 1 0 0-2.634 1.317 1.317 0 0 0 0 2.634m-.575-3.1a1.317 1.317 0 1 0 -.001-2.635 1.317 1.317 0 0 0 0 2.635m-.466-3.102a1.317 1.317 0 1 0 -.001-2.634 1.317 1.317 0 0 0 0 2.635m-.191-5.902a1.317 1.317 0 1 0 0-2.635 1.317 1.317 0 0 0 0 2.635m.192 3.101a1.317 1.317 0 1 0 -.001-2.635 1.317 1.317 0 0 0 0 2.635m1.51 11.636a1.317 1.317 0 1 0 0-2.633 1.317 1.317 0 0 0 0 2.633" mask="url(#a)"/><path d="m198.472 474.16a1.317 1.317 0 1 0 -.001-2.636 1.317 1.317 0 0 0 0 2.635" mask="url(#a)"/><path d="m199.405 476.66a1.317 1.317 0 1 0 0-2.633 1.317 1.317 0 0 0 0 2.633" mask="url(#a)"/><path d="m200.064 479.295a1.317 1.317 0 1 0 -.001-2.635 1.317 1.317 0 0 0 0 2.635m.851 2.634a1.317 1.317 0 1 0 0-2.635 1.317 1.317 0 0 0 0 2.635m1.317 2.635a1.317 1.317 0 1 0 0-2.635 1.317 1.317 0 0 0 0 2.635m1.51 2.442a1.317 1.317 0 1 0 -.002-2.635 1.317 1.317 0 0 0 .001 2.635m2.251 2.168a1.317 1.317 0 1 0 0-2.635 1.317 1.317 0 0 0 0 2.635m2.347 1.784a1.317 1.317 0 1 0 -.001-2.635 1.317 1.317 0 0 0 0 2.635" mask="url(#a)"/><path d="m210.793 491.808a1.317 1.317 0 1 0 0-2.635 1.317 1.317 0 0 0 0 2.635m2.89.192a1.317 1.317 0 1 0 -.001-2.635 1.317 1.317 0 0 0 0 2.635" mask="url(#a)"/></g><path d="m215 308.567c32.063 0 58.055-6.43 58.055-14.363 0-7.932-25.992-14.363-58.055-14.363s-58.055 6.431-58.055 14.363c0 7.933 25.992 14.363 58.055 14.363" fill="#2d3e50" mask="url(#a)"/><path d="m243.248 630-1.018 117.16.018.002 3 3c1 1 0 2-6 1-5.055-.842-10.094-2.477-11.562-2.972l-.438-.028s-2.916-106.333-3.112-118.162z" fill="#f9db9d" mask="url(#a)"/><path d="m243.17 749.1s24.986 11.062 11.118 11.062h-24.928c-3.307 0-2.153-12.123-2.153-12.123l15.962 1.061z" fill="#f9db9d" mask="url(#a)"/><path d="m228.915 662.416a5.584 5.584 0 1 1 11.168 0 5.584 5.584 0 0 1 -11.168 0m2.169.346a4 4 0 1 0 8 0 4 4 0 0 0 -8 0" fill="#ecf0f1" mask="url(#a)"/><path d="m241.501 687.977h-3l-4 7-5-7h-2l7 9zm-7 14.209-7-9h2l5 7 4-7h3z" fill="#ecf0f1"/><g transform="translate(215 454)"><path d="m45.155 74.203c2.693 10.775 10.77 78.121 5.385 83.51-5.385 5.386-10.77 0-13.462 0-2.192 0-9.734-82.096-12.465-112.643l-24.613 2.93v-47.848h12c35.837-1.838 28.074 18.66 29.977 33.643 0 0 .486 29.633 3.178 40.408" fill="#f9db9d"/><path d="m43.816 130.777c-6.727 1.553-12.32 2.2-12.496 1.441-.175-.757 5.137-2.628 11.863-4.18 6.727-1.556 12.321-2.2 12.496-1.443.175.758-5.136 2.627-11.863 4.182m0-6.257c-6.727 1.553-12.32 2.199-12.496 1.44-.175-.756 5.137-2.627 11.863-4.18 6.727-1.555 12.321-2.2 12.496-1.442s-5.136 2.627-11.863 4.181m.684 11.897c-6.727 1.553-12.32 2.199-12.495 1.441-.176-.757 5.136-2.628 11.862-4.181 6.727-1.555 12.322-2.199 12.497-1.442.175.758-5.136 2.627-11.863 4.182" fill="#f1c40f"/></g><path d="m255.07 469.807h-3l-4 7-5-7h-2l7 9zm-7 14.209-7-9h2l5 7 4-7h3zm1.189 47.4a5.584 5.584 0 1 1 11.168 0 5.584 5.584 0 0 1 -11.168 0m2.169.346a4 4 0 1 0 8 0 4 4 0 0 0 -8 0m11.196 19.123.216 2.057-9.12.959-.215-2.057 9.119-.96zm-8.792 4.068.216 2.059 9.119-.96-.216-2.058-9.12.959zm9.447 2.168.217 2.057-9.12.959-.216-2.057 9.119-.96z" fill="#ecf0f1"/><path d="m215.054 630.166-.052-69v-76h31c7 14 .641 21.023 0 30-.102 1.428-.198 2.745-.289 4-1.694 23.347 3.713 41.053 5.29 55 1.684 14.913 2.58 34.927 2.997 56z" fill="#d6651a"/><path d="m215 639.379h1v-154.213h-1zm36.002-65.213c-.25-2.213-.603-4.531-1.002-6.941v72.154h2v-54.666a327.126 327.126 0 0 0 -.998-10.547zm-5.002-33.373v98.586h2v-83.727c-.776-4.615-1.508-9.558-2-14.859zm0-25.602.002-.025c.228-3.199 1.181-6.152 1.998-9.26v-15.904a34.495 34.495 0 0 0 -1.998-4.836h-.002zm-4 124.188h2v-154.213h-2zm-4 0h2v-154.213h-2zm-4 0h2v-154.213h-2zm-4 0h2v-154.213h-2zm-4 0h2v-154.213h-2zm-4 0h2v-154.213h-2zm-4 0h2v-154.213h-2z" fill="#c1392b" mask="url(#b)"/><path d="m235 730.5c-5.523 0-10-.895-10-2s4.477-2 10-2 10 .895 10 2-4.477 2-10 2" fill="#f1c40f" mask="url(#b)"/><path d="m241.5 736c-.828 0-1.5-3.357-1.5-7.5s.672-7.5 1.5-7.5 1.5 3.357 1.5 7.5-.672 7.5-1.5 7.5m-6 0c-.828 0-1.5-3.357-1.5-7.5s.672-7.5 1.5-7.5 1.5 3.357 1.5 7.5-.672 7.5-1.5 7.5m-6 0c-.828 0-1.5-3.357-1.5-7.5s.672-7.5 1.5-7.5 1.5 3.357 1.5 7.5-.672 7.5-1.5 7.5" fill="#f1c40f" mask="url(#b)"/><path d="m232.462 468.89a1.317 1.317 0 1 1 0-2.634 1.317 1.317 0 0 1 0 2.634m.575-3.1a1.317 1.317 0 1 1 .001-2.635 1.317 1.317 0 0 1 0 2.635m.466-3.102a1.317 1.317 0 1 1 .001-2.634 1.317 1.317 0 0 1 0 2.635m.191-5.902a1.317 1.317 0 1 1 0-2.635 1.317 1.317 0 0 1 0 2.635m-.192 3.101a1.317 1.317 0 1 1 .001-2.635 1.317 1.317 0 0 1 0 2.635m-1.51 11.636a1.317 1.317 0 1 1 0-2.633 1.317 1.317 0 0 1 0 2.633" fill="#27ae61" mask="url(#b)"/><path d="m231.528 474.16a1.317 1.317 0 1 1 .001-2.636 1.317 1.317 0 0 1 0 2.635" fill="#27ae61" mask="url(#b)"/><path d="m230.595 476.66a1.317 1.317 0 1 1 0-2.633 1.317 1.317 0 0 1 0 2.633" fill="#27ae61" mask="url(#b)"/><path d="m229.936 479.295a1.317 1.317 0 1 1 .001-2.635 1.317 1.317 0 0 1 0 2.635m-.851 2.634a1.317 1.317 0 1 1 0-2.635 1.317 1.317 0 0 1 0 2.635m-1.317 2.635a1.317 1.317 0 1 1 0-2.635 1.317 1.317 0 0 1 0 2.635m-1.51 2.442a1.317 1.317 0 1 1 .002-2.635 1.317 1.317 0 0 1 -.001 2.635m-2.251 2.168a1.317 1.317 0 1 1 0-2.635 1.317 1.317 0 0 1 0 2.635m-2.347 1.784a1.317 1.317 0 1 1 .001-2.635 1.317 1.317 0 0 1 0 2.635" fill="#27ae61" mask="url(#b)"/><path d="m219.207 491.808a1.317 1.317 0 1 1 0-2.635 1.317 1.317 0 0 1 0 2.635m-2.89.192a1.317 1.317 0 1 1 .001-2.635 1.317 1.317 0 0 1 0 2.635" fill="#27ae61" mask="url(#b)"/><path d="m685 275c0-5.523-4.477-10-10-10-.129 0-.254.014-.382.02a9.968 9.968 0 0 0 2.882-7.02c0-5.523-4.477-10-10-10-.482 0-.953.045-1.417.111a9.939 9.939 0 0 0 1.417-5.111c0-5.523-4.477-10-10-10a9.96 9.96 0 0 0 -6.339 2.266 9.98 9.98 0 0 0 .089-1.266c0-5.523-4.477-10-10-10a9.986 9.986 0 0 0 -8.271 4.381 9.953 9.953 0 0 0 1.021-4.381c0-5.523-4.477-10-10-10s-10 4.477-10 10c0 5.521 4.477 10 10 10a9.99 9.99 0 0 0 8.271-4.381 9.947 9.947 0 0 0 -1.021 4.381c0 5.521 4.477 10 10 10a9.959 9.959 0 0 0 6.339-2.268 9.985 9.985 0 0 0 -.089 1.268c0 5.521 4.477 10 10 10 .482 0 .953-.047 1.417-.113a9.94 9.94 0 0 0 -1.417 5.113c0 5.521 4.477 10 10 10 .129 0 .254-.016.382-.02a9.965 9.965 0 0 0 -2.882 7.02c0 4.715 3.269 8.658 7.661 9.713a9.992 9.992 0 0 0 -4.401 8.287c0 3.539 1.845 6.643 4.621 8.42-2.92 1.746-4.881 4.93-4.881 8.58 0 3.967 2.315 7.383 5.663 9-3.348 1.615-5.663 5.033-5.663 9 0 3.594 1.903 6.736 4.751 8.5-2.848 1.762-4.751 4.904-4.751 8.5 0 5.521 4.477 10 10 10s10-4.479 10-10c0-3.596-1.903-6.738-4.751-8.5 2.848-1.764 4.751-4.906 4.751-8.5 0-3.967-2.315-7.385-5.663-9 3.348-1.617 5.663-5.033 5.663-9 0-3.541-1.845-6.645-4.621-8.422 2.92-1.746 4.881-4.93 4.881-8.578 0-4.717-3.268-8.66-7.661-9.715a9.986 9.986 0 0 0 4.401-8.285m-71-55c0-5.523-4.477-10-10-10-4.225 0-7.83 2.623-9.295 6.326-1.066-4.375-5.001-7.629-9.705-7.629-4.705 0-8.64 3.252-9.706 7.629-1.465-3.703-5.069-6.326-9.294-6.326-5.523 0-10 4.477-10 10 0 5.521 4.477 10 10 10 4.704 0 8.639-3.254 9.705-7.629 1.465 3.703 5.07 6.326 9.295 6.326s7.829-2.623 9.294-6.328c1.066 4.377 5.001 7.631 9.706 7.631 5.523 0 10-4.479 10-10m-58 4c0-5.523-4.477-10-10-10s-10 4.477-10 10c0 1.572.374 3.057 1.021 4.381a9.986 9.986 0 0 0 -8.271-4.381c-5.523 0-10 4.477-10 10 0 .43.036.852.089 1.266a9.96 9.96 0 0 0 -6.339-2.266c-5.523 0-10 4.477-10 10 0 1.869.523 3.613 1.417 5.111a10.032 10.032 0 0 0 -1.417-.111c-5.523 0-10 4.477-10 10a9.968 9.968 0 0 0 2.882 7.02c-.128-.006-.253-.02-.382-.02-5.523 0-10 4.477-10 10a9.989 9.989 0 0 0 4.401 8.285c-4.393 1.055-7.661 4.998-7.661 9.715 0 3.648 1.961 6.832 4.881 8.578-2.776 1.777-4.621 4.881-4.621 8.422 0 3.967 2.315 7.383 5.663 9-3.348 1.615-5.663 5.033-5.663 9 0 3.594 1.903 6.736 4.751 8.5-2.848 1.762-4.751 4.904-4.751 8.5 0 5.521 4.477 10 10 10s10-4.479 10-10c0-3.596-1.903-6.738-4.751-8.5 2.848-1.764 4.751-4.906 4.751-8.5 0-3.967-2.315-7.385-5.663-9 3.348-1.617 5.663-5.033 5.663-9 0-3.65-1.961-6.834-4.881-8.58 2.776-1.777 4.621-4.881 4.621-8.42a9.99 9.99 0 0 0 -4.402-8.287c4.393-1.055 7.662-4.998 7.662-9.713a9.965 9.965 0 0 0 -2.882-7.02c.128.004.253.02.382.02 5.523 0 10-4.479 10-10a9.94 9.94 0 0 0 -1.417-5.113c.464.066.935.113 1.417.113 5.523 0 10-4.479 10-10 0-.432-.036-.852-.089-1.268a9.96 9.96 0 0 0 6.339 2.268c5.523 0 10-4.479 10-10a9.947 9.947 0 0 0 -1.021-4.381 9.99 9.99 0 0 0 8.271 4.381c5.523 0 10-4.479 10-10" fill="#2d3e50" mask="url(#b)"/><path d="m570.84 460.247h28.32v-23.797h-28.32z" fill="#f9db9d"/><g transform="translate(481 218)"><path d="m194.217 158.85c7.204 0 13.043-5.84 13.043-13.044s-5.839-13.044-13.043-13.044-13.043 5.84-13.043 13.044c0 7.203 5.839 13.043 13.043 13.043m-180.434 0c7.204 0 13.043-5.84 13.043-13.043 0-7.204-5.839-13.044-13.043-13.044s-13.043 5.84-13.043 13.044c0 7.203 5.839 13.043 13.043 13.043" fill="#f9db9d"/><path d="m104 186.045c52.827 0 95.652-.565 95.652-97.304 0-52.226-42.825-88.043-95.652-88.043s-95.652 35.817-95.652 88.042c0 94.565 42.825 97.304 95.652 97.304" fill="#2d3e50"/><path d="m104 226.784c47.424 0 85.869-41.851 85.869-93.478 0-51.626-38.445-100-85.869-100s-85.869 48.374-85.869 100c0 51.627 38.445 93.478 85.869 93.478" fill="#f9db9d"/><path d="m68.477 142.465a7.871 7.871 0 0 0 7.869-7.873 7.871 7.871 0 0 0 -7.87-7.873 7.871 7.871 0 0 0 -7.868 7.873 7.871 7.871 0 0 0 7.869 7.873m71.942 0a7.871 7.871 0 0 0 7.869-7.873 7.871 7.871 0 0 0 -7.87-7.873 7.871 7.871 0 0 0 -7.868 7.873 7.871 7.871 0 0 0 7.869 7.873m-59.74 36.483c-.248.737-.4 1.492-.4 2.267 0 7.095 10.821 12.846 24.168 12.846 13.348 0 24.17-5.751 24.17-12.846 0-.775-.153-1.53-.4-2.267-2.018 6.012-11.88 10.579-23.77 10.579-11.889 0-21.75-4.567-23.769-10.58" fill="#2d3e50"/><path d="m76 165.658a4.501 4.501 0 0 0 0-9 4.501 4.501 0 0 0 0 9m-18.5-5.814a4.5 4.5 0 0 1 4.5-4.5 4.5 4.5 0 1 1 0 9 4.501 4.501 0 0 1 -4.5-4.5m-7.368-4.5a4.5 4.5 0 1 0 0-9 4.5 4.5 0 0 0 0 9" fill="#ecf0f1"/><path d="m174 67.5c0-7.287-5.778-13.209-13-13.475v-27.025h-125v44h.475c1.543 5.756 6.782 10 13.025 10 2.012 0 3.914-.453 5.63-1.242 2.398 3.75 6.589 6.242 11.37 6.242 3.513 0 6.703-1.354 9.104-3.553 2.456 3.362 6.415 5.553 10.896 5.553 3.341 0 6.393-1.221 8.75-3.23a13.444 13.444 0 0 0 8.75 3.23c3.837 0 7.292-1.607 9.75-4.178a13.446 13.446 0 0 0 9.75 4.178c4.481 0 8.44-2.191 10.896-5.553a13.435 13.435 0 0 0 9.104 3.553c4.781 0 8.972-2.492 11.37-6.242a13.435 13.435 0 0 0 5.63 1.242c7.456 0 13.5-6.045 13.5-13.5" fill="#2d3e50"/><path d="m49.608 526.059s-21.886 1.953-21.886 11.717v5.858h68.346v-17.575z" fill="#f9db9d"/></g><path d="m585 613.3318v-40.332h-46.999l2.999 172 36 1" fill="#f9db9d"/><path d="m585 495v-40l-11.775-2.061c-2.489-.136-15.096 0-18.178 0-24.683 0-27.449 36.894-27.716 42.061h-.028l-4.145 56.552c-2.232 15.316-5.191 53.019.691 58.901 6.521 6.522 26.087 2.174 28.26-15.217 2.175-17.391 6.522-78.261 6.522-78.261v-21.975z" fill="#f9db9d"/><path d="m552.702 573h32.298v-87h-32.298z" fill="#f9db9d"/><path d="m526 518h17v-8h-17z" fill="#eae9e7"/><path d="m542 561 .036-1.363 1.964-63.637-5.999 90" fill="#ebd096"/><path d="m537.922 579.796c-2.203 23.393-3.375 39.905-3.922 72.96h50.932l.068-93.352v-5.49h-43.6c-1.364 9.466-2.741 18.059-3.478 25.882" fill="#2daa92"/><path d="m531.001 478.02h3l4 7 5-7h2l-7 9zm7 14.209 7-9h-2l-5 7-4-7h-3zm-1.415 68.771a5.584 5.584 0 1 0 -11.169 0 5.584 5.584 0 0 0 11.169 0m-2.17.346a4 4 0 1 1 -8 0 4 4 0 0 1 8 0" fill="#ecf0f1"/><path d="m541 561h44v-8h-44z" fill="#f1c40f"/><path d="m535 642h50v-8h-50z" fill="#c1392b"/><g transform="translate(537 450)"><path d="m45.385 287.693h2.615v-176.693h-2.615zm-5.974 0h2.615v-176.693h-2.615zm-5.974 0h2.615v-176.693h-2.615zm-5.974 0h2.615v-176.693h-2.615zm-4.963 0h2.615v-176.693h-2.615zm-4.963 0h2.615v-176.693h-2.615zm-16.953-146.88v146.88h2.615v-168.472c-.922 6.281-1.76 12.174-2.277 17.662-.119 1.262-.225 2.621-.338 3.93zm5.156 146.88h2.615v-176.693h-2.615zm5.414 0h2.615v-176.693h-2.615z" fill="#3db671"/><g fill="#27ae61"><path d="m32.405 3.508a1.317 1.317 0 1 0 0-2.634 1.317 1.317 0 0 0 0 2.634"/><path d="m33.064 6.143a1.317 1.317 0 1 0 -.001-2.635 1.317 1.317 0 0 0 0 2.635m.851 2.634a1.317 1.317 0 1 0 0-2.635 1.317 1.317 0 0 0 0 2.635m1.317 2.634a1.317 1.317 0 1 0 0-2.635 1.317 1.317 0 0 0 0 2.635m1.51 2.443a1.317 1.317 0 1 0 -.002-2.635 1.317 1.317 0 0 0 .001 2.635m2.251 2.168a1.317 1.317 0 1 0 0-2.635 1.317 1.317 0 0 0 0 2.634m2.347 1.785a1.317 1.317 0 1 0 -.001-2.635 1.317 1.317 0 0 0 0 2.635"/><path d="m43.793 18.656a1.317 1.317 0 1 0 0-2.635 1.317 1.317 0 0 0 0 2.635m2.89.191a1.317 1.317 0 1 0 -.001-2.635 1.317 1.317 0 0 0 0 2.635"/></g></g><path d="m557.364 458.162 22.455 50.195" stroke="#e67f22" stroke-dasharray="0 5.788" stroke-linecap="round" stroke-linejoin="round" stroke-width="3"/><path d="m577.1 515.2-33.15 35.7" stroke="#e67f22" stroke-dasharray="0 5.731" stroke-linecap="round" stroke-linejoin="round" stroke-width="3"/><path d="m581 561h4v-94h-4z" fill="#3598db"/><path d="m639.392 744.059s21.886 1.953 21.886 11.717v5.858h-68.346v-17.575z" fill="#f9db9d"/><path d="m585 613.3318v-40.332h46.999l-2.999 172-36 1" fill="#f9db9d"/><path d="m585 495v-40l11.775-2.061c2.489-.136 15.096 0 18.178 0 24.683 0 27.449 36.894 27.716 42.061h.028l4.145 56.552c2.232 15.316 5.191 53.019-.691 58.901-6.521 6.522-26.087 2.174-28.26-15.217-2.175-17.391-6.522-78.261-6.522-78.261v-21.975z" fill="#f9db9d"/><path d="m585 573h32.298v-87h-32.298z" fill="#f9db9d"/><path d="m627 518h17v-8h-17z" fill="#eae9e7"/><path d="m628 561-.036-1.363-1.964-63.637 5.999 90" fill="#ebd096"/><path d="m632.078 579.796c2.203 23.393 3.375 39.905 3.922 72.96h-50.932l-.068-93.351v-5.49h43.6c1.363 9.466 2.741 18.059 3.478 25.882" fill="#2daa92"/><path d="m638.999 478.02h-3l-4 7-5-7h-2l7 9zm-7 14.209-7-9h2l5 7 4-7h3zm1.415 68.771a5.584 5.584 0 1 1 11.169 0 5.584 5.584 0 0 1 -11.169 0m2.17.346a4 4 0 1 0 8 0 4 4 0 0 0 -8 0" fill="#ecf0f1"/><path d="m585 561h44v-8h-44z" fill="#f1c40f"/><path d="m585 642h50v-8h-50z" fill="#c1392b"/><g transform="translate(585 450)"><path d="m0 287.693h2.615v-176.693h-2.615zm5.974 0h2.615v-176.693h-2.615zm5.974 0h2.615v-176.693h-2.615zm5.974 0h2.615v-176.693h-2.615zm4.963 0h2.615v-176.693h-2.615zm4.963 0h2.615v-176.693h-2.615zm19.568-146.88v146.88h-2.615v-168.472c.922 6.281 1.76 12.174 2.277 17.662.119 1.262.225 2.621.338 3.93zm-7.771 146.88h2.615v-176.693h-2.615zm-5.414 0h2.615v-176.693h-2.615z" fill="#3db671"/><g fill="#27ae61"><path d="m15.595 3.508a1.317 1.317 0 1 1 0-2.634 1.317 1.317 0 0 1 0 2.634"/><path d="m14.936 6.143a1.317 1.317 0 1 1 .001-2.635 1.317 1.317 0 0 1 0 2.635m-.851 2.634a1.317 1.317 0 1 1 0-2.635 1.317 1.317 0 0 1 0 2.635m-1.317 2.634a1.317 1.317 0 1 1 0-2.635 1.317 1.317 0 0 1 0 2.635m-1.51 2.443a1.317 1.317 0 1 1 .002-2.635 1.317 1.317 0 0 1 -.001 2.635m-2.251 2.168a1.317 1.317 0 1 1 0-2.635 1.317 1.317 0 0 1 0 2.634m-2.347 1.785a1.317 1.317 0 1 1 .001-2.635 1.317 1.317 0 0 1 0 2.635"/><path d="m4.207 18.656a1.317 1.317 0 1 1 0-2.635 1.317 1.317 0 0 1 0 2.635m-2.89.191a1.317 1.317 0 1 1 .001-2.635 1.317 1.317 0 0 1 0 2.635"/></g></g><path d="m612.636 458.162-22.455 50.195" stroke="#e67f22" stroke-dasharray="0 5.788" stroke-linecap="round" stroke-linejoin="round" stroke-width="3"/><path d="m592.9 515.2 33.15 35.7" stroke="#e67f22" stroke-dasharray="0 5.731" stroke-linecap="round" stroke-linejoin="round" stroke-width="3"/><path d="m585 561h4v-94h-4z" fill="#3598db"/><path d="m615 383.658a4.501 4.501 0 0 1 0-9 4.501 4.501 0 0 1 0 9m18.5-5.814a4.5 4.5 0 0 0 -4.5-4.5 4.5 4.5 0 1 0 0 9c2.485 0 4.5-2.016 4.5-4.5m7.368-4.5a4.5 4.5 0 1 1 0-9 4.5 4.5 0 0 1 0 9" fill="#ecf0f1"/></g></svg>