<svg height="800" width="800" xmlns="http://www.w3.org/2000/svg"><g fill="none" fill-rule="evenodd"><path d="m513.2 206.583-25.55 25.55 25.55 25.55 25.55-25.55zm96.934-45.45-71 71 71 71.002 71.001-71.001z" fill="#8d44ad"/><path d="m570.84 461.88h28.32v-23.797h-28.32z" fill="#f9db9d"/><path d="m585 465.422c7.82 0 14.16-1.586 14.16-3.542s-6.34-3.542-14.16-3.542-14.16 1.586-14.16 3.542 6.34 3.542 14.16 3.542m90.217-86.939c7.204 0 13.043-5.84 13.043-13.043 0-7.204-5.839-13.044-13.043-13.044s-13.043 5.84-13.043 13.044c0 7.203 5.839 13.043 13.043 13.043m-180.434 0c7.204 0 13.043-5.84 13.043-13.043 0-7.204-5.839-13.044-13.043-13.044s-13.043 5.84-13.043 13.044c0 7.203 5.839 13.043 13.043 13.043" fill="#f9db9d"/><path d="m585 405.678c52.827 0 95.652-.565 95.652-97.304 0-52.226-42.825-76.24-95.652-76.24s-95.652 24.014-95.652 76.24c0 94.565 42.825 97.304 95.652 97.304" fill="#2d3e50"/><path d="m585 446.418c47.424 0 85.869-41.851 85.869-93.478 0-51.626-38.445-100-85.869-100s-85.869 48.374-85.869 100c0 51.627 38.445 93.478 85.869 93.478" fill="#f9db9d"/><path d="m549.477 362.099c4.346 0 7.869-3.525 7.869-7.873s-3.523-7.873-7.87-7.873-7.868 3.525-7.868 7.873 3.523 7.873 7.869 7.873m71.942 0c4.346 0 7.869-3.525 7.869-7.873s-3.523-7.873-7.87-7.873-7.868 3.525-7.868 7.873 3.523 7.873 7.869 7.873m-59.74 36.482c-.248.737-.4 1.492-.4 2.267 0 7.095 10.821 12.846 24.168 12.846 13.348 0 24.17-5.75 24.17-12.846 0-.775-.153-1.53-.4-2.267-2.018 6.012-11.88 10.58-23.77 10.58-11.889 0-21.75-4.568-23.769-10.58m-31.994 345.479s-21.886 1.953-21.886 11.717v5.858h68.346v-17.575z" fill="#2d3e50"/><path d="m577.187 757.849 3.449-131.965s-3.45-12.444 3.065-12.444v-25.621h-45.6v156.055z" fill="#d65492"/><path d="m637.718 744.059s21.886 1.953 21.886 11.717v5.858h-68.346v-17.575z" fill="#2d3e50"/><path d="m590.215 757.849-3.449-131.965s3.45-12.444-3.065-12.444v-25.621h45.6v156.055z" fill="#d65492"/><path d="m638.449 480.019s4.348 56.522 6.522 67.391c2.174 10.87 6.52 56.522 0 63.043-6.522 6.522-26.087 2.174-28.261-15.217s-6.522-78.261-6.522-78.261v-36.956z" fill="#f9db9d"/><path d="m641.398 495.384 9.869 92.435-24.75 5.065-6.75-97.5z" fill="#9a59b5"/><path d="m628.017 482.634 10.285 108-9 2.25z" fill="#8d44ad"/><path d="m528.953 480.019s-4.348 56.522-6.522 67.391c-2.174 10.87-6.52 56.522 0 63.043 6.522 6.522 26.087 2.174 28.261-15.217s6.522-78.261 6.522-78.261v-36.956z" fill="#f9db9d"/><path d="m526.004 495.384-9.869 92.435 24.75 5.065 6.75-97.5z" fill="#9a59b5"/><path d="m539.385 482.634-10.285 108 9 2.25z" fill="#8d44ad"/><path d="m641.398 495.617s-1.203-42.678-27.743-42.678-29.954 12.483-29.954 12.483-3.413-12.483-29.953-12.483-27.743 42.678-27.743 42.678h12.543l-4.548 137.383s10 19 21 19c8.988 0 16 0 27 7s23.033 13.833 32 13.833c11 0 19-15.833 19-15.833l-4.145-161.383z" fill="#9a59b5"/><path d="m570.099 445.134-9.546 9.546 9.884 9.884 9.546-9.546z" fill="#8d44ad"/><path d="m569.64 446.768-7.453 7.452 8.71 8.709 7.451-7.452z" fill="#9a59b5"/><path d="m579.126 495h4.575v-27h-4.575z" fill="#8d44ad"/><path d="m580.541 493.396h3.16v-23.792h-3.16zm-92.906-169.158h193.5v-92.105h-193.5z" fill="#9a59b5"/><path d="m583.701 580.732h47.026v-20.732h-47.026z" fill="#f1c40f"/><path d="m597.303 445.134 9.546 9.546-9.884 9.884-9.546-9.546z" fill="#8d44ad"/><path d="m597.763 446.768 7.452 7.452-8.71 8.709-7.451-7.452z" fill="#9a59b5"/><path d="m583.701 495h4.575v-27h-4.575z" fill="#8d44ad"/><path d="m583.701 493.396h3.16v-23.792h-3.16z" fill="#9a59b5"/><path d="m536.675 560-.675 20.732h61.134v-20.732z" fill="#f1c40f"/><path d="m214 229.044h2v-24.245h-2z" fill="#f39c11"/><path d="m215 182.044 12.798 12.798-12.798 12.798-12.798-12.798z" fill="#f1c40f"/><path d="m319.702 299.748-23.419 6.275-.517-1.932 23.418-6.275z" fill="#f39c11"/><path d="m341.423 292.893-9.05 15.674-15.674-9.05 9.05-15.674z" fill="#f1c40f"/><path d="m310.2 271.72-20.998 12.123-1-1.732 20.997-12.122z" fill="#f39c11"/><path d="m329.406 259.477-4.684 17.483-17.483-4.685 4.684-17.483z" fill="#f1c40f"/><path d="m296.605 246.26-15.584 18.573-1.532-1.286 15.584-18.573z" fill="#f39c11"/><path d="m310.466 228.186 1.577 18.03-18.03 1.578-1.577-18.03z" fill="#f1c40f"/><path d="m246.655 213.581-6.275 23.42-1.932-.519 6.275-23.419z" fill="#f39c11"/><path d="m251.579 191.343 9.05 15.674-15.675 9.05-9.05-15.674z" fill="#f1c40f"/><path d="m274.483 225.513-12.123 20.997-1.732-1 12.122-20.997z" fill="#f39c11"/><path d="m284.994 205.306 4.684 17.483-17.482 4.684-4.685-17.482z" fill="#f1c40f"/><path d="m110.298 299.748 23.419 6.275.517-1.932-23.418-6.275z" fill="#f39c11"/><path d="m88.577 292.893 9.05 15.674 15.674-9.05-9.05-15.674z" fill="#f1c40f"/><path d="m119.8 271.72 20.998 12.123 1-1.732-20.997-12.122z" fill="#f39c11"/><path d="m100.594 259.477 4.684 17.483 17.483-4.685-4.684-17.483z" fill="#f1c40f"/><path d="m133.395 246.26 15.584 18.573 1.532-1.286-15.584-18.573z" fill="#f39c11"/><path d="m119.534 228.186-1.577 18.03 18.03 1.578 1.577-18.03z" fill="#f1c40f"/><path d="m183.345 213.581 6.275 23.42 1.932-.519-6.275-23.419z" fill="#f39c11"/><path d="m178.421 191.343-9.05 15.674 15.675 9.05 9.05-15.674z" fill="#f1c40f"/><path d="m155.517 225.513 12.122 20.997 1.732-1-12.122-20.997z" fill="#f39c11"/><path d="m145.006 205.306-4.684 17.483 17.482 4.684 4.685-17.482z" fill="#f1c40f"/><path d="m215 409.258c53.572 0 97-43.039 97-96.129s-43.429-84.129-97-84.129c-53.572 0-97 31.038-97 84.13 0 53.09 43.428 96.128 97 96.128" fill="#2d3e50"/><path d="m215 446c53.572 0 97-20.885 97-92.422s-43.429-116.578-97-116.578c-53.572 0-97 45.041-97 116.578s43.428 92.422 97 92.422" fill="#2d3e50"/><g fill="#f9db9d"><path d="m138.266 387.185c6.69 0 12.116-5.427 12.116-12.122s-5.425-12.123-12.116-12.123-12.116 5.428-12.116 12.123 5.425 12.122 12.116 12.122m153.468 0c6.691 0 12.116-5.427 12.116-12.122s-5.425-12.123-12.116-12.123-12.116 5.428-12.116 12.123 5.425 12.122 12.116 12.122"/><path d="m204.23 463.202h21.539v-18.099h-21.539z"/><path d="m215 451.838c44.61 0 80.773-43.846 80.773-104.922s-36.163-91.916-80.773-91.916-80.773 30.84-80.773 91.916 36.163 104.922 80.773 104.922m0 33.324c5.948 0 10.77-20.472 10.77-21.96 0-1.487-4.822-2.694-10.77-2.694s-10.77 1.207-10.77 2.694c0 1.488 4.822 21.96 10.77 21.96"/></g><g fill="#2d3e50"><path d="m177.556 371.281a8.193 8.193 0 0 0 8.19-8.195c0-4.527-3.666-8.196-8.19-8.196s-8.191 3.67-8.191 8.196a8.193 8.193 0 0 0 8.19 8.195m74.89 0a8.193 8.193 0 0 0 8.191-8.195c0-4.527-3.667-8.196-8.19-8.196s-8.192 3.67-8.192 8.196a8.193 8.193 0 0 0 8.191 8.195m-62.188 37.977c-.257.767-.415 1.553-.415 2.36 0 7.385 11.264 13.372 25.158 13.372 13.895 0 25.158-5.987 25.158-13.372 0-.807-.157-1.593-.415-2.36-2.1 6.258-12.366 11.013-24.743 11.013s-22.643-4.755-24.743-11.013"/><path d="m214.993 250c-69.468 2.459-88.202 52.625-81.594 113.451 0 0 .531-41.623 43.907-65.582 0 0 9.68-6.231 37.687-7.05s37.687 7.05 37.687 7.05c43.376 23.959 43.907 65.582 43.907 65.582 6.608-60.826-12.126-110.992-81.594-113.451"/><path d="m215 308.567c32.063 0 58.055-6.43 58.055-14.363 0-7.932-25.992-14.363-58.055-14.363s-58.055 6.431-58.055 14.363c0 7.933 25.992 14.363 58.055 14.363"/></g><path d="m196.899 478.806h17.993v-24.654h-17.993z" fill="#f9db9d"/><path d="m186.97 749.1s-24.986 11.062-11.118 11.062h24.927c3.307 0 2.153-12.123 2.153-12.123z" fill="#2d3e50"/><path d="m186.892 729.625 1.018 17.534-.018.003-3 3c-1 1 0 2 6 1 5.055-.843 10.094-2.477 11.562-2.973l.438-.027s.039-6.708.235-18.537zm-14.215-241.83s0 29.633-2.692 40.408c-2.693 10.776-10.77 78.122-5.385 83.51s10.769 0 13.462 0c2.692 0 13.462-123.918 13.462-123.918z" fill="#f9db9d"/><path d="m176.306 576.162 5.7 161.838s3.683 4.25 13.647 8c9.965 3.75 19.347 2.04 19.347 2.04v-211.878z" fill="#9a59b5"/><path d="m172.676 487.795s-7.785 76.368-9.785 86.368l20 5.224 11.5-73.224v-21z" fill="#f86792"/><path d="m181.892 483.162s2.067 20.838 2.067 25.838-11.05 54-8.126 68l12.059-4.838 4.688-89h-9.688" fill="#d65492"/><path d="m180.038 455.912c-3.562 1.174-7.362 4.439-7.362 13.026v18.857h10.215c2.813 12.632 4.401 19.466 1.701 29.548-.395 1.474-1.602 8.654-1.602 8.654-3.012 17.556-8.64 39.123-6.793 53.389 3.631 28.034 8.395 46.614 29.701 39.614 4.66-1.53 8.993-94 8.993-94l.007-49-17-21.847c-5.37 0-16.99 1.395-17.86 1.759" fill="#f86792"/><path d="m181.93 527.324-1.031 5.388h34v-5.388z" fill="#f1c40f"/><g fill="#f1c40f"><path d="m214.899 523.162c-6.351 0-11.5 2.91-11.5 6.5s5.149 6.5 11.5 6.5z"/><path d="m214.899 524.575c-4.971 0-9 2.277-9 5.087s4.029 5.087 9 5.087z"/></g><path d="m191.524 454.153 23.375 31.009v-9.162l-17-21.847z" fill="#d65492"/><path d="m199.899 480.762c0 4.485 6.724 8.121 15.018 8.121v-6.422c-.39.086-2.053 1.477-2.474 1.477-2.133 0-2.183-2.656-2.835-4.28-.488 1.624-2.31 2.95-3.91 2.95-2.011 0-3.641-1.846-3.641-4.122 0-.964-2.158.47-2.158 2.276m0 10.707c0 4.485 6.724 8.121 15.018 8.121v-6.421c-.39.085-2.053 1.476-2.474 1.476-2.133 0-2.183-2.656-2.835-4.28-.488 1.624-2.31 2.949-3.91 2.949-2.011 0-3.641-1.845-3.641-4.12 0-.965-2.158.468-2.158 2.275m.083 10.707c0 4.485 6.724 8.12 15.018 8.12v-6.421c-.39.086-2.053 1.477-2.474 1.477-2.133 0-2.183-2.656-2.835-4.28-.488 1.624-2.31 2.949-3.91 2.949-2.01 0-3.64-1.845-3.64-4.121 0-.964-2.159.469-2.159 2.276" fill="#f1c40f"/><path d="m215.108 478.806h17.993v-24.654h-17.993z" fill="#f9db9d"/><path d="m243.03 749.1s24.986 11.062 11.118 11.062h-24.927c-3.307 0-2.153-12.123-2.153-12.123z" fill="#2d3e50"/><path d="m243.108 729.625-1.018 17.534.018.003 3 3c1 1 0 2-6 1-5.055-.843-10.094-2.477-11.562-2.973l-.438-.027s-.039-6.708-.235-18.537zm14.215-241.83s0 29.633 2.692 40.408c2.693 10.776 10.77 78.122 5.385 83.51s-10.769 0-13.462 0c-2.692 0-13.462-123.918-13.462-123.918z" fill="#f9db9d"/><path d="m253.694 576.162-5.7 161.838s-3.683 4.25-13.647 8c-9.965 3.75-19.347 2.04-19.347 2.04v-211.878z" fill="#9a59b5"/><path d="m257.324 487.795s7.785 76.368 9.785 86.368l-20 5.224-11.5-73.224v-21z" fill="#f86792"/><path d="m248.108 483.162s-2.067 20.838-2.067 25.838 11.05 54 8.126 68l-12.059-4.838-4.688-89h9.688" fill="#d65492"/><path d="m249.962 455.912c3.562 1.174 7.362 4.439 7.362 13.026v18.857h-10.215c-2.813 12.632-4.401 19.466-1.701 29.548.395 1.474 1.602 8.654 1.602 8.654 3.012 17.556 8.64 39.123 6.793 53.389-3.631 28.034-8.395 46.614-29.701 39.614-4.66-1.53-8.993-94-8.993-94l-.007-49 17-21.847c5.37 0 16.99 1.395 17.86 1.759" fill="#f86792"/><path d="m248.07 527.324 1.031 5.388h-34v-5.388z" fill="#f1c40f"/><g fill="#f1c40f"><path d="m215.101 523.162c6.351 0 11.5 2.91 11.5 6.5s-5.149 6.5-11.5 6.5z"/><path d="m215.101 524.575c4.971 0 9 2.277 9 5.087s-4.029 5.087-9 5.087z"/></g><path d="m238.476 454.153-23.375 31.009v-9.162l17-21.847z" fill="#d65492"/><path d="m230.101 480.762c0 4.485-6.724 8.121-15.018 8.121v-6.422c.39.086 2.053 1.477 2.474 1.477 2.133 0 2.183-2.656 2.835-4.28.488 1.624 2.31 2.95 3.91 2.95 2.011 0 3.641-1.846 3.641-4.122 0-.964 2.158.47 2.158 2.276m0 10.707c0 4.485-6.724 8.121-15.018 8.121v-6.421c.39.085 2.053 1.476 2.474 1.476 2.133 0 2.183-2.656 2.835-4.28.488 1.624 2.31 2.949 3.91 2.949 2.011 0 3.641-1.845 3.641-4.12 0-.965 2.158.468 2.158 2.275m-.083 10.707c0 4.485-6.724 8.12-15.018 8.12v-6.421c.39.086 2.053 1.477 2.474 1.477 2.133 0 2.183-2.656 2.834-4.28.489 1.624 2.31 2.949 3.91 2.949 2.012 0 3.642-1.845 3.642-4.121 0-.964 2.158.469 2.158 2.276" fill="#f1c40f"/></g></svg>