<svg height="800" width="800" xmlns="http://www.w3.org/2000/svg"><g fill="none" fill-rule="evenodd"><g transform="translate(118 229)"><g fill="#2d3e50"><path d="m97 219.432c53.572 0 97-33.394 97-74.588 0-41.193-43.429-65.276-97-65.276-53.572 0-97 24.083-97 65.276 0 41.194 43.428 74.588 97 74.588"/><path d="m97 201c53.572 0 97-47.991 97-107.19 0-59.2-43.429-93.81-97-93.81-53.572 0-97 34.61-97 93.81 0 59.199 43.428 107.19 97 107.19"/><path d="m97 171c53.572 0 97-16.288 97-72.08s-43.429-90.92-97-90.92c-53.573 0-97 35.128-97 90.92s43.428 72.08 97 72.08"/></g><path d="m20.266 158.185c6.69 0 12.116-5.427 12.116-12.122s-5.425-12.123-12.116-12.123-12.116 5.428-12.116 12.123 5.425 12.122 12.116 12.122m153.468 0c6.691 0 12.116-5.427 12.116-12.122s-5.425-12.123-12.116-12.123c-6.69 0-12.116 5.428-12.116 12.123s5.425 12.122 12.116 12.122" fill="#f9db9d"/></g><path d="m204.23 463.202h21.539v-18.099h-21.539z" fill="#f9db9d"/><g transform="translate(132 250)"><path d="m83 201.838c44.61 0 80.773-43.846 80.773-104.922s-36.163-91.916-80.773-91.916-80.773 30.84-80.773 91.916 36.163 104.922 80.773 104.922" fill="#f9db9d"/><path d="m45.556 121.281a8.193 8.193 0 0 0 8.19-8.195 8.193 8.193 0 0 0 -8.19-8.196 8.193 8.193 0 0 0 -8.191 8.196 8.193 8.193 0 0 0 8.19 8.195m74.89 0a8.193 8.193 0 0 0 8.191-8.195 8.193 8.193 0 0 0 -8.19-8.196 8.193 8.193 0 0 0 -8.192 8.196 8.193 8.193 0 0 0 8.191 8.195" fill="#2d3e50"/><path d="m82.993 0c-69.468 2.459-88.202 52.625-81.594 113.451 0 0 .531-41.623 43.907-65.582 0 0 9.68-6.231 37.687-7.05s37.687 7.05 37.687 7.05c43.376 23.959 43.907 65.582 43.907 65.582 6.608-60.826-12.126-110.992-81.594-113.451m-24.736 159.258c-.257.767-.415 1.553-.415 2.36 0 7.385 11.264 13.372 25.158 13.372 13.895 0 25.158-5.987 25.158-13.372 0-.807-.157-1.593-.415-2.36-2.1 6.258-12.366 11.013-24.743 11.013s-22.643-4.755-24.743-11.013" fill="#2d3e50"/><path d="m111.249 479.625-1.018 17.534.018.003 3 3c1 1 0 2-6 1-5.055-.843-10.094-2.477-11.562-2.973l-.438-.027s-.04-6.708-.235-18.537z" fill="#f9db9d"/><path d="m111.17 499.1s24.987 11.062 11.119 11.062h-24.927c-3.307 0-2.153-12.123-2.153-12.123l15.962 1.061z" fill="#2d3e50"/></g><path d="m215.001 478.806h17.993v-24.654h-17.993z" fill="#f9db9d"/><g transform="translate(215 487)"><path d="m46.007.795s0 29.633 2.692 40.408c2.693 10.776 10.77 78.122 5.385 83.51s-10.769 0-13.462 0c-2.692 0-13.462-123.918-13.462-123.918z" fill="#f9db9d"/><path d="m.001 244v-190h34s7.75 46.994 10 94.997.079 95.003.079 95.003z" fill="#2dcc70"/><path d="m42.103 244v-7.051h2.246c-.152 4.49-.269 7.051-.269 7.051zm-7.051-7.051h7.051v-7.051h-7.051zm-14.102 0h7.051v-7.051h-7.051zm-14.102 0h7.051v-7.051h-7.051zm0-14.101h7.051v-7.051h-7.051zm0-14.102h7.051v-7.053h-7.051zm0-14.103h7.051v-7.051h-7.051zm0-14.102h7.051v-7.051h-7.051zm0-14.102h7.051v-7.051h-7.051zm0-14.101h7.051v-7.051h-7.051zm0-14.102h7.051v-7.051h-7.051zm0-14.101h7.051v-7.051h-7.051zm0-14.102h7.051v-7.053h-7.051zm0-14.103h7.051v-7.051h-7.051zm0-14.102h7.051v-7.051h-7.051zm0-14.101h7.051v-7.051h-7.051zm14.102 0h7.051v-7.051h-7.051zm7.051 7.051h7.051v-7.051h-7.051zm0 14.101h7.051v-7.051h-7.051zm0 14.102h7.051v-7.051h-7.051zm0 14.103h7.051v-7.051h-7.051zm7.051 7.051v-7.051h6.727c.11 1.225.218 2.461.324 3.703v3.348zm0 14.102h7.051v-7.051h-7.051zm0 14.101h7.051v-7.051h-7.051zm0 14.102h7.051v-7.051h-7.051zm0 14.101h7.051v-7.051h-7.051zm0 14.102h7.051v-7.051h-7.051zm0 14.103h7.051v-7.053h-7.051zm0 14.102h7.051v-7.051h-7.051zm-7.051 7.05h7.051v-7.051h-7.051zm-14.102 0h7.051v-7.051h-7.051zm0-14.101h7.051v-7.051h-7.051zm0-14.104h7.051v-7.051h-7.051zm0-14.101h7.051v-7.051h-7.051zm0-14.102h7.051v-7.051h-7.051zm0-14.101h7.051v-7.051h-7.051zm0-14.102h7.051v-7.051h-7.051zm0-14.101h7.051v-7.051h-7.051zm0-14.102h7.051v-7.051h-7.051zm0-14.104h7.051v-7.051h-7.051zm0-14.101h7.051v-7.051h-7.051zm7.051-7.051h7.051v-7.051h-7.051zm0 14.102h7.051v-7.051h-7.051zm0 14.103h7.051v-7.053h-7.051zm0 14.102h7.051v-7.051h-7.051zm7.051 7.051h7.051v-7.051h-7.051zm0 14.101h7.051v-7.051h-7.051zm0 14.102h7.051v-7.051h-7.051zm0 14.101h7.051v-7.051h-7.051zm0 14.102h7.051v-7.051h-7.051zm0 14.102h7.051v-7.051h-7.051zm0 14.103h7.051v-7.051h-7.051zm-7.051 7.051h7.051v-7.051h-7.051zm0-14.102h7.051v-7.053h-7.051zm0-14.103h7.051v-7.051h-7.051zm0-14.102h7.051v-7.051h-7.051zm0-14.102h7.051v-7.051h-7.051zm0-14.101h7.051v-7.051h-7.051zm0-14.102h7.051v-7.051h-7.051zm-7.051-63.459h7.051v-7.051h-7.051zm28.204 155.121v-7.05h2.63c-.055 2.543-.112 4.902-.171 7.05zm0-14.101v-7.051h2.852c-.025 2.445-.056 4.797-.092 7.051zm0-14.104v-7.05h2.916c.003 2.406-.002 4.757-.012 7.05zm0-14.101v-7.051h2.817c.031 2.385.055 4.736.071 7.051zm0-14.102v-7.051h2.535c.064 2.372.117 4.721.164 7.051zm0-14.101v-7.051h2.045c.101 2.357.191 4.709.272 7.051zm0-14.102v-7.051h1.301c.148 2.342.285 4.692.41 7.051zm0-14.101v-7.051h.279c.19 2.33.374 4.679.547 7.051zm-7.051-21.153v-7.053h5.349c.243 2.307.483 4.655.717 7.053zm0-14.103v-7.051h3.762c.272 2.275.546 4.629.819 7.051zm0-14.102v-7.051h1.977c.295 2.211.603 4.571.917 7.051zm1.008-14.101h-1.008v-6.946c.291 1.948.632 4.282 1.008 6.946zm-1.024-7.051h-7.035v-6.676h6s.398 2.414 1.035 6.676zm-21.137 0h7.051v-6.676h-7.051v6.676zm-13.898 0h6.847v-6.676h-6.847v6.676zm0 14.101h6.847v-7.051h-6.847v7.051zm0 14.102h6.847v-7.051h-6.847v7.051zm0 14.101h6.847v-7.051h-6.847v7.051zm0 14.104h6.847v-7.051h-6.847v7.051zm0 14.102h6.847v-7.051h-6.847v7.051zm0 14.101h6.847v-7.051h-6.847v7.051zm0 14.102h6.847v-7.051h-6.847v7.051zm0 14.101h6.847v-7.051h-6.847v7.051zm0 14.102h6.847v-7.051h-6.847v7.051zm0 14.101h6.847v-7.051h-6.847v7.051zm0 14.104h6.847v-7.051h-6.847v7.051zm0 14.101h6.847v-7.051h-6.847v7.051zm0 14.102h6.847v-7.051h-6.847v7.051zm13.898 0h7.051v-7.051h-7.051zm14.102 0h7.051v-7.051h-7.051z" fill="#16a086"/></g><path d="m261.2508 489-.25 3-14 2v-3z" fill="#f39c11"/><path d="m249.502 455c3.562 1.174 14.333 3.17 16.499 11.48 3.927 15.063-4.75 22.52-4.75 22.52l-14.251 2c2 15-2 13-1 24 .292 1.09 1.792 17.514 2.554 26h-33.554v-63.666l3.48-15.082 7.52-8.1s20-.152 23.5.848" fill="#3598db"/><path d="m239 454-22.479 24.479-.89-.817 21.369-23.662z" fill="#f39c11"/><g transform="translate(171 454)"><g fill="#f1c40f"><path d="m68.937 21.046a1.88 1.88 0 1 1 0-3.761 1.88 1.88 0 0 1 0 3.761m.822-4.427a1.88 1.88 0 1 1 0-3.762 1.88 1.88 0 0 1 0 3.762m.666-4.43a1.88 1.88 0 1 1 0-3.761 1.88 1.88 0 0 1 0 3.761m.274-8.427a1.88 1.88 0 1 1 .001-3.762 1.88 1.88 0 0 1 0 3.762m-.274 4.428a1.88 1.88 0 1 1 0-3.761 1.88 1.88 0 0 1 0 3.761m-2.156 16.62a1.88 1.88 0 1 1 0-3.762 1.88 1.88 0 0 1 0 3.762"/><path d="m67.604 28.57a1.88 1.88 0 1 1 0-3.761 1.88 1.88 0 0 1 0 3.761"/><path d="m66.27 32.143a1.88 1.88 0 1 1 0-3.762 1.88 1.88 0 0 1 0 3.762"/><path d="m65.33 35.904a1.88 1.88 0 1 1 0-3.761 1.88 1.88 0 0 1 0 3.761m-1.214 3.762a1.88 1.88 0 1 1 0-3.761 1.88 1.88 0 0 1 0 3.761m-1.881 3.763a1.88 1.88 0 1 1 0-3.762 1.88 1.88 0 0 1 0 3.762m-2.155 3.488a1.88 1.88 0 1 1 0-3.762 1.88 1.88 0 0 1 0 3.762m-3.214 3.095a1.88 1.88 0 1 1 0-3.761 1.88 1.88 0 0 1 0 3.761m-3.351 2.548a1.88 1.88 0 1 1 0-3.762 1.88 1.88 0 0 1 0 3.762"/><path d="m50.008 53.774a1.88 1.88 0 1 1 0-3.762 1.88 1.88 0 0 1 0 3.762m-4.127.274a1.88 1.88 0 1 1 0-3.762 1.88 1.88 0 0 1 0 3.762"/></g><path d="m15.752 275.625 1.018 17.534-.018.003-3 3c-1 1 0 2 6 1 5.055-.843 10.094-2.477 11.562-2.973l.438-.027s.039-6.708.235-18.537z" fill="#f9db9d"/><path d="m15.83 295.1s-24.986 11.062-11.118 11.062h24.928c3.307 0 2.153-12.123 2.153-12.123z" fill="#2d3e50"/></g><path d="m197.007 478.806h17.993v-24.654h-17.993z" fill="#f9db9d"/><g transform="translate(159 487)"><path d="m9.994.795s0 29.633-2.692 40.408c-2.693 10.776-10.77 78.122-5.385 83.51s10.769 0 13.462 0c2.691 0 13.461-123.918 13.461-123.918z" fill="#f9db9d"/><path d="m56 244v-190h-34s-7.75 46.994-10 94.997-.078 95.003-.078 95.003z" fill="#16a086"/><path d="m13.898 244v-7.051h-2.246c.152 4.49.27 7.051.27 7.051zm0-7.051h7.05v-7.051h-7.05zm14.102 0h7.05v-7.051h-7.05zm14.102 0h7.05v-7.051h-7.05zm0-14.101h7.05v-7.051h-7.05zm0-14.102h7.05v-7.053h-7.05zm0-14.103h7.05v-7.051h-7.05zm0-14.102h7.05v-7.051h-7.05zm0-14.102h7.05v-7.051h-7.05zm0-14.101h7.05v-7.051h-7.05zm0-14.102h7.05v-7.051h-7.05zm0-14.101h7.05v-7.051h-7.05zm0-14.102h7.05v-7.053h-7.05zm0-14.103h7.05v-7.051h-7.05zm0-14.102h7.05v-7.051h-7.05zm0-14.101h7.05v-7.051h-7.05zm-14.102 0h7.05v-7.051h-7.05zm-7.051 7.051h7.05v-7.051h-7.05zm0 14.101h7.05v-7.051h-7.05zm0 14.102h7.05v-7.051h-7.05zm0 14.103h7.05v-7.051h-7.05zm0 7.051v-7.051h-6.727a842.52 842.52 0 0 0 -.324 3.703v3.348h7.05zm-7.051 14.102h7.05v-7.051h-7.05zm0 14.101h7.05v-7.051h-7.05zm0 14.102h7.05v-7.051h-7.05zm0 14.101h7.05v-7.051h-7.05zm0 14.102h7.05v-7.051h-7.05zm0 14.103h7.05v-7.053h-7.05zm0 14.102h7.05v-7.051h-7.05zm7.05 7.05h7.052v-7.051h-7.051v7.051zm14.103 0h7.05v-7.051h-7.05zm0-14.101h7.05v-7.051h-7.05zm0-14.104h7.05v-7.051h-7.05zm0-14.101h7.05v-7.051h-7.05zm0-14.102h7.05v-7.051h-7.05zm0-14.101h7.05v-7.051h-7.05zm0-14.102h7.05v-7.051h-7.05zm0-14.101h7.05v-7.051h-7.05zm0-14.102h7.05v-7.051h-7.05zm0-14.104h7.05v-7.051h-7.05zm0-14.101h7.05v-7.051h-7.05zm-7.051-7.051h7.05v-7.051h-7.05zm0 14.102h7.05v-7.051h-7.05zm0 14.103h7.05v-7.053h-7.05zm0 14.102h7.05v-7.051h-7.05zm-7.051 7.051h7.05v-7.051h-7.05zm0 14.101h7.05v-7.051h-7.05zm0 14.102h7.05v-7.051h-7.05zm0 14.101h7.05v-7.051h-7.05zm0 14.102h7.05v-7.051h-7.05zm0 14.102h7.05v-7.051h-7.05zm0 14.103h7.05v-7.051h-7.05zm7.05 7.051h7.052v-7.051h-7.051v7.051zm0-14.102h7.052v-7.053h-7.051v7.053zm0-14.103h7.052v-7.051h-7.051v7.051zm0-14.102h7.052v-7.051h-7.051v7.051zm0-14.102h7.052v-7.051h-7.051v7.051zm0-14.101h7.052v-7.051h-7.051v7.051zm0-14.102h7.052v-7.051h-7.051v7.051zm7.052-63.459h7.05v-7.051h-7.05zm-21.153 155.121v-7.05h-2.63c.055 2.543.112 4.902.17 7.05zm0-14.101v-7.051h-2.852c.026 2.445.056 4.797.092 7.051zm0-14.104v-7.05h-2.916c-.003 2.406.002 4.757.012 7.05zm0-14.101v-7.051h-2.818c-.031 2.385-.055 4.736-.071 7.051h2.888zm0-14.102v-7.051h-2.535a1035.09 1035.09 0 0 0 -.164 7.051zm0-14.101v-7.051h-2.045a855.204 855.204 0 0 0 -.272 7.051zm0-14.102v-7.051h-1.301a694.348 694.348 0 0 0 -.41 7.051h1.71zm0-14.101v-7.051h-.28c-.19 2.33-.373 4.679-.546 7.051zm7.05-21.153v-7.053h-5.348a922.574 922.574 0 0 0 -.717 7.053h6.066zm0-14.103v-7.051h-3.761c-.272 2.275-.546 4.629-.82 7.051h4.582zm0-14.102v-7.051h-1.976c-.295 2.211-.603 4.571-.917 7.051h2.894zm-1.007-14.101h1.008v-6.946a872.476 872.476 0 0 0 -1.008 6.946zm1.024-7.051h7.035v-6.676h-6s-.398 2.414-1.035 6.676zm14.086 0h7.05v-6.676h-7.05zm14.102 0h6.847v-6.676h-6.847zm0 14.101h6.847v-7.051h-6.847zm0 14.102h6.847v-7.051h-6.847zm0 14.101h6.847v-7.051h-6.847zm0 14.104h6.847v-7.051h-6.847zm0 14.102h6.847v-7.051h-6.847zm0 14.101h6.847v-7.051h-6.847zm0 14.102h6.847v-7.051h-6.847zm0 14.101h6.847v-7.051h-6.847zm0 14.102h6.847v-7.051h-6.847zm0 14.101h6.847v-7.051h-6.847zm0 14.104h6.847v-7.051h-6.847zm0 14.101h6.847v-7.051h-6.847zm0 14.102h6.847v-7.051h-6.847zm-14.102 0h7.05v-7.051h-7.05zm-14.102 0h7.05v-7.051h-7.05z" fill="#2dcc70"/></g><path d="m168.75 489 .25 3 14 2v-3z" fill="#f39c11"/><path d="m180.5 455c-3.563 1.174-14.334 3.17-16.5 11.48-3.927 15.063 4.75 22.52 4.75 22.52l14.25 2c-2 15 2 13 1 24-.292 1.09-1.792 17.514-2.554 26h33.554v-63.666l-3.48-15.082-7.52-8.1s-20-.152-23.5.848" fill="#3598db"/><path d="m191 454 22.479 24.479.89-.817-21.369-23.662z" fill="#f39c11"/><g fill="#f1c40f" transform="translate(186 454)"><path d="m4.064 21.046a1.88 1.88 0 1 0 0-3.761 1.88 1.88 0 0 0 0 3.761m-.822-4.427a1.88 1.88 0 1 0 0-3.762 1.88 1.88 0 0 0 0 3.762m-.667-4.43a1.88 1.88 0 1 0 0-3.761 1.88 1.88 0 0 0 0 3.761m-.274-8.427a1.88 1.88 0 1 0 0-3.762 1.88 1.88 0 0 0 0 3.762m.274 4.428a1.88 1.88 0 1 0 0-3.761 1.88 1.88 0 0 0 0 3.761m2.155 16.62a1.88 1.88 0 1 0 0-3.762 1.88 1.88 0 0 0 0 3.762"/><path d="m5.397 28.57a1.88 1.88 0 1 0 0-3.761 1.88 1.88 0 0 0 0 3.761"/><path d="m6.73 32.143a1.88 1.88 0 1 0 0-3.762 1.88 1.88 0 0 0 0 3.762"/><path d="m7.67 35.904a1.88 1.88 0 1 0 0-3.761 1.88 1.88 0 0 0 0 3.761m1.215 3.762a1.88 1.88 0 1 0 0-3.761 1.88 1.88 0 0 0 0 3.761m1.881 3.763a1.88 1.88 0 1 0 0-3.762 1.88 1.88 0 0 0 0 3.762m2.155 3.488a1.88 1.88 0 1 0 0-3.762 1.88 1.88 0 0 0 0 3.762m3.214 3.095a1.88 1.88 0 1 0 0-3.761 1.88 1.88 0 0 0 0 3.761m3.351 2.548a1.88 1.88 0 1 0 0-3.762 1.88 1.88 0 0 0 0 3.762"/><path d="m22.993 53.774a1.88 1.88 0 1 0 0-3.762 1.88 1.88 0 0 0 0 3.762m4.126.274a1.88 1.88 0 1 0 0-3.762 1.88 1.88 0 0 0 0 3.762"/></g><path d="m181 541h68v-5h-68z" fill="#f1c40f"/><path d="m570.84 461.88h28.32v-23.797h-28.32z" fill="#f9db9d"/><g transform="translate(481 232)"><path d="m104 233.422c7.82 0 14.16-1.586 14.16-3.542s-6.34-3.542-14.16-3.542-14.16 1.586-14.16 3.542 6.34 3.542 14.16 3.542m90.217-86.939c7.204 0 13.043-5.84 13.043-13.043 0-7.204-5.839-13.044-13.043-13.044s-13.043 5.84-13.043 13.044c0 7.203 5.839 13.043 13.043 13.043m-180.434 0c7.204 0 13.043-5.84 13.043-13.043 0-7.204-5.839-13.044-13.043-13.044s-13.043 5.84-13.043 13.044c0 7.203 5.839 13.043 13.043 13.043" fill="#f9db9d"/><path d="m104 173.678c52.827 0 108.457-29.678 92.108-97.304-8.906-36.84-39.281-76.24-92.108-76.24s-91.07 60.74-93.526 76.24c-11.348 71.626 40.699 97.304 93.526 97.304" fill="#2d3e50"/><path d="m104 214.417c47.424 0 85.869-41.85 85.869-93.478 0-51.625-38.445-99.998-85.869-99.998s-85.869 48.373-85.869 99.998c0 51.627 38.445 93.478 85.869 93.478" fill="#f9db9d"/><path d="m68.477 130.099a7.871 7.871 0 0 0 7.869-7.873 7.871 7.871 0 0 0 -7.87-7.873 7.871 7.871 0 0 0 -7.868 7.873 7.871 7.871 0 0 0 7.869 7.873m71.942 0a7.871 7.871 0 0 0 7.869-7.873 7.871 7.871 0 0 0 -7.87-7.873 7.871 7.871 0 0 0 -7.868 7.873 7.871 7.871 0 0 0 7.869 7.873m-59.74 36.482c-.248.737-.4 1.492-.4 2.267 0 7.095 10.821 12.846 24.168 12.846 13.348 0 24.17-5.75 24.17-12.846 0-.775-.153-1.53-.4-2.267-2.018 6.012-11.88 10.58-23.77 10.58-11.889 0-21.75-4.568-23.769-10.58" fill="#2d3e50"/></g><path d="m487.635 322.23h193.5v-97.183h-193.5z" fill="#34495e"/><path d="m530.37 480.019s-4.347 56.521-6.522 67.391c-2.173 10.87-6.52 56.522 0 63.043 6.523 6.522 26.088 2.174 28.262-15.217 2.173-17.391 6.521-78.261 6.521-78.261v-36.956h-28.26z" fill="#f9db9d"/><path d="m527.3034 495-7.704 85.616 22.818.384 6.818-86z" fill="#3598db"/><path d="m539.3854 482.6335-4.537 98.366h9z" fill="#297fb8"/><g transform="translate(507 452)"><path d="m22.684 292.059s-21.886 1.953-21.886 11.717v5.858h68.346v-17.575z" fill="#2d3e50"/><path d="m78 115v-101.578l-11.775-12.483c-2.489-.136-15.096 0-18.178 0-26.541 0-27.744 42.678-27.744 42.678h12.543l.571 73.383z" fill="#3598db"/></g><path d="m539.3995 555-.601 17.575h46.201v-17.575z" fill="#f1c40f"/><path d="m540.417 744.059h44.583v-171.484h-44.583z" fill="#16a086"/><path d="m540.417 736.914h1.712v-7.146h-1.712zm8.857 0h7.145v-7.146h-7.145zm14.29 0h7.145v-7.146h-7.145zm7.146-7.146h7.145v-7.145h-7.145zm0-14.289h7.145v-7.146h-7.145zm0-14.292h7.145v-7.145h-7.145zm0-14.291h7.145v-7.145h-7.145zm0-14.289h7.145v-7.146h-7.145zm0-14.291h7.145v-7.145h-7.145zm0-14.291h7.145v-7.145h-7.145zm0-14.289h7.145v-7.146h-7.145zm0-14.291h7.145v-7.145h-7.145zm0-14.291h7.145v-7.145h-7.145zm0-14.289h7.145v-7.146h-7.145zm-14.291 0h7.145v-7.146h-7.145zm-14.29 0h7.145v-7.146h-7.145zm0 14.29h7.145v-7.145h-7.145zm0 14.291h7.145v-7.145h-7.145zm0 14.29h7.145v-7.146h-7.145zm0 14.29h7.145v-7.145h-7.145zm0 14.291h7.145v-7.145h-7.145zm0 14.29h7.145v-7.146h-7.145zm0 14.29h7.145v-7.145h-7.145zm0 14.291h7.145v-7.145h-7.145zm0 14.29h7.145v-7.146h-7.145zm0 14.29h7.145v-7.145h-7.145zm14.29 0h7.145v-7.145h-7.145zm7.145-7.145h7.145v-7.145h-7.145zm0-14.291h7.145v-7.145h-7.145zm0-14.289h7.145v-7.146h-7.145zm0-14.291h7.145v-7.145h-7.145zm0-14.291h7.145v-7.145h-7.145zm0-14.289h7.145v-7.146h-7.145zm0-14.291h7.145v-7.145h-7.145zm0-14.291h7.145v-7.145h-7.145zm0-14.289h7.145v-7.146h-7.145zm0-14.291h7.145v-7.145h-7.145zm-14.29 0h7.145v-7.145h-7.145zm0 14.29h7.145v-7.146h-7.145zm0 14.29h7.145v-7.145h-7.145zm0 14.291h7.145v-7.145h-7.145zm0 14.29h7.145v-7.146h-7.145zm0 14.29h7.145v-7.145h-7.145zm0 14.291h7.145v-7.145h-7.145zm0 14.29h7.145v-7.146h-7.145zm0 14.29h7.145v-7.145h-7.145zm0 14.292h7.145v-7.145h-7.145zm7.145-7.145h7.145v-7.146h-7.145zm0-14.292h7.145v-7.145h-7.145zm0-14.291h7.145v-7.145h-7.145zm0-14.289h7.145v-7.146h-7.145zm0-14.291h7.145v-7.145h-7.145zm0-14.291h7.145v-7.145h-7.145zm0-14.289h7.145v-7.146h-7.145zm0-14.291h7.145v-7.145h-7.145v7.145zm0-14.291h7.145v-7.145h-7.145zm-16.002 121.47h1.712v-7.145h-1.712zm0-14.292h1.712v-7.145h-1.712zm0-14.29h1.712v-7.146h-1.712zm0-14.29h1.712v-7.145h-1.712zm0-14.291h1.712v-7.145h-1.712zm0-14.29h1.712v-7.146h-1.712zm0-14.29h1.712v-7.145h-1.712zm0-14.291h1.712v-7.145h-1.712zm0-14.29h1.712v-7.146h-1.712zm0-14.29h1.712v-7.145h-1.712zm0-14.291h1.712v-7.145h-1.712zm8.857 0h7.145v-7.145h-7.145zm14.29 0h7.145v-7.145h-7.145zm14.291 0h7.145v-7.145h-7.145zm0 14.291h7.145v-7.145h-7.145zm0 14.291h7.145v-7.146h-7.145zm0 14.289h7.145v-7.145h-7.145zm0 14.291h7.145v-7.145h-7.145zm0 14.291h7.145v-7.146h-7.145zm0 14.289h7.145v-7.145h-7.145zm0 14.291h7.145v-7.145h-7.145zm0 14.291h7.145v-7.146h-7.145zm0 14.289h7.145v-7.145h-7.145zm0 14.291h7.145v-7.145h-7.145zm0 14.291h7.145v-7.146h-7.145zm-7.145 7.145h7.145v-7.145h-7.145zm-14.291 0h7.145v-7.145h-7.145zm-14.29 0h7.145v-7.145h-7.145z" fill="#2dcc70"/><path d="m639.63 480.019s4.347 56.521 6.522 67.391c2.173 10.87 6.52 56.522 0 63.043-6.523 6.522-26.088 2.174-28.262-15.217-2.173-17.391-6.521-78.261-6.521-78.261v-36.956h28.26z" fill="#f9db9d"/><path d="m642.6966 495 7.704 85.616-22.818.384-6.818-86z" fill="#3598db"/><path d="m630.6146 482.6335 4.537 98.366h-9z" fill="#297fb8"/><g transform="translate(585 452)"><path d="m55.316 292.059s21.886 1.953 21.886 11.717v5.858h-68.346v-17.575z" fill="#2d3e50"/><path d="m0 115v-101.578l11.775-12.483c2.489-.136 15.096 0 18.178 0 26.541 0 27.744 42.678 27.744 42.678h-12.543l-.571 73.383z" fill="#3598db"/></g><path d="m630.6005 555 .601 17.575h-46.201v-17.575z" fill="#f1c40f"/><path d="m585 744.059h44.583v-171.484h-44.583z" fill="#2dcc70"/><path d="m627.871 736.914h1.712v-7.146h-1.712zm-14.29 0h7.145v-7.146h-7.145zm-14.29 0h7.145v-7.146h-7.145zm-7.146-7.146h7.145v-7.145h-7.145zm0-14.289h7.145v-7.146h-7.145zm0-14.292h7.145v-7.145h-7.145zm0-14.291h7.145v-7.145h-7.145zm0-14.289h7.145v-7.146h-7.145zm0-14.291h7.145v-7.145h-7.145zm0-14.291h7.145v-7.145h-7.145zm0-14.289h7.145v-7.146h-7.145zm0-14.291h7.145v-7.145h-7.145zm0-14.291h7.145v-7.145h-7.145zm0-14.289h7.145v-7.146h-7.145zm14.291 0h7.145v-7.146h-7.145zm14.29 0h7.145v-7.146h-7.145zm0 14.29h7.145v-7.145h-7.145zm0 14.291h7.145v-7.145h-7.145zm0 14.29h7.145v-7.146h-7.145zm0 14.29h7.145v-7.145h-7.145zm0 14.291h7.145v-7.145h-7.145zm0 14.29h7.145v-7.146h-7.145zm0 14.29h7.145v-7.145h-7.145zm0 14.291h7.145v-7.145h-7.145zm0 14.29h7.145v-7.146h-7.145zm0 14.29h7.145v-7.145h-7.145zm-14.29 0h7.145v-7.145h-7.145zm-7.145-7.145h7.145v-7.145h-7.145zm0-14.291h7.145v-7.145h-7.145zm0-14.289h7.145v-7.146h-7.145zm0-14.291h7.145v-7.145h-7.145zm0-14.291h7.145v-7.145h-7.145zm0-14.289h7.145v-7.146h-7.145zm0-14.291h7.145v-7.145h-7.145zm0-14.291h7.145v-7.145h-7.145zm0-14.289h7.145v-7.146h-7.145zm0-14.291h7.145v-7.145h-7.145zm14.29 0h7.145v-7.145h-7.145zm0 14.29h7.145v-7.146h-7.145zm0 14.29h7.145v-7.145h-7.145zm0 14.291h7.145v-7.145h-7.145zm0 14.29h7.145v-7.146h-7.145zm0 14.29h7.145v-7.145h-7.145zm0 14.291h7.145v-7.145h-7.145zm0 14.29h7.145v-7.146h-7.145zm0 14.29h7.145v-7.145h-7.145zm0 14.292h7.145v-7.145h-7.145zm-7.145-7.145h7.145v-7.146h-7.145zm0-14.292h7.145v-7.145h-7.145zm0-14.291h7.145v-7.145h-7.145zm0-14.289h7.145v-7.146h-7.145zm0-14.291h7.145v-7.145h-7.145zm0-14.291h7.145v-7.145h-7.145zm0-14.289h7.145v-7.146h-7.145zm0-14.291h7.145v-7.145h-7.145v7.145zm0-14.291h7.145v-7.145h-7.145zm21.435 121.47h1.712v-7.145h-1.712zm0-14.292h1.712v-7.145h-1.712zm0-14.29h1.712v-7.146h-1.712zm0-14.29h1.712v-7.145h-1.712zm0-14.291h1.712v-7.145h-1.712zm0-14.29h1.712v-7.146h-1.712zm0-14.29h1.712v-7.145h-1.712zm0-14.291h1.712v-7.145h-1.712zm0-14.29h1.712v-7.146h-1.712zm0-14.29h1.712v-7.145h-1.712zm0-14.291h1.712v-7.145h-1.712zm-14.29 0h7.145v-7.145h-7.145zm-14.29 0h7.145v-7.145h-7.145zm-14.291 0h7.145v-7.145h-7.145zm0 14.291h7.145v-7.145h-7.145zm0 14.291h7.145v-7.146h-7.145zm0 14.289h7.145v-7.145h-7.145zm0 14.291h7.145v-7.145h-7.145zm0 14.291h7.145v-7.146h-7.145zm0 14.289h7.145v-7.145h-7.145zm0 14.291h7.145v-7.145h-7.145zm0 14.291h7.145v-7.146h-7.145zm0 14.289h7.145v-7.145h-7.145zm0 14.291h7.145v-7.145h-7.145zm0 14.291h7.145v-7.146h-7.145zm7.145 7.145h7.145v-7.145h-7.145zm14.291 0h7.145v-7.145h-7.145zm14.29 0h7.145v-7.145h-7.145z" fill="#16a086"/></g></svg>