<svg height="800" width="800" xmlns="http://www.w3.org/2000/svg"><g fill="none" fill-rule="evenodd"><path d="M570.84 461.88h28.32v-23.797h-28.32z" fill="#f9db9d"/><g fill="#f9db9d"><path d="M585 465.422c7.82 0 14.16-1.586 14.16-3.542s-6.34-3.542-14.16-3.542-14.16 1.586-14.16 3.542 6.34 3.542 14.16 3.542m90.217-86.939c7.204 0 13.043-5.84 13.043-13.043 0-7.204-5.839-13.044-13.043-13.044s-13.043 5.84-13.043 13.044c0 7.203 5.839 13.043 13.043 13.043m-180.434 0c7.204 0 13.043-5.84 13.043-13.043 0-7.204-5.839-13.044-13.043-13.044s-13.043 5.84-13.043 13.044c0 7.203 5.839 13.043 13.043 13.043"/></g><path d="M585 405.678c52.827 0 108.457-29.678 92.108-97.304-8.906-36.84-39.281-76.24-92.108-76.24s-91.07 60.74-93.526 76.24C480.126 380 532.173 405.678 585 405.678" fill="#2d3e50"/><path d="M585 446.418c47.424 0 85.869-41.851 85.869-93.478 0-51.626-38.445-100-85.869-100s-85.869 48.374-85.869 100c0 51.627 38.445 93.478 85.869 93.478" fill="#f9db9d"/><path d="M549.477 362.099c4.346 0 7.869-3.525 7.869-7.873s-3.523-7.873-7.87-7.873-7.868 3.525-7.868 7.873 3.523 7.873 7.869 7.873m71.942 0c4.346 0 7.869-3.525 7.869-7.873s-3.523-7.873-7.87-7.873-7.868 3.525-7.868 7.873 3.523 7.873 7.869 7.873m-59.74 36.482c-.248.737-.4 1.492-.4 2.267 0 7.095 10.821 12.846 24.168 12.846 13.348 0 24.17-5.75 24.17-12.846 0-.775-.153-1.53-.4-2.267-2.018 6.012-11.88 10.58-23.77 10.58-11.889 0-21.75-4.568-23.769-10.58" fill="#2d3e50"/><path d="M583.952 127.864l-97.183 97.183 97.183 97.183 97.183-97.183z" fill="#e84c3d"/><path d="M487.635 322.23h193.5v-97.183h-193.5z" fill="#e84c3d"/><g fill="#f1c40f"><path d="M645.052 309h9.333v-3.5h-9.333zm18.667 0h9.333v-3.5h-9.333zm-37.333 0h9.333v-3.5h-9.333zm-18.667 0h9.333v-3.5h-9.333zm-37.333 0h9.333v-3.5h-9.333zm18.666 0h9.333v-3.5h-9.333zm-37.333 0h9.333v-3.5h-9.333zm-18.667 0h9.333v-3.5h-9.333zm-37.333 0h9.333v-3.5h-9.333zm18.667 0h9.333v-3.5h-9.333z"/></g><g fill="#f1c40f"><path d="M512.146 296.28a3.396 3.396 0 1 0 0-6.792 3.396 3.396 0 0 0 0 6.792m53.208 0a3.396 3.396 0 1 0 0-6.792 3.396 3.396 0 0 0 0 6.792m-27.504-38.49a3.396 3.396 0 1 0 0-6.793 3.396 3.396 0 0 0 0 6.793m66.45 38.49a3.396 3.396 0 1 0 0-6.792 3.396 3.396 0 0 0 0 6.792m53.207 0a3.396 3.396 0 1 0 0-6.792 3.396 3.396 0 0 0 0 6.792m-27.503-38.49a3.396 3.396 0 1 0 0-6.793 3.396 3.396 0 0 0 0 6.793"/></g><path d="M639.748 480.019s4.348 56.521 6.522 67.391 6.52 56.522 0 63.043c-6.522 6.522-26.087 2.174-28.261-15.217s-6.522-78.261-6.522-78.261v-36.956z" fill="#f9db9d"/><path d="M642.697 495.384L650.324 558h-24.881l-4.377-62.616z" fill="#e84c3d"/><path d="M630.6 495.384L636.306 558h-11z" fill="#c1392b"/><path d="M650 555l.323 3H631.25v-3zm-21.75-25.5H647v-2h-18.75zm-3-26.5H643v-3h-17.75z" fill="#f1c40f"/><path d="M639.392 744.059s21.886 1.953 21.886 11.717v5.858h-68.346v-17.575z" fill="#2d3e50"/><path d="M639.017 744.059s21.886 1.953 21.886 11.717v5.858h-68.346v-17.575z" fill="#2d3e50"/><g fill="#e84c3d"><path d="M592.472 746L585 623s9.228-13.495 2.714-13.495v-25.621l45.6 27.116-5.12 133.932zM599 452.939c2.489-.136 12.871 0 15.953 0 26.541 0 27.744 42.678 27.744 42.678h-12.543l3.16 68.383H585v-98.578"/></g><path d="M585 678h48.314V564H585z" fill="#c1392b"/><path d="M585 600h48.314v-18H585z" fill="#34495e"/><path d="M585 598.5h48.314v-15H585z" fill="#e84c3d"/><path d="M585 594.5h48.314v-2H585zm0-5h48.314v-2H585z" fill="#c1392b"/><path d="M585 637.709h48.314v-18H585z" fill="#34495e"/><path d="M585 636.209h48.314v-15H585z" fill="#e84c3d"/><path d="M585 632.209h48.314v-2H585zm0-5h48.314v-2H585z" fill="#c1392b"/><path d="M585 678h48.314v-18H585z" fill="#34495e"/><path d="M585 676.5h48.314v-15H585z" fill="#e84c3d"/><path d="M585 672.5h48.314v-2H585zm0-5h48.314v-2H585z" fill="#c1392b"/><path d="M603 452.879l-15 13.12v26l-3 4v4l7-8v-26l15-13.12z" fill="#f1c40f"/><path d="M530.252 480.019s-4.348 56.521-6.522 67.391-6.52 56.522 0 63.043c6.522 6.522 26.087 2.174 28.261-15.217s6.522-78.261 6.522-78.261v-36.956z" fill="#f9db9d"/><path d="M527.303 495.384L519.676 558h24.881l4.377-62.616z" fill="#e84c3d"/><path d="M539.4 495.384L533.694 558h11z" fill="#c1392b"/><path d="M520 555l-.323 3h19.073v-3zm3-25.5h18.75v-2H523zm4-26.5h17.75v-3H527z" fill="#f1c40f"/><path d="M530.608 744.059s-21.886 1.953-21.886 11.717v5.858h68.346v-17.575z" fill="#2d3e50"/><path d="M530.983 744.059s-21.886 1.953-21.886 11.717v5.858h68.346v-17.575z" fill="#2d3e50"/><g fill="#e84c3d"><path d="M577.528 746L585 623s-9.228-13.495-2.714-13.495v-25.621L536.686 611l5.12 133.932zM571 452.939c-2.489-.136-12.871 0-15.953 0-26.541 0-27.744 42.678-27.744 42.678h12.543L536.686 564H585v-98.578"/></g><path d="M536.686 678H585V564h-48.314z" fill="#c1392b"/><path d="M536.686 600H585v-18h-48.314z" fill="#34495e"/><path d="M536.686 598.5H585v-15h-48.314z" fill="#e84c3d"/><path d="M536.686 594.5H585v-2h-48.314zm0-5H585v-2h-48.314z" fill="#c1392b"/><path d="M536.686 637.709H585v-18h-48.314z" fill="#34495e"/><path d="M536.686 636.209H585v-15h-48.314z" fill="#e84c3d"/><path d="M536.686 632.209H585v-2h-48.314zm0-5H585v-2h-48.314z" fill="#c1392b"/><path d="M536.686 678H585v-18h-48.314z" fill="#34495e"/><path d="M536.686 676.5H585v-15h-48.314z" fill="#e84c3d"/><path d="M536.686 672.5H585v-2h-48.314zm0-5H585v-2h-48.314z" fill="#c1392b"/><path d="M567 452.879l15 13.12v26l3 4v4l-7-8v-26l-15-13.12z" fill="#f1c40f"/><path d="M200.5 481.244h29V457h-29z" fill="#f9db9d"/><path d="M320.527 270.406l-23.274 13.438-1.109-1.92 23.274-13.438z" fill="#f39c11"/><path d="M341.817 256.834l-5.193 19.379-19.379-5.192 5.193-19.38z" fill="#f1c40f"/><path d="M280.936 233.358l-13.438 23.275-1.92-1.109 13.438-23.275z" fill="#f39c11"/><path d="M292.588 210.96l5.193 19.378-19.38 5.193-5.192-19.379z" fill="#f1c40f"/><path d="M109.473 270.406l23.274 13.438 1.109-1.92-23.274-13.438z" fill="#f39c11"/><path d="M88.183 256.834l5.193 19.379 19.379-5.192-5.193-19.38z" fill="#f1c40f"/><path d="M149.064 233.358l13.438 23.275 1.92-1.109-13.438-23.275z" fill="#f39c11"/><path d="M137.412 210.96l-5.193 19.378 19.38 5.193 5.192-19.379z" fill="#f1c40f"/><path d="M215 454.153c53.572 0 97-53.758 97-120.071S268.571 229 215 229c-53.572 0-97 38.769-97 105.082s43.428 120.07 97 120.07" fill="#2d3e50"/><path d="M215 400c53.572 0 97-16.288 97-72.08S268.571 237 215 237c-53.572 0-97 35.128-97 90.92S161.428 400 215 400" fill="#2d3e50"/><g fill="#f9db9d"><path d="M138.266 387.185c6.69 0 12.116-5.427 12.116-12.122s-5.425-12.123-12.116-12.123-12.116 5.428-12.116 12.123 5.425 12.122 12.116 12.122m153.468 0c6.691 0 12.116-5.427 12.116-12.122s-5.425-12.123-12.116-12.123-12.116 5.428-12.116 12.123 5.425 12.122 12.116 12.122"/></g><path d="M204.23 463.202h21.539v-18.099H204.23z" fill="#f9db9d"/><path d="M215 451.838c44.61 0 80.773-43.846 80.773-104.922S259.61 255 215 255s-80.773 30.84-80.773 91.916S170.39 451.838 215 451.838" fill="#f9db9d"/><g fill="#2d3e50"><path d="M177.556 371.281a8.193 8.193 0 0 0 8.19-8.195c0-4.527-3.666-8.196-8.19-8.196s-8.191 3.67-8.191 8.196a8.193 8.193 0 0 0 8.19 8.195m74.89 0a8.193 8.193 0 0 0 8.191-8.195c0-4.527-3.667-8.196-8.19-8.196s-8.192 3.67-8.192 8.196a8.193 8.193 0 0 0 8.191 8.195m-62.188 37.977c-.257.767-.415 1.553-.415 2.36 0 7.385 11.264 13.372 25.158 13.372 13.895 0 25.158-5.987 25.158-13.372 0-.807-.157-1.593-.415-2.36-2.1 6.258-12.366 11.013-24.743 11.013s-22.643-4.755-24.743-11.013"/><path d="M214.993 250c-69.468 2.459-88.202 52.625-81.594 113.451 0 0 .531-41.623 43.907-65.582 0 0 9.68-6.231 37.687-7.05s37.687 7.05 37.687 7.05c43.376 23.959 43.907 65.582 43.907 65.582 6.608-60.826-12.126-110.992-81.594-113.451"/><path d="M215 308.567c32.063 0 58.055-6.43 58.055-14.363 0-7.932-25.992-14.363-58.055-14.363s-58.055 6.431-58.055 14.363c0 7.933 25.992 14.363 58.055 14.363"/></g><path d="M294.242 440.815c1.98 0 3.586-12.495 3.586-27.908 0-15.412-1.606-27.907-3.586-27.907s-3.586 12.495-3.586 27.907c0 15.413 1.606 27.908 3.586 27.908m-160.015 0c1.98 0 3.586-12.495 3.586-27.908 0-15.412-1.606-27.907-3.586-27.907s-3.586 12.495-3.586 27.907c0 15.413 1.606 27.908 3.586 27.908" fill="#f1c40f"/><path d="M172.537 487.795s0 29.633-2.692 40.408c-2.693 10.776-10.77 78.122-5.385 83.51s10.77 0 13.462 0 13.462-123.918 13.462-123.918z" fill="#f9db9d"/><path d="M163.583 552.582s7.5 16 20 16v18l-22.352 3z" fill="#f1c40f"/><path d="M169 486l-4 27 22 4 1-28.859z" fill="#e84c3d"/><path d="M183 514s-3-14-2-19 3-12 3-12l-1 8s-.602 3-.602 7S185 510 185 510l-1 7z" fill="#c1392b"/><path d="M165 513v-4l20 3-1 5z" fill="#f1c40f"/><path d="M186.752 729.625l1.018 17.534-.018.003-3 3c-1 1 0 2 6 1 5.055-.843 10.094-2.477 11.562-2.973l.438-.027s.039-6.708.235-18.537z" fill="#f9db9d"/><path d="M186.83 749.1s-24.986 11.062-11.118 11.062h24.927c3.307 0 2.153-12.123 2.153-12.123z" fill="#2d3e50"/><path d="M204 455c-5.371 0-22.632-.364-23.501 0-3.562 1.174-5.656 5.628-7.823 13.937C168.75 484 168.75 489 168.75 489l14.25 2c-2 15 2 13 1 24-.395 1.474 0 9.654-4 34.654h35.001L215 468z" fill="#e84c3d"/><path d="M180 744.895h35.001v-195.24H180z" fill="#c1392b"/><path d="M180 597.502h35.001v-18H180z" fill="#34495e"/><path d="M180 596.002h35.001v-15H180z" fill="#e84c3d"/><path d="M180 592.002h35.001v-2H180zm0-5h35.001v-2H180z" fill="#c1392b"/><path d="M180 661h35.001v-18H180z" fill="#34495e"/><path d="M180 659.5h35.001v-15H180z" fill="#e84c3d"/><path d="M180 655.5h35.001v-2H180zm0-5h35.001v-2H180z" fill="#c1392b"/><path d="M180 729.625h35.001v-18H180z" fill="#34495e"/><path d="M180 728.125h35.001v-15H180z" fill="#e84c3d"/><path d="M180 724.125h35.001v-2H180zm0-5h35.001v-2H180z" fill="#c1392b"/><path d="M199 455l13 14.664v26l3 4v4l-7-8v-26L194 455z" fill="#f1c40f"/><g><path d="M257.464 487.795s0 29.633 2.692 40.408c2.693 10.776 10.77 78.122 5.385 83.51s-10.77 0-13.462 0-13.462-123.918-13.462-123.918z" fill="#f9db9d"/><path d="M266.418 552.582s-7.5 16-20 16v18l22.352 3z" fill="#f1c40f"/></g><path d="M261.001 486l4 27-22 4-1-28.859z" fill="#e84c3d"/><path d="M247.001 514s3-14 2-19-3-12-3-12l1 8s.602 3 .602 7-2.602 12-2.602 12l1 7z" fill="#c1392b"/><path d="M265.001 513v-4l-20 3 1 5z" fill="#f1c40f"/><g><path d="M243.249 729.625l-1.018 17.534.018.003 3 3c1 1 0 2-6 1-5.055-.843-10.094-2.477-11.562-2.973l-.438-.027s-.039-6.708-.235-18.537z" fill="#f9db9d"/><path d="M243.17 749.1s24.987 11.062 11.119 11.062h-24.927c-3.307 0-2.153-12.123-2.153-12.123z" fill="#2d3e50"/><path d="M226.001 455c5.371 0 22.632-.364 23.501 0 3.562 1.174 5.656 5.628 7.822 13.937C261.251 484 261.251 489 261.251 489l-14.25 2c2 15-2 13-1 24 .395 1.474 0 9.654 4 34.654H215l.001-81.654z" fill="#e84c3d"/></g><path d="M215 744.895h35.001v-195.24H215z" fill="#c1392b"/><path d="M215 597.502h35.001v-18H215z" fill="#34495e"/><path d="M215 596.002h35.001v-15H215z" fill="#e84c3d"/><path d="M215 592.002h35.001v-2H215zm0-5h35.001v-2H215z" fill="#c1392b"/><path d="M215 661h35.001v-18H215z" fill="#34495e"/><path d="M215 659.5h35.001v-15H215z" fill="#e84c3d"/><path d="M215 655.5h35.001v-2H215zm0-5h35.001v-2H215z" fill="#c1392b"/><path d="M215 729.625h35.001v-18H215z" fill="#34495e"/><path d="M215 728.125h35.001v-15H215z" fill="#e84c3d"/><path d="M215 724.125h35.001v-2H215zm0-5h35.001v-2H215z" fill="#c1392b"/><path d="M231.001 455l-13 14.664v26l-3 4v4l7-8v-26L236 455z" fill="#f1c40f"/></g></svg>