<svg height="800" width="800" xmlns="http://www.w3.org/2000/svg"><g fill="none" fill-rule="evenodd"><path d="m585 584 48.314 27-5.119 133.932-35.723 1.068-7.222-124zm0 0-48.314 27 5.12 133.932 35.721 1.068 7.222-124z" fill="#2d3e50"/><g fill="#2d3e50"><path d="m639.393 744.059s21.886 1.953 21.886 11.717v5.858h-68.346v-17.575zm-108.785 0s-21.886 1.953-21.886 11.717v5.858h68.346v-17.575z"/><path d="m639.018 744.059s21.886 1.953 21.886 11.717v5.858h-68.346v-17.575zm-108.035 0s-21.886 1.953-21.886 11.717v5.858h68.346v-17.575z"/></g><path d="m532.375 757h45.068v-12.941h-45.068zm60.182-.059h45.068v-12.941h-45.068z" fill="#f9db9d"/><path d="m585 548.567v109h47.281l1.044-109z" fill="#c74d40"/><path d="m585 657.567h19.205v-98.025h-19.205z" fill="#c1392b"/><path d="m593.21 575.682 8.07-8.07-8.07-8.069-8.07 8.07zm0 32.28 8.07-8.07-8.07-8.07-8.07 8.07zm0 32.279 8.07-8.07-8.07-8.07-8.07 8.07zm0-48.42 8.07-8.07-8.07-8.068-8.07 8.069zm0 32.28 8.07-8.07-8.07-8.069-8.07 8.07zm0 32.28 8.07-8.07-8.07-8.07-8.07 8.07z" fill="#c74d40"/><path d="m607.37 606.185h22.375v-3.062h-22.375zm0-6.125h22.375v-3.063h-22.375zm0-6.125h22.375v-3.063h-22.375zm0-6.125h22.375v-3.063h-22.375zm0-5.414h22.375v-3.062h-22.375zm0-6.124h22.375v-3.063h-22.375zm0-6.125h22.375v-3.063h-22.375zm0-6.125h22.375v-3.063h-22.375zm-.661 89.962h22.375v-3.063h-22.375zm0-6.125h22.375v-3.063h-22.375zm0-6.125h22.375v-3.063h-22.375zm0-6.125h22.375v-3.063h-22.375zm0-5.413h22.375v-3.063h-22.375zm0-6.125h22.375v-3.062h-22.375zm0-6.125h22.375v-3.063h-22.375zm0-6.125h22.375v-3.063h-22.375z" fill="#c1392b"/><path d="m585 548.567v109h-47.281l-1.044-109z" fill="#c74d40"/><path d="m565.795 657.567h19.205v-98.025h-19.205z" fill="#c1392b"/><path d="m576.79 575.682-8.07-8.07 8.07-8.069 8.07 8.07zm0 32.28-8.07-8.07 8.07-8.07 8.07 8.07zm0 32.279-8.07-8.07 8.07-8.07 8.07 8.07zm0-48.42-8.07-8.07 8.07-8.068 8.07 8.069zm0 32.28-8.07-8.07 8.07-8.069 8.07 8.07zm0 32.28-8.07-8.07 8.07-8.07 8.07 8.07z" fill="#c74d40"/><path d="m540.255 606.185h22.375v-3.062h-22.375zm0-6.125h22.375v-3.063h-22.375zm0-6.125h22.375v-3.063h-22.375zm0-6.125h22.375v-3.063h-22.375zm0-5.414h22.375v-3.062h-22.375zm0-6.124h22.375v-3.063h-22.375zm0-6.125h22.375v-3.063h-22.375zm0-6.125h22.375v-3.063h-22.375zm.661 89.962h22.375v-3.063h-22.375zm0-6.125h22.375v-3.063h-22.375zm0-6.125h22.375v-3.063h-22.375zm0-6.125h22.375v-3.063h-22.375zm0-5.413h22.375v-3.063h-22.375zm0-6.125h22.375v-3.062h-22.375zm0-6.125h22.375v-3.063h-22.375zm0-6.125h22.375v-3.063h-22.375z" fill="#c1392b"/><path d="m570.84 461.88h28.32v-23.797h-28.32z" fill="#f9db9d"/><path d="m585 465.422c7.82 0 14.16-1.586 14.16-3.542s-6.34-3.542-14.16-3.542-14.16 1.586-14.16 3.542 6.34 3.542 14.16 3.542m90.217-86.939c7.204 0 13.043-5.84 13.043-13.043 0-7.204-5.839-13.044-13.043-13.044s-13.043 5.84-13.043 13.044c0 7.203 5.839 13.043 13.043 13.043m-180.434 0c7.204 0 13.043-5.84 13.043-13.043 0-7.204-5.839-13.044-13.043-13.044s-13.043 5.84-13.043 13.044c0 7.203 5.839 13.043 13.043 13.043" fill="#f9db9d"/><path d="m585 405.678c52.827 0 108.457-29.678 92.108-97.304-8.906-36.84-39.281-76.24-92.108-76.24s-91.07 60.74-93.526 76.24c-11.348 71.626 40.699 97.304 93.526 97.304" fill="#2d3e50"/><path d="m585 446.417c47.424 0 85.869-41.85 85.869-93.478 0-51.625-38.445-99.998-85.869-99.998s-85.869 48.373-85.869 99.998c0 51.627 38.445 93.478 85.869 93.478" fill="#f9db9d"/><path d="m549.477 362.099a7.871 7.871 0 0 0 7.869-7.873 7.871 7.871 0 0 0 -7.87-7.873 7.871 7.871 0 0 0 -7.868 7.873 7.871 7.871 0 0 0 7.869 7.873m71.942 0a7.871 7.871 0 0 0 7.869-7.873 7.871 7.871 0 0 0 -7.87-7.873 7.871 7.871 0 0 0 -7.868 7.873 7.871 7.871 0 0 0 7.869 7.873m-59.74 36.482c-.248.737-.4 1.492-.4 2.267 0 7.095 10.821 12.846 24.168 12.846 13.348 0 24.17-5.75 24.17-12.846 0-.775-.153-1.53-.4-2.267-2.018 6.012-11.88 10.58-23.77 10.58-11.889 0-21.75-4.568-23.769-10.58" fill="#2d3e50"/><path d="m639.748 480.019s4.348 56.522 6.522 67.391c2.174 10.87 6.521 56.522 0 63.043-6.522 6.522-26.087 2.174-28.261-15.217s-6.522-78.261-6.522-78.261v-36.956z" fill="#f9db9d"/><path d="m642.697 495.384 9.869 92.434-24.75 5.066-6.75-97.5z" fill="#34495e"/><path d="m629.316 482.634 8.684 108.365-7.4 1.885z" fill="#2d3e50"/><path d="m598.602 445.134 8.021 8.02a153.66 153.66 0 0 1 8.33-.215c26.541 0 27.744 42.678 27.744 42.678h-12.544l4.548 125.383h-43.7c-3.75 0-6-7-6-7v-151z" fill="#34495e"/><path d="m585 615h.25v-149.999h-.25z" fill="#2d3e50"/><path d="m589.5 472.913a3.294 3.294 0 0 1 0 6.588zm0 35.481a3.293 3.293 0 1 0 0-6.587zm0 27.247a3.294 3.294 0 0 1 0 6.588zm.206 40.28a3.294 3.294 0 0 0 0-6.588z" fill="#f1c40f"/><path d="m530.252 480.019s-4.348 56.522-6.522 67.391c-2.174 10.87-6.52 56.522 0 63.043 6.522 6.522 26.087 2.174 28.261-15.217s6.522-78.261 6.522-78.261v-36.956h-28.26z" fill="#f9db9d"/><path d="m527.303 495.384-9.869 92.434 24.75 5.066 6.75-97.5z" fill="#34495e"/><path d="m540.684 482.634-8.684 108.365 7.4 1.885z" fill="#2d3e50"/><path d="m571.398 445.134-8.021 8.02a152.548 152.548 0 0 0 -8.33-.215c-26.541 0-27.744 42.678-27.744 42.678h12.544l-4.548 125.383h43.7c3.75 0 6-7 6-7v-151z" fill="#34495e"/><path d="m584.75 615h.25v-149.999h-.25z" fill="#2d3e50"/><path d="m589.92 472.913a3.294 3.294 0 0 0 0 6.588zm0 35.481a3.293 3.293 0 1 1 0-6.587zm0 27.247a3.294 3.294 0 0 0 0 6.588zm-.207 40.28a3.294 3.294 0 0 1 0-6.588z" fill="#f1c40f"/><path d="m598.328 587.126h23v-1h-23zm-49.656-1h22.999v-1h-22.999z" fill="#2d3e50"/><path d="m492.5 304h185v-71.867h-185z" fill="#c74d40"/><path d="m200.5 481.244h29v-24.244h-29z" fill="#f9db9d"/><path d="m215 457c53.572 0 97-54.437 97-121.589s-43.429-106.411-97-106.411c-53.572 0-97 39.259-97 106.411s43.428 121.589 97 121.589" fill="#2d3e50"/><path d="m215 400c53.572 0 97-16.288 97-72.08s-43.429-90.92-97-90.92c-53.573 0-97 35.128-97 90.92s43.428 72.08 97 72.08" fill="#2d3e50"/><path d="m138.266 387.185c6.69 0 12.116-5.427 12.116-12.122s-5.425-12.123-12.116-12.123-12.116 5.428-12.116 12.123 5.425 12.122 12.116 12.122m153.468 0c6.691 0 12.116-5.427 12.116-12.122s-5.425-12.123-12.116-12.123c-6.69 0-12.116 5.428-12.116 12.123s5.425 12.122 12.116 12.122" fill="#f9db9d"/><path d="m204.23 463.202h21.539v-18.099h-21.539z" fill="#f9db9d"/><path d="m215 451.838c44.61 0 80.773-43.846 80.773-104.922s-36.163-91.916-80.773-91.916-80.773 30.84-80.773 91.916 36.163 104.922 80.773 104.922" fill="#f9db9d"/><g fill="#2d3e50"><path d="m177.556 371.281a8.193 8.193 0 0 0 8.19-8.195 8.193 8.193 0 0 0 -8.19-8.196 8.193 8.193 0 0 0 -8.191 8.196 8.193 8.193 0 0 0 8.19 8.195m74.89 0a8.193 8.193 0 0 0 8.191-8.195 8.193 8.193 0 0 0 -8.19-8.196 8.193 8.193 0 0 0 -8.192 8.196 8.193 8.193 0 0 0 8.191 8.195m-62.188 37.977c-.257.767-.415 1.553-.415 2.36 0 7.385 11.264 13.372 25.158 13.372 13.895 0 25.158-5.987 25.158-13.372 0-.807-.157-1.593-.415-2.36-2.1 6.258-12.366 11.013-24.743 11.013s-22.643-4.755-24.743-11.013"/><path d="m214.993 250c-69.468 2.459-88.202 52.625-81.594 113.451 0 0 .531-41.623 43.907-65.582 0 0 9.68-6.231 37.687-7.05s37.687 7.05 37.687 7.05c43.376 23.959 43.907 65.582 43.907 65.582 6.608-60.826-12.126-110.992-81.594-113.451"/><path d="m215 308.567c32.063 0 58.055-6.43 58.055-14.363 0-7.932-25.992-14.363-58.055-14.363s-58.055 6.431-58.055 14.363c0 7.933 25.992 14.363 58.055 14.363"/></g><path d="m257.464 487.795s0 29.633 2.692 40.408c2.693 10.776 10.77 78.122 5.385 83.51s-10.77 0-13.462 0-13.462-123.918-13.462-123.918z" fill="#f9db9d"/><path d="m266.418 552.582s-7.5 16-20 16v18l22.352 3z" fill="#f1c40f"/><path d="m261.001 486 4 27-22 4-1-28.859z" fill="#e84c3d"/><path d="m247.001 514s3-14 2-19-3-12-3-12l1 8s.602 3 .602 7-2.602 12-2.602 12l1 7z" fill="#c1392b"/><path d="m243.249 729.625-1.018 17.534.018.003 3 3c1 1 0 2-6 1-5.055-.843-10.094-2.477-11.562-2.973l-.438-.027s-.039-6.708-.235-18.537z" fill="#f9db9d"/><path d="m243.17 749.1s24.987 11.062 11.119 11.062h-24.927c-3.307 0-2.153-12.123-2.153-12.123z" fill="#2d3e50"/><path d="m226.001 455c5.371 0 22.632-.364 23.501 0 3.562 1.174 5.656 5.628 7.822 13.937 3.927 15.063 3.927 20.063 3.927 20.063l-14.25 2c2 15-2 13-1 24 .395 1.474 0 9.654 4 34.654h-35.001l.001-81.654z" fill="#e84c3d"/><path d="m250.001 550.154 5 64.429h-40v-64.43z" fill="#34495e"/><path d="m250.002 614.582 5 64.43h-40.001v-64.43zm0 64.43 5 64.43h-40.001v-64.43z" fill="#34495e"/><path d="m215 520h31.5v-1h-31.5zm0 30.154h35.001v-3h-35.001zm13.001-95.316-13 16.162-.001 1 14.001-17.162zm12.5 24.162a1.5 1.5 0 1 1 .001-3.001 1.5 1.5 0 0 1 -.001 3.001m-17 11.346a1.5 1.5 0 1 0 -3.001.001 1.5 1.5 0 0 0 3.001-.001m34.093 9.654a1.5 1.5 0 1 1 .001-3.001 1.5 1.5 0 0 1 -.001 3.001m-17.093 2.246a1.5 1.5 0 1 0 -3.001.001 1.5 1.5 0 0 0 3.001-.001m-18.5 15.254a1.5 1.5 0 1 1 0-3 1.5 1.5 0 0 1 0 3m21.5 10.5a1.5 1.5 0 1 0 -3.001.001 1.5 1.5 0 0 0 3-.001m-8.5 10.254a1.5 1.5 0 1 1 .001-3.001 1.5 1.5 0 0 1 -.001 3.001m-8.5-10.254a1.5 1.5 0 1 0 -3.001.001 1.5 1.5 0 0 0 3.001-.001m-11.5 86.582h40.001v-8.582h-40.001zm.001 64.43h40.001v-8.582h-40.001zm0 64.429h40.001v-8.582h-40.001z" fill="#f1c40f"/><path d="m218.789 613a2.5 2.5 0 1 1 0-5 2.5 2.5 0 0 1 0 5m10.808 0a2.5 2.5 0 1 1 0-5 2.5 2.5 0 0 1 0 5m10.808 0a2.5 2.5 0 1 1 -.001-5 2.5 2.5 0 0 1 0 5m10.809 0a2.5 2.5 0 1 1 -.001-5 2.5 2.5 0 0 1 0 5m-32.422 64.43a2.5 2.5 0 1 1 -.001-5 2.5 2.5 0 0 1 0 5m10.809 0a2.5 2.5 0 1 1 -.001-5 2.5 2.5 0 0 1 0 5m10.808 0a2.5 2.5 0 1 1 0-5 2.5 2.5 0 0 1 0 5m10.808 0a2.5 2.5 0 1 1 0-5 2.5 2.5 0 0 1 0 5m-32.423 64.43a2.5 2.5 0 1 1 0-5 2.5 2.5 0 0 1 0 5m10.808 0a2.5 2.5 0 1 1 0-5 2.5 2.5 0 0 1 0 5m10.808 0a2.5 2.5 0 1 1 0-5 2.5 2.5 0 0 1 0 5m10.808 0a2.5 2.5 0 1 1 0-5 2.5 2.5 0 0 1 0 5" fill="#e84c3d"/><path d="m172.537 487.795s0 29.633-2.692 40.408c-2.693 10.776-10.77 78.122-5.385 83.51s10.77 0 13.462 0 13.462-123.918 13.462-123.918z" fill="#f9db9d"/><path d="m163.583 552.582s7.5 16 20 16v18l-22.352 3z" fill="#f1c40f"/><path d="m169 486-4 27 22 4 1-28.859z" fill="#e84c3d"/><path d="m183 514s-3-14-2-19 3-12 3-12l-1 8s-.602 3-.602 7 2.602 12 2.602 12l-1 7z" fill="#c1392b"/><path d="m186.752 729.625 1.018 17.534-.018.003-3 3c-1 1 0 2 6 1 5.055-.843 10.094-2.477 11.562-2.973l.438-.027s.039-6.708.235-18.537z" fill="#f9db9d"/><path d="m186.83 749.1s-24.986 11.062-11.118 11.062h24.928c3.307 0 2.153-12.123 2.153-12.123z" fill="#2d3e50"/><path d="m204 455c-5.371 0-22.632-.364-23.501 0-3.562 1.174-5.656 5.628-7.823 13.937-3.926 15.063-3.926 20.063-3.926 20.063l14.25 2c-2 15 2 13 1 24-.395 1.474 0 9.654-4 34.654h35.001l-.001-81.654z" fill="#e84c3d"/><path d="m180 550.154-5 64.429h40v-64.43z" fill="#34495e"/><path d="m179.999 614.582-5 64.43h40.001v-64.43zm0 64.43-5 64.43h40.001v-64.43z" fill="#34495e"/><path d="m183.5 520h31.5v-1h-31.5zm-3.5 30.154h35.001v-3h-35.001zm22-95.316 13 16.162.001 1-14.001-17.162zm-12.5 24.162a1.5 1.5 0 1 0 -.001-3.001 1.5 1.5 0 0 0 .001 3.001m17 11.346a1.5 1.5 0 1 1 3.001.001 1.5 1.5 0 0 1 -3.001-.001m-34.093 9.654a1.5 1.5 0 1 0 -.001-3.001 1.5 1.5 0 0 0 .001 3.001m17.093 2.246a1.5 1.5 0 1 1 3.001.001 1.5 1.5 0 0 1 -3.001-.001m18.5 15.254a1.5 1.5 0 1 0 0-3 1.5 1.5 0 0 0 0 3m-21.5 10.5a1.5 1.5 0 1 1 3.001.001 1.5 1.5 0 0 1 -3.001-.001m8.5 10.254a1.5 1.5 0 1 0 -.001-3.001 1.5 1.5 0 0 0 .001 3.001m8.5-10.254a1.5 1.5 0 1 1 3.001.001 1.5 1.5 0 0 1 -3.001-.001m-28.5 86.582h40.001v-8.582h-40.001zm0 64.43h40.001v-8.582h-40.001zm0 64.429h40.001v-8.582h-40.001z" fill="#f1c40f"/><path d="m211.212 613a2.5 2.5 0 1 0 0-5 2.5 2.5 0 0 0 0 5m-10.808 0a2.5 2.5 0 1 0 0-5 2.5 2.5 0 0 0 0 5m-10.808 0a2.5 2.5 0 1 0 .001-5 2.5 2.5 0 0 0 0 5m-10.81 0a2.5 2.5 0 1 0 .001-5 2.5 2.5 0 0 0 0 5m32.423 64.43a2.5 2.5 0 1 0 .001-5 2.5 2.5 0 0 0 0 5m-10.809 0a2.5 2.5 0 1 0 .001-5 2.5 2.5 0 0 0 0 5m-10.809 0a2.5 2.5 0 1 0 .001-5 2.5 2.5 0 0 0 0 5m-10.808 0a2.5 2.5 0 1 0 0-5 2.5 2.5 0 0 0 0 5m32.423 64.43a2.5 2.5 0 1 0 0-5 2.5 2.5 0 0 0 0 5m-10.808 0a2.5 2.5 0 1 0 0-5 2.5 2.5 0 0 0 0 5m-10.808 0a2.5 2.5 0 1 0 0-5 2.5 2.5 0 0 0 0 5m-10.808 0a2.5 2.5 0 1 0 0-5 2.5 2.5 0 0 0 0 5" fill="#e84c3d"/><path d="m118.5 320.754h193v-24.471h-193z" fill="#ecf0f1"/><path d="m144.563 320.625h2.019v-24.471h-2.019z" fill="#2d3e50"/><path d="m148.6 320.625h2.019v-24.471h-2.019z" fill="#e84c3d"/><path d="m152.638 320.625h2.019v-24.471h-2.019z" fill="#2d3e50"/><path d="m156.675 320.625h2.019v-24.471h-2.019z" fill="#e84c3d"/><path d="m228.59 320.625h2.019v-24.471h-2.019z" fill="#2d3e50"/><path d="m232.627 320.625h2.019v-24.471h-2.019z" fill="#e84c3d"/><path d="m236.664 320.625h2.019v-24.471h-2.019z" fill="#2d3e50"/><path d="m240.701 320.625h2.019v-24.471h-2.019z" fill="#e84c3d"/><path d="m186.334 320.625h2.019v-24.471h-2.019z" fill="#2d3e50"/><path d="m190.372 320.625h2.019v-24.471h-2.019z" fill="#e84c3d"/><path d="m194.409 320.625h2.019v-24.471h-2.019z" fill="#2d3e50"/><path d="m198.446 320.625h2.019v-24.471h-2.019z" fill="#e84c3d"/><path d="m270.361 320.625h2.019v-24.471h-2.019z" fill="#2d3e50"/><path d="m274.398 320.625h2.019v-24.471h-2.019z" fill="#e84c3d"/><path d="m278.435 320.625h2.019v-24.471h-2.019z" fill="#2d3e50"/><path d="m282.472 320.625h2.019v-24.471h-2.019zm-163.972-24.342v24.211l12.106-12.106zm12.106 11.977 12.105 12.105v-24.21zm71.92-11.977v24.211l12.106-12.106zm12.106 11.977 12.106 12.105v-24.21zm72.657-11.977v24.211l12.106-12.106zm12.106 11.977 12.105 12.105v-24.21z" fill="#e84c3d"/><path d="m160.271 296.283v24.211l12.106-12.106zm12.106 11.977 12.105 12.105v-24.21zm71.92-11.977v24.211l12.107-12.106-12.106-12.105zm12.107 11.977 12.105 12.105v-24.21z" fill="#2d3e50"/></g></svg>