<svg height="800" width="800" xmlns="http://www.w3.org/2000/svg"><g fill="none" fill-rule="evenodd"><path d="M570.84 461.88h28.32v-23.797h-28.32z" fill="#f9db9d"/><path d="M585 465.422c7.82 0 14.16-1.586 14.16-3.542s-6.34-3.542-14.16-3.542-14.16 1.586-14.16 3.542 6.34 3.542 14.16 3.542m90.217-86.939c7.204 0 13.043-5.84 13.043-13.043 0-7.204-5.839-13.044-13.043-13.044s-13.043 5.84-13.043 13.044c0 7.203 5.839 13.043 13.043 13.043m-180.434 0c7.204 0 13.043-5.84 13.043-13.043 0-7.204-5.839-13.044-13.043-13.044s-13.043 5.84-13.043 13.044c0 7.203 5.839 13.043 13.043 13.043" fill="#f9db9d"/><path d="M585 405.678c52.827 0 108.457-29.678 92.108-97.304-8.906-36.84-39.281-76.24-92.108-76.24s-91.07 60.74-93.526 76.24C480.126 380 532.173 405.678 585 405.678" fill="#2d3e50"/><path d="M585 446.418c47.424 0 85.869-41.851 85.869-93.478 0-51.626-38.445-100-85.869-100s-85.869 48.374-85.869 100c0 51.627 38.445 93.478 85.869 93.478" fill="#f9db9d"/><g fill="#2d3e50"><path d="M549.477 362.099c4.346 0 7.869-3.525 7.869-7.873s-3.523-7.873-7.87-7.873-7.868 3.525-7.868 7.873 3.523 7.873 7.869 7.873m71.942 0c4.346 0 7.869-3.525 7.869-7.873s-3.523-7.873-7.87-7.873-7.868 3.525-7.868 7.873 3.523 7.873 7.869 7.873m-59.74 36.482c-.248.737-.4 1.492-.4 2.267 0 7.095 10.821 12.846 24.168 12.846 13.348 0 24.17-5.75 24.17-12.846 0-.775-.153-1.53-.4-2.267-2.018 6.012-11.88 10.58-23.77 10.58-11.889 0-21.75-4.568-23.769-10.58m-31.07 345.478s-21.886 1.953-21.886 11.717v5.858h68.346v-17.575z"/><path d="M530.983 744.059s-21.886 1.953-21.886 11.717v5.858h68.346v-17.575z"/></g><path d="M577.528 746L585 623s-9.228-13.495-2.714-13.495v-25.621L536.686 611l5.12 133.932z" fill="#f1c40f"/><path d="M556.82 742h5.333v-2h-5.333zm10.666 0h5.333v-2h-5.333zm-21.333 0h5.333v-2h-5.333z" fill="#f1c40f"/><g fill="#f1c40f"><path d="M569.696 715a1.5 1.5 0 1 0 0 3 1.5 1.5 0 0 0 0-3m-23.5 0a1.5 1.5 0 1 0 0 3 1.5 1.5 0 0 0 0-3m12.148 17a1.5 1.5 0 1 0 0 3 1.5 1.5 0 0 0 0-3"/></g><path d="M530.252 480.019s-4.348 56.522-6.522 67.391c-2.174 10.87-6.52 56.522 0 63.043 6.522 6.522 26.087 2.174 28.261-15.217s6.522-78.261 6.522-78.261v-36.956z" fill="#f9db9d"/><path d="M527.303 495.384l-9.869 92.435 24.75 5.065 6.75-97.5z" fill="#f1c40f"/><path d="M540.684 482.634L529.3 590l10.1 2.884z" fill="#f39c11"/><path d="M571.398 445.134l-8.021 8.02a152.548 152.548 0 0 0-8.33-.215c-26.541 0-27.744 42.678-27.744 42.678h12.544L534.966 601H585V458.634z" fill="#f1c40f"/><path d="M567 452.879l15 13.12v26l3 4v4l-7-8v-26l-15-13.12z" fill="#f39c11"/><path d="M536 661.32h49V601h-49z" fill="#d25400"/><path d="M536 656.295h49v-50.268h-49z" fill="#e67f22"/><path d="M536 642.889h49v-6.701h-49zm0-16.756h49v-6.701h-49z" fill="#f1c40f"/><path d="M639.392 744.059s21.886 1.953 21.886 11.717v5.858h-68.346v-17.575z" fill="#2d3e50"/><path d="M639.017 744.059s21.886 1.953 21.886 11.717v5.858h-68.346v-17.575z" fill="#2d3e50"/><path d="M592.472 746L585 623s9.228-13.495 2.714-13.495v-25.621l45.6 27.116-5.12 133.932z" fill="#f1c40f"/><path d="M607.847 742h5.333v-2h-5.333zm-10.666 0h5.333v-2h-5.333zm21.333 0h5.333v-2h-5.333z" fill="#f1c40f"/><g fill="#f1c40f"><path d="M600.304 715a1.5 1.5 0 1 1 0 3 1.5 1.5 0 0 1 0-3m23.5 0a1.5 1.5 0 1 1 0 3 1.5 1.5 0 0 1 0-3m-12.148 17a1.5 1.5 0 1 1 0 3 1.5 1.5 0 0 1 0-3"/></g><path d="M639.748 480.019s4.348 56.522 6.522 67.391c2.174 10.87 6.52 56.522 0 63.043-6.522 6.522-26.087 2.174-28.261-15.217s-6.522-78.261-6.522-78.261v-36.956z" fill="#f9db9d"/><path d="M642.697 495.384l9.869 92.435-24.75 5.065-6.75-97.5z" fill="#f1c40f"/><path d="M629.316 482.634L640.7 590l-10.1 2.884z" fill="#f39c11"/><path d="M598.602 445.134l8.021 8.02c2.49-.135 5.248-.215 8.33-.215 26.541 0 27.744 42.678 27.744 42.678h-12.544L635.034 601H585V458.634z" fill="#f1c40f"/><path d="M603 452.879l-15 13.12v26l-3 4v4l7-8v-26l15-13.12z" fill="#f39c11"/><path d="M585 661.32h49V601h-49z" fill="#d25400"/><path d="M585 656.295h49v-50.268h-49z" fill="#e67f22"/><path d="M585 642.889h49v-6.701h-49zm0-16.756h49v-6.701h-49z" fill="#f1c40f"/><path d="M508.895 198l-21.26 124.23h193.5L659.875 198z" fill="#e67f22"/><g fill="#f1c40f"><path d="M645.052 309h9.333v-3.5h-9.333zm18.667 0h9.333v-3.5h-9.333zm-37.333 0h9.333v-3.5h-9.333zm-18.667 0h9.333v-3.5h-9.333zm-37.333 0h9.333v-3.5h-9.333zm18.666 0h9.333v-3.5h-9.333zm-37.333 0h9.333v-3.5h-9.333zm-18.667 0h9.333v-3.5h-9.333zm-37.333 0h9.333v-3.5h-9.333zm18.667 0h9.333v-3.5h-9.333z"/><path d="M512.146 296.28a3.396 3.396 0 1 0 0-6.792 3.396 3.396 0 0 0 0 6.792m53.208 0a3.396 3.396 0 1 0 0-6.792 3.396 3.396 0 0 0 0 6.792m-27.504-38.49a3.396 3.396 0 1 0 0-6.793 3.396 3.396 0 0 0 0 6.793m66.45 38.49a3.396 3.396 0 1 0 0-6.792 3.396 3.396 0 0 0 0 6.792m53.207 0a3.396 3.396 0 1 0 0-6.792 3.396 3.396 0 0 0 0 6.792m-27.503-38.49a3.396 3.396 0 1 0 0-6.793 3.396 3.396 0 0 0 0 6.793"/></g><path d="M213.892 237.272h2.217v-26.875h-2.217z" fill="#f39c11"/><path d="M215 185.173l14.187 14.187L215 213.546l-14.187-14.186z" fill="#f1c40f"/><path d="M320.527 270.406l-23.274 13.438-1.109-1.92 23.274-13.438z" fill="#f39c11"/><path d="M341.817 256.834l-5.193 19.379-19.379-5.192 5.193-19.38z" fill="#f1c40f"/><path d="M280.936 233.358l-13.438 23.275-1.92-1.109 13.438-23.275z" fill="#f39c11"/><path d="M292.588 210.96l5.193 19.378-19.38 5.193-5.192-19.379z" fill="#f1c40f"/><path d="M109.473 270.406l23.274 13.438 1.109-1.92-23.274-13.438z" fill="#f39c11"/><path d="M88.183 256.834l5.193 19.379 19.379-5.192-5.193-19.38z" fill="#f1c40f"/><path d="M149.064 233.358l13.438 23.275 1.92-1.109-13.438-23.275z" fill="#f39c11"/><path d="M137.412 210.96l-5.193 19.378 19.38 5.193 5.192-19.379z" fill="#f1c40f"/><path d="M215 409.258c53.572 0 97-43.039 97-96.129S268.571 229 215 229c-53.572 0-97 31.038-97 84.13 0 53.09 43.428 96.128 97 96.128" fill="#f1c40f"/><path d="M215 444.749c53.572 0 97-20.76 97-91.87C312 281.773 268.571 237 215 237c-53.572 0-97 44.773-97 115.88 0 71.11 43.428 91.87 97 91.87" fill="#2d3e50"/><g fill="#f9db9d"><path d="M138.266 387.185c6.69 0 12.116-5.427 12.116-12.122s-5.425-12.123-12.116-12.123-12.116 5.428-12.116 12.123 5.425 12.122 12.116 12.122m153.468 0c6.691 0 12.116-5.427 12.116-12.122s-5.425-12.123-12.116-12.123-12.116 5.428-12.116 12.123 5.425 12.122 12.116 12.122"/></g><path d="M204.23 463.202h21.539v-18.099H204.23z" fill="#f9db9d"/><path d="M215 451.838c44.61 0 80.773-43.846 80.773-104.922S259.61 255 215 255s-80.773 30.84-80.773 91.916S170.39 451.838 215 451.838" fill="#f9db9d"/><g fill="#2d3e50"><path d="M177.556 371.281a8.193 8.193 0 0 0 8.19-8.195c0-4.527-3.666-8.196-8.19-8.196s-8.191 3.67-8.191 8.196a8.193 8.193 0 0 0 8.19 8.195m74.89 0a8.193 8.193 0 0 0 8.191-8.195c0-4.527-3.667-8.196-8.19-8.196s-8.192 3.67-8.192 8.196a8.193 8.193 0 0 0 8.191 8.195m-62.188 37.977c-.257.767-.415 1.553-.415 2.36 0 7.385 11.264 13.372 25.158 13.372 13.895 0 25.158-5.987 25.158-13.372 0-.807-.157-1.593-.415-2.36-2.1 6.258-12.366 11.013-24.743 11.013s-22.643-4.755-24.743-11.013"/><path d="M214.993 250c-69.468 2.459-88.202 52.625-81.594 113.451 0 0 .531-41.623 43.907-65.582 0 0 9.68-6.231 37.687-7.05s37.687 7.05 37.687 7.05c43.376 23.959 43.907 65.582 43.907 65.582 6.608-60.826-12.126-110.992-81.594-113.451"/><path d="M215 308.567c32.063 0 58.055-6.43 58.055-14.363 0-7.932-25.992-14.363-58.055-14.363s-58.055 6.431-58.055 14.363c0 7.933 25.992 14.363 58.055 14.363"/></g><path d="M196.867 478.806h17.993v-24.654h-17.993z" fill="#f9db9d"/><path d="M172.537 487.795s0 29.633-2.692 40.408c-2.693 10.776-10.77 78.122-5.385 83.51s10.77 0 13.462 0 13.462-123.918 13.462-123.918zm14.215 241.83l1.018 17.534-.018.003-3 3c-1 1 0 2 6 1 5.055-.843 10.094-2.477 11.562-2.973l.438-.027s.039-6.708.235-18.537z" fill="#f9db9d"/><path d="M186.83 749.1s-24.986 11.062-11.118 11.062h24.927c3.307 0 2.153-12.123 2.153-12.123z" fill="#2d3e50"/><path d="M173 481s-10.14 91-12.14 101l20 4 13.392-79.838v-21z" fill="#f1c40f"/><path d="M181.752 483.162S183.819 504 183.819 509s-11.882 62-8.959 76l12.892-12.838 4.688-89h-9.688" fill="#f39c11"/><path d="M215 604V464c-10 0-12.501-9.847-12.501-9.847-5.371 0-21.131.483-22 .847-3.562 1.174-7.823 5.35-7.823 13.937v18.857h10.216c2.812 12.633 4.4 19.467 1.7 29.549-.394 1.474-1.601 8.654-1.601 8.654-2.075 12.09-7.542 50.561-10.141 78.003z" fill="#f1c40f"/><path d="M173.514 679H215v-75h-41.486z" fill="#d25400"/><path d="M173.514 672.75H215v-62.5h-41.486z" fill="#e67f22"/><path d="M173.514 635.25H215v-8.333h-41.486zm0 20.834H215v-8.334h-41.486z" fill="#f1c40f"/><path d="M173.514 754H215v-75h-41.486z" fill="#d25400"/><path d="M173.514 747.75H215v-62.5h-41.486z" fill="#e67f22"/><path d="M173.514 710.25H215v-8.333h-41.486zm0 20.834H215v-8.334h-41.486z" fill="#f1c40f"/><g fill="#e84c3d"><path d="M215 463.203l-9.136-5.2S195.742 471.84 196.867 473c1.125 1.16 18.133 12 18.133 12z"/><path d="M203 454.323s6.864 9.825 12 10.677l-11 11s-13.748 2.516-15-8c-1-8.396-8-8-12-11 0 0-4-3.51 26-2.677"/></g><path d="M215.14 478.806h17.993v-24.654H215.14z" fill="#f9db9d"/><g><path d="M257.463 487.795s0 29.633 2.692 40.408c2.693 10.776 10.77 78.122 5.385 83.51s-10.77 0-13.462 0-13.462-123.918-13.462-123.918zm-14.215 241.83l-1.018 17.534.018.003 3 3c1 1 0 2-6 1-5.055-.843-10.094-2.477-11.562-2.973l-.438-.027s-.039-6.708-.235-18.537z" fill="#f9db9d"/><path d="M243.17 749.1s24.986 11.062 11.118 11.062H229.36c-3.307 0-2.153-12.123-2.153-12.123z" fill="#2d3e50"/><path d="M257 481s10.14 91 12.14 101l-20 4-13.392-79.838v-21z" fill="#f1c40f"/><path d="M248.248 483.162S246.181 504 246.181 509s11.882 62 8.959 76l-12.892-12.838-4.688-89h9.688" fill="#f39c11"/><path d="M215 604V464c10 0 12.501-9.847 12.501-9.847 5.371 0 21.131.483 22 .847 3.562 1.174 7.822 5.35 7.822 13.937v18.857h-10.215c-2.812 12.633-4.4 19.467-1.7 29.549.394 1.474 1.601 8.654 1.601 8.654 2.075 12.09 7.542 50.561 10.141 78.003z" fill="#f1c40f"/></g><path d="M215 679h41.486v-75H215z" fill="#d25400"/><path d="M215 672.75h41.486v-62.5H215z" fill="#e67f22"/><path d="M215 635.25h41.486v-8.333H215zm0 20.834h41.486v-8.334H215z" fill="#f1c40f"/><path d="M215 754h41.486v-75H215z" fill="#d25400"/><path d="M215 747.75h41.486v-62.5H215z" fill="#e67f22"/><path d="M215 710.25h41.486v-8.333H215zm0 20.834h41.486v-8.334H215z" fill="#f1c40f"/><g fill="#e84c3d"><path d="M215 463.203l9.136-5.2s10.122 13.837 8.997 14.997C232.008 474.16 215 485 215 485z"/><path d="M227 454.323s-6.864 9.825-12 10.677l11 11s13.748 2.516 15-8c1-8.396 8-8 12-11 0 0 4-3.51-26-2.677"/></g></g></svg>