<svg height="800" width="800" xmlns="http://www.w3.org/2000/svg"><g fill="none" fill-rule="evenodd"><path d="M236 455l6.07 24L215 490v-35.847zm-42 0l-6.07 24L215 490v-35.847zm63.463 32.795s0 29.633 2.692 40.408c2.693 10.776 10.77 78.122 5.385 83.51s-10.769 0-13.462 0c-2.692 0-13.462-123.918-13.462-123.918z" fill="#f9db9d"/><path d="M215 608.823h20.748V481H215z" fill="#297fb8"/><path d="M172.537 487.795s0 29.633-2.692 40.408c-2.693 10.776-10.77 78.122-5.385 83.51s10.77 0 13.462 0 13.462-123.918 13.462-123.918z" fill="#f9db9d"/><path d="M194.252 608.823H215V481h-20.748z" fill="#297fb8"/><path d="M215 409.258c53.572 0 97-43.039 97-96.129S268.571 229 215 229c-53.572 0-97 31.038-97 84.13 0 53.09 43.428 96.128 97 96.128" fill="#2d3e50"/><path d="M215 444.749c53.572 0 97-20.76 97-91.87C312 281.773 268.571 237 215 237c-53.572 0-97 44.773-97 115.88 0 71.11 43.428 91.87 97 91.87" fill="#2d3e50"/><g fill="#f9db9d"><path d="M138.266 387.185c6.69 0 12.116-5.427 12.116-12.122s-5.425-12.123-12.116-12.123-12.116 5.428-12.116 12.123 5.425 12.122 12.116 12.122m153.468 0c6.691 0 12.116-5.427 12.116-12.122s-5.425-12.123-12.116-12.123-12.116 5.428-12.116 12.123 5.425 12.122 12.116 12.122"/></g><path d="M204.23 463.202h21.539v-18.099H204.23z" fill="#f9db9d"/><path d="M215 451.838c44.61 0 80.773-43.846 80.773-104.922S259.61 255 215 255s-80.773 30.84-80.773 91.916S170.39 451.838 215 451.838" fill="#f9db9d"/><g fill="#2d3e50"><path d="M177.556 371.281a8.193 8.193 0 0 0 8.19-8.195c0-4.527-3.666-8.196-8.19-8.196s-8.191 3.67-8.191 8.196a8.193 8.193 0 0 0 8.19 8.195m74.89 0a8.193 8.193 0 0 0 8.191-8.195c0-4.527-3.667-8.196-8.19-8.196s-8.192 3.67-8.192 8.196a8.193 8.193 0 0 0 8.191 8.195m-62.188 37.977c-.257.767-.415 1.553-.415 2.36 0 7.385 11.264 13.372 25.158 13.372 13.895 0 25.158-5.987 25.158-13.372 0-.807-.157-1.593-.415-2.36-2.1 6.258-12.366 11.013-24.743 11.013s-22.643-4.755-24.743-11.013"/><path d="M214.993 250c-69.468 2.459-88.202 52.625-81.594 113.451 0 0 .531-41.623 43.907-65.582 0 0 9.68-6.231 37.687-7.05s37.687 7.05 37.687 7.05c43.376 23.959 43.907 65.582 43.907 65.582 6.608-60.826-12.126-110.992-81.594-113.451"/><path d="M215 308.567c32.063 0 58.055-6.43 58.055-14.363 0-7.932-25.992-14.363-58.055-14.363s-58.055 6.431-58.055 14.363c0 7.933 25.992 14.363 58.055 14.363"/></g><path d="M186.752 729.625l1.018 17.534-.018.003-3 3c-1 1 0 2 6 1 5.055-.843 10.094-2.477 11.562-2.973l.438-.027s.039-6.708.235-18.537z" fill="#f9db9d"/><path d="M186.83 749.1s-24.986 11.062-11.118 11.062h24.927c3.307 0 2.153-12.123 2.153-12.123z" fill="#2d3e50"/><path d="M243.248 729.625l-1.018 17.534.018.003 3 3c1 1 0 2-6 1-5.055-.843-10.094-2.477-11.562-2.973l-.438-.027s-.039-6.708-.235-18.537z" fill="#f9db9d"/><path d="M245 750s23.156 10.162 9.288 10.162h-24.927c-3.307 0-2.153-12.122-2.153-12.122z" fill="#2d3e50"/><path d="M251.69 574h-73.38l-.81 178H215h-.333 37.5z" fill="#3598db"/><path d="M257 481s10.14 91 12.14 101l-20 4-13.392-79.838v-21z" fill="#5dade2"/><path d="M248.248 483.162S246.181 504 246.181 509s11.882 62 8.96 76l-12.893-12.838-4.688-89h9.688" fill="#3598db"/><path d="M225.374 453c2.338 0 8.77 1.244 12.96 1.378 5.436.173 10.676.417 11.167.622 3.562 1.174 7.823 5.35 7.823 13.937v18.857h-10.216c-2.812 12.633-4.4 19.467-1.7 29.549.394 1.474 1.602 8.654 1.602 8.654 2.074 12.09 5.05 38.561 7.649 66.003L223 593v-91c0-12 3.467-21.334 4.501-31.667S225.374 453 225.374 453" fill="#5dade2"/><path d="M227.568 453.103c3.465 4 12.465 18 3.465 32s-8 18-8 18S229.714 488 232 486c4.258-3.724 6.018-17 2.916-22.896-6.38-12.125-7.348-10-7.348-10" fill="#3598db"/><g fill="#f1c40f"><path d="M223 504.508l1.78 2.967 2.22.592-2.22 2.966.593 2.373H223zm0 23.285l1.78 2.967 2.22.592-2.22 2.966.593 2.373H223zm0 23.103l1.78 2.967 2.22.592-2.22 2.966.593 2.373H223zM223 574l1.78 2.967 2.22.592-2.22 2.966.593 2.373H223z"/></g><path d="M173 481s-10.14 91-12.14 101l20 4 13.392-79.838v-21z" fill="#5dade2"/><path d="M181.752 483.162S183.819 504 183.819 509s-11.882 62-8.959 76l12.892-12.838 4.688-89h-9.688" fill="#3598db"/><path d="M204.626 453c-2.338 0-8.77 1.244-12.96 1.378-5.436.173-10.676.417-11.167.622-3.562 1.174-7.823 5.35-7.823 13.937v18.857h10.216c2.812 12.633 4.4 19.467 1.7 29.549-.394 1.474-1.602 8.654-1.602 8.654-2.074 12.09-5.05 38.561-7.649 66.003l31.66 1v-91c0-12-3.468-21.334-4.502-31.667S204.626 453 204.626 453" fill="#5dade2"/><path d="M202.432 453.103c-3.465 4-12.465 18-3.465 32s8 18 8 18S200.286 488 198 486c-4.258-3.724-6.018-17-2.916-22.896 6.381-12.125 7.348-10 7.348-10" fill="#3598db"/><path d="M207 504.508l-1.779 2.967-2.221.592 2.221 2.966-.594 2.373H207zm0 23.285l-1.779 2.967-2.221.592 2.221 2.966-.594 2.373H207zm0 23.103l-1.779 2.967-2.221.592 2.221 2.966-.594 2.373H207zM207 574l-1.779 2.967-2.221.592 2.221 2.966-.594 2.373H207z" fill="#f1c40f"/><path d="M530.608 744.059s-21.886 1.953-21.886 11.717v5.858h68.346v-17.575zm108.784 0s21.886 1.953 21.886 11.717v5.858h-68.346v-17.575z" fill="#2d3e50"/><g fill="#297fb8"><path d="M578.486 756.215V654.226s0-28.247 6.514-28.247v-39.794h-45.6V742.24zm13.028 0V654.226s0-28.247-6.514-28.247v-39.794h45.6V742.24z"/></g><path d="M570.84 461.88h28.32v-23.797h-28.32z" fill="#f9db9d"/><g fill="#f9db9d"><path d="M582 493c7.82 0 17.16-29.163 17.16-31.12 0-1.956-6.34-3.541-14.16-3.541s-14.16 1.585-14.16 3.541c0 1.957 3.34 31.12 11.16 31.12m93.217-114.517c7.204 0 13.043-5.84 13.043-13.043 0-7.204-5.839-13.044-13.043-13.044s-13.043 5.84-13.043 13.044c0 7.203 5.839 13.043 13.043 13.043m-180.434 0c7.204 0 13.043-5.84 13.043-13.043 0-7.204-5.839-13.044-13.043-13.044s-13.043 5.84-13.043 13.044c0 7.203 5.839 13.043 13.043 13.043"/></g><path d="M585 405.678c52.827 0 107.748-29.678 91.4-97.304-8.906-36.84-38.573-76.24-91.4-76.24s-91.07 60.74-93.526 76.24C480.126 380 532.173 405.678 585 405.678" fill="#2d3e50"/><path d="M585 446.418c47.424 0 85.869-41.851 85.869-93.478 0-51.626-38.445-100-85.869-100s-85.869 48.374-85.869 100c0 51.627 38.445 93.478 85.869 93.478" fill="#f9db9d"/><path d="M549.477 362.099c4.346 0 7.869-3.525 7.869-7.873s-3.523-7.873-7.87-7.873-7.868 3.525-7.868 7.873 3.523 7.873 7.869 7.873m71.942 0c4.346 0 7.869-3.525 7.869-7.873s-3.523-7.873-7.87-7.873-7.868 3.525-7.868 7.873 3.523 7.873 7.869 7.873m-59.74 36.482c-.248.737-.4 1.492-.4 2.267 0 7.095 10.821 12.846 24.168 12.846 13.348 0 24.17-5.75 24.17-12.846 0-.775-.153-1.53-.4-2.267-2.018 6.012-11.88 10.58-23.77 10.58-11.889 0-21.75-4.568-23.769-10.58" fill="#2d3e50"/><path d="M529.877 480.019s-4.348 56.522-6.522 67.391c-2.174 10.87-6.52 56.522 0 63.043 6.522 6.522 26.087 2.174 28.261-15.217s6.522-78.261 6.522-78.261v-36.956z" fill="#f9db9d"/><path d="M526.928 495.384l-9.869 92.435 24.75 5.065 6.75-97.5z" fill="#f1c40f"/><path d="M540.31 482.634L532.923 591l6.1 1.884z" fill="#f39c11"/><g><path d="M585 484v129.332S570.674 650 566.924 650s-29.325-16-29.325-16l1.873-138.383h-12.544s1.204-42.678 27.744-42.678c2.378 0 16.252-2.818 16.252 2.061 0 15 14.076 29 14.076 29" fill="#f1c40f"/><path d="M640.123 480.019s4.348 56.522 6.522 67.391c2.174 10.87 6.52 56.522 0 63.043-6.522 6.522-26.087 2.174-28.261-15.217s-6.522-78.261-6.522-78.261v-36.956z" fill="#f9db9d"/></g><path d="M643.072 495.384l9.869 92.435-24.75 5.065-6.75-97.5z" fill="#f1c40f"/><path d="M629.69 482.634L637.077 591l-6.1 1.884z" fill="#f39c11"/><path d="M585 484v129.332S599.326 650 603.076 650s29.325-16 29.325-16l-1.873-138.383h12.544s-1.204-42.678-27.744-42.678c-2.378 0-16.252-2.818-16.252 2.061 0 15-14.076 29-14.076 29" fill="#f1c40f"/><path d="M507.861 211.922l-20.212 20.212 20.212 20.212 20.212-20.213zm153.062 0l-20.212 20.211 20.212 20.213 20.212-20.213zm-76.379-35.955l-56.167 56.167 56.167 56.167 56.167-56.167z" fill="#c1392b"/><path d="M487.635 324.238h193.5v-92.105h-193.5z" fill="#c1392b"/><path d="M567.5 445l17.5 10v30l-27-28zm35 0L585 455v30l27-28z" fill="#f1c40f"/><path d="M584.5 614.479h1.001v-159H584.5z" fill="#f39c11"/><path d="M538.75 589h92.5v-18h-92.5z" fill="#c1392b"/><path d="M538.75 587.5h92.5v-15h-92.5z" fill="#e84c3d"/><path d="M538.75 583.5h92.5v-2h-92.5zm0-5h92.5v-2h-92.5z" fill="#c1392b"/><path d="M602.861 659.582h18v-92.5h-18z" fill="#c1392b"/><path d="M604.361 659.582h15v-92.5h-15z" fill="#e84c3d"/><path d="M608.361 659.582h2v-92.5h-2zm5 0h2v-92.5h-2z" fill="#c1392b"/></g></svg>