<svg height="800" width="800" xmlns="http://www.w3.org/2000/svg"><g fill="none" fill-rule="evenodd"><path d="m570.84 461.88h28.32v-23.797h-28.32z" fill="#f9db9d"/><path d="m582 493c7.82 0 17.16-29.163 17.16-31.12 0-1.956-6.34-3.541-14.16-3.541s-14.16 1.585-14.16 3.541c0 1.957 3.34 31.12 11.16 31.12m93.217-114.517c7.204 0 13.043-5.84 13.043-13.043 0-7.204-5.839-13.044-13.043-13.044s-13.043 5.84-13.043 13.044c0 7.203 5.839 13.043 13.043 13.043m-180.434 0c7.204 0 13.043-5.84 13.043-13.043 0-7.204-5.839-13.044-13.043-13.044s-13.043 5.84-13.043 13.044c0 7.203 5.839 13.043 13.043 13.043" fill="#f9db9d"/><path d="m585 405.678c52.827 0 107.748-29.678 91.4-97.304-8.906-36.84-38.573-76.24-91.4-76.24s-91.07 60.74-93.526 76.24c-11.348 71.626 40.699 97.304 93.526 97.304" fill="#2d3e50"/><path d="m585 446.418c47.424 0 85.869-41.851 85.869-93.478 0-51.626-38.445-100-85.869-100s-85.869 48.374-85.869 100c0 51.627 38.445 93.478 85.869 93.478" fill="#f9db9d"/><path d="m549.477 362.099c4.346 0 7.869-3.525 7.869-7.873s-3.523-7.873-7.87-7.873-7.868 3.525-7.868 7.873 3.523 7.873 7.869 7.873m71.942 0c4.346 0 7.869-3.525 7.869-7.873s-3.523-7.873-7.87-7.873-7.868 3.525-7.868 7.873 3.523 7.873 7.869 7.873m-59.74 36.482c-.248.737-.4 1.492-.4 2.267 0 7.095 10.821 12.846 24.168 12.846 13.348 0 24.17-5.75 24.17-12.846 0-.775-.153-1.53-.4-2.267-2.018 6.012-11.88 10.58-23.77 10.58-11.889 0-21.75-4.568-23.769-10.58m-31.07 345.478s-21.886 1.953-21.886 11.717v5.858h68.346v-17.575z" fill="#2d3e50"/><path d="m539.024 717.5v26.374l38.043.185 1.01-26.56z" fill="#8d44ad"/><path d="m585 613.44v-25.622h-45.601v129.682h39.053l3.482-91.617s-3.448-12.443 3.066-12.443" fill="#f86792"/><path d="m545.508 739 6.483-19h-12.966zm12.966 0 6.483-19h-12.966zm12.967 0 6.483-19h-12.966zm-32.417-24v5h38.9l.28-5z" fill="#f1c40f"/><path d="m539.024 635s30.9 25 30.9 24 4-18 4-18z" fill="#d65492"/><path d="m552.667 641h32.333v-63h-32.333z" fill="#8d44ad"/><path d="m529.877 480.019s-4.348 56.522-6.522 67.391c-2.174 10.87-6.52 56.522 0 63.043 6.522 6.522 26.087 2.174 28.261-15.217s6.522-78.261 6.522-78.261v-36.956z" fill="#f9db9d"/><path d="m526.928 495.384-9.869 92.435 24.75 5.065 6.75-97.5z" fill="#f86792"/><path d="m540.31 482.634-7.387 108.366 6.1 1.884z" fill="#d65492"/><path d="m566.299 634h18.701v-5h-18.701z" fill="#f1c40f"/><path d="m585 484v98s-14.326 68-18.076 68-29.325-16-29.325-16l1.873-138.383h-12.544s1.204-42.678 27.744-42.678c2.378 0 16.252-2.818 16.252 2.061 0 15 14.076 29 14.076 29" fill="#f86792"/><path d="m538.4 549.193v23.382l46.6-.221v-23.382z" fill="#f1c40f"/><path d="m639.392 744.059s21.886 1.953 21.886 11.717v5.858h-68.346v-17.575z" fill="#2d3e50"/><path d="m630.976 717.5v26.374l-38.043.185-1.01-26.56z" fill="#8d44ad"/><path d="m585 613.44v-25.622h45.601v129.682h-39.053l-3.482-91.617s3.448-12.444-3.066-12.444" fill="#f86792"/><path d="m624.492 739-6.483-19h12.966zm-12.966 0-6.483-19h12.966zm-12.967 0-6.483-19h12.966zm32.417-24v5h-38.9l-.28-5z" fill="#f1c40f"/><path d="m630.976 635s-30.9 25-30.9 24-4-18-4-18z" fill="#d65492"/><path d="m585 641h32.333v-63h-32.333z" fill="#8d44ad"/><path d="m640.123 480.019s4.348 56.522 6.522 67.391c2.174 10.87 6.52 56.522 0 63.043-6.522 6.522-26.087 2.174-28.261-15.217s-6.522-78.261-6.522-78.261v-36.956z" fill="#f9db9d"/><path d="m643.072 495.384 9.869 92.435-24.75 5.065-6.75-97.5z" fill="#f86792"/><path d="m629.69 482.634 7.387 108.366-6.1 1.884z" fill="#d65492"/><path d="m585 634h18.701v-5h-18.701z" fill="#f1c40f"/><path d="m585 484v98s14.326 68 18.076 68 29.325-16 29.325-16l-1.873-138.383h12.544s-1.204-42.678-27.744-42.678c-2.378 0-16.252-2.818-16.252 2.061 0 15-14.076 29-14.076 29" fill="#f86792"/><path d="m631.6 548.971v23.604l-46.6-.222v-23.382z" fill="#f1c40f"/><path d="m513.2 206.583-25.55 25.55 25.55 25.55 25.55-25.55zm96.934-45.45-71 71 71 71.002 71.001-71.001z" fill="#d65492"/><path d="m487.635 324.238h193.5v-92.105h-193.5z" fill="#f86792"/><path d="m539.4 456s8.6-2.13 12.6-3 19-.87 19-.87l60.6 96.841h-34.6zm60.966 166h31.235v-49.425h-31.235z" fill="#16a086"/><path d="m600.366 630.666h2.406v-13h-2.406zm9.625 0h2.406v-13h-2.406zm9.602 0h2.406v-13h-2.406zm-14.415 0h2.406v-13h-2.406zm24.016 0h2.406v-13h-2.406zm-14.414 0h2.406v-13h-2.406zm9.601 0h2.406v-13h-2.406z" fill="#16a086"/><path d="m78.258 452.13h88.484v-150.103h-88.484z" fill="#f1c40f"/><path d="m78.258 438.906h88.484v-31.906h-88.484z" fill="#16a086"/><path d="m243.03 749.1s24.986 11.062 11.118 11.062h-24.927c-3.307 0-2.153-12.123-2.153-12.123z" fill="#2d3e50"/><path d="m243.108 729.625-1.018 17.534.018.003 3 3c1 1 0 2-6 1-5.055-.843-10.094-2.477-11.562-2.973l-.438-.027s-.039-6.708-.235-18.537z" fill="#f9db9d"/><path d="m253.803 576.162-5.701 149.791s-3.682 4.25-13.646 8c-9.965 3.75-19.347 2.04-19.347 2.04v-199.83z" fill="#de76a8"/><path d="m186.97 749.1s-24.986 11.062-11.118 11.062h24.927c3.307 0 2.153-12.123 2.153-12.123z" fill="#2d3e50"/><path d="m186.892 729.625 1.018 17.534-.018.003-3 3c-1 1 0 2 6 1 5.055-.843 10.094-2.477 11.562-2.973l.438-.027s.039-6.708.235-18.537z" fill="#f9db9d"/><path d="m176.197 631.162 5.701 99.751s3.682 4.25 13.646 8c9.966 3.75 25.456 4.087 25.456 4.087v-111z" fill="#d65492"/><path d="m204.23 463.202h21.539v-18.099h-21.539z" fill="#f9db9d"/><path d="m215 451.838c44.61 0 80.773-43.846 80.773-104.922s-36.163-71.916-80.773-71.916-80.773 10.84-80.773 71.916 36.163 104.922 80.773 104.922" fill="#f9db9d"/><path d="m177.556 371.281a8.193 8.193 0 0 0 8.19-8.195c0-4.527-3.666-8.196-8.19-8.196s-8.191 3.67-8.191 8.196a8.193 8.193 0 0 0 8.19 8.195m74.89 0a8.193 8.193 0 0 0 8.191-8.195c0-4.527-3.667-8.196-8.19-8.196s-8.192 3.67-8.192 8.196a8.193 8.193 0 0 0 8.191 8.195m-62.188 37.977c-.257.767-.415 1.553-.415 2.36 0 7.385 11.264 13.372 25.158 13.372 13.895 0 25.158-5.987 25.158-13.372 0-.807-.157-1.593-.415-2.36-2.1 6.258-12.366 11.013-24.743 11.013s-22.643-4.755-24.743-11.013" fill="#2d3e50"/><path d="m172.677 487.795s0 29.633-2.692 40.408c-2.693 10.776-10.77 78.122-5.385 83.51s10.769 0 13.462 0c2.692 0 13.462-123.918 13.462-123.918z" fill="#f9db9d"/><path d="m164.499 564-3 21 19 10 6-22z" fill="#f1c40f"/><path d="m197.007 478.806h17.993v-24.654h-17.993z" fill="#f9db9d"/><path d="m172.676 487.795s-7.785 68.205-9.785 78.205l20 13.387 11.5-73.224v-21z" fill="#f86792"/><path d="m181.892 483.162s2.067 20.838 2.067 25.838-11.05 54-8.126 68l12.059-4.838 4.688-89h-9.688" fill="#d65492"/><path d="m180.499 455c-3.562 1.174-7.823 5.35-7.823 13.937v18.857h10.216c2.812 12.633 4.4 19.467 1.7 29.549-.394 1.474-1.601 8.654-1.601 8.654-3.012 17.556-13.179 90.737-11.331 105.003 3.631 28.034 43.34 21.659 43.34 21.659v-176.659l-3.501-12c-10 0-9-9.847-9-9.847-5.371 0-21.131.483-22 .847" fill="#f86792"/><g fill="#f1c40f"><path d="m172.265 617 2.144 3.178 3.178-2.143-2.144-3.179zm15.6 3.033 2.143 3.178 3.178-2.144-2.144-3.178zm-10.278-1.998 2.144 3.178 3.178-2.144-2.144-3.178z"/><path d="m182.909 619.07 2.144 3.177 3.178-2.144-2.144-3.178zm10.277 1.997 2.144 3.178 3.178-2.144-2.144-3.178zm15.6 3.032 2.144 3.178 3.178-2.144-2.144-3.178zm-10.278-1.998 2.144 3.178 3.178-2.144-2.144-3.178z"/><path d="m203.83 623.136 2.144 3.178 3.178-2.143-2.144-3.18zm-21.22 99.728 1.967 2.916 2.916-1.967-1.967-2.916zm14.312 4.733 1.967 2.916 2.916-1.967-1.967-2.916zm-9.43-3.134 1.967 2.916 2.916-1.967-1.967-2.916zm4.883 1.6 1.967 2.916 2.916-1.967-1.967-2.916zm9.43 3.783 1.967 2.916 2.916-1.967-1.967-2.916zm14.312 1.482 1.967 2.916 2.916-1.967-1.967-2.916zm-9.43.118 1.968 2.916 2.916-1.967-1.967-2.916zm4.883.299 1.968 2.916 2.916-1.967-1.967-2.916zm-37.755-175.188 1.72 2.981 2.982-1.72-1.721-2.982zm-9.081-2.433 1.72 2.981 2.982-1.72-1.721-2.982z"/><path d="m169.436 555.384 1.721 2.981 2.981-1.72-1.721-2.982z"/></g><path d="m257.323 487.795s0 29.633 2.692 40.408c2.693 10.776 10.77 78.122 5.385 83.51s-10.769 0-13.462 0c-2.692 0-13.462-123.918-13.462-123.918z" fill="#f9db9d"/><path d="m265.501 564 3 21-19 10-6-22z" fill="#f1c40f"/><path d="m215 478.806h17.993v-24.654h-17.993z" fill="#f9db9d"/><path d="m257.324 487.795s7.785 68.205 9.785 78.205l-20 13.387-11.5-73.224v-21z" fill="#f86792"/><path d="m248.108 483.162s-2.067 20.838-2.067 25.838 11.05 54 8.126 68l-12.059-4.838-4.688-89h9.688" fill="#d65492"/><path d="m249.501 455c3.562 1.174 7.823 5.35 7.823 13.937v18.857h-10.216c-2.812 12.633-4.4 19.467-1.7 29.549.394 1.474 1.601 8.654 1.601 8.654 3.012 17.556 13.179 90.737 11.331 105.003-3.631 28.034-43.34 21.659-43.34 21.659v-176.659l3.501-12c10 0 9-9.847 9-9.847 5.371 0 21.131.483 22 .847" fill="#f86792"/><g fill="#f1c40f"><path d="m257.735 617-2.144 3.178-3.178-2.143 2.144-3.179zm-15.6 3.033-2.143 3.178-3.178-2.144 2.144-3.178zm10.278-1.998-2.144 3.178-3.178-2.144 2.144-3.178z"/><path d="m247.091 619.07-2.144 3.177-3.178-2.144 2.144-3.178zm-10.277 1.997-2.144 3.178-3.178-2.144 2.144-3.178zm-15.6 3.032-2.144 3.178-3.178-2.144 2.144-3.178zm10.278-1.998-2.144 3.178-3.178-2.144 2.144-3.178z"/><path d="m226.17 623.136-2.144 3.178-3.178-2.143 2.144-3.18zm30.015-66.579-1.72 2.981-2.982-1.72 1.721-2.982zm9.081-2.433-1.72 2.981-2.982-1.72 1.721-2.982z"/><path d="m260.564 555.384-1.721 2.981-2.981-1.72 1.721-2.982zm-57.672 103.17 11.7 11.7 1.3-1.3-11.7-11.7z"/><path d="m214.593 657.255-11.7 11.7 1.3 1.3 11.7-11.7zm-30.04-3.455 11.7 11.7 1.3-1.3-11.7-11.7z"/><path d="m196.254 652.5-11.7 11.7 1.3 1.3 11.7-11.7zm6.638 24.773 11.7 11.7 1.3-1.3-11.7-11.7z"/><path d="m214.593 675.973-11.7 11.7 1.3 1.3 11.7-11.7zm-30.04-3.455 11.7 11.7 1.3-1.3-11.7-11.7z"/><path d="m196.254 671.218-11.7 11.7 1.3 1.3 11.7-11.7zm6.638 24.773 11.7 11.7 1.3-1.3-11.7-11.7z"/><path d="m214.593 694.69-11.7 11.7 1.3 1.3 11.7-11.7zm-30.04-3.454 11.7 11.7 1.3-1.3-11.7-11.7z"/><path d="m196.254 689.936-11.7 11.7 1.3 1.3 11.7-11.7zm6.638 24.016 11.7 11.7 1.3-1.3-11.7-11.7z"/><path d="m214.593 712.652-11.7 11.7 1.3 1.3 11.7-11.7zm-30.04-3.455 11.7 11.7 1.3-1.3-11.7-11.7z"/><path d="m196.254 707.897-11.7 11.7 1.3 1.3 11.7-11.7z"/></g><path d="m201 453h-21s51.001 128 76.001 137l-3.157-37.597s-42.844-69.241-51.844-99.403" fill="#16a086"/><path d="m196.789 454.153 5.317 98.847h2l-5.317-98.847z" fill="#f39c11"/><path d="m193.06 549.674c0 6.553 9.823 11.865 21.94 11.865v-9.382c-.569.125-2.999 2.156-3.615 2.156-3.115 0-3.189-3.88-4.14-6.251-.714 2.372-3.376 4.307-5.713 4.307-2.938 0-5.32-2.695-5.32-6.02 0-1.41-3.152.685-3.152 3.325m16.138-17.467c0-1.67-1.113-3.148-2.82-4.066-.919-1.708-2.396-2.82-4.066-2.82s-3.148 1.112-4.067 2.82c-1.707.918-2.82 2.395-2.82 4.066s1.113 3.148 2.82 4.066c.92 1.708 2.396 2.821 4.067 2.821 1.67 0 3.147-1.113 4.066-2.82 1.707-.919 2.82-2.396 2.82-4.067m-4.082 0a2.804 2.804 0 1 1 -5.608.001 2.804 2.804 0 0 1 5.608 0m2.895-21.285c0-1.671-1.113-3.148-2.82-4.066-.92-1.708-2.396-2.821-4.066-2.821-1.671 0-3.148 1.113-4.067 2.82-1.707.919-2.82 2.396-2.82 4.067s1.113 3.148 2.82 4.066c.919 1.708 2.396 2.82 4.067 2.82 1.67 0 3.147-1.112 4.066-2.82 1.707-.918 2.82-2.395 2.82-4.066m-4.082 0a2.804 2.804 0 1 1 -5.609 0 2.804 2.804 0 0 1 5.609 0m3.262-20.874c0-1.671-1.113-3.148-2.82-4.066-.919-1.708-2.396-2.821-4.066-2.821s-3.148 1.113-4.067 2.82c-1.707.919-2.82 2.396-2.82 4.067s1.113 3.148 2.82 4.066c.92 1.708 2.396 2.82 4.067 2.82 1.67 0 3.147-1.112 4.066-2.82 1.707-.918 2.82-2.395 2.82-4.066m-4.082 0a2.804 2.804 0 1 1 -5.608.001 2.804 2.804 0 0 1 5.608-.001m2.067-20.049c0-1.671-1.113-3.148-2.82-4.066-.92-1.708-2.396-2.821-4.066-2.821-1.671 0-3.148 1.113-4.067 2.821-1.707.918-2.82 2.395-2.82 4.066s1.113 3.148 2.82 4.066c.919 1.708 2.396 2.821 4.067 2.821 1.67 0 3.147-1.113 4.066-2.821-.346.186 2.82-3.499 2.82-4.066m-4.082 0a2.804 2.804 0 1 1 -5.609.001 2.804 2.804 0 0 1 5.609-.001" fill="#f1c40f"/><path d="m233.211 454.153-5.317 98.847h-2l5.317-98.847z" fill="#f39c11"/><path d="m236.94 549.674c0 6.553-9.823 11.865-21.94 11.865v-9.382c.569.125 2.999 2.156 3.615 2.156 3.115 0 3.189-3.88 4.14-6.251.714 2.372 3.376 4.307 5.713 4.307 2.938 0 5.32-2.695 5.32-6.02 0-1.41 3.152.685 3.152 3.325m-16.138-17.467c0-1.67 1.113-3.148 2.82-4.066.918-1.708 2.395-2.82 4.065-2.82 1.671 0 3.148 1.112 4.067 2.82 1.708.918 2.82 2.395 2.82 4.066s-1.113 3.148-2.82 4.066c-.918 1.708-2.395 2.821-4.066 2.821-1.67 0-3.147-1.113-4.066-2.82-1.708-.919-2.82-2.396-2.82-4.067m4.082 0a2.804 2.804 0 1 0 5.608.001 2.804 2.804 0 0 0 -5.608 0m-2.895-21.286c0-1.67 1.113-3.148 2.82-4.066.92-1.708 2.396-2.82 4.066-2.82 1.671 0 3.148 1.112 4.067 2.82 1.707.918 2.82 2.395 2.82 4.066s-1.113 3.148-2.82 4.066c-.919 1.708-2.396 2.821-4.067 2.821-1.67 0-3.147-1.113-4.066-2.82-1.707-.919-2.82-2.396-2.82-4.067m4.082 0a2.804 2.804 0 1 0 5.609.002 2.804 2.804 0 0 0 -5.609-.002m-3.262-20.873c0-1.671 1.113-3.148 2.82-4.066.919-1.708 2.396-2.821 4.066-2.821s3.148 1.113 4.067 2.82c1.707.919 2.82 2.396 2.82 4.067s-1.113 3.148-2.82 4.066c-.92 1.708-2.396 2.82-4.067 2.82-1.67 0-3.147-1.112-4.066-2.82-1.707-.918-2.82-2.395-2.82-4.066m4.082 0a2.804 2.804 0 1 0 5.608.001 2.804 2.804 0 0 0 -5.608-.001m-2.067-20.049c0-1.671 1.113-3.148 2.82-4.066.919-1.708 2.396-2.821 4.066-2.821 1.671 0 3.148 1.113 4.067 2.821 1.707.918 2.82 2.395 2.82 4.066s-1.113 3.148-2.82 4.066c-.919 1.708-2.396 2.821-4.067 2.821-1.67 0-3.147-1.113-4.066-2.821.346.186-2.82-3.499-2.82-4.066m4.082 0a2.804 2.804 0 1 0 5.609.001 2.804 2.804 0 0 0 -5.609-.001" fill="#f1c40f"/><path d="m100 337c-.519 28.276 43 59.094 43 59.094s2.51-59.192 72-81.094v-34s-113-53-115 56" fill="#16a086"/><path d="m215 289s-90.108 24.139-118.409 58.139c-3.864 4.642-45.59-108.958-38.699-108.139 31 3.686 49.108 29.117 157.108 29.117z" fill="#f1c40f"/><path d="m125 381s-2.5-56.762 90-92c0 0-94.75 18.598-138.75 12 0 0 1.427 32.955 48.75 80" fill="#f86792"/><path d="m330 337c.519 28.276-43 59.094-43 59.094s-2.51-59.192-72-81.094v-34s113-53 115 56" fill="#16a086"/><path d="m215 289s90.108 24.139 118.409 58.139c3.864 4.642 45.59-108.958 38.699-108.139-31 3.686-49.108 29.117-157.108 29.117z" fill="#f1c40f"/><path d="m305 381s2.5-56.762-90-92c0 0 94.75 18.598 138.75 12 0 0-1.427 32.955-48.75 80" fill="#f86792"/></g></svg>