<svg height="800" width="800" xmlns="http://www.w3.org/2000/svg"><g fill="none" fill-rule="evenodd"><path d="m570.84 461.88h28.32v-23.797h-28.32z" fill="#f9db9d"/><path d="m675.217 378.483c7.204 0 13.043-5.84 13.043-13.043 0-7.204-5.839-13.044-13.043-13.044s-13.043 5.84-13.043 13.044c0 7.203 5.839 13.043 13.043 13.043m-180.434 0c7.204 0 13.043-5.84 13.043-13.043 0-7.204-5.839-13.044-13.043-13.044s-13.043 5.84-13.043 13.044c0 7.203 5.839 13.043 13.043 13.043" fill="#f9db9d"/><path d="m585 405.678c52.827 0 108.457-29.678 92.108-97.304-8.906-36.84-39.281-76.24-92.108-76.24s-91.07 60.74-93.526 76.24c-11.348 71.626 40.699 97.304 93.526 97.304" fill="#2d3e50"/><path d="m585 446.418c47.424 0 85.869-41.851 85.869-93.478 0-51.626-38.445-100-85.869-100s-85.869 48.374-85.869 100c0 51.627 38.445 93.478 85.869 93.478" fill="#f9db9d"/><path d="m549.477 362.099c4.346 0 7.869-3.525 7.869-7.873s-3.523-7.873-7.87-7.873-7.868 3.525-7.868 7.873 3.523 7.873 7.869 7.873m71.942 0c4.346 0 7.869-3.525 7.869-7.873s-3.523-7.873-7.87-7.873-7.868 3.525-7.868 7.873 3.523 7.873 7.869 7.873m-59.74 36.482c-.248.737-.4 1.492-.4 2.267 0 7.095 10.821 12.846 24.168 12.846 13.348 0 24.17-5.75 24.17-12.846 0-.775-.153-1.53-.4-2.267-2.018 6.012-11.88 10.58-23.77 10.58-11.889 0-21.75-4.568-23.769-10.58" fill="#2d3e50"/><path d="m144.535 431.337-6.06-6.06 6.06-6.06-7.278-7.277 7.278-7.278-5.957-5.957 5.957-5.958-7.277-7.277 7.277-7.278-9.192-9.192-9.193 9.192 7.278 7.278-7.278 7.277 5.958 5.958-5.958 5.957 7.278 7.278-7.278 7.277 6.06 6.06-6.06 6.06 7.278 7.278-7.278 7.277 5.958 5.958-5.958 5.957 7.278 7.278-7.278 7.277 9.193 9.193 9.192-9.193-7.278-7.277 7.278-7.278-5.957-5.957 5.957-5.958-7.278-7.277zm140.931 0 6.06-6.06-6.06-6.06 7.278-7.277-7.278-7.278 5.957-5.957-5.957-5.958 7.277-7.277-7.277-7.278 9.192-9.192 9.193 9.192-7.278 7.278 7.278 7.277-5.958 5.958 5.958 5.957-7.278 7.278 7.278 7.277-6.06 6.06 6.06 6.06-7.278 7.278 7.278 7.277-5.958 5.958 5.958 5.957-7.278 7.278 7.278 7.277-9.193 9.193-9.192-9.193 7.278-7.277-7.278-7.278 5.957-5.957-5.957-5.958 7.278-7.277z" fill="#f39c11"/><path d="m214.25 227h1.5v-106h-1.5z" fill="#f1c40f"/><path d="m223.321 118.92-8.32-14.142-8.322 14.142 8.321 14.142z" fill="#f1c40f"/><path d="m138.266 387.185c6.69 0 12.116-5.427 12.116-12.122s-5.425-12.123-12.116-12.123-12.116 5.428-12.116 12.123 5.425 12.122 12.116 12.122m153.468 0c6.691 0 12.116-5.427 12.116-12.122s-5.425-12.123-12.116-12.123-12.116 5.428-12.116 12.123 5.425 12.122 12.116 12.122" fill="#f9db9d"/><path d="m204.23 463.202h21.539v-18.099h-21.539z" fill="#f9db9d"/><path d="m215 451.838c44.61 0 80.773-43.846 80.773-104.922s-36.163-91.916-80.773-91.916-80.773 30.84-80.773 91.916 36.163 104.922 80.773 104.922" fill="#f9db9d"/><path d="m177.556 371.281a8.193 8.193 0 0 0 8.19-8.195c0-4.527-3.666-8.196-8.19-8.196s-8.191 3.67-8.191 8.196a8.193 8.193 0 0 0 8.19 8.195m74.89 0a8.193 8.193 0 0 0 8.191-8.195c0-4.527-3.667-8.196-8.19-8.196s-8.192 3.67-8.192 8.196a8.193 8.193 0 0 0 8.191 8.195m-62.188 37.977c-.257.767-.415 1.553-.415 2.36 0 7.385 11.264 13.372 25.158 13.372 13.895 0 25.158-5.987 25.158-13.372 0-.807-.157-1.593-.415-2.36-2.1 6.258-12.366 11.013-24.743 11.013s-22.643-4.755-24.743-11.013" fill="#2d3e50"/><path d="m172.537 487.795s0 29.633-2.692 40.408c-2.693 10.776-10.77 78.122-5.385 83.51s10.77 0 13.462 0 13.462-123.918 13.462-123.918z" fill="#f9db9d"/><path d="m163.367 571.54-.776 2.898 18.736 5.02.776-2.897zm7.897-63.622-.777 2.898 18.736 5.02.776-2.897z" fill="#f39c11"/><path d="m169.644 513c1.515 0 2.744-1.791 2.744-4s-1.23-4-2.744-4-2.744 1.791-2.744 4 1.229 4 2.744 4" fill="#f39c11"/><path d="m186.752 729.625 1.018 17.534-.018.003-3 3c-1 1 0 2 6 1 5.055-.843 10.094-2.477 11.562-2.973l.438-.027s.039-6.708.235-18.537z" fill="#f9db9d"/><path d="m186.83 749.1s-24.986 11.062-11.118 11.062h24.927c3.307 0 2.153-12.123 2.153-12.123z" fill="#2d3e50"/><path d="m215 750v-148.354l-38.803-1.138-.856 149.492z" fill="#297fb8"/><path d="m168.777 750h.834v-111h-.834zm15.856 0h.834v-132.821h-.834zm16.286 0h.834v-132.821h-.834zm-16.286 0h.834v-132.821h-.834zm16.286 0h.834v-132.821h-.834zm-32.143 0h.834v-111h-.834zm15.858 0h.834v-132.821h-.834zm16.284 0h.834v-132.821h-.834zm-24.113 0h.834v-132.821h-.834zm15.857 0h.834v-132.821h-.834zm16.286 0h.834v-132.821h-.834zm-34.953 0h.834v-132.821h-.834zm15.857 0h.834v-132.821h-.834zm16.285 0h.834v-132.821h-.834zm-24.113 0h.834v-132.821h-.834zm15.857 0h.834v-132.821h-.834zm16.285 0h.834v-132.821h-.834zm-42.78 0h.834v-132.821h-.834zm15.857 0h.834v-132.821h-.834zm16.285 0h.834v-132.821h-.834zm-24.113 0h.834v-132.821h-.834zm15.856 0h.834v-132.821h-.834zm16.286 0h.834v-132.821h-.834z" fill="#f1c40f"/><path d="m196.867 478.806h17.993v-24.654h-17.993z" fill="#f9db9d"/><path d="m215 644v-180c-10 0-12.501-9.847-12.501-9.847-5.371 0-21.131.483-22 .847-3.562 1.174-7.823 5.35-7.823 13.937v18.857h10.216c2.812 12.633 4.4 19.467 1.7 29.549-.394 1.474-1.601 8.654-1.601 8.654-2.075 12.09-11.641 87.561-14.241 115.003l25.502-24z" fill="#3598db"/><path d="m183 523-1.987 12.755 33.987.898v-13.397z" fill="#f39c11"/><path d="m215 464-9.137-.797s-15.113 42.797-13.988 45.797 23.125 24 23.125 24z" fill="#f1c40f"/><path d="m203 453.687s2.864 7.313 8 9.516l-16 59.797s-7.624-3.248-16-20c-9-18-12.78-36-12-45 0 0 6-6.466 36-4.313" fill="#f1c40f"/><path d="m170 460s5 39 24 56l11.864-52s-4.864-4.153-5.864-7-30 3-30 3" fill="#297fb8"/><path d="m166.9 480h.5v-20h-.5zm.85 5.499h.5v-20h-.5zm1 6.501h.5v-20h-.5zm1 4.109h.5v-20h-.5zm1.25 3.891h.5v-20h-.5zm1.25 2h.5v-20h-.5zm1.25 5h.5v-20h-.5zm1.5 2h.5v-20h-.5zm1.5 5h.5v-20h-.5zm1.5 5h.5v-20h-.5zm2 3h.5v-20h-.5zm2 5h.5v-20h-.5zm2 4h.5v-20h-.5zm2 2h.5v-20h-.5zm1.932 3h.5v-20h-.5zm2.318 2h.5v-20h-.5zm1.625 2h.5v-20h-.5zm1.375 1h.5v-20h-.5zm1.375 0h.5v-20h-.5zm-9.625-42.899 6.875 11.9 1.125-13.4z" fill="#f1c40f"/><path d="m198.649 484.301c0-.486-2.017-.91-4.995-1.13.087.364.146.74.146 1.13s-.06.766-.146 1.131c2.978-.22 4.995-.645 4.995-1.13m-5.576-2.524c1.95-2.264 3.08-3.99 2.735-4.335-.344-.344-2.071.784-4.334 2.735a4.843 4.843 0 0 1 1.599 1.6m-2.992-2.18c-.221-2.978-.644-4.996-1.131-4.996-.486 0-.91 2.018-1.13 4.996a4.786 4.786 0 0 1 1.13-.146c.392 0 .767.058 1.13.146m-3.653.58c-2.264-1.95-3.99-3.079-4.335-2.735-.344.344.784 2.071 2.735 4.335a4.856 4.856 0 0 1 1.6-1.6m-2.18 2.993c-2.978.22-4.995.644-4.995 1.13s2.017.91 4.995 1.131c-.087-.365-.146-.74-.146-1.13s.059-.767.146-1.13m.58 3.653c-1.951 2.263-3.08 3.99-2.735 4.334s2.072-.784 4.335-2.735a4.843 4.843 0 0 1 -1.6-1.599m2.993 2.18c.22 2.977.644 4.995 1.13 4.995.487 0 .91-2.018 1.13-4.996a4.788 4.788 0 0 1 -1.13.147c-.391 0-.766-.059-1.13-.147m3.654-.58c2.263 1.951 3.99 3.08 4.334 2.735.345-.344-.784-2.07-2.735-4.334a4.831 4.831 0 0 1 -1.6 1.6m-2.523-.244a3.879 3.879 0 1 0 0-7.758 3.879 3.879 0 0 0 0 7.758m26.05 105.819c-.809 0-1.513 3.355-1.88 8.308a8.042 8.042 0 0 1 1.88-.243zm-4.197 9.273c-3.764-3.245-6.637-5.121-7.209-4.549-.572.573 1.304 3.445 4.549 7.209a8.053 8.053 0 0 1 2.66-2.66zm-3.625 4.977c-4.953.367-8.309 1.071-8.309 1.88s3.356 1.514 8.309 1.881a7.991 7.991 0 0 1 -.243-1.881c0-.65.097-1.274.243-1.88zm.965 6.078c-3.245 3.764-5.121 6.636-4.549 7.209.572.572 3.445-1.305 7.209-4.549a8.053 8.053 0 0 1 -2.66-2.66zm6.857 3.868c-.65 0-1.274-.098-1.88-.243.367 4.953 1.071 8.308 1.88 8.308zm0-1.613v-12.905a6.452 6.452 0 0 0 0 12.905z" fill="#f1c40f"/><path d="m191.815 460 .06 12 8.125-6zm-10.802 2 1.987 10s-8-3-8-4 6.013-6 6.013-6m-12.263 179 .25-4 26.031-25 19.969 27v5l-21-27z" fill="#f1c40f"/><path d="m201.574 602.301c0-.486-2.017-.91-4.995-1.13.087.364.146.74.146 1.13s-.06.766-.146 1.131c2.978-.22 4.995-.645 4.995-1.13m-5.576-2.524c1.95-2.264 3.08-3.99 2.735-4.335-.344-.344-2.071.784-4.334 2.735a4.843 4.843 0 0 1 1.599 1.6m-2.992-2.18c-.221-2.978-.644-4.996-1.131-4.996-.486 0-.91 2.018-1.13 4.996a4.786 4.786 0 0 1 1.13-.146c.392 0 .767.058 1.13.146m-3.653.58c-2.264-1.95-3.99-3.079-4.335-2.735-.344.344.784 2.071 2.735 4.335a4.856 4.856 0 0 1 1.6-1.6m-2.18 2.993c-2.978.22-4.995.644-4.995 1.13s2.017.91 4.995 1.131c-.087-.365-.146-.74-.146-1.13s.059-.767.146-1.13m.58 3.653c-1.951 2.263-3.08 3.99-2.735 4.334s2.072-.784 4.335-2.735a4.843 4.843 0 0 1 -1.6-1.599m2.993 2.18c.22 2.977.644 4.995 1.13 4.995.487 0 .91-2.018 1.13-4.996a4.788 4.788 0 0 1 -1.13.147c-.391 0-.766-.059-1.13-.147m3.654-.58c2.263 1.951 3.99 3.08 4.334 2.735.345-.344-.784-2.07-2.735-4.334a4.831 4.831 0 0 1 -1.6 1.6m-2.523-.244a3.879 3.879 0 1 0 0-7.758 3.879 3.879 0 0 0 0 7.758m-6.875 9.95c0-.302-1.307-.563-3.238-.7.057.225.095.457.095.7s-.038.473-.095.7c1.931-.138 3.238-.4 3.238-.7m-3.614-1.562c1.265-1.4 1.996-2.469 1.773-2.682s-1.342.486-2.809 1.693c.423.247.777.585 1.036.99m-1.939-1.35c-.143-1.842-.417-3.09-.733-3.09-.315 0-.589 1.248-.732 3.09.236-.053.479-.09.732-.09.254 0 .497.037.733.09m-2.368.36c-1.467-1.207-2.586-1.906-2.809-1.693s.508 1.282 1.772 2.682a3.07 3.07 0 0 1 1.037-.989m-1.413 1.851c-1.93.137-3.238.398-3.238.7s1.308.562 3.238.7c-.057-.227-.095-.459-.095-.7s.038-.475.095-.7m.376 2.261c-1.264 1.4-1.995 2.468-1.772 2.681s1.342-.485 2.809-1.692a3.089 3.089 0 0 1 -1.037-.989m1.94 1.348c.143 1.842.417 3.09.732 3.09.316 0 .59-1.248.733-3.09-.236.054-.479.09-.733.09-.253 0-.496-.036-.732-.09m2.368-.359c1.467 1.207 2.586 1.905 2.809 1.692s-.508-1.282-1.773-2.68a3.076 3.076 0 0 1 -1.036.988m-1.636-.15c1.39 0 2.514-1.075 2.514-2.4 0-1.326-1.125-2.4-2.514-2.4s-2.514 1.074-2.514 2.4c0 1.325 1.125 2.4 2.514 2.4m34.507-31.929c0-.3-1.307-.562-3.238-.699.057.225.095.457.095.7s-.038.473-.095.7c1.93-.138 3.238-.4 3.238-.7m-3.614-1.562c1.265-1.4 1.996-2.469 1.773-2.682s-1.342.486-2.81 1.693c.424.247.778.585 1.037.99m-1.94-1.35c-.142-1.842-.416-3.09-.732-3.09-.315 0-.59 1.248-.732 3.09.236-.053.479-.09.732-.09.254 0 .497.037.733.09m-2.368.36c-1.467-1.207-2.586-1.906-2.81-1.693s.509 1.282 1.773 2.682a3.07 3.07 0 0 1 1.037-.989m-1.413 1.851c-1.93.137-3.238.398-3.238.7s1.308.562 3.238.7c-.057-.227-.095-.459-.095-.7s.038-.475.095-.7m.376 2.261c-1.264 1.4-1.995 2.468-1.772 2.681s1.342-.485 2.809-1.692a3.089 3.089 0 0 1 -1.037-.989m1.94 1.348c.143 1.842.417 3.09.732 3.09.316 0 .59-1.248.733-3.09-.236.054-.48.09-.733.09s-.496-.036-.732-.09m2.368-.359c1.467 1.207 2.586 1.905 2.809 1.692s-.508-1.282-1.773-2.68a3.076 3.076 0 0 1 -1.036.988m-1.636-.15c1.39 0 2.514-1.075 2.514-2.4 0-1.326-1.125-2.4-2.514-2.4s-2.514 1.074-2.514 2.4c0 1.325 1.125 2.4 2.514 2.4" fill="#f1c40f"/><path d="m209 569-6 8 7-1zm-13.97 16 1.97 6-7-1zm-18.014 19-1.815 4 4.8-1zm37.984-71.891c-.048-.001-.092-.014-.14-.014a6.699 6.699 0 1 0 0 13.397c.048 0 .092-.013.14-.014z" fill="#f1c40f"/><path d="m211.581 463.203-12.931 53.797-1.782-1z" fill="#f39c11"/><path d="m257.464 487.795s0 29.633 2.692 40.408c2.693 10.776 10.77 78.122 5.385 83.51s-10.77 0-13.462 0-13.462-123.918-13.462-123.918z" fill="#f9db9d"/><path d="m266.634 571.54.776 2.898-18.736 5.02-.776-2.897zm-7.897-63.622.776 2.898-18.736 5.02-.776-2.897z" fill="#f39c11"/><path d="m260.357 513c-1.515 0-2.744-1.791-2.744-4s1.229-4 2.744-4 2.744 1.791 2.744 4-1.229 4-2.744 4" fill="#f39c11"/><path d="m243.249 729.625-1.018 17.534.018.003 3 3c1 1 0 2-6 1-5.055-.843-10.094-2.477-11.562-2.973l-.438-.027s-.04-6.708-.235-18.537z" fill="#f9db9d"/><path d="m243.17 749.1s24.987 11.062 11.119 11.062h-24.927c-3.307 0-2.153-12.123-2.153-12.123z" fill="#2d3e50"/><path d="m215 750v-148.354l38.804-1.138.856 149.492z" fill="#297fb8"/><path d="m260.39 750h.834v-111h-.834zm-15.856 0h.834v-132.821h-.834zm-16.286 0h.834v-132.821h-.834zm16.286 0h.834v-132.821h-.834zm-16.286 0h.834v-132.821h-.834zm32.142 0h.834v-111h-.834zm-15.857 0h.834v-132.821h-.834zm-16.285 0h.834v-132.821h-.834zm24.113 0h.834v-132.821h-.834zm-15.856 0h.834v-132.821h-.834zm-16.286 0h.834v-132.821h-.834zm34.953 0h.834v-132.821h-.834zm-15.857 0h.834v-132.821h-.834zm-16.285 0h.834v-132.821h-.834zm24.113 0h.834v-132.821h-.834zm-15.857 0h.834v-132.821h-.834zm-16.285 0h.834v-132.821h-.834zm42.78 0h.834v-132.821h-.834zm-15.857 0h.834v-132.821h-.834zm-16.285 0h.834v-132.821h-.834zm24.113 0h.834v-132.821h-.834zm-15.857 0h.834v-132.821h-.834zm-16.285 0h.834v-132.821h-.834z" fill="#f1c40f"/><path d="m215.14 478.806h17.993v-24.654h-17.993z" fill="#f9db9d"/><path d="m215 644v-180c10 0 12.502-9.847 12.502-9.847 5.37 0 21.13.483 22 .847 3.562 1.174 7.822 5.35 7.822 13.937v18.857h-10.215c-2.812 12.633-4.4 19.467-1.7 29.549.394 1.474 1.6 8.654 1.6 8.654 2.076 12.09 11.642 87.561 14.242 115.003l-25.502-24z" fill="#3598db"/><path d="m247 523 1.988 12.755-33.987.898v-13.397z" fill="#f39c11"/><path d="m215 464 9.137-.797s15.113 42.797 13.988 45.797-23.125 24-23.125 24z" fill="#f1c40f"/><path d="m227 453.687s-2.863 7.313-8 9.516l16 59.797s7.625-3.248 16-20c9-18 12.78-36 12-45 0 0-6-6.466-36-4.313" fill="#f1c40f"/><path d="m260 460s-5 39-24 56l-11.863-52s4.864-4.153 5.864-7 30 3 30 3" fill="#297fb8"/><path d="m262.601 480h.5v-20h-.5zm-.85 5.499h.5v-20h-.5zm-1 6.501h.5v-20h-.5zm-1 4.109h.5v-20h-.5zm-1.25 3.891h.5v-20h-.5zm-1.25 2h.5v-20h-.5zm-1.25 5h.5v-20h-.5zm-1.5 2h.5v-20h-.5zm-1.5 5h.5v-20h-.5zm-1.5 5h.5v-20h-.5zm-2 3h.5v-20h-.5zm-2 5h.5v-20h-.5zm-2 4h.5v-20h-.5zm-2 2h.5v-20h-.5zm-1.932 3h.5v-20h-.5zm-2.318 2h.5v-20h-.5zm-1.625 2h.5v-20h-.5zm-1.375 1h.5v-20h-.5zm-1.375 0h.5v-20h-.5zm10.125-42.899-6.875 11.9-1.126-13.4z" fill="#f1c40f"/><path d="m231.352 484.301c0-.486 2.017-.91 4.995-1.13-.087.364-.146.74-.146 1.13s.06.766.146 1.131c-2.978-.22-4.995-.645-4.995-1.13m5.576-2.524c-1.95-2.264-3.08-3.99-2.735-4.335.344-.344 2.071.784 4.334 2.735a4.843 4.843 0 0 0 -1.599 1.6m2.992-2.18c.221-2.978.644-4.996 1.131-4.996.486 0 .91 2.018 1.13 4.996a4.786 4.786 0 0 0 -1.13-.146c-.392 0-.767.058-1.13.146m3.653.58c2.264-1.95 3.99-3.079 4.335-2.735.344.344-.784 2.071-2.735 4.335a4.856 4.856 0 0 0 -1.6-1.6m2.18 2.993c2.978.22 4.995.644 4.995 1.13s-2.017.91-4.995 1.131c.087-.365.146-.74.146-1.13s-.059-.767-.146-1.13m-.58 3.653c1.951 2.263 3.08 3.99 2.735 4.334s-2.072-.784-4.335-2.735a4.843 4.843 0 0 0 1.6-1.599m-2.993 2.18c-.22 2.977-.644 4.995-1.13 4.995-.487 0-.91-2.018-1.13-4.996.363.088.738.147 1.13.147.391 0 .766-.059 1.13-.147m-3.654-.58c-2.263 1.951-3.99 3.08-4.334 2.735-.345-.344.784-2.07 2.735-4.334.4.653.946 1.2 1.6 1.6m2.523-.244a3.879 3.879 0 1 1 0-7.758 3.879 3.879 0 0 1 0 7.758m-26.051 105.819c.809 0 1.513 3.355 1.88 8.308a8.042 8.042 0 0 0 -1.88-.243zm4.197 9.273c3.764-3.245 6.637-5.121 7.209-4.549.572.573-1.304 3.445-4.55 7.209a8.053 8.053 0 0 0 -2.66-2.66zm3.625 4.977c4.953.367 8.309 1.071 8.309 1.88s-3.356 1.514-8.31 1.881c.147-.606.244-1.23.244-1.881a7.99 7.99 0 0 0 -.243-1.88zm-.965 6.078c3.245 3.764 5.12 6.636 4.549 7.209-.572.572-3.445-1.305-7.21-4.549a8.053 8.053 0 0 0 2.66-2.66zm-6.857 3.868c.65 0 1.274-.098 1.88-.243-.367 4.953-1.071 8.308-1.88 8.308zm0-1.613v-12.905a6.452 6.452 0 0 1 0 12.905z" fill="#f1c40f"/><path d="m238.186 460-.06 12-8.125-6zm10.802 2-1.987 10s8-3 8-4-6.013-6-6.013-6m12.263 179-.25-4-26.031-25-19.97 27v5l21-27z" fill="#f1c40f"/><path d="m228.427 602.301c0-.486 2.017-.91 4.995-1.13-.087.364-.146.74-.146 1.13s.06.766.146 1.131c-2.978-.22-4.995-.645-4.995-1.13m5.576-2.524c-1.95-2.264-3.08-3.99-2.735-4.335.344-.344 2.071.784 4.334 2.735a4.843 4.843 0 0 0 -1.599 1.6m2.992-2.18c.221-2.978.644-4.996 1.131-4.996.486 0 .91 2.018 1.13 4.996a4.786 4.786 0 0 0 -1.13-.146c-.392 0-.767.058-1.13.146m3.653.58c2.264-1.95 3.99-3.079 4.335-2.735.344.344-.784 2.071-2.735 4.335a4.856 4.856 0 0 0 -1.6-1.6m2.18 2.993c2.978.22 4.995.644 4.995 1.13s-2.017.91-4.995 1.131c.087-.365.146-.74.146-1.13s-.059-.767-.146-1.13m-.58 3.653c1.951 2.263 3.08 3.99 2.735 4.334s-2.072-.784-4.335-2.735a4.843 4.843 0 0 0 1.6-1.599m-2.993 2.18c-.22 2.977-.644 4.995-1.13 4.995-.487 0-.91-2.018-1.13-4.996.363.088.738.147 1.13.147.391 0 .766-.059 1.13-.147m-3.654-.58c-2.263 1.951-3.99 3.08-4.334 2.735-.345-.344.784-2.07 2.735-4.334.4.653.946 1.2 1.6 1.6m2.523-.244a3.879 3.879 0 1 1 0-7.758 3.879 3.879 0 0 1 0 7.758m6.875 9.95c0-.302 1.307-.563 3.238-.7-.057.225-.095.457-.095.7s.038.473.095.7c-1.931-.138-3.238-.4-3.238-.7m3.614-1.562c-1.265-1.4-1.996-2.469-1.773-2.682s1.342.486 2.809 1.693a3.057 3.057 0 0 0 -1.036.99m1.939-1.35c.143-1.842.417-3.09.733-3.09.315 0 .589 1.248.732 3.09a3.326 3.326 0 0 0 -.732-.09c-.254 0-.497.037-.733.09m2.368.36c1.467-1.207 2.586-1.906 2.809-1.693s-.508 1.282-1.772 2.682a3.07 3.07 0 0 0 -1.037-.989m1.413 1.851c1.93.137 3.238.398 3.238.7s-1.308.562-3.238.7c.057-.227.095-.459.095-.7s-.038-.475-.095-.7m-.376 2.261c1.264 1.4 1.995 2.468 1.772 2.681s-1.342-.485-2.81-1.692a3.089 3.089 0 0 0 1.038-.989m-1.94 1.348c-.143 1.842-.417 3.09-.732 3.09-.316 0-.59-1.248-.733-3.09.236.054.479.09.733.09.253 0 .496-.036.732-.09m-2.368-.359c-1.467 1.207-2.586 1.905-2.81 1.692s.509-1.282 1.774-2.68c.259.402.613.74 1.036.988m1.636-.15c-1.39 0-2.514-1.075-2.514-2.4 0-1.326 1.125-2.4 2.514-2.4s2.514 1.074 2.514 2.4c0 1.325-1.125 2.4-2.514 2.4m-34.507-31.929c0-.3 1.307-.562 3.238-.699-.057.225-.095.457-.095.7s.038.473.095.7c-1.931-.138-3.238-.4-3.238-.7m3.614-1.562c-1.265-1.4-1.996-2.469-1.773-2.682s1.342.486 2.809 1.693a3.057 3.057 0 0 0 -1.036.99m1.939-1.35c.143-1.842.417-3.09.733-3.09.315 0 .589 1.248.732 3.09a3.326 3.326 0 0 0 -.732-.09c-.254 0-.497.037-.733.09m2.368.36c1.467-1.207 2.586-1.906 2.809-1.693s-.508 1.282-1.772 2.682a3.07 3.07 0 0 0 -1.037-.989m1.413 1.851c1.93.137 3.238.398 3.238.7s-1.308.562-3.238.7c.057-.227.095-.459.095-.7s-.038-.475-.095-.7m-.376 2.261c1.264 1.4 1.995 2.468 1.772 2.681s-1.342-.485-2.81-1.692a3.089 3.089 0 0 0 1.038-.989m-1.94 1.348c-.143 1.842-.417 3.09-.732 3.09-.316 0-.59-1.248-.733-3.09.236.054.479.09.733.09.253 0 .496-.036.732-.09m-2.368-.359c-1.467 1.207-2.586 1.905-2.81 1.692s.509-1.282 1.774-2.68c.259.402.613.74 1.036.988m1.636-.15c-1.39 0-2.514-1.075-2.514-2.4 0-1.326 1.125-2.4 2.514-2.4s2.514 1.074 2.514 2.4c0 1.325-1.125 2.4-2.514 2.4" fill="#f1c40f"/><path d="m221 569 6 8-7-1zm13.97 16-1.969 6 7-1zm18.014 19 1.815 4-4.799-1zm-37.983-71.891c.048-.001.092-.014.14-.014a6.699 6.699 0 1 1 0 13.397c-.048 0-.092-.013-.14-.014z" fill="#f1c40f"/><g fill="#f39c11"><path d="m218.42 463.203 12.932 53.797 1.782-1zm-112.65-53.977-6.06-6.06 6.06-6.06-7.278-7.277 7.278-7.278-5.957-5.957 5.957-5.958-7.277-7.277 7.277-7.278-9.192-9.192-9.193 9.192 7.278 7.278-7.278 7.277 5.958 5.958-5.958 5.957 7.278 7.278-7.278 7.277 6.06 6.06-6.06 6.06 7.278 7.278-7.278 7.277 5.958 5.958-5.958 5.957 7.278 7.278-7.278 7.277 9.193 9.193 9.192-9.193-7.278-7.277 7.278-7.278-5.957-5.957 5.957-5.958-7.278-7.277zm98.808-167.686h1.338v-94.52h-1.338z"/><path d="m212.667 145.167-7.42-12.611-7.42 12.61 7.42 12.61zm-28.309 5.222 16.413 93.084 1.318-.232-16.413-93.084z"/><path d="m192.002 147.16-9.497-11.132-5.117 13.708 9.497 11.13zm-26.973 11.573 23.666 91.509 1.295-.335-23.666-91.51z"/><path d="m172.396 154.912-10.341-10.35-4.026 14.065 10.34 10.351zm-25.52 13.843 34.641 87.943 1.244-.49-34.64-87.943z"/><path d="m153.721 164.066-11.525-9.014-2.282 14.452 11.525 9.014zm-24.542 16.71 43.644 83.84 1.187-.617-43.644-83.84z"/><path d="m135.497 175.398-12.404-7.76-.759 14.612 12.404 7.759zm-42.197 60.246 72.407 60.756.86-1.025-72.407-60.756z"/><path d="m97.08 228.255-14.43-2.422 4.89 13.79 14.43 2.422zm-26.867 68.058 87.943 34.642.49-1.245-87.943-34.64z"/><path d="m71.453 288.108-14.453 2.282 9.014 11.525 14.452-2.282zm41.73-93.816 51.48 79.271 1.122-.729-51.48-79.271z"/><path d="m118.957 188.332-13.09-6.535.644 14.618 13.093 6.535zm-40.013 64.412 77.896 53.537.758-1.103-77.896-53.536z"/><path d="m81.997 245.028-14.596-1.028 6.191 13.258 14.595 1.027zm-14.641 71.402 90.858 26.053.369-1.286-90.858-26.053z"/><path d="m67.803 308.143-14.167 3.657 10.077 10.61 14.167-3.658zm32.644-92.615 58.84 73.972 1.047-.832-58.84-73.973z"/><path d="m105.623 209.042-13.657-5.25 2.043 14.488 13.657 5.25zm-34.44 66.36 82.668 45.824.65-1.17-82.67-45.824z"/><path d="m73.482 267.428-14.626.376 7.432 12.603 14.626-.376z"/></g><path d="m190.817 124.778 18.407 104.39 1.477-.26-18.407-104.39z" fill="#f1c40f"/><path d="m199.39 121.155-10.65-12.482-5.74 15.372 10.65 12.482zm-30.25 12.98 26.54 102.624 1.453-.376-26.541-102.624z" fill="#f1c40f"/><path d="m177.401 129.85-11.597-11.608-4.515 15.775 11.598 11.608zm-28.62 15.525 38.849 98.625 1.396-.55-38.849-98.625z" fill="#f1c40f"/><path d="m156.458 140.116-12.925-10.108-2.559 16.208 12.925 10.108zm-27.523 18.74 48.945 94.023 1.331-.692-48.945-94.023z" fill="#f1c40f"/><path d="m136.021 152.823-13.91-8.702-.852 16.387 13.911 8.702zm-53.132 59.11 81.201 68.135.964-1.149-81.2-68.135z" fill="#f1c40f"/><path d="m87.127 203.647-16.182-2.716 5.485 15.465 16.182 2.716zm-32.506 75.055 98.625 38.85.549-1.396-98.624-38.85z" fill="#f1c40f"/><path d="m56.01 269.5-16.207 2.559 10.108 12.925 16.208-2.559zm54.988-95.487 57.732 88.9 1.258-.818-57.732-88.899z" fill="#f1c40f"/><path d="m117.472 167.329-14.68-7.33.723 16.394 14.681 7.329zm-46.528 65.408 87.357 60.039.85-1.236-87.357-60.04z" fill="#f1c40f"/><path d="m74.368 224.083-16.368-1.153 6.942 14.868 16.368 1.153zm-18.951 77.986 101.894 29.218.412-1.442-101.893-29.218z" fill="#f1c40f"/><path d="m55.918 292.776-15.888 4.1 11.301 11.898 15.888-4.101zm41.407-98.007 65.987 82.957 1.174-.935-65.986-82.956z" fill="#f1c40f"/><path d="m103.13 187.495-15.316-5.888 2.292 16.248 15.316 5.888zm-42.772 69.007 92.71 51.39.727-1.312-92.71-51.39z" fill="#f1c40f"/><path d="m62.937 247.56-16.403.422 8.335 14.134 16.402-.422zm-6.146 80.012 104.225 19.317.274-1.475-104.226-19.317z" fill="#f1c40f"/><path d="m56.4 318.274-15.423 5.605 12.39 10.759 15.421-5.605z" fill="#f1c40f"/><path d="m100 354.89-23.75-24.89s10.75-146 138.75-175v145s-45.635 6.725-115 54.89" fill="#f39c11"/><g fill="#f1c40f"><path d="m134.227 367s35.138-27 80.773-27v-96l-32 44-32-24-6 32-27-2-5.5 46-18.5 14.89 32.15 20.173z"/><path d="m196 263c0-.727-3.016-1.36-7.468-1.69.13.544.218 1.106.218 1.69 0 .585-.088 1.146-.218 1.69 4.452-.33 7.468-.962 7.468-1.69m-8.336-3.773c2.917-3.383 4.604-5.965 4.089-6.48-.514-.515-3.096 1.172-6.48 4.089a7.248 7.248 0 0 1 2.391 2.391m-4.474-3.258c-.33-4.453-.963-7.469-1.69-7.469s-1.36 3.016-1.69 7.469c.545-.131 1.105-.219 1.69-.219s1.145.088 1.69.219m-5.463.867c-3.384-2.917-5.965-4.604-6.48-4.089s1.172 3.097 4.089 6.48a7.248 7.248 0 0 1 2.391-2.391m-3.259 4.474c-4.452.33-7.468.963-7.468 1.69 0 .728 3.016 1.36 7.468 1.69a7.238 7.238 0 0 1 -.218-1.69c0-.584.088-1.146.218-1.69m.868 5.463c-2.917 3.384-4.604 5.966-4.089 6.48.515.515 3.096-1.172 6.48-4.089a7.248 7.248 0 0 1 -2.391-2.391m4.474 3.259c.33 4.452.963 7.468 1.69 7.468s1.36-3.016 1.69-7.468c-.545.131-1.105.218-1.69.218s-1.145-.087-1.69-.218m5.463-.868c3.384 2.917 5.966 4.604 6.48 4.089.515-.514-1.172-3.096-4.089-6.48a7.248 7.248 0 0 1 -2.391 2.391m-3.773-.364a5.8 5.8 0 1 0 0-11.6 5.8 5.8 0 0 0 0 11.6m30.5-30.3c0-.727-3.016-1.36-7.468-1.69.13.544.218 1.106.218 1.69 0 .585-.088 1.146-.218 1.69 4.452-.33 7.468-.962 7.468-1.69m-8.336-3.773c2.917-3.383 4.604-5.965 4.089-6.48-.514-.515-3.096 1.172-6.48 4.089a7.248 7.248 0 0 1 2.391 2.391m-4.474-3.258c-.33-4.453-.963-7.469-1.69-7.469s-1.36 3.016-1.69 7.469c.545-.131 1.105-.219 1.69-.219s1.145.088 1.69.219m-5.463.867c-3.384-2.917-5.965-4.604-6.48-4.089s1.172 3.097 4.089 6.48a7.248 7.248 0 0 1 2.391-2.391m-3.259 4.474c-4.452.33-7.468.963-7.468 1.69 0 .728 3.016 1.36 7.468 1.69a7.238 7.238 0 0 1 -.218-1.69c0-.584.088-1.146.218-1.69m.868 5.463c-2.917 3.384-4.604 5.966-4.089 6.48.515.515 3.096-1.172 6.48-4.089a7.248 7.248 0 0 1 -2.391-2.391m4.474 3.259c.33 4.452.963 7.468 1.69 7.468s1.36-3.016 1.69-7.468c-.545.131-1.105.218-1.69.218s-1.145-.087-1.69-.218m5.463-.868c3.384 2.917 5.966 4.604 6.48 4.089.515-.514-1.172-3.096-4.089-6.48a7.248 7.248 0 0 1 -2.391 2.391m-3.773-.364a5.8 5.8 0 1 0 0-11.6 5.8 5.8 0 0 0 0 11.6m10.5-31.3c0-.727-3.016-1.36-7.468-1.69.13.544.218 1.106.218 1.69 0 .585-.088 1.146-.218 1.69 4.452-.33 7.468-.962 7.468-1.69m-8.336-3.773c2.917-3.383 4.604-5.965 4.089-6.48-.514-.515-3.096 1.172-6.48 4.089a7.248 7.248 0 0 1 2.391 2.391m-4.474-3.258c-.33-4.453-.963-7.469-1.69-7.469s-1.36 3.016-1.69 7.469c.545-.131 1.105-.219 1.69-.219s1.145.088 1.69.219m-5.463.867c-3.384-2.917-5.965-4.604-6.48-4.089s1.172 3.097 4.089 6.48a7.248 7.248 0 0 1 2.391-2.391m-3.259 4.474c-4.452.33-7.468.963-7.468 1.69 0 .728 3.016 1.36 7.468 1.69a7.238 7.238 0 0 1 -.218-1.69c0-.584.088-1.146.218-1.69m.868 5.463c-2.917 3.384-4.604 5.966-4.089 6.48.515.515 3.096-1.172 6.48-4.089a7.248 7.248 0 0 1 -2.391-2.391m4.474 3.259c.33 4.452.963 7.468 1.69 7.468s1.36-3.016 1.69-7.468c-.545.131-1.105.218-1.69.218s-1.145-.087-1.69-.218m5.463-.868c3.384 2.917 5.966 4.604 6.48 4.089.515-.514-1.172-3.096-4.089-6.48a7.248 7.248 0 0 1 -2.391 2.391m-3.773-.364a5.8 5.8 0 1 0 0-11.6 5.8 5.8 0 0 0 0 11.6m-10.5 18.2c0-.727-3.016-1.36-7.468-1.69.13.544.218 1.106.218 1.69 0 .585-.088 1.146-.218 1.69 4.452-.33 7.468-.962 7.468-1.69m-8.336-3.773c2.917-3.383 4.604-5.965 4.089-6.48-.514-.515-3.096 1.172-6.48 4.089a7.248 7.248 0 0 1 2.391 2.391m-4.474-3.258c-.33-4.453-.963-7.469-1.69-7.469s-1.36 3.016-1.69 7.469c.545-.131 1.105-.219 1.69-.219s1.145.088 1.69.219m-5.463.867c-3.384-2.917-5.965-4.604-6.48-4.089s1.172 3.097 4.089 6.48a7.248 7.248 0 0 1 2.391-2.391m-3.259 4.474c-4.452.33-7.468.963-7.468 1.69 0 .728 3.016 1.36 7.468 1.69a7.238 7.238 0 0 1 -.218-1.69c0-.584.088-1.146.218-1.69m.868 5.463c-2.917 3.384-4.604 5.966-4.089 6.48.515.515 3.096-1.172 6.48-4.089a7.248 7.248 0 0 1 -2.391-2.391m4.474 3.259c.33 4.452.963 7.468 1.69 7.468s1.36-3.016 1.69-7.468c-.545.131-1.105.218-1.69.218s-1.145-.087-1.69-.218m5.463-.868c3.384 2.917 5.966 4.604 6.48 4.089.515-.514-1.172-3.096-4.089-6.48a7.248 7.248 0 0 1 -2.391 2.391m-3.773-.364a5.8 5.8 0 1 0 0-11.6 5.8 5.8 0 0 0 0 11.6m-14.5 6.7c0-.727-3.016-1.36-7.468-1.69.13.544.218 1.106.218 1.69 0 .585-.088 1.146-.218 1.69 4.452-.33 7.468-.962 7.468-1.69m-8.336-3.773c2.917-3.383 4.604-5.965 4.089-6.48-.514-.515-3.096 1.172-6.48 4.089a7.248 7.248 0 0 1 2.391 2.391m-4.474-3.258c-.33-4.453-.963-7.469-1.69-7.469s-1.36 3.016-1.69 7.469c.545-.131 1.105-.219 1.69-.219s1.145.088 1.69.219m-5.463.867c-3.384-2.917-5.965-4.604-6.48-4.089s1.172 3.097 4.089 6.48a7.248 7.248 0 0 1 2.391-2.391m-3.259 4.474c-4.452.33-7.468.963-7.468 1.69 0 .728 3.016 1.36 7.468 1.69a7.238 7.238 0 0 1 -.218-1.69c0-.584.088-1.146.218-1.69m.868 5.463c-2.917 3.384-4.604 5.966-4.089 6.48.515.515 3.096-1.172 6.48-4.089a7.248 7.248 0 0 1 -2.391-2.391m4.474 3.259c.33 4.452.963 7.468 1.69 7.468s1.36-3.016 1.69-7.468c-.545.131-1.105.218-1.69.218s-1.145-.087-1.69-.218m5.463-.868c3.384 2.917 5.966 4.604 6.48 4.089.515-.514-1.172-3.096-4.089-6.48a7.248 7.248 0 0 1 -2.391 2.391m-3.773-.364a5.8 5.8 0 1 0 0-11.6 5.8 5.8 0 0 0 0 11.6m7.5 19.7c0-.727-3.016-1.36-7.468-1.69.13.544.218 1.106.218 1.69 0 .585-.088 1.146-.218 1.69 4.452-.33 7.468-.962 7.468-1.69m-8.336-3.773c2.917-3.383 4.604-5.965 4.089-6.48-.514-.515-3.096 1.172-6.48 4.089a7.248 7.248 0 0 1 2.391 2.391m-4.474-3.258c-.33-4.453-.963-7.469-1.69-7.469s-1.36 3.016-1.69 7.469c.545-.131 1.105-.219 1.69-.219s1.145.088 1.69.219m-5.463.867c-3.384-2.917-5.965-4.604-6.48-4.089s1.172 3.097 4.089 6.48a7.248 7.248 0 0 1 2.391-2.391m-3.259 4.474c-4.452.33-7.468.963-7.468 1.69 0 .728 3.016 1.36 7.468 1.69a7.238 7.238 0 0 1 -.218-1.69c0-.584.088-1.146.218-1.69m.868 5.463c-2.917 3.384-4.604 5.966-4.089 6.48.515.515 3.096-1.172 6.48-4.089a7.248 7.248 0 0 1 -2.391-2.391m4.474 3.259c.33 4.452.963 7.468 1.69 7.468s1.36-3.016 1.69-7.468c-.545.131-1.105.218-1.69.218s-1.145-.087-1.69-.218m5.463-.868c3.384 2.917 5.966 4.604 6.48 4.089.515-.514-1.172-3.096-4.089-6.48a7.248 7.248 0 0 1 -2.391 2.391m-3.773-.364a5.8 5.8 0 1 0 0-11.6 5.8 5.8 0 0 0 0 11.6m79.5-103.3c0-.727-3.016-1.36-7.468-1.69.13.544.218 1.106.218 1.69 0 .585-.088 1.146-.218 1.69 4.452-.33 7.468-.962 7.468-1.69m-8.336-3.773c2.917-3.383 4.604-5.965 4.089-6.48-.514-.515-3.096 1.172-6.48 4.089a7.248 7.248 0 0 1 2.391 2.391m-4.474-3.258c-.33-4.453-.963-7.469-1.69-7.469s-1.36 3.016-1.69 7.469c.545-.131 1.105-.219 1.69-.219s1.145.088 1.69.219m-5.463.867c-3.384-2.917-5.965-4.604-6.48-4.089s1.172 3.097 4.089 6.48a7.248 7.248 0 0 1 2.391-2.391m-3.259 4.474c-4.452.33-7.468.963-7.468 1.69 0 .728 3.016 1.36 7.468 1.69a7.238 7.238 0 0 1 -.218-1.69c0-.584.088-1.146.218-1.69m.868 5.463c-2.917 3.384-4.604 5.966-4.089 6.48.515.515 3.096-1.172 6.48-4.089a7.248 7.248 0 0 1 -2.391-2.391m4.474 3.259c.33 4.452.963 7.468 1.69 7.468s1.36-3.016 1.69-7.468c-.545.131-1.105.218-1.69.218s-1.145-.087-1.69-.218m5.463-.868c3.384 2.917 5.966 4.604 6.48 4.089.515-.514-1.172-3.096-4.089-6.48a7.248 7.248 0 0 1 -2.391 2.391m-3.773-.364a5.8 5.8 0 1 0 0-11.6 5.8 5.8 0 0 0 0 11.6m-18 15.2c0-.727-3.016-1.36-7.468-1.69.13.544.218 1.106.218 1.69 0 .585-.088 1.146-.218 1.69 4.452-.33 7.468-.962 7.468-1.69m-8.336-3.773c2.917-3.383 4.604-5.965 4.089-6.48-.514-.515-3.096 1.172-6.48 4.089a7.248 7.248 0 0 1 2.391 2.391m-4.474-3.258c-.33-4.453-.963-7.469-1.69-7.469s-1.36 3.016-1.69 7.469c.545-.131 1.105-.219 1.69-.219s1.145.088 1.69.219m-5.463.867c-3.384-2.917-5.965-4.604-6.48-4.089s1.172 3.097 4.089 6.48a7.248 7.248 0 0 1 2.391-2.391m-3.259 4.474c-4.452.33-7.468.963-7.468 1.69 0 .728 3.016 1.36 7.468 1.69a7.238 7.238 0 0 1 -.218-1.69c0-.584.088-1.146.218-1.69m.868 5.463c-2.917 3.384-4.604 5.966-4.089 6.48.515.515 3.096-1.172 6.48-4.089a7.248 7.248 0 0 1 -2.391-2.391m4.474 3.259c.33 4.452.963 7.468 1.69 7.468s1.36-3.016 1.69-7.468c-.545.131-1.105.218-1.69.218s-1.145-.087-1.69-.218m5.463-.868c3.384 2.917 5.966 4.604 6.48 4.089.515-.514-1.172-3.096-4.089-6.48a7.248 7.248 0 0 1 -2.391 2.391m-3.773-.364a5.8 5.8 0 1 0 0-11.6 5.8 5.8 0 0 0 0 11.6"/><path d="m152.5 222.5c0-.727-3.016-1.36-7.468-1.69.13.544.218 1.106.218 1.69 0 .585-.088 1.146-.218 1.69 4.452-.33 7.468-.962 7.468-1.69m-8.336-3.773c2.917-3.383 4.604-5.965 4.089-6.48-.514-.515-3.096 1.172-6.48 4.089a7.248 7.248 0 0 1 2.391 2.391m-4.474-3.258c-.33-4.453-.963-7.469-1.69-7.469s-1.36 3.016-1.69 7.469c.545-.131 1.105-.219 1.69-.219s1.145.088 1.69.219m-5.463.867c-3.384-2.917-5.965-4.604-6.48-4.089s1.172 3.097 4.089 6.48a7.248 7.248 0 0 1 2.391-2.391m-3.259 4.474c-4.452.33-7.468.963-7.468 1.69 0 .728 3.016 1.36 7.468 1.69a7.238 7.238 0 0 1 -.218-1.69c0-.584.088-1.146.218-1.69m.868 5.463c-2.917 3.384-4.604 5.966-4.089 6.48.515.515 3.096-1.172 6.48-4.089a7.248 7.248 0 0 1 -2.391-2.391m4.474 3.259c.33 4.452.963 7.468 1.69 7.468s1.36-3.016 1.69-7.468c-.545.131-1.105.218-1.69.218s-1.145-.087-1.69-.218m5.463-.868c3.384 2.917 5.966 4.604 6.48 4.089.515-.514-1.172-3.096-4.089-6.48a7.248 7.248 0 0 1 -2.391 2.391m-3.773-.364a5.8 5.8 0 1 0 0-11.6 5.8 5.8 0 0 0 0 11.6m-11.85 26.7c0-.727-3.016-1.36-7.468-1.69.13.544.218 1.106.218 1.69 0 .585-.088 1.146-.218 1.69 4.452-.33 7.468-.962 7.468-1.69m-8.336-3.773c2.917-3.383 4.604-5.965 4.089-6.48-.514-.515-3.096 1.172-6.48 4.089a7.248 7.248 0 0 1 2.39 2.391m-4.473-3.258c-.33-4.453-.963-7.469-1.69-7.469s-1.36 3.016-1.69 7.469c.545-.131 1.105-.219 1.69-.219s1.145.088 1.69.219m-5.463.867c-3.384-2.917-5.965-4.604-6.48-4.089s1.172 3.097 4.089 6.48a7.248 7.248 0 0 1 2.39-2.391m-3.258 4.474c-4.452.33-7.468.963-7.468 1.69 0 .728 3.016 1.36 7.468 1.69a7.238 7.238 0 0 1 -.218-1.69c0-.584.088-1.146.218-1.69m.868 5.463c-2.917 3.384-4.604 5.966-4.09 6.48.516.515 3.097-1.172 6.48-4.089a7.248 7.248 0 0 1 -2.39-2.391m4.474 3.259c.33 4.452.963 7.468 1.69 7.468s1.36-3.016 1.69-7.468c-.545.131-1.105.218-1.69.218s-1.145-.087-1.69-.218m5.463-.868c3.384 2.917 5.966 4.604 6.48 4.089.515-.514-1.172-3.096-4.09-6.48a7.248 7.248 0 0 1 -2.39 2.391m-3.773-.364a5.8 5.8 0 1 0 0-11.6 5.8 5.8 0 0 0 0 11.6m6.35 31.426c0-.727-3.016-1.36-7.468-1.69.13.544.218 1.106.218 1.69 0 .585-.088 1.146-.218 1.69 4.452-.33 7.468-.962 7.468-1.69m-8.336-3.773c2.917-3.383 4.604-5.965 4.089-6.48-.514-.515-3.096 1.172-6.48 4.089a7.248 7.248 0 0 1 2.391 2.39m-4.474-3.257c-.33-4.453-.963-7.47-1.69-7.47s-1.36 3.017-1.69 7.47c.545-.131 1.105-.22 1.69-.22s1.145.089 1.69.22m-5.463.867c-3.384-2.917-5.965-4.604-6.48-4.09s1.172 3.098 4.089 6.48a7.248 7.248 0 0 1 2.391-2.39m-3.259 4.474c-4.452.33-7.468.963-7.468 1.69 0 .728 3.016 1.36 7.468 1.69a7.238 7.238 0 0 1 -.218-1.69c0-.584.088-1.146.218-1.69m.868 5.463c-2.917 3.384-4.604 5.966-4.089 6.48.515.515 3.096-1.172 6.48-4.09a7.248 7.248 0 0 1 -2.391-2.39m4.474 3.259c.33 4.452.963 7.468 1.69 7.468s1.36-3.016 1.69-7.468c-.545.13-1.105.218-1.69.218s-1.145-.087-1.69-.218m5.463-.868c3.384 2.917 5.966 4.604 6.48 4.089.515-.514-1.172-3.096-4.089-6.48a7.248 7.248 0 0 1 -2.391 2.39m-3.773-.363a5.8 5.8 0 1 0 0-11.6 5.8 5.8 0 0 0 0 11.6m8.15 23.2c0-.727-3.016-1.36-7.468-1.69.13.544.218 1.106.218 1.69 0 .585-.088 1.146-.218 1.69 4.452-.33 7.468-.962 7.468-1.69m-8.336-3.773c2.917-3.383 4.604-5.965 4.089-6.48-.514-.515-3.096 1.172-6.48 4.089a7.248 7.248 0 0 1 2.39 2.39m-4.473-3.257c-.33-4.453-.963-7.47-1.69-7.47s-1.36 3.017-1.69 7.47c.545-.131 1.105-.22 1.69-.22s1.145.089 1.69.22m-5.463.867c-3.384-2.917-5.965-4.604-6.48-4.09s1.172 3.098 4.089 6.48a7.248 7.248 0 0 1 2.39-2.39m-3.258 4.474c-4.452.33-7.468.963-7.468 1.69 0 .728 3.016 1.36 7.468 1.69a7.238 7.238 0 0 1 -.218-1.69c0-.584.088-1.146.218-1.69m.868 5.463c-2.917 3.384-4.604 5.966-4.09 6.48.516.515 3.097-1.172 6.48-4.09a7.248 7.248 0 0 1 -2.39-2.39m4.474 3.259c.33 4.452.963 7.468 1.69 7.468s1.36-3.016 1.69-7.468c-.545.13-1.105.218-1.69.218s-1.145-.087-1.69-.218m5.463-.868c3.384 2.917 5.966 4.604 6.48 4.089.515-.514-1.172-3.096-4.09-6.48a7.248 7.248 0 0 1 -2.39 2.39m-3.773-.363a5.8 5.8 0 1 0 0-11.6 5.8 5.8 0 0 0 0 11.6"/></g><path d="m87.385 392.337-6.06-6.06 6.06-6.06-7.278-7.277 7.278-7.278-5.957-5.957 5.957-5.958-7.277-7.277 7.277-7.278-9.192-9.192-9.193 9.192 7.278 7.278-7.278 7.277 5.958 5.958-5.958 5.957 7.278 7.278-7.278 7.277 6.06 6.06-6.06 6.06 7.278 7.278-7.278 7.277 5.958 5.958-5.958 5.957 7.278 7.278-7.278 7.277 9.193 9.193 9.192-9.193-7.278-7.277 7.278-7.278-5.957-5.957 5.957-5.958-7.278-7.277zm36.77 30.847-6.06-6.06 6.06-6.06-7.278-7.277 7.278-7.278-5.957-5.957 5.957-5.958-7.277-7.277 7.277-7.278-9.192-9.192-9.193 9.192 7.278 7.278-7.278 7.277 5.958 5.958-5.958 5.957 7.278 7.278-7.278 7.277 6.06 6.06-6.06 6.06 7.278 7.278-7.278 7.277 5.958 5.958-5.958 5.957 7.278 7.278-7.278 7.277 9.193 9.193 9.192-9.193-7.278-7.277 7.278-7.278-5.957-5.957 5.957-5.958-7.278-7.277z" fill="#f1c40f"/><g fill="#f39c11"><path d="m324.231 409.226 6.06-6.06-6.06-6.06 7.278-7.277-7.278-7.278 5.957-5.957-5.957-5.958 7.277-7.277-7.277-7.278 9.192-9.192 9.193 9.192-7.278 7.278 7.278 7.277-5.958 5.958 5.958 5.957-7.278 7.278 7.278 7.277-6.06 6.06 6.06 6.06-7.278 7.278 7.278 7.277-5.958 5.958 5.958 5.957-7.278 7.278 7.278 7.277-9.193 9.193-9.192-9.193 7.278-7.277-7.278-7.278 5.957-5.957-5.957-5.958 7.278-7.277zm-100.147-167.686h1.338v-94.52h-1.338z"/><path d="m217.334 145.167 7.42-12.611 7.42 12.61-7.42 12.61zm28.308 5.222-16.413 93.084-1.317-.232 16.413-93.084z"/><path d="m237.999 147.16 9.497-11.132 5.116 13.708-9.497 11.13zm26.973 11.573-23.666 91.509-1.295-.335 23.666-91.51z"/><path d="m257.605 154.912 10.341-10.35 4.026 14.065-10.341 10.351zm25.52 13.843-34.641 87.943-1.244-.49 34.64-87.943z"/><path d="m276.28 164.066 11.525-9.014 2.282 14.452-11.525 9.014zm24.542 16.71-43.644 83.84-1.187-.617 43.644-83.84z"/><path d="m294.504 175.398 12.404-7.76.759 14.612-12.404 7.759zm42.197 60.246-72.407 60.756-.86-1.025 72.407-60.756z"/><path d="m332.921 228.255 14.43-2.422-4.89 13.79-14.43 2.422zm26.867 68.058-87.943 34.642-.49-1.245 87.943-34.64z"/><path d="m358.548 288.108 14.452 2.282-9.014 11.525-14.452-2.282zm-41.73-93.816-51.48 79.271-1.122-.729 51.48-79.271z"/><path d="m311.043 188.332 13.091-6.535-.645 14.618-13.091 6.535zm40.014 64.412-77.896 53.537-.758-1.103 77.896-53.536z"/><path d="m348.003 245.028 14.597-1.028-6.19 13.258-14.596 1.027zm14.642 71.402-90.858 26.053-.369-1.286 90.858-26.053z"/><path d="m362.198 308.143 14.167 3.656-10.077 10.61-14.167-3.658zm-32.644-92.615-58.84 73.972-1.048-.832 58.84-73.973z"/><path d="m324.377 209.042 13.657-5.25-2.043 14.488-13.657 5.25zm34.44 66.36-82.667 45.824-.65-1.17 82.67-45.824z"/><path d="m356.519 267.428 14.626.376-7.432 12.603-14.626-.376z"/></g><path d="m239.184 124.778-18.407 104.39-1.477-.26 18.407-104.39z" fill="#f1c40f"/><path d="m230.612 121.155 10.65-12.482 5.738 15.372-10.65 12.482zm30.249 12.98-26.54 102.624-1.453-.376 26.54-102.624z" fill="#f1c40f"/><path d="m252.6 129.85 11.596-11.608 4.515 15.775-11.597 11.608zm28.62 15.525-38.85 98.625-1.395-.55 38.849-98.625z" fill="#f1c40f"/><path d="m273.543 140.116 12.925-10.108 2.559 16.208-12.925 10.108zm27.523 18.74-48.945 94.023-1.331-.692 48.945-94.023z" fill="#f1c40f"/><path d="m293.98 152.823 13.91-8.702.852 16.387-13.911 8.702zm53.131 59.11-81.2 68.135-.965-1.149 81.201-68.135z" fill="#f1c40f"/><path d="m342.873 203.647 16.182-2.716-5.485 15.465-16.182 2.716zm32.507 75.055-98.625 38.85-.549-1.396 98.624-38.85z" fill="#f1c40f"/><path d="m373.99 269.5 16.208 2.559-10.108 12.925-16.208-2.559zm-54.987-95.487-57.732 88.9-1.258-.818 57.732-88.899z" fill="#f1c40f"/><path d="m312.529 167.329 14.68-7.33-.723 16.394-14.681 7.329zm46.528 65.408-87.357 60.039-.85-1.236 87.357-60.04z" fill="#f1c40f"/><path d="m355.633 224.083 16.367-1.153-6.942 14.868-16.368 1.153zm18.951 77.986-101.894 29.218-.413-1.442 101.894-29.218z" fill="#f1c40f"/><path d="m374.082 292.776 15.888 4.1-11.3 11.898-15.889-4.101zm-41.406-98.007-65.987 82.957-1.175-.935 65.987-82.956z" fill="#f1c40f"/><path d="m326.87 187.495 15.317-5.888-2.292 16.248-15.316 5.888zm42.773 69.007-92.71 51.39-.727-1.312 92.71-51.39z" fill="#f1c40f"/><path d="m367.065 247.56 16.403.422-8.335 14.134-16.402-.422zm6.145 80.012-104.225 19.317-.274-1.475 104.226-19.317z" fill="#f1c40f"/><path d="m373.602 318.274 15.422 5.605-12.39 10.759-15.421-5.605z" fill="#f1c40f"/><path d="m330 354.89 23.75-24.89s-10.75-146-138.75-175v145s45.636 6.725 115 54.89" fill="#f39c11"/><g fill="#f1c40f"><path d="m295.774 367s-35.138-27-80.774-27v-96l32 44 32-24 6 32 27-2 5.5 46 18.5 14.89-32.15 20.173z"/><path d="m234 263c0-.727 3.017-1.36 7.469-1.69a7.245 7.245 0 0 0 -.218 1.69c0 .585.088 1.146.218 1.69-4.452-.33-7.468-.962-7.468-1.69m8.336-3.773c-2.917-3.383-4.604-5.965-4.09-6.48.515-.515 3.097 1.172 6.48 4.089a7.248 7.248 0 0 0 -2.39 2.391m4.474-3.258c.33-4.453.963-7.469 1.69-7.469s1.36 3.016 1.69 7.469c-.545-.131-1.105-.219-1.69-.219s-1.145.088-1.69.219m5.463.867c3.384-2.917 5.965-4.604 6.48-4.089.514.515-1.172 3.097-4.09 6.48a7.248 7.248 0 0 0 -2.39-2.391m3.259 4.474c4.452.33 7.468.963 7.468 1.69 0 .728-3.016 1.36-7.468 1.69.13-.544.218-1.105.218-1.69 0-.584-.088-1.146-.218-1.69m-.868 5.463c2.917 3.384 4.603 5.966 4.089 6.48-.515.515-3.096-1.172-6.48-4.089a7.248 7.248 0 0 0 2.39-2.391m-4.473 3.259c-.33 4.452-.963 7.468-1.69 7.468s-1.36-3.016-1.69-7.468c.545.131 1.105.218 1.69.218s1.145-.087 1.69-.218m-5.463-.868c-3.384 2.917-5.966 4.604-6.48 4.089-.515-.514 1.172-3.096 4.089-6.48a7.248 7.248 0 0 0 2.39 2.391m3.774-.364a5.8 5.8 0 1 1 0-11.6 5.8 5.8 0 0 1 0 11.6m-30.501-30.3c0-.727 3.016-1.36 7.468-1.69a7.245 7.245 0 0 0 -.218 1.69c0 .585.088 1.146.218 1.69-4.452-.33-7.468-.962-7.468-1.69m8.336-3.773c-2.917-3.383-4.604-5.965-4.09-6.48.515-.515 3.097 1.172 6.48 4.089a7.248 7.248 0 0 0 -2.39 2.391m4.474-3.258c.33-4.453.963-7.469 1.69-7.469s1.36 3.016 1.69 7.469c-.545-.131-1.105-.219-1.69-.219s-1.145.088-1.69.219m5.463.867c3.384-2.917 5.965-4.604 6.48-4.089s-1.172 3.097-4.09 6.48a7.248 7.248 0 0 0 -2.39-2.391m3.259 4.474c4.452.33 7.468.963 7.468 1.69 0 .728-3.016 1.36-7.468 1.69.13-.544.218-1.105.218-1.69 0-.584-.088-1.146-.218-1.69m-.868 5.463c2.917 3.384 4.604 5.966 4.089 6.48-.515.515-3.096-1.172-6.48-4.089a7.248 7.248 0 0 0 2.39-2.391m-4.473 3.259c-.33 4.452-.963 7.468-1.69 7.468s-1.36-3.016-1.69-7.468c.545.131 1.105.218 1.69.218s1.145-.087 1.69-.218m-5.463-.868c-3.384 2.917-5.966 4.604-6.48 4.089-.515-.514 1.172-3.096 4.089-6.48a7.248 7.248 0 0 0 2.39 2.391m3.774-.364a5.8 5.8 0 1 1 0-11.6 5.8 5.8 0 0 1 0 11.6m-10.5-31.3c0-.727 3.016-1.36 7.468-1.69a7.245 7.245 0 0 0 -.218 1.69c0 .585.088 1.146.218 1.69-4.452-.33-7.468-.962-7.468-1.69m8.336-3.773c-2.917-3.383-4.604-5.965-4.09-6.48.515-.515 3.097 1.172 6.48 4.089a7.248 7.248 0 0 0 -2.39 2.391m4.474-3.258c.33-4.453.963-7.469 1.69-7.469s1.36 3.016 1.69 7.469c-.545-.131-1.105-.219-1.69-.219s-1.145.088-1.69.219m5.463.867c3.384-2.917 5.965-4.604 6.48-4.089s-1.172 3.097-4.09 6.48a7.248 7.248 0 0 0 -2.39-2.391m3.259 4.474c4.452.33 7.468.963 7.468 1.69 0 .728-3.016 1.36-7.468 1.69.13-.544.218-1.105.218-1.69 0-.584-.088-1.146-.218-1.69m-.868 5.463c2.917 3.384 4.604 5.966 4.089 6.48-.515.515-3.096-1.172-6.48-4.089a7.248 7.248 0 0 0 2.39-2.391m-4.473 3.259c-.33 4.452-.963 7.468-1.69 7.468s-1.36-3.016-1.69-7.468c.545.131 1.105.218 1.69.218s1.145-.087 1.69-.218m-5.463-.868c-3.384 2.917-5.966 4.604-6.48 4.089-.515-.514 1.172-3.096 4.089-6.48a7.248 7.248 0 0 0 2.39 2.391m3.774-.364a5.8 5.8 0 1 1 0-11.6 5.8 5.8 0 0 1 0 11.6m10.5 18.2c0-.727 3.016-1.36 7.468-1.69a7.245 7.245 0 0 0 -.218 1.69c0 .585.088 1.146.218 1.69-4.452-.33-7.468-.962-7.468-1.69m8.336-3.773c-2.917-3.383-4.604-5.965-4.09-6.48.515-.515 3.097 1.172 6.48 4.089a7.248 7.248 0 0 0 -2.39 2.391m4.474-3.258c.33-4.453.963-7.469 1.69-7.469s1.36 3.016 1.69 7.469c-.545-.131-1.105-.219-1.69-.219s-1.145.088-1.69.219m5.463.867c3.384-2.917 5.965-4.604 6.48-4.089.514.515-1.172 3.097-4.09 6.48a7.248 7.248 0 0 0 -2.39-2.391m3.259 4.474c4.452.33 7.468.963 7.468 1.69 0 .728-3.016 1.36-7.468 1.69.13-.544.218-1.105.218-1.69 0-.584-.088-1.146-.218-1.69m-.868 5.463c2.917 3.384 4.603 5.966 4.089 6.48-.515.515-3.096-1.172-6.48-4.089a7.248 7.248 0 0 0 2.39-2.391m-4.473 3.259c-.33 4.452-.963 7.468-1.69 7.468s-1.36-3.016-1.69-7.468c.545.131 1.105.218 1.69.218s1.145-.087 1.69-.218m-5.463-.868c-3.384 2.917-5.966 4.604-6.48 4.089-.515-.514 1.172-3.096 4.089-6.48a7.248 7.248 0 0 0 2.39 2.391m3.774-.364a5.8 5.8 0 1 1 0-11.6 5.8 5.8 0 0 1 0 11.6m14.5 6.7c0-.727 3.016-1.36 7.468-1.69a7.245 7.245 0 0 0 -.218 1.69c0 .585.088 1.146.218 1.69-4.452-.33-7.468-.962-7.468-1.69m8.336-3.773c-2.917-3.383-4.604-5.965-4.09-6.48.515-.515 3.097 1.172 6.48 4.089a7.248 7.248 0 0 0 -2.39 2.391m4.474-3.258c.33-4.453.963-7.469 1.69-7.469s1.36 3.016 1.69 7.469c-.545-.131-1.105-.219-1.69-.219s-1.145.088-1.69.219m5.463.867c3.384-2.917 5.965-4.604 6.48-4.089.514.515-1.172 3.097-4.09 6.48a7.248 7.248 0 0 0 -2.39-2.391m3.259 4.474c4.452.33 7.468.963 7.468 1.69 0 .728-3.016 1.36-7.468 1.69.13-.544.218-1.105.218-1.69 0-.584-.088-1.146-.218-1.69m-.868 5.463c2.917 3.384 4.603 5.966 4.089 6.48-.515.515-3.096-1.172-6.48-4.089a7.248 7.248 0 0 0 2.39-2.391m-4.473 3.259c-.33 4.452-.963 7.468-1.69 7.468s-1.36-3.016-1.69-7.468c.545.131 1.105.218 1.69.218s1.145-.087 1.69-.218m-5.463-.868c-3.384 2.917-5.966 4.604-6.48 4.089-.515-.514 1.172-3.096 4.089-6.48a7.248 7.248 0 0 0 2.39 2.391m3.774-.364a5.8 5.8 0 1 1 0-11.6 5.8 5.8 0 0 1 0 11.6m-7.5 19.7c0-.727 3.016-1.36 7.468-1.69a7.245 7.245 0 0 0 -.218 1.69c0 .585.088 1.146.218 1.69-4.452-.33-7.468-.962-7.468-1.69m8.336-3.773c-2.917-3.383-4.604-5.965-4.09-6.48.515-.515 3.097 1.172 6.48 4.089a7.248 7.248 0 0 0 -2.39 2.391m4.474-3.258c.33-4.453.963-7.469 1.69-7.469s1.36 3.016 1.69 7.469c-.545-.131-1.105-.219-1.69-.219s-1.145.088-1.69.219m5.463.867c3.384-2.917 5.965-4.604 6.48-4.089.514.515-1.172 3.097-4.09 6.48a7.248 7.248 0 0 0 -2.39-2.391m3.259 4.474c4.452.33 7.468.963 7.468 1.69 0 .728-3.016 1.36-7.468 1.69.13-.544.218-1.105.218-1.69 0-.584-.088-1.146-.218-1.69m-.868 5.463c2.917 3.384 4.603 5.966 4.089 6.48-.515.515-3.096-1.172-6.48-4.089a7.248 7.248 0 0 0 2.39-2.391m-4.473 3.259c-.33 4.452-.963 7.468-1.69 7.468s-1.36-3.016-1.69-7.468c.545.131 1.105.218 1.69.218s1.145-.087 1.69-.218m-5.463-.868c-3.384 2.917-5.966 4.604-6.48 4.089-.515-.514 1.172-3.096 4.089-6.48a7.248 7.248 0 0 0 2.39 2.391m3.774-.364a5.8 5.8 0 1 1 0-11.6 5.8 5.8 0 0 1 0 11.6m-79.5-103.3c0-.727 3.016-1.36 7.468-1.69a7.245 7.245 0 0 0 -.218 1.69c0 .585.088 1.146.218 1.69-4.452-.33-7.468-.962-7.468-1.69m8.336-3.773c-2.917-3.383-4.604-5.965-4.09-6.48.515-.515 3.097 1.172 6.48 4.089a7.248 7.248 0 0 0 -2.39 2.391m4.474-3.258c.33-4.453.963-7.469 1.69-7.469s1.36 3.016 1.69 7.469c-.545-.131-1.105-.219-1.69-.219s-1.145.088-1.69.219m5.463.867c3.384-2.917 5.965-4.604 6.48-4.089s-1.172 3.097-4.09 6.48a7.248 7.248 0 0 0 -2.39-2.391m3.259 4.474c4.452.33 7.468.963 7.468 1.69 0 .728-3.016 1.36-7.468 1.69.13-.544.218-1.105.218-1.69 0-.584-.088-1.146-.218-1.69m-.868 5.463c2.917 3.384 4.604 5.966 4.089 6.48-.515.515-3.096-1.172-6.48-4.089a7.248 7.248 0 0 0 2.39-2.391m-4.473 3.259c-.33 4.452-.963 7.468-1.69 7.468s-1.36-3.016-1.69-7.468c.545.131 1.105.218 1.69.218s1.145-.087 1.69-.218m-5.463-.868c-3.384 2.917-5.966 4.604-6.48 4.089-.515-.514 1.172-3.096 4.089-6.48a7.248 7.248 0 0 0 2.39 2.391m3.774-.364a5.8 5.8 0 1 1 0-11.6 5.8 5.8 0 0 1 0 11.6m18 15.2c0-.727 3.016-1.36 7.468-1.69a7.245 7.245 0 0 0 -.218 1.69c0 .585.088 1.146.218 1.69-4.452-.33-7.468-.962-7.468-1.69m8.336-3.773c-2.917-3.383-4.604-5.965-4.09-6.48.515-.515 3.097 1.172 6.48 4.089a7.248 7.248 0 0 0 -2.39 2.391m4.474-3.258c.33-4.453.963-7.469 1.69-7.469s1.36 3.016 1.69 7.469c-.545-.131-1.105-.219-1.69-.219s-1.145.088-1.69.219m5.463.867c3.384-2.917 5.965-4.604 6.48-4.089.514.515-1.172 3.097-4.09 6.48a7.248 7.248 0 0 0 -2.39-2.391m3.259 4.474c4.452.33 7.468.963 7.468 1.69 0 .728-3.016 1.36-7.468 1.69.13-.544.218-1.105.218-1.69 0-.584-.088-1.146-.218-1.69m-.868 5.463c2.917 3.384 4.603 5.966 4.089 6.48-.515.515-3.096-1.172-6.48-4.089a7.248 7.248 0 0 0 2.39-2.391m-4.473 3.259c-.33 4.452-.963 7.468-1.69 7.468s-1.36-3.016-1.69-7.468c.545.131 1.105.218 1.69.218s1.145-.087 1.69-.218m-5.463-.868c-3.384 2.917-5.966 4.604-6.48 4.089-.515-.514 1.172-3.096 4.089-6.48a7.248 7.248 0 0 0 2.39 2.391m3.774-.364a5.8 5.8 0 1 1 0-11.6 5.8 5.8 0 0 1 0 11.6"/><path d="m277.5 222.5c0-.727 3.017-1.36 7.469-1.69a7.245 7.245 0 0 0 -.218 1.69c0 .585.088 1.146.218 1.69-4.452-.33-7.468-.962-7.468-1.69m8.336-3.773c-2.917-3.383-4.604-5.965-4.09-6.48.515-.515 3.097 1.172 6.48 4.089a7.248 7.248 0 0 0 -2.39 2.391m4.474-3.258c.33-4.453.963-7.469 1.69-7.469s1.36 3.016 1.69 7.469c-.545-.131-1.105-.219-1.69-.219s-1.145.088-1.69.219m5.463.867c3.384-2.917 5.965-4.604 6.48-4.089.514.515-1.172 3.097-4.09 6.48a7.248 7.248 0 0 0 -2.39-2.391m3.259 4.474c4.452.33 7.468.963 7.468 1.69 0 .728-3.016 1.36-7.468 1.69.13-.544.218-1.105.218-1.69 0-.584-.088-1.146-.218-1.69m-.868 5.463c2.917 3.384 4.603 5.966 4.089 6.48-.515.515-3.096-1.172-6.48-4.089a7.248 7.248 0 0 0 2.39-2.391m-4.473 3.259c-.33 4.452-.963 7.468-1.69 7.468s-1.36-3.016-1.69-7.468c.545.131 1.105.218 1.69.218s1.145-.087 1.69-.218m-5.463-.868c-3.384 2.917-5.966 4.604-6.48 4.089-.515-.514 1.172-3.096 4.089-6.48a7.248 7.248 0 0 0 2.39 2.391m3.774-.364a5.8 5.8 0 1 1 0-11.6 5.8 5.8 0 0 1 0 11.6m11.85 26.7c0-.727 3.016-1.36 7.468-1.69a7.245 7.245 0 0 0 -.218 1.69c0 .585.088 1.146.218 1.69-4.452-.33-7.468-.962-7.468-1.69m8.336-3.773c-2.917-3.383-4.604-5.965-4.09-6.48.515-.515 3.097 1.172 6.48 4.089a7.248 7.248 0 0 0 -2.39 2.391m4.474-3.258c.33-4.453.963-7.469 1.69-7.469s1.36 3.016 1.69 7.469c-.545-.131-1.105-.219-1.69-.219s-1.145.088-1.69.219m5.463.867c3.384-2.917 5.965-4.604 6.48-4.089.514.515-1.172 3.097-4.09 6.48a7.248 7.248 0 0 0 -2.39-2.391m3.259 4.474c4.452.33 7.468.963 7.468 1.69 0 .728-3.016 1.36-7.468 1.69.13-.544.218-1.105.218-1.69 0-.584-.088-1.146-.218-1.69m-.868 5.463c2.917 3.384 4.603 5.966 4.089 6.48-.515.515-3.096-1.172-6.48-4.089a7.248 7.248 0 0 0 2.39-2.391m-4.473 3.259c-.33 4.452-.963 7.468-1.69 7.468s-1.36-3.016-1.69-7.468c.545.131 1.105.218 1.69.218s1.145-.087 1.69-.218m-5.463-.868c-3.384 2.917-5.966 4.604-6.48 4.089-.515-.514 1.172-3.096 4.089-6.48a7.248 7.248 0 0 0 2.39 2.391m3.774-.364a5.8 5.8 0 1 1 0-11.6 5.8 5.8 0 0 1 0 11.6m-6.351 31.426c0-.727 3.016-1.36 7.468-1.69a7.245 7.245 0 0 0 -.218 1.69c0 .585.088 1.146.218 1.69-4.452-.33-7.468-.962-7.468-1.69m8.336-3.773c-2.917-3.383-4.604-5.965-4.09-6.48.515-.515 3.097 1.172 6.48 4.089a7.248 7.248 0 0 0 -2.39 2.39m4.474-3.257c.33-4.453.963-7.47 1.69-7.47s1.36 3.017 1.69 7.47c-.545-.131-1.105-.22-1.69-.22s-1.145.089-1.69.22m5.463.867c3.384-2.917 5.965-4.604 6.48-4.09.514.516-1.172 3.098-4.09 6.48a7.248 7.248 0 0 0 -2.39-2.39m3.259 4.474c4.452.33 7.468.963 7.468 1.69 0 .728-3.016 1.36-7.468 1.69.13-.544.218-1.105.218-1.69 0-.584-.088-1.146-.218-1.69m-.868 5.463c2.917 3.384 4.603 5.966 4.089 6.48-.515.515-3.096-1.172-6.48-4.09a7.248 7.248 0 0 0 2.39-2.39m-4.473 3.259c-.33 4.452-.963 7.468-1.69 7.468s-1.36-3.016-1.69-7.468c.545.13 1.105.218 1.69.218s1.145-.087 1.69-.218m-5.463-.868c-3.384 2.917-5.966 4.604-6.48 4.089-.515-.514 1.172-3.096 4.089-6.48a7.248 7.248 0 0 0 2.39 2.39m3.774-.363a5.8 5.8 0 1 1 0-11.6 5.8 5.8 0 0 1 0 11.6m-8.15 23.2c0-.727 3.016-1.36 7.468-1.69a7.245 7.245 0 0 0 -.218 1.69c0 .585.088 1.146.218 1.69-4.452-.33-7.468-.962-7.468-1.69m8.336-3.773c-2.917-3.383-4.604-5.965-4.09-6.48.515-.515 3.097 1.172 6.48 4.089a7.248 7.248 0 0 0 -2.39 2.39m4.474-3.257c.33-4.453.963-7.47 1.69-7.47s1.36 3.017 1.69 7.47c-.545-.131-1.105-.22-1.69-.22s-1.145.089-1.69.22m5.463.867c3.384-2.917 5.965-4.604 6.48-4.09.514.516-1.172 3.098-4.09 6.48a7.248 7.248 0 0 0 -2.39-2.39m3.259 4.474c4.452.33 7.468.963 7.468 1.69 0 .728-3.016 1.36-7.468 1.69.13-.544.218-1.105.218-1.69 0-.584-.088-1.146-.218-1.69m-.868 5.463c2.917 3.384 4.603 5.966 4.089 6.48-.515.515-3.096-1.172-6.48-4.09a7.248 7.248 0 0 0 2.39-2.39m-4.473 3.259c-.33 4.452-.963 7.468-1.69 7.468s-1.36-3.016-1.69-7.468c.545.13 1.105.218 1.69.218s1.145-.087 1.69-.218m-5.463-.868c-3.384 2.917-5.966 4.604-6.48 4.089-.515-.514 1.172-3.096 4.089-6.48a7.248 7.248 0 0 0 2.39 2.39m3.774-.363a5.8 5.8 0 1 1 0-11.6 5.8 5.8 0 0 1 0 11.6"/></g><path d="m342.616 392.337 6.06-6.06-6.06-6.06 7.278-7.277-7.278-7.278 5.957-5.957-5.957-5.958 7.277-7.277-7.277-7.278 9.192-9.192 9.193 9.192-7.278 7.278 7.278 7.277-5.958 5.958 5.958 5.957-7.278 7.278 7.278 7.277-6.06 6.06 6.06 6.06-7.278 7.278 7.278 7.277-5.958 5.958 5.958 5.957-7.278 7.278 7.278 7.277-9.193 9.193-9.192-9.193 7.278-7.277-7.278-7.278 5.957-5.957-5.957-5.958 7.278-7.277zm-36.77 30.847 6.06-6.06-6.06-6.06 7.278-7.277-7.278-7.278 5.957-5.957-5.957-5.958 7.277-7.277-7.277-7.278 9.192-9.192 9.193 9.192-7.278 7.278 7.278 7.277-5.958 5.958 5.958 5.957-7.278 7.278 7.278 7.277-6.06 6.06 6.06 6.06-7.278 7.278 7.278 7.277-5.958 5.958 5.958 5.957-7.278 7.278 7.278 7.277-9.193 9.193-9.192-9.193 7.278-7.277-7.278-7.278 5.957-5.957-5.957-5.958 7.278-7.277z" fill="#f1c40f"/><path d="m573 559h12v-97h-12z" fill="#ecf0f1"/><path d="m570.496 447.496-7.5 7.5 15.504 15.504 6.5-8.5z" fill="#ecf0f1"/><path d="m529.684 744.059s-21.886 1.953-21.886 11.717v5.858h68.346v-17.575z" fill="#2d3e50"/><path d="m577.187 744.059 3.449-118.175s-3.45-12.445 3.065-12.445v-25.621h-45.6v156.056z" fill="#3598db"/><path d="m585 559v109h-47.281l-1.044-109z" fill="#3e8cbf"/><path d="m565.795 668h19.205v-98.025h-19.205z" fill="#297fb8"/><path d="m576.79 586.115-8.07-8.07 8.07-8.069 8.07 8.07zm0 32.28-8.07-8.07 8.07-8.07 8.07 8.07zm0 32.279-8.07-8.07 8.07-8.07 8.07 8.07zm0-48.42-8.07-8.07 8.07-8.068 8.07 8.069zm0 32.28-8.07-8.07 8.07-8.069 8.07 8.07zm0 32.28-8.07-8.07 8.07-8.07 8.07 8.07z" fill="#3e8cbf"/><path d="m540.255 616.618h22.375v-3.062h-22.375zm0-6.125h22.375v-3.063h-22.375zm0-6.125h22.375v-3.063h-22.375zm0-6.125h22.375v-3.063h-22.375zm0-5.413h22.375v-3.062h-22.375zm0-6.125h22.375v-3.063h-22.375zm0-6.125h22.375v-3.063h-22.375zm0-6.125h22.375v-3.063h-22.375z" fill="#16a086"/><path d="m540.916 664.417h22.375v-3.063h-22.375zm0-6.125h22.375v-3.063h-22.375zm0-6.125h22.375v-3.063h-22.375zm0-6.125h22.375v-3.063h-22.375zm0-5.413h22.375v-3.063h-22.375zm0-6.125h22.375v-3.062h-22.375zm0-6.125h22.375v-3.063h-22.375zm0-6.125h22.375v-3.063h-22.375z" fill="#297fb8"/><path d="m528.953 480.019s-4.348 56.522-6.522 67.391c-2.174 10.87-6.52 56.522 0 63.043 6.522 6.522 26.087 2.174 28.261-15.217s6.522-78.261 6.522-78.261v-36.956z" fill="#f9db9d"/><path d="m526.004 495.384-9.869 92.435 24.75 5.065 6.75-97.5z" fill="#3598db"/><path d="m536.675 480.019-3.675 110.98 5.1 1.885z" fill="#297fb8"/><path d="m574.684 458.634v174.106s-1.321 6-4.485 6-33.611-.157-33.611-.157v-142.965h-10.583s1.015-42.678 23.407-42.678 25.272 5.694 25.272 5.694" fill="#3598db"/><path d="m570 448-14.847 6.68 11.477 13.602 8.054-9.546z" fill="#3598db"/><path d="m568.022 529.422h2v-5.333h-2zm0-10.666h2v-5.333h-2zm0 21.333h2v-5.333h-2zm0-64h2v-5.333h-2zm0 21.333h2v-5.333h-2zm0-10.666h2v-5.333h-2zm0 21.333h2v-5.333h-2zm0 42.667h2v-5.333h-2zm0 21.333h2v-5.333h-2zm0-10.667h2v-5.333h-2zm0 21.334h2v-5.333h-2zm0 10.666h2v-5.333h-2zm0 21.334h2v-5.333h-2zm0-10.667h2v-5.333h-2zm-9.022-149.942 3.06 4.369 1.637-1.147-3.059-4.369zm6.118 8.738 3.06 4.37 1.637-1.148-3.059-4.369zm-40.552 122.225-5.217-1.11-.416 1.958 5.217 1.108zm10.434 2.217-5.217-1.11-.416 1.957 5.217 1.109zm23.765 46.473h5.333v-2h-5.333zm-21.333 0h5.333v-2h-5.333zm10.666 0h5.333v-2h-5.333zm19.924 0h2v-5.333h-2zm0-10.667h2v-5.333h-2z" fill="#f1c40f"/><path d="m585 559h12v-97h-12z" fill="#ecf0f1"/><path d="m599.504 447.496 7.5 7.5-15.504 15.504-6.5-8.5z" fill="#ecf0f1"/><path d="m640.316 744.059s21.886 1.953 21.886 11.717v5.858h-68.346v-17.575z" fill="#2d3e50"/><path d="m592.813 744.059-3.449-118.175s3.45-12.445-3.065-12.445v-25.621h45.6v156.056z" fill="#3598db"/><path d="m585 559v109h47.281l1.044-109z" fill="#3e8cbf"/><path d="m585 668h19.205v-98.025h-19.205z" fill="#297fb8"/><path d="m593.21 586.115 8.07-8.07-8.07-8.069-8.07 8.07zm0 32.28 8.07-8.07-8.07-8.07-8.07 8.07zm0 32.279 8.07-8.07-8.07-8.07-8.07 8.07zm0-48.42 8.07-8.07-8.07-8.068-8.07 8.069zm0 32.28 8.07-8.07-8.07-8.069-8.07 8.07zm0 32.28 8.07-8.07-8.07-8.07-8.07 8.07z" fill="#3e8cbf"/><path d="m607.37 616.618h22.375v-3.062h-22.375zm0-6.125h22.375v-3.063h-22.375zm0-6.125h22.375v-3.063h-22.375zm0-6.125h22.375v-3.063h-22.375zm0-5.413h22.375v-3.062h-22.375zm0-6.125h22.375v-3.063h-22.375zm0-6.125h22.375v-3.063h-22.375zm0-6.125h22.375v-3.063h-22.375zm-.661 89.962h22.375v-3.063h-22.375zm0-6.125h22.375v-3.063h-22.375zm0-6.125h22.375v-3.063h-22.375zm0-6.125h22.375v-3.063h-22.375zm0-5.413h22.375v-3.063h-22.375zm0-6.125h22.375v-3.062h-22.375zm0-6.125h22.375v-3.063h-22.375zm0-6.125h22.375v-3.063h-22.375z" fill="#297fb8"/><path d="m641.047 480.019s4.348 56.522 6.522 67.391c2.174 10.87 6.52 56.522 0 63.043-6.522 6.522-26.087 2.174-28.261-15.217s-6.522-78.261-6.522-78.261v-36.956z" fill="#f9db9d"/><path d="m643.996 495.384 9.869 92.435-24.75 5.065-6.75-97.5z" fill="#3598db"/><path d="m633.325 480.019 3.675 110.98-5.1 1.885z" fill="#297fb8"/><path d="m595.316 458.634v174.106s1.321 6 4.485 6 33.611-.157 33.611-.157v-142.965h10.583s-1.015-42.678-23.407-42.678-25.272 5.694-25.272 5.694" fill="#3598db"/><path d="m600 448 14.847 6.68-11.477 13.602-8.054-9.546z" fill="#3598db"/><path d="m599.978 529.422h2v-5.333h-2zm0-10.666h2v-5.333h-2zm0 21.333h2v-5.333h-2zm0-64h2v-5.333h-2zm0 21.333h2v-5.333h-2zm0-10.666h2v-5.333h-2zm0 21.333h2v-5.333h-2zm0 42.667h2v-5.333h-2zm0 21.333h2v-5.333h-2zm0-10.667h2v-5.333h-2zm0 21.334h2v-5.333h-2zm0 10.666h2v-5.333h-2zm0 21.334h2v-5.333h-2zm0-10.667h2v-5.333h-2zm11.022-149.942-3.06 4.369-1.637-1.147 3.059-4.369zm-6.118 8.738-3.06 4.37-1.637-1.148 3.059-4.369zm40.552 122.224 5.217-1.11.416 1.958-5.217 1.108zm-10.434 2.218 5.217-1.11.416 1.957-5.217 1.109zm-29.098 46.473h5.333v-2h-5.333zm21.333 0h5.333v-2h-5.333zm-10.666 0h5.333v-2h-5.333zm-16.591 0h2v-5.333h-2zm0-10.667h2v-5.333h-2z" fill="#f1c40f"/><path d="m508.895 225.047-21.26 97.183h193.5l-21.26-97.183z" fill="#3598db"/><path d="m645.052 309h9.333v-3.5h-9.333zm18.667 0h9.333v-3.5h-9.333zm-37.333 0h9.333v-3.5h-9.333zm-18.667 0h9.333v-3.5h-9.333zm-37.333 0h9.333v-3.5h-9.333zm18.666 0h9.333v-3.5h-9.333zm-37.333 0h9.333v-3.5h-9.333zm-18.667 0h9.333v-3.5h-9.333zm-37.333 0h9.333v-3.5h-9.333zm18.667 0h9.333v-3.5h-9.333z" fill="#f1c40f"/><path d="m512.146 296.28a3.396 3.396 0 1 0 0-6.792 3.396 3.396 0 0 0 0 6.792m53.208 0a3.396 3.396 0 1 0 0-6.792 3.396 3.396 0 0 0 0 6.792m-27.504-38.49a3.396 3.396 0 1 0 0-6.793 3.396 3.396 0 0 0 0 6.793m66.45 38.49a3.396 3.396 0 1 0 0-6.792 3.396 3.396 0 0 0 0 6.792m53.207 0a3.396 3.396 0 1 0 0-6.792 3.396 3.396 0 0 0 0 6.792m-27.503-38.49a3.396 3.396 0 1 0 0-6.793 3.396 3.396 0 0 0 0 6.793" fill="#f1c40f"/></g></svg>