<svg height="800" width="800" xmlns="http://www.w3.org/2000/svg"><g fill="none" fill-rule="evenodd"><path d="m639.017 744.059s21.886 1.953 21.886 11.717v5.858h-68.346v-17.575z" fill="#8d44ad"/><path d="m570.84 461.88h28.32v-23.797h-28.32z" fill="#f9db9d"/><path d="m585 465.422c7.82 0 14.16-1.586 14.16-3.542s-6.34-3.542-14.16-3.542-14.16 1.586-14.16 3.542 6.34 3.542 14.16 3.542m90.217-86.939c7.204 0 13.043-5.84 13.043-13.043 0-7.204-5.839-13.044-13.043-13.044s-13.043 5.84-13.043 13.044c0 7.203 5.839 13.043 13.043 13.043m-180.434 0c7.204 0 13.043-5.84 13.043-13.043 0-7.204-5.839-13.044-13.043-13.044s-13.043 5.84-13.043 13.044c0 7.203 5.839 13.043 13.043 13.043" fill="#f9db9d"/><path d="m585 405.678c52.827 0 108.457-29.678 92.108-97.304-8.906-36.84-39.281-76.24-92.108-76.24s-91.07 60.74-93.526 76.24c-11.348 71.626 40.699 97.304 93.526 97.304" fill="#2d3e50"/><path d="m585 446.418c47.424 0 85.869-41.851 85.869-93.478 0-51.626-38.445-100-85.869-100s-85.869 48.374-85.869 100c0 51.627 38.445 93.478 85.869 93.478" fill="#f9db9d"/><path d="m549.477 362.099c4.346 0 7.869-3.525 7.869-7.873s-3.523-7.873-7.87-7.873-7.868 3.525-7.868 7.873 3.523 7.873 7.869 7.873m71.942 0c4.346 0 7.869-3.525 7.869-7.873s-3.523-7.873-7.87-7.873-7.868 3.525-7.868 7.873 3.523 7.873 7.869 7.873m-59.74 36.482c-.248.737-.4 1.492-.4 2.267 0 7.095 10.821 12.846 24.168 12.846 13.348 0 24.17-5.75 24.17-12.846 0-.775-.153-1.53-.4-2.267-2.018 6.012-11.88 10.58-23.77 10.58-11.889 0-21.75-4.568-23.769-10.58" fill="#2d3e50"/><path d="m530.982 744.059s-21.886 1.953-21.886 11.717v5.858h68.346v-17.575z" fill="#8d44ad"/><path d="m530.252 480.019s-4.348 56.522-6.522 67.391c-2.174 10.87-6.52 56.522 0 63.043 6.522 6.522 26.087 2.174 28.261-15.217s6.522-78.261 6.522-78.261v-36.956z" fill="#f9db9d"/><path d="m527.303 495.384-9.869 92.435 24.75 5.065 6.75-97.5z" fill="#86c1e9"/><path d="m540.684 482.634-4.384 109.366 3.1.884z" fill="#5dade2"/><path d="m578.486 757.849 3.449-131.965s-3.45-12.444 3.065-12.444v-25.621h-45.6v156.055z" fill="#f86792"/><path d="m585 458.634v124.5s-1.566 6-5.316 6-39.837-.158-39.837-.158v-93.358h-12.544s1.204-42.678 27.744-42.678 29.953 5.694 29.953 5.694" fill="#86c1e9"/><path d="m584.625 583.884h.375v-125.25h-.375z" fill="#5dade2"/><path d="m539.747 559-7.1 134h52.353v-134z" fill="#3598db"/><path d="m539.4 572.575h45.6v-17.575h-45.6z" fill="#8d44ad"/><path d="m563.299 456 12 15 9.326-12z" fill="#5dade2"/><path d="m571.398 445.134-9.546 9.546 13.602 13.602 9.546-9.546z" fill="#86c1e9"/><path d="m579.15 502a2.85 2.85 0 1 0 0-5.702 2.85 2.85 0 0 0 0 5.702m0 19.258a2.85 2.85 0 1 0 0-5.701 2.85 2.85 0 0 0 0 5.702m0 19.258a2.85 2.85 0 1 0 0-5.701 2.85 2.85 0 0 0 0 5.701" fill="#f5b041"/><path d="m559.299 452s11 16.282 25.701 25c0 0-12.701 53-24.701 48s-36-28-36-28 1-48 35-45" fill="#f86792"/><path d="m524.912 486.657 38.211 24.815 1.09-1.678-38.966-25.304a62.809 62.809 0 0 0 -.335 2.167" fill="#ecf0f1"/><path d="m564.213 510.09-1.677-1.09-7.825 12.048 1.678 1.09z" fill="#ecf0f1"/><path d="m585 668v-4h-50.816l-.212 4zm-21.099-4h4v-91.425h-4zm19.099 0h2v-91.425h-2z" fill="#f4d03f"/><path d="m639.748 480.019s4.348 56.522 6.522 67.391c2.174 10.87 6.52 56.522 0 63.043-6.522 6.522-26.087 2.174-28.261-15.217s-6.522-78.261-6.522-78.261v-36.956z" fill="#f9db9d"/><path d="m642.697 495.384 9.869 92.435-24.75 5.065-6.75-97.5z" fill="#86c1e9"/><path d="m629.316 482.634 4.384 109.366-3.1.884z" fill="#5dade2"/><path d="m591.514 757.849-3.449-131.965s3.45-12.444-3.065-12.444v-25.621h45.6v156.055z" fill="#f86792"/><path d="m585 458.634v124.5s1.566 6 5.316 6 39.837-.158 39.837-.158v-93.358h12.544s-1.204-42.678-27.744-42.678-29.953 5.694-29.953 5.694" fill="#86c1e9"/><path d="m585 583.884h.375v-125.25h-.375z" fill="#5dade2"/><path d="m630.253 559 7.1 134h-52.353v-134z" fill="#3598db"/><path d="m585.001 572.575h45.6v-17.575h-45.6z" fill="#8d44ad"/><path d="m606.701 456-12 15-9.326-12z" fill="#5dade2"/><path d="m598.602 445.134 9.546 9.546-13.602 13.602-9.546-9.546z" fill="#86c1e9"/><path d="m585 668v-4h50.816l.212 4zm17.099-4h4v-91.425h-4zm-18.398 0h2v-91.425h-2z" fill="#f4d03f"/><path d="m610.701 452s-11 16.282-25.701 25c0 0 12.701 53 24.701 48s36-28 36-28-1-48-35-45" fill="#f86792"/><path d="m589.511 474.002 21.84 50.229a39.594 39.594 0 0 0 2.19-1.184l-21.995-50.583a69.037 69.037 0 0 1 -2.035 1.538m6.476-5.294 22.303 51.292a124.085 124.085 0 0 0 4.146-3.004l-22.604-51.986a94.49 94.49 0 0 1 -3.844 3.698m8.273-8.51 23.041 52.99c.67-.54 1.336-1.084 1.996-1.628l-23.25-53.47c-.552.669-1.15 1.374-1.787 2.109m6.225-7.89 23.892 54.947c.67-.581 1.327-1.153 1.96-1.71l-23.327-53.646c-.759.015-1.517.03-2.31.1l-.216.31" fill="#ecf0f1"/><path d="m527.609 159.087-40.149 158.065h97.54v-158.065z" fill="#d65492"/><path d="m575 269v-36.866h-65.945l-9.364 36.866z" fill="#f1c40f"/><path d="m572.24 257.567v-14h-66.09l-3.555 14z" fill="#8d44ad"/><path d="m555 152-52.5 165.152h82.5v-165.152z" fill="#f86792"/><path d="m487.461 310.065h97.539v-7.79h-97.539z" fill="#f1c40f"/><path d="m642.391 152 40.148 165.152h-97.539v-165.152z" fill="#f86792"/><path d="m585 310.065h97.539v-7.79h-97.539z" fill="#f1c40f"/><path d="m661.87 310 15.238-15.188-2.57-10.576-25.85 25.764zm-25.42 0 35.7-35.585-2.57-10.576-46.314 46.161zm-25.423 0 56.164-55.981-2.57-10.576-66.777 66.557zm-25.424 0 76.624-76.403-2.57-10.578-74.657 74.441-12.576 12.54z" fill="#f1c40f"/><g fill="#f4d03f"><path d="m558.888 461.5a7.5 7.5 0 1 0 -15 0 7.5 7.5 0 0 0 15 0m-2.5 0a5 5 0 1 1 -10.001-.001 5 5 0 0 1 10 .001m12.412 14.282a7.5 7.5 0 1 0 -15 0 7.5 7.5 0 0 0 15 0m-2.5 0a5 5 0 1 1 -10.001-.001 5 5 0 0 1 10.001 0m17.5 10.053a7.5 7.5 0 1 0 -15 0 7.5 7.5 0 0 0 15 0m-2.5 0a5 5 0 1 1 -10.001 0 5 5 0 0 1 10.001 0"/><path d="m547.299 452.94s11 17.623 17 22.841c6 5.22 20.701 12.818 20.701 12.818v1.401s-15.184-6.484-22.701-14c-7-7-17-22-17-22zm63.813 8.56a7.5 7.5 0 1 1 15 0 7.5 7.5 0 0 1 -15 0m2.5 0a5 5 0 1 0 10.001-.001 5 5 0 0 0 -10 .001m-12.413 14.282a7.5 7.5 0 1 1 15 0 7.5 7.5 0 0 1 -15 0m2.5 0a5 5 0 1 0 10.001-.001 5 5 0 0 0 -10.001 0m-17.5 10.053a7.5 7.5 0 1 1 15 0 7.5 7.5 0 0 1 -15 0m2.5 0a5 5 0 1 0 10.001 0 5 5 0 0 0 -10.001 0"/><path d="m622.701 452.94s-11 17.623-17 22.841c-6 5.22-20.701 12.818-20.701 12.818v1.401s15.184-6.484 22.701-14c7-7 17-22 17-22z"/></g><path d="m187.071 749.1s-24.986 11.062-11.118 11.062h24.927c3.307 0 2.153-12.123 2.153-12.123z" fill="#2d3e50"/><path d="m186.993 729.625 1.018 17.534-.018.003-3 3c-1 1 0 2 6 1 5.055-.843 10.094-2.477 11.562-2.973l.438-.027s.039-6.708.235-18.537z" fill="#f9db9d"/><path d="m176.299 734h38.694v-69h-38.694z" fill="#ecf0f1"/><path d="m215.743 666.604-8.25 8.25 8.25 8.25 8.25-8.25z" fill="#f39c11"/><path d="m215.743 669.655-5.199 5.199 5.199 5.2 5.199-5.2z" fill="#f1c40f"/><path d="m215.743 672.054-2.8 2.8 2.8 2.8 2.8-2.8z" fill="#c1392b"/><path d="m215.687 690.928-8.25 8.25 8.25 8.25 8.25-8.25z" fill="#f39c11"/><path d="m215.687 693.978-5.199 5.2 5.2 5.2 5.198-5.2z" fill="#f1c40f"/><path d="m215.688 696.378-2.8 2.8 2.8 2.799 2.8-2.8z" fill="#c1392b"/><path d="m176.452 683.104 8.25-8.25-8.25-8.25z" fill="#f39c11"/><path d="m176.452 680.054 5.199-5.2-5.2-5.2z" fill="#f1c40f"/><path d="m176.452 677.654 2.8-2.8-2.8-2.8z" fill="#c1392b"/><path d="m176.396 707.428 8.25-8.25-8.25-8.25z" fill="#f39c11"/><path d="m176.396 704.377 5.199-5.199-5.199-5.2z" fill="#f1c40f"/><path d="m176.396 701.977 2.8-2.8-2.8-2.799z" fill="#c1392b"/><path d="m176.146 731.751 8.25-8.25-8.25-8.25z" fill="#f39c11"/><path d="m176.146 728.7 5.199-5.198-5.199-5.2z" fill="#f1c40f"/><path d="m176.146 726.3 2.8-2.8-2.8-2.798z" fill="#c1392b"/><path d="m215.437 715.251-8.25 8.25 8.25 8.25 8.25-8.25z" fill="#f39c11"/><path d="m215.437 718.302-5.199 5.199 5.2 5.2 5.198-5.2z" fill="#f1c40f"/><path d="m215.438 720.701-2.8 2.8 2.8 2.8 2.8-2.8z" fill="#c1392b"/><path d="m195.945 703-8.25 8.25 8.25 8.25 8.25-8.25z" fill="#f39c11"/><path d="m195.945 706.05-5.2 5.2 5.2 5.2 5.199-5.2z" fill="#f1c40f"/><path d="m195.945 708.45-2.8 2.8 2.8 2.8 2.8-2.8z" fill="#c1392b"/><path d="m196.07 677.654-8.25 8.25 8.25 8.25 8.25-8.25z" fill="#f39c11"/><path d="m196.07 680.705-5.2 5.199 5.2 5.2 5.199-5.2z" fill="#f1c40f"/><path d="m196.07 683.104-2.8 2.8 2.8 2.799 2.8-2.799z" fill="#c1392b"/><path d="m196.07 653.155-8.25 8.25 8.25 8.25 8.25-8.25z" fill="#f39c11"/><path d="m196.07 656.206-5.2 5.199 5.2 5.2 5.199-5.2z" fill="#f1c40f"/><path d="m196.07 658.605-2.8 2.8 2.8 2.8 2.8-2.8z" fill="#c1392b"/><path d="m204.32 734-8.25-8.25-8.25 8.25" fill="#f39c11"/><path d="m201.269 734-5.2-5.2-5.2 5.2" fill="#f1c40f"/><path d="m198.87 734-2.8-2.8-2.8 2.8" fill="#c1392b"/><path d="m213.993 522.856-18.367-67.556-9.386.168s-13.462-2.694-13.462 13.47v18.857h10.77s3.445 9.367 2.692 21.551c-.093 1.509-.917 6.629-2.055 13.51z" fill="#ecf0f1"/><path d="m172.778 487.795s0 29.633-2.692 40.408c-2.693 10.776-10.77 78.122-5.385 83.51s10.77 0 13.462 0 13.462-123.918 13.462-123.918z" fill="#f9db9d"/><path d="m172.778 487.795s-7.785 76.368-9.785 86.368l20 5.224 11.5-73.224v-21z" fill="#ecf0f1"/><path d="m181.993 483.162s2 15 2 20-9.659 59-6.736 73l10.736-4 4.688-89h-9.688" fill="#bec3c7"/><path d="m214.993 522.856c-.162-12.582 0-68.541 0-68.541h-33c-4 0-5.287 4.847-5.287 4.847s3.474 16 6.287 28.633c2.813 12.632 4.401 19.466 1.701 29.548-.395 1.474-.805 3.357-1.221 5.513z" fill="#ecf0f1"/><path d="m163.296 565-.675 2.923 22.107 5.104.675-2.923z" fill="#f1c40f"/><g fill="#f86792"><path d="m214.993 665v-142.144l-31.822 2.694c-2.992 17.634-6.872 44.147-6.872 53.836l-4.538 85.614z"/><path d="m181.993 479s1.402 19 2.701 23-1.701 25-1.701 25l32 4v-52z"/></g><path d="m198.493 535-10.799 133h27.299v-133z" fill="#d65492"/><path d="m182.993 527.249-1 7.838h33v-7.838z" fill="#f1c40f"/><path d="m214.993 524.087c-6.351 0-11.5 2.91-11.5 6.5s5.149 6.5 11.5 6.5z" fill="#f1c40f"/><path d="m214.993 525.5c-4.971 0-9 2.277-9 5.087 0 2.809 4.029 5.087 9 5.087z" fill="#f1c40f"/><path d="m215.993 522.856 18.367-67.556 9.386.168s13.462-2.694 13.462 13.47v18.857h-10.77s-3.445 9.367-2.692 21.551c.093 1.509.917 6.629 2.055 13.51z" fill="#ecf0f1"/><path d="m257.208 487.795s0 29.633 2.692 40.408c2.693 10.776 10.77 78.122 5.385 83.51s-10.77 0-13.462 0-13.462-123.918-13.462-123.918z" fill="#f9db9d"/><path d="m257.208 487.795s7.785 76.368 9.785 86.368l-20 5.224-11.5-73.224v-21z" fill="#ecf0f1"/><path d="m247.993 483.162s-2 15-2 20 9.659 59 6.736 73l-10.736-4-4.688-89h9.688" fill="#bec3c7"/><path d="m214.993 522.856c.162-12.582 0-68.541 0-68.541h33c4 0 5.287 4.847 5.287 4.847s-3.474 16-6.287 28.633c-2.813 12.632-4.401 19.466-1.701 29.548.395 1.474.805 3.357 1.221 5.513z" fill="#ecf0f1"/><path d="m266.69 565 .675 2.923-22.107 5.104-.675-2.923z" fill="#f1c40f"/><path d="m242.915 749.1s24.986 11.062 11.118 11.062h-24.927c-3.307 0-2.153-12.123-2.153-12.123z" fill="#2d3e50"/><path d="m242.993 729.625-1.018 17.534.018.003 3 3c1 1 0 2-6 1-5.055-.843-10.094-2.477-11.562-2.973l-.438-.027s-.039-6.708-.235-18.537z" fill="#f9db9d"/><path d="m214.993 734h38.694v-69h-38.694z" fill="#f86792"/><path d="m258.123 663.08.102-.068-.112-.11-4.426-83.516c0-9.689-3.88-36.202-6.872-53.837l-31.822-2.693v142.144l19.347 14z" fill="#ecf0f1"/><path d="m247.993 479s-1.402 19-2.701 23 1.701 25 1.701 25l-32 4v-52z" fill="#f86792"/><path d="m246.993 527.249 1 7.838h-33v-7.838z" fill="#f1c40f"/><g fill="#f1c40f"><path d="m214.993 524.087c6.351 0 11.5 2.91 11.5 6.5s-5.149 6.5-11.5 6.5z"/><path d="m214.993 525.5c4.971 0 9 2.277 9 5.087 0 2.809-4.029 5.087-9 5.087z"/></g><path d="m234.34 679-4.347-118 1.5 116z" fill="#bec3c7"/><path d="m253.927 583.901-22.434 15.017-16.5-11.94v14.647l17.25 12.482 22.487-15.052zm-38.934 54.655 17.097 12.372 24.547-15.899-1.412-26.633v11.354l-23.885 15.988-16.347-11.829zm35.402-90.138-19.564 13.68-16.5-11.94v14.646l17.25 12.482 20.774-14.033a611.773 611.773 0 0 0 -1.96-14.835" fill="#f86792"/><path d="m245.33 650.104-8.25 8.25 8.25 8.25 8.25-8.25z" fill="#f39c11"/><path d="m245.33 653.155-5.198 5.199 5.199 5.2 5.199-5.2z" fill="#f1c40f"/><path d="m245.33 655.554-2.8 2.8 2.8 2.8 2.8-2.8z" fill="#c1392b"/><path d="m244.294 609.164-8.25 8.25 8.25 8.25 8.25-8.25z" fill="#f39c11"/><path d="m244.294 612.215-5.199 5.2 5.2 5.2 5.198-5.2z" fill="#f1c40f"/><path d="m244.295 614.615-2.8 2.8 2.8 2.799 2.8-2.8z" fill="#c1392b"/><path d="m242.993 571.5-8.25 8.25 8.25 8.25 8.25-8.25z" fill="#f39c11"/><path d="m242.993 574.55-5.2 5.2 5.2 5.2 5.199-5.2z" fill="#f1c40f"/><path d="m242.993 576.95-2.8 2.8 2.8 2.8 2.8-2.8z" fill="#c1392b"/><path d="m239.708 536.378-8.25 8.25 8.25 8.25 8.25-8.25z" fill="#f39c11"/><path d="m239.708 539.429-5.199 5.199 5.199 5.2 5.199-5.2z" fill="#f1c40f"/><path d="m239.708 541.828-2.8 2.8 2.8 2.8 2.8-2.8z" fill="#c1392b"/><path d="m248.793 629-2.8 2.8 2.8 2.799 2.8-2.8zm-7.632 5.2-2.8 2.8 2.8 2.8 2.8-2.8zm-9.218 5.6-2.8 2.8 2.8 2.798 2.8-2.799zm-10.6-5.6-2.8 2.8 2.8 2.8 2.8-2.8zm26.9-42.817-2.8 2.8 2.8 2.8 2.8-2.8zm-7.631 5.2-2.8 2.8 2.8 2.8 2.8-2.8zm-9.218 5.6-2.8 2.8 2.8 2.799 2.8-2.8zm-10.6-5.6-2.8 2.8 2.8 2.8 2.8-2.8zm26.983-41.221-2.8 2.8 2.8 2.798 2.8-2.799zm-7.632 5.2-2.8 2.8 2.8 2.799 2.8-2.8zm-9.218 5.599-2.8 2.8 2.8 2.799 2.8-2.799zm-10.6-5.6-2.8 2.8 2.8 2.8 2.8-2.8z" fill="#ecf0f1"/><g fill="#f1c40f"><path d="m185.44 518.239-1.447 1.447 1.447 1.447 1.447-1.447z"/><path d="m188.015 518.239-1.447 1.447 1.447 1.447 1.447-1.447z"/><path d="m190.601 518.239-1.447 1.447 1.447 1.447 1.447-1.447z"/><path d="m193.17 518.239-1.446 1.447 1.447 1.447 1.447-1.447z"/><path d="m195.746 518.239-1.447 1.447 1.447 1.447 1.447-1.447z"/><path d="m198.332 518.239-1.447 1.447 1.447 1.447 1.447-1.447z"/><path d="m200.654 518.239-1.447 1.447 1.447 1.447 1.447-1.447z"/><path d="m203.23 518.239-1.448 1.447 1.447 1.447 1.447-1.447z"/><path d="m205.815 518.239-1.447 1.447 1.447 1.447 1.447-1.447z"/><path d="m208.385 518.239-1.447 1.447 1.447 1.447 1.447-1.447z"/><path d="m210.96 518.239-1.447 1.447 1.447 1.447 1.447-1.447z"/><path d="m213.546 518.239-1.447 1.447 1.447 1.447 1.447-1.447zm2.894 0-1.447 1.447 1.447 1.447 1.447-1.447z"/><path d="m219.015 518.239-1.447 1.447 1.447 1.447 1.447-1.447z"/><path d="m221.601 518.239-1.447 1.447 1.447 1.447 1.447-1.447z"/><path d="m224.17 518.239-1.446 1.447 1.447 1.447 1.447-1.447z"/><path d="m226.746 518.239-1.447 1.447 1.447 1.447 1.447-1.447z"/><path d="m229.332 518.239-1.447 1.447 1.447 1.447 1.447-1.447z"/><path d="m231.654 518.239-1.447 1.447 1.447 1.447 1.447-1.447z"/><path d="m234.23 518.239-1.448 1.447 1.447 1.447 1.447-1.447z"/><path d="m236.815 518.239-1.447 1.447 1.447 1.447 1.447-1.447z"/><path d="m239.385 518.239-1.447 1.447 1.447 1.447 1.447-1.447z"/><path d="m241.96 518.239-1.447 1.447 1.447 1.447 1.447-1.447z"/><path d="m244.546 518.239-1.447 1.447 1.447 1.447 1.447-1.447z"/></g><path d="m253.687 674.854s-5.694 59.146-32.8 59.146h32.8z" fill="#ecf0f1"/><path d="m204.23 463.202h21.539v-18.099h-21.539z" fill="#f9db9d"/><path d="m215 465.896c5.948 0 10.77-1.206 10.77-2.694s-4.822-2.694-10.77-2.694-10.77 1.206-10.77 2.694 4.822 2.694 10.77 2.694" fill="#f9db9d"/><path d="m215 412c53.572 0 97-17.488 97-77.387s-43.429-97.613-97-97.613c-53.572 0-97 37.714-97 97.613s43.428 77.387 97 77.387" fill="#2d3e50"/><path d="m215 451.838c44.61 0 80.773-43.846 80.773-104.922s-36.163-91.916-80.773-91.916-80.773 30.84-80.773 91.916 36.163 104.922 80.773 104.922" fill="#f9db9d"/><path d="m138.266 387.185c6.69 0 12.116-5.427 12.116-12.122s-5.425-12.123-12.116-12.123-12.116 5.428-12.116 12.123 5.425 12.122 12.116 12.122m153.468 0c6.691 0 12.116-5.427 12.116-12.122s-5.425-12.123-12.116-12.123-12.116 5.428-12.116 12.123 5.425 12.122 12.116 12.122" fill="#f9db9d"/><g fill="#2d3e50"><path d="m177.556 371.281a8.193 8.193 0 0 0 8.19-8.195c0-4.527-3.666-8.196-8.19-8.196s-8.191 3.67-8.191 8.196a8.193 8.193 0 0 0 8.19 8.195m74.89 0a8.193 8.193 0 0 0 8.191-8.195c0-4.527-3.667-8.196-8.19-8.196s-8.192 3.67-8.192 8.196a8.193 8.193 0 0 0 8.191 8.195m-62.188 37.977c-.257.767-.415 1.553-.415 2.36 0 7.385 11.264 13.372 25.158 13.372 13.895 0 25.158-5.987 25.158-13.372 0-.807-.157-1.593-.415-2.36-2.1 6.258-12.366 11.013-24.743 11.013s-22.643-4.755-24.743-11.013"/><path d="m214.993 250c-69.468 2.459-88.202 52.625-81.594 113.451 0 0 .531-41.623 43.907-65.582 0 0 9.68-6.231 37.687-7.05s37.687 7.05 37.687 7.05c43.376 23.959 43.907 65.582 43.907 65.582 6.608-60.826-12.126-110.992-81.594-113.451"/></g><path d="m137.678 384.408-8.322 8.322 8.322 8.323 8.322-8.323zm0 48.788-8.322 8.322 8.322 8.323 8.322-8.323z" fill="#f1c40f"/><path d="m137.678 401.052-8.322 8.322 8.322 8.323 8.322-8.323z" fill="#f1c40f"/><path d="m137.678 417.697-8.322 8.322 8.322 8.323 8.322-8.322zm-19.678-50.414-8.322 8.322 8.322 8.323 8.322-8.323zm0 48.789-8.322 8.322 8.322 8.323 8.322-8.323z" fill="#f1c40f"/><path d="m118 383.928-8.322 8.322 8.322 8.323 8.322-8.323z" fill="#f1c40f"/><path d="m118 400.573-8.322 8.322 8.322 8.323 8.322-8.323z" fill="#f1c40f"/><path d="m84 324.5c-.519 28.276 42.15 50.563 42.15 50.563s-11.15-99.063 88.843-94.063v-59s-128.993-6.5-130.993 102.5" fill="#d65492"/><path d="m144.96 217.109-15.605 22.286 22.286 15.605 15.605-22.286z" fill="#f39c11"/><path d="m148.055 236.054-15.605 22.286 22.286 15.605 15.605-22.286z" fill="#f1c40f"/><path d="m126.15 375.063s-38.15-29.563-32.15-50.563 24.073-7.5 32.15-23.5-10.15-33 28.85-46 34.842 8 60 8v19s-52.355 3-70 28-18.85 44.89-18.85 65.063" fill="#8d44ad"/><g fill="#f1c40f"><path d="m205 262-4.327 4.327 4.327 4.327 4.327-4.327zm0 25.368-4.327 4.327 4.327 4.327 4.327-4.327zm0-16.714-4.327 4.327 4.327 4.327 4.327-4.327z"/><path d="m205 279.309-4.327 4.327 4.327 4.327 4.327-4.327zm-14.976-22.374-4.327 4.327 4.327 4.327 4.327-4.327zm0 25.367-4.327 4.327 4.327 4.327 4.327-4.327zm0-16.713-4.327 4.327 4.327 4.327 4.327-4.327z"/><path d="m190.024 274.244-4.327 4.327 4.327 4.327 4.327-4.327zm-14.976-23.49-4.327 4.327 4.327 4.327 4.327-4.327zm0 25.367-4.327 4.327 4.327 4.327 4.327-4.327zm0-16.713-4.327 4.327 4.327 4.327 4.327-4.327z"/><path d="m175.048 268.063-4.327 4.327 4.327 4.327 4.327-4.327zm-16.54-15.063-4.328 4.327 4.327 4.327 4.327-4.327zm0 25.368-4.328 4.327 4.327 4.327 4.327-4.327zm0-16.714-4.328 4.327 4.327 4.327 4.327-4.327z"/><path d="m158.507 270.309-4.327 4.327 4.327 4.327 4.327-4.327zm-14.533-12.309-4.327 4.327 4.327 4.327 4.327-4.327zm0 25.368-4.327 4.327 4.327 4.327 4.327-4.327zm0-16.714-4.327 4.327 4.327 4.327 4.327-4.327z"/><path d="m143.974 275.309-4.327 4.327 4.327 4.327 4.327-4.327zm-13.497-1.363-4.327 4.327 4.327 4.327 4.327-4.327zm0 25.367-4.327 4.327 4.327 4.327 4.327-4.327zm0-16.713-4.327 4.327 4.327 4.327 4.327-4.327z"/><path d="m130.477 291.255-4.327 4.327 4.327 4.327 4.327-4.327zm-12.304 15.47-4.327 4.328 4.327 4.327 4.327-4.327zm0 25.368-4.327 4.327 4.327 4.327 4.327-4.327zm0-16.713-4.327 4.327 4.327 4.327 4.327-4.327z"/><path d="m118.173 324.034-4.327 4.327 4.327 4.327 4.327-4.327zm-12.305-13.034-4.326 4.327 4.326 4.327 4.328-4.327zm0 25.367-4.326 4.327 4.326 4.327 4.328-4.327zm0-16.713-4.326 4.327 4.326 4.327 4.328-4.327z"/><path d="m105.869 328.309-4.327 4.327 4.327 4.327 4.327-4.327zm186.454 56.099 8.322 8.322-8.322 8.323-8.322-8.323zm0 48.788 8.322 8.322-8.322 8.323-8.322-8.323z"/><path d="m292.323 401.052 8.322 8.322-8.322 8.323-8.322-8.323z"/><path d="m292.323 417.697 8.322 8.322-8.322 8.323-8.322-8.323zm19.678-50.414 8.322 8.322-8.322 8.323-8.322-8.323zm0 48.789 8.322 8.322-8.322 8.323-8.322-8.323z"/><path d="m312 383.928 8.323 8.322-8.322 8.323-8.322-8.323z"/><path d="m312 400.573 8.323 8.322-8.322 8.323-8.322-8.323z"/></g><path d="m346 324.5c.52 28.276-42.15 50.563-42.15 50.563s11.15-99.063-88.841-94.063v-59s128.991-6.5 130.991 102.5" fill="#d65492"/><path d="m285.04 217.109 15.606 22.286-22.286 15.605-15.605-22.286z" fill="#f39c11"/><path d="m281.946 236.054 15.605 22.286-22.286 15.605-15.605-22.286z" fill="#f1c40f"/><path d="m303.85 375.063s38.15-29.563 32.15-50.563-24.072-7.5-32.15-23.5 10.15-33-28.85-46-34.841 8-60 8v19s52.356 3 70 28 18.85 44.89 18.85 65.063" fill="#8d44ad"/><path d="m225 262 4.328 4.327-4.327 4.327-4.327-4.327zm0 25.368 4.328 4.327-4.327 4.327-4.327-4.327zm0-16.714 4.328 4.327-4.327 4.327-4.327-4.327z" fill="#f1c40f"/><path d="m225 279.309 4.328 4.327-4.327 4.327-4.327-4.327zm14.977-22.374 4.327 4.327-4.327 4.327-4.327-4.327zm0 25.367 4.327 4.327-4.327 4.327-4.327-4.327zm0-16.713 4.327 4.327-4.327 4.327-4.327-4.327z" fill="#f1c40f"/><path d="m239.977 274.244 4.327 4.327-4.327 4.327-4.327-4.327zm14.976-23.49 4.327 4.327-4.327 4.327-4.327-4.327zm0 25.367 4.327 4.327-4.327 4.327-4.327-4.327zm0-16.713 4.327 4.327-4.327 4.327-4.327-4.327z" fill="#f1c40f"/><path d="m254.953 268.063 4.327 4.327-4.327 4.327-4.327-4.327zm16.54-15.063 4.327 4.327-4.327 4.327-4.327-4.327zm0 25.368 4.328 4.327-4.327 4.327-4.327-4.327zm0-16.714 4.327 4.327-4.327 4.327-4.327-4.327z" fill="#f1c40f"/><path d="m271.493 270.309 4.327 4.327-4.327 4.327-4.327-4.327zm14.534-12.309 4.327 4.327-4.327 4.327-4.327-4.327zm0 25.368 4.327 4.327-4.327 4.327-4.327-4.327zm0-16.714 4.327 4.327-4.327 4.327-4.327-4.327z" fill="#f1c40f"/><path d="m286.027 275.309 4.327 4.327-4.327 4.327-4.327-4.327zm13.497-1.363 4.327 4.327-4.327 4.327-4.327-4.327zm0 25.367 4.327 4.327-4.327 4.327-4.327-4.327zm0-16.713 4.327 4.327-4.327 4.327-4.327-4.327z" fill="#f1c40f"/><path d="m299.524 291.255 4.327 4.327-4.327 4.327-4.327-4.327zm12.304 15.47 4.327 4.328-4.327 4.327-4.327-4.327zm0 25.368 4.327 4.327-4.327 4.327-4.327-4.327zm0-16.713 4.327 4.327-4.327 4.327-4.327-4.327z" fill="#f1c40f"/><path d="m311.828 324.034 4.327 4.327-4.327 4.327-4.327-4.327zm12.304-13.034 4.327 4.327-4.327 4.327-4.327-4.327zm0 25.367 4.327 4.327-4.327 4.327-4.327-4.327zm0-16.713 4.327 4.327-4.327 4.327-4.327-4.327z" fill="#f1c40f"/><path d="m324.132 328.309 4.327 4.327-4.327 4.327-4.327-4.327z" fill="#f1c40f"/><g fill="#f1c40f"><path d="m197.774 454.943a17.48 17.48 0 0 0 -.197 2.48c0 9.623 7.8 17.424 17.424 17.424s17.424-7.8 17.424-17.424c0-.844-.081-1.668-.197-2.48-1.207 8.445-8.45 14.943-17.227 14.943s-16.02-6.498-17.227-14.943"/><path d="m185.524 454.943c-.199 1.39-.336 2.8-.336 4.244 0 16.465 13.347 29.813 29.813 29.813 16.465 0 29.812-13.348 29.812-29.813 0-1.445-.137-2.854-.336-4.244-2.065 14.45-14.456 31.238-29.476 31.238-15.021 0-27.412-16.789-29.477-31.238"/></g></g></svg>