<svg height="600" width="600" xmlns="http://www.w3.org/2000/svg" xmlns:xlink="http://www.w3.org/1999/xlink"><defs><circle id="a" cx="225" cy="225" r="225"/><mask id="b" fill="#fff"><use fill="#fff" fill-rule="evenodd" xlink:href="#a"/></mask></defs><g fill="none" fill-rule="evenodd"><g transform="translate(76 75)"><use fill="#2c97de" xlink:href="#a"/><path d="m28 349h397v131h-397z" fill="#1fce6d" mask="url(#b)"/><g fill="#fff" transform="translate(3 40)"><path d="m16 37h80v22h-80z"/><circle cx="95" cy="45" r="14"/><circle cx="15.5" cy="43.5" r="15.5"/><circle cx="69.5" cy="29.5" r="29.5"/><circle cx="32.5" cy="31.5" r="11.5"/></g><g fill="#fff" transform="translate(341 69)"><path d="m16 37h80v22h-80z"/><circle cx="95" cy="45" r="14"/><circle cx="15.5" cy="43.5" r="15.5"/><circle cx="69.5" cy="29.5" r="29.5"/><circle cx="32.5" cy="31.5" r="11.5"/></g><g fill="#ffe500" stroke="#fff" stroke-linecap="round" stroke-linejoin="round" stroke-width="5"><path d="m36.314 1.5h65.172m-101.486 0h12.283" transform="translate(36 112)"/><path d="m26.314 1.5h65.172m-91.486 0h12.283" transform="translate(325 141)"/><path d="m12.592 1h46.045m-58.194 0h2.235" transform="translate(312 26)"/></g></g><g transform="translate(18 150)"><path d="m182.58 169.12c31.048 0 56.216-10.742 56.216-23.993s-48.728-36.199-56.215-36.199c-7.488 0-56.216 22.948-56.216 36.199 0 13.25 25.169 23.993 56.216 23.993zm200.84 0c31.046 0 56.215-10.742 56.215-23.993s-48.728-36.199-56.216-36.199c-7.487 0-56.215 22.948-56.215 36.199 0 13.25 25.168 23.993 56.215 23.993z" fill="#2b3e51"/><path d="m80.72 156.643c31.047 0 56.215-10.742 56.215-23.993 0-13.25-48.727-36.198-56.215-36.198s-56.216 22.947-56.216 36.198 25.169 23.993 56.216 23.993zm404.56 0c31.047 0 56.216-10.742 56.216-23.993 0-13.25-48.728-36.198-56.216-36.198s-56.215 22.947-56.215 36.198 25.168 23.993 56.215 23.993zm-201.5-44.3c34.929 0 63.243-12.085 63.243-26.993 0-14.907-54.819-40.723-63.242-40.723-8.424 0-63.243 25.816-63.243 40.723 0 14.908 28.315 26.992 63.243 26.992z" fill="#33495f"/><g transform="translate(124.924 67.66)"><path d="m0 99.811h115.314v2.879h-115.314z" fill="#00c4be"/><g transform="translate(2.883 86.375)"><path d="m1.922 10.557h105.705v2.879h-105.705z" fill="#ecf0f1"/><path d="m.961 7.678h107.626v2.879h-107.626z" fill="#fff"/><path d="m0 4.799h109.548v2.879h-109.548z" fill="#ecf0f1"/><path d="m2.402 0h104.744v4.799h-104.744z" fill="#fff"/></g><g fill="#fff"><path d="m57.177 35.51h1v4.799h-1z"/><path d="m57.6570458 0 .4804754 28.7915937h-.9609507z"/><ellipse cx="57.657" cy="31.191" rx="4.324" ry="4.319"/><ellipse cx="57.657" cy="41.268" rx="2.883" ry="1.44"/></g><g transform="translate(12.012 94.053)"><path d="m0 38.389h83.603v73.898h-83.603z" fill="#ecf0f1"/><path d="m0 23.513h83.603v14.876h-83.603z" fill="#c23824"/><path d="m0 20.634h83.603v2.879h-83.603z" fill="#2b3e51"/><path d="m0 5.758h83.603v14.876h-83.603z" fill="#c23824"/><path d="m80.72 2.88v-2.88h2.883v5.758h-83.603v-5.758h2.883v2.88h2.883v-2.88h2.883v2.88h2.882v-2.88h2.883v2.88h2.883v-2.88h2.883v2.88h2.883v-2.88h2.883v2.88h2.883v-2.88h2.882v2.88h2.883v-2.88h2.883v2.88h2.883v-2.88h2.883v2.88h2.883v-2.88h2.882v2.88h2.883v-2.88h2.883v2.88h2.883v-2.88h2.883v2.88h2.883v-2.88h2.883v2.88h2.882v-2.88h2.883v2.88h2.883v-2.88h2.883v2.88z" fill="#bdc3c7"/><path d="m0 35.51h1.922v1.92h-1.922zm0-2.88h1.922v1.92h-1.922zm0-2.879h1.922v1.92h-1.922zm0-2.879h1.922v1.92h-1.922zm0-2.879h1.922v1.92h-1.922zm0-2.88h1.922v1.92h-1.922zm0-2.878h1.922v1.92h-1.922zm0-2.88h1.922v1.92h-1.922zm2.883 20.155h1.922v1.92h-1.922zm0-2.88h1.922v1.92h-1.922zm0-2.879h1.922v1.92h-1.922zm0-2.879h1.922v1.92h-1.922zm0-2.879h1.922v1.92h-1.922zm0-2.88h1.922v1.92h-1.922zm0-2.878h1.922v1.92h-1.922zm0-2.88h1.922v1.92h-1.922zm2.883 20.155h1.922v1.92h-1.922zm0-2.88h1.922v1.92h-1.922zm0-2.879h1.922v1.92h-1.922zm0-2.879h1.922v1.92h-1.922zm0-2.879h1.922v1.92h-1.922zm0-2.88h1.922v1.92h-1.922zm0-2.878h1.922v1.92h-1.922zm0-2.88h1.922v1.92h-1.922zm2.883 20.155h1.921v1.92h-1.92v-1.92zm0-2.88h1.921v1.92h-1.92v-1.92zm0-2.879h1.921v1.92h-1.92v-1.92zm0-2.879h1.921v1.92h-1.92v-1.92zm0-2.879h1.921v1.92h-1.92v-1.92zm0-2.88h1.921v1.92h-1.92v-1.92zm0-2.878h1.921v1.92h-1.92v-1.92zm0-2.88h1.921v1.92h-1.92v-1.92zm2.881 20.155h1.922v1.92h-1.922zm0-2.88h1.922v1.92h-1.922zm0-2.879h1.922v1.92h-1.922zm0-2.879h1.922v1.92h-1.922zm0-2.879h1.922v1.92h-1.922zm0-2.88h1.922v1.92h-1.922zm0-2.878h1.922v1.92h-1.922zm0-2.88h1.922v1.92h-1.922zm-11.53-3.837h1.922v1.92h-1.922zm2.883 0h1.922v1.92h-1.922zm2.883 0h1.922v1.92h-1.922zm2.883 0h1.921v1.92h-1.92v-1.92zm2.882 0h1.922v1.92h-1.922zm-2.881-2.881h1.921v1.92h-1.921zm-2.883 0h1.922v1.92h-1.923v-1.92zm-2.883 0h1.922v1.92h-1.923v-1.92zm-2.884-2.879h1.922v1.92h-1.922zm2.883 0h1.922v1.92h-1.922zm2.883 0h1.922v1.92h-1.922zm2.883 0h1.921v1.92h-1.92v-1.92zm2.882 0h1.922v1.92h-1.922zm-2.881-2.878h1.921v1.92h-1.921zm-2.883 0h1.922v1.92h-1.923v-1.92zm0-2.879h1.922v1.92h-1.923v-1.921zm-2.884 2.879h1.922v1.919h-1.922v-1.92zm20.18 32.63h1.922v1.92h-1.922zm0-2.88h1.922v1.92h-1.922zm0-2.879h1.922v1.92h-1.922zm0-2.879h1.922v1.92h-1.922zm0-2.879h1.922v1.92h-1.922zm0-2.88h1.922v1.92h-1.922zm0-2.878h1.922v1.92h-1.922zm0-2.88h1.922v1.92h-1.922zm2.883 20.155h1.922v1.92h-1.922zm0-2.88h1.922v1.92h-1.922zm0-2.879h1.922v1.92h-1.922zm0-2.879h1.922v1.92h-1.922zm0-2.879h1.922v1.92h-1.922zm0-2.88h1.922v1.92h-1.922zm0-2.878h1.922v1.92h-1.922zm0-2.88h1.922v1.92h-1.922zm2.883 20.155h1.921v1.92h-1.92v-1.92zm0-2.88h1.921v1.92h-1.92v-1.92zm0-2.879h1.921v1.92h-1.92v-1.92zm0-2.879h1.921v1.92h-1.92v-1.92zm0-2.879h1.921v1.92h-1.92v-1.92zm0-2.88h1.921v1.92h-1.92v-1.92zm0-2.878h1.921v1.92h-1.92v-1.92zm0-2.88h1.921v1.92h-1.92v-1.92zm2.881 20.155h1.922v1.92h-1.922zm0-2.88h1.922v1.92h-1.922zm0-2.879h1.922v1.92h-1.922zm0-2.879h1.922v1.92h-1.922zm0-2.879h1.922v1.92h-1.922zm0-2.88h1.922v1.92h-1.922zm0-2.878h1.922v1.92h-1.922zm0-2.88h1.922v1.92h-1.922zm2.883 20.155h1.922v1.92h-1.922zm0-2.88h1.922v1.92h-1.922zm0-2.879h1.922v1.92h-1.922zm0-2.879h1.922v1.92h-1.922zm0-2.879h1.922v1.92h-1.922zm0-2.88h1.922v1.92h-1.922zm0-2.878h1.922v1.92h-1.922zm0-2.88h1.922v1.92h-1.922zm-11.531-3.838h1.922v1.92h-1.922zm2.883 0h1.922v1.92h-1.922zm2.883 0h1.921v1.92h-1.919v-1.92zm2.882 0h1.922v1.92h-1.922zm2.883 0h1.922v1.92h-1.922zm-2.883-2.88h1.922v1.92h-1.922zm-2.882 0h1.921v1.92h-1.919v-1.92zm-2.883 0h1.922v1.92h-1.922zm-2.883-2.879h1.922v1.92h-1.922zm2.883 0h1.922v1.92h-1.922zm2.883 0h1.921v1.92h-1.919v-1.92zm2.882 0h1.922v1.92h-1.922zm2.883 0h1.922v1.92h-1.922zm-2.882-2.878h1.922v1.92h-1.922zm-2.882 0h1.921v1.92h-1.92v-1.92zm0-2.879h1.921v1.92h-1.92v-1.921zm-2.883 2.88h1.922v1.919h-1.922v-1.92zm20.18 32.63h1.922v1.92h-1.922zm0-2.88h1.922v1.92h-1.922zm0-2.879h1.922v1.92h-1.922zm0-2.879h1.922v1.92h-1.922zm0-2.879h1.922v1.92h-1.922zm0-2.88h1.922v1.92h-1.922zm0-2.878h1.922v1.92h-1.922zm0-2.88h1.922v1.92h-1.922zm2.882 20.155h1.922v1.92h-1.922zm0-2.88h1.922v1.92h-1.922zm0-2.879h1.922v1.92h-1.922zm0-2.879h1.922v1.92h-1.922zm0-2.879h1.922v1.92h-1.922zm0-2.88h1.922v1.92h-1.922zm0-2.878h1.922v1.92h-1.922zm0-2.88h1.922v1.92h-1.922zm2.883 20.155h1.922v1.92h-1.922zm0-2.88h1.922v1.92h-1.922zm0-2.879h1.922v1.92h-1.922zm0-2.879h1.922v1.92h-1.922zm0-2.879h1.922v1.92h-1.922zm0-2.88h1.922v1.92h-1.922zm0-2.878h1.922v1.92h-1.922zm0-2.88h1.922v1.92h-1.922zm2.883 20.155h1.922v1.92h-1.922zm0-2.88h1.922v1.92h-1.922zm0-2.879h1.922v1.92h-1.922zm0-2.879h1.922v1.92h-1.922zm0-2.879h1.922v1.92h-1.922zm0-2.88h1.922v1.92h-1.922zm0-2.878h1.922v1.92h-1.922zm0-2.88h1.922v1.92h-1.922zm2.883 20.155h1.922v1.92h-1.922zm0-2.88h1.922v1.92h-1.922zm0-2.879h1.922v1.92h-1.922zm0-2.879h1.922v1.92h-1.922zm0-2.879h1.922v1.92h-1.922zm0-2.88h1.922v1.92h-1.922zm0-2.878h1.922v1.92h-1.922zm0-2.88h1.922v1.92h-1.922zm-11.531-3.838h1.922v1.92h-1.922zm2.882 0h1.922v1.92h-1.922zm2.883 0h1.922v1.92h-1.922zm2.883 0h1.922v1.92h-1.922zm2.883 0h1.922v1.92h-1.922zm-2.883-2.88h1.922v1.92h-1.922zm-2.883 0h1.922v1.92h-1.922zm-2.883 0h1.922v1.92h-1.922zm-2.882-2.879h1.922v1.92h-1.922zm2.882 0h1.922v1.92h-1.922zm2.883 0h1.922v1.92h-1.922zm2.883 0h1.922v1.92h-1.922zm2.883 0h1.922v1.92h-1.922zm-2.883-2.879h1.922v1.92h-1.922zm-2.883 0h1.922v1.92h-1.922zm0-2.879h1.922v1.92h-1.922v-1.921zm-2.883 2.88h1.922v1.919h-1.922v-1.92z" fill="#2b3e51" transform="translate(12.012 51.825)"/></g></g><g transform="translate(325.762 67.66)"><path d="m0 99.811h115.314v2.879h-115.314z" fill="#00c4be"/><g transform="translate(2.883 86.375)"><path d="m1.922 10.557h105.705v2.879h-105.705z" fill="#ecf0f1"/><path d="m.961 7.678h107.626v2.879h-107.626z" fill="#fff"/><path d="m0 4.799h109.548v2.879h-109.548z" fill="#ecf0f1"/><path d="m2.402 0h104.744v4.799h-104.744z" fill="#fff"/></g><g fill="#fff"><path d="m57.177 35.51h1v4.799h-1z"/><path d="m57.6570458 0 .4804754 28.7915937h-.9609507z"/><ellipse cx="57.657" cy="31.191" rx="4.324" ry="4.319"/><ellipse cx="57.657" cy="41.268" rx="2.883" ry="1.44"/></g><g transform="translate(19.7 94.053)"><path d="m0 38.389h83.603v73.898h-83.603z" fill="#ecf0f1"/><path d="m0 23.513h83.603v14.876h-83.603z" fill="#c23824"/><path d="m0 20.634h83.603v2.879h-83.603z" fill="#2b3e51"/><path d="m0 5.758h83.603v14.876h-83.603z" fill="#c23824"/><path d="m80.72 2.88v-2.88h2.883v5.758h-83.603v-5.758h2.883v2.88h2.883v-2.88h2.883v2.88h2.882v-2.88h2.883v2.88h2.883v-2.88h2.883v2.88h2.883v-2.88h2.883v2.88h2.883v-2.88h2.882v2.88h2.883v-2.88h2.883v2.88h2.883v-2.88h2.883v2.88h2.883v-2.88h2.882v2.88h2.883v-2.88h2.883v2.88h2.883v-2.88h2.883v2.88h2.883v-2.88h2.883v2.88h2.882v-2.88h2.883v2.88h2.883v-2.88h2.883v2.88z" fill="#bdc3c7"/><path d="m0 35.51h1.922v1.92h-1.922zm0-2.88h1.922v1.92h-1.922zm0-2.879h1.922v1.92h-1.922zm0-2.879h1.922v1.92h-1.922zm0-2.879h1.922v1.92h-1.922zm0-2.88h1.922v1.92h-1.922zm0-2.878h1.922v1.92h-1.922zm0-2.88h1.922v1.92h-1.922zm2.883 20.155h1.922v1.92h-1.922zm0-2.88h1.922v1.92h-1.922zm0-2.879h1.922v1.92h-1.922zm0-2.879h1.922v1.92h-1.922zm0-2.879h1.922v1.92h-1.922zm0-2.88h1.922v1.92h-1.922zm0-2.878h1.922v1.92h-1.922zm0-2.88h1.922v1.92h-1.922zm2.883 20.155h1.922v1.92h-1.922zm0-2.88h1.922v1.92h-1.922zm0-2.879h1.922v1.92h-1.922zm0-2.879h1.922v1.92h-1.922zm0-2.879h1.922v1.92h-1.922zm0-2.88h1.922v1.92h-1.922zm0-2.878h1.922v1.92h-1.922zm0-2.88h1.922v1.92h-1.922zm2.883 20.155h1.921v1.92h-1.92v-1.92zm0-2.88h1.921v1.92h-1.92v-1.92zm0-2.879h1.921v1.92h-1.92v-1.92zm0-2.879h1.921v1.92h-1.92v-1.92zm0-2.879h1.921v1.92h-1.92v-1.92zm0-2.88h1.921v1.92h-1.92v-1.92zm0-2.878h1.921v1.92h-1.92v-1.92zm0-2.88h1.921v1.92h-1.92v-1.92zm2.881 20.155h1.922v1.92h-1.922zm0-2.88h1.922v1.92h-1.922zm0-2.879h1.922v1.92h-1.922zm0-2.879h1.922v1.92h-1.922zm0-2.879h1.922v1.92h-1.922zm0-2.88h1.922v1.92h-1.922zm0-2.878h1.922v1.92h-1.922zm0-2.88h1.922v1.92h-1.922zm-11.53-3.837h1.922v1.92h-1.922zm2.883 0h1.922v1.92h-1.922zm2.883 0h1.922v1.92h-1.922zm2.883 0h1.921v1.92h-1.92v-1.92zm2.882 0h1.922v1.92h-1.922zm-2.881-2.881h1.921v1.92h-1.921zm-2.883 0h1.922v1.92h-1.923v-1.92zm-2.883 0h1.922v1.92h-1.923v-1.92zm-2.884-2.879h1.922v1.92h-1.922zm2.883 0h1.922v1.92h-1.922zm2.883 0h1.922v1.92h-1.922zm2.883 0h1.921v1.92h-1.92v-1.92zm2.882 0h1.922v1.92h-1.922zm-2.881-2.878h1.921v1.92h-1.921zm-2.883 0h1.922v1.92h-1.923v-1.92zm0-2.879h1.922v1.92h-1.923v-1.921zm-2.884 2.879h1.922v1.919h-1.922v-1.92zm20.18 32.63h1.922v1.92h-1.922zm0-2.88h1.922v1.92h-1.922zm0-2.879h1.922v1.92h-1.922zm0-2.879h1.922v1.92h-1.922zm0-2.879h1.922v1.92h-1.922zm0-2.88h1.922v1.92h-1.922zm0-2.878h1.922v1.92h-1.922zm0-2.88h1.922v1.92h-1.922zm2.883 20.155h1.922v1.92h-1.922zm0-2.88h1.922v1.92h-1.922zm0-2.879h1.922v1.92h-1.922zm0-2.879h1.922v1.92h-1.922zm0-2.879h1.922v1.92h-1.922zm0-2.88h1.922v1.92h-1.922zm0-2.878h1.922v1.92h-1.922zm0-2.88h1.922v1.92h-1.922zm2.883 20.155h1.921v1.92h-1.92v-1.92zm0-2.88h1.921v1.92h-1.92v-1.92zm0-2.879h1.921v1.92h-1.92v-1.92zm0-2.879h1.921v1.92h-1.92v-1.92zm0-2.879h1.921v1.92h-1.92v-1.92zm0-2.88h1.921v1.92h-1.92v-1.92zm0-2.878h1.921v1.92h-1.92v-1.92zm0-2.88h1.921v1.92h-1.92v-1.92zm2.881 20.155h1.922v1.92h-1.922zm0-2.88h1.922v1.92h-1.922zm0-2.879h1.922v1.92h-1.922zm0-2.879h1.922v1.92h-1.922zm0-2.879h1.922v1.92h-1.922zm0-2.88h1.922v1.92h-1.922zm0-2.878h1.922v1.92h-1.922zm0-2.88h1.922v1.92h-1.922zm2.883 20.155h1.922v1.92h-1.922zm0-2.88h1.922v1.92h-1.922zm0-2.879h1.922v1.92h-1.922zm0-2.879h1.922v1.92h-1.922zm0-2.879h1.922v1.92h-1.922zm0-2.88h1.922v1.92h-1.922zm0-2.878h1.922v1.92h-1.922zm0-2.88h1.922v1.92h-1.922zm-11.531-3.838h1.922v1.92h-1.922zm2.883 0h1.922v1.92h-1.922zm2.883 0h1.921v1.92h-1.919v-1.92zm2.882 0h1.922v1.92h-1.922zm2.883 0h1.922v1.92h-1.922zm-2.883-2.88h1.922v1.92h-1.922zm-2.882 0h1.921v1.92h-1.919v-1.92zm-2.883 0h1.922v1.92h-1.922zm-2.883-2.879h1.922v1.92h-1.922zm2.883 0h1.922v1.92h-1.922zm2.883 0h1.921v1.92h-1.919v-1.92zm2.882 0h1.922v1.92h-1.922zm2.883 0h1.922v1.92h-1.922zm-2.882-2.878h1.922v1.92h-1.922zm-2.882 0h1.921v1.92h-1.92v-1.92zm0-2.879h1.921v1.92h-1.92v-1.921zm-2.883 2.88h1.922v1.919h-1.922v-1.92zm20.18 32.63h1.922v1.92h-1.922zm0-2.88h1.922v1.92h-1.922zm0-2.879h1.922v1.92h-1.922zm0-2.879h1.922v1.92h-1.922zm0-2.879h1.922v1.92h-1.922zm0-2.88h1.922v1.92h-1.922zm0-2.878h1.922v1.92h-1.922zm0-2.88h1.922v1.92h-1.922zm2.882 20.155h1.922v1.92h-1.922zm0-2.88h1.922v1.92h-1.922zm0-2.879h1.922v1.92h-1.922zm0-2.879h1.922v1.92h-1.922zm0-2.879h1.922v1.92h-1.922zm0-2.88h1.922v1.92h-1.922zm0-2.878h1.922v1.92h-1.922zm0-2.88h1.922v1.92h-1.922zm2.883 20.155h1.922v1.92h-1.922zm0-2.88h1.922v1.92h-1.922zm0-2.879h1.922v1.92h-1.922zm0-2.879h1.922v1.92h-1.922zm0-2.879h1.922v1.92h-1.922zm0-2.88h1.922v1.92h-1.922zm0-2.878h1.922v1.92h-1.922zm0-2.88h1.922v1.92h-1.922zm2.883 20.155h1.922v1.92h-1.922zm0-2.88h1.922v1.92h-1.922zm0-2.879h1.922v1.92h-1.922zm0-2.879h1.922v1.92h-1.922zm0-2.879h1.922v1.92h-1.922zm0-2.88h1.922v1.92h-1.922zm0-2.878h1.922v1.92h-1.922zm0-2.88h1.922v1.92h-1.922zm2.883 20.155h1.922v1.92h-1.922zm0-2.88h1.922v1.92h-1.922zm0-2.879h1.922v1.92h-1.922zm0-2.879h1.922v1.92h-1.922zm0-2.879h1.922v1.92h-1.922zm0-2.88h1.922v1.92h-1.922zm0-2.878h1.922v1.92h-1.922zm0-2.88h1.922v1.92h-1.922zm-11.531-3.838h1.922v1.92h-1.922zm2.882 0h1.922v1.92h-1.922zm2.883 0h1.922v1.92h-1.922zm2.883 0h1.922v1.92h-1.922zm2.883 0h1.922v1.92h-1.922zm-2.883-2.88h1.922v1.92h-1.922zm-2.883 0h1.922v1.92h-1.922zm-2.883 0h1.922v1.92h-1.922zm-2.882-2.879h1.922v1.92h-1.922zm2.882 0h1.922v1.92h-1.922zm2.883 0h1.922v1.92h-1.922zm2.883 0h1.922v1.92h-1.922zm2.883 0h1.922v1.92h-1.922zm-2.883-2.879h1.922v1.92h-1.922zm-2.883 0h1.922v1.92h-1.922zm0-2.879h1.922v1.92h-1.922v-1.921zm-2.883 2.88h1.922v1.919h-1.922v-1.92z" fill="#2b3e51" transform="translate(12.012 51.825)"/></g></g><g transform="translate(23.063 55.184)"><path d="m1.441 102.69h112.431v28.792h-112.431z" fill="#bdc3c7"/><path d="m0 99.811h115.314v2.879h-115.314z" fill="#33495f"/><path d="m4.805 96.932h105.705v2.879h-105.705z" fill="#bdc3c7"/><path d="m3.844 94.053h107.626v2.879h-107.626z" fill="#ecf0f1"/><path d="m2.883 91.173h109.548v2.879h-109.548z" fill="#bdc3c7"/><path d="m5.285 86.375h104.744v4.799h-104.744z" fill="#ecf0f1"/><path d="m57.177 35.51h1v4.799h-1z" fill="#fff"/><path d="m57.6570458 0 .4804754 28.7915937h-.9609507z" fill="#fff"/><g fill="#ecf0f1"><ellipse cx="57.657" cy="31.191" rx="4.324" ry="4.319"/><ellipse cx="57.657" cy="41.268" rx="2.883" ry="1.44"/></g></g><g transform="translate(0 131.482)"><g transform="translate(11.05)"><g fill="#fff"><path d="m25.946 45.587h8.648v-9.598h19.22v-9.597h19.218v9.597h19.22v9.598h14.414v9.597h19.219v76.777h-124.925v-76.777h19.22v-19.195h5.766z"/><path d="m19.219 36.47c0-2.12 1.72-3.84 3.844-3.84a3.841 3.841 0 0 1 3.844 3.84z"/><path d="m22.582 27.832h1v6.718h-1z"/><path d="m120.119 45.107h5.766v10.077h-5.766z"/><path d="m119.158 45.587c0-2.12 1.72-3.84 3.844-3.84a3.841 3.841 0 0 1 3.844 3.84z"/><path d="m122.521 36.949h1v6.718h-1z"/><path d="m.961 45.107h5.766v10.077h-5.766z"/><path d="m0 45.587c0-2.12 1.72-3.84 3.844-3.84a3.841 3.841 0 0 1 3.844 3.84z"/><path d="m3.363 36.949h1v6.718h-1z"/><path d="m34.594 26.392h5.766v10.077h-5.766z"/><path d="m33.633 26.872c0-2.12 1.721-3.839 3.844-3.839a3.841 3.841 0 0 1 3.844 3.84h-7.688z"/><path d="m36.997 18.235h1v6.718h-1z"/><path d="m86.486 26.392h5.766v10.077h-5.766z"/><path d="m85.525 26.872c0-2.12 1.72-3.839 3.843-3.839a3.841 3.841 0 0 1 3.844 3.84h-7.687z"/><path d="m88.888 18.235h1v6.718h-1z"/><path d="m59.1237602 12.4511015h8.8002859v15.3807724h-8.8002859z"/><path d="m57.657 13.184a5.863 5.863 0 0 1 5.867-5.86 5.863 5.863 0 0 1 5.867 5.86z"/><path d="m62.791 0h1.467v10.254h-1.467z"/><path d="m100.9 35.989h5.766v10.077h-5.766z"/><path d="m99.939 36.47c0-2.12 1.72-3.84 3.844-3.84a3.841 3.841 0 0 1 3.843 3.84h-7.686z"/><path d="m103.302 27.832h1v6.718h-1z"/></g><path d="m17.297 97.958a12.9 12.9 0 0 1 -3.363-8.704c0-7.156 5.808-12.956 12.973-12.956 7.164 0 12.972 5.8 12.972 12.956a12.9 12.9 0 0 1 -3.363 8.704v1.373h2.403v2.88h2.402v29.75h-28.829v-29.75h2.403v-2.88h2.402zm73.032 0a12.9 12.9 0 0 1 -3.363-8.704c0-7.156 5.808-12.956 12.973-12.956s12.973 5.8 12.973 12.956a12.9 12.9 0 0 1 -3.364 8.704v1.373h2.403v2.88h2.402v29.75h-28.828v-29.75h2.402v-2.88h2.402zm-36.516 0a12.9 12.9 0 0 1 -3.363-8.704c0-7.156 5.808-12.956 12.973-12.956 7.164 0 12.973 5.8 12.973 12.956a12.9 12.9 0 0 1 -3.364 8.704v1.373h2.403v2.88h2.402v29.75h-28.829v-29.75h2.403v-2.88h2.402z" fill="#2b3e51"/></g><g transform="translate(0 131.002)"><path d="m7.688 0h133.572v1.919h-133.572z" fill="#ecf0f1"/><path d="m5.76570458 1.91943958h137.41595942v1.91943958h-137.41595942z" fill="#fff"/><path d="m3.84380306 3.83887916h141.25976194v1.91943958h-141.25976194z" fill="#ecf0f1"/><path d="m1.922 5.758h145.104v1.919h-145.104z" fill="#fff"/><path d="m1.922 7.678h145.104v1.919h-145.104z" fill="#ecf0f1"/><path d="m0 9.597h148.947v1.919h-148.947z" fill="#fff"/></g><path d="m18.258 68.62h2.883v2.88h-2.883zm0-5.758h2.883v2.879h-2.883v-2.88zm5.766 5.758h2.883v2.88h-2.883zm0-5.758h2.883v2.879h-2.883v-2.88zm5.765 5.758h2.883v2.88h-2.882v-2.88zm0-5.758h2.883v2.879h-2.882v-2.88zm5.766 5.758h2.883v2.88h-2.883zm0-5.758h2.883v2.879h-2.883v-2.88zm17.297 5.758h2.883v2.88h-2.883zm0-5.758h2.883v2.879h-2.883v-2.88zm5.766 5.758h2.883v2.88h-2.883zm0-5.758h2.883v2.879h-2.883v-2.88zm17.297 5.758h2.883v2.88h-2.883zm0-5.758h2.883v2.879h-2.883v-2.88zm5.766 5.758h2.883v2.88h-2.884v-2.88zm0-5.758h2.883v2.879h-2.884v-2.88zm17.297 5.758h2.883v2.88h-2.883zm0-5.758h2.883v2.879h-2.883v-2.88zm5.766 5.758h2.882v2.88h-2.882zm0-5.758h2.882v2.879h-2.882v-2.88zm-63.424 5.758h2.883v2.88h-2.883zm0-5.758h2.883v2.879h-2.883v-2.88zm5.766 5.758h2.882v2.88h-2.882zm0-5.758h2.882v2.879h-2.882v-2.88zm17.297 5.758h2.883v2.88h-2.883zm0-5.758h2.883v2.879h-2.883v-2.88zm5.765 5.758h2.883v2.88h-2.881v-2.88zm0-5.758h2.883v2.879h-2.881v-2.88zm17.298 5.758h2.882v2.88h-2.882zm0-5.758h2.882v2.879h-2.882v-2.88zm5.765 5.758h2.883v2.88h-2.883zm0-5.758h2.883v2.879h-2.883v-2.88zm17.297 5.758h2.883v2.88h-2.883zm0-5.758h2.883v2.879h-2.883v-2.88zm5.766 5.758h2.883v2.88h-2.883zm0-5.758h2.883v2.879h-2.883v-2.88zm5.766 5.758h2.883v2.88h-2.883zm0-5.758h2.883v2.879h-2.883v-2.88zm5.765 5.758h2.883v2.88h-2.883zm0-5.758h2.883v2.879h-2.883v-2.88zm-92.25-5.759h2.882v2.88h-2.883v-2.88zm0-5.758h2.882v2.88h-2.883v-2.88zm5.765 5.758h2.883v2.88h-2.883zm0-5.758h2.883v2.88h-2.883zm17.297 5.758h2.883v2.88h-2.883zm0-5.758h2.883v2.88h-2.883zm5.766 5.758h2.883v2.88h-2.883zm0-5.758h2.883v2.88h-2.883zm17.297 5.758h2.883v2.88h-2.883zm0-5.758h2.883v2.88h-2.883zm5.766 5.758h2.882v2.88h-2.882zm0-5.758h2.882v2.88h-2.882zm-40.36 5.758h2.882v2.88h-2.882zm0-5.758h2.882v2.88h-2.882zm5.765 5.758h2.883v2.88h-2.883zm0-5.758h2.883v2.88h-2.883zm17.297 5.758h2.883v2.88h-2.881v-2.88zm0-5.758h2.883v2.88h-2.881v-2.88zm5.766 5.758h2.883v2.88h-2.883zm0-5.758h2.883v2.88h-2.883zm-5.764-17.275h2.883v2.88h-2.883zm0-5.758h2.883v2.879h-2.883v-2.88zm5.766 5.758h2.883v2.88h-2.883zm0-5.758h2.883v2.879h-2.883v-2.88zm-11.532 17.275h2.883v2.879h-2.883v-2.88zm0-5.759h2.883v2.88h-2.883zm5.765 5.759h2.883v2.879h-2.882v-2.88zm0-5.759h2.883v2.88h-2.882v-2.88zm17.298 5.759h2.882v2.879h-2.882v-2.88zm0-5.759h2.882v2.88h-2.882zm5.765 5.759h2.883v2.879h-2.883v-2.88zm0-5.759h2.883v2.88h-2.883zm-40.36 5.759h2.883v2.879h-2.883v-2.88zm0-5.759h2.883v2.88h-2.883zm5.766 5.759h2.883v2.879h-2.883v-2.88zm0-5.759h2.883v2.88h-2.883zm17.297 5.759h2.883v2.879h-2.883v-2.88zm0-5.759h2.883v2.88h-2.883zm5.766 5.759h2.883v2.879h-2.884v-2.88zm0-5.759h2.883v2.88h-2.884v-2.88zm11.531 17.275h2.883v2.88h-2.883zm0-5.758h2.883v2.88h-2.883zm5.766 5.758h2.883v2.88h-2.883zm0-5.758h2.883v2.88h-2.883zm5.766 5.758h2.882v2.88h-2.882zm0-5.758h2.882v2.88h-2.882zm5.765 5.758h2.883v2.88h-2.883zm0-5.758h2.883v2.88h-2.883z" fill="#ecf0f1"/></g><g transform="translate(427.623 55.184)"><path d="m1.441 102.69h112.431v28.792h-112.431z" fill="#bdc3c7"/><path d="m0 99.811h115.314v2.879h-115.314z" fill="#33495f"/><path d="m4.805 96.932h105.705v2.879h-105.705z" fill="#bdc3c7"/><path d="m3.844 94.053h107.626v2.879h-107.626z" fill="#ecf0f1"/><path d="m2.883 91.173h109.548v2.879h-109.548z" fill="#bdc3c7"/><path d="m5.285 86.375h104.744v4.799h-104.744z" fill="#ecf0f1"/><path d="m57.177 35.51h1v4.799h-1z" fill="#fff"/><path d="m57.6570458 0 .4804754 28.7915937h-.9609507z" fill="#fff"/><g fill="#ecf0f1"><ellipse cx="57.657" cy="31.191" rx="4.324" ry="4.319"/><ellipse cx="57.657" cy="41.268" rx="2.883" ry="1.44"/></g></g><g transform="translate(417.053 131.482)"><g transform="translate(11.05)"><g fill="#fff"><path d="m25.946 45.587h8.648v-9.598h19.22v-9.597h19.218v9.597h19.22v9.598h14.414v9.597h19.219v76.777h-124.925v-76.777h19.22v-19.195h5.766z"/><path d="m19.219 36.47c0-2.12 1.72-3.84 3.844-3.84a3.841 3.841 0 0 1 3.844 3.84z"/><path d="m22.582 27.832h1v6.718h-1z"/><path d="m120.119 45.107h5.766v10.077h-5.766z"/><path d="m119.158 45.587c0-2.12 1.72-3.84 3.844-3.84a3.841 3.841 0 0 1 3.844 3.84z"/><path d="m122.521 36.949h1v6.718h-1z"/><path d="m.961 45.107h5.766v10.077h-5.766z"/><path d="m0 45.587c0-2.12 1.72-3.84 3.844-3.84a3.841 3.841 0 0 1 3.844 3.84z"/><path d="m3.363 36.949h1v6.718h-1z"/><path d="m34.594 26.392h5.766v10.077h-5.766z"/><path d="m33.633 26.872c0-2.12 1.721-3.839 3.844-3.839a3.841 3.841 0 0 1 3.844 3.84h-7.688z"/><path d="m36.997 18.235h1v6.718h-1z"/><path d="m86.486 26.392h5.766v10.077h-5.766z"/><path d="m85.525 26.872c0-2.12 1.72-3.839 3.843-3.839a3.841 3.841 0 0 1 3.844 3.84h-7.687z"/><path d="m88.888 18.235h1v6.718h-1z"/><path d="m59.1237602 12.4511015h8.8002859v15.3807724h-8.8002859z"/><path d="m57.657 13.184a5.863 5.863 0 0 1 5.867-5.86 5.863 5.863 0 0 1 5.867 5.86z"/><path d="m62.791 0h1.467v10.254h-1.467z"/><path d="m100.9 35.989h5.766v10.077h-5.766z"/><path d="m99.939 36.47c0-2.12 1.72-3.84 3.844-3.84a3.841 3.841 0 0 1 3.843 3.84h-7.686z"/><path d="m103.302 27.832h1v6.718h-1z"/></g><path d="m17.297 97.958a12.9 12.9 0 0 1 -3.363-8.704c0-7.156 5.808-12.956 12.973-12.956 7.164 0 12.972 5.8 12.972 12.956a12.9 12.9 0 0 1 -3.363 8.704v1.373h2.403v2.88h2.402v29.75h-28.829v-29.75h2.403v-2.88h2.402zm73.032 0a12.9 12.9 0 0 1 -3.363-8.704c0-7.156 5.808-12.956 12.973-12.956s12.973 5.8 12.973 12.956a12.9 12.9 0 0 1 -3.364 8.704v1.373h2.403v2.88h2.402v29.75h-28.828v-29.75h2.402v-2.88h2.402zm-36.516 0a12.9 12.9 0 0 1 -3.363-8.704c0-7.156 5.808-12.956 12.973-12.956 7.164 0 12.973 5.8 12.973 12.956a12.9 12.9 0 0 1 -3.364 8.704v1.373h2.403v2.88h2.402v29.75h-28.829v-29.75h2.403v-2.88h2.402z" fill="#2b3e51"/></g><g transform="translate(0 131.002)"><path d="m7.688 0h133.572v1.919h-133.572z" fill="#ecf0f1"/><path d="m5.76570458 1.91943958h137.41595942v1.91943958h-137.41595942z" fill="#fff"/><path d="m3.84380306 3.83887916h141.25976194v1.91943958h-141.25976194z" fill="#ecf0f1"/><path d="m1.922 5.758h145.104v1.919h-145.104z" fill="#fff"/><path d="m1.922 7.678h145.104v1.919h-145.104z" fill="#ecf0f1"/><path d="m0 9.597h148.947v1.919h-148.947z" fill="#fff"/></g><path d="m18.258 68.62h2.883v2.88h-2.883zm0-5.758h2.883v2.879h-2.883v-2.88zm5.766 5.758h2.883v2.88h-2.883zm0-5.758h2.883v2.879h-2.883v-2.88zm5.765 5.758h2.883v2.88h-2.882v-2.88zm0-5.758h2.883v2.879h-2.882v-2.88zm5.766 5.758h2.883v2.88h-2.883zm0-5.758h2.883v2.879h-2.883v-2.88zm17.297 5.758h2.883v2.88h-2.883zm0-5.758h2.883v2.879h-2.883v-2.88zm5.766 5.758h2.883v2.88h-2.883zm0-5.758h2.883v2.879h-2.883v-2.88zm17.297 5.758h2.883v2.88h-2.883zm0-5.758h2.883v2.879h-2.883v-2.88zm5.766 5.758h2.883v2.88h-2.884v-2.88zm0-5.758h2.883v2.879h-2.884v-2.88zm17.297 5.758h2.883v2.88h-2.883zm0-5.758h2.883v2.879h-2.883v-2.88zm5.766 5.758h2.882v2.88h-2.882zm0-5.758h2.882v2.879h-2.882v-2.88zm-63.424 5.758h2.883v2.88h-2.883zm0-5.758h2.883v2.879h-2.883v-2.88zm5.766 5.758h2.882v2.88h-2.882zm0-5.758h2.882v2.879h-2.882v-2.88zm17.297 5.758h2.883v2.88h-2.883zm0-5.758h2.883v2.879h-2.883v-2.88zm5.765 5.758h2.883v2.88h-2.881v-2.88zm0-5.758h2.883v2.879h-2.881v-2.88zm17.298 5.758h2.882v2.88h-2.882zm0-5.758h2.882v2.879h-2.882v-2.88zm5.765 5.758h2.883v2.88h-2.883zm0-5.758h2.883v2.879h-2.883v-2.88zm17.297 5.758h2.883v2.88h-2.883zm0-5.758h2.883v2.879h-2.883v-2.88zm5.766 5.758h2.883v2.88h-2.883zm0-5.758h2.883v2.879h-2.883v-2.88zm5.766 5.758h2.883v2.88h-2.883zm0-5.758h2.883v2.879h-2.883v-2.88zm5.765 5.758h2.883v2.88h-2.883zm0-5.758h2.883v2.879h-2.883v-2.88zm-92.25-5.759h2.882v2.88h-2.883v-2.88zm0-5.758h2.882v2.88h-2.883v-2.88zm5.765 5.758h2.883v2.88h-2.883zm0-5.758h2.883v2.88h-2.883zm17.297 5.758h2.883v2.88h-2.883zm0-5.758h2.883v2.88h-2.883zm5.766 5.758h2.883v2.88h-2.883zm0-5.758h2.883v2.88h-2.883zm17.297 5.758h2.883v2.88h-2.883zm0-5.758h2.883v2.88h-2.883zm5.766 5.758h2.882v2.88h-2.882zm0-5.758h2.882v2.88h-2.882zm-40.36 5.758h2.882v2.88h-2.882zm0-5.758h2.882v2.88h-2.882zm5.765 5.758h2.883v2.88h-2.883zm0-5.758h2.883v2.88h-2.883zm17.297 5.758h2.883v2.88h-2.881v-2.88zm0-5.758h2.883v2.88h-2.881v-2.88zm5.766 5.758h2.883v2.88h-2.883zm0-5.758h2.883v2.88h-2.883zm-5.764-17.275h2.883v2.88h-2.883zm0-5.758h2.883v2.879h-2.883v-2.88zm5.766 5.758h2.883v2.88h-2.883zm0-5.758h2.883v2.879h-2.883v-2.88zm-11.532 17.275h2.883v2.879h-2.883v-2.88zm0-5.759h2.883v2.88h-2.883zm5.765 5.759h2.883v2.879h-2.882v-2.88zm0-5.759h2.883v2.88h-2.882v-2.88zm17.298 5.759h2.882v2.879h-2.882v-2.88zm0-5.759h2.882v2.88h-2.882zm5.765 5.759h2.883v2.879h-2.883v-2.88zm0-5.759h2.883v2.88h-2.883zm-40.36 5.759h2.883v2.879h-2.883v-2.88zm0-5.759h2.883v2.88h-2.883zm5.766 5.759h2.883v2.879h-2.883v-2.88zm0-5.759h2.883v2.88h-2.883zm17.297 5.759h2.883v2.879h-2.883v-2.88zm0-5.759h2.883v2.88h-2.883zm5.766 5.759h2.883v2.879h-2.884v-2.88zm0-5.759h2.883v2.88h-2.884v-2.88zm11.531 17.275h2.883v2.88h-2.883zm0-5.758h2.883v2.88h-2.883zm5.766 5.758h2.883v2.88h-2.883zm0-5.758h2.883v2.88h-2.883zm5.766 5.758h2.882v2.88h-2.882zm0-5.758h2.882v2.88h-2.882zm5.765 5.758h2.883v2.88h-2.883zm0-5.758h2.883v2.88h-2.883z" fill="#ecf0f1"/></g><g transform="translate(208.526)"><g transform="translate(2.402)"><path d="m9.61 154.515h124.924v33.59h-124.924z" fill="#bdc3c7"/><path d="m0 111.807356h144.142615v3.838879h-144.142615z" fill="#33495f"/><g transform="translate(11.411 95.372)"><path d="m1.922 12.476h119.158v3.839h-119.158z" fill="#ecf0f1"/><path d="m.96095076 8.63747811h121.07979624v3.83887919h-121.07979624z" fill="#bdc3c7"/><path d="m0 4.79859895h123.001698v3.83887916h-123.001698z" fill="#ecf0f1"/><path d="m2.402 0h118.197v4.799h-118.197z" fill="#bdc3c7"/></g><path d="m72.071 37.909h1.922v5.758h-1.922z" fill="#fff"/><path d="m73.0322581 0 .4804753 28.7915937h-.9609507z" fill="#fff"/><ellipse cx="73.032" cy="33.59" fill="#ecf0f1" rx="4.805" ry="4.799"/><ellipse cx="73.032" cy="44.867" fill="#ecf0f1" rx="3.363" ry="1.68"/><g transform="translate(12.492 115.646)"><path d="m0 0h119.158v38.869h-119.158z" fill="#ecf0f1"/><path d="m54.163 32.873h1.547v1.535h-1.547zm0-2.304h1.547v1.536h-1.547zm0-2.304h1.547v1.536h-1.547zm0-2.304h1.547v1.536h-1.547zm0-2.303h1.547v1.536h-1.547zm0-2.304h1.547v1.536h-1.547zm0-2.304h1.547v1.536h-1.547zm0-2.303h1.547v1.535h-1.547zm2.32 16.126h1.548v1.535h-1.547v-1.535zm0-2.304h1.548v1.536h-1.547v-1.536zm0-2.304h1.548v1.536h-1.547v-1.536zm0-2.304h1.548v1.536h-1.547v-1.536zm0-2.303h1.548v1.536h-1.547v-1.536zm0-2.304h1.548v1.536h-1.547v-1.536zm0-2.304h1.548v1.536h-1.547v-1.536zm0-2.303h1.548v1.535h-1.547v-1.535zm2.322 16.126h1.548v1.535h-1.548zm0-2.304h1.548v1.536h-1.548zm0-2.304h1.548v1.536h-1.548zm0-2.304h1.548v1.536h-1.548zm0-2.303h1.548v1.536h-1.548zm0-2.304h1.548v1.536h-1.548zm0-2.304h1.548v1.536h-1.548v-1.536zm0-2.303h1.548v1.535h-1.548zm2.321 16.126h1.548v1.535h-1.548zm0-2.304h1.548v1.536h-1.548zm0-2.304h1.548v1.536h-1.548zm0-2.304h1.548v1.536h-1.548zm0-2.303h1.548v1.536h-1.548zm0-2.304h1.548v1.536h-1.548zm0-2.304h1.548v1.536h-1.548v-1.536zm0-2.303h1.548v1.535h-1.548zm2.322 16.126h1.547v1.535h-1.547zm0-2.304h1.547v1.536h-1.547zm0-2.304h1.547v1.536h-1.547zm0-2.304h1.547v1.536h-1.547zm0-2.303h1.547v1.536h-1.547zm0-2.304h1.547v1.536h-1.547zm0-2.304h1.547v1.536h-1.547v-1.536zm0-2.303h1.547v1.535h-1.547zm-9.285-3.072h1.547v1.536h-1.547zm2.32 0h1.548v1.536h-1.547v-1.536zm2.322 0h1.548v1.536h-1.548zm2.321 0h1.548v1.536h-1.548zm2.322 0h1.547v1.536h-1.547zm-2.322-2.304h1.548v1.536h-1.548zm-2.32 0h1.547v1.536h-1.548v-1.536zm-2.322 0h1.547v1.536h-1.547zm-2.321-2.303h1.547v1.536h-1.547v-1.536zm2.32 0h1.548v1.536h-1.547v-1.536zm2.322 0h1.548v1.536h-1.548v-1.536zm2.321 0h1.548v1.536h-1.548v-1.536zm2.322 0h1.547v1.536h-1.547v-1.536zm-2.322-2.304h1.548v1.536h-1.548v-1.536zm-2.32 0h1.547v1.536h-1.548v-1.536zm0-2.304h1.547v1.536h-1.548v-1.536zm-2.322 2.304h1.547v1.536h-1.547v-1.536zm19.344 26.109h1.547v1.535h-1.547zm0-2.304h1.547v1.536h-1.547zm0-2.304h1.547v1.536h-1.547zm0-2.304h1.547v1.536h-1.547zm0-2.303h1.547v1.536h-1.547zm0-2.304h1.547v1.536h-1.547zm0-2.304h1.547v1.536h-1.547v-1.536zm0-2.303h1.547v1.535h-1.547zm2.321 16.126h1.548v1.535h-1.548zm0-2.304h1.548v1.536h-1.548zm0-2.304h1.548v1.536h-1.548zm0-2.304h1.548v1.536h-1.548zm0-2.303h1.548v1.536h-1.548zm0-2.304h1.548v1.536h-1.548zm0-2.304h1.548v1.536h-1.548v-1.536zm0-2.303h1.548v1.535h-1.548zm2.321 16.126h1.548v1.535h-1.548zm0-2.304h1.548v1.536h-1.548zm0-2.304h1.548v1.536h-1.548zm0-2.304h1.548v1.536h-1.548zm0-2.303h1.548v1.536h-1.548zm0-2.304h1.548v1.536h-1.548zm0-2.304h1.548v1.536h-1.548v-1.536zm0-2.303h1.548v1.535h-1.548zm2.322 16.126h1.547v1.535h-1.547zm0-2.304h1.547v1.536h-1.547zm0-2.304h1.547v1.536h-1.547zm0-2.304h1.547v1.536h-1.547zm0-2.303h1.547v1.536h-1.547zm0-2.304h1.547v1.536h-1.547zm0-2.304h1.547v1.536h-1.547v-1.536zm0-2.303h1.547v1.535h-1.547zm2.32 16.126h1.548v1.535h-1.547v-1.535zm0-2.304h1.548v1.536h-1.547v-1.536zm0-2.304h1.548v1.536h-1.547v-1.536zm0-2.304h1.548v1.536h-1.547v-1.536zm0-2.303h1.548v1.536h-1.547v-1.536zm0-2.304h1.548v1.536h-1.547v-1.536zm0-2.304h1.548v1.536h-1.547v-1.536zm0-2.303h1.548v1.535h-1.547v-1.535zm-9.284-3.072h1.547v1.536h-1.547zm2.321 0h1.548v1.536h-1.548zm2.321 0h1.548v1.536h-1.548zm2.322 0h1.547v1.536h-1.547zm2.32 0h1.548v1.536h-1.547v-1.536zm-2.32-2.304h1.547v1.536h-1.547zm-2.322 0h1.548v1.536h-1.548zm-2.321 0h1.548v1.536h-1.548zm-2.321-2.303h1.547v1.536h-1.547v-1.536zm2.321 0h1.548v1.536h-1.548v-1.536zm2.321 0h1.548v1.536h-1.548v-1.536zm2.322 0h1.547v1.536h-1.547v-1.536zm2.32 0h1.548v1.536h-1.547v-1.536zm-2.32-2.304h1.547v1.536h-1.547v-1.536zm-2.322 0h1.548v1.536h-1.548v-1.536zm0-2.304h1.548v1.536h-1.548v-1.536zm-2.32 2.304h1.548v1.536h-1.548zm19.344 26.109h1.547v1.535h-1.547zm0-2.304h1.547v1.536h-1.547zm0-2.304h1.547v1.536h-1.547zm0-2.304h1.547v1.536h-1.547zm0-2.303h1.547v1.536h-1.547zm0-2.304h1.547v1.536h-1.547zm0-2.304h1.547v1.536h-1.547zm0-2.303h1.547v1.535h-1.547zm2.321 16.126h1.548v1.535h-1.548zm0-2.304h1.548v1.536h-1.548zm0-2.304h1.548v1.536h-1.548zm0-2.304h1.548v1.536h-1.548zm0-2.303h1.548v1.536h-1.548zm0-2.304h1.548v1.536h-1.548zm0-2.304h1.548v1.536h-1.548v-1.536zm0-2.303h1.548v1.535h-1.548zm2.321 16.126h1.548v1.535h-1.548zm0-2.304h1.548v1.536h-1.548zm0-2.304h1.548v1.536h-1.548zm0-2.304h1.548v1.536h-1.548zm0-2.303h1.548v1.536h-1.548zm0-2.304h1.548v1.536h-1.548zm0-2.304h1.548v1.536h-1.548v-1.536zm0-2.303h1.548v1.535h-1.548zm2.322 16.126h1.547v1.535h-1.547zm0-2.304h1.547v1.536h-1.547zm0-2.304h1.547v1.536h-1.547zm0-2.304h1.547v1.536h-1.547zm0-2.303h1.547v1.536h-1.547zm0-2.304h1.547v1.536h-1.547zm0-2.304h1.547v1.536h-1.547v-1.536zm0-2.303h1.547v1.535h-1.547zm2.32 16.126h1.548v1.535h-1.547v-1.535zm0-2.304h1.548v1.536h-1.547v-1.536zm0-2.304h1.548v1.536h-1.547v-1.536zm0-2.304h1.548v1.536h-1.547v-1.536zm0-2.303h1.548v1.536h-1.547v-1.536zm0-2.304h1.548v1.536h-1.547v-1.536zm0-2.304h1.548v1.536h-1.547v-1.536zm0-2.303h1.548v1.535h-1.547v-1.535zm-9.284-3.072h1.547v1.536h-1.547zm2.321 0h1.548v1.536h-1.548zm2.321 0h1.548v1.536h-1.548zm2.322 0h1.547v1.536h-1.547zm2.32 0h1.548v1.536h-1.547v-1.536zm-2.32-2.304h1.547v1.536h-1.547zm-2.322 0h1.548v1.536h-1.548zm-2.32 0h1.547v1.536h-1.548v-1.536zm-2.322-2.303h1.547v1.536h-1.547v-1.536zm2.321 0h1.548v1.536h-1.548v-1.536zm2.321 0h1.548v1.536h-1.548v-1.536zm2.322 0h1.547v1.536h-1.547v-1.536zm2.32 0h1.548v1.536h-1.547v-1.536zm-2.32-2.304h1.547v1.536h-1.547v-1.536zm-2.322 0h1.548v1.536h-1.548v-1.536zm0-2.304h1.548v1.536h-1.548v-1.536zm-2.32 2.304h1.547v1.536h-1.548v-1.536zm-67.319 26.109h1.547v1.535h-1.547zm0-2.304h1.547v1.536h-1.547zm0-2.304h1.547v1.536h-1.547zm0-2.304h1.547v1.536h-1.547zm0-2.303h1.547v1.536h-1.547zm0-2.304h1.547v1.536h-1.547zm0-2.304h1.547v1.536h-1.547zm0-2.303h1.547v1.535h-1.547zm2.32 16.126h1.548v1.535h-1.545v-1.535zm0-2.304h1.548v1.536h-1.545v-1.536zm0-2.304h1.548v1.536h-1.545v-1.536zm0-2.304h1.548v1.536h-1.545v-1.536zm0-2.303h1.548v1.536h-1.545v-1.536zm0-2.304h1.548v1.536h-1.545v-1.536zm0-2.304h1.548v1.536h-1.545v-1.536zm0-2.303h1.548v1.535h-1.545v-1.535zm2.322 16.126h1.548v1.535h-1.547v-1.535zm0-2.304h1.548v1.536h-1.547v-1.536zm0-2.304h1.548v1.536h-1.547v-1.536zm0-2.304h1.548v1.536h-1.547v-1.536zm0-2.303h1.548v1.536h-1.547v-1.536zm0-2.304h1.548v1.536h-1.547v-1.536zm0-2.304h1.548v1.536h-1.547v-1.536zm0-2.303h1.548v1.535h-1.547v-1.535zm2.321 16.126h1.548v1.535h-1.548zm0-2.304h1.548v1.536h-1.548zm0-2.304h1.548v1.536h-1.548zm0-2.304h1.548v1.536h-1.548zm0-2.303h1.548v1.536h-1.548zm0-2.304h1.548v1.536h-1.548zm0-2.304h1.548v1.536h-1.548v-1.536zm0-2.303h1.548v1.535h-1.548zm2.322 16.126h1.547v1.535h-1.547zm0-2.304h1.547v1.536h-1.547zm0-2.304h1.547v1.536h-1.547zm0-2.304h1.547v1.536h-1.547zm0-2.303h1.547v1.536h-1.547zm0-2.304h1.547v1.536h-1.547zm0-2.304h1.547v1.536h-1.547v-1.536zm0-2.303h1.547v1.535h-1.547zm-9.285-3.072h1.547v1.536h-1.547zm2.32 0h1.548v1.536h-1.545v-1.536zm2.322 0h1.548v1.536h-1.547v-1.536zm2.321 0h1.548v1.536h-1.548zm2.322 0h1.547v1.536h-1.547zm-2.322-2.304h1.548v1.536h-1.548zm-2.32 0h1.547v1.536h-1.547zm-2.322 0h1.547v1.536h-1.545v-1.536zm-2.321-2.303h1.547v1.536h-1.547v-1.536zm2.32 0h1.548v1.536h-1.545v-1.536zm2.322 0h1.548v1.536h-1.547v-1.536zm2.321 0h1.548v1.536h-1.548v-1.536zm2.322 0h1.547v1.536h-1.547v-1.536zm-2.322-2.304h1.548v1.536h-1.548zm-2.32 0h1.547v1.536h-1.547zm0-2.304h1.547v1.536h-1.547zm-2.322 2.304h1.547v1.536h-1.545v-1.536zm-23.985 26.109h1.547v1.535h-1.547zm0-2.304h1.547v1.536h-1.547zm0-2.304h1.547v1.536h-1.547zm0-2.304h1.547v1.536h-1.547zm0-2.303h1.547v1.536h-1.547zm0-2.304h1.547v1.536h-1.547zm0-2.304h1.547v1.536h-1.547zm0-2.303h1.547v1.535h-1.547zm2.32 16.126h1.548v1.535h-1.547v-1.535zm0-2.304h1.548v1.536h-1.547v-1.536zm0-2.304h1.548v1.536h-1.547v-1.536zm0-2.304h1.548v1.536h-1.547v-1.536zm0-2.303h1.548v1.536h-1.547v-1.536zm0-2.304h1.548v1.536h-1.547v-1.536zm0-2.304h1.548v1.536h-1.547v-1.536zm0-2.303h1.548v1.535h-1.547v-1.535zm2.322 16.126h1.548v1.535h-1.548zm0-2.304h1.548v1.536h-1.548zm0-2.304h1.548v1.536h-1.548zm0-2.304h1.548v1.536h-1.548zm0-2.303h1.548v1.536h-1.548zm0-2.304h1.548v1.536h-1.548zm0-2.304h1.548v1.536h-1.548v-1.536zm0-2.303h1.548v1.535h-1.548zm2.321 16.126h1.548v1.535h-1.548zm0-2.304h1.548v1.536h-1.548zm0-2.304h1.548v1.536h-1.548zm0-2.304h1.548v1.536h-1.548zm0-2.303h1.548v1.536h-1.548zm0-2.304h1.548v1.536h-1.548zm0-2.304h1.548v1.536h-1.548v-1.536zm0-2.303h1.548v1.535h-1.548zm2.322 16.126h1.547v1.535h-1.547zm0-2.304h1.547v1.536h-1.547zm0-2.304h1.547v1.536h-1.547zm0-2.304h1.547v1.536h-1.547zm0-2.303h1.547v1.536h-1.547zm0-2.304h1.547v1.536h-1.547zm0-2.304h1.547v1.536h-1.547v-1.536zm0-2.303h1.547v1.535h-1.547zm-9.285-3.072h1.547v1.536h-1.547zm2.32 0h1.548v1.536h-1.547v-1.536zm2.322 0h1.548v1.536h-1.548zm2.321 0h1.548v1.536h-1.548zm2.322 0h1.547v1.536h-1.547zm-2.322-2.304h1.548v1.536h-1.548zm-2.32 0h1.547v1.536h-1.548v-1.536zm-2.322 0h1.546v1.536h-1.547v-1.536zm-2.321-2.303h1.547v1.536h-1.547v-1.536zm2.32 0h1.548v1.536h-1.547v-1.536zm2.322 0h1.548v1.536h-1.548v-1.536zm2.321 0h1.548v1.536h-1.548v-1.536zm2.322 0h1.547v1.536h-1.547v-1.536zm-2.322-2.304h1.548v1.536h-1.548v-1.536zm-2.32 0h1.547v1.536h-1.548v-1.536zm0-2.304h1.547v1.536h-1.548v-1.536zm-2.322 2.304h1.546v1.536h-1.547v-1.536z" fill="#2b3e51"/></g><path d="m15.375 143.958v10.557h-5.765v-10.557h-2.403v-3.839h129.728v3.839h-2.402v10.557h-5.766v-10.557h-27.867v10.557h-5.766v-10.557h-46.126v10.557h-5.765v-10.557z" fill="#bdc3c7"/></g><g transform="translate(0 131.482)"><g transform="translate(11.05)"><path d="m53.813 35.99v-9.598h19.22v9.597h19.217v9.598h14.415v9.597h19.219v76.777h-124.924v-76.777h19.22v-9.597h14.414v-9.598h19.22z" fill="#fff"/><path d="m17.297 97.958a12.9 12.9 0 0 1 -3.363-8.704c0-7.156 5.808-12.956 12.973-12.956 7.164 0 12.972 5.8 12.972 12.956a12.9 12.9 0 0 1 -3.363 8.704v1.373h2.403v2.88h2.402v29.75h-28.829v-29.75h2.403v-2.88h2.402zm73.032 0a12.9 12.9 0 0 1 -3.363-8.704c0-7.156 5.808-12.956 12.973-12.956s12.973 5.8 12.973 12.956a12.9 12.9 0 0 1 -3.364 8.704v1.373h2.403v2.88h2.402v29.75h-28.828v-29.75h2.402v-2.88h2.402zm-36.516 0a12.9 12.9 0 0 1 -3.363-8.704c0-7.156 5.808-12.956 12.973-12.956 7.164 0 12.973 5.8 12.973 12.956a12.9 12.9 0 0 1 -3.364 8.704v1.373h2.403v2.88h2.402v29.75h-28.829v-29.75h2.403v-2.88h2.402z" fill="#2b3e51"/><g fill="#fff"><path d="m20.18 35.989h5.766v10.077h-5.766z"/><path d="m19.219 36.47c0-2.12 1.72-3.84 3.844-3.84a3.841 3.841 0 0 1 3.844 3.84z"/><path d="m22.582 27.832h1v6.718h-1z"/><path d="m120.119 45.107h5.766v10.077h-5.766z"/><path d="m119.158 45.587c0-2.12 1.72-3.84 3.844-3.84a3.841 3.841 0 0 1 3.844 3.84z"/><path d="m122.521 36.949h1v6.718h-1z"/><path d="m.961 45.107h5.766v10.077h-5.766z"/><path d="m0 45.587c0-2.12 1.72-3.84 3.844-3.84a3.841 3.841 0 0 1 3.844 3.84z"/><path d="m3.363 36.949h1v6.718h-1z"/><path d="m34.594 26.392h5.766v10.077h-5.766z"/><path d="m33.633 26.872c0-2.12 1.721-3.839 3.844-3.839a3.841 3.841 0 0 1 3.844 3.84h-7.688z"/><path d="m36.997 18.235h1v6.718h-1z"/><path d="m86.486 26.392h5.766v10.077h-5.766z"/><path d="m85.525 26.872c0-2.12 1.72-3.839 3.843-3.839a3.841 3.841 0 0 1 3.844 3.84h-7.687z"/><path d="m88.888 18.235h1v6.718h-1z"/><path d="m59.1237602 12.4511015h8.8002859v15.3807724h-8.8002859z"/><path d="m57.657 13.184a5.863 5.863 0 0 1 5.867-5.86 5.863 5.863 0 0 1 5.867 5.86z"/><path d="m62.791 0h1.467v10.254h-1.467z"/><path d="m100.9 35.989h5.766v10.077h-5.766z"/><path d="m99.939 36.47c0-2.12 1.72-3.84 3.844-3.84a3.841 3.841 0 0 1 3.843 3.84h-7.686z"/><path d="m103.302 27.832h1v6.718h-1z"/></g></g><path d="m7.688 131.002h133.572v1.919h-133.572z" fill="#ecf0f1"/><path d="m5.76570458 132.921191h137.41595942v1.919439h-137.41595942z" fill="#fff"/><path d="m3.84380306 134.84063h141.25976194v1.91944h-141.25976194z" fill="#ecf0f1"/><path d="m1.922 136.76h145.104v1.919h-145.104z" fill="#fff"/><path d="m1.922 138.68h145.104v1.919h-145.104z" fill="#ecf0f1"/><path d="m0 140.599h148.947v1.919h-148.947z" fill="#fff"/><path d="m18.258 68.62h2.883v2.88h-2.883zm0-5.758h2.883v2.879h-2.883v-2.88zm5.766 5.758h2.883v2.88h-2.883zm0-5.758h2.883v2.879h-2.883v-2.88zm5.765 5.758h2.883v2.88h-2.882v-2.88zm0-5.758h2.883v2.879h-2.882v-2.88zm5.766 5.758h2.883v2.88h-2.883zm0-5.758h2.883v2.879h-2.883v-2.88zm17.297 5.758h2.883v2.88h-2.883zm0-5.758h2.883v2.879h-2.883v-2.88zm5.766 5.758h2.883v2.88h-2.883zm0-5.758h2.883v2.879h-2.883v-2.88zm17.297 5.758h2.883v2.88h-2.883zm0-5.758h2.883v2.879h-2.883v-2.88zm5.766 5.758h2.883v2.88h-2.884v-2.88zm0-5.758h2.883v2.879h-2.884v-2.88zm17.297 5.758h2.883v2.88h-2.883zm0-5.758h2.883v2.879h-2.883v-2.88zm5.766 5.758h2.882v2.88h-2.882zm0-5.758h2.882v2.879h-2.882v-2.88zm-63.424 5.758h2.883v2.88h-2.883zm0-5.758h2.883v2.879h-2.883v-2.88zm5.766 5.758h2.882v2.88h-2.882zm0-5.758h2.882v2.879h-2.882v-2.88zm17.297 5.758h2.883v2.88h-2.883zm0-5.758h2.883v2.879h-2.883v-2.88zm5.765 5.758h2.883v2.88h-2.881v-2.88zm0-5.758h2.883v2.879h-2.881v-2.88zm17.298 5.758h2.882v2.88h-2.882zm0-5.758h2.882v2.879h-2.882v-2.88zm5.765 5.758h2.883v2.88h-2.883zm0-5.758h2.883v2.879h-2.883v-2.88zm17.297 5.758h2.883v2.88h-2.883zm0-5.758h2.883v2.879h-2.883v-2.88zm5.766 5.758h2.883v2.88h-2.883zm0-5.758h2.883v2.879h-2.883v-2.88zm5.766 5.758h2.883v2.88h-2.883zm0-5.758h2.883v2.879h-2.883v-2.88zm5.765 5.758h2.883v2.88h-2.883zm0-5.758h2.883v2.879h-2.883v-2.88zm-92.25-5.759h2.882v2.88h-2.883v-2.88zm0-5.758h2.882v2.88h-2.883v-2.88zm5.765 5.758h2.883v2.88h-2.883zm0-5.758h2.883v2.88h-2.883zm17.297 5.758h2.883v2.88h-2.883zm0-5.758h2.883v2.88h-2.883zm5.766 5.758h2.883v2.88h-2.883zm0-5.758h2.883v2.88h-2.883zm17.297 5.758h2.883v2.88h-2.883zm0-5.758h2.883v2.88h-2.883zm5.766 5.758h2.882v2.88h-2.882zm0-5.758h2.882v2.88h-2.882zm-40.36 5.758h2.882v2.88h-2.882zm0-5.758h2.882v2.88h-2.882zm5.765 5.758h2.883v2.88h-2.883zm0-5.758h2.883v2.88h-2.883zm17.297 5.758h2.883v2.88h-2.881v-2.88zm0-5.758h2.883v2.88h-2.881v-2.88zm5.766 5.758h2.883v2.88h-2.883zm0-5.758h2.883v2.88h-2.883zm-5.764-17.275h2.883v2.88h-2.883zm0-5.758h2.883v2.879h-2.883v-2.88zm5.766 5.758h2.883v2.88h-2.883zm0-5.758h2.883v2.879h-2.883v-2.88zm-11.532 17.275h2.883v2.879h-2.883v-2.88zm0-5.759h2.883v2.88h-2.883zm5.765 5.759h2.883v2.879h-2.882v-2.88zm0-5.759h2.883v2.88h-2.882v-2.88zm17.298 5.759h2.882v2.879h-2.882v-2.88zm0-5.759h2.882v2.88h-2.882zm5.765 5.759h2.883v2.879h-2.883v-2.88zm0-5.759h2.883v2.88h-2.883zm-40.36 5.759h2.883v2.879h-2.883v-2.88zm0-5.759h2.883v2.88h-2.883zm5.766 5.759h2.883v2.879h-2.883v-2.88zm0-5.759h2.883v2.88h-2.883zm17.297 5.759h2.883v2.879h-2.883v-2.88zm0-5.759h2.883v2.88h-2.883zm5.766 5.759h2.883v2.879h-2.884v-2.88zm0-5.759h2.883v2.88h-2.884v-2.88zm11.531 17.275h2.883v2.88h-2.883zm0-5.758h2.883v2.88h-2.883zm5.766 5.758h2.883v2.88h-2.883zm0-5.758h2.883v2.88h-2.883zm5.766 5.758h2.882v2.88h-2.882zm0-5.758h2.882v2.88h-2.882zm5.765 5.758h2.883v2.88h-2.883zm0-5.758h2.883v2.88h-2.883z" fill="#ecf0f1"/></g><g fill="#2b3e51"><path d="m18.258 194.343h112.431v2.879h-112.431z"/><ellipse cx="74.714" cy="175.869" rx="6.006" ry="5.998"/></g></g></g></g></svg>