<svg height="600" viewBox="0 0 600 600" width="600" xmlns="http://www.w3.org/2000/svg" xmlns:xlink="http://www.w3.org/1999/xlink"><defs><circle id="a" cx="225" cy="225" r="225"/><mask id="b" fill="#fff"><use fill="#fff" fill-rule="evenodd" xlink:href="#a"/></mask></defs><g fill="none" fill-rule="evenodd"><g transform="translate(76 75)"><use fill="#2c97de" xlink:href="#a"/><path d="m28 349h397v131h-397z" fill="#1fce6d" mask="url(#b)"/></g><g fill="#fff"><path d="m95 152h80v22h-80z"/><circle cx="174" cy="160" r="14"/><circle cx="94.5" cy="158.5" r="15.5"/><circle cx="148.5" cy="144.5" r="29.5"/><circle cx="111.5" cy="146.5" r="11.5"/></g><g fill="#fff"><path d="m433 181h80v22h-80z"/><circle cx="512" cy="189" r="14"/><circle cx="432.5" cy="187.5" r="15.5"/><circle cx="486.5" cy="173.5" r="29.5"/><circle cx="449.5" cy="175.5" r="11.5"/></g><g fill="#ffe500" stroke="#fff" stroke-linecap="round" stroke-linejoin="round" stroke-width="5"><g transform="translate(112 187)"><path d="m36.3141361 1.5h65.1715269"/><path d="m0 1.5h12.2827225"/></g><g transform="translate(401 216)"><path d="m26.3141361 1.5h65.1715274"/><path d="m0 1.5h12.2827225"/></g><g transform="translate(388 101)"><path d="m12.5915092 1h46.0451009"/><path d="m.44334504 1h2.23466543"/></g></g><g transform="translate(11 142)"><path d="m10 182h560v100h-560z" fill="#ecf0f1"/><path d="m0 182h580v10h-580z" fill="#fff"/><path d="m84.5833333 86h410.8333337l84.583333 96h-580z" fill="#00bd9c"/><path d="m246 82h88v100h-88z" fill="#f2c500"/><path d="m252 46h76v36h-76z" fill="#bdc3c7"/><path d="m262 98h56v70h-56z" fill="#ecf0f1"/><path d="m252 36h76v12h-76z" fill="#ecf0f1"/><path d="m275 53h30v45h-30z" fill="#e94b35"/><path d="m290 .92773438 38 35.07226562h-76z" fill="#fff"/><path d="m290 43 15 10h-30z" fill="#e94b35"/><circle cx="290" cy="64" fill="#fff" r="11"/><path d="m235 210h110v8h-110z" fill="#00bd9c"/><path d="m286 108h8v50h-8z" fill="#2b3e51"/><path d="m301 108h8v50h-8z" fill="#2b3e51"/><path d="m271 108h8v50h-8z" fill="#2b3e51"/><path d="m240 208h4v74h-4z" fill="#00bd9c"/><path d="m336 208h4v74h-4z" fill="#00bd9c"/><path d="m235 202h110v8h-110z" fill="#fff"/><g fill="#2b3e51"><path d="m259 223h63v59h-63z"/><g><path d="m172 203h24v4h-24z"/><path d="m172 209h24v4h-24z"/></g><g><path d="m107 203h24v4h-24z"/><path d="m107 209h24v4h-24z"/></g><g><path d="m40 203h24v4h-24z"/><path d="m40 209h24v4h-24z"/></g></g><path d="m162 218h44v50h-44z" fill="#e94b35"/><path d="m30 218h44v50h-44z" fill="#fff"/><path d="m97 218h44v50h-44z" fill="#fff"/><g fill="#2b3e51"><path d="m511 203h24v4h-24z"/><path d="m511 209h24v4h-24z"/></g><g fill="#2b3e51"><path d="m446 203h24v4h-24z"/><path d="m446 209h24v4h-24z"/></g><g fill="#2b3e51"><path d="m379 203h24v4h-24z"/><path d="m379 209h24v4h-24z"/></g><path d="m501 218h44v50h-44z" fill="#fff"/><path d="m369 218h44v50h-44z" fill="#e94b35"/><path d="m436 218h44v50h-44z" fill="#fff"/></g></g></svg>