<svg height="600" width="600" xmlns="http://www.w3.org/2000/svg" xmlns:xlink="http://www.w3.org/1999/xlink"><defs><ellipse id="a" cx="225" cy="225.5" rx="225" ry="225.5"/><mask id="b" fill="#fff"><use fill-rule="evenodd" xlink:href="#a"/></mask></defs><g fill="none" fill-rule="evenodd"><g transform="translate(76 75)"><use fill="#2c97de" xlink:href="#a"/><path d="M28 349.776h397v131.291H28z" fill="#1fce6d" mask="url(#b)"/><g fill="#fff" transform="translate(3 40.089)"><path d="M16 37.082h80v22.049H16z"/><ellipse cx="95" cy="45.1" rx="14" ry="14.031"/><ellipse cx="15.5" cy="43.597" rx="15.5" ry="15.534"/><ellipse cx="69.5" cy="29.566" rx="29.5" ry="29.566"/><ellipse cx="32.5" cy="31.57" rx="11.5" ry="11.526"/></g><g fill="#fff" transform="translate(341 69.154)"><path d="M16 37.082h80v22.049H16z"/><ellipse cx="95" cy="45.1" rx="14" ry="14.031"/><ellipse cx="15.5" cy="43.597" rx="15.5" ry="15.534"/><ellipse cx="69.5" cy="29.566" rx="29.5" ry="29.566"/><ellipse cx="32.5" cy="31.57" rx="11.5" ry="11.526"/></g><g fill="#ffe500" stroke="#fff" stroke-linecap="round" stroke-linejoin="round" stroke-width="5"><path d="M72.314 113.752h65.172m-101.486 0h12.283"/><path d="M351.314 142.817h65.172m-91.486 0h12.283"/><path d="M324.592 27.06h46.045m-58.194 0h2.235"/></g></g><path d="M240.813 349.556h120.373V424H240.813z" fill="#c23824"/><g fill="#2b3e51"><path d="M248.337 282.556h105.326v14.888H248.337zm7.523-52.112h90.28v14.889h-90.28zm7.523-44.666h75.234v14.889h-75.234zm7.524-37.222h60.187v14.889h-60.187zm7.523-29.778h45.14v14.889h-45.14zM285.953 89h30.094v14.889h-30.094zm7.524-22.333h15.046v7.444h-15.046z"/></g><path d="M240.813 297.444h120.374l71.879 49.788c1.852 1.283 1.535 2.324-.725 2.324H169.66c-2.253 0-2.576-1.041-.725-2.324l71.88-49.788zm10.031-52.11h100.312l59.189 35.14c1.936 1.15 1.672 2.082-.58 2.082H192.234c-2.256 0-2.52-.93-.58-2.081l59.19-35.142zm10.032-44.667h80.248l46.65 27.695c1.936 1.15 1.675 2.082-.583 2.082H214.81c-2.258 0-2.52-.932-.582-2.082l46.649-27.695zm10.03-37.223h60.187l34.112 20.253c1.936 1.15 1.668 2.08-.585 2.08H237.38c-2.259 0-2.522-.93-.585-2.08l34.112-20.253zm6.688-29.777h46.812l26.345 13.407c1.608.818 1.444 1.482-.355 1.482h-98.792c-1.804 0-1.972-.66-.355-1.482zm6.687-29.778h33.438l18.77 13.372c1.175.838.961 1.517-.484 1.517h-70.01c-1.442 0-1.66-.679-.483-1.517l18.77-13.372zm3.344-29.778h26.75l15.16 13.502c.86.766.613 1.387-.53 1.387h-56.01c-1.153 0-1.391-.62-.53-1.387z" fill="#f2c500"/><path d="M293.477 44.333h15.046v7.445h-15.046z" fill="#2b3e51"/><path d="M290.969 51.778h20.061l11.46 13.606c.596.709.333 1.283-.595 1.283h-41.791c-.925 0-1.198-.566-.594-1.283l11.459-13.605zm3.344-14.889h13.374l7.528 6.703c.46.41.334.741-.275.741h-27.88c-.611 0-.737-.329-.275-.74z" fill="#f2c500"/><path d="M301 22l7.523 22.333h-15.046z" fill="#f2c500"/><path d="M391.28 349.556h7.523V424h-7.523zm-188.353 0h7.469V424h-7.469z" fill="#2b3e51"/><g><g fill="#e94b35"><path d="M274.857 357v65.73a22.44 22.44 0 0 1-7.47 1.27c-12.375 0-25.762-2.276-25.762-22.333 0-17.053 8.79-23.578 19.029-25.151a14.831 14.831 0 0 1-.736-4.627c0-8.223 6.689-14.89 14.94-14.89z"/><path d="M125.469 394.222h149.388V424H125.469z"/><path d="M125.469 364.444h22.408V424h-22.408z"/></g><path d="M145.917 356.999H127.43l-11.554-14.889h41.594z" fill="#bdc3c7"/><path d="M145.917 364.445H127.43l-11.554-14.89h41.594z" fill="#2b3e51"/><path d="M147.877 371.888h-22.409L115.877 357h41.594z" fill="#bdc3c7"/><path d="M132.939 379.333h7.469v37.222h-7.469zm14.939 22.334h119.51v14.889h-119.51z" fill="#f59d00"/><g fill="#e94b35"><path d="M327.143 357v65.73a22.44 22.44 0 0 0 7.47 1.27c12.375 0 25.762-2.276 25.762-22.333 0-17.053-8.79-23.578-19.029-25.151a14.831 14.831 0 0 0 .736-4.627c0-8.223-6.689-14.89-14.94-14.89z"/><path d="M476.531 394.222H327.143V424h149.388z"/><path d="M476.531 364.444h-22.408V424h22.408z"/></g><path d="M456.083 356.999h18.486l11.554-14.889H444.53z" fill="#bdc3c7"/><path d="M456.083 364.445h18.486l11.554-14.89H444.53z" fill="#2b3e51"/><path d="M454.123 371.888h22.409L486.123 357H444.53z" fill="#bdc3c7"/><path d="M469.061 379.333h-7.469v37.222h7.469zm-14.939 22.334h-119.51v14.889h119.51z" fill="#f59d00"/></g></g></svg>