<svg height="600" width="600" xmlns="http://www.w3.org/2000/svg" xmlns:xlink="http://www.w3.org/1999/xlink"><defs><circle id="a" cx="225" cy="225" r="225"/><path id="b" d="M18.339 0h85.93l18.338 234.007H0z"/><mask id="c" fill="#fff"><use fill-rule="evenodd" xlink:href="#a"/></mask><mask id="d" fill="#fff"><use fill-rule="evenodd" xlink:href="#b"/></mask></defs><g fill="none" fill-rule="evenodd"><g transform="translate(76 75)"><use fill="#2c97de" xlink:href="#a"/><path d="M28 349h397v131H28z" fill="#1fce6d" mask="url(#c)"/><g fill="#fff" transform="translate(3 40)"><path d="M16 37h80v22H16z"/><circle cx="95" cy="45" r="14"/><circle cx="15.5" cy="43.5" r="15.5"/><circle cx="69.5" cy="29.5" r="29.5"/><circle cx="32.5" cy="31.5" r="11.5"/></g><g fill="#fff" transform="translate(341 69)"><path d="M16 37h80v22H16z"/><circle cx="95" cy="45" r="14"/><circle cx="15.5" cy="43.5" r="15.5"/><circle cx="69.5" cy="29.5" r="29.5"/><circle cx="32.5" cy="31.5" r="11.5"/></g><g fill="#ffe500" stroke="#fff" stroke-linecap="round" stroke-linejoin="round" stroke-width="5"><path d="M72.314 113.5h65.172M36 113.5h12.283"/><path d="M351.314 142.5h65.172m-91.486 0h12.283"/><path d="M324.592 27h46.045m-58.194 0h2.235"/></g></g><g transform="translate(219 36)"><path d="M48.204 64.273h69.687l7.86 44.336H40.345z" fill="#ecf0f1"/><path d="M38.773 125.661h88.55v2.623h-88.55z" fill="#ecf0f1"/><path d="M37.464 123.038h91.169v2.623H37.464z" fill="#fff"/><path d="M36.154 120.414h93.789v2.623H36.154zm-2.62-5.247h99.029v2.623H33.534z" fill="#ecf0f1"/><path d="M32.224 112.544h101.649v2.623H32.224z" fill="#fff"/><path d="M30.914 109.92h104.268v2.624H30.914z" fill="#ecf0f1"/><g fill="#2b3e51"><path d="M30.914 107.297h104.268v2.624H30.914zm0-7.87h104.268v2.623H30.914zm3.93 18.364h96.409v2.623H34.844z"/></g><path d="M12.575 362.29h140.946v2.623H12.575z" fill="#ecf0f1"/><path d="M9.955 364.913H156.14v2.623H9.955z" fill="#fff"/><path d="M7.335 367.537H158.76v2.623H7.335z" fill="#ecf0f1"/><path d="M4.716 370.16h156.665v2.623H4.716z" fill="#fff"/><path d="M2.096 372.784H164v2.623H2.096z" fill="#ecf0f1"/><path d="M0 375.407h164v12.592H0z" fill="#2b3e51"/><g transform="translate(21.744 128.284)"><use fill="#fff" xlink:href="#b"/><path d="M110.294 186.13l3.144-10.625 4.191 14.166H2.358l4.192-14.166 3.143 10.625 3.144-10.625 3.144 10.625 3.144-10.625 3.143 10.625 3.144-10.625 3.144 10.625 3.144-10.625 3.143 10.625 3.144-10.625 3.144 10.625 3.144-10.625 3.144 10.625 3.143-10.625 3.144 10.625 3.144-10.625 3.144 10.625 3.143-10.625 3.144 10.625 3.144-10.625 3.144 10.625 3.143-10.625 3.144 10.625L82 175.505l3.144 10.625 3.144-10.625 3.143 10.625 3.144-10.625 3.144 10.625 3.144-10.625 3.143 10.625 3.144-10.625zm3.144 8.788h2.62v7.87h-2.62zm-6.288 0h2.62v7.87h-2.62zm-6.287 0h2.62v7.87h-2.62zm-6.288 0h2.62v7.87h-2.62zm-6.287 0h2.62v7.87h-2.62zm-6.288 0h2.62v7.87H82zm-6.288 0h2.62v7.87h-2.62zm-6.287 0h2.62v7.87h-2.62zm-6.288 0h2.62v7.87h-2.62zm-6.287 0h2.62v7.87h-2.62zm-6.288 0h2.62v7.87h-2.62zm-6.287 0h2.62v7.87h-2.62zm-6.288 0h2.62v7.87h-2.62zm-6.287 0h2.62v7.87H31.7zm-6.288 0h2.62v7.87h-2.62zm-6.287 0h2.62v7.87h-2.62zm-6.288 0h2.62v7.87h-2.62zm-6.287 0h2.62v7.87H6.55zm103.744 9.182h2.62v2.623h-2.62zm-6.288 0h2.62v2.623h-2.62zm-6.287 0h2.62v2.623h-2.62zm-6.288 0h2.62v2.623h-2.62zm-6.287 0h2.62v2.623h-2.62zm-6.288 0h2.62v2.623h-2.62zm-6.287 0h2.62v2.623h-2.62zm-6.288 0h2.62v2.623h-2.62zm-6.287 0h2.62v2.623h-2.62zm-6.288 0h2.62v2.623h-2.62zm-6.287 0h2.62v2.623h-2.62zm-6.288 0h2.62v2.623h-2.62zm-6.288 0h2.62v2.623h-2.62zm-6.287 0h2.62v2.623h-2.62zm-6.288 0h2.62v2.623h-2.62zm-6.287 0h2.62v2.623h-2.62zm-6.288 0h2.62v2.623h-2.62zm100.6 13.117h2.62v2.623h-2.62zm-6.287 0h2.62v2.623h-2.62zm-6.287 0h2.62v2.623h-2.62zm-6.288 0h2.62v2.623h-2.62zm-6.287 0h2.62v2.623h-2.62zm-6.288 0h2.62v2.623h-2.62zm-6.287 0h2.62v2.623h-2.62zm-6.288 0h2.62v2.623h-2.62zm-6.287 0h2.62v2.623h-2.62zm-6.288 0h2.62v2.623h-2.62zm-6.287 0h2.62v2.623h-2.62zm-6.288 0h2.62v2.623h-2.62zm-6.288 0h2.62v2.623h-2.62zm-6.287 0h2.62v2.623h-2.62zm-6.288 0h2.62v2.623h-2.62zm-6.287 0h2.62v2.623h-2.62zm-6.288 0h2.62v2.623h-2.62zm103.745-9.182h2.62v7.87h-2.62zm-6.288 0h2.62v7.87h-2.62zm-6.287 0h2.62v7.87h-2.62zm-6.288 0h2.62v7.87h-2.62zm-6.287 0h2.62v7.87h-2.62zm-6.288 0h2.62v7.87H82zm-6.288 0h2.62v7.87h-2.62zm-6.287 0h2.62v7.87h-2.62zm-6.288 0h2.62v7.87h-2.62zm-6.287 0h2.62v7.87h-2.62zm-6.288 0h2.62v7.87h-2.62zm-6.287 0h2.62v7.87h-2.62zm-6.288 0h2.62v7.87h-2.62zm-6.287 0h2.62v7.87H31.7v-7.87zm-6.288 0h2.62v7.87h-2.62zm-6.287 0h2.62v7.87h-2.62zm-6.288 0h2.62v7.87h-2.62zm-6.287 0h2.62v7.87H6.55v-7.87zm106.888 13.117h2.62v7.87h-2.62zm-6.288 0h2.62v7.87h-2.62zm-6.287 0h2.62v7.87h-2.62zm-6.288 0h2.62v7.87h-2.62zm-6.287 0h2.62v7.87h-2.62zm-6.288 0h2.62v7.87H82zm-6.288 0h2.62v7.87h-2.62zm-6.287 0h2.62v7.87h-2.62zm-6.288 0h2.62v7.87h-2.62zm-6.287 0h2.62v7.87h-2.62zm-6.288 0h2.62v7.87h-2.62zm-6.287 0h2.62v7.87h-2.62zm-6.288 0h2.62v7.87h-2.62zm-6.287 0h2.62v7.87H31.7v-7.87zm-6.288 0h2.62v7.87h-2.62zm-6.287 0h2.62v7.87h-2.62zm-6.288 0h2.62v7.87h-2.62zm-6.287 0h2.62v7.87H6.55v-7.87zM11.003 6.296h98.505v4.197H11.003zm0-4.722h98.505v2.623H11.003zm0 11.018h98.505v5.247H11.003z" fill="#ecf0f1" mask="url(#d)"/><path d="M10.741 25.185h98.505v2.099H10.741zm0 9.444h98.505v2.099H10.741z" fill="#2b3e51" mask="url(#d)"/><g fill="#e94b35"><path d="M52.92 12.592h14.671l-2.62 2.624 2.62 2.623h-14.67l2.619-2.623zm41.917 0h14.671l-2.62 2.624 2.62 2.623h-14.67l2.619-2.623zm-83.834 0h14.671l-2.62 2.624 2.62 2.623h-14.67l2.619-2.623zm5.764-11.018h8.907v2.623h-8.907zm39.035 0h8.907v2.623h-8.907zm39.035 0h8.907v2.623h-8.907z" mask="url(#d)"/></g></g><path d="M82 0l3.668 16.79h-7.336z" fill="#e94b35"/><ellipse cx="82" cy="23.873" fill="#fff" rx="10.479" ry="10.494"/><ellipse cx="82" cy="44.073" fill="#ecf0f1" rx="20.173" ry="20.2"/><path d="M48.204 64.273h69.687l7.86-10.493H40.345z" fill="#fff"/><g fill="#2b3e51"><path d="M122.466 99.427h2.544v10.493h-2.544zm5.087 0h2.543v10.493h-2.543zm5.086 0h2.543v10.493h-2.543zm-15.259 0h2.543v10.493h-2.543zm-5.086 0h2.543v10.493h-2.543zm-5.086 0h2.543v10.493h-2.543zm-5.087 0h2.544v10.493h-2.544zm-5.086 0h2.543v10.493h-2.543zm-5.086 0h2.543v10.493h-2.543zm-5.086 0h2.543v10.493h-2.543zm-5.087 0h2.543v10.493h-2.543zm-5.086 0h2.543v10.493H76.69zm-5.086 0h2.543v10.493h-2.543zm-5.086 0h2.543v10.493h-2.543zm-5.087 0h2.543v10.493h-2.543zm-5.086 0h2.543v10.493h-2.543zm-5.086 0h2.543v10.493h-2.543zm-5.086 0h2.543v10.493h-2.543zm-5.087 0h2.543v10.493h-2.543zm-5.086 0h2.543v10.493H36zm-5.086 0h2.543v10.493h-2.543z"/><path d="M40.345 52.205h85.406v1.574H40.345zm0-5.509h85.406v1.574H40.345z"/><path d="M115.335 47.483h2.083v5.51h-2.083v-5.511zm4.167 0h2.083v5.51h-2.083v-5.511zm4.166 0h2.083v5.51h-2.083v-5.511zm-12.499 0h2.083v5.51h-2.083v-5.511zm-4.166 0h2.083v5.51h-2.083v-5.511zm-4.166 0h2.083v5.51h-2.083v-5.511zm-4.166 0h2.083v5.51h-2.083v-5.511zm-4.166 0h2.083v5.51h-2.083v-5.511zm-4.166 0h2.083v5.51h-2.083v-5.511zm-4.167 0h2.084v5.51h-2.084v-5.511zm-4.166 0h2.083v5.51h-2.083v-5.511zm-4.166 0h2.083v5.51H77.84v-5.511zm-4.166 0h2.083v5.51h-2.082v-5.511zm-4.166 0h2.083v5.51h-2.083v-5.511zm-4.166 0h2.083v5.51h-2.083v-5.511zm-4.166 0h2.083v5.51h-2.084v-5.511zm-4.166 0h2.083v5.51H57.01v-5.511zm-4.167 0h2.083v5.51h-2.083v-5.511zm-4.166 0h2.083v5.51h-2.083v-5.511zm-4.166 0h2.084v5.51h-2.084v-5.511zm-4.166 0h2.083v5.51h-2.083v-5.511z"/></g></g></g></svg>