<svg height="600" viewBox="0 0 600 600" width="600" xmlns="http://www.w3.org/2000/svg" xmlns:xlink="http://www.w3.org/1999/xlink"><defs><circle id="a" cx="225" cy="225" r="225"/><mask id="b" fill="#fff"><use fill="#fff" fill-rule="evenodd" xlink:href="#a"/></mask></defs><g fill="none" fill-rule="evenodd"><g transform="translate(76 75)"><use fill="#2c97de" xlink:href="#a"/><path d="m28 349h397v131h-397z" fill="#1fce6d" mask="url(#b)"/></g><g fill="#fff"><path d="m95 152h80v22h-80z"/><circle cx="174" cy="160" r="14"/><circle cx="94.5" cy="158.5" r="15.5"/><circle cx="148.5" cy="144.5" r="29.5"/><circle cx="111.5" cy="146.5" r="11.5"/></g><g fill="#fff"><path d="m433 181h80v22h-80z"/><circle cx="512" cy="189" r="14"/><circle cx="432.5" cy="187.5" r="15.5"/><circle cx="486.5" cy="173.5" r="29.5"/><circle cx="449.5" cy="175.5" r="11.5"/></g><g fill="#ffe500" stroke="#fff" stroke-linecap="round" stroke-linejoin="round" stroke-width="5"><g transform="translate(112 187)"><path d="m36.3141361 1.5h65.1715269"/><path d="m0 1.5h12.2827225"/></g><g transform="translate(401 216)"><path d="m26.3141361 1.5h65.1715274"/><path d="m0 1.5h12.2827225"/></g><g transform="translate(388 101)"><path d="m12.5915092 1h46.0451009"/><path d="m.44334504 1h2.23466543"/></g></g><g transform="translate(236 4)"><g transform="translate(15.725806 105.621302)"><path d="m15.725807 0h67.096774v314.378698h-67.096774z" fill="#ecf0f1"/><g fill="#c23824"><path d="m48.2258065 0h2.0967741v314.378698h-2.0967741z"/><path d="m67.0967742 0h2.0967742v314.378698h-2.0967742z"/><path d="m29.3548387 0h2.0967742v314.378698h-2.0967742z"/></g><path d="m12.580645 152.840237h73.387097v3.727811h-73.387097z" fill="#e94b35"/><path d="m0 262.189349h99.596774v3.727811h-99.596774z" fill="#c23824"/><path d="m12.580645 111.83432h73.387097v3.727811h-73.387097z" fill="#e94b35"/><path d="m12.580645 70.828402h73.387097v3.727811h-73.387097z" fill="#e94b35"/></g><g transform="translate(4.193548 299.467456)"><path d="m18.870968 0h83.870968v3.727811h-83.870968z" fill="#e94b35"/><g fill="#fff"><path d="m13.629032 31.686391h94.354839v3.727811h-94.354839z"/><path d="m18.870967 25.473373h83.870968v1.242604h-83.870968z"/><path d="m18.870967 40.384616h83.870968v1.242604h-83.870968z"/><path d="m18.870967 46.597634h83.870968v1.242604h-83.870968z"/><path d="m13.694846 52.810651h94.354839v1.242604h-94.354839z"/><path d="m15.79162 59.023669h94.354839v1.242604h-94.354839z"/><path d="m15.79162 65.236687h94.354839v1.242604h-94.354839z"/><path d="m11.104466 71.449705h101.299649v1.242604h-101.299649z"/><path d="m11.104466 77.662722h101.299649v1.242604h-101.299649z"/><path d="m11.104466 83.87574h101.299649v1.242604h-101.299649z"/><path d="m11.104466 90.088758h101.299649v1.242604h-101.299649z"/><path d="m4.985875 96.301776h108.703723v1.242604h-108.703723z"/><path d="m4.985875 102.514793h108.703723v1.242604h-108.703723z"/><path d="m4.985875 108.727811h108.703723v1.242604h-108.703723z"/><path d="m4.985875 114.940829h111.129032v1.242604h-111.129032z"/><path d="m18.870967 19.260356h83.870968v1.242604h-83.870968z"/><path d="m19.919355 13.047338h81.774194v1.242604h-81.774194z"/><path d="m24.112903 6.83432h73.387097v1.242604h-73.387097z"/></g><g fill="#e94b35"><path d="m20.9677419 3.72781065h6.2903226l-20.96774192 116.80473335h-6.29032258z"/><path d="m94.3548387 3.72781065h6.2903223l20.967742 116.80473335h-6.290322z"/><path d="m77.5806452 3.72781065h6.2903225l10.483871 116.80473335h-6.2903226z"/><path d="m37.7419355 3.72781065h6.2903226l-10.483871 116.80473335h-6.2903226z"/></g></g><path d="m19.919355 98.165681h90.16129v7.455621h-90.16129z" fill="#bdc3c7"/><path d="m15.7258065 105.621302h98.5483875v2.485207h-98.5483875z" fill="#e94b35"/><path d="m28.306452 139.171598h73.387097v3.727811h-73.387097z" fill="#e94b35"/><path d="m9.43548387 78.9053254h111.12903213l-10.483871 19.2603551h-90.1612902z" fill="#227fbb"/><path d="m0 65.236686h130v11.183432h-130z" fill="#2b3e51"/><path d="m0 76.420118h130v2.485207h-130z" fill="#e94b35"/><path d="m0 62.751479h130v2.485207h-130z" fill="#e94b35"/><path d="m52.4193548 55.295858h25.1612904l52.4193548 7.4556213h-130z" fill="#fff"/><path d="m52.419355 52.810651h25.16129v2.485207h-25.16129z" fill="#ecf0f1"/><path d="m0 66.4792899h130v1.2426036h-130zm0 2.4852071h130v1.2426036h-130zm0 2.4852071h130v1.2426036h-130zm0 2.4852071h130v1.2426036h-130z" fill="#ecf0f1"/><path d="m54.516129 47.2189349h20.967742v1.2426036h-20.967742zm1.0483871-4.3491124h18.8709678v1.2426035h-18.8709678zm1.0483871-4.3491124h16.7741936v1.2426035h-16.7741936zm1.0483871-4.3491125h14.6774194v1.2426036h-14.6774194zm1.0483871-4.3491124h12.5806452v1.2426036h-12.5806452zm0-4.3491124h12.5806452v1.2426035h-12.5806452zm1.0483871-5.591716h10.483871v1.2426036h-10.483871zm1.0483871-4.3491124h8.3870968v1.2426035h-8.3870968z" fill="#fff"/><g fill="#e94b35"><path d="m62.9032258 78.9053254h4.1935484v62.1301776h-4.1935484z"/><path d="m92.2580645 78.9053254h4.1935484l-10.483871 62.1301776h-4.1935484z"/><path d="m33.5483871 78.9053254h4.1935484l10.483871 62.1301776h-4.1935484z"/><path d="m125.806452 78.9053254h4.193548l-31.4516129 62.1301776h-4.1935484z"/><path d="m0 78.9053254h4.19354839l31.45161291 62.1301776h-4.1935484z"/><path d="m63.951613 0h2.096774v52.810651h-2.096774z"/><path d="m63.9516129 0h2.0967742l11.5322581 52.8106509h-2.0967742z"/><path d="m63.9516129 0h2.0967742l-11.5322581 52.8106509h-2.0967742z"/></g></g></g></svg>