<svg height="600" width="600" xmlns="http://www.w3.org/2000/svg" xmlns:xlink="http://www.w3.org/1999/xlink"><defs><circle id="a" cx="225" cy="225" r="225"/><mask id="b" fill="#fff"><use fill-rule="evenodd" xlink:href="#a"/></mask></defs><g fill="none" fill-rule="evenodd"><g transform="translate(76 75)"><use fill="#2c97de" xlink:href="#a"/><path d="M28 349h397v131H28z" fill="#1fce6d" mask="url(#b)"/><g fill="#fff" transform="translate(3 40)"><path d="M16 37h80v22H16z"/><circle cx="95" cy="45" r="14"/><circle cx="15.5" cy="43.5" r="15.5"/><circle cx="69.5" cy="29.5" r="29.5"/><circle cx="32.5" cy="31.5" r="11.5"/></g><g fill="#fff" transform="translate(341 69)"><path d="M16 37h80v22H16z"/><circle cx="95" cy="45" r="14"/><circle cx="15.5" cy="43.5" r="15.5"/><circle cx="69.5" cy="29.5" r="29.5"/><circle cx="32.5" cy="31.5" r="11.5"/></g><g fill="#ffe500" stroke="#fff" stroke-linecap="round" stroke-linejoin="round" stroke-width="5"><path d="M72.314 113.5h65.172M36 113.5h12.283"/><path d="M351.314 142.5h65.172m-91.486 0h12.283"/><path d="M324.592 27h46.045m-58.194 0h2.235"/></g></g><path d="M275.792 299.125v112.542H175.584V66.333h252.833v345.334H328.209V298.817c0-14.475-11.734-26.209-26.209-26.209-14.474 0-26.208 11.734-26.208 26.209 0 .103 0 .205.002.308z" fill="#33495f"/><path d="M326.028 288.333c-4.044-9.256-13.28-15.725-24.028-15.725-10.747 0-19.983 6.469-24.027 15.725h-20.681c0-24.691 20.017-44.708 44.708-44.708 24.692 0 44.709 20.017 44.709 44.708z" fill="#f2c500"/><path d="M326.028 288.333c-4.044-9.256-13.28-15.725-24.028-15.725-10.747 0-19.983 6.469-24.027 15.725h-16.056c0-22.137 17.946-40.083 40.083-40.083 22.138 0 40.084 17.946 40.084 40.083z" fill="#fff"/><path d="M328.207 299.125l.002-.308c0-14.475-11.734-26.209-26.209-26.209-14.474 0-26.208 11.734-26.208 26.209 0 .103 0 .205.002.308l-.002 112.542h-4.625V297.275c0-17.029 13.805-30.833 30.833-30.833 17.03 0 30.834 13.804 30.834 30.833 0 .103 0 .206-.002.308l.002 114.084h-4.625V299.125z" fill="#f2c500"/><g fill="#2b3e51"><path d="M169.417 361.717h92.5v9.25h-92.5zm3.083-52.109h84.792v6.167H172.5zm174.209 0h84.792v6.167h-84.792z"/></g><path d="M170.959 300.358h94.042v6.167h-94.042z" fill="#f59d00"/><path d="M164.792 291.108h106.375l-6.167 9.25H170.96z" fill="#f2c500"/><path d="M339.001 300.358h94.042v6.167h-94.042z" fill="#f59d00"/><path d="M332.834 291.108h106.375l-6.167 9.25h-94.041z" fill="#f2c500"/><path d="M342.084 361.717h92.5v9.25h-92.5z" fill="#2b3e51"/><path d="M169.417 54h265.167v12.333H169.417z" fill="#7f8c8d"/><path d="M175.584 66.333h252.833v75.233H175.584z" fill="#94a5a6"/><path d="M169.417 90.383h265.167v12.334H169.417zm231.899 12.334H413v14.8h-11.684zm-23.368 0h11.684v14.8h-11.684zm-23.369 0h11.684v14.8h-11.684zm-23.368 0h11.684v14.8h-11.683v-14.8zm-23.369 0h11.685v14.8h-11.685zm-23.368 0h11.684v14.8h-11.684zm-23.368 0h11.684v14.8h-11.684zm-23.369 0h11.685v14.8h-11.685zm-23.368 0h11.683v14.8h-11.683zm-23.369 0h11.685v14.8H191v-14.8zm70.917 281.816h80.167v27.288h-80.167z" fill="#7f8c8d"/><path d="M261.917 397.792h80.167v6.938h-80.167z" fill="#94a5a6"/><path d="M261.917 391.008h80.167v6.938h-80.167z" fill="#7f8c8d"/><path d="M261.917 383.917h80.167v6.938h-80.167z" fill="#94a5a6"/><path d="M130.104 404.883a8.787 8.787 0 1 1 0-17.575 8.787 8.787 0 0 1 0 17.575zm17.575 0a8.787 8.787 0 1 1 0-17.575 8.787 8.787 0 0 1 0 17.575zm17.575 0a8.787 8.787 0 1 1 0-17.575 8.787 8.787 0 0 1 0 17.575zm17.575 0a8.787 8.787 0 1 1 0-17.575 8.787 8.787 0 0 1 0 17.575zm17.575 0a8.787 8.787 0 1 1 0-17.575 8.787 8.787 0 0 1 0 17.575zm17.575 0a8.787 8.787 0 1 1 0-17.575 8.787 8.787 0 0 1 0 17.575zm17.575 0a8.787 8.787 0 1 1 0-17.575 8.787 8.787 0 0 1 0 17.575zm17.575 0a8.787 8.787 0 1 1 0-17.575 8.787 8.787 0 0 1 0 17.575zm97.742 0a8.787 8.787 0 1 1 0-17.575 8.787 8.787 0 0 1 0 17.575zm17.575 0a8.787 8.787 0 1 1 0-17.575 8.787 8.787 0 0 1 0 17.575zm17.575 0a8.787 8.787 0 1 1 0-17.575 8.787 8.787 0 0 1 0 17.575zm17.575 0a8.787 8.787 0 1 1 0-17.575 8.787 8.787 0 0 1 0 17.575zm17.575 0a8.787 8.787 0 1 1 0-17.575 8.787 8.787 0 0 1 0 17.575zm17.575 0a8.787 8.787 0 1 1 0-17.575 8.787 8.787 0 0 1 0 17.575zm17.575 0a8.787 8.787 0 1 1 0-17.575 8.787 8.787 0 0 1 0 17.575zm17.575 0a8.787 8.787 0 1 1 0-17.575 8.787 8.787 0 0 1 0 17.575z" fill="#1fce6d"/><g><path d="M117 411.667h370V424H117z" fill="#fff"/><path d="M431.5 411.667h37V424h-37zm-74 0h37V424h-37zm-74 0h37V424h-37zm-74 0h37V424h-37zm-74 0h37V424h-37z" fill="#2b3e51"/></g><g><path d="M121.317 401.183h140.6v10.483h-140.6z" fill="#2b3e51"/><path d="M121.317 396.25h140.6v4.933h-140.6z" fill="#fff"/></g><g><path d="M342.083 401.183h140.6v10.483h-140.6z" fill="#2b3e51"/><path d="M342.083 396.25h140.6v4.933h-140.6z" fill="#fff"/></g></g></svg>