<svg height="600" width="600" xmlns="http://www.w3.org/2000/svg" xmlns:xlink="http://www.w3.org/1999/xlink"><defs><circle id="a" cx="225" cy="225" r="225"/><mask id="b" fill="#fff"><use fill="#fff" fill-rule="evenodd" xlink:href="#a"/></mask></defs><g fill="none" fill-rule="evenodd"><g transform="translate(76 75)"><use fill="#2c97de" xlink:href="#a"/><path d="m28 349h397v131h-397z" fill="#1fce6d" mask="url(#b)"/><g fill="#fff" transform="translate(3 40)"><path d="m16 37h80v22h-80z"/><circle cx="95" cy="45" r="14"/><circle cx="15.5" cy="43.5" r="15.5"/><circle cx="69.5" cy="29.5" r="29.5"/><circle cx="32.5" cy="31.5" r="11.5"/></g><g fill="#fff" transform="translate(341 69)"><path d="m16 37h80v22h-80z"/><circle cx="95" cy="45" r="14"/><circle cx="15.5" cy="43.5" r="15.5"/><circle cx="69.5" cy="29.5" r="29.5"/><circle cx="32.5" cy="31.5" r="11.5"/></g><g fill="#ffe500" stroke="#fff" stroke-linecap="round" stroke-linejoin="round" stroke-width="5"><path d="m36.314 1.5h65.172m-101.486 0h12.283" transform="translate(36 112)"/><path d="m26.314 1.5h65.172m-91.486 0h12.283" transform="translate(325 141)"/><path d="m12.592 1h46.045m-58.194 0h2.235" transform="translate(312 26)"/></g></g><g transform="translate(18 193)"><path d="m44.8316832 170.8h476.3366338v60.2h-476.3366338z" fill="#fff"/><path d="m221.356 201.6h61.644v29.4h-61.644z" fill="#fff"/><path d="m266.188 211.4h16.812v19.6h-16.812z" fill="#ecf0f1"/><path d="m273.193 217h9.807v14h-9.807z" fill="#2b3e51"/><path d="m53.238 119h275.995v40.6h-275.995z" fill="#fff"/><path d="m243.772 86.8h78.455v84h-78.455z" fill="#fff"/><g fill="#33495f"><path d="m102.484548 96.6h141.287729v22.4h-218.5544552z"/><path d="m254.583067 43.4h28.416933v22.4h-39.227723z"/><path d="m263.386139 32.2h19.613861l5.277443 22.4h-44.505166z"/><path d="m283 21 4.124236 22.4h-30.743048z"/><path d="m176.263 148.4h67.51l25.217 22.4h-268.99l48.576-22.4z"/></g><path d="m256.381 65.8h53.238v14h-53.238z" fill="#fff"/><path d="m232.564 79.8h100.871v7.7h-100.871z" fill="#ecf0f1"/><path d="m44.832 225.4h221.356v5.6h-221.356z" fill="#ecf0f1"/><path d="m280.198 68.6h4.203v8.4h-4.203z" fill="#2b3e51"/><path d="m270.391 68.6h5.604v8.4h-5.604z" fill="#2b3e51"/><path d="m260.584 68.6h5.604v8.4h-5.604z" fill="#2b3e51"/><path d="m233.965 127.4h2.802v14h-2.802zm-5.604 0h2.802v14h-2.802zm-5.604 0h2.802v14h-2.802zm-12.608 0h2.801v14h-2.801zm-5.604 0h2.802v14h-2.802zm-5.604 0h2.802v14h-2.802zm-12.61 0h2.803v14h-2.802v-14zm-5.603 0h2.802v14h-2.802zm-5.604 0h2.802v14h-2.802zm-12.61 0h2.803v14h-2.802v-14zm-5.603 0h2.802v14h-2.802zm-5.604 0h2.802v14h-2.802zm-12.609 0h2.802v14h-2.802zm-5.604 0h2.802v14h-2.802zm-5.604 0h2.802v14h-2.802zm-12.609 0h2.802v14h-2.802zm-5.604 0h2.802v14h-2.802zm-5.604 0h2.802v14h-2.802zm-12.609 0h2.802v14h-2.802zm-5.604 0h2.802v14h-2.802v-14zm-5.604 0h2.802v14h-2.802z" fill="#2c97de"/><path d="m281.599 0h1.401v22.4h-1.401z" fill="#fff"/><g transform="matrix(-1 0 0 1 566 0)"><path d="m221.356 201.6h61.644v29.4h-61.644z" fill="#fff"/><path d="m266.188 211.4h16.812v19.6h-16.812z" fill="#ecf0f1"/><path d="m273.193 217h9.807v14h-9.807z" fill="#2b3e51"/><path d="m53.238 119h190.535v40.6h-190.535z" fill="#fff"/><g fill="#33495f"><path d="m102.484548 96.6h141.287729v22.4h-218.5544552z"/><path d="m254.583067 43.4h28.416933l5.482575 22.4h-44.710298z"/><path d="m263.386139 32.2h19.613861v22.4h-39.227723z"/><path d="m283 21v22.4h-26.618812z"/><path d="m176.263 148.4h67.51l25.217 22.4h-268.99l48.576-22.4z"/></g><path d="m44.832 225.4h221.356v5.6h-221.356z" fill="#ecf0f1"/><path d="m280.198 68.6h2.802v8.4h-2.802z" fill="#2b3e51"/><path d="m270.391 68.6h5.604v8.4h-5.604z" fill="#2b3e51"/><path d="m260.584 68.6h5.604v8.4h-5.604z" fill="#2b3e51"/><path d="m233.965 127.4h2.802v14h-2.802zm-5.604 0h2.802v14h-2.802zm-5.604 0h2.802v14h-2.802zm-12.608 0h2.801v14h-2.801zm-5.604 0h2.802v14h-2.802zm-5.604 0h2.802v14h-2.802zm-12.61 0h2.803v14h-2.802v-14zm-5.603 0h2.802v14h-2.802zm-5.604 0h2.802v14h-2.802zm-12.61 0h2.803v14h-2.802v-14zm-5.603 0h2.802v14h-2.802zm-5.604 0h2.802v14h-2.802zm-12.609 0h2.802v14h-2.802zm-5.604 0h2.802v14h-2.802zm-5.604 0h2.802v14h-2.802zm-12.609 0h2.802v14h-2.802zm-5.604 0h2.802v14h-2.802zm-5.604 0h2.802v14h-2.802zm-12.609 0h2.802v14h-2.802zm-5.604 0h2.802v14h-2.802v-14zm-5.604 0h2.802v14h-2.802z" fill="#2c97de"/><path d="m281.599 0h1.401v22.4h-1.401z" fill="#fff"/></g><path d="m166.718 30.8c0-4.64 3.763-8.4 8.406-8.4 4.642 0 8.406 3.76 8.406 8.4v22.4h-16.812zm12.862-30.8h2.548v2.545h-2.548zm0 7.636h2.548v2.546h-2.548zm-3.819-7.636h2.547v2.545h-2.547zm0 7.636h2.547v2.546h-2.547zm-3.821-7.636h2.547v2.545h-2.547zm0 7.636h2.547v2.546h-2.547zm-3.821-7.636h2.547v2.545h-2.547zm0 7.636h2.547v2.546h-2.547zm11.462-3.818h2.548v2.546h-2.548zm0 7.637h2.548v2.545h-2.548zm-3.82-7.637h2.547v2.546h-2.547zm0 7.637h2.547v2.545h-2.547zm-3.821-7.637h2.547v2.546h-2.547zm0 7.637h2.547v2.545h-2.547zm-3.821-7.637h2.547v2.546h-2.547zm0 7.637h2.547v2.545h-2.547zm-25.219 19.345c0-4.64 3.763-8.4 8.406-8.4 4.642 0 8.406 3.76 8.406 8.4v22.4h-16.812zm12.865-30.8h2.547v2.545h-2.547zm0 7.636h2.547v2.546h-2.547zm-3.821-7.636h2.547v2.545h-2.547zm0 7.636h2.547v2.546h-2.547zm-3.821-7.636h2.547v2.545h-2.547zm0 7.636h2.547v2.546h-2.547zm-3.821-7.636h2.547v2.545h-2.547zm0 7.636h2.547v2.546h-2.547zm11.463-3.818h2.547v2.546h-2.547zm0 7.637h2.547v2.545h-2.547zm-3.821-7.637h2.547v2.546h-2.547zm0 7.637h2.547v2.545h-2.547zm-3.821-7.637h2.547v2.546h-2.547zm0 7.637h2.547v2.545h-2.547zm-3.821-7.637h2.547v2.546h-2.547zm0 7.637h2.547v2.545h-2.547zm-25.218 19.345c0-4.64 3.764-8.4 8.406-8.4 4.643 0 8.406 3.76 8.406 8.4v22.4h-16.812zm12.864-30.8h2.547v2.545h-2.547zm0 7.636h2.547v2.546h-2.547zm-3.821-7.636h2.547v2.545h-2.547zm0 7.636h2.547v2.546h-2.547zm-3.821-7.636h2.547v2.545h-2.547zm0 7.636h2.547v2.546h-2.547zm-3.82-7.636h2.546v2.545h-2.547v-2.545zm0 7.636h2.546v2.546h-2.547v-2.546zm11.462-3.818h2.547v2.546h-2.547zm0 7.637h2.547v2.545h-2.547zm-3.821-7.637h2.547v2.546h-2.547zm0 7.637h2.547v2.545h-2.547zm-3.821-7.637h2.547v2.546h-2.547zm0 7.637h2.547v2.545h-2.547zm-3.82-7.637h2.546v2.546h-2.547v-2.546zm0 7.637h2.546v2.545h-2.547v-2.545zm-25.22 19.345c0-4.64 3.764-8.4 8.406-8.4 4.643 0 8.406 3.76 8.406 8.4v22.4h-16.811v-22.4zm12.865-30.8h2.547v2.545h-2.547zm0 7.636h2.547v2.546h-2.547zm-3.82-7.636h2.546v2.545h-2.547v-2.545zm0 7.636h2.546v2.546h-2.547v-2.546zm-3.823-7.636h2.547v2.545h-2.547zm0 7.636h2.547v2.546h-2.547zm-3.818-7.636h2.547v2.545h-2.548v-2.545zm0 7.636h2.547v2.546h-2.548v-2.546zm11.462-3.818h2.547v2.546h-2.547zm0 7.637h2.547v2.545h-2.547zm-3.82-7.637h2.546v2.546h-2.547v-2.546zm0 7.637h2.546v2.545h-2.547v-2.545zm-3.822-7.637h2.547v2.546h-2.547zm0 7.637h2.547v2.545h-2.547zm-3.82-7.637h2.547v2.546h-2.548v-2.546zm0 7.637h2.547v2.545h-2.548v-2.545zm-25.22 19.345c0-4.64 3.764-8.4 8.406-8.4 4.643 0 8.406 3.76 8.406 8.4v22.4h-16.812zm12.864-30.8h2.547v2.545h-2.547zm0 7.636h2.547v2.546h-2.547zm-3.82-7.636h2.547v2.545h-2.548v-2.545zm0 7.636h2.547v2.546h-2.548v-2.546zm-3.823-7.636h2.548v2.545h-2.548zm0 7.636h2.548v2.546h-2.548zm-3.819-7.636h2.547v2.545h-2.549v-2.545zm0 7.636h2.547v2.546h-2.549v-2.546zm11.462-3.818h2.547v2.546h-2.547zm0 7.637h2.547v2.545h-2.547zm-3.82-7.637h2.547v2.546h-2.548v-2.546zm0 7.637h2.547v2.545h-2.548v-2.545zm-3.822-7.637h2.548v2.546h-2.548zm0 7.637h2.548v2.545h-2.548zm-3.82-7.637h2.547v2.546h-2.549v-2.546zm0 7.637h2.547v2.545h-2.549v-2.545zm-25.219 19.345c0-4.64 3.763-8.4 8.406-8.4 4.642 0 8.406 3.76 8.406 8.4v22.4h-16.811v-22.4zm12.864-30.8h2.548v2.545h-2.548zm0 7.636h2.548v2.546h-2.548zm-3.82-7.636h2.547v2.545h-2.548v-2.545zm0 7.636h2.547v2.546h-2.548v-2.546zm-3.822-7.636h2.547v2.545h-2.547zm0 7.636h2.547v2.546h-2.547zm-3.82-7.636h2.547v2.545h-2.547zm0 7.636h2.547v2.546h-2.547zm11.462-3.818h2.548v2.546h-2.548zm0 7.637h2.548v2.545h-2.548zm-3.82-7.637h2.547v2.546h-2.548v-2.546zm0 7.637h2.547v2.545h-2.548v-2.545zm-3.821-7.637h2.547v2.546h-2.547zm0 7.637h2.547v2.545h-2.547zm-3.821-7.637h2.547v2.546h-2.547zm0 7.637h2.547v2.545h-2.547zm-25.218 19.345c0-4.64 3.763-8.4 8.406-8.4 4.642 0 8.406 3.76 8.406 8.4v22.4h-16.812zm12.863-30.8h2.548v2.545h-2.548zm0 7.636h2.548v2.546h-2.548zm-3.82-7.636h2.547v2.545h-2.547zm0 7.636h2.547v2.546h-2.547zm-3.821-7.636h2.547v2.545h-2.547zm0 7.636h2.547v2.546h-2.547zm-3.821-7.636h2.547v2.545h-2.547zm0 7.636h2.547v2.546h-2.547zm11.462-3.818h2.548v2.546h-2.548zm0 7.637h2.548v2.545h-2.548zm-3.82-7.637h2.547v2.546h-2.547zm0 7.637h2.547v2.545h-2.547zm-3.821-7.637h2.547v2.546h-2.547zm0 7.637h2.547v2.545h-2.547zm-3.821-7.637h2.547v2.546h-2.547zm0 7.637h2.547v2.545h-2.547zm-25.218 19.345c0-4.64 3.763-8.4 8.406-8.4 4.642 0 8.406 3.76 8.406 8.4v22.4h-16.812zm12.864-30.8h2.547v2.545h-2.547zm0 7.636h2.547v2.546h-2.547zm-3.821-7.636h2.547v2.545h-2.547zm0 7.636h2.547v2.546h-2.547zm-3.821-7.636h2.547v2.545h-2.547zm0 7.636h2.547v2.546h-2.547zm-3.822-7.636h2.547v2.545h-2.546v-2.545zm0 7.636h2.547v2.546h-2.546v-2.546zm11.463-3.818h2.547v2.546h-2.547zm0 7.637h2.547v2.545h-2.547zm-3.82-7.637h2.547v2.546h-2.547zm0 7.637h2.547v2.545h-2.547zm-3.821-7.637h2.547v2.546h-2.547zm0 7.637h2.547v2.545h-2.547zm-3.822-7.637h2.547v2.546h-2.546v-2.546zm0 7.637h2.547v2.545h-2.546v-2.545z" fill="#2b3e51" transform="translate(327.832 177.8)"/><path d="m166.718 30.8c0-4.64 3.763-8.4 8.406-8.4 4.642 0 8.406 3.76 8.406 8.4v22.4h-16.812zm12.862-30.8h2.548v2.545h-2.548zm0 7.636h2.548v2.546h-2.548zm-3.819-7.636h2.547v2.545h-2.547zm0 7.636h2.547v2.546h-2.547zm-3.821-7.636h2.547v2.545h-2.547zm0 7.636h2.547v2.546h-2.547zm-3.821-7.636h2.547v2.545h-2.547zm0 7.636h2.547v2.546h-2.547zm11.462-3.818h2.548v2.546h-2.548zm0 7.637h2.548v2.545h-2.548zm-3.82-7.637h2.547v2.546h-2.547zm0 7.637h2.547v2.545h-2.547zm-3.821-7.637h2.547v2.546h-2.547zm0 7.637h2.547v2.545h-2.547zm-3.821-7.637h2.547v2.546h-2.547zm0 7.637h2.547v2.545h-2.547zm-25.219 19.345c0-4.64 3.763-8.4 8.406-8.4 4.642 0 8.406 3.76 8.406 8.4v22.4h-16.812zm12.865-30.8h2.547v2.545h-2.547zm0 7.636h2.547v2.546h-2.547zm-3.821-7.636h2.547v2.545h-2.547zm0 7.636h2.547v2.546h-2.547zm-3.821-7.636h2.547v2.545h-2.547zm0 7.636h2.547v2.546h-2.547zm-3.821-7.636h2.547v2.545h-2.547zm0 7.636h2.547v2.546h-2.547zm11.463-3.818h2.547v2.546h-2.547zm0 7.637h2.547v2.545h-2.547zm-3.821-7.637h2.547v2.546h-2.547zm0 7.637h2.547v2.545h-2.547zm-3.821-7.637h2.547v2.546h-2.547zm0 7.637h2.547v2.545h-2.547zm-3.821-7.637h2.547v2.546h-2.547zm0 7.637h2.547v2.545h-2.547zm-25.218 19.345c0-4.64 3.764-8.4 8.406-8.4 4.643 0 8.406 3.76 8.406 8.4v22.4h-16.812zm12.864-30.8h2.547v2.545h-2.547zm0 7.636h2.547v2.546h-2.547zm-3.821-7.636h2.547v2.545h-2.547zm0 7.636h2.547v2.546h-2.547zm-3.821-7.636h2.547v2.545h-2.547zm0 7.636h2.547v2.546h-2.547zm-3.82-7.636h2.546v2.545h-2.547v-2.545zm0 7.636h2.546v2.546h-2.547v-2.546zm11.462-3.818h2.547v2.546h-2.547zm0 7.637h2.547v2.545h-2.547zm-3.821-7.637h2.547v2.546h-2.547zm0 7.637h2.547v2.545h-2.547zm-3.821-7.637h2.547v2.546h-2.547zm0 7.637h2.547v2.545h-2.547zm-3.82-7.637h2.546v2.546h-2.547v-2.546zm0 7.637h2.546v2.545h-2.547v-2.545zm-25.22 19.345c0-4.64 3.764-8.4 8.406-8.4 4.643 0 8.406 3.76 8.406 8.4v22.4h-16.811v-22.4zm12.865-30.8h2.547v2.545h-2.547zm0 7.636h2.547v2.546h-2.547zm-3.82-7.636h2.546v2.545h-2.547v-2.545zm0 7.636h2.546v2.546h-2.547v-2.546zm-3.823-7.636h2.547v2.545h-2.547zm0 7.636h2.547v2.546h-2.547zm-3.818-7.636h2.547v2.545h-2.548v-2.545zm0 7.636h2.547v2.546h-2.548v-2.546zm11.462-3.818h2.547v2.546h-2.547zm0 7.637h2.547v2.545h-2.547zm-3.82-7.637h2.546v2.546h-2.547v-2.546zm0 7.637h2.546v2.545h-2.547v-2.545zm-3.822-7.637h2.547v2.546h-2.547zm0 7.637h2.547v2.545h-2.547zm-3.82-7.637h2.547v2.546h-2.548v-2.546zm0 7.637h2.547v2.545h-2.548v-2.545zm-25.22 19.345c0-4.64 3.764-8.4 8.406-8.4 4.643 0 8.406 3.76 8.406 8.4v22.4h-16.812zm12.864-30.8h2.547v2.545h-2.547zm0 7.636h2.547v2.546h-2.547zm-3.82-7.636h2.547v2.545h-2.548v-2.545zm0 7.636h2.547v2.546h-2.548v-2.546zm-3.823-7.636h2.548v2.545h-2.548zm0 7.636h2.548v2.546h-2.548zm-3.819-7.636h2.547v2.545h-2.549v-2.545zm0 7.636h2.547v2.546h-2.549v-2.546zm11.462-3.818h2.547v2.546h-2.547zm0 7.637h2.547v2.545h-2.547zm-3.82-7.637h2.547v2.546h-2.548v-2.546zm0 7.637h2.547v2.545h-2.548v-2.545zm-3.822-7.637h2.548v2.546h-2.548zm0 7.637h2.548v2.545h-2.548zm-3.82-7.637h2.547v2.546h-2.549v-2.546zm0 7.637h2.547v2.545h-2.549v-2.545zm-25.219 19.345c0-4.64 3.763-8.4 8.406-8.4 4.642 0 8.406 3.76 8.406 8.4v22.4h-16.811v-22.4zm12.864-30.8h2.548v2.545h-2.548zm0 7.636h2.548v2.546h-2.548zm-3.82-7.636h2.547v2.545h-2.548v-2.545zm0 7.636h2.547v2.546h-2.548v-2.546zm-3.822-7.636h2.547v2.545h-2.547zm0 7.636h2.547v2.546h-2.547zm-3.82-7.636h2.547v2.545h-2.547zm0 7.636h2.547v2.546h-2.547zm11.462-3.818h2.548v2.546h-2.548zm0 7.637h2.548v2.545h-2.548zm-3.82-7.637h2.547v2.546h-2.548v-2.546zm0 7.637h2.547v2.545h-2.548v-2.545zm-3.821-7.637h2.547v2.546h-2.547zm0 7.637h2.547v2.545h-2.547zm-3.821-7.637h2.547v2.546h-2.547zm0 7.637h2.547v2.545h-2.547zm-25.218 19.345c0-4.64 3.763-8.4 8.406-8.4 4.642 0 8.406 3.76 8.406 8.4v22.4h-16.812zm12.863-30.8h2.548v2.545h-2.548zm0 7.636h2.548v2.546h-2.548zm-3.82-7.636h2.547v2.545h-2.547zm0 7.636h2.547v2.546h-2.547zm-3.821-7.636h2.547v2.545h-2.547zm0 7.636h2.547v2.546h-2.547zm-3.821-7.636h2.547v2.545h-2.547zm0 7.636h2.547v2.546h-2.547zm11.462-3.818h2.548v2.546h-2.548zm0 7.637h2.548v2.545h-2.548zm-3.82-7.637h2.547v2.546h-2.547zm0 7.637h2.547v2.545h-2.547zm-3.821-7.637h2.547v2.546h-2.547zm0 7.637h2.547v2.545h-2.547zm-3.821-7.637h2.547v2.546h-2.547zm0 7.637h2.547v2.545h-2.547zm-25.218 19.345c0-4.64 3.763-8.4 8.406-8.4 4.642 0 8.406 3.76 8.406 8.4v22.4h-16.812zm12.864-30.8h2.547v2.545h-2.547zm0 7.636h2.547v2.546h-2.547zm-3.821-7.636h2.547v2.545h-2.547zm0 7.636h2.547v2.546h-2.547zm-3.821-7.636h2.547v2.545h-2.547zm0 7.636h2.547v2.546h-2.547zm-3.822-7.636h2.547v2.545h-2.546v-2.545zm0 7.636h2.547v2.546h-2.546v-2.546zm11.463-3.818h2.547v2.546h-2.547zm0 7.637h2.547v2.545h-2.547zm-3.82-7.637h2.547v2.546h-2.547zm0 7.637h2.547v2.545h-2.547zm-3.821-7.637h2.547v2.546h-2.547zm0 7.637h2.547v2.545h-2.547zm-3.822-7.637h2.547v2.546h-2.546v-2.546zm0 7.637h2.547v2.545h-2.546v-2.545z" fill="#2b3e51" transform="translate(54.639 177.8)"/><g transform="translate(264.787 95.2)"><path d="m9.807 11.2v-11.2h8.406v30.066l1.975-.094-1.975 55.428-15.411-10.86v-43.74h-2.802v-2.8h1.401v-2.8h1.401v-2.8h1.401v-2.8h1.401v-2.8h1.401v-2.8h1.4v-2.8z" fill="#f2c500"/><path d="m17.483 10.117-3.938-.405 4.668 4.288v1.876l-6.497-.476 6.497 4.2v1.77l-5.554-.37 5.554 4.2v.335l-8.338-1.128 8.338 6.393v54.6l15.41-10.86v-43.74h2.803v-2.8l-1.401-.19v-2.61h-1.401v-2.8l-1.401-.094v-2.706h-1.401v-2.8l-1.401-.103v-2.697h-1.401v-2.8l-1.401-.144v-11.056h-8.406s-3.417 3.161-3.417 4.742c0 1.11 1.684 3.844 2.687 5.375z" fill="#f2c500"/><path d="m15.41 36.4h5.605v28h-5.605zm-8.405 0h5.604v28h-5.604zm16.812 0h5.604v28h-5.604z" fill="#2c97de"/></g><path d="m283 180.6h28.417l10.81 14h-78.455l10.811-14z" fill="#33495f"/></g></g></svg>