<svg height="600" width="600" xmlns="http://www.w3.org/2000/svg" xmlns:xlink="http://www.w3.org/1999/xlink"><defs><circle id="a" cx="225" cy="225" r="225"/><mask id="b" fill="#fff"><use fill-rule="evenodd" xlink:href="#a"/></mask></defs><g fill="none" fill-rule="evenodd"><g transform="translate(76 75)"><use fill="#2c97de" xlink:href="#a"/><path d="M28 349h397v131H28z" fill="#1fce6d" mask="url(#b)"/></g><g fill="#fff"><path d="M95 152h80v22H95z"/><circle cx="174" cy="160" r="14"/><circle cx="94.5" cy="158.5" r="15.5"/><circle cx="148.5" cy="144.5" r="29.5"/><circle cx="111.5" cy="146.5" r="11.5"/></g><g fill="#fff"><path d="M433 181h80v22h-80z"/><circle cx="512" cy="189" r="14"/><circle cx="432.5" cy="187.5" r="15.5"/><circle cx="486.5" cy="173.5" r="29.5"/><circle cx="449.5" cy="175.5" r="11.5"/></g><g fill="#ffe500" stroke="#fff" stroke-linecap="round" stroke-linejoin="round" stroke-width="5"><path d="M148.314 188.5h65.172M112 188.5h12.283"/><path d="M427.314 217.5h65.172m-91.486 0h12.283"/><g><path d="M400.592 102h46.045m-58.194 0h2.235"/></g></g><path d="M217 363.628h166v12.075H217z" fill="#fff"/><path d="M300 73.09c6.25 0 11.318-12.333 11.318-27.545C311.318 30.332 300 18 300 18s-11.318 12.332-11.318 27.545c0 15.212 5.067 27.544 11.318 27.544z" fill="#f2c500"/><path d="M232.09 375.703h135.82L336.217 424H268.31z" fill="#ecf0f1"/><path d="M289.436 75.353h22.636l6.792 294.312h-37.728z" fill="#fff"/><path d="M277.364 64.788h45.272v10.565h-45.272zm0-12.074h45.272v6.037h-45.272z" fill="#ecf0f1"/><path d="M281.136 58.75h37.728v6.038h-37.728z" fill="#2b3e51"/></g></svg>