<svg width="600" height="600" xmlns="http://www.w3.org/2000/svg" xmlns:xlink="http://www.w3.org/1999/xlink"><defs><ellipse id="a" cx="225" cy="225.5" rx="225" ry="225.5"/></defs><g fill="none" fill-rule="evenodd"><g transform="translate(76 75)"><mask id="b" fill="#fff"><use xlink:href="#a"/></mask><use fill="#2C97DE" xlink:href="#a"/><path fill="#1FCE6D" mask="url(#b)" d="M28 349.776h397v131.291H28z"/><g transform="translate(3 40.089)" fill="#FFF"><path d="M16 37.082h80v22.049H16z"/><ellipse cx="95" cy="45.1" rx="14" ry="14.031"/><ellipse cx="15.5" cy="43.597" rx="15.5" ry="15.534"/><ellipse cx="69.5" cy="29.566" rx="29.5" ry="29.566"/><ellipse cx="32.5" cy="31.57" rx="11.5" ry="11.526"/></g><g transform="translate(341 69.154)" fill="#FFF"><path d="M16 37.082h80v22.049H16z"/><ellipse cx="95" cy="45.1" rx="14" ry="14.031"/><ellipse cx="15.5" cy="43.597" rx="15.5" ry="15.534"/><ellipse cx="69.5" cy="29.566" rx="29.5" ry="29.566"/><ellipse cx="32.5" cy="31.57" rx="11.5" ry="11.526"/></g><path d="M72.314 113.752h65.172m-101.486 0h12.283" fill="#FFE500" stroke="#FFF" stroke-linecap="round" stroke-linejoin="round" stroke-width="5"/><path d="M351.314 142.817h65.172m-91.486 0h12.283" fill="#FFE500" stroke="#FFF" stroke-linecap="round" stroke-linejoin="round" stroke-width="5"/><path d="M324.592 27.06h46.045m-58.194 0h2.235" fill="#FFE500" stroke="#FFF" stroke-linecap="round" stroke-linejoin="round" stroke-width="5"/></g><g transform="translate(69 108)"><path fill="#C23824" d="M173.108 181.183h117.785v7.847H173.108z"/><path fill="#E94B35" d="M180.603 158.357h103.151v7.133H180.603z"/><path fill="#C23824" d="M180.246 173.336h103.508l7.138 7.847H173.108zm0-7.846l24.27-7.133h54.253l24.985 7.133v7.846H180.246z"/><path fill="#2B3E51" d="M148.837 194.023H315.52v7.133H148.837z"/><path fill="#C23824" d="M126.776 211.499h210.448L464 266.424H0z"/><path fill="#E94B35" d="M143.126 201.156h177.748L427.95 247.52H36.049z"/><path fill="#D55400" d="M158.831 167.273h14.277v21.4h-14.277zm1.427-41.016h11.422v35.309h-11.422z"/><path fill="#FFF" d="M157.403 161.21h17.132l-1.427 6.063H158.83zm2.855-37.806h11.422l.714 2.853h-12.85zm-1.269-8.916h13.96l.872 1.783h-15.704z"/><path fill="#ECF0F1" d="M159.188 106.284h13.563v8.203h-13.563z"/><path fill="#ECF0F1" d="M160.258 123.404h11.422l2.141-7.133h-15.704z"/><path fill="#FFF" d="M158.117 103.788h15.705v2.497h-15.705z"/><path fill="#ECF0F1" d="M163.114 92.375h5.71l2.142 11.413h-9.994z"/><path fill="#ECF0F1" d="M163.114 21.043h5.711v71.332h-5.711z"/><path d="M173.108 99.865h-3.57v3.923h-.713v-3.923h-5.712v3.923h-.714v-3.923h-3.57v3.923h-.711V99.15h15.704v4.638h-.713v-3.923zM165.969 0l2.856 21.043h-5.711z" fill="#FFF"/><path fill="#D55400" d="M290.893 170.126h14.277v21.4h-14.277zm1.427-41.016h11.422v35.309H292.32z"/><path fill="#FFF" d="M289.465 164.063h17.132l-1.427 6.063h-14.277zm2.855-37.806h11.422l.714 2.853h-12.85zm-1.269-8.916h13.96l.872 1.783H290.18z"/><path fill="#ECF0F1" d="M291.25 109.137h13.563v8.203H291.25z"/><path fill="#ECF0F1" d="M292.32 126.257h11.422l2.141-7.133H290.18z"/><path fill="#FFF" d="M290.179 106.641h15.705v2.497h-15.705z"/><path fill="#ECF0F1" d="M295.176 95.228h5.71l2.142 11.413h-9.994z"/><path fill="#ECF0F1" d="M295.176 23.896h5.711v71.332h-5.711z"/><path d="M305.17 102.718h-3.57v3.923h-.713v-3.923h-5.712v3.923h-.714v-3.923h-3.57v3.923h-.711v-4.638h15.704v4.638h-.713v-3.923zm-7.139-99.865l2.856 21.043h-5.711z" fill="#FFF"/><g fill="#ECF0F1"><path d="M280.873 194.023h5.332v7.133h-5.332zm17.18 0h5.332v7.133h-5.332zm-34.36 0h5.332v7.133h-5.332zm-17.18 0h5.332v7.133h-5.332zm-17.179 0h5.332v7.133h-5.332zm-17.18 0h5.332v7.133h-5.332zm-17.18 0h5.332v7.133h-5.332zm-17.179 0h5.332v7.133h-5.332zm-17.18 0h5.332v7.133h-5.332z"/></g><path fill="#FFF" d="M143.126 188.673h177.748v5.35H143.126z"/><g fill="#FFF"><path d="M309.048 184.036v-.713h.716v.713h.359v.714h.358v.713h.359v.713h.358v.714h.358v.713h.359v.713h.358v.714h-5.734v-.714h.359v-.713h.358v-.713h.358v-.714h.359v-.713h.358v-.713h.358v-.714h.359zm8.6 0v-.713h.717v.713h.359v.714h.358v.713h.358v.713h.359v.714h.358v.713h.358v.713h.359v.714h-5.734v-.714h.358v-.713h.359v-.713h.358v-.714h.358v-.713h.359v-.713h.358v-.714h.358zm-17.201 0v-.713h.717v.713h.358v.714h.358v.713h.359v.713h.358v.714h.359v.713h.358v.713h.358v.714h-5.733v-.714h.358v-.713h.358v-.713h.359v-.714h.358v-.713h.358v-.713h.359v-.714h.358zm-8.6 0v-.713h.716v.713h.358v.714h.359v.713h.358v.713h.359v.714h.358v.713h.358v.713h.359v.714h-5.734v-.714h.358v-.713h.359v-.713h.358v-.714h.358v-.713h.359v-.713h.358v-.714h.358zm-8.601 0v-.713h.716v.713h.359v.714h.358v.713h.358v.713h.359v.714h.358v.713h.359v.713h.358v.714h-5.734v-.714h.358v-.713h.359v-.713h.358v-.714h.359v-.713h.358v-.713h.358v-.714h.359zm-8.601 0v-.713h.717v.713h.358v.714h.358v.713h.359v.713h.358v.714h.358v.713h.359v.713h.358v.714h-5.734v-.714h.359v-.713h.358v-.713h.359v-.714h.358v-.713h.358v-.713h.359v-.714h.358zm-8.6 0v-.713h.716v.713h.358v.714h.359v.713h.358v.713h.358v.714h.359v.713h.358v.713h.359v.714h-5.734v-.714h.358v-.713h.358v-.713h.359v-.714h.358v-.713h.359v-.713h.358v-.714h.358zm-8.601 0v-.713h.716v.713h.359v.714h.358v.713h.358v.713h.359v.714h.358v.713h.358v.713h.359v.714h-5.734v-.714h.358v-.713h.359v-.713h.358v-.714h.358v-.713h.359v-.713h.358v-.714h.359zm-8.601 0v-.713h.717v.713h.358v.714h.358v.713h.359v.713h.358v.714h.358v.713h.359v.713h.358v.714h-5.734v-.714h.359v-.713h.358v-.713h.358v-.714h.359v-.713h.358v-.713h.359v-.714h.358zm-8.6 0v-.713h.716v.713h.358v.714h.359v.713h.358v.713h.358v.714h.359v.713h.358v.713h.358v.714h-5.733v-.714h.358v-.713h.358v-.713h.359v-.714h.358v-.713h.358v-.713h.359v-.714h.358zm-8.602 0v-.713h.717v.713h.359v.714h.358v.713h.358v.713h.359v.714h.358v.713h.358v.713h.359v.714h-5.734v-.714h.358v-.713h.359v-.713h.358v-.714h.358v-.713h.359v-.713h.358v-.714h.358zm-8.6 0v-.713h.717v.713h.358v.714h.358v.713h.359v.713h.358v.714h.358v.713h.359v.713h.358v.714h-5.734v-.714h.359v-.713h.358v-.713h.358v-.714h.359v-.713h.358v-.713h.358v-.714h.359zm-8.6 0v-.713h.716v.713h.358v.714h.359v.713h.358v.713h.358v.714h.359v.713h.358v.713h.358v.714h-5.733v-.714h.358v-.713h.358v-.713h.359v-.714h.358v-.713h.358v-.713h.359v-.714h.358zm-8.602 0v-.713h.717v.713h.358v.714h.359v.713h.358v.713h.359v.714h.358v.713h.358v.713h.359v.714h-5.734v-.714h.358v-.713h.359v-.713h.358v-.714h.358v-.713h.359v-.713h.358v-.714h.358zm-8.6 0v-.713h.716v.713h.359v.714h.358v.713h.359v.713h.358v.714h.358v.713h.359v.713h.358v.714h-5.734v-.714h.359v-.713h.358v-.713h.358v-.714h.359v-.713h.358v-.713h.358v-.714h.359zm-8.601 0v-.713h.717v.713h.358v.714h.358v.713h.359v.713h.358v.714h.359v.713h.358v.713h.358v.714h-5.734v-.714h.359v-.713h.358v-.713h.359v-.714h.358v-.713h.358v-.713h.359v-.714h.358zm-8.6 0v-.713h.716v.713h.358v.714h.359v.713h.358v.713h.358v.714h.359v.713h.358v.713h.359v.714h-5.734v-.714h.358v-.713h.359v-.713h.358v-.714h.358v-.713h.359v-.713h.358v-.714h.358zm-8.601 0v-.713h.716v.713h.359v.714h.358v.713h.358v.713h.359v.714h.358v.713h.359v.713h.358v.714h-5.734v-.714h.358v-.713h.359v-.713h.358v-.714h.359v-.713h.358v-.713h.358v-.714h.359zm-8.601 0v-.713h.717v.713h.358v.714h.358v.713h.359v.713h.358v.714h.358v.713h.359v.713h.358v.714h-5.734v-.714h.359v-.713h.358v-.713h.358v-.714h.359v-.713h.358v-.713h.359v-.714h.358zm-8.6 0v-.713h.716v.713h.358v.714h.359v.713h.358v.713h.358v.714h.359v.713h.358v.713h.358v.714h-5.733v-.714h.358v-.713h.358v-.713h.359v-.714h.358v-.713h.359v-.713h.358v-.714h.358zm-8.601 0v-.713h.716v.713h.359v.714h.358v.713h.358v.713h.359v.714h.358v.713h.358v.713h.359v.714h-5.734v-.714h.358v-.713h.359v-.713h.358v-.714h.358v-.713h.359v-.713h.358v-.714h.359z"/></g><path d="M223.792 107.027l-.001-.058c0-2.151 3.835-3.895 8.566-3.895 4.73 0 8.566 1.744 8.566 3.895v3.952h-17.132v-3.894z" fill="#ECF0F1"/><path d="M194.884 132.677a15.548 15.548 0 0 1-.004-.356c0-13.198 16.779-23.897 37.477-23.897 20.698 0 37.477 10.7 37.477 23.897 0 .119-.002.238-.004.356l.004 23.896H194.88v-23.896z" fill="#FFF"/><path fill="#2B3E51" d="M36.049 266.424h391.902v29.959H36.049z"/><path fill="#C23824" d="M180.603 154.79h102.794v3.567H180.603z"/><ellipse fill="#2B3E51" cx="197.378" cy="176.903" rx="2.855" ry="2.853"/><ellipse fill="#2B3E51" cx="266.622" cy="176.903" rx="2.855" ry="2.853"/><ellipse fill="#2B3E51" cx="243.778" cy="177.26" rx="2.855" ry="2.853"/><ellipse fill="#2B3E51" cx="220.222" cy="177.26" rx="2.855" ry="2.853"/><path fill="#2B3E51" d="M209.157 160.14h5.711v5.707h-5.711zm19.988 0h5.711v5.707h-5.711zm19.987 0h5.711v5.707h-5.711z"/><path fill="#ECF0F1" d="M230.929 100.221h2.855v4.28h-2.855z"/><ellipse fill="#FFF" cx="232.357" cy="99.508" rx="2.142" ry="2.14"/><path fill="#FFF" d="M232.357 81.675l.714 17.12h-1.428z"/><path fill="#ECF0F1" d="M36.049 288.537h146.338v27.106H36.049zm245.563.357H427.95V316H281.612z"/><path d="M36.05 266.424h4.282v22.113H36.05v-22.113zm142.055 0h4.283v22.113h-4.283v-22.113zm51.753 0h4.284v29.96h-4.284v-29.96zm51.754.357h4.283v22.113h-4.283V266.78zm142.056 0h4.283v22.113h-4.283V266.78zm-71.028-.357h4.283v22.113h-4.283v-22.113zm35.335.357h4.283v22.113h-4.283V266.78zm-70.67-.357h4.283v22.113h-4.283v-22.113zm-174.893 0h4.283v22.113h-4.283v-22.113zm-70.67 0h4.283v22.113h-4.283v-22.113zm35.335 0h4.283v22.113h-4.283v-22.113zm148.48 0h4.283v29.96h-4.283v-29.96zm-51.397 0h4.283v29.96h-4.283v-29.96zm-39.618 36.023h149.907l21.416 13.196H143.126z" fill="#FFF"/><path fill="#D55400" d="M164.542 296.384H314.45v6.063H164.542z"/></g></g></svg>