<svg height="600" width="600" xmlns="http://www.w3.org/2000/svg" xmlns:xlink="http://www.w3.org/1999/xlink"><defs><circle id="a" cx="225" cy="225" r="225"/><mask id="b" fill="#fff"><use fill="#fff" fill-rule="evenodd" xlink:href="#a"/></mask></defs><g fill="none" fill-rule="evenodd"><g transform="translate(76 75)"><use fill="#2c97de" xlink:href="#a"/><path d="m28 349h397v131h-397z" fill="#1fce6d" mask="url(#b)"/><g fill="#fff" transform="translate(3 40)"><path d="m16 37h80v22h-80z"/><circle cx="95" cy="45" r="14"/><circle cx="15.5" cy="43.5" r="15.5"/><circle cx="69.5" cy="29.5" r="29.5"/><circle cx="32.5" cy="31.5" r="11.5"/></g><g fill="#fff" transform="translate(341 69)"><path d="m16 37h80v22h-80z"/><circle cx="95" cy="45" r="14"/><circle cx="15.5" cy="43.5" r="15.5"/><circle cx="69.5" cy="29.5" r="29.5"/><circle cx="32.5" cy="31.5" r="11.5"/></g><g fill="#ffe500" stroke="#fff" stroke-linecap="round" stroke-linejoin="round" stroke-width="5"><path d="m36.314 1.5h65.172m-101.486 0h12.283" transform="translate(36 112)"/><path d="m26.314 1.5h65.172m-91.486 0h12.283" transform="translate(325 141)"/><path d="m12.592 1h46.045m-58.194 0h2.235" transform="translate(312 26)"/></g></g><g transform="translate(13 272)"><path d="m213 152h-203v-78h198.06c2.18-14.92 4.94-29 4.94-29h74v107z" fill="#ecf0f1"/><path d="m361 152h203v-78h-197.041c-2.764-15.008-5.959-29-5.959-29h-74s-26.394 43.755-26.394 66.357c0 22.603 26.394 40.643 26.394 40.643z" fill="#ecf0f1"/><path d="m44.885 113h-33v39h-6v-39h-1v-4h1v-31h-1v-4h208.115v4h-6.115v31h6.115v4h-6.115v39h-6v-39h-33v39h-6v-39h-33v39h-6v-39h-33v39h-6v-39h-33v39h-6zm0-4v-31h6v31h33v-31h6v31h33v-31h6v31h33v-31h6v31h33v-31h-189v31zm189.115 0v-35h-6v-4h6v-4h53v8h-15v23h15v16h-15v39h-4v-39h-30v39h-4v-39h-6v-4zm34-12v-23h-30v23z" fill="#fff"/><path d="m243 118h20v34h-20zm34 0h10s3.886 11.375 3.886 17-3.886 17-3.886 17h-10z" fill="#2b3e51"/><path d="m243 82h4v15h-4zm16 0h4v15h-4zm-8 0h4v15h-4zm34 0h2s1.03 5.005 1.03 7.5-1.03 7.5-1.03 7.5h-2zm-8 0h4v15h-4z" fill="#2c97de"/><path d="m251 51h36l5.804892 15h-61.804892z" fill="#f59d00"/><path d="m18 81h5v16h-5zm8 0h5v16h-5zm8 0h5v16h-5zm140 0h5v15h-5zm8 0h5v15h-5zm8 0h5v15h-5zm-55 0h5v15h-5zm8 0h5v15h-5zm8 0h5v15h-5zm-55 0h5v15h-5zm8 0h5v15h-5zm8 0h5v15h-5zm-55 0h5v15h-5zm8 0h5v15h-5zm8 0h5v15h-5zm113 40h10v18h-10zm-39 0h10v18h-10zm-38 0h10v18h-10zm-39 0h10v18h-10zm-40 0h10v18h-10zm142 0h10v18h-10zm-39 0h10v18h-10zm-38 0h10v18h-10zm-40 0h10v18h-10zm-38 0h10v18h-10z" fill="#2c97de"/><path d="m40 37h173v37h-213z" fill="#f59d00"/><path d="m222 30h65l5.70667 15h-90.70667z" fill="#e87e04"/><path d="m251 15h36l4.203112 15h-60.203112z" fill="#f59d00"/><path d="m287 0 5.662416 15h-30.662416z" fill="#e87e04"/><g transform="matrix(-1 0 0 1 574 0)"><path d="m44.885 113h-33v39h-6v-39h-1v-4h1v-31h-1v-4h208.115v4h-6.115v31h6.115v4h-6.115v39h-6v-39h-33v39h-6v-39h-33v39h-6v-39h-33v39h-6v-39h-33v39h-6zm0-4v-31h6v31h33v-31h6v31h33v-31h6v31h33v-31h6v31h33v-31h-189v31zm189.115 0v-35h-6v-4h6v-4h53v8h-15v23h15v16h-15v39h-4v-39h-30v39h-4v-39h-6v-4zm34-12v-23h-30v23z" fill="#fff"/><path d="m243 118h20v34h-20zm34 0h10v34h-10z" fill="#2b3e51"/><path d="m243 82h4v15h-4zm16 0h4v15h-4zm-8 0h4v15h-4zm34 0h2v15h-2zm-8 0h4v15h-4z" fill="#2c97de"/><path d="m251 51h36v15h-56z" fill="#f59d00"/><path d="m18 81h5v16h-5zm8 0h5v16h-5zm8 0h5v16h-5zm140 0h5v15h-5zm8 0h5v15h-5zm8 0h5v15h-5zm-55 0h5v15h-5zm8 0h5v15h-5zm8 0h5v15h-5zm-55 0h5v15h-5zm8 0h5v15h-5zm8 0h5v15h-5zm-55 0h5v15h-5zm8 0h5v15h-5zm8 0h5v15h-5zm113 40h10v18h-10zm-39 0h10v18h-10zm-38 0h10v18h-10zm-39 0h10v18h-10zm-40 0h10v18h-10zm142 0h10v18h-10zm-39 0h10v18h-10zm-38 0h10v18h-10zm-40 0h10v18h-10zm-38 0h10v18h-10z" fill="#2c97de"/><path d="m40 37h173v37h-213z" fill="#f59d00"/><path d="m222 30h65v15h-85z" fill="#e87e04"/><path d="m251 15h36v15h-56z" fill="#f59d00"/><path d="m287 0v15h-25z" fill="#e87e04"/></g></g></g></svg>