<svg width="600" height="600" xmlns="http://www.w3.org/2000/svg" xmlns:xlink="http://www.w3.org/1999/xlink"><defs><circle id="a" cx="225" cy="225" r="225"/></defs><g fill="none" fill-rule="evenodd"><g transform="translate(76 75)"><mask id="b" fill="#fff"><use xlink:href="#a"/></mask><use fill="#2C97DE" xlink:href="#a"/><path fill="#1FCE6D" mask="url(#b)" d="M28 349h397v131H28z"/><g transform="translate(3 40)" fill="#FFF"><path d="M16 37h80v22H16z"/><circle cx="95" cy="45" r="14"/><circle cx="15.5" cy="43.5" r="15.5"/><circle cx="69.5" cy="29.5" r="29.5"/><circle cx="32.5" cy="31.5" r="11.5"/></g><g transform="translate(341 69)" fill="#FFF"><path d="M16 37h80v22H16z"/><circle cx="95" cy="45" r="14"/><circle cx="15.5" cy="43.5" r="15.5"/><circle cx="69.5" cy="29.5" r="29.5"/><circle cx="32.5" cy="31.5" r="11.5"/></g><path d="M72.314 113.5h65.172M36 113.5h12.283" fill="#FFE500" stroke="#FFF" stroke-linecap="round" stroke-linejoin="round" stroke-width="5"/><path d="M351.314 142.5h65.172m-91.486 0h12.283" fill="#FFE500" stroke="#FFF" stroke-linecap="round" stroke-linejoin="round" stroke-width="5"/><path d="M324.592 27h46.045m-58.194 0h2.235" fill="#FFE500" stroke="#FFF" stroke-linecap="round" stroke-linejoin="round" stroke-width="5"/></g><path fill="#E94B35" d="M201.886 424.333h196.228v5.556H201.886z"/><path fill="#C23824" d="M196.343 429.889h207.314v5.555H196.343z"/><path fill="#E94B35" d="M190.799 435.444H409.2V441H190.799z"/><path fill="#2B3E51" d="M207.429 368.778h185.142v55.556H207.429z"/><path d="M214.08 408.778V421h3.327v-12.222h-3.326zm-3.325 0h-3.326v-3.334h56.54v3.334h-3.326V421h3.326v3.333h-56.54V421h3.326v-12.222zm9.978 0V421h3.325v-12.222h-3.325zm6.651 0V421h3.326v-12.222h-3.326zm6.652 0V421h3.326v-12.222h-3.326zm6.652 0V421h3.326v-12.222h-3.326zm6.652 0V421h3.326v-12.222h-3.326zm6.652 0V421h3.326v-12.222h-3.326zm88.69 0V421h3.326v-12.222h-3.326zm-3.325 0h-3.326v-3.334h56.54v3.334h-3.326V421h3.326v3.333h-56.54V421h3.326v-12.222zm9.977 0V421h3.326v-12.222h-3.326zm6.652 0V421h3.326v-12.222h-3.326zm6.652 0V421h3.326v-12.222h-3.326zm6.652 0V421h3.326v-12.222h-3.326zm6.652 0V421h3.325v-12.222h-3.325zm6.651 0V421h3.326v-12.222h-3.326z" fill="#F59D00"/><path fill="#E94B35" d="M180.822 268.778h238.357v100H180.822z"/><path fill="#FFF" d="M101 285.444h79.822v83.333H101zm318.178 0H499v83.333h-79.822z"/><path fill="#ECF0F1" d="M110.978 368.778h90.908v55.556h-90.908zm287.136 0h90.908v55.556h-90.908z"/><path fill="#C23824" d="M201.886 368.778h5.543v55.556h-5.543zm190.685 0h5.543v55.556h-5.543zm-128.602 0h5.543v55.556h-5.543zm66.518 0h5.543v55.556h-5.543z"/><path fill="#ECF0F1" d="M269.513 368.778h60.975v11.111h-60.975z"/><path fill="#94A5A6" d="M269.513 379.889h60.975v5.556h-60.975zm0 11.111h60.975v5.556h-60.975zm0 11.111h60.975v5.556h-60.975zm0 11.111h60.975v5.556h-60.975z"/><path fill="#7F8C8D" d="M269.513 385.445h60.975v5.556h-60.975zm0 11.111h60.975v5.556h-60.975zm0 11.111h60.975v5.556h-60.975zm0 11.111h60.975v5.556h-60.975z"/><path fill="#F59D00" d="M269.513 368.778h4.435v55.556h-4.435zm56.54 0h4.435v55.556h-4.435z"/><path fill="#E94B35" d="M201.886 22.111h196.228V206H201.886z"/><path d="M202.994 194.333h194.012V11h5.543v257.778H197.45V11h5.543v183.333z" fill="#ECF0F1"/><path fill="#E94B35" d="M214.635 200.444h170.73l5.543 40H209.092z"/><path fill="#C23824" d="M209.092 239.889h181.816l11.086 28.889H198.006z"/><path d="M219.624 199.889l-5.543 40-11.087 28.889h-5.543l11.087-28.89 5.543-40v-40h5.543v40z" fill="#FFF"/><path d="M219.624 199.889l-5.543 40-11.087 28.889h-5.543l11.087-28.89 5.543-40v-40h5.543v40zm160.752 0l5.543 40 11.087 28.889h5.543l-11.087-28.89-5.543-40v-40h-5.543v40z" fill="#FFF"/><path fill="#2B3E51" d="M219.624 159.889h160.752v3.333H219.624z"/><path fill="#C23824" d="M219.624 163.222h160.752v37.222H219.624z"/><path fill="#2B3E51" d="M288.914 368.778h22.173v11.667h-22.173z"/></g></svg>