<svg width="600" height="600" xmlns="http://www.w3.org/2000/svg" xmlns:xlink="http://www.w3.org/1999/xlink"><defs><circle id="a" cx="225" cy="225" r="225"/><path d="M34.146 175.495c0-8.077-6.552-14.625-14.634-14.625s-14.634 6.548-14.634 14.625H0V0h39.024v175.495h-4.878z" id="c"/><path d="M17.073 175.495c0-8.077-3.276-14.625-7.317-14.625s-7.317 6.548-7.317 14.625H0V0h19.512v175.495h-2.439z" id="e"/><path d="M17.073 175.495c0-8.077-3.276-14.625-7.317-14.625s-7.317 6.548-7.317 14.625H0V0h19.512v175.495h-2.439z" id="g"/><path d="M34.146 175.495c0-8.077-6.552-14.625-14.634-14.625s-14.634 6.548-14.634 14.625H0V0h39.024v175.495h-4.878z" id="i"/><path d="M17.073 175.495c0-8.077-3.276-14.625-7.317-14.625s-7.317 6.548-7.317 14.625H0V0h19.512v175.495h-2.439z" id="k"/><path d="M17.073 175.495c0-8.077-3.276-14.625-7.317-14.625s-7.317 6.548-7.317 14.625H0V0h19.512v175.495h-2.439z" id="m"/></defs><g fill="none" fill-rule="evenodd"><g transform="translate(76 75)"><mask id="b" fill="#fff"><use xlink:href="#a"/></mask><use fill="#2C97DE" xlink:href="#a"/><path fill="#1FCE6D" mask="url(#b)" d="M28 349h397v131H28z"/><g transform="translate(3 40)" fill="#FFF"><path d="M16 37h80v22H16z"/><circle cx="95" cy="45" r="14"/><circle cx="15.5" cy="43.5" r="15.5"/><circle cx="69.5" cy="29.5" r="29.5"/><circle cx="32.5" cy="31.5" r="11.5"/></g><g transform="translate(341 69)" fill="#FFF"><path d="M16 37h80v22H16z"/><circle cx="95" cy="45" r="14"/><circle cx="15.5" cy="43.5" r="15.5"/><circle cx="69.5" cy="29.5" r="29.5"/><circle cx="32.5" cy="31.5" r="11.5"/></g><path d="M72.314 113.5h65.172M36 113.5h12.283" fill="#FFE500" stroke="#FFF" stroke-linecap="round" stroke-linejoin="round" stroke-width="5"/><path d="M351.314 142.5h65.172m-91.486 0h12.283" fill="#FFE500" stroke="#FFF" stroke-linecap="round" stroke-linejoin="round" stroke-width="5"/><path d="M324.592 27h46.045m-58.194 0h2.235" fill="#FFE500" stroke="#FFF" stroke-linecap="round" stroke-linejoin="round" stroke-width="5"/></g><path fill="#33495F" d="M301 61.312l13.414 112.122h-26.83z"/><path fill="#2B3E51" d="M301 61.312l26.829 112.122h-13.415zm0 0l-13.415 112.122H274.17z"/><path d="M302.463 39.862v18.916a2.923 2.923 0 0 1-1.464 5.458 2.926 2.926 0 0 1-1.463-5.458V39.862h-5.854v-2.925h5.854V30.6h2.927v6.337h5.853v2.925h-5.853z" fill="#2B3E51"/><path fill="#BDC3C7" d="M174.17 238.268h253.66v156.483H174.17z"/><path fill="#FFF" d="M193.683 307.004h214.634v3.9H193.683zM301 151.984l74.634 86.408H226.366z"/><g transform="translate(427.829 162.708)"><mask id="d" fill="#fff"><use xlink:href="#c"/></mask><use fill="#ECF0F1" xlink:href="#c"/><ellipse fill="#FFF" mask="url(#d)" cx="19.512" cy="175.495" rx="17.073" ry="17.062"/></g><g transform="translate(466.853 162.708)"><mask id="f" fill="#fff"><use xlink:href="#e"/></mask><use fill="#BDC3C7" xlink:href="#e"/><ellipse fill="#FFF" mask="url(#f)" cx="9.756" cy="175.495" rx="8.537" ry="17.062"/></g><g transform="translate(408.317 162.708)"><mask id="h" fill="#fff"><use xlink:href="#g"/></mask><use fill="#94A5A6" xlink:href="#g"/><ellipse fill="#FFF" mask="url(#h)" cx="9.756" cy="175.495" rx="8.537" ry="17.062"/></g><path d="M437.892 201.22a6.344 6.344 0 0 1-.307-1.95c0-4.308 4.368-7.8 9.756-7.8s9.756 3.492 9.756 7.8c0 .673-.107 1.326-.307 1.95h.307v29.249h-19.512v-29.25h.307z" fill="#2B3E51"/><path fill="#FFF" d="M446.365 200.245h1.951v31.199h-1.951z"/><path d="M437.585 199.27c0-5.385 4.368-9.75 9.756-9.75s9.756 4.365 9.756 9.75h-1.951c0-4.308-3.494-7.8-7.805-7.8a7.802 7.802 0 0 0-7.805 7.8h-1.951zm0 0h19.512v33.149h-19.512v-33.15zm1.951 1.95v29.249h15.61v-29.25h-15.61z" fill="#FFF"/><path d="M472.831 201.22a15.296 15.296 0 0 1-.123-1.95c0-4.308 1.747-7.8 3.902-7.8 2.155 0 3.902 3.492 3.902 7.8 0 .673-.042 1.326-.122 1.95h.122v29.249h-7.804v-29.25h.123z" fill="#2B3E51"/><path fill="#FFF" d="M476.122 200.245h1v31.199h-1z"/><path d="M471.732 199.27c0-5.385 2.184-9.75 4.878-9.75s4.878 4.365 4.878 9.75h-.976c0-4.308-1.747-7.8-3.902-7.8-2.155 0-3.902 3.492-3.902 7.8h-.976zm0 0h9.756v33.149h-9.756v-33.15zm.976 1.95v29.249h7.804v-29.25h-7.804z" fill="#FFF"/><path d="M414.294 201.22a15.296 15.296 0 0 1-.123-1.95c0-4.308 1.747-7.8 3.902-7.8 2.155 0 3.902 3.492 3.902 7.8 0 .673-.042 1.326-.122 1.95h.122v29.249h-7.804v-29.25h.123z" fill="#2B3E51"/><path fill="#FFF" d="M417.585 200.245h1v31.199h-1z"/><path d="M413.195 199.27c0-5.385 2.184-9.75 4.878-9.75s4.878 4.365 4.878 9.75h-.976c0-4.308-1.747-7.8-3.902-7.8-2.155 0-3.902 3.492-3.902 7.8h-.976zm0 0h9.756v33.149h-9.756v-33.15zm.976 1.95v29.249h7.804v-29.25h-7.804z" fill="#FFF"/><path fill="#33495F" d="M447.342 45.712l19.512 112.121h-39.025z"/><path fill="#2B3E51" d="M447.342 45.712l39.024 112.121h-19.512zm0 0l-19.513 112.121h-19.512z"/><path fill="#2B3E51" d="M393.683 157.833H501v4.875H393.683zm55.122-133.571v18.916a2.923 2.923 0 0 1-1.463 5.458 2.926 2.926 0 0 1-1.464-5.458V24.262h-5.854v-2.925h5.854V15h2.927v6.337h5.854v2.925h-5.854zm35.61 313.941h1.951v55.573h-1.951zm-76.098 0h1.951v55.573h-1.951z"/><g transform="translate(135.146 162.708)"><mask id="j" fill="#fff"><use xlink:href="#i"/></mask><use fill="#ECF0F1" xlink:href="#i"/><ellipse fill="#FFF" mask="url(#j)" cx="19.512" cy="175.495" rx="17.073" ry="17.062"/></g><g transform="translate(174.17 162.708)"><mask id="l" fill="#fff"><use xlink:href="#k"/></mask><use fill="#94A5A6" xlink:href="#k"/><ellipse fill="#FFF" mask="url(#l)" cx="9.756" cy="175.495" rx="8.537" ry="17.062"/></g><g transform="translate(115.634 162.708)"><mask id="n" fill="#fff"><use xlink:href="#m"/></mask><use fill="#BDC3C7" xlink:href="#m"/><ellipse fill="#FFF" mask="url(#n)" cx="9.756" cy="175.495" rx="8.537" ry="17.062"/></g><path d="M145.209 201.22a6.344 6.344 0 0 1-.307-1.95c0-4.308 4.368-7.8 9.756-7.8s9.756 3.492 9.756 7.8c0 .673-.107 1.326-.307 1.95h.307v29.249h-19.512v-29.25h.307z" fill="#2B3E51"/><path fill="#FFF" d="M153.682 200.245h1.951v31.199h-1.951z"/><path d="M144.902 199.27c0-5.385 4.368-9.75 9.756-9.75s9.756 4.365 9.756 9.75h-1.951c0-4.308-3.494-7.8-7.805-7.8a7.802 7.802 0 0 0-7.805 7.8h-1.951zm0 0h19.512v33.149h-19.512v-33.15zm1.951 1.95v29.249h15.61v-29.25h-15.61z" fill="#FFF"/><path d="M180.148 201.22a15.296 15.296 0 0 1-.123-1.95c0-4.308 1.747-7.8 3.902-7.8 2.155 0 3.902 3.492 3.902 7.8 0 .673-.042 1.326-.122 1.95h.122v29.249h-7.804v-29.25h.123z" fill="#2B3E51"/><path fill="#FFF" d="M183.439 200.245h1v31.199h-1z"/><path d="M179.049 199.27c0-5.385 2.184-9.75 4.878-9.75s4.878 4.365 4.878 9.75h-.976c0-4.308-1.747-7.8-3.902-7.8-2.155 0-3.902 3.492-3.902 7.8h-.976zm0 0h9.756v33.149h-9.756v-33.15zm.976 1.95v29.249h7.804v-29.25h-7.804z" fill="#FFF"/><path d="M121.611 201.22a15.296 15.296 0 0 1-.123-1.95c0-4.308 1.747-7.8 3.902-7.8 2.155 0 3.902 3.492 3.902 7.8 0 .673-.042 1.326-.122 1.95h.122v29.249h-7.804v-29.25h.123z" fill="#2B3E51"/><path fill="#FFF" d="M124.902 200.245h1v31.199h-1z"/><path d="M120.512 199.27c0-5.385 2.184-9.75 4.878-9.75s4.878 4.365 4.878 9.75h-.976c0-4.308-1.747-7.8-3.902-7.8-2.155 0-3.902 3.492-3.902 7.8h-.976zm0 0h9.756v33.149h-9.756v-33.15zm.976 1.95v29.249h7.804v-29.25h-7.804z" fill="#FFF"/><path fill="#33495F" d="M154.659 45.712l19.512 112.121h-39.025z"/><path fill="#2B3E51" d="M154.659 45.712l39.024 112.121H174.17zm0 0l-19.513 112.121h-19.512z"/><path fill="#2B3E51" d="M101 157.833h107.317v4.875H101zm55.122-133.571v18.916a2.923 2.923 0 0 1-1.463 5.458 2.926 2.926 0 0 1-1.464-5.458V24.262h-5.854v-2.925h5.854V15h2.927v6.337h5.854v2.925h-5.854zm35.61 313.941h1.951v55.573h-1.951zm-76.098 0h1.951v55.573h-1.951z"/><path d="M175.693 261.667L301 141.26v29.249L193.683 272.88H174.17v-11.213h1.522z" fill="#7F8C8D"/><path fill="#2B3E51" d="M174.17 263.13L301 141.259v9.75l-126.83 121.87z"/><path fill="#FFF" d="M174.17 258.255L301 136.384v4.875l-126.83 121.87z"/><path d="M426.307 261.667L301 141.26v29.249L408.317 272.88h19.512v-11.213h-1.522z" fill="#7F8C8D"/><path fill="#2B3E51" d="M427.83 263.13L301 141.259v9.75l126.83 121.87z"/><path fill="#FFF" d="M427.83 258.255L301 136.384v4.875l126.83 121.87z"/><path d="M313.195 296.766v-36.074h-24.39v36.074h-2.44v-36.074c0-8.076 6.55-14.624 14.628-14.624s14.627 6.548 14.627 14.624h.014v36.074h-2.439zm-24.391-36.074h24.378c0-6.73-5.457-12.187-12.189-12.187s-12.19 5.457-12.19 12.187z" fill="#ECF0F1"/><path d="M318.561 347.952v46.889h-35.122v-55.663h.007a17.869 17.869 0 0 1-.007-.488c0-9.692 7.862-17.55 17.561-17.55s17.561 7.858 17.561 17.55c0 .163-.002.326-.007.488h.007v8.774zm0 0h4.39v46.94H279.05v-85.938h4.39v16.572c4.005-5.327 10.38-8.773 17.561-8.773 7.18 0 13.556 3.446 17.561 8.773zm4.39-8.632v8.632z" fill="#FFF"/><path d="M283.45 339.32a17.854 17.854 0 0 1-.011-.63c0-9.692 7.862-17.55 17.561-17.55s17.561 7.858 17.561 17.55c0 .21-.004.42-.011.63h.011v55.573h-35.122V339.32h.011z" fill="#ECF0F1"/><g><path d="M240.178 262.642a12.273 12.273 0 0 1-.155-1.95c0-6.73 5.457-12.187 12.19-12.187 6.731 0 12.188 5.457 12.188 12.188 0 .663-.053 1.315-.155 1.95h.17v29.249h-24.381v-29.25h.142z" fill="#2B3E51"/><path d="M253.201 273.368v8.286h11.214v-8.286h-11.214zm-1.95 0h-11.214v8.286h11.214v-8.286zm1.95 18.524h11.214v-8.288h-11.214v8.288zm-1.95 0v-8.288h-11.214v8.288h11.214zm1.95-29.25v8.775h11.214v-8.775h-11.214zm-1.95 0h-11.214v8.775h11.214v-8.775zm15.588-1.95h.014v33.15h-29.254v-32.505c-.01-.214-.014-.429-.014-.644 0-8.077 6.549-14.625 14.627-14.625 8.079 0 14.627 6.548 14.627 14.625zm-2.438 0c0-6.73-5.457-12.187-12.189-12.187s-12.19 5.457-12.19 12.188h24.38z" fill="#ECF0F1"/></g><g><path d="M224.081 339.177a12.273 12.273 0 0 1-.155-1.95c0-6.73 5.457-12.187 12.19-12.187 6.731 0 12.188 5.457 12.188 12.188 0 .663-.053 1.315-.155 1.95h.17v29.249h-24.381v-29.25h.142z" fill="#2B3E51"/><path d="M237.104 349.903v8.286h11.214v-8.286h-11.214zm-1.95 0H223.94v8.286h11.214v-8.286zm1.95 18.524h11.214v-8.288h-11.214v8.288zm-1.95 0v-8.288H223.94v8.288h11.214zm1.95-29.25v8.775h11.214v-8.775h-11.214zm-1.95 0H223.94v8.775h11.214v-8.775zm15.588-1.95h.014v33.15h-29.254v-32.505c-.01-.214-.014-.429-.014-.644 0-8.077 6.549-14.625 14.627-14.625 8.079 0 14.627 6.548 14.627 14.625zm-2.438 0c0-6.73-5.457-12.187-12.189-12.187s-12.19 5.457-12.19 12.188h24.38z" fill="#ECF0F1"/></g><g><path d="M353.837 339.177a12.273 12.273 0 0 1-.155-1.95c0-6.73 5.457-12.187 12.19-12.187 6.731 0 12.188 5.457 12.188 12.188 0 .663-.053 1.315-.155 1.95h.17v29.249h-24.381v-29.25h.142z" fill="#2B3E51"/><path d="M366.86 349.903v8.286h11.214v-8.286H366.86zm-1.95 0h-11.214v8.286h11.214v-8.286zm1.95 18.524h11.214v-8.288H366.86v8.288zm-1.95 0v-8.288h-11.214v8.288h11.214zm1.95-29.25v8.775h11.214v-8.775H366.86zm-1.95 0h-11.214v8.775h11.214v-8.775zm15.588-1.95h.014v33.15h-29.254v-32.505c-.01-.214-.014-.429-.014-.644 0-8.077 6.549-14.625 14.627-14.625 8.079 0 14.627 6.548 14.627 14.625zm-2.438 0c0-6.73-5.457-12.187-12.189-12.187s-12.19 5.457-12.19 12.188h24.38z" fill="#ECF0F1"/></g><g><path d="M337.74 262.642a12.273 12.273 0 0 1-.155-1.95c0-6.73 5.457-12.187 12.19-12.187 6.731 0 12.189 5.457 12.189 12.188 0 .663-.053 1.315-.156 1.95h.17v29.249h-24.379v-29.25h.141z" fill="#2B3E51"/><path d="M350.762 273.368v8.286h11.214v-8.286h-11.214zm-1.95 0h-11.214v8.286h11.214v-8.286zm1.95 18.524h11.214v-8.288h-11.214v8.288zm-1.95 0v-8.288h-11.214v8.288h11.214zm1.95-29.25v8.775h11.214v-8.775h-11.214zm-1.95 0h-11.214v8.775h11.214v-8.775zm15.588-1.95h.014v33.15H335.16v-32.505c-.01-.214-.014-.429-.014-.644 0-8.077 6.549-14.625 14.627-14.625 8.079 0 14.627 6.548 14.627 14.625zm-2.438 0c0-6.73-5.457-12.187-12.189-12.187s-12.19 5.457-12.19 12.188h24.38z" fill="#ECF0F1"/></g><g><path fill="#2C97DE" d="M193.683 280.68h214.634v3.412H193.683zm0 16.087h214.634v3.412H193.683z"/><path d="M401.976 284.092h2.927v12.675h-2.927v-12.675zm-5.854 0h2.927v12.675h-2.927v-12.675zm-5.854 0h2.927v12.675h-2.927v-12.675zm-5.853 0h2.927v12.675h-2.927v-12.675zm-5.854 0h2.927v12.675h-2.927v-12.675zm-5.854 0h2.927v12.675h-2.927v-12.675zm-5.853 0h2.927v12.675h-2.927v-12.675zm-5.854 0h2.927v12.675H361v-12.675zm-5.854 0h2.927v12.675h-2.927v-12.675zm-5.853 0h2.927v12.675h-2.927v-12.675zm-5.854 0h2.927v12.675h-2.927v-12.675zm-5.854 0h2.927v12.675h-2.927v-12.675zm-5.853 0h2.927v12.675h-2.927v-12.675zm-5.854 0h2.927v12.675h-2.927v-12.675zm-5.854 0h2.927v12.675h-2.927v-12.675zm-5.853 0h2.927v12.675h-2.927v-12.675zm-5.854 0h2.927v12.675h-2.927v-12.675zm-5.854 0h2.927v12.675h-2.927v-12.675zm-5.853 0h2.927v12.675h-2.927v-12.675zm-5.854 0h2.927v12.675h-2.927v-12.675zm-5.853 0h2.926v12.675h-2.926v-12.675zm-5.854 0h2.927v12.675h-2.927v-12.675zm-5.854 0h2.927v12.675h-2.927v-12.675zm-5.853 0h2.926v12.675h-2.925v-12.675zm-5.854 0h2.927v12.675h-2.927v-12.675zm-5.854 0h2.927v12.675h-2.927v-12.675zm-5.853 0h2.926v12.675h-2.926v-12.675zm-5.854 0h2.927v12.675h-2.927v-12.675zm-5.854 0H241v12.675h-2.927v-12.675zm-5.853 0h2.926v12.675h-2.926v-12.675zm-5.854 0h2.927v12.675h-2.927v-12.675zm-5.854 0h2.927v12.675h-2.926v-12.675zm-5.853 0h2.926v12.675h-2.926v-12.675zm-5.854 0h2.927v12.675h-2.927v-12.675zm-5.854 0h2.927v12.675h-2.927v-12.675zm-5.853 0h2.925v12.675h-2.925v-12.675z" fill="#FFF"/></g><g fill="#2B3E51"><path d="M115.634 394.263h3.902v29.25h-3.902zm78.049 0h3.902v29.25h-3.902zm38.536 0h3.903v29.25h-3.903z"/><path d="M486.366 394.263h-3.902v29.25h3.902zm-78.049 0h-3.902v29.25h3.902zm-38.536 0h-3.903v29.25h3.903z"/></g><g><path d="M115.634 375.251H276.61v3.412H115.634v-3.412zm0 16.087H276.61v3.412H115.634v-3.412z" fill="#2C97DE"/><path d="M267.829 378.663h2.927v12.675h-2.927v-12.675zm5.854 0h2.927v12.675h-2.927v-12.675zm-11.708 0h2.927v12.675h-2.927v-12.675zm-5.853 0h2.927v12.675h-2.927v-12.675zm-5.854 0h2.927v12.675h-2.927v-12.675zm-5.854 0h2.927v12.675h-2.927v-12.675zm-5.853 0h2.927v12.675h-2.927v-12.675zm-5.854 0h2.927v12.675h-2.927v-12.675zm-5.853 0h2.926v12.675h-2.926v-12.675zm-5.854 0h2.927v12.675H221v-12.675zm-5.854 0h2.927v12.675h-2.927v-12.675zm-5.853 0h2.926v12.675h-2.925v-12.675zm-5.854 0h2.927v12.675h-2.927v-12.675zm-5.854 0h2.927v12.675h-2.927v-12.675zm-5.853 0h2.926v12.675h-2.926v-12.675zm-5.854 0h2.927v12.675h-2.927v-12.675zm-5.854 0h2.927v12.675h-2.927v-12.675zm-5.853 0h2.926v12.675h-2.926v-12.675zm-5.854 0h2.927v12.675h-2.927v-12.675zm-5.854 0h2.927v12.675h-2.926v-12.675zm-5.853 0h2.926v12.675h-2.926v-12.675zm-5.854 0h2.927v12.675h-2.927v-12.675zm-5.854 0h2.927v12.675h-2.927v-12.675zm-5.853 0h2.926v12.675h-2.926v-12.675zm-5.854 0h2.927v12.675h-2.928v-12.675zm-5.854 0h2.927v12.675h-2.927v-12.675zm-5.853 0h2.926v12.675h-2.926v-12.675zm-5.854 0h2.927v12.675h-2.927v-12.675z" fill="#FFF"/></g><g><path d="M325.39 375.251h160.976v3.412H325.39v-3.412zm0 16.087h160.976v3.412H325.39v-3.412z" fill="#2C97DE"/><path d="M477.585 378.663h2.927v12.675h-2.927v-12.675zm5.854 0h2.927v12.675h-2.927v-12.675zm-11.708 0h2.927v12.675h-2.927v-12.675zm-5.853 0h2.927v12.675h-2.927v-12.675zm-5.854 0h2.927v12.675h-2.927v-12.675zm-5.854 0h2.927v12.675h-2.927v-12.675zm-5.853 0h2.927v12.675h-2.927v-12.675zm-5.854 0h2.927v12.675h-2.927v-12.675zm-5.853 0h2.926v12.675h-2.926v-12.675zm-5.854 0h2.927v12.675h-2.927v-12.675zm-5.854 0h2.927v12.675h-2.927v-12.675zm-5.853 0h2.926v12.675h-2.925v-12.675zm-5.854 0h2.927v12.675h-2.927v-12.675zm-5.854 0h2.927v12.675h-2.927v-12.675zm-5.853 0h2.926v12.675h-2.926v-12.675zm-5.854 0h2.927v12.675h-2.927v-12.675zm-5.854 0h2.927v12.675h-2.927v-12.675zm-5.853 0h2.926v12.675h-2.926v-12.675zm-5.854 0H381v12.675h-2.927v-12.675zm-5.854 0h2.927v12.675h-2.926v-12.675zm-5.853 0h2.926v12.675h-2.926v-12.675zm-5.854 0h2.927v12.675h-2.927v-12.675zm-5.854 0h2.927v12.675h-2.927v-12.675zm-5.853 0h2.926v12.675h-2.926v-12.675zm-5.854 0h2.927v12.675h-2.928v-12.675zm-5.854 0h2.927v12.675h-2.927v-12.675zm-5.853 0h2.926v12.675h-2.926v-12.675zm-5.854 0h2.927v12.675h-2.927v-12.675z" fill="#FFF"/></g><g fill="#2B3E51"><path d="M133.195 338.203h5.854v85.31h-5.854zm37.073 0h5.854v85.31h-5.854zm255.61 0h5.854v85.31h-5.854zm37.073 0h5.854v85.31h-5.854z"/></g><g><path fill="#33495F" d="M276.61 394.75h48.78v4.875h-48.78z"/><path fill="#2B3E51" d="M274.171 399.625h53.659v4.875h-53.659z"/><path fill="#33495F" d="M271.732 404.5h58.537v4.875h-58.537z"/><path fill="#2B3E51" d="M269.293 409.375h63.415v4.875h-63.415z"/><path fill="#33495F" d="M266.854 414.249h68.293v4.875h-68.293z"/><path fill="#2B3E51" d="M264.415 419.124h73.171v4.875h-73.171z"/></g></g></svg>