<svg width="600" height="600" xmlns="http://www.w3.org/2000/svg" xmlns:xlink="http://www.w3.org/1999/xlink"><defs><circle id="a" cx="225" cy="225" r="225"/></defs><g fill="none" fill-rule="evenodd"><g transform="translate(76 75)"><mask id="b" fill="#fff"><use xlink:href="#a"/></mask><use fill="#2C97DE" xlink:href="#a"/><path fill="#1FCE6D" mask="url(#b)" d="M28 349h397v131H28z"/><g transform="translate(3 40)" fill="#FFF"><path d="M16 37h80v22H16z"/><circle cx="95" cy="45" r="14"/><circle cx="15.5" cy="43.5" r="15.5"/><circle cx="69.5" cy="29.5" r="29.5"/><circle cx="32.5" cy="31.5" r="11.5"/></g><g transform="translate(341 69)" fill="#FFF"><path d="M16 37h80v22H16z"/><circle cx="95" cy="45" r="14"/><circle cx="15.5" cy="43.5" r="15.5"/><circle cx="69.5" cy="29.5" r="29.5"/><circle cx="32.5" cy="31.5" r="11.5"/></g><path d="M72.314 113.5h65.172M36 113.5h12.283" fill="#FFE500" stroke="#FFF" stroke-linecap="round" stroke-linejoin="round" stroke-width="5"/><path d="M351.314 142.5h65.172m-91.486 0h12.283" fill="#FFE500" stroke="#FFF" stroke-linecap="round" stroke-linejoin="round" stroke-width="5"/><path d="M324.592 27h46.045m-58.194 0h2.235" fill="#FFE500" stroke="#FFF" stroke-linecap="round" stroke-linejoin="round" stroke-width="5"/></g><g transform="translate(140 29)"><path fill="#ECF0F1" d="M88.828 294.03h144.344l66.621 58.807H22.207zm46.19-234.114h51.964l23.984 22.19h-99.932z"/><path fill="#FFF" d="M153.05 15.534h15.9l28.691 37.724H124.36z"/><path fill="#FFF" d="M123.248 199.719h75.504l12.214-22.191h-99.932z"/><path fill="#BDC3C7" d="M16.655 355.056h288.69v32.177H16.655z"/><path fill="#ECF0F1" d="M0 381.685h124.359V395H0zm197.641 0H322V395H197.641z"/><path fill="#FFF" d="M161 308.455l47.745 44.382h-95.49z"/><path fill="#FFF" d="M113.255 352.837h11.103v28.848h-11.103zm84.386 0h11.103v28.848h-11.103z"/><path fill="#BDC3C7" d="M124.359 352.837h73.283v34.396h-73.283z"/><path fill="#BDC3C7" d="M161 318.441l36.641 34.396H124.36z"/><path fill="#FFF" d="M0 350.618h124.359v4.438H0z"/><path fill="#FFF" d="M0 350.618h124.359v4.438H0zm197.641 0H322v4.438H197.641z"/><path d="M215.407 362.823h33.31v6.657h-33.31v-6.657zm35.53 0h33.311v6.657h-33.31v-6.657zm-213.185 0h33.31v6.657h-33.31v-6.657zm35.53 0h33.311v6.657h-33.31v-6.657z" fill="#2B3E51"/><path fill="#FFF" d="M124.359 392.781h73.283V395h-73.283zm0-4.438h73.283v2.219h-73.283z"/><path fill="#ECF0F1" d="M124.359 390.562h73.283v2.219h-73.283zm0-4.438h73.283v2.219h-73.283z"/><path d="M149.951 355.056c.557-5.607 5.291-9.986 11.049-9.986 5.758 0 10.492 4.38 11.049 9.986h.054v31.068h-22.206v-31.068h.054z" fill="#2B3E51"/><path fill="#FFF" d="M123.248 237.444h75.503v56.587h-75.503z"/><path fill="#ECF0F1" d="M123.248 199.719h75.503v37.725h-75.503z"/><path fill="#BDC3C7" d="M132.131 199.719h57.738v28.848h-57.738zm12.214 53.259h33.31v41.053h-33.31z"/><path fill="#ECF0F1" d="M133.241 88.764h55.517v88.764h-55.517z"/><path fill="#FFF" d="M111.034 82.107h99.931v6.657h-99.931zm19.987 45.491h59.959v4.438h-59.959z"/><ellipse fill="#2B3E51" cx="161" cy="107.626" rx="13.324" ry="13.315"/><ellipse fill="#FFF" cx="161" cy="107.626" rx="12.214" ry="12.205"/><path fill="#2B3E51" d="M134.352 53.258h53.297v6.657h-53.297z"/><path fill="#ECF0F1" d="M134.352 53.258h2.221v8.876h-2.221zm51.076 0h2.221v8.876h-2.221z"/><path fill="#E87E04" d="M148.786 7.767h25.538l-5.552 7.767h-15.544z"/><path fill="#F2C500" d="M161 0l7.772 15.534h-15.544z"/></g></g></svg>