<svg width="600" height="600" xmlns="http://www.w3.org/2000/svg" xmlns:xlink="http://www.w3.org/1999/xlink"><defs><circle id="a" cx="225" cy="225" r="225"/></defs><g fill="none" fill-rule="evenodd"><g transform="translate(76 75)"><mask id="b" fill="#fff"><use xlink:href="#a"/></mask><use fill="#2C97DE" xlink:href="#a"/><path fill="#1FCE6D" mask="url(#b)" d="M28 349h397v131H28z"/><g transform="translate(3 40)" fill="#FFF"><path d="M16 37h80v22H16z"/><circle cx="95" cy="45" r="14"/><circle cx="15.5" cy="43.5" r="15.5"/><circle cx="69.5" cy="29.5" r="29.5"/><circle cx="32.5" cy="31.5" r="11.5"/></g><g transform="translate(341 69)" fill="#FFF"><path d="M16 37h80v22H16z"/><circle cx="95" cy="45" r="14"/><circle cx="15.5" cy="43.5" r="15.5"/><circle cx="69.5" cy="29.5" r="29.5"/><circle cx="32.5" cy="31.5" r="11.5"/></g><path d="M72.314 113.5h65.172M36 113.5h12.283" fill="#FFE500" stroke="#FFF" stroke-linecap="round" stroke-linejoin="round" stroke-width="5"/><path d="M351.314 142.5h65.172m-91.486 0h12.283" fill="#FFE500" stroke="#FFF" stroke-linecap="round" stroke-linejoin="round" stroke-width="5"/><path d="M324.592 27h46.045m-58.194 0h2.235" fill="#FFE500" stroke="#FFF" stroke-linecap="round" stroke-linejoin="round" stroke-width="5"/></g><path d="M19.971 374.544C14.233 363.206 11 350.391 11 336.824 11 290.529 48.634 253 95.058 253h411.884C553.366 253 591 290.53 591 336.824c0 13.567-3.233 26.382-8.971 37.72H19.97z" fill="#C23824"/><path fill="#FFF" d="M187.522 301.618h226.957v21.794H187.522z"/><path fill="#FFF" d="M167.348 318.383h267.304v5.029H167.348zm20.174 5.029h5.043v67.059h-5.043z"/><path fill="#94A5A6" d="M187.522 390.471h5.043V424h-5.043z"/><path fill="#FFF" d="M409.435 323.412h5.043v67.059h-5.043z"/><path fill="#94A5A6" d="M409.435 390.471h5.043V424h-5.043z"/><path fill="#ECF0F1" d="M192.565 323.412h16.812v67.059h-16.812z"/><path fill="#7F8C8D" d="M192.565 390.471h16.812V424h-16.812z"/><path fill="#ECF0F1" d="M392.623 323.412h16.812v67.059h-16.812z"/><path fill="#7F8C8D" d="M392.623 390.471h16.812V424h-16.812z"/><path fill="#ECF0F1" d="M209.377 390.471h58.841V424h-58.841zm124.406 0h58.841V424h-58.841z"/><path fill="#E87E04" d="M209.377 323.412h25.217v67.059h-25.217zm158.029 0h25.217v67.059h-25.217z"/><path fill="#ECF0F1" d="M32.855 374.544h154.667V424H32.855zm381.623 0h154.667V424H414.478z"/><path fill="#BDC3C7" d="M209.377 390.471h58.841v5.029h-58.841zm124.406 0h58.841v5.029h-58.841z"/><path fill="#2B3E51" d="M234.595 333.471h33.623v57h-33.623z"/><path d="M254.769 385.441v-5.029h-6.725v5.03h6.725zm1.681 0h6.725v-10.057h-6.725v10.057zm0-11.735h6.725v-6.705h-6.725v6.706zm0-8.382h6.725v-6.706h-6.725v6.706zm0-8.382h6.725v-6.706h-6.725v6.706zm0-8.383h6.725v-10.058h-6.725v10.06zm-1.681-10.058c0-.925-1.505-1.676-3.362-1.676-1.857 0-3.363.75-3.363 1.676v6.706h6.725v-6.706zm0 8.383h-6.725v6.706h6.725v-6.706zm0 8.382h-6.725v6.705h6.725v-6.706zm0 8.382h-6.725v6.706h6.725v-6.706zm0 8.383h-6.725v6.706h6.725v-6.706zm-8.406 13.41v-10.06h-6.725v10.06h6.725zm0-46.942h-6.725v10.06h6.725v-10.06zm0 11.736h-6.725v6.706h6.725v-6.706zm0 8.382h-6.725v6.706h6.725v-6.706zm0 8.382h-6.725v6.706h6.725v-6.704zm16.812-33.528h5.043v57h-33.623v-57h28.58z" fill="#D55400"/><path fill="#2B3E51" d="M333.783 333.471h33.623v57h-33.623z"/><path d="M353.957 385.441v-5.029h-6.725v5.03h6.725zm1.681 0h6.725v-10.057h-6.725v10.057zm0-11.735h6.725v-6.705h-6.725v6.706zm0-8.382h6.725v-6.706h-6.725v6.706zm0-8.382h6.725v-6.706h-6.725v6.706zm0-8.383h6.725v-10.058h-6.725v10.06zm-1.681-10.058c0-.925-1.505-1.676-3.362-1.676-1.857 0-3.363.75-3.363 1.676v6.706h6.725v-6.706zm0 8.383h-6.725v6.706h6.725v-6.706zm0 8.382h-6.725v6.705h6.725v-6.706zm0 8.382h-6.725v6.706h6.725v-6.706zm0 8.383h-6.725v6.706h6.725v-6.706zm-8.406 13.41v-10.06h-6.725v10.06h6.725zm0-46.942h-6.725v10.06h6.725v-10.06zm0 11.736h-6.725v6.706h6.725v-6.706zm0 8.382h-6.725v6.706h6.725v-6.706zm0 8.382h-6.725v6.706h6.725v-6.704zm16.812-33.528h5.043v57h-33.623v-57h28.58z" fill="#D55400"/><path fill="#2B3E51" d="M234.594 323.412h132.812v10.059H234.594z"/><path fill="#D55400" d="M268.217 333.471h65.565v5.029h-65.565zm-33.623-10.059h132.812v1.676H234.594zm0 5.03h132.812v1.676H234.594z"/><path fill="#E87E04" d="M268.217 338.5H301V424h-32.783zm32.783 0h32.783V424H301z"/><path d="M270.739 378.736h27.74v1.676h-27.74v-1.676zm0-4.192h27.74v1.677h-27.74v-1.677zm0-4.19h27.74v1.676h-27.74v-1.677zm0-4.192h27.74v1.677h-27.74v-1.677zm0-4.191h27.74v1.676h-27.74v-1.676zm0-4.191h27.74v1.676h-27.74v-1.676zm0-4.191h27.74v1.676h-27.74v-1.676zm0-4.192h27.74v1.677h-27.74v-1.677zm0-4.19h27.74v1.676h-27.74v-1.677zm0-4.192h27.74v1.677h-27.74v-1.677zm32.783 37.72h27.739v1.677h-27.74v-1.676zm0-4.19h27.739v1.676h-27.74v-1.677zm0-4.192h27.739v1.677h-27.74v-1.677zm0-4.19h27.739v1.676h-27.74v-1.677zm0-4.192h27.739v1.676h-27.74v-1.676zm0-4.191h27.739v1.676h-27.74v-1.676zm0-4.191h27.739v1.676h-27.74v-1.676zm0-4.192h27.739v1.677h-27.74v-1.677zm0-4.19h27.739v1.676h-27.74v-1.677zm0-4.192h27.739v1.677h-27.74v-1.677zm66.405 22.632h20.174v1.677h-20.174v-1.677zm0-4.19h20.174v1.676h-20.174v-1.677zm0-4.192h20.174v1.677h-20.174v-1.677zm0-4.191h20.174v1.676h-20.174v-1.676zm0-4.191h20.174v1.676h-20.174v-1.676zm0-4.191h20.174v1.676h-20.174v-1.676zm0-4.192h20.174v1.677h-20.174V338.5zm0-4.19h20.174v1.676h-20.174v-1.678zm0-4.192h20.174v1.676h-20.174v-1.676zm0-4.191h20.174v1.676h-20.174v-1.675zm0 58.676h20.174v1.677h-20.174v-1.677zm0-4.19h20.174v1.676h-20.174v-1.677zm0-4.192h20.174v1.676h-20.174v-1.676zm0-4.191h20.174v1.676h-20.174v-1.676zm0-4.191h20.174v1.676h-20.174v-1.676zm-158.029-4.192h20.174v1.677h-20.174v-1.677zm0-4.19h20.174v1.676h-20.174v-1.677zm0-4.192h20.174v1.677h-20.174v-1.677zm0-4.191h20.174v1.676h-20.174v-1.676zm0-4.191h20.174v1.676h-20.174v-1.676zm0-4.191h20.174v1.676h-20.174v-1.676zm0-4.192h20.174v1.677h-20.174V338.5zm0-4.19h20.174v1.676h-20.174v-1.678zm0-4.192h20.174v1.676h-20.174v-1.676zm0-4.191h20.174v1.676h-20.174v-1.675zm0 58.676h20.174v1.677h-20.174v-1.677zm0-4.19h20.174v1.676h-20.174v-1.677zm0-4.192h20.174v1.676h-20.174v-1.676zm0-4.191h20.174v1.676h-20.174v-1.676zm0-4.191h20.174v1.676h-20.174v-1.676z" fill="#2B3E51"/><g><path fill="#2B3E51" d="M98.42 305.809h43.71v37.721H98.42z"/><path fill="#E94B35" d="M90.015 301.618h60.521L167.348 310H73.203z"/><path fill="#2B3E51" d="M459.87 305.809h43.71v37.721h-43.71z"/><path fill="#E94B35" d="M451.465 301.618h60.521L528.798 310h-94.145z"/></g></g></svg>