<svg height="600" width="600" xmlns="http://www.w3.org/2000/svg" xmlns:xlink="http://www.w3.org/1999/xlink"><defs><circle id="a" cx="225" cy="225" r="225"/><mask id="b" fill="#fff"><use fill="#fff" fill-rule="evenodd" xlink:href="#a"/></mask></defs><g fill="none" fill-rule="evenodd"><g transform="translate(76 75)"><use fill="#2c97de" xlink:href="#a"/><path d="m28 349h397v131h-397z" fill="#1fce6d" mask="url(#b)"/><g fill="#fff" transform="translate(3 40)"><path d="m16 37h80v22h-80z"/><circle cx="95" cy="45" r="14"/><circle cx="15.5" cy="43.5" r="15.5"/><circle cx="69.5" cy="29.5" r="29.5"/><circle cx="32.5" cy="31.5" r="11.5"/></g><g fill="#fff" transform="translate(341 69)"><path d="m16 37h80v22h-80z"/><circle cx="95" cy="45" r="14"/><circle cx="15.5" cy="43.5" r="15.5"/><circle cx="69.5" cy="29.5" r="29.5"/><circle cx="32.5" cy="31.5" r="11.5"/></g><g fill="#ffe500" stroke="#fff" stroke-linecap="round" stroke-linejoin="round" stroke-width="5"><path d="m36.314 1.5h65.172m-101.486 0h12.283" transform="translate(36 112)"/><path d="m26.314 1.5h65.172m-91.486 0h12.283" transform="translate(325 141)"/><path d="m12.592 1h46.045m-58.194 0h2.235" transform="translate(312 26)"/></g></g><g transform="translate(24 248)"><path d="m277.306416 0 .919248 9.19860627h-1.838496z" fill="#f2c500"/><path d="m273.936 17.477a3.372 3.372 0 1 1 6.741 0c1.862 0 3.37 1.51 3.37 3.373a3.372 3.372 0 1 1 -6.74 0 3.372 3.372 0 1 1 -3.371-3.373z" fill="#2c97de"/><path d="m275.162 10.705c0-1.17.96-2.12 2.144-2.12 1.185 0 2.145.95 2.145 2.12 1.185 0 2.145.95 2.145 2.12s-.96 2.12-2.145 2.12c-1.184 0-2.145-.95-2.145-2.12 0 1.17-.96 2.12-2.144 2.12-1.185 0-2.145-.95-2.145-2.12s.96-2.12 2.145-2.12z" fill="#2c97de"/><g transform="translate(41.673 28.516)"><path d="m182.317 58.871h106.02v6.746h-106.02z" fill="#c23824"/><g transform="translate(176.496 58.871)"><path d="m0 0h6.128v6.746h-6.128z" fill="#e94b35"/><g fill="#c23824" transform="translate(0 6.746)"><path d="m0 0h16.546v2.683h-16.546z"/><path d="m0 2.683h14.708v2.683h-14.708z"/><path d="m0 5.366h12.869v2.683h-12.869z"/><path d="m0 8.049h11.031v2.683h-11.031z"/></g><path d="m0 17.477h4.29v65.617h-4.29z" fill="#94a5a6"/></g><g transform="translate(277.92 58.871)"><path d="m10.418 0h6.128v6.746h-6.128z" fill="#e94b35"/><g fill="#c23824"><path d="m0 6.746h16.546v2.683h-16.546z"/><path d="m1.838 9.505h14.708v2.683h-14.708z"/><path d="m3.67699115 11.9581882h12.86946905v2.6829268h-12.86946905z"/><path d="m5.515 14.718h11.031v2.683h-11.031z"/></g><path d="m12.257 17.477h4.29v65.617h-4.29z" fill="#94a5a6"/></g><g transform="translate(113.987)"><g fill="#f59d00" transform="translate(17.16 42.927)"><path d="m0 0h6.741v27.596h-6.741z"/><path d="m201.009 0h6.741v27.596h-6.741z"/></g><path d="m.286 31.592s9.268 6.601 17.688 6.601 42.476-8.144 42.476-8.144h4.415s-33.264 15.944-47.673 15.944c-14.41 0-16.906-14.4-16.906-14.4zm38.77-30.63s6.616 4.115 12.628 4.115c6.01 0 30.326-5.077 30.326-5.077h3.152s-23.75 9.939-34.037 9.939-12.07-8.977-12.07-8.977z" fill="#e94b35" transform="translate(0 .307)"/><path d="m.287 31.592s9.301 6.601 17.752 6.601c8.45 0 42.63-8.144 42.63-8.144h4.431s-33.385 15.944-47.846 15.944c-14.462 0-16.967-14.4-16.967-14.4zm38.601-30.63s6.641 4.115 12.674 4.115 30.436-5.077 30.436-5.077h3.164s-23.835 9.939-34.16 9.939-12.114-8.977-12.114-8.977z" fill="#e94b35" transform="matrix(-1 0 0 1 242.375 .307)"/><path d="m23.9 46.3h194.268v12.571h-194.268z" fill="#e87e04"/><path d="m65.88 33.422h113.373l19.45 5.396 26.513 7.355s-55.156 10.552-104.182 10.552-104.181-10.552-104.181-10.552l49.026-12.751z" fill="#e94b35"/><path d="m64.347 30.355h113.374l19.45 5.396 26.513 7.355s-55.155 10.554-104.182 10.554c-49.026 0-104.181-10.553-104.181-10.553l49.026-12.75z" fill="#c23824"/><path d="m58.2190265 8.89198606h125.6305315v9.19860624h-125.6305315z" fill="#e87e04"/><path d="m83.565 2.146h77.035l13.216 3.358 18.014 4.577s-37.476 6.567-70.789 6.567c-33.312 0-70.789-6.567-70.789-6.567z" fill="#e94b35"/><path d="m82.033 0h77.035l13.216 3.358 18.014 4.577s-37.478 6.565-70.789 6.565c-33.312 0-70.789-6.566-70.789-6.566z" fill="#c23824"/><path d="m66.492 17.784h4.29v12.571h-4.29z" fill="#f59d00"/><path d="m171.899 17.784h4.29v12.571h-4.29z" fill="#f59d00"/><path d="m93.763 17.784h51.478v12.571h-51.478z" fill="#fff"/></g><g transform="translate(102.956 69.603)"><path d="m0 0h73.54v16.557h-73.54z" fill="#1fce6d"/><path d="m4.903 16.557h63.734v61.325h-63.734zm7.66 10.426v19.623h48.414v-19.623z" fill="#fff"/><g transform="translate(9.499 23.916)"><path d="m0 0h54.542v25.756h-54.542zm3.064 3.066v19.624h48.414v-19.624z" fill="#f59d00"/><g fill="#1fce6d" transform="translate(6.128 3.066)"><path d="m0 0h2.86v19.624h-2.86z"/><path d="m5.72 0h2.86v19.624h-2.86z"/><path d="m40.038 0h2.86v19.624h-2.86z"/><path d="m34.319 0h2.86v19.624h-2.86z"/><path d="m28.599 0h2.86v19.624h-2.86z"/><path d="m22.879 0h2.86v19.624h-2.86z"/><path d="m17.159 0h2.86v19.624h-2.86z"/><path d="m11.44 0h2.86v19.624h-2.86z"/></g></g><g fill="#f59d00"><path d="m0 16.557h4.903v61.324h-4.903z"/><path d="m68.637 16.557h4.903v61.324h-4.903z"/></g></g><g transform="translate(294.466 69.603)"><path d="m0 0h73.54v16.557h-73.54z" fill="#1fce6d"/><path d="m4.903 16.557h63.734v61.325h-63.734zm7.66 10.426v19.623h48.414v-19.623z" fill="#fff"/><g transform="translate(9.499 23.916)"><path d="m0 0h54.542v25.756h-54.542zm3.064 3.066v19.624h48.414v-19.624z" fill="#f59d00"/><g fill="#1fce6d" transform="translate(6.128 3.066)"><path d="m0 0h2.86v19.624h-2.86z"/><path d="m5.72 0h2.86v19.624h-2.86z"/><path d="m40.038 0h2.86v19.624h-2.86z"/><path d="m34.319 0h2.86v19.624h-2.86z"/><path d="m28.599 0h2.86v19.624h-2.86z"/><path d="m22.879 0h2.86v19.624h-2.86z"/><path d="m17.159 0h2.86v19.624h-2.86z"/><path d="m11.44 0h2.86v19.624h-2.86z"/></g></g><g fill="#f59d00"><path d="m0 16.557h4.903v61.324h-4.903z"/><path d="m68.637 16.557h4.903v61.324h-4.903z"/></g></g><g transform="translate(207.444 61.324)"><path d="m8.58 21.157h1.226v5.826h-1.226z" fill="#fff"/><ellipse cx="9.192" cy="8.279" fill="#e94b35" rx="9.192" ry="8.279"/><path d="m7.37 18.16a1.84 1.84 0 0 1 3.646 0h.015v3.917h-3.677v-3.917h.015z" fill="#f2c500"/><g transform="translate(37.383)"><path d="m8.58 21.157h1.226v5.826h-1.226z" fill="#fff"/><ellipse cx="9.192" cy="8.279" fill="#e94b35" rx="9.192" ry="8.279"/><path d="m7.37 18.16a1.84 1.84 0 0 1 3.646 0h.015v3.917h-3.677v-3.917h.015z" fill="#f2c500"/></g></g><path d="m2.451 69.603h100.504v72.976h-100.504z" fill="#ecf0f1"/><path d="m368.006 69.603h100.504v72.976h-100.504z" fill="#ecf0f1"/><path d="m83.652 6.439h1.838l-1.838 1.84zm2.45 0h1.84v1.84zm1.84 2.453v1.84h-1.84zm-2.146.307a.613.613 0 1 1 0-1.226.613.613 0 0 1 0 1.226zm-2.144-.307 1.838 1.84h-1.838zm0-8.892h1.838l-1.838 1.84zm2.45 0h1.84v1.84l-1.841-1.84zm1.84 2.453v1.84h-1.84zm-2.146.307a.613.613 0 1 1 0-1.226.613.613 0 0 1 0 1.226zm-2.144-.307 1.838 1.84h-1.838zm-6.435 3.986h1.838l-1.838 1.84zm2.451 0h1.839v1.84zm1.839 2.453v1.84h-1.839zm-2.145.307a.613.613 0 1 1 0-1.226.613.613 0 0 1 0 1.226zm-2.145-.307 1.838 1.84h-1.838zm0-8.892h1.838l-1.838 1.84zm2.451 0h1.839v1.84zm1.839 2.453v1.84h-1.839zm-2.145.307a.613.613 0 1 1 0-1.226.613.613 0 0 1 0 1.226zm-2.145-.307 1.838 1.84h-1.838zm-6.435 3.986h1.839l-1.839 1.84zm2.451 0h1.839v1.84zm1.839 2.453v1.84h-1.839zm-2.145.307a.613.613 0 1 1 0-1.226.613.613 0 0 1 0 1.226zm-2.145-.307 1.839 1.84h-1.839zm0-8.892h1.839l-1.839 1.84zm2.451 0h1.839v1.84zm1.839 2.453v1.84h-1.839zm-2.145.307a.613.613 0 1 1 0-1.226.613.613 0 0 1 0 1.226zm-2.145-.307 1.839 1.84h-1.839zm-6.435 3.986h1.839l-1.839 1.84zm2.452 0h1.838v1.84l-1.837-1.84zm1.838 2.453v1.84h-1.837l1.838-1.84zm-2.145.307a.613.613 0 1 1 0-1.226.613.613 0 0 1 0 1.226zm-2.145-.307 1.839 1.84h-1.839zm0-8.892h1.839l-1.839 1.84zm2.453 0h1.838v1.84zm1.838 2.453v1.84h-1.838zm-2.145.307a.613.613 0 1 1 0-1.226.613.613 0 0 1 0 1.226zm-2.145-.307 1.839 1.84h-1.839zm-6.434 3.986h1.838l-1.838 1.84zm2.45 0h1.84v1.84zm1.84 2.453v1.84h-1.84zm-2.145.307a.613.613 0 1 1 0-1.226.613.613 0 0 1 0 1.226zm-2.145-.307 1.838 1.84h-1.838zm0-8.892h1.838l-1.838 1.84zm2.45 0h1.84v1.84l-1.842-1.84zm1.84 2.453v1.84h-1.84zm-2.145.307a.613.613 0 1 1 0-1.226.613.613 0 0 1 0 1.226zm-2.145-.307 1.838 1.84h-1.838zm-6.435 3.986h1.838l-1.838 1.84zm2.451 0h1.839v1.84zm1.839 2.453v1.84h-1.839zm-2.145.307a.613.613 0 1 1 0-1.226.613.613 0 0 1 0 1.226zm-2.145-.307 1.838 1.84h-1.838zm0-8.892h1.838l-1.838 1.84zm2.451 0h1.839v1.84l-1.84-1.84zm1.839 2.453v1.84h-1.839zm-2.145.307a.613.613 0 1 1 0-1.226.613.613 0 0 1 0 1.226zm-2.145-.307 1.838 1.84h-1.838zm-6.435 3.986h1.839l-1.839 1.84zm2.451 0h1.839v1.84zm1.839 2.453v1.84h-1.839zm-2.145.307a.613.613 0 1 1 0-1.226.613.613 0 0 1 0 1.226zm-2.145-.307 1.839 1.84h-1.839zm0-8.892h1.839l-1.839 1.84zm2.451 0h1.839v1.84l-1.84-1.84zm1.839 2.453v1.84h-1.839zm-2.145.307a.613.613 0 1 1 0-1.226.613.613 0 0 1 0 1.226zm-2.145-.307 1.839 1.84h-1.839zm-6.435 3.986h1.839l-1.839 1.84zm2.452 0h1.838v1.84zm1.838 2.453v1.84h-1.839l1.838-1.84zm-2.145.307a.613.613 0 1 1 0-1.226.613.613 0 0 1 0 1.226zm-2.145-.307 1.839 1.84h-1.839zm0-8.892h1.839l-1.839 1.84zm2.452 0h1.838v1.84l-1.839-1.84zm1.838 2.453v1.84h-1.839l1.838-1.84zm-2.145.307a.613.613 0 1 1 0-1.226.613.613 0 0 1 0 1.226zm-2.145-.307 1.839 1.84h-1.839zm-6.434 3.986h1.838l-1.838 1.84zm2.451 0h1.838v1.84zm1.838 2.453v1.84h-1.838zm-2.144.307a.613.613 0 1 1 0-1.226.613.613 0 0 1 0 1.226zm-2.145-.307 1.838 1.84h-1.838zm0-8.892h1.838l-1.838 1.84zm2.451 0h1.838v1.84l-1.839-1.84zm1.838 2.453v1.84h-1.838zm-2.144.307a.613.613 0 1 1 0-1.226.613.613 0 0 1 0 1.226zm-2.145-.307 1.838 1.84h-1.838zm-6.435 3.986h1.838l-1.838 1.84zm2.451 0h1.839v1.84zm1.839 2.453v1.84h-1.84l1.839-1.84zm-2.145.307a.613.613 0 1 1 0-1.226.613.613 0 0 1 0 1.226zm-2.145-.307 1.838 1.84h-1.838v-1.84zm0-8.892h1.838l-1.838 1.84v-1.84zm2.451 0h1.839v1.84l-1.84-1.84zm1.839 2.453v1.84h-1.84l1.839-1.84zm-2.145.307a.613.613 0 1 1 0-1.226.613.613 0 0 1 0 1.226zm-2.145-.307 1.838 1.84h-1.838v-1.84zm-6.435 3.986h1.839l-1.839 1.84zm2.452 0h1.838v1.84zm1.838 2.453v1.84h-1.838zm-2.145.307a.613.613 0 1 1 0-1.226.613.613 0 0 1 0 1.226zm-2.145-.307 1.839 1.84h-1.839zm0-8.892h1.839l-1.839 1.84zm2.452 0h1.838v1.84l-1.839-1.84zm1.838 2.453v1.84h-1.838zm-2.145.307a.613.613 0 1 1 0-1.226.613.613 0 0 1 0 1.226zm-2.145-.307 1.839 1.84h-1.839zm-6.435 3.986h1.839l-1.839 1.84zm2.452 0h1.838v1.84zm1.838 2.453v1.84h-1.838zm-2.145.307a.613.613 0 1 1 0-1.226.613.613 0 0 1 0 1.226zm-2.145-.307 1.839 1.84h-1.839zm0-8.892h1.839l-1.839 1.84zm2.452 0h1.838v1.84l-1.839-1.84zm1.838 2.453v1.84h-1.838zm-2.145.307a.613.613 0 1 1 0-1.226.613.613 0 0 1 0 1.226zm-2.145-.307 1.839 1.84h-1.839zm-6.435 3.986h1.838l-1.838 1.84zm2.451 0h1.839v1.84zm1.839 2.453v1.84h-1.839zm-2.145.307a.613.613 0 1 1 0-1.226.613.613 0 0 1 0 1.226zm-2.145-.307 1.838 1.84h-1.838zm0-8.892h1.838l-1.838 1.84zm2.451 0h1.839v1.84zm1.839 2.453v1.84h-1.839zm-2.145.307a.613.613 0 1 1 0-1.226.613.613 0 0 1 0 1.226zm-2.145-.307 1.838 1.84h-1.838zm-6.435 3.986h1.838l-1.838 1.84zm2.451 0h1.839v1.84l-1.84-1.84zm1.839 2.453v1.84h-1.84l1.839-1.84zm-2.145.307a.613.613 0 1 1 0-1.226.613.613 0 0 1 0 1.226zm-2.145-.307 1.838 1.84h-1.838zm0-8.892h1.838l-1.838 1.84zm2.451 0h1.839v1.84l-1.84-1.84zm1.839 2.453v1.84h-1.84l1.839-1.84zm-2.145.307a.613.613 0 1 1 0-1.226.613.613 0 0 1 0 1.226zm-2.145-.307 1.838 1.84h-1.838z" fill="#2b3e51" transform="translate(9.805 73.895)"/><path d="m83.652 6.439h1.838l-1.838 1.84zm2.45 0h1.84v1.84zm1.84 2.453v1.84h-1.84zm-2.146.307a.613.613 0 1 1 0-1.226.613.613 0 0 1 0 1.226zm-2.144-.307 1.838 1.84h-1.838zm0-8.892h1.838l-1.838 1.84zm2.45 0h1.84v1.84l-1.841-1.84zm1.84 2.453v1.84h-1.84zm-2.146.307a.613.613 0 1 1 0-1.226.613.613 0 0 1 0 1.226zm-2.144-.307 1.838 1.84h-1.838zm-6.435 3.986h1.838l-1.838 1.84zm2.451 0h1.839v1.84zm1.839 2.453v1.84h-1.839zm-2.145.307a.613.613 0 1 1 0-1.226.613.613 0 0 1 0 1.226zm-2.145-.307 1.838 1.84h-1.838zm0-8.892h1.838l-1.838 1.84zm2.451 0h1.839v1.84zm1.839 2.453v1.84h-1.839zm-2.145.307a.613.613 0 1 1 0-1.226.613.613 0 0 1 0 1.226zm-2.145-.307 1.838 1.84h-1.838zm-6.435 3.986h1.839l-1.839 1.84zm2.451 0h1.839v1.84zm1.839 2.453v1.84h-1.839zm-2.145.307a.613.613 0 1 1 0-1.226.613.613 0 0 1 0 1.226zm-2.145-.307 1.839 1.84h-1.839zm0-8.892h1.839l-1.839 1.84zm2.451 0h1.839v1.84zm1.839 2.453v1.84h-1.839zm-2.145.307a.613.613 0 1 1 0-1.226.613.613 0 0 1 0 1.226zm-2.145-.307 1.839 1.84h-1.839zm-6.435 3.986h1.839l-1.839 1.84zm2.452 0h1.838v1.84l-1.837-1.84zm1.838 2.453v1.84h-1.837l1.838-1.84zm-2.145.307a.613.613 0 1 1 0-1.226.613.613 0 0 1 0 1.226zm-2.145-.307 1.839 1.84h-1.839zm0-8.892h1.839l-1.839 1.84zm2.453 0h1.838v1.84zm1.838 2.453v1.84h-1.838zm-2.145.307a.613.613 0 1 1 0-1.226.613.613 0 0 1 0 1.226zm-2.145-.307 1.839 1.84h-1.839zm-6.434 3.986h1.838l-1.838 1.84zm2.45 0h1.84v1.84zm1.84 2.453v1.84h-1.84zm-2.145.307a.613.613 0 1 1 0-1.226.613.613 0 0 1 0 1.226zm-2.145-.307 1.838 1.84h-1.838zm0-8.892h1.838l-1.838 1.84zm2.45 0h1.84v1.84l-1.842-1.84zm1.84 2.453v1.84h-1.84zm-2.145.307a.613.613 0 1 1 0-1.226.613.613 0 0 1 0 1.226zm-2.145-.307 1.838 1.84h-1.838zm-6.435 3.986h1.838l-1.838 1.84zm2.451 0h1.839v1.84zm1.839 2.453v1.84h-1.839zm-2.145.307a.613.613 0 1 1 0-1.226.613.613 0 0 1 0 1.226zm-2.145-.307 1.838 1.84h-1.838zm0-8.892h1.838l-1.838 1.84zm2.451 0h1.839v1.84l-1.84-1.84zm1.839 2.453v1.84h-1.839zm-2.145.307a.613.613 0 1 1 0-1.226.613.613 0 0 1 0 1.226zm-2.145-.307 1.838 1.84h-1.838zm-6.435 3.986h1.839l-1.839 1.84zm2.451 0h1.839v1.84zm1.839 2.453v1.84h-1.839zm-2.145.307a.613.613 0 1 1 0-1.226.613.613 0 0 1 0 1.226zm-2.145-.307 1.839 1.84h-1.839zm0-8.892h1.839l-1.839 1.84zm2.451 0h1.839v1.84l-1.84-1.84zm1.839 2.453v1.84h-1.839zm-2.145.307a.613.613 0 1 1 0-1.226.613.613 0 0 1 0 1.226zm-2.145-.307 1.839 1.84h-1.839zm-6.435 3.986h1.839l-1.839 1.84zm2.452 0h1.838v1.84zm1.838 2.453v1.84h-1.839l1.838-1.84zm-2.145.307a.613.613 0 1 1 0-1.226.613.613 0 0 1 0 1.226zm-2.145-.307 1.839 1.84h-1.839zm0-8.892h1.839l-1.839 1.84zm2.452 0h1.838v1.84l-1.839-1.84zm1.838 2.453v1.84h-1.839l1.838-1.84zm-2.145.307a.613.613 0 1 1 0-1.226.613.613 0 0 1 0 1.226zm-2.145-.307 1.839 1.84h-1.839zm-6.434 3.986h1.838l-1.838 1.84zm2.451 0h1.838v1.84zm1.838 2.453v1.84h-1.838zm-2.144.307a.613.613 0 1 1 0-1.226.613.613 0 0 1 0 1.226zm-2.145-.307 1.838 1.84h-1.838zm0-8.892h1.838l-1.838 1.84zm2.451 0h1.838v1.84l-1.839-1.84zm1.838 2.453v1.84h-1.838zm-2.144.307a.613.613 0 1 1 0-1.226.613.613 0 0 1 0 1.226zm-2.145-.307 1.838 1.84h-1.838zm-6.435 3.986h1.838l-1.838 1.84zm2.451 0h1.839v1.84zm1.839 2.453v1.84h-1.84l1.839-1.84zm-2.145.307a.613.613 0 1 1 0-1.226.613.613 0 0 1 0 1.226zm-2.145-.307 1.838 1.84h-1.838v-1.84zm0-8.892h1.838l-1.838 1.84v-1.84zm2.451 0h1.839v1.84l-1.84-1.84zm1.839 2.453v1.84h-1.84l1.839-1.84zm-2.145.307a.613.613 0 1 1 0-1.226.613.613 0 0 1 0 1.226zm-2.145-.307 1.838 1.84h-1.838v-1.84zm-6.435 3.986h1.839l-1.839 1.84zm2.452 0h1.838v1.84zm1.838 2.453v1.84h-1.838zm-2.145.307a.613.613 0 1 1 0-1.226.613.613 0 0 1 0 1.226zm-2.145-.307 1.839 1.84h-1.839zm0-8.892h1.839l-1.839 1.84zm2.452 0h1.838v1.84l-1.839-1.84zm1.838 2.453v1.84h-1.838zm-2.145.307a.613.613 0 1 1 0-1.226.613.613 0 0 1 0 1.226zm-2.145-.307 1.839 1.84h-1.839zm-6.435 3.986h1.839l-1.839 1.84zm2.452 0h1.838v1.84zm1.838 2.453v1.84h-1.838zm-2.145.307a.613.613 0 1 1 0-1.226.613.613 0 0 1 0 1.226zm-2.145-.307 1.839 1.84h-1.839zm0-8.892h1.839l-1.839 1.84zm2.452 0h1.838v1.84l-1.839-1.84zm1.838 2.453v1.84h-1.838zm-2.145.307a.613.613 0 1 1 0-1.226.613.613 0 0 1 0 1.226zm-2.145-.307 1.839 1.84h-1.839zm-6.435 3.986h1.838l-1.838 1.84zm2.451 0h1.839v1.84zm1.839 2.453v1.84h-1.839zm-2.145.307a.613.613 0 1 1 0-1.226.613.613 0 0 1 0 1.226zm-2.145-.307 1.838 1.84h-1.838zm0-8.892h1.838l-1.838 1.84zm2.451 0h1.839v1.84zm1.839 2.453v1.84h-1.839zm-2.145.307a.613.613 0 1 1 0-1.226.613.613 0 0 1 0 1.226zm-2.145-.307 1.838 1.84h-1.838zm-6.435 3.986h1.838l-1.838 1.84zm2.451 0h1.839v1.84l-1.84-1.84zm1.839 2.453v1.84h-1.84l1.839-1.84zm-2.145.307a.613.613 0 1 1 0-1.226.613.613 0 0 1 0 1.226zm-2.145-.307 1.838 1.84h-1.838zm0-8.892h1.838l-1.838 1.84zm2.451 0h1.839v1.84l-1.84-1.84zm1.839 2.453v1.84h-1.84l1.839-1.84zm-2.145.307a.613.613 0 1 1 0-1.226.613.613 0 0 1 0 1.226zm-2.145-.307 1.838 1.84h-1.838z" fill="#2b3e51" transform="translate(374.44 73.895)"/><g fill="#f2c500"><path d="m0 142.578h102.956v4.906h-102.956z"/><path d="m0 69.603h4.903v72.976h-4.903z"/><path d="m465.752 69.603h4.903v72.976h-4.903z"/><path d="m9.805 88.92h88.248v49.06h-88.248zm1.532 1.533v45.993h85.184v-45.993zm362.797-1.533h88.248v49.06h-88.248zm1.532 1.533v45.993h85.184v-45.993z"/></g><path d="m11.337 90.453h85.184v45.993h-85.184z" fill="#fff"/><path d="m375.666 90.453h85.184v45.993h-85.184z" fill="#fff"/><path d="m368.006 142.578h102.956v4.906h-102.956z" fill="#f2c500"/></g><g transform="translate(0 69.603)"><path d="m0 1.85s14.05 6.601 26.814 6.601 64.393-8.144 64.393-8.144h6.693s-50.427 15.943-72.271 15.943-25.629-14.4-25.629-14.4z" fill="#e94b35"/><path d="m164.545 12.878h8.886v4.293h-8.886z" fill="#e94b35"/><path d="m22.062 15.944h151.369v12.571h-151.369z" fill="#e87e04"/><path d="m97.9 3.066 75.53 12.904s-39.986 10.553-75.53 10.553-75.532-10.553-75.532-10.553z" fill="#e94b35"/><path d="m97.9 0 75.531 12.904s-39.987 10.552-75.531 10.552-75.532-10.552-75.532-10.552z" fill="#c23824"/></g><g transform="matrix(-1 0 0 1 554 69.603)"><path d="m0 1.85s14.05 6.601 26.814 6.601 64.393-8.144 64.393-8.144h6.693s-50.427 15.943-72.271 15.943-25.629-14.4-25.629-14.4z" fill="#e94b35"/><path d="m164.545 12.878h8.886v4.293h-8.886z" fill="#e94b35"/><path d="m22.062 15.944h151.369v12.571h-151.369z" fill="#e87e04"/><path d="m97.9 3.066 75.53 12.904s-39.986 10.553-75.53 10.553-75.532-10.553-75.532-10.553z" fill="#e94b35"/><path d="m97.9 0 75.531 12.904s-39.987 10.552-75.531 10.552-75.532-10.552-75.532-10.552z" fill="#c23824"/></g><g transform="translate(233.183 21.157)"><path d="m0 0h25.7389381v7.35888502z" fill="#2c97de"/><path d="m62.5088496 0h25.738938l-25.738938 7.35888502z" fill="#2c97de"/><path d="m25.739 0h36.77v7.359h-36.77z" fill="#e94b35"/></g></g></g></svg>