<svg height="600" width="600" xmlns="http://www.w3.org/2000/svg" xmlns:xlink="http://www.w3.org/1999/xlink"><defs><circle id="a" cx="225" cy="225" r="225"/><mask id="b" fill="#fff"><use fill="#fff" fill-rule="evenodd" xlink:href="#a"/></mask></defs><g fill="none" fill-rule="evenodd"><g transform="translate(76 75)"><use fill="#2c97de" xlink:href="#a"/><path d="m28 349h397v131h-397z" fill="#1fce6d" mask="url(#b)"/><g fill="#fff" transform="translate(3 40)"><path d="m16 37h80v22h-80z"/><circle cx="95" cy="45" r="14"/><circle cx="15.5" cy="43.5" r="15.5"/><circle cx="69.5" cy="29.5" r="29.5"/><circle cx="32.5" cy="31.5" r="11.5"/></g><g fill="#fff" transform="translate(341 69)"><path d="m16 37h80v22h-80z"/><circle cx="95" cy="45" r="14"/><circle cx="15.5" cy="43.5" r="15.5"/><circle cx="69.5" cy="29.5" r="29.5"/><circle cx="32.5" cy="31.5" r="11.5"/></g><g fill="#ffe500" stroke="#fff" stroke-linecap="round" stroke-linejoin="round" stroke-width="5"><path d="m36.314 1.5h65.172m-101.486 0h12.283" transform="translate(36 112)"/><path d="m26.314 1.5h65.172m-91.486 0h12.283" transform="translate(325 141)"/><path d="m12.592 1h46.045m-58.194 0h2.235" transform="translate(312 26)"/></g></g><g transform="translate(49 175)"><g transform="translate(63.484 185.151)"><path d="m0 0h377.032v65.849h-377.032z" fill="#2b3e51"/><path d="m0 42.608h1.548v23.24h-1.548zm37.935-42.608h.775v65.849h-.775zm-18.58 0h.774v65.849h-.774zm37.161 0h.774v65.849h-.774zm-46.451 0h.774v65.849h-.774zm37.16 0h.775v65.849h-.774v-65.849zm-41.805 0h.775v65.849h-.775zm37.162 0h.774v65.849h-.774zm-27.872 0h.774v65.849h-.774zm37.16 0h.774v65.849h-.774zm-27.87 0h.774v65.849h-.774zm37.161 0h.774v65.849h-.774zm-32.516 0h.774v65.849h-.774zm37.161 0h.775v65.849h-.775zm-32.516 0h.775v65.849h-.775zm37.162 0h.774v65.849h-.774zm79.742 42.608h1.548v23.24h-1.548zm37.935-42.608h.774v65.849h-.774zm-18.58 0h.774v65.849h-.775v-65.849zm37.16 0h.775v65.849h-.774v-65.849zm-46.45 0h.773v65.849h-.774v-65.849zm37.16 0h.775v65.849h-.775zm-41.806 0h.774v65.849h-.774zm37.161 0h.774v65.849h-.774zm-27.87 0h.773v65.849h-.774v-65.849zm37.16 0h.775v65.849h-.774v-65.849zm-27.87 0h.774v65.849h-.774zm37.16 0h.775v65.849h-.774v-65.849zm-32.514 0h.774v65.849h-.774zm37.16 0h.774v65.849h-.774zm-32.516 0h.774v65.849h-.774zm37.161 0h.774v65.849h-.774zm-145.548 42.608h1.548v23.24h-1.548zm37.935-42.608h.774v65.849h-.774zm-18.58 0h.774v65.849h-.774zm37.16 0h.775v65.849h-.774v-65.849zm-46.45 0h.773v65.849h-.774v-65.849zm37.16 0h.775v65.849h-.774v-65.849zm-41.805 0h.774v65.849h-.774zm37.161 0h.775v65.849h-.775zm-27.87 0h.774v65.849h-.775v-65.849zm37.16 0h.775v65.849h-.774v-65.849zm-27.87 0h.774v65.849h-.774zm37.161 0h.774v65.849h-.774zm-32.516 0h.774v65.849h-.774zm37.161 0h.774v65.849h-.774zm-32.516 0h.774v65.849h-.774zm37.161 0h.775v65.849h-.775zm79.742 42.608h1.549v23.24h-1.549zm37.935-42.608h.774v65.849h-.774zm-18.58 0h.773v65.849h-.774v-65.849zm37.16 0h.775v65.849h-.775zm-46.451 0h.774v65.849h-.774zm37.161 0h.774v65.849h-.774zm-41.806 0h.774v65.849h-.774zm37.161 0h.774v65.849h-.774zm-27.871 0h.774v65.849h-.774zm37.161 0h.774v65.849h-.774zm-27.87 0h.774v65.849h-.775v-65.849zm37.16 0h.775v65.849h-.774v-65.849zm-32.516 0h.775v65.849h-.775zm37.162 0h.774v65.849h-.774zm-32.517 0h.774v65.849h-.774zm37.16 0h.775v65.849h-.774v-65.849zm4.646 42.608h1.548v23.24h-1.548zm37.937-42.608h.774v65.849h-.774zm-18.581 0h.774v65.849h-.774zm37.161 0h.774v65.849h-.774zm-46.451 0h.774v65.849h-.774zm37.16 0h.775v65.849h-.774v-65.849zm-41.806 0h.775v65.849h-.775zm37.162 0h.774v65.849h-.774zm-27.871 0h.774v65.849h-.774zm37.161 0h.774v65.849h-.774zm-27.87 0h.773v65.849h-.774v-65.849zm37.16 0h.775v65.849h-.775zm-32.516 0h.774v65.849h-.774zm37.162 0h.774v65.849h-.774zm-32.517 0h.775v65.849h-.775zm37.162 0h.774v65.849h-.774zm4.645 42.608h1.548v23.24h-1.548z" fill="#ecf0f1"/><path d="m0 40.671h377.032v3.873h-377.032z" fill="#fff"/></g><path d="m201.290323 36.7978395 50.709677 19.1736111v25.2463138z" fill="#e94b35"/><path d="m137.872 226.21c-3.435-15.482-18.08-27.114-35.625-27.114s-32.19 11.632-35.625 27.114h-5.717l-59.57-57.681s-6.413-22.117 8.875-38.6c15.289-16.484 22.868-16.602 22.868-16.602s11.681 49.469 29.838 49.469 38.177-66.098 38.177-66.098 14.443 55.878 30.72 55.878c16.275 0 44.533-77.964 44.533-77.964s5.237 72.905 35.744 72.905c8.956 0 39.91-147.517 39.91-147.517v185.606c-18.995 1.307-34.466 21.37-37.14 40.604h-.408c0-18.826-16.973-40.826-37.91-40.826-20.936 0-37.908 22-37.908 40.826z" fill="#f2c500"/><g transform="matrix(-1 0 0 1 504 0)"><path d="m201.290323 36.7978395 50.709677 19.1736111v25.2463138z" fill="#e94b35"/><path d="m137.872 226.21c-3.435-15.482-18.08-27.114-35.625-27.114s-32.19 11.632-35.625 27.114h-5.717l-59.57-57.681s-6.413-22.117 8.875-38.6c15.289-16.484 22.868-16.602 22.868-16.602s11.681 49.469 29.838 49.469 38.177-66.098 38.177-66.098 14.443 55.878 30.72 55.878c16.275 0 44.533-77.964 44.533-77.964s5.237 72.905 35.744 72.905c8.956 0 39.91-147.517 39.91-147.517s4.309 77.336 4.309 115.885c0 19.284-1.079 46.885-2.156 69.654h-.19c-19.884 0-36.337 20.779-39.102 40.67h-.41c0-18.825-16.972-40.825-37.908-40.825-20.937 0-37.91 22-37.91 40.826h-.76z" fill="#f2c500"/></g><path d="m211.546 229.43c-10.386-1.111-19.592-3.066-22.967-6.46-9.348-9.403 2.74-27.897 2.74-21.909s6.82 14.398 13.458 15.205c6.637.807 6.005-23.809 6.005-23.809s6.306 11.346 11.08 12.549c4.772 1.202 8.842-16.67 8.842-16.67s2.387 9.918 7.246 11.81c4.86 1.89 8.084-6.998 3.651-11.295-4.432-4.298-2.172-19.772-2.172-14.945s3.342 11.766 7.436 11.766c4.093 0 5.135-19.888 5.135-19.888v53.066c-17.262.032-32.33 4.276-40.454 10.58z" fill="#e94b35"/><path d="m292.454 229.43c10.386-1.111 19.592-3.066 22.967-6.46 9.348-9.403-2.74-27.897-2.74-21.909s-6.82 14.398-13.458 15.205c-6.637.807-6.005-23.809-6.005-23.809s-6.306 11.346-11.08 12.549c-4.772 1.202-8.842-16.67-8.842-16.67s-2.387 9.918-7.246 11.81c-4.86 1.89-8.084-6.998-3.651-11.295 4.432-4.298 2.172-19.772 2.172-14.945s-3.342 11.766-7.436 11.766c-4.093 0-5.135-19.888-5.135-19.888s-1.35 19.001-1.35 30.486c0 6.025.371 15.21.725 22.581h.431c17.343 0 32.494 4.251 40.648 10.58z" fill="#e94b35"/><path d="m252 12.3950617-32.516129 167.8281073 32.516129-119.0225517z" fill="#2b3e51"/><path d="m252 12.395 32.516 167.828-32.516-119.022v-25.341z" fill="#2b3e51"/><g fill="#e94b35"><path d="m252 37.511s2.059 11.932 2.059 17.897c0 5.966-2.059 14.314-2.059 14.314l-15.147-1.448z"/><path d="m267.147429 37.5725309v32.2109706l-15.147429-1.4480071z" transform="matrix(-1 0 0 1 519.147 0)"/></g></g></g></svg>