<svg width="600" height="600" xmlns="http://www.w3.org/2000/svg" xmlns:xlink="http://www.w3.org/1999/xlink"><defs><circle id="a" cx="225" cy="225" r="225"/></defs><g fill="none" fill-rule="evenodd"><g transform="translate(76 75)"><mask id="b" fill="#fff"><use xlink:href="#a"/></mask><use fill="#2C97DE" xlink:href="#a"/><path fill="#1FCE6D" mask="url(#b)" d="M28 349h397v131H28z"/><g transform="translate(3 40)" fill="#FFF"><path d="M16 37h80v22H16z"/><circle cx="95" cy="45" r="14"/><circle cx="15.5" cy="43.5" r="15.5"/><circle cx="69.5" cy="29.5" r="29.5"/><circle cx="32.5" cy="31.5" r="11.5"/></g><g transform="translate(341 69)" fill="#FFF"><path d="M16 37h80v22H16z"/><circle cx="95" cy="45" r="14"/><circle cx="15.5" cy="43.5" r="15.5"/><circle cx="69.5" cy="29.5" r="29.5"/><circle cx="32.5" cy="31.5" r="11.5"/></g><path d="M72.314 113.5h65.172M36 113.5h12.283" fill="#FFE500" stroke="#FFF" stroke-linecap="round" stroke-linejoin="round" stroke-width="5"/><path d="M351.314 142.5h65.172m-91.486 0h12.283" fill="#FFE500" stroke="#FFF" stroke-linecap="round" stroke-linejoin="round" stroke-width="5"/><path d="M324.592 27h46.045m-58.194 0h2.235" fill="#FFE500" stroke="#FFF" stroke-linecap="round" stroke-linejoin="round" stroke-width="5"/></g><g transform="translate(279.244 40)"><path fill="#ECF0F1" d="M0 83.184h44.512v83.184H0z"/><path fill="#FFF" d="M22.256 83.184l11.612 8.705H10.644zM0 126.71h44.512v11.607H0z"/><path fill="#94A5A6" d="M.968 138.317h42.576v3.869H.968z"/><path fill="#FFF" d="M10.644 91.89h23.224l5.806 34.82H4.838z"/><path d="M14.515 101.562a2.903 2.903 0 0 1 5.806 0v25.148h-5.806v-25.148zm10.644 0a2.903 2.903 0 0 1 5.806 0v25.148h-5.806v-25.148z" fill="#2C97DE"/><path fill="#FFF" d="M10.644 55.134h23.224v28.05H10.644z"/><path fill="#ECF0F1" d="M10.064 51.264h24.384l2.323 7.739H7.74z"/><ellipse fill="#33495F" cx="22.256" cy="65.773" rx="5.806" ry="5.804"/><path fill="#FFF" d="M20.32 19.345h1.936l-9.677 31.92h-1.935zm1.936 0h1.935l9.677 31.92h-1.936z"/><path fill="#FFF" d="M21.288 19.345h1.935v31.919h-1.935zm0-19.345h1.935v19.345h-1.935z"/><path fill="#FFF" d="M14.515 30.952h15.482v1.935H14.515zm0-25.148h15.482v1.935H14.515zm-.968 31.919h17.418v1.935H13.547zm-1.935 6.771H32.9v1.935H11.612z"/></g><path fill="#FFF" d="M301.5 167.678l116.117 130.58H185.382z"/><path fill="#C23824" d="M301.5 174.422L412.78 298.23H190.22z"/><path fill="#ECF0F1" d="M301.5 182.187l105.473 116.07H196.026z"/><path d="M369.923 269.24h-21.206l-17.488-19.346h21.15l17.544 19.345zm7.895 8.705l17.544 19.345h-21.288l-17.488-19.345h21.232zm-144.74-8.706l17.544-19.345h21.15l-17.489 19.345h-21.206zm-7.896 8.706h21.232l-17.488 19.345h-21.288l17.544-19.345zm119.301-36.756H323.36l-17.487-19.345h21.067l17.544 19.345zm-85.966 0l17.544-19.345h21.067l-17.487 19.345h-21.124zm60.527-28.05h-35.088l17.544-19.346 17.544 19.346z" fill="#2C97DE"/><g transform="translate(137 83.526)"><path fill="#FFF" d="M0 253.421h48.382v87.053H0z"/><path fill="#ECF0F1" d="M0 191.516h48.382v30.952H0z"/><path fill="#FFF" d="M3.87 184.746h40.642l3.87 6.77H0z"/><path fill="#ECF0F1" d="M0 214.73h48.382v38.69H0zm3.871-68.675h40.641v38.69H3.871z"/><path d="M8.709 169.27c0-3.206 2.6-5.804 5.806-5.804a5.805 5.805 0 0 1 5.806 5.804v15.476H8.709V169.27z" fill="#2C97DE"/><path d="M8.709 237.945c0-3.206 2.6-5.804 5.806-5.804a5.805 5.805 0 0 1 5.806 5.804v15.476H8.709v-15.476zm19.353 0c0-3.206 2.6-5.804 5.806-5.804a5.805 5.805 0 0 1 5.806 5.804v15.476H28.062v-15.476z" fill="#FFF"/><path d="M28.062 169.27c0-3.206 2.6-5.804 5.806-5.804a5.805 5.805 0 0 1 5.806 5.804v15.476H28.062V169.27z" fill="#2C97DE"/><path fill="#ECF0F1" d="M0 253.421h8.709v87.053H0zm13.547 0h8.709v87.053h-8.709zm13.547 0h8.709v87.053h-8.709zm12.58 0h8.709v87.053h-8.709z"/><path fill="#BDC3C7" d="M0 253.421h48.382v2.902H0z"/><path fill="#2C97DE" d="M10.644 191.516h7.741v28.05h-7.741zm19.353 0h7.741v28.05h-7.741zm-21.288-9.653h11.612v9.653H8.709zm19.353 0h11.612v9.653H28.062z"/><path fill="#ECF0F1" d="M1.935 83.184h44.512v43.526H1.935z"/><path fill="#FFF" d="M8.709 180.877h11.612v3.869H8.709zm19.353 0h11.612v3.869H28.062zm-3.87-34.822l20.32 14.51H3.87zm0-62.871l11.61 8.705H12.58zM1.934 126.71h44.512v11.607H1.935z"/><path fill="#BDC3C7" d="M3.871 142.186h40.641v3.869H3.871z"/><path fill="#94A5A6" d="M2.903 138.317h42.576v3.869H2.903z"/><path fill="#FFF" d="M12.58 91.89h23.223l5.806 34.82H6.774z"/><path d="M16.45 101.562a2.903 2.903 0 0 1 5.806 0v25.148H16.45v-25.148zm10.644 0a2.903 2.903 0 0 1 5.806 0v25.148h-5.806v-25.148z" fill="#2C97DE"/><path fill="#FFF" d="M12.579 55.134h23.224v28.05H12.579z"/><path fill="#ECF0F1" d="M11.999 51.264h24.385l2.322 7.739H9.676z"/><ellipse fill="#33495F" cx="24.191" cy="65.773" rx="5.806" ry="5.804"/><path fill="#FFF" d="M22.256 19.345h1.935l-9.676 31.92h-1.936zm1.935 0h1.935l9.677 31.92h-1.935z"/><path fill="#FFF" d="M23.224 19.345h1.935v31.919h-1.935zm0-19.345h1.935v19.345h-1.935z"/><path fill="#FFF" d="M16.45 30.952h15.482v1.935H16.45zm0-25.148h15.482v1.935H16.45zm-.968 31.919H32.9v1.935H15.482zm-1.935 6.771h21.288v1.935H13.547z"/></g><g transform="translate(417.618 83.526)"><path fill="#FFF" d="M0 253.421h48.382v87.053H0z"/><path fill="#ECF0F1" d="M0 191.516h48.382v30.952H0z"/><path fill="#FFF" d="M3.87 184.746h40.642l3.87 6.77H0z"/><path fill="#ECF0F1" d="M0 214.73h48.382v38.69H0zm3.871-68.675h40.641v38.69H3.871z"/><path d="M8.709 169.27c0-3.206 2.6-5.804 5.806-5.804a5.805 5.805 0 0 1 5.806 5.804v15.476H8.709V169.27z" fill="#2C97DE"/><path d="M8.709 237.945c0-3.206 2.6-5.804 5.806-5.804a5.805 5.805 0 0 1 5.806 5.804v15.476H8.709v-15.476zm19.353 0c0-3.206 2.6-5.804 5.806-5.804a5.805 5.805 0 0 1 5.806 5.804v15.476H28.062v-15.476z" fill="#FFF"/><path d="M28.062 169.27c0-3.206 2.6-5.804 5.806-5.804a5.805 5.805 0 0 1 5.806 5.804v15.476H28.062V169.27z" fill="#2C97DE"/><path fill="#ECF0F1" d="M0 253.421h8.709v87.053H0zm13.547 0h8.709v87.053h-8.709zm13.547 0h8.709v87.053h-8.709zm12.58 0h8.709v87.053h-8.709z"/><path fill="#BDC3C7" d="M0 253.421h48.382v2.902H0z"/><path fill="#2C97DE" d="M10.644 191.516h7.741v28.05h-7.741zm19.353 0h7.741v28.05h-7.741zm-21.288-9.653h11.612v9.653H8.709zm19.353 0h11.612v9.653H28.062z"/><path fill="#ECF0F1" d="M1.935 83.184h44.512v43.526H1.935z"/><path fill="#FFF" d="M8.709 180.877h11.612v3.869H8.709zm19.353 0h11.612v3.869H28.062zm-3.87-34.822l20.32 14.51H3.87zm0-62.871l11.61 8.705H12.58zM1.934 126.71h44.512v11.607H1.935z"/><path fill="#BDC3C7" d="M3.871 142.186h40.641v3.869H3.871z"/><path fill="#94A5A6" d="M2.903 138.317h42.576v3.869H2.903z"/><path fill="#FFF" d="M12.58 91.89h23.223l5.806 34.82H6.774z"/><path d="M16.45 101.562a2.903 2.903 0 0 1 5.806 0v25.148H16.45v-25.148zm10.644 0a2.903 2.903 0 0 1 5.806 0v25.148h-5.806v-25.148z" fill="#2C97DE"/><path fill="#FFF" d="M12.579 55.134h23.224v28.05H12.579z"/><path fill="#ECF0F1" d="M11.999 51.264h24.385l2.322 7.739H9.676z"/><ellipse fill="#33495F" cx="24.191" cy="65.773" rx="5.806" ry="5.804"/><path fill="#FFF" d="M22.256 19.345h1.935l-9.676 31.92h-1.936zm1.935 0h1.935l9.677 31.92h-1.935z"/><path fill="#FFF" d="M23.224 19.345h1.935v31.919h-1.935zm0-19.345h1.935v19.345h-1.935z"/><path fill="#FFF" d="M16.45 30.952h15.482v1.935H16.45zm0-25.148h15.482v1.935H16.45zm-.968 31.919H32.9v1.935H15.482zm-1.935 6.771h21.288v1.935H13.547z"/></g><g><path fill="#BDC3C7" d="M185.382 342.75h232.236V424H185.382z"/><path fill="#ECF0F1" d="M183.447 298.257h236.106v44.494H183.447z"/><path fill="#FFF" d="M260.859 342.75h9.676V424h-9.676z"/><path fill="#ECF0F1" d="M202.8 327.275h9.676v96.352H202.8z"/><path fill="#FFF" d="M332.465 342.75h9.676V424h-9.676z"/><path fill="#ECF0F1" d="M390.523 327.275h9.677v96.352h-9.677z"/><g fill="#FFF"><path d="M301.5 298.257l40.641 29.018H260.86zm-40.641 29.018h81.282v15.476h-81.282z"/></g><path fill="#33495F" d="M282.147 367.899h38.706V424h-38.706zm69.671 0h29.029V424h-29.029zm-129.665 0h29.029V424h-29.029z"/></g></g></svg>