<svg width="600" height="600" xmlns="http://www.w3.org/2000/svg" xmlns:xlink="http://www.w3.org/1999/xlink"><defs><circle id="a" cx="225" cy="225" r="225"/></defs><g fill="none" fill-rule="evenodd"><g transform="translate(76 75)"><mask id="b" fill="#fff"><use xlink:href="#a"/></mask><use fill="#2C97DE" xlink:href="#a"/><path fill="#1FCE6D" mask="url(#b)" d="M28 349h397v131H28z"/><g transform="translate(3 40)" fill="#FFF"><path d="M16 37h80v22H16z"/><circle cx="95" cy="45" r="14"/><circle cx="15.5" cy="43.5" r="15.5"/><circle cx="69.5" cy="29.5" r="29.5"/><circle cx="32.5" cy="31.5" r="11.5"/></g><g transform="translate(341 69)" fill="#FFF"><path d="M16 37h80v22H16z"/><circle cx="95" cy="45" r="14"/><circle cx="15.5" cy="43.5" r="15.5"/><circle cx="69.5" cy="29.5" r="29.5"/><circle cx="32.5" cy="31.5" r="11.5"/></g><path d="M72.314 113.5h65.172M36 113.5h12.283" fill="#FFE500" stroke="#FFF" stroke-linecap="round" stroke-linejoin="round" stroke-width="5"/><path d="M351.314 142.5h65.172m-91.486 0h12.283" fill="#FFE500" stroke="#FFF" stroke-linecap="round" stroke-linejoin="round" stroke-width="5"/><path d="M324.592 27h46.045m-58.194 0h2.235" fill="#FFE500" stroke="#FFF" stroke-linecap="round" stroke-linejoin="round" stroke-width="5"/></g><path fill="#BDC3C7" d="M113.506 317.873h372.988v88.218H113.506z"/><path fill="#00A185" d="M235.406 334.123h29.813v15.256h-29.813z"/><path fill="#2B3E51" d="M238.056 336.776h24.181v9.949h-24.181z"/><path fill="#00A185" d="M384.469 334.123h29.813v15.256h-29.813z"/><path fill="#2B3E51" d="M387.119 336.776H411.3v9.949h-24.181z"/><path fill="#00A185" d="M434.156 334.123h29.813v15.256h-29.813z"/><path fill="#2B3E51" d="M436.806 336.776h24.181v9.949h-24.181z"/><path fill="#00A185" d="M185.719 334.123h29.813v15.256h-29.813z"/><path fill="#2B3E51" d="M188.369 336.776h24.181v9.949h-24.181z"/><path fill="#00A185" d="M334.781 334.123h29.813v15.256h-29.813z"/><path fill="#2B3E51" d="M337.431 336.776h24.181v9.949h-24.181z"/><path fill="#00A185" d="M136.031 334.123h29.813v15.256h-29.813z"/><path fill="#2B3E51" d="M138.681 336.776h24.181v9.949h-24.181z"/><g><path fill="#00A185" d="M285.094 334.123h29.813v15.256h-29.813z"/><path fill="#2B3E51" d="M287.744 336.776h24.181v9.949h-24.181z"/></g><g><path fill="#E94B35" d="M93.962 406.091h412.075v1H93.962z"/><path fill="#C23824" d="M93.962 406.091h412.075v3.517H93.962z"/><path fill="#E94B35" d="M93.962 409.608h412.075v3.517H93.962z"/><path fill="#C23824" d="M93.962 413.125h412.075v3.517H93.962zm0 7.034h412.075v3.517H93.962z"/><path fill="#E94B35" d="M93.962 416.642h412.075v3.517H93.962z"/></g><g><path fill="#00A185" d="M285.094 362.313h29.813v43.777h-29.813z"/><path fill="#2B3E51" d="M288.738 365.961h9.938v24.873h-9.938z"/><path d="M287.744 391.498v-26.532h11.925v41.124h-11.925v-14.592zm1.988-7.96h3.312v-4.975h-3.313v4.975zm0 .663v5.307h3.312v-5.307h-3.313zm4.637-.663h3.313v-4.975h-3.314v4.975zm0 .663v5.307h3.313v-5.307h-3.314zm-4.638-11.607v5.306h3.313v-5.306h-3.313zm0-.663h3.313v-4.975h-3.313v4.975zm4.638.663v5.306h3.313v-5.306h-3.314zm0-.663h3.313v-4.975h-3.314v4.975z" fill="#F2C500"/><path fill="#F59D00" d="M289.732 391.498h3.313v11.939h-3.313zm4.637 0h3.313v11.939h-3.313z"/><path fill="#2B3E51" d="M301.326 365.961h9.938v24.873h-9.938z"/><path d="M300.332 391.498v-26.532h11.925v41.124h-11.925v-14.592zm1.988-7.96h3.312v-4.975h-3.313v4.975zm0 .663v5.307h3.312v-5.307h-3.313zm4.637-.663h3.313v-4.975h-3.314v4.975zm0 .663v5.307h3.313v-5.307h-3.314zm-4.638-11.607v5.306h3.313v-5.306h-3.313zm0-.663h3.313v-4.975h-3.313v4.975zm4.638.663v5.306h3.313v-5.306h-3.314zm0-.663h3.313v-4.975h-3.314v4.975z" fill="#F2C500"/><path fill="#F59D00" d="M302.32 391.498h3.313v11.939h-3.313zm4.637 0h3.313v11.939h-3.313z"/><path fill="#00A185" d="M384.469 362.313h29.813v43.777h-29.813z"/><path fill="#2B3E51" d="M388.113 365.961h9.938v24.873h-9.938z"/><path d="M387.119 391.498v-26.532h11.925v41.124h-11.925v-14.592zm1.988-7.96h3.312v-4.975h-3.313v4.975zm0 .663v5.307h3.312v-5.307h-3.313zm4.637-.663h3.313v-4.975h-3.314v4.975zm0 .663v5.307h3.313v-5.307h-3.314zm-4.638-11.607v5.306h3.313v-5.306h-3.313zm0-.663h3.313v-4.975h-3.313v4.975zm4.638.663v5.306h3.313v-5.306h-3.314zm0-.663h3.313v-4.975h-3.314v4.975z" fill="#F2C500"/><path fill="#F59D00" d="M389.107 391.498h3.313v11.939h-3.313zm4.637 0h3.313v11.939h-3.313z"/><g><path fill="#2B3E51" d="M400.701 365.961h9.938v24.873h-9.938z"/><path d="M399.707 391.498v-26.532h11.925v41.124h-11.925v-14.592zm1.988-7.96h3.312v-4.975h-3.313v4.975zm0 .663v5.307h3.312v-5.307h-3.313zm4.637-.663h3.313v-4.975h-3.314v4.975zm0 .663v5.307h3.313v-5.307h-3.314zm-4.638-11.607v5.306h3.313v-5.306h-3.313zm0-.663h3.313v-4.975h-3.313v4.975zm4.638.663v5.306h3.313v-5.306h-3.314zm0-.663h3.313v-4.975h-3.314v4.975z" fill="#F2C500"/><path fill="#F59D00" d="M401.695 391.498h3.313v11.939h-3.313zm4.637 0h3.313v11.939h-3.313z"/></g><g><path fill="#00A185" d="M185.719 362.313h29.813v43.777h-29.813z"/><path fill="#2B3E51" d="M189.363 365.961h9.938v24.873h-9.938z"/><path d="M188.369 391.498v-26.532h11.925v41.124h-11.925v-14.592zm1.988-7.96h3.312v-4.975h-3.313v4.975zm0 .663v5.307h3.312v-5.307h-3.313zm4.637-.663h3.313v-4.975h-3.314v4.975zm0 .663v5.307h3.313v-5.307h-3.314zm-4.638-11.607v5.306h3.313v-5.306h-3.313zm0-.663h3.313v-4.975h-3.313v4.975zm4.638.663v5.306h3.313v-5.306h-3.314zm0-.663h3.313v-4.975h-3.314v4.975z" fill="#F2C500"/><path fill="#F59D00" d="M190.357 391.498h3.313v11.939h-3.313zm4.637 0h3.313v11.939h-3.313z"/><g><path fill="#2B3E51" d="M201.951 365.961h9.938v24.873h-9.938z"/><path d="M200.957 391.498v-26.532h11.925v41.124h-11.925v-14.592zm1.988-7.96h3.312v-4.975h-3.313v4.975zm0 .663v5.307h3.312v-5.307h-3.313zm4.637-.663h3.313v-4.975h-3.314v4.975zm0 .663v5.307h3.313v-5.307h-3.314zm-4.638-11.607v5.306h3.313v-5.306h-3.313zm0-.663h3.313v-4.975h-3.313v4.975zm4.638.663v5.306h3.313v-5.306h-3.314zm0-.663h3.313v-4.975h-3.314v4.975z" fill="#F2C500"/><path fill="#F59D00" d="M202.945 391.498h3.313v11.939h-3.313zm4.637 0h3.313v11.939h-3.313z"/></g></g><path fill="#00A185" d="M136.031 362.313h29.813v31.838h-29.813z"/><path fill="#2B3E51" d="M139.344 365.961h9.938v24.873h-9.938zm13.25 0h9.938v24.873h-9.938z"/><path d="M140.669 383.538h3.312v-4.974h-3.313v4.974zm0 .664v5.306h3.312v-5.306h-3.313zm4.637-.664h3.313v-4.974h-3.314v4.974zm0 .664v5.306h3.313v-5.306h-3.314zm-4.638-11.609v5.306h3.313v-5.306h-3.313zm0-.663h3.313v-4.974h-3.313v4.975zm4.638.663v5.306h3.313v-5.306h-3.314zm0-.663h3.313v-4.974h-3.314v4.975zm-4.638 19.568h-1.987v-26.532h11.925v26.532h-9.937zm12.588-7.96h3.313v-4.974h-3.313v4.974zm0 .664v5.306h3.313v-5.306h-3.313zm4.637-.664h3.313v-4.974h-3.313v4.974zm0 .664v5.306h3.313v-5.306h-3.313zm-4.636-11.609v5.306h3.313v-5.306h-3.313zm0-.663h3.313v-4.974h-3.313v4.975zm4.637.663v5.306h3.313v-5.306h-3.313zm0-.663h3.313v-4.974h-3.313v4.975zm-4.637 19.567h-1.988v-26.531h11.926v26.532h-9.938z" fill="#F2C500"/><g><path fill="#00A185" d="M235.406 362.313h29.813v31.838h-29.813z"/><path fill="#2B3E51" d="M238.719 365.961h9.938v24.873h-9.938zm13.25 0h9.938v24.873h-9.938z"/><path d="M240.044 383.538h3.312v-4.974h-3.313v4.974zm0 .664v5.306h3.312v-5.306h-3.313zm4.637-.664h3.313v-4.974h-3.314v4.974zm0 .664v5.306h3.313v-5.306h-3.314zm-4.638-11.609v5.306h3.313v-5.306h-3.313zm0-.663h3.313v-4.974h-3.313v4.975zm4.638.663v5.306h3.313v-5.306h-3.314zm0-.663h3.313v-4.974h-3.314v4.975zm-4.638 19.568h-1.987v-26.532h11.925v26.532h-9.937zm12.588-7.96h3.313v-4.974h-3.313v4.974zm0 .664v5.306h3.313v-5.306h-3.313zm4.637-.664h3.313v-4.974h-3.313v4.974zm0 .664v5.306h3.313v-5.306h-3.313zm-4.636-11.609v5.306h3.313v-5.306h-3.313zm0-.663h3.313v-4.974h-3.313v4.975zm4.637.663v5.306h3.313v-5.306h-3.313zm0-.663h3.313v-4.974h-3.313v4.975zm-4.637 19.567h-1.988v-26.531h11.926v26.532h-9.938z" fill="#F2C500"/></g><g><path fill="#00A185" d="M334.781 362.313h29.813v31.838h-29.813z"/><path fill="#2B3E51" d="M338.094 365.961h9.938v24.873h-9.938zm13.25 0h9.938v24.873h-9.938z"/><path d="M339.419 383.538h3.312v-4.974h-3.313v4.974zm0 .664v5.306h3.312v-5.306h-3.313zm4.637-.664h3.313v-4.974h-3.314v4.974zm0 .664v5.306h3.313v-5.306h-3.314zm-4.638-11.609v5.306h3.313v-5.306h-3.313zm0-.663h3.313v-4.974h-3.313v4.975zm4.638.663v5.306h3.313v-5.306h-3.314zm0-.663h3.313v-4.974h-3.314v4.975zm-4.638 19.568h-1.987v-26.532h11.925v26.532h-9.937zm12.588-7.96h3.313v-4.974h-3.313v4.974zm0 .664v5.306h3.313v-5.306h-3.313zm4.637-.664h3.313v-4.974h-3.313v4.974zm0 .664v5.306h3.313v-5.306h-3.313zm-4.636-11.609v5.306h3.313v-5.306h-3.313zm0-.663h3.313v-4.974h-3.313v4.975zm4.637.663v5.306h3.313v-5.306h-3.313zm0-.663h3.313v-4.974h-3.313v4.975zm-4.637 19.567h-1.988v-26.531h11.926v26.532h-9.938z" fill="#F2C500"/></g><g><path fill="#00A185" d="M434.156 362.313h29.813v31.838h-29.813z"/><path fill="#2B3E51" d="M437.469 365.961h9.938v24.873h-9.938zm13.25 0h9.938v24.873h-9.938z"/><path d="M438.794 383.538h3.312v-4.974h-3.313v4.974zm0 .664v5.306h3.312v-5.306h-3.313zm4.637-.664h3.313v-4.974h-3.314v4.974zm0 .664v5.306h3.313v-5.306h-3.314zm-4.638-11.609v5.306h3.313v-5.306h-3.313zm0-.663h3.313v-4.974h-3.313v4.975zm4.638.663v5.306h3.313v-5.306h-3.314zm0-.663h3.313v-4.974h-3.314v4.975zm-4.638 19.568h-1.987v-26.532h11.925v26.532h-9.937zm12.588-7.96h3.313v-4.974h-3.313v4.974zm0 .664v5.306h3.313v-5.306h-3.313zm4.637-.664h3.313v-4.974h-3.313v4.974zm0 .664v5.306h3.313v-5.306h-3.313zm-4.636-11.609v5.306h3.313v-5.306h-3.313zm0-.663h3.313v-4.974h-3.313v4.975zm4.637.663v5.306h3.313v-5.306h-3.313zm0-.663h3.313v-4.974h-3.313v4.975zm-4.637 19.567h-1.988v-26.531h11.926v26.532h-9.938z" fill="#F2C500"/></g></g><path fill="#ECF0F1" d="M113.506 317.873h372.988v6.633H113.506z"/><g><path fill="#FFF" d="M247.33 317.873h9.937l1.657 68.319h-13.25z"/><path fill="#00A185" d="M244.68 380.223h15.238v2.653H244.68z"/><path fill="#F2C500" d="M243.024 386.193h18.55l-2.65 3.98h-13.25z"/><path fill="#00A185" d="M246.336 327.822h11.925v2.653h-11.925z"/><path fill="#F2C500" d="M245.011 317.873h14.575v2.653h-14.575z"/><path fill="#F59D00" d="M246.336 320.526h11.925v2.653h-11.925z"/><path fill="#FFF" d="M232.755 390.172h39.087V424h-39.087z"/><path d="M149.047 390.172c5.5 6.033 18.66 10.28 34.02 10.28 15.361 0 28.522-4.247 34.022-10.28h15.666V424h-99.706v-33.828h15.998z" fill="#ECF0F1"/></g><path fill="#FFF" d="M108.537 317.873h9.938l1.656 68.319h-13.25z"/><g><path fill="#00A185" d="M105.887 380.223h15.238v2.653h-15.238z"/><path fill="#F2C500" d="M104.231 386.193h18.55l-2.65 3.98h-13.25z"/></g><g><path fill="#00A185" d="M107.543 327.822h11.925v2.653h-11.925z"/><path fill="#F2C500" d="M106.218 317.873h14.575v2.653h-14.575z"/><path fill="#F59D00" d="M107.543 320.526h11.925v2.653h-11.925z"/></g><path fill="#FFF" d="M93.962 390.172h39.087V424H93.962z"/><g><path fill="#FFF" d="M247.33 317.873h9.937l1.657 68.319h-13.25z"/><path fill="#00A185" d="M244.68 380.223h15.238v2.653H244.68z"/><path fill="#F2C500" d="M243.024 386.193h18.55l-2.65 3.98h-13.25z"/><path fill="#00A185" d="M246.336 327.822h11.925v2.653h-11.925z"/><path fill="#F2C500" d="M245.011 317.873h14.575v2.653h-14.575z"/><path fill="#F59D00" d="M246.336 320.526h11.925v2.653h-11.925z"/><path fill="#FFF" d="M232.755 390.172h39.087V424h-39.087z"/><path d="M149.047 390.172c5.5 6.033 18.66 10.28 34.02 10.28 15.361 0 28.522-4.247 34.022-10.28h15.666V424h-99.706v-33.828h15.998z" fill="#ECF0F1"/><path fill="#FFF" d="M108.537 317.873h9.938l1.656 68.319h-13.25z"/><g><path fill="#00A185" d="M105.887 380.223h15.238v2.653h-15.238z"/><path fill="#F2C500" d="M104.231 386.193h18.55l-2.65 3.98h-13.25z"/></g><g><path fill="#00A185" d="M107.543 327.822h11.925v2.653h-11.925z"/><path fill="#F2C500" d="M106.218 317.873h14.575v2.653h-14.575z"/><path fill="#F59D00" d="M107.543 320.526h11.925v2.653h-11.925z"/></g><path fill="#FFF" d="M93.962 390.172h39.087V424H93.962z"/></g><g><path fill="#FFF" d="M481.524 317.873h9.938l1.656 68.319h-13.25z"/><path fill="#00A185" d="M478.874 380.223h15.238v2.653h-15.238z"/><path fill="#F2C500" d="M477.218 386.193h18.55l-2.65 3.98h-13.25z"/><path fill="#00A185" d="M480.53 327.822h11.925v2.653H480.53z"/><path fill="#F2C500" d="M479.205 317.873h14.575v2.653h-14.575z"/><path fill="#F59D00" d="M480.53 320.526h11.925v2.653H480.53z"/><path fill="#FFF" d="M466.949 390.172h39.087V424h-39.087z"/><path d="M383.241 390.172c5.5 6.033 18.66 10.28 34.02 10.28 15.361 0 28.522-4.247 34.022-10.28h15.666V424h-99.706v-33.828h15.998z" fill="#ECF0F1"/><path fill="#FFF" d="M342.731 317.873h9.938l1.656 68.319h-13.25z"/><g><path fill="#00A185" d="M340.081 380.223h15.238v2.653h-15.238z"/><path fill="#F2C500" d="M338.425 386.193h18.55l-2.65 3.98h-13.25z"/></g><g><path fill="#00A185" d="M341.737 327.822h11.925v2.653h-11.925z"/><path fill="#F2C500" d="M340.412 317.873h14.575v2.653h-14.575z"/><path fill="#F59D00" d="M341.737 320.526h11.925v2.653h-11.925z"/></g><path fill="#FFF" d="M328.156 390.172h39.087V424h-39.087z"/></g><path fill="#1AAF5D" d="M200.625 284.709h198.75L565 317.873H35z"/><path fill="#ECF0F1" d="M200.625 258.177h198.75v26.532h-198.75z"/><g><path fill="#00A185" d="M213.875 263.815h29.813v15.256h-29.813z"/><path fill="#2B3E51" d="M216.525 266.468h24.181v9.949h-24.181z"/></g><g><path fill="#00A185" d="M260.25 263.815h29.813v15.256H260.25z"/><path fill="#2B3E51" d="M262.9 266.468h24.181v9.949H262.9z"/></g><g><path fill="#00A185" d="M309.938 263.815h29.813v15.256h-29.813z"/><path fill="#2B3E51" d="M312.588 266.468h24.181v9.949h-24.181z"/></g><g><path fill="#00A185" d="M356.313 263.815h29.813v15.256h-29.813z"/><path fill="#2B3E51" d="M358.963 266.468h24.181v9.949h-24.181z"/></g><path fill="#1AAF5D" d="M250.313 244.911h99.375l82.812 13.266h-265z"/><path fill="#1FCE6D" d="M300 162l49.688 82.911h-99.375z"/></g></svg>