<svg width="600" height="600" xmlns="http://www.w3.org/2000/svg" xmlns:xlink="http://www.w3.org/1999/xlink"><defs><ellipse id="a" cx="225" cy="225.5" rx="225" ry="225.5"/></defs><g fill="none" fill-rule="evenodd"><g transform="translate(76 75)"><mask id="b" fill="#fff"><use xlink:href="#a"/></mask><use fill="#2C97DE" xlink:href="#a"/><path fill="#1FCE6D" mask="url(#b)" d="M28 349.776h397v131.291H28z"/><g transform="translate(3 40.089)" fill="#FFF"><path d="M16 37.082h80v22.049H16z"/><ellipse cx="95" cy="45.1" rx="14" ry="14.031"/><ellipse cx="15.5" cy="43.597" rx="15.5" ry="15.534"/><ellipse cx="69.5" cy="29.566" rx="29.5" ry="29.566"/><ellipse cx="32.5" cy="31.57" rx="11.5" ry="11.526"/></g><g transform="translate(341 69.154)" fill="#FFF"><path d="M16 37.082h80v22.049H16z"/><ellipse cx="95" cy="45.1" rx="14" ry="14.031"/><ellipse cx="15.5" cy="43.597" rx="15.5" ry="15.534"/><ellipse cx="69.5" cy="29.566" rx="29.5" ry="29.566"/><ellipse cx="32.5" cy="31.57" rx="11.5" ry="11.526"/></g><path d="M72.314 113.752h65.172m-101.486 0h12.283" fill="#FFE500" stroke="#FFF" stroke-linecap="round" stroke-linejoin="round" stroke-width="5"/><path d="M351.314 142.817h65.172m-91.486 0h12.283" fill="#FFE500" stroke="#FFF" stroke-linecap="round" stroke-linejoin="round" stroke-width="5"/><path d="M324.592 27.06h46.045m-58.194 0h2.235" fill="#FFE500" stroke="#FFF" stroke-linecap="round" stroke-linejoin="round" stroke-width="5"/></g><path fill="#ECF0F1" d="M225.804 252h151.392v108H225.804z"/><path fill="#FFF" d="M258.147 295h86.706v65h-86.706z"/><path fill="#33495F" d="M414.356 369H435v55h-20.644zM168 369h20.644v55H168z"/><path fill="#2B3E51" d="M393.711 369h20.644v55h-20.644zm-205.067 0h20.644v55h-20.644z"/><path fill="#33495F" d="M331.778 369h61.933v55h-61.933zm-122.489 0h61.933v55h-61.933z"/><path fill="#ECF0F1" d="M393.711 360h20.644v9h-20.644zm-205.067 0h20.644v9h-20.644z"/><path fill="#FFF" d="M414.356 360H435v9h-20.644zM168 360h20.644v9H168z"/><path fill="#33495F" d="M261.588 298h79.825v126h-79.825z"/><g fill="#E94B35"><path d="M289.802 377.5h13.763V424h-13.763zm15.139 0h13.763V424h-13.763z"/></g><path fill="#FFF" d="M329.714 360h63.997v9h-63.997zm-120.425 0h63.997v9h-63.997z"/><path d="M328.338 369l-3.05-20.735L301.5 309l-24.398 39.265-2.44 20.735h-3.44l2.752-23.5L301.5 301l26.838 44.5 3.44 23.5h-3.44z" fill="#FFF"/><path d="M368.938 360v-69.864l-7.374-17.636L354 290.136 353.799 360h-2.064l.256-70.059L361.617 269l9.386 20.941V360h-2.065zm-119.737 0v-69.864l-7.374-17.636-7.563 17.636-.202 69.864h-2.065l.257-70.059L241.88 269l9.385 20.941V360h-2.064z" fill="#2B3E51"/><path fill="#ECF0F1" d="M386.142 229h27.526v113h-27.526z"/><path fill="#FFF" d="M393.023 229h13.763v113h-13.763zm-15.827 113h45.418v18h-45.418z"/><path fill="#33495F" d="M383.389 227h33.031v2h-33.031z"/><path fill="#2B3E51" d="M386.142 229h6.881v7h-5.505z"/><path fill="#33495F" d="M399.905 229h-6.882v7h5.506"/><path fill="#2B3E51" d="M413.668 229h-6.882v7h5.505"/><path fill="#33495F" d="M399.905 229h6.881v7h-5.505z"/><path fill="#FFF" d="M389.583 217.5h20.644v9.5h-20.644z"/><path d="M401.281 205.639c6.53 1.34 8.946 11.965 8.946 11.965h-20.644s2.416-10.624 8.945-11.965V202h2.753v3.639z" fill="#F2C500"/><g><path fill="#2B3E51" d="M386.142 305h6.881v7h-5.505z"/><path fill="#33495F" d="M399.905 305h-6.882v7h5.506"/><path fill="#2B3E51" d="M413.668 305h-6.882v7h5.505"/><path fill="#33495F" d="M399.905 305h6.881v7h-5.505z"/><path fill="#33495F" d="M383.389 303h33.031v2h-33.031z"/></g><g><path fill="#2B3E51" d="M386.142 340h6.881v-7h-5.505z"/><path fill="#33495F" d="M399.905 340h-6.882v-7h5.506"/><path fill="#2B3E51" d="M413.668 340h-6.882v-7h5.505"/><path fill="#33495F" d="M399.905 340h6.881v-7h-5.505z"/><path fill="#33495F" d="M383.389 342h33.031v-2h-33.031z"/></g><g><path fill="#ECF0F1" d="M189.333 229h27.526v113h-27.526z"/><path fill="#FFF" d="M196.214 229h13.763v113h-13.763zm-15.827 113h45.418v18h-45.418z"/><path fill="#33495F" d="M186.58 227h33.031v2H186.58z"/><path fill="#2B3E51" d="M189.333 229h6.881v7h-5.505z"/><path fill="#33495F" d="M203.096 229h-6.882v7h5.506"/><path fill="#2B3E51" d="M216.859 229h-6.882v7h5.505"/><path fill="#33495F" d="M203.096 229h6.881v7h-5.505z"/><path fill="#FFF" d="M192.774 217.5h20.644v9.5h-20.644z"/><path d="M204.472 205.639c6.53 1.34 8.946 11.965 8.946 11.965h-20.644s2.416-10.624 8.945-11.965V202h2.753v3.639z" fill="#F2C500"/><g><path fill="#2B3E51" d="M189.333 305h6.881v7h-5.505z"/><path fill="#33495F" d="M203.096 305h-6.882v7h5.506"/><path fill="#2B3E51" d="M216.859 305h-6.882v7h5.505"/><path fill="#33495F" d="M203.096 305h6.881v7h-5.505z"/><path fill="#33495F" d="M186.58 303h33.031v2H186.58z"/></g><g><path fill="#2B3E51" d="M189.333 340h6.881v-7h-5.505z"/><path fill="#33495F" d="M203.096 340h-6.882v-7h5.506"/><path fill="#2B3E51" d="M216.859 340h-6.882v-7h5.505"/><path fill="#33495F" d="M203.096 340h6.881v-7h-5.505z"/><path fill="#33495F" d="M186.58 342h33.031v-2H186.58z"/></g></g><path fill="#FFF" d="M281.544 252h6.881v43h-6.881zm33.719 0h6.881v43h-6.881z"/><path fill="#33495F" d="M225.804 250h151.392v2H225.804z"/><path fill="#2B3E51" d="M223.052 244h156.897v2H223.052z"/><path fill="#FFF" d="M223.052 246h156.896l-2.752 4H225.804z"/><path fill="#33495F" d="M240.943 236h121.113v8H240.943zm10.322-16h100.469v8H251.265z"/><path fill="#FFF" d="M248.513 212h105.974l-2.585 8H251.098zm-10.322 16h126.618l-2.752 8H240.943z"/><path d="M301.5 143c38.84 0 41.289 54 41.289 54H260.21s2.45-54 41.29-54z" fill="#F2C500"/><path fill="#33495F" d="M260.211 197h82.577v15h-82.577z"/><path fill="#FFF" d="M260.211 197h82.578v3H260.21z"/><path d="M272.598 197h2.753v15h-2.753v-15zm17.892 0h2.752v15h-2.752v-15zm19.956 0h2.752v15h-2.752v-15zm17.892 0h2.752v15h-2.752v-15zm-25.462-78.361c6.53 1.34 8.946 11.965 8.946 11.965h-20.644s2.416-10.624 8.946-11.965V115h2.752v3.639z" fill="#FFF"/><path fill="#F2C500" d="M288.425 130.5h26.149v2h-26.149z"/><path fill="#FFF" d="M291.178 132.5h20.644V145h-20.644z"/><path d="M291.866 292h2.753v2h-2.753v-2zm0-3h2.753v2h-2.753v-2zm0-3h2.753v2h-2.753v-2zm0-3h2.753v2h-2.753v-2zm0-3h2.753v2h-2.753v-2zm0-3h2.753v2h-2.753v-2zm0-3h2.753v2h-2.753v-2zm4.129 18h2.752v2h-2.752v-2zm0-3h2.752v2h-2.752v-2zm0-3h2.752v2h-2.752v-2zm0-3h2.752v2h-2.752v-2zm0-3h2.752v2h-2.752v-2zm0-3h2.752v2h-2.752v-2zm0-3h2.752v2h-2.752v-2zm4.129 18h2.752v2h-2.752v-2zm0-3h2.752v2h-2.752v-2zm0-3h2.752v2h-2.752v-2zm0-3h2.752v2h-2.752v-2zm0-3h2.752v2h-2.752v-2zm0-3h2.752v2h-2.752v-2zm0-3h2.752v2h-2.752v-2zm0-3h2.752v2h-2.752v-2zm4.129 21h2.752v2h-2.752v-2zm0-3h2.752v2h-2.752v-2zm0-3h2.752v2h-2.752v-2zm0-3h2.752v2h-2.752v-2zm0-3h2.752v2h-2.752v-2zm0-3h2.752v2h-2.752v-2zm0-3h2.752v2h-2.752v-2zm4.128 18h2.753v2h-2.753v-2zm0-3h2.753v2h-2.753v-2zm0-3h2.753v2h-2.753v-2zm0-3h2.753v2h-2.753v-2zm0-3h2.753v2h-2.753v-2zm0-3h2.753v2h-2.753v-2zm0-3h2.753v2h-2.753v-2z" fill="#2B3E51"/></g></svg>