<svg width="600" height="600" xmlns="http://www.w3.org/2000/svg" xmlns:xlink="http://www.w3.org/1999/xlink"><defs><circle id="a" cx="225" cy="225" r="225"/><path id="c" d="M0 0h150.591v103H0z"/></defs><g fill="none" fill-rule="evenodd"><g transform="translate(76 75)"><mask id="b" fill="#fff"><use xlink:href="#a"/></mask><use fill="#2C97DE" xlink:href="#a"/><path fill="#1FCE6D" mask="url(#b)" d="M28 349h397v131H28z"/><g transform="translate(3 40)" fill="#FFF"><path d="M16 37h80v22H16z"/><circle cx="95" cy="45" r="14"/><circle cx="15.5" cy="43.5" r="15.5"/><circle cx="69.5" cy="29.5" r="29.5"/><circle cx="32.5" cy="31.5" r="11.5"/></g><g transform="translate(341 69)" fill="#FFF"><path d="M16 37h80v22H16z"/><circle cx="95" cy="45" r="14"/><circle cx="15.5" cy="43.5" r="15.5"/><circle cx="69.5" cy="29.5" r="29.5"/><circle cx="32.5" cy="31.5" r="11.5"/></g><path d="M72.314 113.5h65.172M36 113.5h12.283" fill="#FFE500" stroke="#FFF" stroke-linecap="round" stroke-linejoin="round" stroke-width="5"/><path d="M351.314 142.5h65.172m-91.486 0h12.283" fill="#FFE500" stroke="#FFF" stroke-linecap="round" stroke-linejoin="round" stroke-width="5"/><path d="M324.592 27h46.045m-58.194 0h2.235" fill="#FFE500" stroke="#FFF" stroke-linecap="round" stroke-linejoin="round" stroke-width="5"/></g><path fill="#2C97DE" d="M11 367.506h82.005v59.495H11z"/><path fill="#33495F" d="M107.915 363.044h119.28l14.91 17.105h-149.1z"/><path fill="#2C97DE" d="M84.432 380.149h157.674v46.852H84.432z"/><path fill="#ECF0F1" d="M11 380.149h216.195v5.95H11zm0 15.245h216.195v5.95H11zm0 15.246h216.195v5.95H11z"/><path d="M229.68 369.737l12.425 10.361-12.425 45.416-12.425-45.415 12.425-10.36zm-24.85 0l12.425 10.361-12.425 45.416-12.425-45.415 12.425-10.36zm-24.85 0l12.425 10.361-12.425 45.416-12.425-45.415 12.425-10.36zm-49.7 0l12.425 10.361-12.425 45.416-12.425-45.415 12.425-10.36zm24.85 0l12.425 10.361-12.425 45.416-12.425-45.415 12.425-10.36zm-49.7 0l12.425 10.361-12.425 45.416-12.425-45.416 12.425-10.36z" fill="#FFF"/><path fill="#ECF0F1" d="M52.003 348.542l41.002 16.361H11z"/><path fill="#2C97DE" d="M52.189 352.632l30.752 12.271H21.437z"/><path fill="#ECF0F1" d="M11 364.903h82.005v5.95H11zm0 46.852h82.005V427H11z"/><path fill="#33495F" d="M30.383 414.73h17.519v12.271H30.383z"/><path fill="#FFF" d="M73.622 364.903h19.383v48.711H73.622zm-25.72 0h19.383v48.711H47.902zm-36.902 0h19.383v48.711H11z"/><g><path fill="#2C97DE" d="M591 367.506h-82.005v59.495H591z"/><path fill="#33495F" d="M494.085 363.044h-119.28l-14.91 17.105h149.1z"/><path fill="#2C97DE" d="M517.568 380.149H359.894v46.852h157.674z"/><path fill="#ECF0F1" d="M591 380.149H374.805v5.95H591zm0 15.245H374.805v5.95H591zm0 15.246H374.805v5.95H591z"/><path d="M372.32 369.737l-12.425 10.361 12.425 45.416 12.425-45.415-12.425-10.36zm24.85 0l-12.425 10.361 12.425 45.416 12.425-45.415-12.425-10.36zm24.85 0l-12.425 10.361 12.425 45.416 12.425-45.415-12.425-10.36zm49.7 0l-12.425 10.361 12.425 45.416 12.425-45.415-12.425-10.36zm-24.85 0l-12.425 10.361 12.425 45.416 12.425-45.415-12.425-10.36zm49.7 0l-12.425 10.361 12.425 45.416 12.425-45.416-12.425-10.36z" fill="#FFF"/><path fill="#ECF0F1" d="M549.997 348.542l-41.002 16.361H591z"/><path fill="#2C97DE" d="M549.811 352.632l-30.752 12.271h61.504z"/><path fill="#ECF0F1" d="M591 364.903h-82.005v5.95H591zm0 46.852h-82.005V427H591z"/><path fill="#33495F" d="M571.617 414.73h-17.519v12.271h17.519z"/><path fill="#FFF" d="M528.378 364.903h-19.383v48.711h19.383zm25.72 0h-19.383v48.711h19.383zm36.902 0h-19.383v48.711H591z"/></g><g transform="translate(225.704 324)"><mask id="d" fill="#fff"><use xlink:href="#c"/></mask><ellipse fill="#ECF0F1" mask="url(#d)" cx="75.296" cy="89.8" rx="75.296" ry="89.8"/><ellipse fill="#BDC3C7" mask="url(#d)" cx="75.296" cy="90.543" rx="67.095" ry="80.132"/><ellipse fill="#2C97DE" mask="url(#d)" cx="75.296" cy="103.558" rx="62.249" ry="67.117"/><ellipse fill="#227FBB" mask="url(#d)" cx="75.296" cy="101.327" rx="23.856" ry="25.471"/><ellipse fill="#BDC3C7" mask="url(#d)" cx="75.296" cy="100.955" rx="18.638" ry="19.522"/><g mask="url(#d)"><path fill="#FFF" d="M45.476 101.884h59.64V103h-59.64z"/><path fill="#ECF0F1" d="M45.849 100.769h58.895v1.116H45.849z"/><path fill="#FFF" d="M46.222 99.653h58.149v1.116H46.222z"/><path fill="#ECF0F1" d="M46.594 98.538h57.404v1.116H46.594z"/><path fill="#FFF" d="M46.967 97.422h56.658v1.116H46.967z"/><path fill="#ECF0F1" d="M47.34 96.307h55.913v1.116H47.34z"/><path fill="#FFF" d="M47.713 95.191h55.167v1.116H47.713z"/><path fill="#ECF0F1" d="M48.085 94.076h54.422v1.116H48.085z"/><path fill="#FFF" d="M48.458 92.96h53.676v1.116H48.458z"/><path fill="#33495F" d="M66.35 87.382h17.892v5.578H66.35z"/><path fill="#227FBB" d="M70.823 81.061h8.946V92.96h-8.946zm0-70.278h8.946v11.899h-8.946z"/><path fill="#FFF" d="M70.823 22.682h8.946v58.379h-8.946z"/><g fill="#227FBB"><path d="M70.823 42.39h8.946v2.975h-8.946zm0 16.361h8.946v2.975h-8.946z"/></g><path fill="#FFF" d="M64.114 4.09h22.365v6.693H64.114z"/></g></g></g></svg>