<svg width="600" height="600" xmlns="http://www.w3.org/2000/svg" xmlns:xlink="http://www.w3.org/1999/xlink"><defs><circle id="a" cx="225" cy="225" r="225"/><path id="c" d="M134.039 0l134.039 161.719H0z"/><path id="e" d="M71.605 0l71.605 85.781H0z"/></defs><g fill="none" fill-rule="evenodd"><g transform="translate(76 75)"><mask id="b" fill="#fff"><use xlink:href="#a"/></mask><use fill="#2C97DE" xlink:href="#a"/><path fill="#1FCE6D" mask="url(#b)" d="M28 349h397v131H28z"/><g transform="translate(3 40)" fill="#FFF"><path d="M16 37h80v22H16z"/><circle cx="95" cy="45" r="14"/><circle cx="15.5" cy="43.5" r="15.5"/><circle cx="69.5" cy="29.5" r="29.5"/><circle cx="32.5" cy="31.5" r="11.5"/></g><g transform="translate(341 69)" fill="#FFF"><path d="M16 37h80v22H16z"/><circle cx="95" cy="45" r="14"/><circle cx="15.5" cy="43.5" r="15.5"/><circle cx="69.5" cy="29.5" r="29.5"/><circle cx="32.5" cy="31.5" r="11.5"/></g><path d="M72.314 113.5h65.172M36 113.5h12.283" fill="#FFE500" stroke="#FFF" stroke-linecap="round" stroke-linejoin="round" stroke-width="5"/><path d="M351.314 142.5h65.172m-91.486 0h12.283" fill="#FFE500" stroke="#FFF" stroke-linecap="round" stroke-linejoin="round" stroke-width="5"/><path d="M324.592 27h46.045m-58.194 0h2.235" fill="#FFE500" stroke="#FFF" stroke-linecap="round" stroke-linejoin="round" stroke-width="5"/></g><path fill="#2B3E51" d="M302 206.031l162.258 189.844H139.743z"/><path fill="#BDC3C7" d="M302 213.062l155.203 182.813H146.798z"/><path d="M228.278 312.203v-33.046h4.233v61.171h-4.233v-23.906h-21.87v23.906h-4.231v-61.171h4.233v33.046h21.87z" fill="#FFF"/><path fill="#2B3E51" d="M192.652 276.344h49.383l-3.528 2.813H196.18z"/><path fill="#E94B35" d="M217.343 264.743l24.692 11.601h-49.383z"/><path fill="#C23824" d="M217.343 257.711l17.637 14.063h-35.273z"/><path fill="#E94B35" d="M217.343 239.43l15.168 28.125h-30.335z"/><path d="M397.59 312.203v-33.046h4.233v61.171h-4.233v-23.906h-21.87v23.906h-4.231v-61.171h4.233v33.046h21.87z" fill="#FFF"/><path fill="#2B3E51" d="M361.964 276.344h49.383l-3.528 2.813h-42.328z"/><path fill="#E94B35" d="M386.655 264.743l24.692 11.601h-49.383z"/><path fill="#C23824" d="M386.655 257.711l17.637 14.063h-35.273z"/><path fill="#E94B35" d="M386.655 239.43l15.168 28.125h-30.335z"/><g><path fill="#2B3E51" d="M302 220.093l148.148 175.781H153.852z"/><path fill="#FFF" d="M302 227.124l141.094 168.75H160.907z"/><g transform="translate(167.962 234.156)"><mask id="d" fill="#fff"><use xlink:href="#c"/></mask><use fill="#227FBB" xlink:href="#c"/><g mask="url(#d)" fill="#2B3E51"><path d="M243.386 4.709h1.411v157.01h-1.411zm-36.684 0h1.411v157.01h-1.411zm-36.685 0h1.411v157.01h-1.411zm-36.684 0h1.411v157.01h-1.411zm-36.684 0h1.411v157.01h-1.411zm-36.685 0h1.411v157.01h-1.411zm-36.684 0h1.411v157.01H23.28z"/></g></g></g><path fill="#FFF" d="M275.545 210.953h52.91v125.156h-52.91z"/><g transform="translate(223.341 303.063)"><path fill="#2B3E51" d="M78.66 0l78.66 92.813H0z"/><g transform="translate(7.055 7.031)"><mask id="f" fill="#fff"><use xlink:href="#e"/></mask><use fill="#227FBB" xlink:href="#e"/><path fill="#ECF0F1" mask="url(#f)" d="M20.811-7.031h101.587v92.813H20.811z"/></g><path fill="#FFF" d="M78.836 7.031l14.991 17.93H63.845z"/><path d="M144.395 92.813L78.66 14.063l-65.736 78.75h-5.87L78.66 7.03l71.605 85.781h-5.87z" fill="#FFF"/><path fill="#F59D00" d="M46.914 87.188h63.492v2.813H46.914z"/><path fill="#FFF" d="M56.79 76.641h43.739v2.109H56.79z"/><path fill="#F2C500" d="M52.205 78.75h52.91v2.813h-52.91z"/><path fill="#F59D00" d="M50.441 81.563h56.437v2.813H50.441z"/><path fill="#F2C500" d="M48.677 84.375h59.965v2.813H48.677zM45.15 90h67.019v2.813H45.15z"/><g fill="#FFF"><path d="M52.205 38.701h4.938V78.75h-4.938zm47.972 0h4.938V78.75h-4.938z"/></g><ellipse fill="#2B3E51" cx="78.66" cy="49.922" rx="16.931" ry="16.875"/><path d="M78.66 58.008c-4.87 0-8.819-3.935-8.819-8.79 0-4.853 3.948-8.788 8.819-8.788 4.87 0 8.818 3.935 8.818 8.789 0 4.854-3.948 8.789-8.818 8.789zm0-.703c4.48 0 8.112-3.62 8.112-8.086s-3.632-8.086-8.112-8.086c-4.481 0-8.113 3.62-8.113 8.086 0 4.465 3.632 8.086 8.113 8.086z" fill="#FFF"/><path d="M78.66 67.5c-9.74 0-17.637-7.87-17.637-17.578 0-9.708 7.896-17.578 17.637-17.578 9.74 0 17.636 7.87 17.636 17.578C96.296 59.63 88.4 67.5 78.66 67.5zm0-.703c9.35 0 16.93-7.555 16.93-16.875s-7.58-16.875-16.93-16.875c-9.351 0-16.932 7.555-16.932 16.875s7.58 16.875 16.932 16.875z" fill="#FFF"/><g><path fill="#C23824" d="M61.023 49.922H78.66v26.719H61.023z"/><path fill="#E94B35" d="M61.023 49.922h1v26.719h-1zm8.466 0h1v26.719h-1zm8.465 0h1v26.719h-1z"/><path fill="#E94B35" d="M61.023 49.922H78.66v1H61.023zm0 13.008H78.66v1H61.023z"/><path fill="#E94B35" d="M77.954 49.922h1v26.719h-1z"/><path fill="#E94B35" d="M61.023 75.938H78.66v1H61.023z"/><path fill="#C23824" d="M78.66 49.922h17.637v26.719H78.66z"/><path fill="#E94B35" d="M78.66 49.922h1v26.719h-1zm8.466 0h1v26.719h-1zm8.465 0h1v26.719h-1z"/><path fill="#E94B35" d="M78.66 49.922h17.637v1H78.66zm0 13.008h17.637v1H78.66z"/><path fill="#E94B35" d="M95.591 49.922h1v26.719h-1z"/><path fill="#E94B35" d="M78.66 75.938h17.637v1H78.66z"/><path d="M78.66 68.555c-2.922 0-5.291-2.361-5.291-5.274 0-2.912 2.369-5.273 5.29-5.273 2.923 0 5.292 2.36 5.292 5.273s-2.37 5.274-5.291 5.274zm0-.703a4.578 4.578 0 0 0 4.585-4.57 4.578 4.578 0 0 0-4.585-4.57 4.578 4.578 0 0 0-4.586 4.57 4.578 4.578 0 0 0 4.586 4.57z" fill="#E94B35"/></g><path fill="#FFF" d="M61.023 49.219h35.273v1H61.023z"/></g><g><path fill="#2C97DE" d="M282.6 217.984h38.801v78.047H282.6z"/><path d="M319.99 219.39h-17.284v23.907h17.284v-23.908zm1.41 0v76.641h-38.8v-78.047h38.8v1.406zm-1.41 75.235v-23.907h-17.284v23.907h17.284zm0-25.313v-24.61h-17.284v24.61h17.284zm-18.695-49.922H284.01v23.907h17.284v-23.908zm0 75.235v-23.907H284.01v23.907h17.284zm0-25.313v-24.61H284.01v24.61h17.284z" fill="#2B3E51"/></g><path fill="#E94B35" d="M223.34 395.875h157.319v11.602H223.34z"/><path fill="#FFF" d="M223.34 407.477h157.319V424H223.34z"/><path fill="#BDC3C7" d="M102 395.875h121.34V424H102zm278.66 0H502V424H380.66z"/><path d="M102 399.39h121.34v3.516H102v-3.515zm0 14.063h121.34v3.516H102v-3.516zm0-7.031h121.34v3.516H102v-3.516zm0 14.062h121.34V424H102v-3.516zm278.66-21.093H502v3.515H380.66v-3.515zm0 14.062H502v3.516H380.66v-3.516zm0-7.031H502v3.516H380.66v-3.516zm0 14.062H502V424H380.66v-3.516z" fill="#94A5A6"/><path fill="#BDC3C7" d="M299.884 154h4.233v56.953h-4.233z"/><path fill="#BDC3C7" d="M281.189 172.281h41.623v4.219h-41.623z"/></g></svg>