<svg width="600" height="600" xmlns="http://www.w3.org/2000/svg" xmlns:xlink="http://www.w3.org/1999/xlink"><defs><circle id="a" cx="225" cy="225" r="225"/></defs><g fill="none" fill-rule="evenodd"><g transform="translate(76 75)"><mask id="b" fill="#fff"><use xlink:href="#a"/></mask><use fill="#2C97DE" xlink:href="#a"/><path fill="#1FCE6D" mask="url(#b)" d="M28 349h397v131H28z"/><g transform="translate(3 40)" fill="#FFF"><path d="M16 37h80v22H16z"/><circle cx="95" cy="45" r="14"/><circle cx="15.5" cy="43.5" r="15.5"/><circle cx="69.5" cy="29.5" r="29.5"/><circle cx="32.5" cy="31.5" r="11.5"/></g><g transform="translate(341 69)" fill="#FFF"><path d="M16 37h80v22H16z"/><circle cx="95" cy="45" r="14"/><circle cx="15.5" cy="43.5" r="15.5"/><circle cx="69.5" cy="29.5" r="29.5"/><circle cx="32.5" cy="31.5" r="11.5"/></g><path d="M72.314 113.5h65.172M36 113.5h12.283" fill="#FFE500" stroke="#FFF" stroke-linecap="round" stroke-linejoin="round" stroke-width="5"/><path d="M351.314 142.5h65.172m-91.486 0h12.283" fill="#FFE500" stroke="#FFF" stroke-linecap="round" stroke-linejoin="round" stroke-width="5"/><path d="M324.592 27h46.045m-58.194 0h2.235" fill="#FFE500" stroke="#FFF" stroke-linecap="round" stroke-linejoin="round" stroke-width="5"/></g><path fill="#ECF0F1" d="M283.5 78.676h35L336 424h-70z"/><path fill="#FFF" d="M277.667 66.014h46.667v12.662h-46.667z"/><path fill="#BDC3C7" d="M299.833 78.676h2.333v5.755h-2.333zm-17.5 0h2.333v5.755h-2.333zm35 0h2.333v5.755h-2.333z"/><path fill="#2B3E51" d="M298.666 99.971h4.667v5.755h-4.667z"/><path fill="#FFF" d="M298.083 98.82h5.833v1.151h-5.833z"/><path fill="#2B3E51" d="M298.666 141.41h4.667v5.755h-4.667z"/><path fill="#FFF" d="M298.083 140.259h5.833v1.151h-5.833z"/><path fill="#2B3E51" d="M298.666 182.849h4.667v5.755h-4.667z"/><path fill="#FFF" d="M298.083 181.698h5.833v1.151h-5.833z"/><path fill="#2B3E51" d="M298.666 224.288h4.667v5.755h-4.667z"/><path fill="#FFF" d="M298.083 223.137h5.833v1.151h-5.833z"/><path fill="#2B3E51" d="M298.666 265.727h4.667v5.755h-4.667z"/><path fill="#FFF" d="M298.083 264.576h5.833v1.151h-5.833z"/><path fill="#2B3E51" d="M298.666 348.604h4.667v5.755h-4.667z"/><path fill="#FFF" d="M298.083 347.453h5.833v1.151h-5.833z"/><path fill="#2B3E51" d="M298.666 307.165h4.667v5.755h-4.667z"/><path fill="#FFF" d="M298.083 306.014h5.833v1.151h-5.833z"/><g><path fill="#BDC3C7" d="M278.834 52.201h1.167v13.813h-1.167z"/><path d="M274.167 45.87c3.222 0 5.833 2.834 5.833 6.33 0 3.497-2.611 6.332-5.833 6.332V45.87z" fill="#ECF0F1"/></g><g><path fill="#BDC3C7" d="M283.5 30.331h1.167v35.683H283.5z"/><path d="M278.833 24c3.222 0 5.833 2.834 5.833 6.33 0 3.497-2.611 6.332-5.833 6.332V24z" fill="#ECF0F1"/></g><path fill="#FFF" d="M286.417 51.05h29.167v3.453h-29.167z"/><path fill="#ECF0F1" d="M301 47.597l14.583 3.453h-29.166z"/><path fill="#BDC3C7" d="M286.417 54.504h1.167v11.511h-1.167zm28 0h1.167v11.511h-1.167zm-14 0h1.167v11.511h-1.167z"/></g></svg>