<svg width="600" height="600" xmlns="http://www.w3.org/2000/svg" xmlns:xlink="http://www.w3.org/1999/xlink"><defs><circle id="a" cx="225" cy="225" r="225"/></defs><g fill="none" fill-rule="evenodd"><g transform="translate(76 75)"><mask id="b" fill="#fff"><use xlink:href="#a"/></mask><use fill="#2C97DE" xlink:href="#a"/><path fill="#1FCE6D" mask="url(#b)" d="M28 349h397v131H28z"/><g transform="translate(3 40)" fill="#FFF"><path d="M16 37h80v22H16z"/><circle cx="95" cy="45" r="14"/><circle cx="15.5" cy="43.5" r="15.5"/><circle cx="69.5" cy="29.5" r="29.5"/><circle cx="32.5" cy="31.5" r="11.5"/></g><g transform="translate(341 69)" fill="#FFF"><path d="M16 37h80v22H16z"/><circle cx="95" cy="45" r="14"/><circle cx="15.5" cy="43.5" r="15.5"/><circle cx="69.5" cy="29.5" r="29.5"/><circle cx="32.5" cy="31.5" r="11.5"/></g><path d="M72.314 113.5h65.172M36 113.5h12.283" fill="#FFE500" stroke="#FFF" stroke-linecap="round" stroke-linejoin="round" stroke-width="5"/><path d="M351.314 142.5h65.172m-91.486 0h12.283" fill="#FFE500" stroke="#FFF" stroke-linecap="round" stroke-linejoin="round" stroke-width="5"/><path d="M324.592 27h46.045m-58.194 0h2.235" fill="#FFE500" stroke="#FFF" stroke-linecap="round" stroke-linejoin="round" stroke-width="5"/></g><g fill="#2B3E51"><path d="M132.314 323.404h50.677v99.888h-50.677zm50.677 24.086h59.89v75.801h-59.89zm260.47 17.711H552.61v58.091H443.461z"/><path d="M242.881 305.693h200.58v117.952h-200.58z"/></g><path fill="#ECF0F1" d="M442.398 362.721h120.135v3.542H442.398zm-203.769-63.758h208.376v7.084H238.629zm-110.922 23.96h63.79v4.15h-63.79zm56.702 21.025h58.473v3.542h-58.473z"/><path fill="#E94B35" d="M251.387 318.444h7.087v105.201h-7.087zm-35.438 0h7.087v105.201h-7.087zm-35.439 0h7.088v105.201h-7.088zm-35.438 0h7.088v105.201h-7.088zm-35.438 0h7.088v105.201h-7.088zm-35.438 0h7.088v105.201h-7.088zm212.629 0h7.087v105.201h-7.087zm35.438 0h7.088v105.201h-7.088zm35.438 0h7.088v105.201H357.7zm35.438 0h7.088v105.201h-7.088zm35.438 0h7.088v105.201h-7.088zm35.439 0h7.087v105.201h-7.087z"/><path fill="#ECF0F1" d="M464.016 282.315h7.088v36.13h-7.088zm35.438-6.73h7.088v42.86h-7.088zm35.438-5.313h7.088v48.173h-7.088z"/><path fill="#ECF0F1" d="M564.085 266.124l6.139 3.542-28.131 48.7-6.138-3.542z"/><path fill="#E94B35" d="M499.454 318.444h7.087v105.201h-7.087zm35.438 0h7.088v105.201h-7.088z"/><g fill="#ECF0F1"><path d="M74.196 269.918h7.088v48.527h-7.088zm35.438 5.667h7.088v42.86h-7.088zm35.438 8.501h7.088v34.359h-7.088zm35.438 13.106h7.088v21.607h-7.088zm70.877 4.251h7.088v17.356h-7.088zm35.438-.354h7.088v17.356h-7.088zm35.438 0h7.088v17.356h-7.088zm35.438 0h7.088v17.356h-7.088zm35.438 0h7.088v17.356h-7.088zm35.438 0h7.088v17.356h-7.088z"/></g><path fill="#ECF0F1" d="M44.877 267.759l6.138-3.542 29.205 50.56-6.138 3.542z"/><path fill="#E94B35" d="M467.559 338.989h70.876v6.73h-70.876zM81.283 361.304h135.728v7.084H81.283z"/><g fill="#FFF" fill-rule="nonzero"><path d="M26.043 267.185c16.61 0 44.406 3.324 72.693 8.801 31.72 6.142 60.648 14.252 80.716 23.095 8.602 3.792 18.239 8.79 28.72 14.826 6.89 3.967 14.07 8.34 21.47 13.053 12.52 7.974 25.064 16.522 37.02 25.07a831.967 831.967 0 0 1 11.36 8.262 554.96 554.96 0 0 1 4.167 3.119l4.296-5.635-.285-.217-.822-.619a562.023 562.023 0 0 0-3.136-2.34 839.029 839.029 0 0 0-11.456-8.332c-12.053-8.617-24.698-17.235-37.336-25.283-7.485-4.766-14.754-9.194-21.74-13.216-10.685-6.154-20.54-11.266-29.399-15.17-20.63-9.091-50.032-17.334-82.227-23.568-28.694-5.556-56.912-8.93-74.041-8.93v7.084z"/><path d="M193.785 423.646l.85-.709a707.057 707.057 0 0 1 5.005-4.12c5.43-4.43 11.613-9.366 18.439-14.68 19.499-15.182 40.246-30.365 61.366-44.54 18.56-12.458 36.557-23.554 53.689-32.935 14.119-7.732 27.483-14.205 39.979-19.28 44.91-18.24 92.485-29.958 139.72-36.467 16.53-2.278 31.842-3.743 45.558-4.557a407.96 407.96 0 0 1 12.754-.571 238.27 238.27 0 0 1 3.377-.072c.58-.008.978-.01 1.187-.01v7.084c-.178 0-.544.002-1.092.01-.923.012-2.017.035-3.275.07-3.606.1-7.799.28-12.53.56-13.54.805-28.67 2.252-45.011 4.504-46.69 6.434-93.706 18.013-138.02 36.012-12.224 4.965-25.348 11.322-39.242 18.93-16.93 9.27-34.75 20.257-53.143 32.603-20.97 14.075-41.586 29.161-60.962 44.248a1040.22 1040.22 0 0 0-17.503 13.92h-11.146z"/></g></g></svg>