<svg width="600" height="600" xmlns="http://www.w3.org/2000/svg" xmlns:xlink="http://www.w3.org/1999/xlink"><defs><circle id="a" cx="225" cy="225" r="225"/><path d="M0 49.898S54.459.04 81.798.04c27.338 0 81.798 49.858 81.798 49.858v48.549H0v-48.55z" id="c"/><path id="e" d="M67.416 0H231.01l67.416 211.279H0z"/></defs><g fill="none" fill-rule="evenodd"><g transform="translate(76 75)"><mask id="b" fill="#fff"><use xlink:href="#a"/></mask><use fill="#2C97DE" xlink:href="#a"/><path fill="#1FCE6D" mask="url(#b)" d="M28 349h397v131H28z"/><g transform="translate(3 40)" fill="#FFF"><path d="M16 37h80v22H16z"/><circle cx="95" cy="45" r="14"/><circle cx="15.5" cy="43.5" r="15.5"/><circle cx="69.5" cy="29.5" r="29.5"/><circle cx="32.5" cy="31.5" r="11.5"/></g><g transform="translate(341 69)" fill="#FFF"><path d="M16 37h80v22H16z"/><circle cx="95" cy="45" r="14"/><circle cx="15.5" cy="43.5" r="15.5"/><circle cx="69.5" cy="29.5" r="29.5"/><circle cx="32.5" cy="31.5" r="11.5"/></g><path d="M72.314 113.5h65.172M36 113.5h12.283" fill="#FFE500" stroke="#FFF" stroke-linecap="round" stroke-linejoin="round" stroke-width="5"/><path d="M351.314 142.5h65.172m-91.486 0h12.283" fill="#FFE500" stroke="#FFF" stroke-linecap="round" stroke-linejoin="round" stroke-width="5"/><path d="M324.592 27h46.045m-58.194 0h2.235" fill="#FFE500" stroke="#FFF" stroke-linecap="round" stroke-linejoin="round" stroke-width="5"/></g><path fill="#2B3E51" d="M300.326 113.35l113.932 101.17H186.393z"/><path fill="#BDC3C7" d="M187.742 214.52h226.517v36.861H187.742z"/><g transform="translate(219.202 114.275)"><mask id="d" fill="#fff"><use xlink:href="#c"/></mask><use fill="#D8D8D8" xlink:href="#c"/><g mask="url(#d)"><path d="M0 81.365h163.596v17.082H0V81.365zM0 1.349h163.596v21.577H0V1.349z" fill="#BDC3C7"/><path d="M0 76.87h163.596v4.495H0v-4.496zm0-11.688h163.596v4.495H0v-4.495zm0-11.688h163.596v4.495H0v-4.495zm0-11.688h163.596v4.495H0v-4.495zm0-11.688h163.596v4.496H0v-4.496z" fill="#ECF0F1"/><path d="M0 69.677h163.596v7.192H0v-7.192zm0-11.688h163.596v7.193H0v-7.193zm0-11.688h163.596v7.193H0V46.3zm0-11.687h163.596v7.192H0v-7.192zm0-11.688h163.596v7.192H0v-7.192z" fill="#D55400"/></g></g><g transform="translate(101 212.721)"><path fill="#2C97DE" d="M289.888 28.77h19.775v89.906h-19.775z"/><path d="M289.888 28.77h19.775v4.495h-19.775V28.77zm0 42.705h19.775v4.495h-19.775v-4.495zm0 21.128h19.775v4.495h-19.775v-4.495zm0-42.256h19.775v4.496h-19.775v-4.496zm0 63.833h19.775v4.496h-19.775v-4.496z" fill="#00BD9C"/><path fill="#ECF0F1" d="M314.158 17.082h-19.326V28.77h14.831z"/><path fill="#2C97DE" d="M90.337 28.77h19.775v89.906H90.337z"/><path d="M90.337 28.77h19.775v4.495H90.337V28.77zm0 42.705h19.775v4.495H90.337v-4.495zm0 21.128h19.775v4.495H90.337v-4.495zm0-42.256h19.775v4.495H90.337v-4.495zm0 63.833h19.775v4.496H90.337v-4.496z" fill="#00BD9C"/><path fill="#ECF0F1" d="M85.393 17.082h19.326V28.77H90.337z"/><path fill="#227FBB" d="M70.562 50.348h19.775v89.906H70.562z"/><path d="M70.562 50.348h19.775v4.495H70.562v-4.495zm0 42.705h19.775v4.495H70.562v-4.495zm0 21.128h19.775v4.495H70.562v-4.495zm0-42.256h19.775v4.495H70.562v-4.495zm0 63.833h19.775v4.496H70.562v-4.496z" fill="#00A185"/><path fill="#ECF0F1" d="M65.618 38.66h24.72v11.688H70.561z"/><path fill="#2C97DE" d="M4.944 114.181h65.618v89.906H4.944z"/><path d="M4.944 114.181h65.618v4.495H4.944v-4.495zm0 42.705h65.618v4.495H4.944v-4.495zm0 21.128h65.618v4.495H4.944v-4.495zm0-42.256h65.618v4.495H4.944v-4.495zm0 63.833h65.618v4.496H4.944v-4.496z" fill="#00BD9C"/><path fill="#FFF" d="M4.944 204.087h65.618v7.192H4.944z"/><path fill="#ECF0F1" d="M0 102.493h70.562v11.688H4.944z"/><path fill="#2C97DE" d="M395.056 114.181h-65.618v89.906h65.618z"/><path d="M395.056 114.181h-65.618v4.495h65.618v-4.495zm0 42.705h-65.618v4.495h65.618v-4.495zm0 21.128h-65.618v4.495h65.618v-4.495zm0-42.256h-65.618v4.495h65.618v-4.495zm0 63.833h-65.618v4.496h65.618v-4.496z" fill="#00BD9C"/><path fill="#FFF" d="M395.056 204.087h-65.618v7.192h65.618z"/><path fill="#ECF0F1" d="M400 102.493h-70.562v11.688h65.618z"/><path fill="#227FBB" d="M329.438 50.348h-19.775v89.906h19.775z"/><path d="M329.438 50.348h-19.775v4.495h19.775v-4.495zm0 42.705h-19.775v4.495h19.775v-4.495zm0 21.128h-19.775v4.495h19.775v-4.495zm0-42.256h-19.775v4.495h19.775v-4.495zm0 63.833h-19.775v4.496h19.775v-4.496z" fill="#00A185"/><path fill="#ECF0F1" d="M334.382 38.66h-24.72v11.688h19.776z"/><g transform="translate(50.787)"><mask id="f" fill="#fff"><use xlink:href="#e"/></mask><use fill="#ECF0F1" xlink:href="#e"/><path fill="#F2C500" mask="url(#f)" d="M0 125.419h298.427v85.86H0z"/></g><path fill="#7F8C8D" d="M117.303 151.491h165.393v59.787H117.303z"/><path fill="#BDC3C7" d="M125.393 118.676h149.213v32.816H125.393z"/><path fill="#2C97DE" d="M124.944 28.77h150.112v89.906H124.944z"/><path d="M124.944 28.77h31.46v4.495h-31.46V28.77zm0 42.705h31.46v4.495h-31.46v-4.495zm0 21.128h31.46v4.495h-31.46v-4.495zm0-42.256h31.46v4.496h-31.46v-4.496zm0 63.833h31.46v4.496h-31.46v-4.496zm118.652-85.41h31.46v4.495h-31.46V28.77zm0 42.705h31.46v4.495h-31.46v-4.495zm0 21.128h31.46v4.495h-31.46v-4.495zm0-42.256h31.46v4.496h-31.46v-4.496zm0 63.833h31.46v4.496h-31.46v-4.496z" fill="#00BD9C"/><g><path fill="#FFF" d="M109.214 28.77h16.18v182.509h-16.18z"/><path fill="#ECF0F1" d="M104.72 28.77h25.169v4.495H104.72z"/><path fill="#FFF" d="M105.619 33.265h23.371v4.495h-23.371z"/><path fill="#ECF0F1" d="M106.518 37.761h21.573v4.495h-21.573z"/><path fill="#FFF" d="M107.417 42.256h19.775v4.495h-19.775z"/><path fill="#ECF0F1" d="M108.316 46.751h17.977v4.495h-17.977z"/><path fill="#ECF0F1" d="M106.518 211.279h21.573v-4.495h-21.573z"/><path fill="#FFF" d="M107.417 206.784h19.775v-4.496h-19.775z"/><path fill="#ECF0F1" d="M108.316 202.288h17.977v-4.495h-17.977z"/></g><g><path fill="#FFF" d="M191.91 118.676h16.18v92.603h-16.18z"/><path fill="#ECF0F1" d="M187.416 118.676h25.169v4.495h-25.169z"/><path fill="#FFF" d="M188.315 123.171h23.371v4.495h-23.371z"/><path fill="#ECF0F1" d="M189.214 127.667h21.573v4.495h-21.573z"/><path fill="#FFF" d="M190.113 132.162h19.775v4.495h-19.775z"/><path fill="#ECF0F1" d="M191.012 136.657h17.977v4.495h-17.977z"/><path fill="#ECF0F1" d="M189.214 211.279h21.573v-4.495h-21.573z"/><path fill="#FFF" d="M190.113 206.784h19.775v-4.496h-19.775z"/><path fill="#ECF0F1" d="M191.012 202.288h17.977v-4.495h-17.977z"/></g><g><path fill="#FFF" d="M232.359 118.676h16.18v92.603h-16.18z"/><path fill="#ECF0F1" d="M227.865 118.676h25.169v4.495h-25.169z"/><path fill="#FFF" d="M228.764 123.171h23.371v4.495h-23.371z"/><path fill="#ECF0F1" d="M229.663 127.667h21.573v4.495h-21.573z"/><path fill="#FFF" d="M230.562 132.162h19.775v4.495h-19.775z"/><path fill="#ECF0F1" d="M231.46 136.657h17.978v4.495h-17.977z"/><path fill="#ECF0F1" d="M229.663 211.279h21.573v-4.495h-21.573z"/><path fill="#FFF" d="M230.562 206.784h19.775v-4.496h-19.775z"/><path fill="#ECF0F1" d="M231.46 202.288h17.978v-4.495h-17.977z"/></g><g><path fill="#FFF" d="M148.314 118.676h16.18v92.603h-16.18z"/><path fill="#ECF0F1" d="M143.82 118.676h25.169v4.495H143.82z"/><path fill="#FFF" d="M144.719 123.171h23.371v4.495h-23.371z"/><path fill="#ECF0F1" d="M145.618 127.667h21.573v4.495h-21.573z"/><path fill="#FFF" d="M146.517 132.162h19.775v4.495h-19.775z"/><path fill="#ECF0F1" d="M147.416 136.657h17.977v4.495h-17.977z"/><path fill="#ECF0F1" d="M145.618 211.279h21.573v-4.495h-21.573z"/><path fill="#FFF" d="M146.517 206.784h19.775v-4.496h-19.775z"/><path fill="#ECF0F1" d="M147.416 202.288h17.977v-4.495h-17.977z"/></g><g><path fill="#FFF" d="M274.606 28.77h16.18v182.509h-16.18z"/><path fill="#ECF0F1" d="M270.112 28.77h25.169v4.495h-25.169z"/><path fill="#FFF" d="M271.011 33.265h23.371v4.495h-23.371z"/><path fill="#ECF0F1" d="M271.91 37.761h21.573v4.495H271.91z"/><path fill="#FFF" d="M272.809 42.256h19.775v4.495h-19.775z"/><path fill="#ECF0F1" d="M273.708 46.751h17.977v4.495h-17.977z"/><path fill="#ECF0F1" d="M271.91 211.279h21.573v-4.495H271.91z"/><path fill="#FFF" d="M272.809 206.784h19.775v-4.496H272.81z"/><path fill="#ECF0F1" d="M273.708 202.288h17.977v-4.495h-17.977z"/></g><path fill="#FFF" d="M100.225 10.34h199.55l-4.494 18.43H104.719z"/><path fill="#ECF0F1" d="M156.404 28.77h87.191v89.906h-87.191z"/><ellipse fill="#FFF" cx="200" cy="73.723" rx="30.562" ry="30.568"/><g><path fill="#2B3E51" d="M57.079 151.041h43.146v60.237H34.607z"/><path fill="#FFF" d="M57.079 151.491h43.146v-13.486H50.787z"/></g><g><path fill="#2B3E51" d="M342.921 151.041h-43.146v60.237h65.618z"/><path fill="#FFF" d="M342.921 151.491h-43.146v-13.486h49.438z"/></g><path fill="#ECF0F1" d="M124.944 114.18h149.663v4.495H124.944z"/></g><path d="M301 90l120.45 103.392v26.971L301 116.972 180.55 220.363v-26.971L301 90z" fill="#FFF"/></g></svg>