<svg height="600" width="600" xmlns="http://www.w3.org/2000/svg" xmlns:xlink="http://www.w3.org/1999/xlink"><defs><circle id="a" cx="225" cy="225" r="225"/><mask id="b" fill="#fff"><use fill-rule="evenodd" xlink:href="#a"/></mask></defs><g fill="none" fill-rule="evenodd"><g transform="translate(76 75)"><use fill="#2c97de" xlink:href="#a"/><path d="m28 349h397v131h-397z" fill="#1fce6d" mask="url(#b)"/></g><g fill="#fff"><path d="m95 152h80v22h-80z"/><circle cx="174" cy="160" r="14"/><circle cx="94.5" cy="158.5" r="15.5"/><circle cx="148.5" cy="144.5" r="29.5"/><circle cx="111.5" cy="146.5" r="11.5"/></g><g fill="#fff"><path d="m433 181h80v22h-80z"/><circle cx="512" cy="189" r="14"/><circle cx="432.5" cy="187.5" r="15.5"/><circle cx="486.5" cy="173.5" r="29.5"/><circle cx="449.5" cy="175.5" r="11.5"/></g><g fill="#ffe500" stroke="#fff" stroke-linecap="round" stroke-linejoin="round" stroke-width="5"><path d="m148.314 188.5h65.172m-101.486 0h12.283"/><path d="m427.314 217.5h65.172m-91.486 0h12.283"/><path d="m400.592 102h46.045m-58.194 0h2.235"/></g><path d="m127 246h349l20 65h-389z" fill="#e94b35"/><path d="m99 380h201v44h-201z" fill="#ecf0f1"/><path d="m501 380h-201v44h201z" fill="#ecf0f1"/><path d="m335 407v-27h-8v44h146v-44h-8v27h-61v-27h-8v27z" fill="#fff"/><path d="m427 383h-18v24h18zm-55 0h-18v24h18z" fill="#2b3e51"/><path d="m265 407v-27h8v44h-146v-44h8v27h61v-27h8v27z" fill="#fff"/><path d="m289 387h28v37h-4v-33h-24v33h-4v-37z" fill="#e94b35"/><path d="m173 383h18v24h-18zm55 0h18v24h-18zm64 12h18v29h-18z" fill="#2b3e51"/><path d="m301 349h194l20 31h-428l20-31z" fill="#e94b35"/><path d="m107 311h388v38h-388z" fill="#fff"/><path d="m301 318h8v25h-16v-25zm-48 0h18v25h-18zm-40 0h18v25h-18zm-40 0h18v25h-18zm-40 0h18v25h-18zm216 0v25h-18v-25zm40 0v25h-18v-25zm40 0v25h-18v-25zm40 0v25h-18v-25z" fill="#33495f"/></g></svg>