<svg height="600" width="600" xmlns="http://www.w3.org/2000/svg" xmlns:xlink="http://www.w3.org/1999/xlink"><defs><circle id="a" cx="225" cy="225" r="225"/><path id="b" d="m0 0h125.161v20.383h-125.161z"/><mask id="c" fill="#fff"><use fill="#fff" fill-rule="evenodd" xlink:href="#a"/></mask><mask id="d" fill="#fff"><use fill="#fff" fill-rule="evenodd" xlink:href="#b"/></mask><mask id="e" fill="#fff"><path d="m0 7.28c0-4.02 3.258-7.28 7.277-7.28a7.278 7.278 0 0 1 7.277 7.28v16.015h-14.554z" fill="#fff" fill-rule="evenodd"/></mask><mask id="f" fill="#fff"><path d="m0 7.28c0-4.02 3.258-7.28 7.277-7.28a7.278 7.278 0 0 1 7.277 7.28v16.015h-14.554z" fill="#fff" fill-rule="evenodd"/></mask><mask id="g" fill="#fff"><path d="m0 7.28c0-4.02 3.258-7.28 7.277-7.28a7.278 7.278 0 0 1 7.277 7.28v16.015h-14.554z" fill="#fff" fill-rule="evenodd"/></mask><mask id="h" fill="#fff"><path d="m0 7.28c0-4.02 3.258-7.28 7.277-7.28a7.278 7.278 0 0 1 7.277 7.28v16.015h-14.554z" fill="#fff" fill-rule="evenodd"/></mask><mask id="i" fill="#fff"><path d="m0 7.28c0-4.02 3.258-7.28 7.277-7.28a7.278 7.278 0 0 1 7.277 7.28v16.015h-14.554z" fill="#fff" fill-rule="evenodd"/></mask></defs><g fill="none" fill-rule="evenodd"><g transform="translate(76 75)"><use fill="#2c97de" xlink:href="#a"/><path d="m28 349h397v131h-397z" fill="#1fce6d" mask="url(#c)"/><g fill="#fff" transform="translate(3 40)"><path d="m16 37h80v22h-80z"/><circle cx="95" cy="45" r="14"/><circle cx="15.5" cy="43.5" r="15.5"/><circle cx="69.5" cy="29.5" r="29.5"/><circle cx="32.5" cy="31.5" r="11.5"/></g><g fill="#fff" transform="translate(341 69)"><path d="m16 37h80v22h-80z"/><circle cx="95" cy="45" r="14"/><circle cx="15.5" cy="43.5" r="15.5"/><circle cx="69.5" cy="29.5" r="29.5"/><circle cx="32.5" cy="31.5" r="11.5"/></g><g fill="#ffe500" stroke="#fff" stroke-linecap="round" stroke-linejoin="round" stroke-width="5"><path d="m36.314 1.5h65.172m-101.486 0h12.283" transform="translate(36 112)"/><path d="m26.314 1.5h65.172m-91.486 0h12.283" transform="translate(325 141)"/><path d="m12.592 1h46.045m-58.194 0h2.235" transform="translate(312 26)"/></g></g><g transform="translate(138 44)"><path d="m11.643 301.379h302.714v14.559h-302.714z" fill="#c23824"/><path d="m152.813 171.8c32.954 0 59.67-34.547 59.67-77.164s-39.97-77.165-59.67-77.165c-19.702 0-59.67 34.548-59.67 77.165s26.715 77.165 59.67 77.165z" fill="#fff"/><g transform="translate(90.232 126.667)"><use fill="#fff" xlink:href="#b"/><g mask="url(#d)"><g transform="translate(52.393 7.28)"><path d="m-2.91 0h2.91v2.912h-2.91zm0 5.824h2.91v2.912h-2.91zm0 5.824h2.91v2.911h-2.91zm2.91-8.736h2.91v2.912h-2.91zm0 5.824h2.91v2.912h-2.91zm0 5.823h2.91v2.912h-2.91v-2.911zm-2.91 2.912h2.91v2.912h-2.91zm-2.911-14.56h2.91v2.913h-2.91v-2.912zm0 5.825h2.91v2.912h-2.91zm0 5.823h2.91v2.912h-2.91v-2.911zm11.641-11.647h2.911v2.912h-2.91v-2.912zm0 5.824h2.911v2.912h-2.91v-2.912zm0 5.823h2.911v2.912h-2.91v-2.911zm-2.91 2.912h2.91v2.912h-2.91zm14.553-14.56h2.911v2.913h-2.91v-2.912zm0 5.825h2.911v2.912h-2.91v-2.912zm0 5.823h2.911v2.912h-2.91v-2.911zm-2.91 2.912h2.91v2.912h-2.91zm-2.911-14.56h2.91v2.913h-2.91v-2.912zm0 5.825h2.91v2.912h-2.91zm0 5.823h2.91v2.912h-2.91v-2.911zm-2.91 2.912h2.91v2.912h-2.91zm-5.822-17.471h2.91v2.912h-2.91zm0 5.824h2.91v2.912h-2.91zm0 5.824h2.91v2.911h-2.91zm5.822-11.648h2.91v2.912h-2.91zm0 5.824h2.91v2.912h-2.91zm0 5.824h2.91v2.911h-2.91zm5.822-11.648h2.91v2.912h-2.91zm0 5.824h2.91v2.912h-2.91zm0 5.824h2.91v2.911h-2.91z" fill="#2b3e51" mask="url(#e)" transform="matrix(0 1 -1 0 20.379 5.827)"/><path d="m17.464 10.192c0-4.02-3.258-7.28-7.276-7.28a7.278 7.278 0 0 0 -7.277 7.28v16.015h-2.911v-18.927h.422c1.252-4.21 5.15-7.28 9.765-7.28s8.514 3.07 9.766 7.28h.422v18.927h-2.91v-16.015z" fill="#f2c500"/></g></g><g mask="url(#d)"><g transform="translate(84.41 7.28)"><path d="m-2.91 0h2.91v2.912h-2.91zm0 5.824h2.91v2.912h-2.91zm0 5.824h2.91v2.911h-2.91zm2.91-8.736h2.91v2.912h-2.91zm0 5.824h2.91v2.912h-2.91zm0 5.823h2.91v2.912h-2.91v-2.911zm-2.91 2.912h2.91v2.912h-2.91zm-2.911-14.56h2.91v2.913h-2.91v-2.912zm0 5.825h2.91v2.912h-2.91zm0 5.823h2.91v2.912h-2.91v-2.911zm11.641-11.647h2.911v2.912h-2.91v-2.912zm0 5.824h2.911v2.912h-2.91v-2.912zm0 5.823h2.911v2.912h-2.91v-2.911zm-2.91 2.912h2.91v2.912h-2.91zm14.553-14.56h2.911v2.913h-2.91v-2.912zm0 5.825h2.911v2.912h-2.91v-2.912zm0 5.823h2.911v2.912h-2.91v-2.911zm-2.91 2.912h2.91v2.912h-2.91zm-2.911-14.56h2.91v2.913h-2.91v-2.912zm0 5.825h2.91v2.912h-2.91zm0 5.823h2.91v2.912h-2.91v-2.911zm-2.91 2.912h2.91v2.912h-2.91zm-5.822-17.471h2.91v2.912h-2.91zm0 5.824h2.91v2.912h-2.91zm0 5.824h2.91v2.911h-2.91zm5.822-11.648h2.91v2.912h-2.91zm0 5.824h2.91v2.912h-2.91zm0 5.824h2.91v2.911h-2.91zm5.822-11.648h2.91v2.912h-2.91zm0 5.824h2.91v2.912h-2.91zm0 5.824h2.91v2.911h-2.91z" fill="#2b3e51" mask="url(#f)" transform="matrix(0 1 -1 0 20.379 5.827)"/><path d="m17.464 10.192c0-4.02-3.258-7.28-7.276-7.28a7.278 7.278 0 0 0 -7.277 7.28v16.015h-2.911v-18.927h.422c1.252-4.21 5.15-7.28 9.765-7.28s8.514 3.07 9.766 7.28h.422v18.927h-2.91v-16.015z" fill="#f2c500"/></g></g><g mask="url(#d)"><g transform="translate(20.375 7.28)"><path d="m-2.91 0h2.91v2.912h-2.91zm0 5.824h2.91v2.912h-2.91zm0 5.824h2.91v2.911h-2.91zm2.91-8.736h2.91v2.912h-2.91zm0 5.824h2.91v2.912h-2.91zm0 5.823h2.91v2.912h-2.91v-2.911zm-2.91 2.912h2.91v2.912h-2.91zm-2.911-14.56h2.91v2.913h-2.91v-2.912zm0 5.825h2.91v2.912h-2.91zm0 5.823h2.91v2.912h-2.91v-2.911zm11.641-11.647h2.911v2.912h-2.91v-2.912zm0 5.824h2.911v2.912h-2.91v-2.912zm0 5.823h2.911v2.912h-2.91v-2.911zm-2.91 2.912h2.91v2.912h-2.91zm14.553-14.56h2.911v2.913h-2.91v-2.912zm0 5.825h2.911v2.912h-2.91v-2.912zm0 5.823h2.911v2.912h-2.91v-2.911zm-2.91 2.912h2.91v2.912h-2.91zm-2.911-14.56h2.91v2.913h-2.91v-2.912zm0 5.825h2.91v2.912h-2.91zm0 5.823h2.91v2.912h-2.91v-2.911zm-2.91 2.912h2.91v2.912h-2.91zm-5.822-17.471h2.91v2.912h-2.91zm0 5.824h2.91v2.912h-2.91zm0 5.824h2.91v2.911h-2.91zm5.822-11.648h2.91v2.912h-2.91zm0 5.824h2.91v2.912h-2.91zm0 5.824h2.91v2.911h-2.91zm5.822-11.648h2.91v2.912h-2.91zm0 5.824h2.91v2.912h-2.91zm0 5.824h2.91v2.911h-2.91z" fill="#2b3e51" mask="url(#g)" transform="matrix(0 1 -1 0 20.379 5.827)"/><path d="m17.464 10.192c0-4.02-3.258-7.28-7.276-7.28a7.278 7.278 0 0 0 -7.277 7.28v16.015h-2.911v-18.927h.422c1.252-4.21 5.15-7.28 9.765-7.28s8.514 3.07 9.766 7.28h.422v18.927h-2.91v-16.015z" fill="#f2c500"/></g></g><g mask="url(#d)"><g transform="translate(-11.643 7.28)"><path d="m-2.91 0h2.91v2.912h-2.91zm0 5.824h2.91v2.912h-2.91zm0 5.824h2.91v2.911h-2.91zm2.91-8.736h2.91v2.912h-2.91zm0 5.824h2.91v2.912h-2.91zm0 5.823h2.91v2.912h-2.91v-2.911zm-2.91 2.912h2.91v2.912h-2.91zm-2.911-14.56h2.91v2.913h-2.91v-2.912zm0 5.825h2.91v2.912h-2.91zm0 5.823h2.91v2.912h-2.91v-2.911zm11.641-11.647h2.911v2.912h-2.91v-2.912zm0 5.824h2.911v2.912h-2.91v-2.912zm0 5.823h2.911v2.912h-2.91v-2.911zm-2.91 2.912h2.91v2.912h-2.91zm14.553-14.56h2.911v2.913h-2.91v-2.912zm0 5.825h2.911v2.912h-2.91v-2.912zm0 5.823h2.911v2.912h-2.91v-2.911zm-2.91 2.912h2.91v2.912h-2.91zm-2.911-14.56h2.91v2.913h-2.91v-2.912zm0 5.825h2.91v2.912h-2.91zm0 5.823h2.91v2.912h-2.91v-2.911zm-2.91 2.912h2.91v2.912h-2.91zm-5.822-17.471h2.91v2.912h-2.91zm0 5.824h2.91v2.912h-2.91zm0 5.824h2.91v2.911h-2.91zm5.822-11.648h2.91v2.912h-2.91zm0 5.824h2.91v2.912h-2.91zm0 5.824h2.91v2.911h-2.91zm5.822-11.648h2.91v2.912h-2.91zm0 5.824h2.91v2.912h-2.91zm0 5.824h2.91v2.911h-2.91z" fill="#2b3e51" mask="url(#h)" transform="matrix(0 1 -1 0 20.379 5.827)"/><path d="m17.464 10.192c0-4.02-3.258-7.28-7.276-7.28a7.278 7.278 0 0 0 -7.277 7.28v16.015h-2.911v-18.927h.422c1.252-4.21 5.15-7.28 9.765-7.28s8.514 3.07 9.766 7.28h.422v18.927h-2.91v-16.015z" fill="#f2c500"/></g></g><g mask="url(#d)"><g transform="translate(116.429 7.28)"><path d="m-2.91 0h2.91v2.912h-2.91zm0 5.824h2.91v2.912h-2.91zm0 5.824h2.91v2.911h-2.91zm2.91-8.736h2.91v2.912h-2.91zm0 5.824h2.91v2.912h-2.91zm0 5.823h2.91v2.912h-2.91v-2.911zm-2.91 2.912h2.91v2.912h-2.91zm-2.911-14.56h2.91v2.913h-2.91v-2.912zm0 5.825h2.91v2.912h-2.91zm0 5.823h2.91v2.912h-2.91v-2.911zm11.641-11.647h2.911v2.912h-2.91v-2.912zm0 5.824h2.911v2.912h-2.91v-2.912zm0 5.823h2.911v2.912h-2.91v-2.911zm-2.91 2.912h2.91v2.912h-2.91zm14.553-14.56h2.911v2.913h-2.91v-2.912zm0 5.825h2.911v2.912h-2.91v-2.912zm0 5.823h2.911v2.912h-2.91v-2.911zm-2.91 2.912h2.91v2.912h-2.91zm-2.911-14.56h2.91v2.913h-2.91v-2.912zm0 5.825h2.91v2.912h-2.91zm0 5.823h2.91v2.912h-2.91v-2.911zm-2.91 2.912h2.91v2.912h-2.91zm-5.822-17.471h2.91v2.912h-2.91zm0 5.824h2.91v2.912h-2.91zm0 5.824h2.91v2.911h-2.91zm5.822-11.648h2.91v2.912h-2.91zm0 5.824h2.91v2.912h-2.91zm0 5.824h2.91v2.911h-2.91zm5.822-11.648h2.91v2.912h-2.91zm0 5.824h2.91v2.912h-2.91zm0 5.824h2.91v2.911h-2.91z" fill="#2b3e51" mask="url(#i)" transform="matrix(0 1 -1 0 20.379 5.827)"/><path d="m17.464 10.192c0-4.02-3.258-7.28-7.276-7.28a7.278 7.278 0 0 0 -7.277 7.28v16.015h-2.911v-18.927h.422c1.252-4.21 5.15-7.28 9.765-7.28s8.514 3.07 9.766 7.28h.422v18.927h-2.91v-16.015z" fill="#f2c500"/></g></g></g><path d="m90.2321429 106.283525h125.1607141l-2.910714 11.647509h-119.3392859z" fill="#fff"/><path d="m90.2321429 94.6360153h125.1607141l-2.910714 11.6475097h-119.3392859z" fill="#f2c500"/><path d="m84.4107143 117.931034h136.8035717l-5.821429 8.735633h-125.1607141z" fill="#f2c500"/><path d="m69.857 215.479h160.089v85.9h-160.089z" fill="#2b3e51"/><g transform="translate(0 147.05)"><g transform="translate(261.964 29.119)"><path d="m0 11.648h52.393v2.911h-52.393zm0-5.824h58.214v2.912h-58.214zm0-5.824h64.036v2.912h-64.036z" fill="#f2c500"/><path d="m0 8.736h55.304v2.912h-55.304zm0-5.824h61.125v2.912h-61.125zm52.393 40.766v81.533h-8.733v-81.533h-11.642v-29.118h20.375v29.12z" fill="#f59d00"/></g><path d="m64.036 14.559h177.554v14.559h-177.554z" fill="#d55400"/><path d="m241.589 14.559h52.393v139.77h-52.393z" fill="#e87e04"/><path d="m11.643 14.559h52.393v139.77h-52.393z" fill="#e87e04"/><path d="m180.464 154.33v-97.548h-61.124v97.548h-8.732v-125.211h78.59v125.21h-8.733z" fill="#1aaf5d"/><path d="m176.098 99.004c0-14.474-11.728-26.207-26.196-26.207s-26.197 11.733-26.197 26.207h-4.366v-42.222h61.125v42.222z" fill="#f2c500"/><path d="m148.446 132.49v-2.911h-23.285v18.927h23.285v-13.104h-23.285v-2.912zm2.911 2.912v13.104h23.286v-18.927h-23.286v2.911h23.286v2.912zm-26.196 16.016v2.912h-2.911v-24.751h-2.91v-2.912h61.124v2.912h-2.91v24.75h-2.911v-2.911h-23.286v2.912h-2.91v-2.912h-23.287zm4.366-16.016h2.91v13.104h-2.91zm5.821 0h2.91v13.104h-2.91zm5.822 0h2.91v13.104h-2.91zm14.553 0h2.91v13.104h-2.91zm5.822 0h2.91v13.104h-2.91zm5.821 0h2.91v13.104h-2.91zm46.571 0v13.104h-2.91v-13.104h-2.91v13.104h-2.912v-13.104h-2.91v13.104h-2.911v-13.104h-4.366v-2.912h23.286v2.912zm-18.92 13.104h23.287v-18.927h-23.286v18.927zm0 2.912v2.912h-2.91v-24.751h-2.91v-2.912h34.928v2.912h-2.91v24.75h-2.911v-2.911h-23.286z" fill="#fff"/><path d="m224.125 43.678h17.464v110.652h-17.464v-81.533h-34.929v-29.119zm-160.09 0h46.572v110.652h-46.571v-110.652zm11.645 27.663v26.207h32.017v-26.208h-32.017z" fill="#f59d00"/><g transform="translate(49.482 29.119)"><path d="m11.643 11.648h49.482v2.912h-49.482z" fill="#f2c500"/><path d="m8.732 8.736h52.393v2.912h-52.393z" fill="#f59d00"/><path d="m5.821 5.824h55.304v2.912h-55.304z" fill="#f2c500"/><path d="m2.911 2.912h58.214v2.912h-58.214z" fill="#f59d00"/><path d="m0 0h61.125v2.912h-61.125z" fill="#f2c500"/></g><g transform="translate(189.196 29.119)"><path d="m0 11.648h55.304v2.911h-55.304zm0-5.824h61.125v2.912h-61.125zm0-5.824h66.946v2.912h-66.946z" fill="#f2c500"/><path d="m0 8.736h58.214v2.912h-58.214zm0-5.824h64.036v2.912h-64.036z" fill="#f59d00"/></g><g transform="translate(98.964 14.56)"><path d="m61.125 0h40.75v2.912h-101.875v-2.912zm0 5.824h34.929v2.912h-90.234v-2.912h55.304zm0 5.824h29.107v2.911h-78.589v-2.911z" fill="#f2c500"/><path d="m61.125 2.912h37.84v2.912h-96.055v-2.912h58.214zm0 5.824h32.018v2.912h-84.411v-2.912z" fill="#f59d00"/></g><path d="m64.036 11.648h177.553v2.911h-177.553zm0-5.824h177.553v2.912h-177.553zm0-5.824h177.553v2.912h-177.553z" fill="#f59d00"/><path d="m64.036 8.736h177.553v2.912h-177.553zm0-5.824h177.553v2.912h-177.553z" fill="#e87e04"/><path d="m11.643 11.648h52.393v2.911h-52.393zm-5.823-5.824h64.036v2.912h-64.035v-2.912zm-5.82-5.824h75.679v2.912h-75.679z" fill="#f2c500"/><path d="m8.732 8.736h58.214v2.912h-58.214zm-5.821-5.824h69.857v2.912h-69.858v-2.912z" fill="#f59d00"/><g transform="translate(229.946)"><path d="m11.643 11.648h52.393v2.911h-52.393zm-5.823-5.824h64.036v2.912h-64.035v-2.912zm-5.82-5.824h75.679v2.912h-75.679z" fill="#f2c500"/><path d="m8.732 8.736h58.214v2.912h-58.214zm-5.821-5.824h69.857v2.912h-69.858v-2.912z" fill="#f59d00"/></g></g><g transform="translate(10.188 42.222)"><path d="m14.554 62.605h27.652v42.222h-27.652z" fill="#2b3e51"/><path d="m34.929 75.709c0-4.02-3.258-7.28-7.277-7.28a7.278 7.278 0 0 0 -7.277 7.28v29.119h-14.554v-45.135h.688a55.093 55.093 0 0 1 -.688-8.735c0-19.298 14.623-34.943 21.83-34.943 7.208 0 21.831 15.645 21.831 34.943 0 3.016-.239 5.943-.688 8.735h.688v45.135h-14.552v-29.12z" fill="#fff"/><g fill="#fff" transform="translate(17.464 52.414)"><path d="m23.29 2.916v2.91h-2.912v-2.91zm-5.824 0v2.91h-2.912v-2.91zm-5.824 0v2.91h-2.912v-2.91zm8.736 2.91v2.911h-2.912v-2.91h2.912zm-5.824 0v2.911h-2.912v-2.91h2.912zm-5.824 0v2.911h-2.91v-2.91h2.91zm-2.91-2.909v2.91h-2.913v-2.91h2.912zm14.558-2.911v2.91h-2.912v-2.91zm-5.824 0v2.91h-2.912v-2.91zm-5.824 0v2.91h-2.91v-2.91zm11.648 11.642v2.91h-2.912v-2.91zm-5.824 0v2.91h-2.912v-2.91zm-5.824 0v2.91h-2.91v-2.91zm-2.91-2.91v2.91h-2.913v-2.91h2.912zm14.558 14.552v2.91h-2.912v-2.91zm-5.824 0v2.91h-2.912v-2.91zm-5.824 0v2.91h-2.91v-2.91zm-2.91-2.91v2.91h-2.913v-2.91h2.912zm14.559-2.911v2.91h-2.912v-2.91zm-5.824 0v2.91h-2.912v-2.91zm-5.824 0v2.91h-2.911v-2.91h2.91zm-2.911-2.91v2.91h-2.913v-2.91h2.912zm17.47-5.822v2.911h-2.911v-2.91h2.912zm-5.823 0v2.911h-2.912v-2.91h2.912zm-5.824 0v2.911h-2.913v-2.91h2.912zm11.647 5.823v2.91h-2.912v-2.91zm-5.824 0v2.91h-2.912v-2.91zm-5.824 0v2.91h-2.912v-2.91zm11.648 5.82v2.91h-2.912v-2.91zm-5.824 0v2.91h-2.912v-2.91zm-5.824 0v2.91h-2.912v-2.91z"/><path d="m20.38 29.123v2.91h-2.913v-2.91h2.912zm-5.825 0v2.91h-2.912v-2.91zm-5.823 0v2.91h-2.912v-2.91zm8.735 2.91v2.911h-2.912v-2.91h2.912zm-5.824 0v2.911h-2.911v-2.91h2.911zm-5.823 0v2.911h-2.912v-2.91h2.912zm-2.912-2.91v2.91h-2.912v-2.91zm14.56-2.91v2.91h-2.913v-2.91h2.912zm-5.825 0v2.91h-2.911v-2.91zm-5.823 0v2.91h-2.912v-2.91zm11.647 11.642v2.91h-2.912v-2.91zm-5.824 0v2.91h-2.911v-2.91zm-5.823 0v2.91h-2.912v-2.91zm-2.912-2.91v2.91h-2.912v-2.91zm14.56 14.553v2.91h-2.913v-2.91h2.912zm-5.825 0v2.91h-2.911v-2.91zm-5.823 0v2.91h-2.912v-2.91zm-2.912-2.91v2.91h-2.912v-2.91zm14.56-2.912v2.911h-2.913v-2.91h2.912zm-5.825 0v2.911h-2.911v-2.91h2.911zm-5.823 0v2.911h-2.912v-2.91h2.912zm-2.912-2.91v2.91h-2.912v-2.91zm17.471-5.822v2.911h-2.912v-2.91h2.912zm-5.824 0v2.911h-2.912v-2.91h2.912zm-5.823 0v2.911h-2.912v-2.91h2.912zm11.647 5.822v2.91h-2.912v-2.91zm-5.824 0v2.91h-2.912v-2.91zm-5.823 0v2.91h-2.912v-2.91zm11.647 5.821v2.91h-2.912v-2.91zm-5.824 0v2.91h-2.912v-2.91zm-5.823 0v2.91h-2.912v-2.91z"/></g><g fill="#f2c500"><path d="m21.83 16.015h11.643v2.912h-11.643z"/><path d="m23.286 13.103h8.732v2.912h-8.732z"/><path d="m0 50.9578544h55.3035714l-5.8214285 8.7356322h-43.66071433z"/><path d="m27.6517857 0 1.4553572 13.1034483h-2.9107143z"/><path d="m34.929 75.709c0-4.02-3.258-7.28-7.277-7.28a7.278 7.278 0 0 0 -7.277 7.28v29.119h-2.91v-32.031h.421c1.253-4.21 5.15-7.28 9.766-7.28 4.615 0 8.513 3.07 9.765 7.28h.422v32.03h-2.91v-29.117z"/></g></g><g transform="translate(240.134 42.222)"><path d="m14.554 62.605h27.652v42.222h-27.652z" fill="#2b3e51"/><path d="m34.929 75.709c0-4.02-3.258-7.28-7.277-7.28a7.278 7.278 0 0 0 -7.277 7.28v29.119h-14.554v-45.135h.688a55.093 55.093 0 0 1 -.688-8.735c0-19.298 14.623-34.943 21.83-34.943 7.208 0 21.831 15.645 21.831 34.943 0 3.016-.239 5.943-.688 8.735h.688v45.135h-14.552v-29.12z" fill="#fff"/><g fill="#fff" transform="translate(17.464 52.414)"><path d="m23.29 2.916v2.91h-2.912v-2.91zm-5.824 0v2.91h-2.912v-2.91zm-5.824 0v2.91h-2.912v-2.91zm8.736 2.91v2.911h-2.912v-2.91h2.912zm-5.824 0v2.911h-2.912v-2.91h2.912zm-5.824 0v2.911h-2.91v-2.91h2.91zm-2.91-2.909v2.91h-2.913v-2.91h2.912zm14.558-2.911v2.91h-2.912v-2.91zm-5.824 0v2.91h-2.912v-2.91zm-5.824 0v2.91h-2.91v-2.91zm11.648 11.642v2.91h-2.912v-2.91zm-5.824 0v2.91h-2.912v-2.91zm-5.824 0v2.91h-2.91v-2.91zm-2.91-2.91v2.91h-2.913v-2.91h2.912zm14.558 14.552v2.91h-2.912v-2.91zm-5.824 0v2.91h-2.912v-2.91zm-5.824 0v2.91h-2.91v-2.91zm-2.91-2.91v2.91h-2.913v-2.91h2.912zm14.559-2.911v2.91h-2.912v-2.91zm-5.824 0v2.91h-2.912v-2.91zm-5.824 0v2.91h-2.911v-2.91h2.91zm-2.911-2.91v2.91h-2.913v-2.91h2.912zm17.47-5.822v2.911h-2.911v-2.91h2.912zm-5.823 0v2.911h-2.912v-2.91h2.912zm-5.824 0v2.911h-2.913v-2.91h2.912zm11.647 5.823v2.91h-2.912v-2.91zm-5.824 0v2.91h-2.912v-2.91zm-5.824 0v2.91h-2.912v-2.91zm11.648 5.82v2.91h-2.912v-2.91zm-5.824 0v2.91h-2.912v-2.91zm-5.824 0v2.91h-2.912v-2.91z"/><path d="m20.38 29.123v2.91h-2.913v-2.91h2.912zm-5.825 0v2.91h-2.912v-2.91zm-5.823 0v2.91h-2.912v-2.91zm8.735 2.91v2.911h-2.912v-2.91h2.912zm-5.824 0v2.911h-2.911v-2.91h2.911zm-5.823 0v2.911h-2.912v-2.91h2.912zm-2.912-2.91v2.91h-2.912v-2.91zm14.56-2.91v2.91h-2.913v-2.91h2.912zm-5.825 0v2.91h-2.911v-2.91zm-5.823 0v2.91h-2.912v-2.91zm11.647 11.642v2.91h-2.912v-2.91zm-5.824 0v2.91h-2.911v-2.91zm-5.823 0v2.91h-2.912v-2.91zm-2.912-2.91v2.91h-2.912v-2.91zm14.56 14.553v2.91h-2.913v-2.91h2.912zm-5.825 0v2.91h-2.911v-2.91zm-5.823 0v2.91h-2.912v-2.91zm-2.912-2.91v2.91h-2.912v-2.91zm14.56-2.912v2.911h-2.913v-2.91h2.912zm-5.825 0v2.911h-2.911v-2.91h2.911zm-5.823 0v2.911h-2.912v-2.91h2.912zm-2.912-2.91v2.91h-2.912v-2.91zm17.471-5.822v2.911h-2.912v-2.91h2.912zm-5.824 0v2.911h-2.912v-2.91h2.912zm-5.823 0v2.911h-2.912v-2.91h2.912zm11.647 5.822v2.91h-2.912v-2.91zm-5.824 0v2.91h-2.912v-2.91zm-5.823 0v2.91h-2.912v-2.91zm11.647 5.821v2.91h-2.912v-2.91zm-5.824 0v2.91h-2.912v-2.91zm-5.823 0v2.91h-2.912v-2.91z"/></g><g fill="#f2c500"><path d="m21.83 16.015h11.643v2.912h-11.643z"/><path d="m23.286 13.103h8.732v2.912h-8.732z"/><path d="m0 50.9578544h55.3035714l-5.8214285 8.7356322h-43.66071433z"/><path d="m27.6517857 0 1.4553572 13.1034483h-2.9107143z"/><path d="m34.929 75.709c0-4.02-3.258-7.28-7.277-7.28a7.278 7.278 0 0 0 -7.277 7.28v29.119h-2.91v-32.031h.421c1.253-4.21 5.15-7.28 9.766-7.28 4.615 0 8.513 3.07 9.765 7.28h.422v32.03h-2.91v-29.117z"/></g></g><path d="m11.643 315.939h14.553v64.061h-14.553zm267.786 0h14.553v64.061h-14.552v-64.061zm-133.893 0h14.553v64.061h-14.553zm66.946 0h14.554v64.061h-14.554zm-133.893 0h14.554v64.061h-14.554z" fill="#2b3e51"/><path d="m75.679 218.39h32.017v26.208h-32.016v-26.208zm2.91 2.913v20.383h26.197v-20.383z" fill="#fff"/><path d="m81.5 221.303h2.91v2.912h-2.91zm0 5.823h2.91v2.912h-2.91zm0 5.824h2.91v2.912h-2.91zm2.91-8.735h2.911v2.911h-2.91v-2.911zm0 5.823h2.911v2.912h-2.91v-2.912zm0 5.824h2.911v2.912h-2.91v-2.912zm-2.91 2.912h2.91v2.912h-2.91zm-2.91-14.56h2.91v2.912h-2.91v-2.911zm0 5.824h2.91v2.912h-2.91zm0 5.824h2.91v2.912h-2.91zm11.642-11.647h2.91v2.911h-2.91zm0 5.823h2.91v2.912h-2.91zm0 5.824h2.91v2.912h-2.91zm-2.91 2.912h2.91v2.912h-2.91zm14.553-14.56h2.91v2.912h-2.91v-2.911zm0 5.824h2.91v2.912h-2.91zm0 5.824h2.91v2.912h-2.91zm-2.91 2.912h2.91v2.912h-2.91zm-2.911-14.56h2.91v2.912h-2.91v-2.911zm0 5.824h2.91v2.912h-2.91zm0 5.824h2.91v2.912h-2.91zm-2.911 2.912h2.91v2.912h-2.91zm-5.822-17.471h2.911v2.912h-2.91v-2.912zm0 5.823h2.911v2.912h-2.91v-2.912zm0 5.824h2.911v2.912h-2.91v-2.912zm5.822-11.647h2.91v2.912h-2.91zm0 5.823h2.91v2.912h-2.91zm0 5.824h2.91v2.912h-2.91zm5.821-11.647h2.911v2.912h-2.91v-2.912zm0 5.823h2.911v2.912h-2.91v-2.912zm0 5.824h2.911v2.912h-2.91v-2.912z" fill="#fff"/><g fill="#f2c500" transform="translate(146.991)"><path d="m0 16.015h11.643v2.912h-11.643z"/><path d="m1.455 13.103h8.732v2.912h-8.732z"/><path d="m5.82142857 0 1.45535714 13.1034483h-2.91071428z"/></g></g></g></svg>