<svg height="600" width="600" xmlns="http://www.w3.org/2000/svg" xmlns:xlink="http://www.w3.org/1999/xlink"><defs><circle id="a" cx="225" cy="225" r="225"/><ellipse id="b" cx="34" cy="34.093" rx="34" ry="34.093"/><mask id="c" fill="#fff"><use fill-rule="evenodd" xlink:href="#a"/></mask><mask id="d" fill="#fff"><use fill-rule="evenodd" xlink:href="#b"/></mask></defs><g fill="none" fill-rule="evenodd"><g transform="translate(76 75)"><use fill="#2c97de" xlink:href="#a"/><path d="M28 349h397v131H28z" fill="#1fce6d" mask="url(#c)"/></g><g fill="#fff"><path d="M95 152h80v22H95z"/><circle cx="174" cy="160" r="14"/><circle cx="94.5" cy="158.5" r="15.5"/><circle cx="148.5" cy="144.5" r="29.5"/><circle cx="111.5" cy="146.5" r="11.5"/></g><g fill="#fff"><path d="M433 181h80v22h-80z"/><circle cx="512" cy="189" r="14"/><circle cx="432.5" cy="187.5" r="15.5"/><circle cx="486.5" cy="173.5" r="29.5"/><circle cx="449.5" cy="175.5" r="11.5"/></g><g fill="#ffe500" stroke="#fff" stroke-linecap="round" stroke-linejoin="round" stroke-width="5"><path d="M148.314 188.5h65.172M112 188.5h12.283"/><path d="M427.314 217.5h65.172m-91.486 0h12.283"/><g><path d="M400.592 102h46.045m-58.194 0h2.235"/></g></g><g transform="translate(232 20)"><g fill="#bdc3c7"><path d="M34 242.06h12.75v59.662H34zm0 59.662h22.1L22.1 404H0zm45.9 0H102L136 404h-22.1zm9.35-59.663H102v59.663H89.25z"/><path d="M15.3 242.06h22.1v34.092zm83.3 0h22.1l-22.1 34.092z"/></g><g transform="translate(34 214.785)"><use fill="#f2c500" xlink:href="#b"/><path d="M0 27.274h68v13.637H0zm0-13.637h68v6.819H0z" fill="#2b3e51" mask="url(#d)"/></g><path d="M51.85 109.097h32.3v84.38h-32.3z" fill="#ecf0f1"/><path d="M51.85 188.363h32.3l5.1 34.093h-42.5z" fill="#fff"/><path d="M46.75 276.152h42.5V404h-42.5z" fill="#ecf0f1"/><path d="M44.2 296.608h-1.7v-5.114h-1.7v-5.114h54.4v5.114h-1.7v5.114h-1.7v5.114H44.2z" fill="#bdc3c7"/><path d="M40.8 286.38h54.4v1.704H40.8zm1.7 5.114h51v1.704h-51zm1.7 5.114h47.6v1.704H44.2z" fill="#ecf0f1"/><path d="M65.45 30.684h5.1v20.455h-5.1z" fill="#fff"/><path d="M66.3 15.342h3.4v15.342h-3.4z" fill="#ecf0f1"/><path d="M67.15 0h1.7v15.342h-1.7z" fill="#fff"/><ellipse cx="68" cy="66.481" fill="#f2c500" rx="18.7" ry="18.751"/><path d="M65.45 235.24h5.1v40.912h-5.1z" fill="#fff"/><path d="M65.45 276.152h5.1V404h-5.1z" fill="#33495f"/><path d="M65.45 109.097h5.1v79.266h-5.1z" fill="#bdc3c7"/><path d="M65.45 188.363h5.1l3.4 34.093h-11.9z" fill="#ecf0f1"/><path d="M43.35 98.87h49.3l-8.5 10.227h-32.3z" fill="#f2c500"/><path d="M43.35 92.05h49.3v6.82h-49.3z" fill="#2b3e51"/><path d="M34.85 85.232h66.3l-8.5 6.819h-49.3z" fill="#f2c500"/><path d="M34.85 80.118h66.3v5.114h-66.3z" fill="#fff"/><path d="M51.85 76.709h32.3v3.41h-32.3z" fill="#ecf0f1"/></g></g></svg>