<svg width="600" height="600" xmlns="http://www.w3.org/2000/svg" xmlns:xlink="http://www.w3.org/1999/xlink"><defs><circle id="a" cx="225" cy="225" r="225"/></defs><g fill="none" fill-rule="evenodd"><g transform="translate(76 75)"><mask id="b" fill="#fff"><use xlink:href="#a"/></mask><use fill="#2C97DE" xlink:href="#a"/><path fill="#1FCE6D" mask="url(#b)" d="M28 349h397v131H28z"/><g transform="translate(3 40)" fill="#FFF"><path d="M16 37h80v22H16z"/><circle cx="95" cy="45" r="14"/><circle cx="15.5" cy="43.5" r="15.5"/><circle cx="69.5" cy="29.5" r="29.5"/><circle cx="32.5" cy="31.5" r="11.5"/></g><g transform="translate(341 69)" fill="#FFF"><path d="M16 37h80v22H16z"/><circle cx="95" cy="45" r="14"/><circle cx="15.5" cy="43.5" r="15.5"/><circle cx="69.5" cy="29.5" r="29.5"/><circle cx="32.5" cy="31.5" r="11.5"/></g><path d="M72.314 113.5h65.172M36 113.5h12.283" fill="#FFE500" stroke="#FFF" stroke-linecap="round" stroke-linejoin="round" stroke-width="5"/><path d="M351.314 142.5h65.172m-91.486 0h12.283" fill="#FFE500" stroke="#FFF" stroke-linecap="round" stroke-linejoin="round" stroke-width="5"/><path d="M324.592 27h46.045m-58.194 0h2.235" fill="#FFE500" stroke="#FFF" stroke-linecap="round" stroke-linejoin="round" stroke-width="5"/></g><path fill="#2B3E51" d="M295.806 61.674h11.871v22.737h-11.871z"/><path fill="#F2C500" d="M289.061 28.385L314.105 14l-3.078 14.313 6.296 11.061-3.218 22.3-25.308 5.135-4.12-24.806z"/><path fill="#ECF0F1" d="M263.161 289.045h75.677v4.401h-75.677z"/><path fill="#FFF" d="M283.194 66.809l35.612 7.334v214.902h-35.612zM255 357.989h92v4.401h-92z"/><path fill="#ECF0F1" d="M262.419 362.39h76.419v13.202h-76.419z"/><path fill="#C23824" d="M268.355 293.445h65.29v5.868h-65.29z"/><path d="M333.645 305.18h-65.29c-1.64 0-2.968-1.313-2.968-2.933 0-1.62 1.329-2.934 2.968-2.934h65.29c1.64 0 2.968 1.314 2.968 2.934s-1.329 2.934-2.968 2.934z" fill="#E94B35"/><path fill="#C23824" d="M268.355 375.592h65.29l7.42 48.408h-80.13z"/><path d="M331.42 280.243v8.802h-1.485v-8.802H324v8.802h-1.484v-8.802h-5.935v8.802h-1.484v-8.802h-5.937v8.802h-1.484v-8.802h-5.935v8.802h-1.484v-8.802h-5.935v8.802h-1.484v-8.802h-5.936v8.802h-1.482v-8.802h-5.935v8.802H278v-8.802h-5.935v8.802h-1.485v-8.802h-5.935v8.802h-1.484v-10.269h75.679v10.269h-1.484v-8.802h-5.936z" fill="#2B3E51"/><path d="M341.065 375.592c-13.523 0-24.484 10.837-24.484 24.204C316.58 413.164 327.542 424 341.065 424v-3.667c-11.474 0-20.775-9.195-20.775-20.537 0-11.342 9.301-20.537 20.775-20.537v-3.667zm-80.13 0c13.523 0 24.484 10.837 24.484 24.204.001 13.368-10.961 24.204-24.484 24.204v-3.667c11.474 0 20.775-9.195 20.775-20.537 0-11.342-9.301-20.537-20.775-20.537v-3.667z" fill="#FFF"/><path fill="#C23824" d="M268.355 305.18h65.29v52.809h-65.29z"/><path fill="#FFF" d="M299.516 305.18h2.968l-7.42 52.809h-2.967zm-16.322 0h2.967l-7.419 52.809h-2.968z"/><path fill="#FFF" d="M299.516 305.18h2.968l7.42 52.809h-2.968zm-15.58 0h2.967l7.42 52.809h-2.968zm46.742 0h2.967l-7.419 52.809h-2.968z"/><path fill="#FFF" d="M314.355 305.18h2.968l-7.42 52.809h-2.967z"/><path fill="#FFF" d="M315.097 305.18h2.968l7.419 52.809h-2.968zm-46.742 0h2.968l7.42 52.809h-2.969z"/></g></svg>