<svg height="600" width="600" xmlns="http://www.w3.org/2000/svg" xmlns:xlink="http://www.w3.org/1999/xlink"><defs><ellipse id="a" cx="225" cy="225.5" rx="225" ry="225.5"/><mask id="b" fill="#fff"><use fill="#fff" fill-rule="evenodd" xlink:href="#a"/></mask></defs><g fill="none" fill-rule="evenodd"><g transform="translate(76 75)"><use fill="#2c97de" xlink:href="#a"/><path d="m28 349.776h397v131.291h-397z" fill="#1fce6d" mask="url(#b)"/><g fill="#fff" transform="translate(3 40.089)"><path d="m16 37.082h80v22.049h-80z"/><ellipse cx="95" cy="45.1" rx="14" ry="14.031"/><ellipse cx="15.5" cy="43.597" rx="15.5" ry="15.534"/><ellipse cx="69.5" cy="29.566" rx="29.5" ry="29.566"/><ellipse cx="32.5" cy="31.57" rx="11.5" ry="11.526"/></g><g fill="#fff" transform="translate(341 69.154)"><path d="m16 37.082h80v22.049h-80z"/><ellipse cx="95" cy="45.1" rx="14" ry="14.031"/><ellipse cx="15.5" cy="43.597" rx="15.5" ry="15.534"/><ellipse cx="69.5" cy="29.566" rx="29.5" ry="29.566"/><ellipse cx="32.5" cy="31.57" rx="11.5" ry="11.526"/></g><g fill="#ffe500" stroke="#fff" stroke-linecap="round" stroke-linejoin="round" stroke-width="5"><path d="m36.314 1.503h65.172m-101.486 0h12.283" transform="translate(36 112.249)"/><path d="m26.314 1.503h65.172m-91.486 0h12.283" transform="translate(325 141.314)"/><path d="m12.592 1.002h46.045m-58.194 0h2.235" transform="translate(312 26.058)"/></g></g><g transform="translate(248 23)"><g transform="translate(14.722 11.754)"><path d="m0 10.5789474 38.2777778 20.7228447 38.2777778-20.7228447-11.7777778 35.2631579h-53z" fill="#2b3e51"/><path d="m11.778 45.842h53v32.912h-53z" fill="#ecf0f1"/><path d="m2.944 272.702h70.667v58.772h-70.667z" fill="#fff"/><path d="m5.889 208.053h64.778v58.772h-64.778z" fill="#fff"/><path d="m8.833 143.404h58.889v58.772h-58.889z" fill="#fff"/><path d="m11.778 78.754h53v58.772h-53z" fill="#fff"/><g fill="#ecf0f1"><path d="m1.767 266.825h73.022v5.877h-73.022z"/><path d="m1.767 202.175h73.022v5.877h-73.022z"/><path d="m4.711 137.526h67.133v5.877h-67.133z"/><path d="m7.656 72.877h61.244v5.877h-61.244z"/></g><path d="m39.456 61.123v11.754h-2.356v-11.754h-5.889v11.754h-1.178v-11.754h-5.889v11.754h-1.177v-11.754h-5.89v11.754h-1.177v-11.754h-5.889v11.754h-2.355v-14.105h61.244v14.105h-2.356v-11.754h-5.888v11.754h-1.178v-11.754h-5.89v11.754h-1.177v-11.754h-5.889v11.754h-1.178v-11.754z" fill="#fff"/><path d="m5.3 275.053h11.778v54.07h-11.778zm2.356 2.35v49.369h7.239v-49.368h-7.24zm2.355 2.351h2.356v44.667h-2.357v-44.667zm-1.767-69.35h11.778v54.07h-11.778zm2.356 2.35v49.369h7.239v-49.369zm2.356 2.351h2.355v44.667h-2.355zm43.577-4.701h11.778v54.07h-11.778zm2.356 2.35v49.369h7.239v-49.369h-7.24zm2.355 2.351h2.356v44.667h-2.356zm-7.655-69.35h11.778v54.07h-11.778zm2.355 2.35v49.369h7.24v-49.369zm2.356 2.351h2.356v44.667h-2.356zm-7.656-69.35h11.778v54.07h-11.778zm2.356 2.349v49.369h7.239v-49.368h-7.239zm2.356 2.351h2.355v44.667h-2.355v-44.666zm-44.167 59.947h11.778v54.07h-11.778zm2.355 2.351v49.369h7.24v-49.369zm2.356 2.351h2.356v44.667h-2.356zm-1.767-69.35h11.778v54.07h-11.778zm2.356 2.35v49.369h7.239v-49.368h-7.24zm2.355 2.351h2.356v44.667h-2.356v-44.666zm40.634 189.246h11.778v54.07h-11.778zm2.355 2.35v49.369h7.24v-49.368h-7.24zm2.356 2.351h2.355v44.667h-2.354v-44.667z" fill="#ecf0f1"/><path d="m30.033 313.842h-7.066v-11.167h7.066zm0 1.176v11.166h-7.066v-11.166zm0-24.685v11.167h-7.066v-11.167zm0-1.175h-7.066v-11.168h7.066v11.167zm23.556 24.684h-7.067v-11.167h7.067zm0 1.176v11.166h-7.067v-11.166zm0-24.685v11.167h-7.067v-11.167zm0-1.175h-7.067v-11.168h7.067v11.167zm-11.779 24.684h-7.067v-11.167h7.067zm0 1.176v11.166h-7.067v-11.166zm0-24.685v11.167h-7.067v-11.167zm0-1.175h-7.067v-11.168h7.067v11.167zm-11.778-39.965h-7.066v-11.167h7.066zm0 1.175v11.167h-7.066v-11.167zm0-24.684v11.167h-7.066v-11.167zm0-1.175h-7.066v-11.167h7.066zm23.556 24.684h-7.067v-11.167h7.067zm0 1.175v11.167h-7.067v-11.167zm0-24.684v11.167h-7.067v-11.167zm0-1.175h-7.067v-11.167h7.067zm-11.778 24.684h-7.067v-11.167h7.067zm0 1.175v11.167h-7.067v-11.167zm0-24.684v11.167h-7.067v-11.167zm0-1.175h-7.067v-11.167h7.067zm-5.889-39.965h-7.066v-11.167h7.066zm0 1.175v11.167h-7.066v-11.167zm0-24.684v11.167h-7.066v-11.167zm0-1.175h-7.066v-11.167h7.066zm11.779 24.684h-7.067v-11.167h7.067zm0 1.175v11.167h-7.067v-11.167zm0-24.684v11.167h-7.067v-11.167zm0-1.175h-7.067v-11.167h7.067z" fill="#227fbb"/><ellipse cx="38.572" cy="99.031" fill="#2b3e51" rx="7.95" ry="7.934"/><path d="m38.2777778 0 26.5 47.0175439h-53z" fill="#fff"/><path d="m38.2777778 5.87719298 23.5555555 41.14035092h-47.1111111z" fill="#f2c500"/><path d="m38.5722222 11.754386 17.9611111 35.2631579h-35.9222222z" fill="#e94b35"/></g><ellipse cx="53" cy="11.754" fill="#fff" rx="2.356" ry="2.351"/><path d="m52.411 0h1.178v9.991h-1.178z" fill="#fff"/><path d="m96.578 331.474v9.403h2.355v-9.403zm-2.356 0h-2.355v9.403h2.355zm7.067 0v9.403h2.355v-9.403zm4.711 0v11.754h-106v-14.105h106v2.35zm-42.4 0v9.403h2.356v-9.403zm-2.356 0h-2.354v9.403h2.355v-9.403zm7.067 0v9.403h2.356v-9.403h-2.357zm4.711 0v9.403h2.356v-9.403zm4.711 0v9.403h2.356v-9.403zm4.711 0v9.403h2.356v-9.403zm4.712 0v9.403h2.355v-9.403zm-30.623 0h-2.355v9.403h2.355zm-4.71 0h-2.356v9.403h2.355v-9.403zm-4.712 0h-2.355v9.403h2.355zm-30.622 0v9.403h2.355v-9.403h-2.354zm-2.356 0h-2.355v9.403h2.355zm7.067 0v9.403h2.356v-9.403zm4.711 0v9.403h2.356v-9.403h-2.357zm4.711 0v9.403h2.356v-9.403zm4.711 0v9.403h2.356v-9.403zm4.711 0v9.403h2.356v-9.403zm-30.622 0h-2.355v9.403h2.355zm-4.71 0h-2.357v9.403h2.355v-9.403z" fill="#ecf0f1"/><path d="m4.711 343.228h96.578v21.158h-96.578z" fill="#f2c500"/><path d="m25.7656141 401.784771h55.0688014v-39.507868l-18.0260207-17.990219h-20.8075991l-16.6867525 16.653611z" fill="#2b3e51"/><g fill="#fff"><path d="m34.156 397.193h1.85v1.868h-1.85zm0-2.803h1.85v1.868h-1.85zm0-2.803h1.85v1.868h-1.85zm0-2.803h1.85v1.868h-1.85zm0-2.803h1.85v1.869h-1.85v-1.87zm0-2.803h1.85v1.869h-1.85v-1.87zm0-2.803h1.85v1.869h-1.85v-1.87zm0-2.803h1.85v1.869h-1.85zm2.776 19.62h1.85v1.87h-1.85zm0-2.802h1.85v1.868h-1.85zm0-2.803h1.85v1.868h-1.85zm0-2.803h1.85v1.868h-1.85zm0-2.803h1.85v1.869h-1.85v-1.87zm0-2.803h1.85v1.869h-1.85v-1.87zm0-2.803h1.85v1.869h-1.85v-1.87zm0-2.803h1.85v1.869h-1.85zm2.776 19.62h1.85v1.87h-1.85zm0-2.802h1.85v1.868h-1.85zm0-2.803h1.85v1.868h-1.85zm0-2.803h1.85v1.868h-1.85zm0-2.803h1.85v1.869h-1.85v-1.87zm0-2.803h1.85v1.869h-1.85v-1.87zm0-2.803h1.85v1.869h-1.85v-1.87zm0-2.803h1.85v1.869h-1.85zm2.776 19.62h1.85v1.87h-1.85zm0-2.802h1.85v1.868h-1.85zm0-2.803h1.85v1.868h-1.85zm0-2.803h1.85v1.868h-1.85zm0-2.803h1.85v1.869h-1.85v-1.87zm0-2.803h1.85v1.869h-1.85v-1.87zm0-2.803h1.85v1.869h-1.85v-1.87zm0-2.803h1.85v1.869h-1.85zm2.776 19.62h1.851v1.87h-1.85v-1.87zm0-2.802h1.851v1.868h-1.85v-1.868zm0-2.803h1.851v1.868h-1.85v-1.868zm0-2.803h1.851v1.868h-1.85v-1.868zm0-2.803h1.851v1.869h-1.85v-1.87zm0-2.803h1.851v1.869h-1.85v-1.87zm0-2.803h1.851v1.869h-1.85v-1.87zm0-2.803h1.851v1.869h-1.85v-1.869zm-11.104-3.737h1.85v1.868h-1.85zm2.776 0h1.85v1.868h-1.85zm2.776 0h1.85v1.868h-1.85zm2.776 0h1.85v1.868h-1.85zm2.776 0h1.851v1.868h-1.85v-1.868zm-2.776-2.803h1.85v1.868h-1.85zm-2.776 0h1.85v1.868h-1.85zm-2.776 0h1.85v1.868h-1.85zm-2.776-2.803h1.85v1.868h-1.85zm2.776 0h1.85v1.868h-1.85zm2.776 0h1.85v1.868h-1.85zm2.776 0h1.85v1.868h-1.85zm2.776 0h1.851v1.868h-1.85v-1.868zm-2.776-2.803h1.85v1.868h-1.85zm-2.776 0h1.85v1.868h-1.85zm0-2.803h1.85v1.868h-1.85zm-2.776 2.803h1.85v1.868h-1.85zm21.957 31.767h1.85v1.868h-1.85zm0-2.803h1.85v1.868h-1.85zm0-2.803h1.85v1.868h-1.85zm0-2.803h1.85v1.868h-1.85zm0-2.803h1.85v1.869h-1.85v-1.87zm0-2.803h1.85v1.869h-1.85v-1.87zm0-2.803h1.85v1.869h-1.85v-1.87zm0-2.803h1.85v1.869h-1.85zm2.776 19.62h1.85v1.87h-1.85zm0-2.802h1.85v1.868h-1.85zm0-2.803h1.85v1.868h-1.85zm0-2.803h1.85v1.868h-1.85zm0-2.803h1.85v1.869h-1.85v-1.87zm0-2.803h1.85v1.869h-1.85v-1.87zm0-2.803h1.85v1.869h-1.85v-1.87zm0-2.803h1.85v1.869h-1.85zm2.776 19.62h1.851v1.87h-1.85v-1.87zm0-2.802h1.851v1.868h-1.85v-1.868zm0-2.803h1.851v1.868h-1.85v-1.868zm0-2.803h1.851v1.868h-1.85v-1.868zm0-2.803h1.851v1.869h-1.85v-1.87zm0-2.803h1.851v1.869h-1.85v-1.87zm0-2.803h1.851v1.869h-1.85v-1.87zm0-2.803h1.851v1.869h-1.85v-1.869zm2.776 19.62h1.851v1.87h-1.85v-1.87zm0-2.802h1.851v1.868h-1.85v-1.868zm0-2.803h1.851v1.868h-1.85v-1.868zm0-2.803h1.851v1.868h-1.85v-1.868zm0-2.803h1.851v1.869h-1.85v-1.87zm0-2.803h1.851v1.869h-1.85v-1.87zm0-2.803h1.851v1.869h-1.85v-1.87zm0-2.803h1.851v1.869h-1.85v-1.869zm2.777 19.62h1.85v1.87h-1.85zm0-2.802h1.85v1.868h-1.85zm0-2.803h1.85v1.868h-1.85zm0-2.803h1.85v1.868h-1.85zm0-2.803h1.85v1.869h-1.85v-1.87zm0-2.803h1.85v1.869h-1.85v-1.87zm0-2.803h1.85v1.869h-1.85v-1.87zm0-2.803h1.85v1.869h-1.85zm-11.105-3.737h1.85v1.868h-1.85zm2.776 0h1.85v1.868h-1.85zm2.776 0h1.851v1.868h-1.85v-1.868zm2.776 0h1.851v1.868h-1.85v-1.868zm2.777 0h1.85v1.868h-1.85zm-2.777-2.803h1.851v1.868h-1.85v-1.868zm-2.776 0h1.851v1.868h-1.85v-1.868zm-2.776 0h1.85v1.868h-1.85zm-2.776-2.803h1.85v1.868h-1.85zm2.776 0h1.85v1.868h-1.85zm2.776 0h1.851v1.868h-1.85v-1.868zm2.776 0h1.851v1.868h-1.85v-1.868zm2.777 0h1.85v1.868h-1.85zm-2.777-2.803h1.851v1.868h-1.85v-1.868zm-2.776 0h1.851v1.868h-1.85v-1.868zm0-2.803h1.851v1.868h-1.85v-1.868zm-2.776 2.803h1.85v1.868h-1.85z"/><path d="m0 343.228h4.711v58.772h-4.711z"/><path d="m101.289 343.228h4.711v58.772h-4.711z"/><path d="m22.378 354.982h4.711v47.018h-4.711z"/><path d="m4.711 397.298h17.667v4.702h-17.667z"/></g><path d="m4.711 392.596h17.667v4.702h-17.667z" fill="#ecf0f1"/><path d="m4.711 387.895h17.667v4.702h-17.667z" fill="#fff"/><path d="m4.711 383.193h17.667v4.702h-17.667z" fill="#ecf0f1"/><path d="m4.711 378.491h17.667v4.702h-17.667z" fill="#fff"/><path d="m4.711 373.789h17.667v4.702h-17.667z" fill="#ecf0f1"/><path d="m4.711 369.088h17.667v4.702h-17.667z" fill="#fff"/><g transform="translate(78.911 354.982)"><path d="m0 0h4.711v47.018h-4.711z" fill="#fff"/><path d="m4.711 42.316h17.667v4.702h-17.667z" fill="#fff"/><path d="m4.711 37.614h17.667v4.702h-17.667z" fill="#ecf0f1"/><path d="m4.711 32.912h17.667v4.702h-17.667z" fill="#fff"/><path d="m4.711 28.211h17.667v4.702h-17.667z" fill="#ecf0f1"/><path d="m4.711 23.509h17.667v4.702h-17.667z" fill="#fff"/><path d="m4.711 18.807h17.667v4.702h-17.667z" fill="#ecf0f1"/><path d="m4.711 14.105h17.667v4.702h-17.667z" fill="#fff"/></g><path d="m4.711 364.386h17.667v4.702h-17.667z" fill="#ecf0f1"/><path d="m83.622 364.386h17.667v4.702h-17.667z" fill="#ecf0f1"/><path d="m42.4 336.175h21.2l15.311 18.807s2.582 6.694 2.582 10.041-2.582 5.24-2.582 5.24l-15.311-18.807h-21.2l-15.311 18.807s-1.427-6.054-1.427-9.235 1.427-6.046 1.427-6.046z" fill="#fff"/></g></g></svg>