<svg height="600" width="600" xmlns="http://www.w3.org/2000/svg" xmlns:xlink="http://www.w3.org/1999/xlink"><defs><circle id="a" cx="225" cy="225" r="225"/><path id="b" d="m.003 12.698a12.381 12.381 0 0 1 -.003-.264c0-6.867 5.7-12.434 12.73-12.434 7.032 0 12.732 5.567 12.732 12.434l-.003.264h.003v25.143h-25.462v-25.143z"/><path id="c" d="m.003 12.698a12.381 12.381 0 0 1 -.003-.264c0-6.867 5.7-12.434 12.73-12.434 7.032 0 12.732 5.567 12.732 12.434l-.003.264h.003v25.143h-25.462v-25.143z"/><path id="d" d="m.003 12.698a12.381 12.381 0 0 1 -.003-.264c0-6.867 5.7-12.434 12.73-12.434 7.032 0 12.732 5.567 12.732 12.434l-.003.264h.003v25.143h-25.462v-25.143z"/><path id="e" d="m.003 12.698a12.381 12.381 0 0 1 -.003-.264c0-6.867 5.7-12.434 12.73-12.434 7.032 0 12.732 5.567 12.732 12.434l-.003.264h.003v25.143h-25.462v-25.143z"/><path id="f" d="m.003 12.698a12.381 12.381 0 0 1 -.003-.264c0-6.867 5.7-12.434 12.73-12.434 7.032 0 12.732 5.567 12.732 12.434l-.003.264h.003v25.143h-25.462v-25.143z"/><path id="g" d="m.003 12.698a12.381 12.381 0 0 1 -.003-.264c0-6.867 5.7-12.434 12.73-12.434 7.032 0 12.732 5.567 12.732 12.434l-.003.264h.003v25.143h-25.462v-25.143z"/><mask id="h" fill="#fff"><use fill="#fff" fill-rule="evenodd" xlink:href="#a"/></mask><mask id="i" fill="#fff"><use fill="#fff" fill-rule="evenodd" xlink:href="#b"/></mask><mask id="j" fill="#fff"><use fill="#fff" fill-rule="evenodd" xlink:href="#c"/></mask><mask id="k" fill="#fff"><use fill="#fff" fill-rule="evenodd" xlink:href="#d"/></mask><mask id="l" fill="#fff"><use fill="#fff" fill-rule="evenodd" xlink:href="#e"/></mask><mask id="m" fill="#fff"><use fill="#fff" fill-rule="evenodd" xlink:href="#f"/></mask><mask id="n" fill="#fff"><use fill="#fff" fill-rule="evenodd" xlink:href="#g"/></mask></defs><g fill="none" fill-rule="evenodd"><g transform="translate(76 75)"><use fill="#2c97de" xlink:href="#a"/><path d="m28 349h397v131h-397z" fill="#1fce6d" mask="url(#h)"/><g fill="#fff" transform="translate(3 40)"><path d="m16 37h80v22h-80z"/><circle cx="95" cy="45" r="14"/><circle cx="15.5" cy="43.5" r="15.5"/><circle cx="69.5" cy="29.5" r="29.5"/><circle cx="32.5" cy="31.5" r="11.5"/></g><g fill="#fff" transform="translate(341 69)"><path d="m16 37h80v22h-80z"/><circle cx="95" cy="45" r="14"/><circle cx="15.5" cy="43.5" r="15.5"/><circle cx="69.5" cy="29.5" r="29.5"/><circle cx="32.5" cy="31.5" r="11.5"/></g><g fill="#ffe500" stroke="#fff" stroke-linecap="round" stroke-linejoin="round" stroke-width="5"><path d="m36.314 1.5h65.172m-101.486 0h12.283" transform="translate(36 112)"/><path d="m26.314 1.5h65.172m-91.486 0h12.283" transform="translate(325 141)"/><path d="m12.592 1h46.045m-58.194 0h2.235" transform="translate(312 26)"/></g></g><g transform="translate(107 280)"><path d="m170.084 50.032h46.34v33.778h-46.34z" fill="#2b3e51"/><path d="m171.358 86.095h43.54v3.556h-43.54z" fill="#ecf0f1"/><path d="m171.358 89.651h43.54v18.032h-43.54z" fill="#e94b35"/><path d="m171.103 107.683h46.595v36.317h-46.595z" fill="#ecf0f1"/><g transform="translate(0 47.492)"><path d="m4.583 45.714h165.501v50.794h-165.501z" fill="#ecf0f1"/><path d="m4.583 45.714h4.583v50.794h-4.583z" fill="#fff"/><path d="m44.813 45.714h4.583v50.794h-4.583z" fill="#fff"/><path d="m85.042 45.714h4.583v50.794h-4.583z" fill="#fff"/><path d="m125.272 45.714h4.583v50.794h-4.583z" fill="#fff"/><path d="m4.583 29.968h165.501v7.619h-165.501z" fill="#ecf0f1"/><g transform="translate(129.855 2.54)"><path d="m1.018 1.016h33.609v25.397h-33.609z" fill="#2b3e51"/><path d="m3.2 13.968 1.383-2.574v-2.504h.51v2.505l1.383 2.574h2.181v.508h-2.167l-1.398 2.56v9.377h-.509v-9.34l-1.399-2.597h-2.166v-.508h2.182zm1.638-2.031-1.273 2.298 1.264 2.273 1.282-2.273zm7.019 2.031 1.383-2.574v-2.504h.51v2.505l1.383 2.574h2.181v.508h-2.167l-1.398 2.56v9.377h-.509v-9.34l-1.399-2.597h-2.166v-.508h2.182zm1.638-2.031-1.273 2.298 1.264 2.273 1.282-2.273zm7.019 2.031 1.383-2.574v-2.504h.51v2.505l1.383 2.574h2.181v.508h-2.167l-1.398 2.56v9.377h-.509v-9.34l-1.399-2.597h-2.166v-.508h2.182zm1.638-2.031-1.273 2.298 1.264 2.273 1.282-2.273zm7.019 2.031 1.383-2.574v-2.504h.51v2.505l1.383 2.574h2.181v.508h-2.167l-1.398 2.56v9.377h-.509v-9.34l-1.399-2.597h-2.165v-.508h2.182zm1.638-2.031-1.273 2.298 1.264 2.273 1.282-2.273z" fill="#e94b35"/><path d="m1.018 1.016h7.639v6.857h-7.639zm.51.508v5.841h6.62v-5.841zm.509 0h.51v5.841h-.51zm1.018 0h.51v5.841h-.51zm1.019 0h.51v5.841h-.51zm1.018 0h.51v5.841h-.51zm1.019 0h.51v5.841h-.51zm1.018 0h.51v5.841h-.51zm2.546-.508h7.639v6.857h-7.639zm.51.508v5.841h6.62v-5.841zm.509 0h.51v5.841h-.51zm1.018 0h.51v5.841h-.51zm1.019 0h.51v5.841h-.51zm1.018 0h.51v5.841h-.51zm1.019 0h.509v5.841h-.51v-5.841zm1.018 0h.51v5.841h-.51zm2.546-.508h7.639v6.857h-7.639zm.51.508v5.841h6.62v-5.841zm.509 0h.51v5.841h-.51zm1.018 0h.51v5.841h-.51zm1.019 0h.51v5.841h-.51zm1.018 0h.51v5.841h-.51zm1.019 0h.509v5.841h-.51v-5.841zm1.018 0h.51v5.841h-.51zm2.546-.508h7.639v6.857h-7.639zm.51.508v5.841h6.62v-5.841zm.509 0h.51v5.841h-.51zm1.018 0h.51v5.841h-.51zm1.019 0h.51v5.841h-.51zm1.018 0h.51v5.841h-.51zm1.019 0h.509v5.841h-.51v-5.841zm1.018 0h.51v5.841h-.51z" fill="#c23824"/><g fill="#e94b35"><path d="m7.13 32.508h.509v-2.032h-.51v2.032zm0 .508v1.016h.509v-1.016h-.51zm-1.02-.508h.51v-2.032h-.51zm0 .508v1.016h.51v-1.016zm-.508 0v-1.27h-.51v2.286h.51zm-1.528-.508v1.524h.51v-2.286h-.51v-.508h.51v-2.286h-.51zm-1.019 0h.51v-2.032h-.51zm0 .508v1.016h.51v-1.016zm-1.018-.508h.51v-2.032h-.51zm0 .508v1.016h.51v-1.016zm3.565-3.048v-1.016h-.51v2.286h.51zm1.527 0h.51v-1.016h-.51zm-1.018 0h.51v-1.016h-.51zm-3.056 0h.51v-1.016h-.51zm-1.018 0h.51v-1.016h-.51zm6.11-1.016v5.08h.51v.508h-7.639v-.508h.51v-5.08h-.51v-.508h7.639v.508zm6.112 3.556v-.762h-.51v2.286h-.509v-2.286h-.51v2.286h-.508v-1.016h-.51v1.016h-.509v-1.016h-.51v1.016h6.876v-1.016h-.764v1.016h-.51v-1.016h-.509v1.016h-.509v-1.016h-.51v1.016h-.508zm.509 0h.509v-2.032h-.51v2.032zm1.018 0h.51v-2.032h-.51zm1.019 0h.764v-2.032h-.764zm2.037 0v-3.556h-.764v1.016h.764v.508h-.764v2.032zm0 .508h-.764v1.016h.764zm-6.62-.508v-2.032h-.51v2.032zm-1.019 0v-2.032h-.51v2.032zm3.056-2.032v-1.524h.509v1.016h.509v-1.016h.51v1.016h.509v-1.016h.509v1.016h.764v-1.016h-6.875v1.016h.51v-1.016h.508v1.016h.51v-1.016h.509v2.286h.51v-2.286h.508v2.286h.51zm-4.074-1.524h-.51v-.508h16.296v.508h-.51v5.08h.51v.508h-16.296v-.508h.51zm14.258 3.556h.51v-2.032h-.51zm0 .508v1.016h.51v-1.016zm-1.018-.508h.509v-2.032h-.51v2.032zm0 .508v1.016h.509v-1.016h-.51zm-.51 0v-1.27h-.509v2.286h.51v-1.016zm-1.527-.508v1.524h.51v-2.286h-.51v-.508h.51v-2.286h-.51zm-1.019 0h.51v-2.032h-.51zm0 .508v1.016h.51v-1.016zm-1.018-.508h.51v-2.032h-.51zm0 .508v1.016h.51v-1.016zm3.565-3.048v-1.016h-.51v2.286h.51zm1.527 0h.51v-1.016h-.51zm-1.018 0h.509v-1.016h-.51v1.016zm-3.056 0h.51v-1.016h-.51zm-1.018 0h.51v-1.016h-.51zm13.75 2.54h.508v-2.032h-.509v2.032zm0 .508v1.016h.508v-1.016h-.509zm-1.02-.508h.51v-2.032h-.51zm0 .508v1.016h.51v-1.016zm-.508 0v-1.27h-.51v2.286h.51zm-1.528-.508v1.524h.51v-2.286h-.51v-.508h.51v-2.286h-.51zm-1.019 0h.51v-2.032h-.51zm0 .508v1.016h.51v-1.016zm-1.018-.508h.51v-2.032h-.51zm0 .508v1.016h.51v-1.016zm3.565-3.048v-1.016h-.51v2.286h.51zm1.527 0h.51v-1.016h-.51zm-1.018 0h.509v-1.016h-.51v1.016zm-3.056 0h.51v-1.016h-.51zm-1.018 0h.51v-1.016h-.51zm6.11-1.016v5.08h.51v.508h-7.639v-.508h.51v-5.08h-.51v-.508h7.639v.508z"/><path d="m.764 7.873h34.119v1.016h-34.119z"/><path d="m0 26.413h35.646v1.016h-35.646z"/><path d="m0 0h35.646v1.016h-35.646z"/><path d="m0 0h1.018v35.048h-1.018z"/><path d="m17.314.508h1.018v26.921h-1.018z"/><path d="m25.971 0h1.018v35.048h-1.018z"/><path d="m25.971 0h1.018v35.048h-1.018z"/><path d="m8.657 0h1.018v35.048h-1.018z"/><path d="m34.628 0h1.018v35.048h-1.018z"/></g></g><g transform="translate(89.625 2.54)"><path d="m1.018 1.016h33.609v25.397h-33.609z" fill="#2b3e51"/><path d="m3.2 13.968 1.383-2.574v-2.504h.51v2.505l1.383 2.574h2.181v.508h-2.167l-1.398 2.56v9.377h-.509v-9.34l-1.399-2.597h-2.166v-.508h2.182zm1.638-2.031-1.273 2.298 1.264 2.273 1.282-2.273zm7.019 2.031 1.383-2.574v-2.504h.51v2.505l1.383 2.574h2.181v.508h-2.167l-1.398 2.56v9.377h-.509v-9.34l-1.399-2.597h-2.166v-.508h2.182zm1.638-2.031-1.273 2.298 1.264 2.273 1.282-2.273zm7.019 2.031 1.383-2.574v-2.504h.51v2.505l1.383 2.574h2.181v.508h-2.167l-1.398 2.56v9.377h-.509v-9.34l-1.399-2.597h-2.166v-.508h2.182zm1.638-2.031-1.273 2.298 1.264 2.273 1.282-2.273zm7.019 2.031 1.383-2.574v-2.504h.51v2.505l1.383 2.574h2.181v.508h-2.167l-1.398 2.56v9.377h-.509v-9.34l-1.399-2.597h-2.165v-.508h2.182zm1.638-2.031-1.273 2.298 1.264 2.273 1.282-2.273z" fill="#e94b35"/><path d="m1.018 1.016h7.639v6.857h-7.639zm.51.508v5.841h6.62v-5.841zm.509 0h.51v5.841h-.51zm1.018 0h.51v5.841h-.51zm1.019 0h.51v5.841h-.51zm1.018 0h.51v5.841h-.51zm1.019 0h.51v5.841h-.51zm1.018 0h.51v5.841h-.51zm2.546-.508h7.639v6.857h-7.639zm.51.508v5.841h6.62v-5.841zm.509 0h.51v5.841h-.51zm1.018 0h.51v5.841h-.51zm1.019 0h.51v5.841h-.51zm1.018 0h.51v5.841h-.51zm1.019 0h.509v5.841h-.51v-5.841zm1.018 0h.51v5.841h-.51zm2.546-.508h7.639v6.857h-7.639zm.51.508v5.841h6.62v-5.841zm.509 0h.51v5.841h-.51zm1.018 0h.51v5.841h-.51zm1.019 0h.51v5.841h-.51zm1.018 0h.51v5.841h-.51zm1.019 0h.509v5.841h-.51v-5.841zm1.018 0h.51v5.841h-.51zm2.546-.508h7.639v6.857h-7.639zm.51.508v5.841h6.62v-5.841zm.509 0h.51v5.841h-.51zm1.018 0h.51v5.841h-.51zm1.019 0h.51v5.841h-.51zm1.018 0h.51v5.841h-.51zm1.019 0h.509v5.841h-.51v-5.841zm1.018 0h.51v5.841h-.51z" fill="#c23824"/><g fill="#e94b35"><path d="m7.13 32.508h.509v-2.032h-.51v2.032zm0 .508v1.016h.509v-1.016h-.51zm-1.02-.508h.51v-2.032h-.51zm0 .508v1.016h.51v-1.016zm-.508 0v-1.27h-.51v2.286h.51zm-1.528-.508v1.524h.51v-2.286h-.51v-.508h.51v-2.286h-.51zm-1.019 0h.51v-2.032h-.51zm0 .508v1.016h.51v-1.016zm-1.018-.508h.51v-2.032h-.51zm0 .508v1.016h.51v-1.016zm3.565-3.048v-1.016h-.51v2.286h.51zm1.527 0h.51v-1.016h-.51zm-1.018 0h.51v-1.016h-.51zm-3.056 0h.51v-1.016h-.51zm-1.018 0h.51v-1.016h-.51zm6.11-1.016v5.08h.51v.508h-7.639v-.508h.51v-5.08h-.51v-.508h7.639v.508zm6.112 3.556v-.762h-.51v2.286h-.509v-2.286h-.51v2.286h-.508v-1.016h-.51v1.016h-.509v-1.016h-.51v1.016h6.876v-1.016h.509v1.016h.764v-1.016h-.764zm0 .508h.509v1.016h-.51v-1.016zm.509-.508v-2.032h.509v2.032h.51v-2.032h.509v2.032h.509v-2.032h.764v2.032h.509v-2.032h.764v-.508h-.764v-1.016h.764v3.556h-.764zm.509.508h.51v1.016h-.51zm1.019 0h.509v1.016h-.51v-1.016zm-4.074-.508v-2.032h-.51v2.032zm-1.019 0v-2.032h-.51v2.032zm3.056-2.032v-1.524h.509v1.016h.509v-1.016h.51v1.016h.509v-1.016h.509v1.016h.764v-1.016h-6.875v1.016h.51v-1.016h.508v1.016h.51v-1.016h.509v2.286h.51v-2.286h.508v2.286h.51zm-4.074-1.524h-.51v-.508h16.296v.508h-.51v5.08h.51v.508h-16.296v-.508h.51zm14.258 3.556h.51v-2.032h-.51zm0 .508v1.016h.51v-1.016zm-1.018-.508h.509v-2.032h-.51v2.032zm0 .508v1.016h.509v-1.016h-.51zm-.51 0v-1.27h-.509v2.286h.51v-1.016zm-1.527-.508v1.524h.51v-2.286h-.51v-.508h.51v-2.286h-.51zm-1.019 0h.51v-2.032h-.51zm0 .508v1.016h.51v-1.016zm-1.018-.508h.51v-2.032h-.51zm0 .508v1.016h.51v-1.016zm3.565-3.048v-1.016h-.51v2.286h.51zm1.527 0h.51v-1.016h-.51zm-1.018 0h.509v-1.016h-.51v1.016zm-3.056 0h.51v-1.016h-.51zm-1.018 0h.51v-1.016h-.51zm13.75 2.54h.508v-2.032h-.509v2.032zm0 .508v1.016h.508v-1.016h-.509zm-1.02-.508h.51v-2.032h-.51zm0 .508v1.016h.51v-1.016zm-.508 0v-1.27h-.51v2.286h.51zm-1.528-.508v1.524h.51v-2.286h-.51v-.508h.51v-2.286h-.51zm-1.019 0h.51v-2.032h-.51zm0 .508v1.016h.51v-1.016zm-1.018-.508h.51v-2.032h-.51zm0 .508v1.016h.51v-1.016zm3.565-3.048v-1.016h-.51v2.286h.51zm1.527 0h.51v-1.016h-.51zm-1.018 0h.509v-1.016h-.51v1.016zm-3.056 0h.51v-1.016h-.51zm-1.018 0h.51v-1.016h-.51zm6.11-1.016v5.08h.51v.508h-7.639v-.508h.51v-5.08h-.51v-.508h7.639v.508z"/><path d="m.764 7.873h34.119v1.016h-34.119z"/><path d="m0 26.413h35.646v1.016h-35.646z"/><path d="m0 0h35.646v1.016h-35.646z"/><path d="m0 0h1.018v35.048h-1.018z"/><path d="m17.314.508h1.018v26.921h-1.018z"/><path d="m25.971 0h1.018v35.048h-1.018z"/><path d="m25.971 0h1.018v35.048h-1.018z"/><path d="m8.657 0h1.018v35.048h-1.018z"/><path d="m34.628 0h1.018v35.048h-1.018z"/></g></g><g transform="translate(49.396 2.54)"><path d="m1.018 1.016h33.609v25.397h-33.609z" fill="#2b3e51"/><path d="m3.2 13.968 1.383-2.574v-2.504h.51v2.505l1.383 2.574h2.181v.508h-2.167l-1.398 2.56v9.377h-.509v-9.34l-1.399-2.597h-2.166v-.508h2.182zm1.638-2.031-1.273 2.298 1.264 2.273 1.282-2.273zm7.019 2.031 1.383-2.574v-2.504h.51v2.505l1.383 2.574h2.181v.508h-2.167l-1.398 2.56v9.377h-.509v-9.34l-1.399-2.597h-2.166v-.508h2.182zm1.638-2.031-1.273 2.298 1.264 2.273 1.282-2.273zm7.019 2.031 1.383-2.574v-2.504h.51v2.505l1.383 2.574h2.181v.508h-2.167l-1.398 2.56v9.377h-.509v-9.34l-1.399-2.597h-2.166v-.508h2.182zm1.638-2.031-1.273 2.298 1.264 2.273 1.282-2.273zm7.019 2.031 1.383-2.574v-2.504h.51v2.505l1.383 2.574h2.181v.508h-2.167l-1.398 2.56v9.377h-.509v-9.34l-1.399-2.597h-2.165v-.508h2.182zm1.638-2.031-1.273 2.298 1.264 2.273 1.282-2.273z" fill="#e94b35"/><path d="m1.018 1.016h7.639v6.857h-7.639zm.51.508v5.841h6.62v-5.841zm.509 0h.51v5.841h-.51zm1.018 0h.51v5.841h-.51zm1.019 0h.51v5.841h-.51zm1.018 0h.51v5.841h-.51zm1.019 0h.51v5.841h-.51zm1.018 0h.51v5.841h-.51zm2.546-.508h7.639v6.857h-7.639zm.51.508v5.841h6.62v-5.841zm.509 0h.51v5.841h-.51zm1.018 0h.51v5.841h-.51zm1.019 0h.51v5.841h-.51zm1.018 0h.51v5.841h-.51zm1.019 0h.509v5.841h-.51v-5.841zm1.018 0h.51v5.841h-.51zm2.546-.508h7.639v6.857h-7.639zm.51.508v5.841h6.62v-5.841zm.509 0h.51v5.841h-.51zm1.018 0h.51v5.841h-.51zm1.019 0h.51v5.841h-.51zm1.018 0h.51v5.841h-.51zm1.019 0h.509v5.841h-.51v-5.841zm1.018 0h.51v5.841h-.51zm2.546-.508h7.639v6.857h-7.639zm.51.508v5.841h6.62v-5.841zm.509 0h.51v5.841h-.51zm1.018 0h.51v5.841h-.51zm1.019 0h.51v5.841h-.51zm1.018 0h.51v5.841h-.51zm1.019 0h.509v5.841h-.51v-5.841zm1.018 0h.51v5.841h-.51z" fill="#c23824"/><g fill="#e94b35"><path d="m7.13 32.508h.509v-2.032h-.51v2.032zm0 .508v1.016h.509v-1.016h-.51zm-1.02-.508h.51v-2.032h-.51zm0 .508v1.016h.51v-1.016zm-.508 0v-1.27h-.51v2.286h.51zm-1.528-.508v1.524h.51v-2.286h-.51v-.508h.51v-2.286h-.51zm-1.019 0h.51v-2.032h-.51zm0 .508v1.016h.51v-1.016zm-1.018-.508h.51v-2.032h-.51zm0 .508v1.016h.51v-1.016zm3.565-3.048v-1.016h-.51v2.286h.51zm1.527 0h.51v-1.016h-.51zm-1.018 0h.51v-1.016h-.51zm-3.056 0h.51v-1.016h-.51zm-1.018 0h.51v-1.016h-.51zm6.11-1.016v5.08h.51v.508h-7.639v-.508h.51v-5.08h-.51v-.508h7.639v.508zm6.112 3.556v-.762h-.51v2.286h-.509v-2.286h-.51v2.286h-.508v-1.016h-.51v1.016h-.509v-1.016h-.51v1.016h6.876v-1.016h-.764v1.016h-.51v-1.016h-.509v1.016h-.509v-1.016h-.51v1.016h-.508zm.509 0h.509v-2.032h-.51v2.032zm1.018 0h.51v-2.032h-.51zm1.019 0h.764v-2.032h-.764zm2.037 0v-3.556h-.764v1.016h.764v.508h-.764v2.032zm0 .508h-.764v1.016h.764zm-6.62-.508v-2.032h-.51v2.032zm-1.019 0v-2.032h-.51v2.032zm3.056-2.032v-1.524h.509v1.016h.509v-1.016h.51v1.016h.509v-1.016h.509v1.016h.764v-1.016h-6.875v1.016h.51v-1.016h.508v1.016h.51v-1.016h.509v2.286h.51v-2.286h.508v2.286h.51zm-4.074-1.524h-.51v-.508h16.296v.508h-.51v5.08h.51v.508h-16.296v-.508h.51zm14.258 3.556h.51v-2.032h-.51zm0 .508v1.016h.51v-1.016zm-1.018-.508h.509v-2.032h-.51v2.032zm0 .508v1.016h.509v-1.016h-.51zm-.51 0v-1.27h-.509v2.286h.51v-1.016zm-1.527-.508v1.524h.51v-2.286h-.51v-.508h.51v-2.286h-.51zm-1.019 0h.51v-2.032h-.51zm0 .508v1.016h.51v-1.016zm-1.018-.508h.51v-2.032h-.51zm0 .508v1.016h.51v-1.016zm3.565-3.048v-1.016h-.51v2.286h.51zm1.527 0h.51v-1.016h-.51zm-1.018 0h.509v-1.016h-.51v1.016zm-3.056 0h.51v-1.016h-.51zm-1.018 0h.51v-1.016h-.51zm13.75 2.54h.508v-2.032h-.509v2.032zm0 .508v1.016h.508v-1.016h-.509zm-1.02-.508h.51v-2.032h-.51zm0 .508v1.016h.51v-1.016zm-.508 0v-1.27h-.51v2.286h.51zm-1.528-.508v1.524h.51v-2.286h-.51v-.508h.51v-2.286h-.51zm-1.019 0h.51v-2.032h-.51zm0 .508v1.016h.51v-1.016zm-1.018-.508h.51v-2.032h-.51zm0 .508v1.016h.51v-1.016zm3.565-3.048v-1.016h-.51v2.286h.51zm1.527 0h.51v-1.016h-.51zm-1.018 0h.509v-1.016h-.51v1.016zm-3.056 0h.51v-1.016h-.51zm-1.018 0h.51v-1.016h-.51zm6.11-1.016v5.08h.51v.508h-7.639v-.508h.51v-5.08h-.51v-.508h7.639v.508z"/><path d="m.764 7.873h34.119v1.016h-34.119z"/><path d="m0 26.413h35.646v1.016h-35.646z"/><path d="m0 0h35.646v1.016h-35.646z"/><path d="m0 0h1.018v35.048h-1.018z"/><path d="m17.314.508h1.018v26.921h-1.018z"/><path d="m25.971 0h1.018v35.048h-1.018z"/><path d="m25.971 0h1.018v35.048h-1.018z"/><path d="m8.657 0h1.018v35.048h-1.018z"/><path d="m34.628 0h1.018v35.048h-1.018z"/></g></g><g transform="translate(9.166 2.54)"><path d="m1.018 1.016h33.609v25.397h-33.609z" fill="#2b3e51"/><path d="m3.2 13.968 1.383-2.574v-2.504h.51v2.505l1.383 2.574h2.181v.508h-2.167l-1.398 2.56v9.377h-.509v-9.34l-1.399-2.597h-2.166v-.508h2.182zm1.638-2.031-1.273 2.298 1.264 2.273 1.282-2.273zm7.019 2.031 1.383-2.574v-2.504h.51v2.505l1.383 2.574h2.181v.508h-2.167l-1.398 2.56v9.377h-.509v-9.34l-1.399-2.597h-2.166v-.508h2.182zm1.638-2.031-1.273 2.298 1.264 2.273 1.282-2.273zm7.019 2.031 1.383-2.574v-2.504h.51v2.505l1.383 2.574h2.181v.508h-2.167l-1.398 2.56v9.377h-.509v-9.34l-1.399-2.597h-2.166v-.508h2.182zm1.638-2.031-1.273 2.298 1.264 2.273 1.282-2.273zm7.019 2.031 1.383-2.574v-2.504h.51v2.505l1.383 2.574h2.181v.508h-2.167l-1.398 2.56v9.377h-.509v-9.34l-1.399-2.597h-2.165v-.508h2.182zm1.638-2.031-1.273 2.298 1.264 2.273 1.282-2.273z" fill="#e94b35"/><path d="m1.018 1.016h7.639v6.857h-7.639zm.51.508v5.841h6.62v-5.841zm.509 0h.51v5.841h-.51zm1.018 0h.51v5.841h-.51zm1.019 0h.51v5.841h-.51zm1.018 0h.51v5.841h-.51zm1.019 0h.51v5.841h-.51zm1.018 0h.51v5.841h-.51zm2.546-.508h7.639v6.857h-7.639zm.51.508v5.841h6.62v-5.841zm.509 0h.51v5.841h-.51zm1.018 0h.51v5.841h-.51zm1.019 0h.51v5.841h-.51zm1.018 0h.51v5.841h-.51zm1.019 0h.509v5.841h-.51v-5.841zm1.018 0h.51v5.841h-.51zm2.546-.508h7.639v6.857h-7.639zm.51.508v5.841h6.62v-5.841zm.509 0h.51v5.841h-.51zm1.018 0h.51v5.841h-.51zm1.019 0h.51v5.841h-.51zm1.018 0h.51v5.841h-.51zm1.019 0h.509v5.841h-.51v-5.841zm1.018 0h.51v5.841h-.51zm2.546-.508h7.639v6.857h-7.639zm.51.508v5.841h6.62v-5.841zm.509 0h.51v5.841h-.51zm1.018 0h.51v5.841h-.51zm1.019 0h.51v5.841h-.51zm1.018 0h.51v5.841h-.51zm1.019 0h.509v5.841h-.51v-5.841zm1.018 0h.51v5.841h-.51z" fill="#c23824"/><g fill="#e94b35"><path d="m7.13 32.508h.509v-2.032h-.51v2.032zm0 .508v1.016h.509v-1.016h-.51zm-1.02-.508h.51v-2.032h-.51zm0 .508v1.016h.51v-1.016zm-.508 0v-1.27h-.51v2.286h.51zm-1.528-.508v1.524h.51v-2.286h-.51v-.508h.51v-2.286h-.51zm-1.019 0h.51v-2.032h-.51zm0 .508v1.016h.51v-1.016zm-1.018-.508h.51v-2.032h-.51zm0 .508v1.016h.51v-1.016zm3.565-3.048v-1.016h-.51v2.286h.51zm1.527 0h.51v-1.016h-.51zm-1.018 0h.51v-1.016h-.51zm-3.056 0h.51v-1.016h-.51zm-1.018 0h.51v-1.016h-.51zm6.11-1.016v5.08h.51v.508h-7.639v-.508h.51v-5.08h-.51v-.508h7.639v.508zm6.112 3.556v-.762h-.51v2.286h-.509v-2.286h-.51v2.286h-.508v-1.016h-.51v1.016h-.509v-1.016h-.51v1.016h6.876v-1.016h-.764v1.016h-.51v-1.016h-.509v1.016h-.509v-1.016h-.51v1.016h-.508zm.509 0h.509v-2.032h-.51v2.032zm1.018 0h.51v-2.032h-.51zm1.019 0h.764v-2.032h-.764zm2.037 0v-3.556h-.764v1.016h.764v.508h-.764v2.032zm0 .508h-.764v1.016h.764zm-6.62-.508v-2.032h-.51v2.032zm-1.019 0v-2.032h-.51v2.032zm3.056-2.032v-1.524h.509v1.016h.509v-1.016h.51v1.016h.509v-1.016h.509v1.016h.764v-1.016h-6.875v1.016h.51v-1.016h.508v1.016h.51v-1.016h.509v2.286h.51v-2.286h.508v2.286h.51zm-4.074-1.524h-.51v-.508h16.296v.508h-.51v5.08h.51v.508h-16.296v-.508h.51zm14.258 3.556h.51v-2.032h-.51zm0 .508v1.016h.51v-1.016zm-1.018-.508h.509v-2.032h-.51v2.032zm0 .508v1.016h.509v-1.016h-.51zm-.51 0v-1.27h-.509v2.286h.51v-1.016zm-1.527-.508v1.524h.51v-2.286h-.51v-.508h.51v-2.286h-.51zm-1.019 0h.51v-2.032h-.51zm0 .508v1.016h.51v-1.016zm-1.018-.508h.51v-2.032h-.51zm0 .508v1.016h.51v-1.016zm3.565-3.048v-1.016h-.51v2.286h.51zm1.527 0h.51v-1.016h-.51zm-1.018 0h.509v-1.016h-.51v1.016zm-3.056 0h.51v-1.016h-.51zm-1.018 0h.51v-1.016h-.51zm13.75 2.54h.508v-2.032h-.509v2.032zm0 .508v1.016h.508v-1.016h-.509zm-1.02-.508h.51v-2.032h-.51zm0 .508v1.016h.51v-1.016zm-.508 0v-1.27h-.51v2.286h.51zm-1.528-.508v1.524h.51v-2.286h-.51v-.508h.51v-2.286h-.51zm-1.019 0h.51v-2.032h-.51zm0 .508v1.016h.51v-1.016zm-1.018-.508h.51v-2.032h-.51zm0 .508v1.016h.51v-1.016zm3.565-3.048v-1.016h-.51v2.286h.51zm1.527 0h.51v-1.016h-.51zm-1.018 0h.509v-1.016h-.51v1.016zm-3.056 0h.51v-1.016h-.51zm-1.018 0h.51v-1.016h-.51zm6.11-1.016v5.08h.51v.508h-7.639v-.508h.51v-5.08h-.51v-.508h7.639v.508z"/><path d="m.764 7.873h34.119v1.016h-34.119z"/><path d="m0 26.413h35.646v1.016h-35.646z"/><path d="m0 0h35.646v1.016h-35.646z"/><path d="m0 0h1.018v35.048h-1.018z"/><path d="m17.314.508h1.018v26.921h-1.018z"/><path d="m25.971 0h1.018v35.048h-1.018z"/><path d="m25.971 0h1.018v35.048h-1.018z"/><path d="m8.657 0h1.018v35.048h-1.018z"/><path d="m34.628 0h1.018v35.048h-1.018z"/></g></g><path d="m0 0h170.084v2.54h-170.084z" fill="#c23824"/><path d="m0 37.587h170.084v2.032h-170.084z" fill="#fff"/><path d="m2.037 39.619h168.047v5.079h-168.047z" fill="#ecf0f1"/><g fill="#fff"><path d="m4.583 44.698h165.501v5.079h-165.501z"/><path d="m4.583 2.54h4.583v35.048h-4.583z"/><path d="m44.813 2.54h4.583v35.048h-4.583z"/><path d="m85.042 2.54h4.583v35.048h-4.583z"/><path d="m125.272 2.54h4.583v35.048h-4.583z"/></g><path d="m165.501 2.54h4.583v35.048h-4.583z" fill="#ecf0f1"/><g transform="translate(14.259 54.857)"><use fill="#2b3e51" xlink:href="#b"/><path d="m8.148 11.429h9.166v-11.429h2.037v11.429h6.365v2.031h-3.564v13.207h3.564v1.016h-3.564v3.555h3.564v1.016h-3.564v5.587h-1.019v-5.587h-3.31v5.841h-1.018v-5.841h-3.565v5.587h-1.018v-5.587h-3.565v5.841h-1.018v-5.841h-3.31v5.587h-1.019v-5.587h-3.565v-1.016h3.565v-3.555h-3.565v-1.016h3.565v-13.207h-3.565v-2.03h6.366v-11.43h2.037zm12.985 2.031h-7.893v13.207h7.893zm0 14.223h-3.31v3.555h3.31zm-4.328 3.555v-3.555h-3.565v3.555zm-8.148-4.571h3.565v-13.207h-7.894v13.207zm-1.018 4.571v-3.555h-3.31v3.555zm1.018 0h3.565v-3.555h-3.565z" fill="#c23824" mask="url(#i)"/></g><g transform="translate(54.488 54.857)"><use fill="#2b3e51" xlink:href="#c"/><path d="m8.148 11.429h9.166v-11.429h2.037v11.429h6.365v2.031h-3.564v13.207h3.564v1.016h-3.564v3.555h3.564v1.016h-3.564v5.587h-1.019v-5.587h-3.31v5.841h-1.018v-5.841h-3.565v5.587h-1.018v-5.587h-3.565v5.841h-1.018v-5.841h-3.31v5.587h-1.019v-5.587h-3.565v-1.016h3.565v-3.555h-3.565v-1.016h3.565v-13.207h-3.565v-2.03h6.366v-11.43h2.037zm12.985 2.031h-7.893v13.207h7.893zm0 14.223h-3.31v3.555h3.31zm-4.328 3.555v-3.555h-3.565v3.555zm-8.148-4.571h3.565v-13.207h-7.894v13.207zm-1.018 4.571v-3.555h-3.31v3.555zm1.018 0h3.565v-3.555h-3.565z" fill="#c23824" mask="url(#j)"/></g><g transform="translate(94.718 54.857)"><use fill="#2b3e51" xlink:href="#d"/><path d="m8.148 11.429h9.166v-11.429h2.037v11.429h6.365v2.031h-3.564v13.207h3.564v1.016h-3.564v3.555h3.564v1.016h-3.564v5.587h-1.019v-5.587h-3.31v5.841h-1.018v-5.841h-3.565v5.587h-1.018v-5.587h-3.565v5.841h-1.018v-5.841h-3.31v5.587h-1.019v-5.587h-3.565v-1.016h3.565v-3.555h-3.565v-1.016h3.565v-13.207h-3.565v-2.03h6.366v-11.43h2.037zm12.985 2.031h-7.893v13.207h7.893zm0 14.223h-3.31v3.555h3.31zm-4.328 3.555v-3.555h-3.565v3.555zm-8.148-4.571h3.565v-13.207h-7.894v13.207zm-1.018 4.571v-3.555h-3.31v3.555zm1.018 0h3.565v-3.555h-3.565z" fill="#c23824" mask="url(#k)"/></g></g><g transform="matrix(-1 0 0 1 386 47.492)"><path d="m4.583 45.714h165.501v50.794h-165.501z" fill="#ecf0f1"/><path d="m4.583 45.714h4.583v50.794h-4.583z" fill="#fff"/><path d="m44.813 45.714h4.583v50.794h-4.583z" fill="#fff"/><path d="m85.042 45.714h4.583v50.794h-4.583z" fill="#fff"/><path d="m125.272 45.714h4.583v50.794h-4.583z" fill="#fff"/><path d="m4.583 29.968h165.501v7.619h-165.501z" fill="#ecf0f1"/><g transform="translate(129.855 2.54)"><path d="m1.018 1.016h33.609v25.397h-33.609z" fill="#2b3e51"/><path d="m3.2 13.968 1.383-2.574v-2.504h.51v2.505l1.383 2.574h2.181v.508h-2.167l-1.398 2.56v9.377h-.509v-9.34l-1.399-2.597h-2.166v-.508h2.182zm1.638-2.031-1.273 2.298 1.264 2.273 1.282-2.273zm7.019 2.031 1.383-2.574v-2.504h.51v2.505l1.383 2.574h2.181v.508h-2.167l-1.398 2.56v9.377h-.509v-9.34l-1.399-2.597h-2.166v-.508h2.182zm1.638-2.031-1.273 2.298 1.264 2.273 1.282-2.273zm7.019 2.031 1.383-2.574v-2.504h.51v2.505l1.383 2.574h2.181v.508h-2.167l-1.398 2.56v9.377h-.509v-9.34l-1.399-2.597h-2.166v-.508h2.182zm1.638-2.031-1.273 2.298 1.264 2.273 1.282-2.273zm7.019 2.031 1.383-2.574v-2.504h.51v2.505l1.383 2.574h2.181v.508h-2.167l-1.398 2.56v9.377h-.509v-9.34l-1.399-2.597h-2.165v-.508h2.182zm1.638-2.031-1.273 2.298 1.264 2.273 1.282-2.273z" fill="#e94b35"/><path d="m1.018 1.016h7.639v6.857h-7.639zm.51.508v5.841h6.62v-5.841zm.509 0h.51v5.841h-.51zm1.018 0h.51v5.841h-.51zm1.019 0h.51v5.841h-.51zm1.018 0h.51v5.841h-.51zm1.019 0h.51v5.841h-.51zm1.018 0h.51v5.841h-.51zm2.546-.508h7.639v6.857h-7.639zm.51.508v5.841h6.62v-5.841zm.509 0h.51v5.841h-.51zm1.018 0h.51v5.841h-.51zm1.019 0h.51v5.841h-.51zm1.018 0h.51v5.841h-.51zm1.019 0h.509v5.841h-.51v-5.841zm1.018 0h.51v5.841h-.51zm2.546-.508h7.639v6.857h-7.639zm.51.508v5.841h6.62v-5.841zm.509 0h.51v5.841h-.51zm1.018 0h.51v5.841h-.51zm1.019 0h.51v5.841h-.51zm1.018 0h.51v5.841h-.51zm1.019 0h.509v5.841h-.51v-5.841zm1.018 0h.51v5.841h-.51zm2.546-.508h7.639v6.857h-7.639zm.51.508v5.841h6.62v-5.841zm.509 0h.51v5.841h-.51zm1.018 0h.51v5.841h-.51zm1.019 0h.51v5.841h-.51zm1.018 0h.51v5.841h-.51zm1.019 0h.509v5.841h-.51v-5.841zm1.018 0h.51v5.841h-.51z" fill="#c23824"/><g fill="#e94b35"><path d="m7.13 32.508h.509v-2.032h-.51v2.032zm0 .508v1.016h.509v-1.016h-.51zm-1.02-.508h.51v-2.032h-.51zm0 .508v1.016h.51v-1.016zm-.508 0v-1.27h-.51v2.286h.51zm-1.528-.508v1.524h.51v-2.286h-.51v-.508h.51v-2.286h-.51zm-1.019 0h.51v-2.032h-.51zm0 .508v1.016h.51v-1.016zm-1.018-.508h.51v-2.032h-.51zm0 .508v1.016h.51v-1.016zm3.565-3.048v-1.016h-.51v2.286h.51zm1.527 0h.51v-1.016h-.51zm-1.018 0h.51v-1.016h-.51zm-3.056 0h.51v-1.016h-.51zm-1.018 0h.51v-1.016h-.51zm6.11-1.016v5.08h.51v.508h-7.639v-.508h.51v-5.08h-.51v-.508h7.639v.508zm6.112 3.556v-.762h-.51v2.286h-.509v-2.286h-.51v2.286h-.508v-1.016h-.51v1.016h-.509v-1.016h-.51v1.016h6.876v-1.016h.509v1.016h.764v-1.016h-.764zm0 .508h.509v1.016h-.51v-1.016zm.509-.508v-2.032h.509v2.032h.51v-2.032h.509v2.032h.509v-2.032h.764v2.032h.509v-2.032h.764v-.508h-.764v-1.016h.764v3.556h-.764zm.509.508h.51v1.016h-.51zm1.019 0h.509v1.016h-.51v-1.016zm-4.074-.508v-2.032h-.51v2.032zm-1.019 0v-2.032h-.51v2.032zm3.056-2.032v-1.524h.509v1.016h.509v-1.016h.51v1.016h.509v-1.016h.509v1.016h.764v-1.016h-6.875v1.016h.51v-1.016h.508v1.016h.51v-1.016h.509v2.286h.51v-2.286h.508v2.286h.51zm-4.074-1.524h-.51v-.508h16.296v.508h-.51v5.08h.51v.508h-16.296v-.508h.51zm14.258 3.556h.51v-2.032h-.51zm0 .508v1.016h.51v-1.016zm-1.018-.508h.509v-2.032h-.51v2.032zm0 .508v1.016h.509v-1.016h-.51zm-.51 0v-1.27h-.509v2.286h.51v-1.016zm-1.527-.508v1.524h.51v-2.286h-.51v-.508h.51v-2.286h-.51zm-1.019 0h.51v-2.032h-.51zm0 .508v1.016h.51v-1.016zm-1.018-.508h.51v-2.032h-.51zm0 .508v1.016h.51v-1.016zm3.565-3.048v-1.016h-.51v2.286h.51zm1.527 0h.51v-1.016h-.51zm-1.018 0h.509v-1.016h-.51v1.016zm-3.056 0h.51v-1.016h-.51zm-1.018 0h.51v-1.016h-.51zm13.75 2.54h.508v-2.032h-.509v2.032zm0 .508v1.016h.508v-1.016h-.509zm-1.02-.508h.51v-2.032h-.51zm0 .508v1.016h.51v-1.016zm-.508 0v-1.27h-.51v2.286h.51zm-1.528-.508v1.524h.51v-2.286h-.51v-.508h.51v-2.286h-.51zm-1.019 0h.51v-2.032h-.51zm0 .508v1.016h.51v-1.016zm-1.018-.508h.51v-2.032h-.51zm0 .508v1.016h.51v-1.016zm3.565-3.048v-1.016h-.51v2.286h.51zm1.527 0h.51v-1.016h-.51zm-1.018 0h.509v-1.016h-.51v1.016zm-3.056 0h.51v-1.016h-.51zm-1.018 0h.51v-1.016h-.51zm6.11-1.016v5.08h.51v.508h-7.639v-.508h.51v-5.08h-.51v-.508h7.639v.508z"/><path d="m.764 7.873h34.119v1.016h-34.119z"/><path d="m0 26.413h35.646v1.016h-35.646z"/><path d="m0 0h35.646v1.016h-35.646z"/><path d="m0 0h1.018v35.048h-1.018z"/><path d="m17.314.508h1.018v26.921h-1.018z"/><path d="m25.971 0h1.018v35.048h-1.018z"/><path d="m25.971 0h1.018v35.048h-1.018z"/><path d="m8.657 0h1.018v35.048h-1.018z"/><path d="m34.628 0h1.018v35.048h-1.018z"/></g></g><g transform="translate(89.625 2.54)"><path d="m1.018 1.016h33.609v25.397h-33.609z" fill="#2b3e51"/><path d="m3.2 13.968 1.383-2.574v-2.504h.51v2.505l1.383 2.574h2.181v.508h-2.167l-1.398 2.56v9.377h-.509v-9.34l-1.399-2.597h-2.166v-.508h2.182zm1.638-2.031-1.273 2.298 1.264 2.273 1.282-2.273zm7.019 2.031 1.383-2.574v-2.504h.51v2.505l1.383 2.574h2.181v.508h-2.167l-1.398 2.56v9.377h-.509v-9.34l-1.399-2.597h-2.166v-.508h2.182zm1.638-2.031-1.273 2.298 1.264 2.273 1.282-2.273zm7.019 2.031 1.383-2.574v-2.504h.51v2.505l1.383 2.574h2.181v.508h-2.167l-1.398 2.56v9.377h-.509v-9.34l-1.399-2.597h-2.166v-.508h2.182zm1.638-2.031-1.273 2.298 1.264 2.273 1.282-2.273zm7.019 2.031 1.383-2.574v-2.504h.51v2.505l1.383 2.574h2.181v.508h-2.167l-1.398 2.56v9.377h-.509v-9.34l-1.399-2.597h-2.165v-.508h2.182zm1.638-2.031-1.273 2.298 1.264 2.273 1.282-2.273z" fill="#e94b35"/><path d="m1.018 1.016h7.639v6.857h-7.639zm.51.508v5.841h6.62v-5.841zm.509 0h.51v5.841h-.51zm1.018 0h.51v5.841h-.51zm1.019 0h.51v5.841h-.51zm1.018 0h.51v5.841h-.51zm1.019 0h.51v5.841h-.51zm1.018 0h.51v5.841h-.51zm2.546-.508h7.639v6.857h-7.639zm.51.508v5.841h6.62v-5.841zm.509 0h.51v5.841h-.51zm1.018 0h.51v5.841h-.51zm1.019 0h.51v5.841h-.51zm1.018 0h.51v5.841h-.51zm1.019 0h.509v5.841h-.51v-5.841zm1.018 0h.51v5.841h-.51zm2.546-.508h7.639v6.857h-7.639zm.51.508v5.841h6.62v-5.841zm.509 0h.51v5.841h-.51zm1.018 0h.51v5.841h-.51zm1.019 0h.51v5.841h-.51zm1.018 0h.51v5.841h-.51zm1.019 0h.509v5.841h-.51v-5.841zm1.018 0h.51v5.841h-.51zm2.546-.508h7.639v6.857h-7.639zm.51.508v5.841h6.62v-5.841zm.509 0h.51v5.841h-.51zm1.018 0h.51v5.841h-.51zm1.019 0h.51v5.841h-.51zm1.018 0h.51v5.841h-.51zm1.019 0h.509v5.841h-.51v-5.841zm1.018 0h.51v5.841h-.51z" fill="#c23824"/><g fill="#e94b35"><path d="m7.13 32.508h.509v-2.032h-.51v2.032zm0 .508v1.016h.509v-1.016h-.51zm-1.02-.508h.51v-2.032h-.51zm0 .508v1.016h.51v-1.016zm-.508 0v-1.27h-.51v2.286h.51zm-1.528-.508v1.524h.51v-2.286h-.51v-.508h.51v-2.286h-.51zm-1.019 0h.51v-2.032h-.51zm0 .508v1.016h.51v-1.016zm-1.018-.508h.51v-2.032h-.51zm0 .508v1.016h.51v-1.016zm3.565-3.048v-1.016h-.51v2.286h.51zm1.527 0h.51v-1.016h-.51zm-1.018 0h.51v-1.016h-.51zm-3.056 0h.51v-1.016h-.51zm-1.018 0h.51v-1.016h-.51zm6.11-1.016v5.08h.51v.508h-7.639v-.508h.51v-5.08h-.51v-.508h7.639v.508zm6.112 3.556v-.762h-.51v2.286h-.509v-2.286h-.51v2.286h-.508v-1.016h-.51v1.016h-.509v-1.016h-.51v1.016h6.876v-1.016h.509v1.016h.764v-1.016h-.764zm0 .508h.509v1.016h-.51v-1.016zm.509-.508v-2.032h.509v2.032h.51v-2.032h.509v2.032h.509v-2.032h.764v2.032h.509v-2.032h.764v-.508h-.764v-1.016h.764v3.556h-.764zm.509.508h.51v1.016h-.51zm1.019 0h.509v1.016h-.51v-1.016zm-4.074-.508v-2.032h-.51v2.032zm-1.019 0v-2.032h-.51v2.032zm3.056-2.032v-1.524h.509v1.016h.509v-1.016h.51v1.016h.509v-1.016h.509v1.016h.764v-1.016h-6.875v1.016h.51v-1.016h.508v1.016h.51v-1.016h.509v2.286h.51v-2.286h.508v2.286h.51zm-4.074-1.524h-.51v-.508h16.296v.508h-.51v5.08h.51v.508h-16.296v-.508h.51zm14.258 3.556h.51v-2.032h-.51zm0 .508v1.016h.51v-1.016zm-1.018-.508h.509v-2.032h-.51v2.032zm0 .508v1.016h.509v-1.016h-.51zm-.51 0v-1.27h-.509v2.286h.51v-1.016zm-1.527-.508v1.524h.51v-2.286h-.51v-.508h.51v-2.286h-.51zm-1.019 0h.51v-2.032h-.51zm0 .508v1.016h.51v-1.016zm-1.018-.508h.51v-2.032h-.51zm0 .508v1.016h.51v-1.016zm3.565-3.048v-1.016h-.51v2.286h.51zm1.527 0h.51v-1.016h-.51zm-1.018 0h.509v-1.016h-.51v1.016zm-3.056 0h.51v-1.016h-.51zm-1.018 0h.51v-1.016h-.51zm13.75 2.54h.508v-2.032h-.509v2.032zm0 .508v1.016h.508v-1.016h-.509zm-1.02-.508h.51v-2.032h-.51zm0 .508v1.016h.51v-1.016zm-.508 0v-1.27h-.51v2.286h.51zm-1.528-.508v1.524h.51v-2.286h-.51v-.508h.51v-2.286h-.51zm-1.019 0h.51v-2.032h-.51zm0 .508v1.016h.51v-1.016zm-1.018-.508h.51v-2.032h-.51zm0 .508v1.016h.51v-1.016zm3.565-3.048v-1.016h-.51v2.286h.51zm1.527 0h.51v-1.016h-.51zm-1.018 0h.509v-1.016h-.51v1.016zm-3.056 0h.51v-1.016h-.51zm-1.018 0h.51v-1.016h-.51zm6.11-1.016v5.08h.51v.508h-7.639v-.508h.51v-5.08h-.51v-.508h7.639v.508z"/><path d="m.764 7.873h34.119v1.016h-34.119z"/><path d="m0 26.413h35.646v1.016h-35.646z"/><path d="m0 0h35.646v1.016h-35.646z"/><path d="m0 0h1.018v35.048h-1.018z"/><path d="m17.314.508h1.018v26.921h-1.018z"/><path d="m25.971 0h1.018v35.048h-1.018z"/><path d="m25.971 0h1.018v35.048h-1.018z"/><path d="m8.657 0h1.018v35.048h-1.018z"/><path d="m34.628 0h1.018v35.048h-1.018z"/></g></g><g transform="translate(49.396 2.54)"><path d="m1.018 1.016h33.609v25.397h-33.609z" fill="#2b3e51"/><path d="m3.2 13.968 1.383-2.574v-2.504h.51v2.505l1.383 2.574h2.181v.508h-2.167l-1.398 2.56v9.377h-.509v-9.34l-1.399-2.597h-2.166v-.508h2.182zm1.638-2.031-1.273 2.298 1.264 2.273 1.282-2.273zm7.019 2.031 1.383-2.574v-2.504h.51v2.505l1.383 2.574h2.181v.508h-2.167l-1.398 2.56v9.377h-.509v-9.34l-1.399-2.597h-2.166v-.508h2.182zm1.638-2.031-1.273 2.298 1.264 2.273 1.282-2.273zm7.019 2.031 1.383-2.574v-2.504h.51v2.505l1.383 2.574h2.181v.508h-2.167l-1.398 2.56v9.377h-.509v-9.34l-1.399-2.597h-2.166v-.508h2.182zm1.638-2.031-1.273 2.298 1.264 2.273 1.282-2.273zm7.019 2.031 1.383-2.574v-2.504h.51v2.505l1.383 2.574h2.181v.508h-2.167l-1.398 2.56v9.377h-.509v-9.34l-1.399-2.597h-2.165v-.508h2.182zm1.638-2.031-1.273 2.298 1.264 2.273 1.282-2.273z" fill="#e94b35"/><path d="m1.018 1.016h7.639v6.857h-7.639zm.51.508v5.841h6.62v-5.841zm.509 0h.51v5.841h-.51zm1.018 0h.51v5.841h-.51zm1.019 0h.51v5.841h-.51zm1.018 0h.51v5.841h-.51zm1.019 0h.51v5.841h-.51zm1.018 0h.51v5.841h-.51zm2.546-.508h7.639v6.857h-7.639zm.51.508v5.841h6.62v-5.841zm.509 0h.51v5.841h-.51zm1.018 0h.51v5.841h-.51zm1.019 0h.51v5.841h-.51zm1.018 0h.51v5.841h-.51zm1.019 0h.509v5.841h-.51v-5.841zm1.018 0h.51v5.841h-.51zm2.546-.508h7.639v6.857h-7.639zm.51.508v5.841h6.62v-5.841zm.509 0h.51v5.841h-.51zm1.018 0h.51v5.841h-.51zm1.019 0h.51v5.841h-.51zm1.018 0h.51v5.841h-.51zm1.019 0h.509v5.841h-.51v-5.841zm1.018 0h.51v5.841h-.51zm2.546-.508h7.639v6.857h-7.639zm.51.508v5.841h6.62v-5.841zm.509 0h.51v5.841h-.51zm1.018 0h.51v5.841h-.51zm1.019 0h.51v5.841h-.51zm1.018 0h.51v5.841h-.51zm1.019 0h.509v5.841h-.51v-5.841zm1.018 0h.51v5.841h-.51z" fill="#c23824"/><g fill="#e94b35"><path d="m7.13 32.508h.509v-2.032h-.51v2.032zm0 .508v1.016h.509v-1.016h-.51zm-1.02-.508h.51v-2.032h-.51zm0 .508v1.016h.51v-1.016zm-.508 0v-1.27h-.51v2.286h.51zm-1.528-.508v1.524h.51v-2.286h-.51v-.508h.51v-2.286h-.51zm-1.019 0h.51v-2.032h-.51zm0 .508v1.016h.51v-1.016zm-1.018-.508h.51v-2.032h-.51zm0 .508v1.016h.51v-1.016zm3.565-3.048v-1.016h-.51v2.286h.51zm1.527 0h.51v-1.016h-.51zm-1.018 0h.51v-1.016h-.51zm-3.056 0h.51v-1.016h-.51zm-1.018 0h.51v-1.016h-.51zm6.11-1.016v5.08h.51v.508h-7.639v-.508h.51v-5.08h-.51v-.508h7.639v.508zm6.112 3.556v-.762h-.51v2.286h-.509v-2.286h-.51v2.286h-.508v-1.016h-.51v1.016h-.509v-1.016h-.51v1.016h6.876v-1.016h-.764v1.016h-.51v-1.016h-.509v1.016h-.509v-1.016h-.51v1.016h-.508zm.509 0h.509v-2.032h-.51v2.032zm1.018 0h.51v-2.032h-.51zm1.019 0h.764v-2.032h-.764zm2.037 0v-3.556h-.764v1.016h.764v.508h-.764v2.032zm0 .508h-.764v1.016h.764zm-6.62-.508v-2.032h-.51v2.032zm-1.019 0v-2.032h-.51v2.032zm3.056-2.032v-1.524h.509v1.016h.509v-1.016h.51v1.016h.509v-1.016h.509v1.016h.764v-1.016h-6.875v1.016h.51v-1.016h.508v1.016h.51v-1.016h.509v2.286h.51v-2.286h.508v2.286h.51zm-4.074-1.524h-.51v-.508h16.296v.508h-.51v5.08h.51v.508h-16.296v-.508h.51zm14.258 3.556h.51v-2.032h-.51zm0 .508v1.016h.51v-1.016zm-1.018-.508h.509v-2.032h-.51v2.032zm0 .508v1.016h.509v-1.016h-.51zm-.51 0v-1.27h-.509v2.286h.51v-1.016zm-1.527-.508v1.524h.51v-2.286h-.51v-.508h.51v-2.286h-.51zm-1.019 0h.51v-2.032h-.51zm0 .508v1.016h.51v-1.016zm-1.018-.508h.51v-2.032h-.51zm0 .508v1.016h.51v-1.016zm3.565-3.048v-1.016h-.51v2.286h.51zm1.527 0h.51v-1.016h-.51zm-1.018 0h.509v-1.016h-.51v1.016zm-3.056 0h.51v-1.016h-.51zm-1.018 0h.51v-1.016h-.51zm13.75 2.54h.508v-2.032h-.509v2.032zm0 .508v1.016h.508v-1.016h-.509zm-1.02-.508h.51v-2.032h-.51zm0 .508v1.016h.51v-1.016zm-.508 0v-1.27h-.51v2.286h.51zm-1.528-.508v1.524h.51v-2.286h-.51v-.508h.51v-2.286h-.51zm-1.019 0h.51v-2.032h-.51zm0 .508v1.016h.51v-1.016zm-1.018-.508h.51v-2.032h-.51zm0 .508v1.016h.51v-1.016zm3.565-3.048v-1.016h-.51v2.286h.51zm1.527 0h.51v-1.016h-.51zm-1.018 0h.509v-1.016h-.51v1.016zm-3.056 0h.51v-1.016h-.51zm-1.018 0h.51v-1.016h-.51zm6.11-1.016v5.08h.51v.508h-7.639v-.508h.51v-5.08h-.51v-.508h7.639v.508z"/><path d="m.764 7.873h34.119v1.016h-34.119z"/><path d="m0 26.413h35.646v1.016h-35.646z"/><path d="m0 0h35.646v1.016h-35.646z"/><path d="m0 0h1.018v35.048h-1.018z"/><path d="m17.314.508h1.018v26.921h-1.018z"/><path d="m25.971 0h1.018v35.048h-1.018z"/><path d="m25.971 0h1.018v35.048h-1.018z"/><path d="m8.657 0h1.018v35.048h-1.018z"/><path d="m34.628 0h1.018v35.048h-1.018z"/></g></g><g transform="translate(9.166 2.54)"><path d="m1.018 1.016h33.609v25.397h-33.609z" fill="#2b3e51"/><path d="m3.2 13.968 1.383-2.574v-2.504h.51v2.505l1.383 2.574h2.181v.508h-2.167l-1.398 2.56v9.377h-.509v-9.34l-1.399-2.597h-2.166v-.508h2.182zm1.638-2.031-1.273 2.298 1.264 2.273 1.282-2.273zm7.019 2.031 1.383-2.574v-2.504h.51v2.505l1.383 2.574h2.181v.508h-2.167l-1.398 2.56v9.377h-.509v-9.34l-1.399-2.597h-2.166v-.508h2.182zm1.638-2.031-1.273 2.298 1.264 2.273 1.282-2.273zm7.019 2.031 1.383-2.574v-2.504h.51v2.505l1.383 2.574h2.181v.508h-2.167l-1.398 2.56v9.377h-.509v-9.34l-1.399-2.597h-2.166v-.508h2.182zm1.638-2.031-1.273 2.298 1.264 2.273 1.282-2.273zm7.019 2.031 1.383-2.574v-2.504h.51v2.505l1.383 2.574h2.181v.508h-2.167l-1.398 2.56v9.377h-.509v-9.34l-1.399-2.597h-2.165v-.508h2.182zm1.638-2.031-1.273 2.298 1.264 2.273 1.282-2.273z" fill="#e94b35"/><path d="m1.018 1.016h7.639v6.857h-7.639zm.51.508v5.841h6.62v-5.841zm.509 0h.51v5.841h-.51zm1.018 0h.51v5.841h-.51zm1.019 0h.51v5.841h-.51zm1.018 0h.51v5.841h-.51zm1.019 0h.51v5.841h-.51zm1.018 0h.51v5.841h-.51zm2.546-.508h7.639v6.857h-7.639zm.51.508v5.841h6.62v-5.841zm.509 0h.51v5.841h-.51zm1.018 0h.51v5.841h-.51zm1.019 0h.51v5.841h-.51zm1.018 0h.51v5.841h-.51zm1.019 0h.509v5.841h-.51v-5.841zm1.018 0h.51v5.841h-.51zm2.546-.508h7.639v6.857h-7.639zm.51.508v5.841h6.62v-5.841zm.509 0h.51v5.841h-.51zm1.018 0h.51v5.841h-.51zm1.019 0h.51v5.841h-.51zm1.018 0h.51v5.841h-.51zm1.019 0h.509v5.841h-.51v-5.841zm1.018 0h.51v5.841h-.51zm2.546-.508h7.639v6.857h-7.639zm.51.508v5.841h6.62v-5.841zm.509 0h.51v5.841h-.51zm1.018 0h.51v5.841h-.51zm1.019 0h.51v5.841h-.51zm1.018 0h.51v5.841h-.51zm1.019 0h.509v5.841h-.51v-5.841zm1.018 0h.51v5.841h-.51z" fill="#c23824"/><g fill="#e94b35"><path d="m7.13 32.508h.509v-2.032h-.51v2.032zm0 .508v1.016h.509v-1.016h-.51zm-1.02-.508h.51v-2.032h-.51zm0 .508v1.016h.51v-1.016zm-.508 0v-1.27h-.51v2.286h.51zm-1.528-.508v1.524h.51v-2.286h-.51v-.508h.51v-2.286h-.51zm-1.019 0h.51v-2.032h-.51zm0 .508v1.016h.51v-1.016zm-1.018-.508h.51v-2.032h-.51zm0 .508v1.016h.51v-1.016zm3.565-3.048v-1.016h-.51v2.286h.51zm1.527 0h.51v-1.016h-.51zm-1.018 0h.51v-1.016h-.51zm-3.056 0h.51v-1.016h-.51zm-1.018 0h.51v-1.016h-.51zm6.11-1.016v5.08h.51v.508h-7.639v-.508h.51v-5.08h-.51v-.508h7.639v.508zm6.112 3.556v-.762h-.51v2.286h-.509v-2.286h-.51v2.286h-.508v-1.016h-.51v1.016h-.509v-1.016h-.51v1.016h6.876v-1.016h.509v1.016h.764v-1.016h-.764zm0 .508h.509v1.016h-.51v-1.016zm.509-.508v-2.032h.509v2.032h.51v-2.032h.509v2.032h.509v-2.032h.764v2.032h.509v-2.032h.764v-.508h-.764v-1.016h.764v3.556h-.764zm.509.508h.51v1.016h-.51zm1.019 0h.509v1.016h-.51v-1.016zm-4.074-.508v-2.032h-.51v2.032zm-1.019 0v-2.032h-.51v2.032zm3.056-2.032v-1.524h.509v1.016h.509v-1.016h.51v1.016h.509v-1.016h.509v1.016h.764v-1.016h-6.875v1.016h.51v-1.016h.508v1.016h.51v-1.016h.509v2.286h.51v-2.286h.508v2.286h.51zm-4.074-1.524h-.51v-.508h16.296v.508h-.51v5.08h.51v.508h-16.296v-.508h.51zm14.258 3.556h.51v-2.032h-.51zm0 .508v1.016h.51v-1.016zm-1.018-.508h.509v-2.032h-.51v2.032zm0 .508v1.016h.509v-1.016h-.51zm-.51 0v-1.27h-.509v2.286h.51v-1.016zm-1.527-.508v1.524h.51v-2.286h-.51v-.508h.51v-2.286h-.51zm-1.019 0h.51v-2.032h-.51zm0 .508v1.016h.51v-1.016zm-1.018-.508h.51v-2.032h-.51zm0 .508v1.016h.51v-1.016zm3.565-3.048v-1.016h-.51v2.286h.51zm1.527 0h.51v-1.016h-.51zm-1.018 0h.509v-1.016h-.51v1.016zm-3.056 0h.51v-1.016h-.51zm-1.018 0h.51v-1.016h-.51zm13.75 2.54h.508v-2.032h-.509v2.032zm0 .508v1.016h.508v-1.016h-.509zm-1.02-.508h.51v-2.032h-.51zm0 .508v1.016h.51v-1.016zm-.508 0v-1.27h-.51v2.286h.51zm-1.528-.508v1.524h.51v-2.286h-.51v-.508h.51v-2.286h-.51zm-1.019 0h.51v-2.032h-.51zm0 .508v1.016h.51v-1.016zm-1.018-.508h.51v-2.032h-.51zm0 .508v1.016h.51v-1.016zm3.565-3.048v-1.016h-.51v2.286h.51zm1.527 0h.51v-1.016h-.51zm-1.018 0h.509v-1.016h-.51v1.016zm-3.056 0h.51v-1.016h-.51zm-1.018 0h.51v-1.016h-.51zm6.11-1.016v5.08h.51v.508h-7.639v-.508h.51v-5.08h-.51v-.508h7.639v.508z"/><path d="m.764 7.873h34.119v1.016h-34.119z"/><path d="m0 26.413h35.646v1.016h-35.646z"/><path d="m0 0h35.646v1.016h-35.646z"/><path d="m0 0h1.018v35.048h-1.018z"/><path d="m17.314.508h1.018v26.921h-1.018z"/><path d="m25.971 0h1.018v35.048h-1.018z"/><path d="m25.971 0h1.018v35.048h-1.018z"/><path d="m8.657 0h1.018v35.048h-1.018z"/><path d="m34.628 0h1.018v35.048h-1.018z"/></g></g><path d="m0 0h170.084v2.54h-170.084z" fill="#c23824"/><path d="m0 37.587h170.084v2.032h-170.084z" fill="#fff"/><path d="m2.037 39.619h168.047v5.079h-168.047z" fill="#ecf0f1"/><g fill="#fff"><path d="m4.583 44.698h165.501v5.079h-165.501z"/><path d="m4.583 2.54h4.583v35.048h-4.583z"/><path d="m44.813 2.54h4.583v35.048h-4.583z"/><path d="m85.042 2.54h4.583v35.048h-4.583z"/><path d="m125.272 2.54h4.583v35.048h-4.583z"/></g><path d="m165.501 2.54h4.583v35.048h-4.583z" fill="#ecf0f1"/><g transform="translate(14.259 54.857)"><use fill="#2b3e51" xlink:href="#e"/><path d="m8.148 11.429h9.166v-11.429h2.037v11.429h6.365v2.031h-3.564v13.207h3.564v1.016h-3.564v3.555h3.564v1.016h-3.564v5.587h-1.019v-5.587h-3.31v5.841h-1.018v-5.841h-3.565v5.587h-1.018v-5.587h-3.565v5.841h-1.018v-5.841h-3.31v5.587h-1.019v-5.587h-3.565v-1.016h3.565v-3.555h-3.565v-1.016h3.565v-13.207h-3.565v-2.03h6.366v-11.43h2.037zm12.985 2.031h-7.893v13.207h7.893zm0 14.223h-3.31v3.555h3.31zm-4.328 3.555v-3.555h-3.565v3.555zm-8.148-4.571h3.565v-13.207h-7.894v13.207zm-1.018 4.571v-3.555h-3.31v3.555zm1.018 0h3.565v-3.555h-3.565z" fill="#c23824" mask="url(#l)"/></g><g transform="translate(54.488 54.857)"><use fill="#2b3e51" xlink:href="#f"/><path d="m8.148 11.429h9.166v-11.429h2.037v11.429h6.365v2.031h-3.564v13.207h3.564v1.016h-3.564v3.555h3.564v1.016h-3.564v5.587h-1.019v-5.587h-3.31v5.841h-1.018v-5.841h-3.565v5.587h-1.018v-5.587h-3.565v5.841h-1.018v-5.841h-3.31v5.587h-1.019v-5.587h-3.565v-1.016h3.565v-3.555h-3.565v-1.016h3.565v-13.207h-3.565v-2.03h6.366v-11.43h2.037zm12.985 2.031h-7.893v13.207h7.893zm0 14.223h-3.31v3.555h3.31zm-4.328 3.555v-3.555h-3.565v3.555zm-8.148-4.571h3.565v-13.207h-7.894v13.207zm-1.018 4.571v-3.555h-3.31v3.555zm1.018 0h3.565v-3.555h-3.565z" fill="#c23824" mask="url(#m)"/></g><g transform="translate(94.718 54.857)"><use fill="#2b3e51" xlink:href="#g"/><path d="m8.148 11.429h9.166v-11.429h2.037v11.429h6.365v2.031h-3.564v13.207h3.564v1.016h-3.564v3.555h3.564v1.016h-3.564v5.587h-1.019v-5.587h-3.31v5.841h-1.018v-5.841h-3.565v5.587h-1.018v-5.587h-3.565v5.841h-1.018v-5.841h-3.31v5.587h-1.019v-5.587h-3.565v-1.016h3.565v-3.555h-3.565v-1.016h3.565v-13.207h-3.565v-2.03h6.366v-11.43h2.037zm12.985 2.031h-7.893v13.207h7.893zm0 14.223h-3.31v3.555h3.31zm-4.328 3.555v-3.555h-3.565v3.555zm-8.148-4.571h3.565v-13.207h-7.894v13.207zm-1.018 4.571v-3.555h-3.31v3.555zm1.018 0h3.565v-3.555h-3.565z" fill="#c23824" mask="url(#n)"/></g></g><g fill="#fff"><path d="m165.756 67.81h5.602v45.714h-5.602z"/><path d="m214.897 67.81h5.602v45.714h-5.602z"/><path d="m174.922 74.159h2.292v9.143h-2.292z"/><path d="m194.273 74.159h2.292v9.143h-2.292z"/><path d="m184.598 74.159h2.292v9.143h-2.292z"/><path d="m203.949 74.159h2.292v9.143h-2.292z"/><path d="m179.76 74.159h2.292v9.143h-2.292z"/><path d="m199.111 74.159h2.292v9.143h-2.292z"/><path d="m189.435 74.159h2.292v9.143h-2.292z"/><path d="m208.786 74.159h2.292v9.143h-2.292z"/><path d="m171.103 71.365h43.794v2.794h-43.794z"/><path d="m171.103 83.302h43.794v2.794h-43.794z"/></g><path d="m180.527 112.095a19.888 19.888 0 0 1 -.003-.335c0-8.704 5.7-15.76 12.73-15.76 7.032 0 12.731 7.056 12.731 15.76 0 .112 0 .223-.002.335h.002v31.868h-25.461v-31.868z" fill="#2b3e51"/><g transform="translate(119.67 85.587)"><path d="m32.591029 38.0952381h19.9452791l5.0072275 20.3174603h-24.9525066z" fill="#ecf0f1"/><g transform="translate(7.639 2.54)"><path d="m2.801 20.317h35.646v2.54h-35.646z" fill="#bdc3c7"/><path d="m.255 25.397h38.193v2.54h-38.193z" fill="#bdc3c7"/><path d="m.255 30.476h39.72v2.54h-39.72z" fill="#bdc3c7"/><path d="m.255 35.556h41.503v2.54h-41.503z" fill="#bdc3c7"/><path d="m0 40.635h43.285v2.54h-43.285z" fill="#bdc3c7"/><path d="m0 45.714h45.322v2.54h-45.322z" fill="#bdc3c7"/><path d="m0 50.794h46.595v2.54h-46.595z" fill="#bdc3c7"/><g fill="#94a5a6"><path d="m.255 22.857h38.193v2.54h-38.193z"/><path d="m.255 27.937h38.193v2.54h-38.193z"/><path d="m.255 33.016h40.484v2.54h-40.484z"/><path d="m0 38.095h42.521v2.54h-42.521z"/><path d="m0 43.175h44.049v2.54h-44.049z"/><path d="m0 48.254h46.086v2.54h-46.086z"/><path d="m0 53.333h47.613v2.54h-47.613z"/><path d="m6.365 17.778h32.082v2.54h-32.082z"/></g><path d="m9.93 15.238h28.517v2.54h-28.517z" fill="#bdc3c7"/><path d="m14.513 12.698h23.934v2.54h-23.934z" fill="#94a5a6"/><path d="m19.351 10.159h19.096v2.54h-19.096z" fill="#bdc3c7"/><path d="m24.953 7.619h13.495v2.54h-13.495z" fill="#94a5a6"/><path d="m30.045 5.079h8.402v2.54h-8.402z" fill="#bdc3c7"/><path d="m33.864 2.54h4.583v2.54h-4.583z" fill="#94a5a6"/><path d="m36.156 0h2.292v2.54h-2.292z" fill="#bdc3c7"/></g><g fill="#fff"><path d="m46.085752 27.9365079h5.6015831l10.6939314 30.4761905h-6.110818z"/><path d="m0 20.3174603h5.60158311l18.33245379 20.3174603h-6.1108179z"/><path d="m0 38.0952381 2.71850726-4.0447499 21.21552964 24.3622102h-6.1108179z"/><path d="m33.1002639 0h3.0554089l-19.0717542 10.142404-11.48233549 10.1750563h-5.60158311l14.3607504-11.23731992z"/><path d="m33.1002639 5.07936508h3.0554089l-30.55408969 20.31746032-1.73236521-1.6507937z"/><path d="m17.823 40.635h6.111v17.778h-6.111z"/><path d="m11.967 31.492h3.055v17.778h-3.055z"/><path d="m5.856 25.651h3.055v17.778h-3.055z"/><path d="m7.893 15.238h2.037v6.349h-2.037z"/><path d="m11.967 12.19h2.037v6.349h-2.037z"/><path d="m16.041 10.159h2.037v6.349h-2.037z"/><path d="m20.115 7.111h2.037v6.349h-2.037z"/><path d="m24.189 5.079h2.037v6.349h-2.037z"/><path d="m28.263 2.54h2.037v6.349h-2.037z"/><path d="m33.1 0h3.055v5.079h-3.055z"/><path d="m0 20.317h3.055v17.778h-3.055z"/></g></g><g transform="matrix(-1 0 0 1 266.584 85.587)"><path d="m32.591029 38.0952381h19.9452791l5.0072275 20.3174603h-24.9525066z" fill="#ecf0f1"/><g transform="translate(7.639 2.54)"><path d="m2.801 20.317h35.646v2.54h-35.646z" fill="#bdc3c7"/><path d="m.255 25.397h38.193v2.54h-38.193z" fill="#bdc3c7"/><path d="m.255 30.476h39.72v2.54h-39.72z" fill="#bdc3c7"/><path d="m.255 35.556h41.503v2.54h-41.503z" fill="#bdc3c7"/><path d="m0 40.635h43.285v2.54h-43.285z" fill="#bdc3c7"/><path d="m0 45.714h45.322v2.54h-45.322z" fill="#bdc3c7"/><path d="m0 50.794h46.595v2.54h-46.595z" fill="#bdc3c7"/><g fill="#94a5a6"><path d="m.255 22.857h38.193v2.54h-38.193z"/><path d="m.255 27.937h38.193v2.54h-38.193z"/><path d="m.255 33.016h40.484v2.54h-40.484z"/><path d="m0 38.095h42.521v2.54h-42.521z"/><path d="m0 43.175h44.049v2.54h-44.049z"/><path d="m0 48.254h46.086v2.54h-46.086z"/><path d="m0 53.333h47.613v2.54h-47.613z"/><path d="m6.365 17.778h32.082v2.54h-32.082z"/></g><path d="m9.93 15.238h28.517v2.54h-28.517z" fill="#bdc3c7"/><path d="m14.513 12.698h23.934v2.54h-23.934z" fill="#94a5a6"/><path d="m19.351 10.159h19.096v2.54h-19.096z" fill="#bdc3c7"/><path d="m24.953 7.619h13.495v2.54h-13.495z" fill="#94a5a6"/><path d="m30.045 5.079h8.402v2.54h-8.402z" fill="#bdc3c7"/><path d="m33.864 2.54h4.583v2.54h-4.583z" fill="#94a5a6"/><path d="m36.156 0h2.292v2.54h-2.292z" fill="#bdc3c7"/></g><g fill="#fff"><path d="m46.085752 27.9365079h5.6015831l10.6939314 30.4761905h-6.110818z"/><path d="m0 20.3174603h5.60158311l18.33245379 20.3174603h-6.1108179z"/><path d="m0 38.0952381 2.71850726-4.0447499 21.21552964 24.3622102h-6.1108179z"/><path d="m33.1002639 0h3.0554089l-19.0717542 10.142404-11.48233549 10.1750563h-5.60158311l14.3607504-11.23731992z"/><path d="m33.1002639 5.07936508h3.0554089l-30.55408969 20.31746032-1.73236521-1.6507937z"/><path d="m17.823 40.635h6.111v17.778h-6.111z"/><path d="m11.967 31.492h3.055v17.778h-3.055z"/><path d="m5.856 25.651h3.055v17.778h-3.055z"/><path d="m7.893 15.238h2.037v6.349h-2.037z"/><path d="m11.967 12.19h2.037v6.349h-2.037z"/><path d="m16.041 10.159h2.037v6.349h-2.037z"/><path d="m20.115 7.111h2.037v6.349h-2.037z"/><path d="m24.189 5.079h2.037v6.349h-2.037z"/><path d="m28.263 2.54h2.037v6.349h-2.037z"/><path d="m33.1 0h3.055v5.079h-3.055z"/><path d="m0 20.317h3.055v17.778h-3.055z"/></g></g><path d="m160.918206 44.952381h66.200528l5.092348 5.079365h-76.385224z" fill="#f59d00"/><path d="m121.453 5.08h137.493l54.488 34.793s-80.326 3.702-119.416 3.702c-39.089 0-121.452-3.702-121.452-3.702l48.887-34.794z" fill="#f59d00"/><path d="m72.5659631 39.8730159h240.8680739l72.565963 7.6190476h-386z" fill="#f59d00"/><path d="m170.084 57.143h45.831v2.032h-45.831z" fill="#c23824"/><path d="m0 42.413 2.546 5.08h-2.546zm2.546 0 2.546 5.08h-2.546zm70.02-7.62 2.546 5.08h-2.546zm2.546 0 2.546 5.08h-2.546zm46.34-34.793 2.548 5.08h-2.546v-5.08zm2.548 0 2.546 5.08h-2.546zm2.546 0 2.546 5.08h-2.546z" fill="#f59d00"/><path d="m258.946 0-2.546 5.08h2.546zm-2.546 0-2.546 5.08h2.546zm-2.546 0-2.547 5.08h2.547z" fill="#f59d00"/><path d="m386 42.413-2.546 5.08h2.546zm-2.546 0-2.546 5.08h2.546z" fill="#f59d00"/><path d="m313.434 34.794-2.546 5.079h2.546v-5.08zm-2.546 0-2.546 5.079h2.546v-5.08z" fill="#f59d00"/><path d="m186.635 2.54 2.546 2.54h-2.546zm2.546 0 2.546 2.54h-2.546zm3.819-2.54 1.273 5.08h-2.546zm3.82 2.54v2.54h-2.547l2.546-2.54zm2.545 0v2.54h-2.546z" fill="#f59d00"/></g></g></svg>