<svg height="600" width="600" xmlns="http://www.w3.org/2000/svg" xmlns:xlink="http://www.w3.org/1999/xlink"><defs><circle id="a" cx="225" cy="225" r="225"/><mask id="b" fill="#fff"><use fill="#fff" fill-rule="evenodd" xlink:href="#a"/></mask></defs><g fill="none" fill-rule="evenodd"><g transform="translate(76 75)"><use fill="#2c97de" xlink:href="#a"/><path d="m28 349h397v131h-397z" fill="#1fce6d" mask="url(#b)"/><g fill="#fff" transform="translate(3 40)"><path d="m16 37h80v22h-80z"/><circle cx="95" cy="45" r="14"/><circle cx="15.5" cy="43.5" r="15.5"/><circle cx="69.5" cy="29.5" r="29.5"/><circle cx="32.5" cy="31.5" r="11.5"/></g><g fill="#fff" transform="translate(341 69)"><path d="m16 37h80v22h-80z"/><circle cx="95" cy="45" r="14"/><circle cx="15.5" cy="43.5" r="15.5"/><circle cx="69.5" cy="29.5" r="29.5"/><circle cx="32.5" cy="31.5" r="11.5"/></g><g fill="#ffe500" stroke="#fff" stroke-linecap="round" stroke-linejoin="round" stroke-width="5"><path d="m36.314 1.5h65.172m-101.486 0h12.283" transform="translate(36 112)"/><path d="m26.314 1.5h65.172m-91.486 0h12.283" transform="translate(325 141)"/><path d="m12.592 1h46.045m-58.194 0h2.235" transform="translate(312 26)"/></g></g><g transform="translate(143 31)"><g transform="translate(0 185.362)"><path d="m7.965 69.213h131.42v138.425h-131.42z" fill="#ecf0f1"/><path d="m177.616 69.213h131.42v138.425h-131.42z" fill="#ecf0f1"/><path d="m7.965 151.949h301.867v55.688h-301.867z" fill="#bdc3c7"/><g transform="translate(208.678 13.524)"><path d="m0 0h100.357v138.425h-100.357z" fill="#ecf0f1"/><path d="m0 131.265h20.709v3.182h-20.709zm0-7.955h20.709v3.182h-20.709zm0-7.956h20.709v3.182h-20.709zm0-7.955h20.709v3.182h-20.709zm79.648 23.866h20.709v3.182h-20.709zm0-7.955h20.709v3.182h-20.709zm0-7.956h20.709v3.182h-20.709zm0-7.955h20.709v3.182h-20.709z" fill="#fff"/><path d="m19.912 44.551h7.965v93.874h-7.965z" fill="#fff"/><path d="m72.48 44.551h7.965v93.874h-7.965z" fill="#fff"/><path d="m0 18.298h108.322v4.773h-108.322z" fill="#2b3e51"/><path d="m0 28.64h100.357v1.591h-100.357z" fill="#bdc3c7"/><path d="m0 36.595h100.357v7.955h-100.357z" fill="#fff"/><path d="m0 54.097h27.877v1h-27.877z" fill="#bdc3c7"/><path d="m0 54.097h27.877v1h-27.877z" fill="#fff"/><path d="m72.48 54.097h27.877v1h-27.877z" fill="#fff"/><path d="m61.33 122.514h7.964v11.138h-7.965v-11.138zm-9.559 0h7.965v11.138h-7.965zm9.558-12.729h7.965v11.138h-7.965zm-9.558 0h7.965v11.138h-7.965zm9.558-12.728h7.965v11.137h-7.965zm-9.558 0h7.965v11.137h-7.965zm9.558-12.73h7.965v11.139h-7.965v-11.138zm-9.558 0h7.965v11.139h-7.965v-11.138zm-11.15 38.187h7.964v11.138h-7.964zm-9.558 0h7.965v11.138h-7.965zm9.558-12.729h7.964v11.138h-7.964zm-9.558 0h7.965v11.138h-7.965zm9.558-12.728h7.964v11.137h-7.964zm-9.558 0h7.965v11.137h-7.965zm9.558-12.73h7.964v11.139h-7.964v-11.138zm-9.558 0h7.965v11.139h-7.965v-11.138zm.004-3.384a18.642 18.642 0 0 1 -.004-.398c0-10.325 8.558-18.695 19.115-18.695 10.558 0 19.116 8.37 19.116 18.695 0 .133-.001.265-.004.398z" fill="#2c97de"/><path d="m19.912 132.856h7.965v3.182h-7.965zm0-7.955h7.965v3.182h-7.965zm0-7.956h7.965v3.183h-7.965zm0-7.955h7.965v3.182h-7.965zm52.568 23.866h7.965v3.182h-7.965zm0-7.955h7.965v3.182h-7.965zm0-7.956h7.965v3.183h-7.965zm0-7.955h7.965v3.182h-7.965z" fill="#ecf0f1"/><g fill="#fff"><path d="m23.098 0h4.779v18.298h-4.779z"/><path d="m72.48 0h4.779v18.298h-4.779z"/><path d="m32.656 0h3.186v18.298h-3.186zm12.743 0h3.186v18.298h-3.185v-18.298zm12.744 0h3.186v18.298h-3.186zm-19.115 0h3.186v18.298h-3.186zm12.742 0h3.186v18.298h-3.186zm12.744 0h3.186v18.298h-3.186z"/><path d="m0 0h100.357v4.773h-100.357z"/></g></g><g transform="translate(0 13.524)"><path d="m7.965 0h100.357v138.425h-100.357z" fill="#ecf0f1"/><path d="m7.965 131.265h20.708v3.182h-20.708zm0-7.955h20.708v3.182h-20.708zm0-7.956h20.708v3.182h-20.708zm0-7.955h20.708v3.182h-20.708zm79.648 23.866h20.709v3.182h-20.709zm0-7.955h20.709v3.182h-20.709zm0-7.956h20.709v3.182h-20.709zm0-7.955h20.709v3.182h-20.709z" fill="#fff"/><path d="m27.877 44.551h7.965v93.874h-7.965z" fill="#fff"/><path d="m80.445 44.551h7.965v93.874h-7.965z" fill="#fff"/><path d="m0 18.298h108.322v4.773h-108.322z" fill="#2b3e51"/><path d="m7.965 28.64h100.357v1.591h-100.357z" fill="#bdc3c7"/><path d="m7.965 36.595h100.357v7.955h-100.357z" fill="#fff"/><path d="m7.965 54.097h27.877v1h-27.877z" fill="#bdc3c7"/><path d="m7.965 54.097h27.877v1h-27.877z" fill="#fff"/><path d="m80.445 54.097h27.877v1h-27.877z" fill="#fff"/><path d="m69.294 122.514h7.965v11.138h-7.965zm-9.558 0h7.965v11.138h-7.965zm9.558-12.729h7.965v11.138h-7.965zm-9.558 0h7.965v11.138h-7.965zm9.558-12.728h7.965v11.137h-7.965zm-9.558 0h7.965v11.137h-7.965zm9.558-12.73h7.965v11.139h-7.965v-11.138zm-9.558 0h7.965v11.139h-7.965v-11.138zm-11.15 38.187h7.964v11.138h-7.965v-11.138zm-9.558 0h7.964v11.138h-7.964zm9.557-12.729h7.965v11.138h-7.965zm-9.557 0h7.964v11.138h-7.964zm9.557-12.728h7.965v11.137h-7.965zm-9.557 0h7.964v11.137h-7.964zm9.557-12.73h7.965v11.139h-7.965v-11.138zm-9.557 0h7.964v11.139h-7.964v-11.138zm.004-3.384a18.642 18.642 0 0 1 -.004-.398c0-10.325 8.558-18.695 19.115-18.695s19.116 8.37 19.116 18.695c0 .133-.002.265-.004.398z" fill="#2c97de"/><path d="m27.877 132.856h7.965v3.182h-7.965zm0-7.955h7.965v3.182h-7.965zm0-7.956h7.965v3.183h-7.965zm0-7.955h7.965v3.182h-7.965zm52.568 23.866h7.965v3.182h-7.965zm0-7.955h7.965v3.182h-7.965zm0-7.956h7.965v3.183h-7.965zm0-7.955h7.965v3.182h-7.965z" fill="#ecf0f1"/><g fill="#fff"><path d="m31.063 0h4.779v18.298h-4.779z"/><path d="m80.445 0h4.779v18.298h-4.779z"/><path d="m40.62 0h3.187v18.298h-3.187zm12.744 0h3.186v18.298h-3.186zm12.744 0h3.186v18.298h-3.186zm-19.116 0h3.186v18.298h-3.186zm12.744 0h3.186v18.298h-3.186zm12.744 0h3.186v18.298h-3.186z"/><path d="m7.965 0h100.357v4.773h-100.357z"/></g></g><path d="m108.322 2.387h100.357v149.563h-100.357z" fill="#ecf0f1"/><path d="m139.389 94.67a18.64 18.64 0 0 1 -.005-.398c0-10.325 8.559-18.695 19.116-18.695s19.116 8.37 19.116 18.695c0 .133-.002.266-.005.398h-38.221z" fill="#2b3e51"/><path d="m108.322 38.982h100.357v7.955h-100.357z" fill="#fff"/><path d="m108.322 31.026h100.357v1.591h-100.357z" fill="#bdc3c7"/><path d="m108.322 0h100.357v4.773h-100.357z" fill="#fff"/><path d="m100.357 20.684h116.286v4.773h-116.286z" fill="#2b3e51"/><g transform="translate(108.322 46.937)"><path d="m0 0h11.151v105.012h-11.151z" fill="#fff"/><path d="m0 97.852h11.15v3.182h-11.15zm0-7.955h11.15v3.182h-11.15zm0-7.956h11.15v3.182h-11.15zm0-7.955h11.15v3.182h-11.15z" fill="#ecf0f1"/></g><g transform="translate(181.598 46.937)"><path d="m0 0h11.151v105.012h-11.151z" fill="#fff"/><path d="m0 97.852h11.15v3.182h-11.15zm0-7.955h11.15v3.182h-11.15zm0-7.956h11.15v3.182h-11.15zm0-7.955h11.15v3.182h-11.15z" fill="#ecf0f1"/></g><g transform="translate(124.251 46.937)"><path d="m0 0h11.151v105.012h-11.151z" fill="#fff"/><path d="m0 97.852h11.15v3.182h-11.15zm0-7.955h11.15v3.182h-11.15zm0-7.956h11.15v3.182h-11.15zm0-7.955h11.15v3.182h-11.15z" fill="#ecf0f1"/></g><g transform="translate(197.528 46.937)"><path d="m0 0h11.151v105.012h-11.151z" fill="#fff"/><path d="m0 97.852h11.15v3.182h-11.15zm0-7.955h11.15v3.182h-11.15zm0-7.956h11.15v3.182h-11.15zm0-7.955h11.15v3.182h-11.15z" fill="#ecf0f1"/></g><path d="m139.384 94.67h38.231v76.372h-38.231z" fill="#2b3e51"/></g><g fill="#fff" transform="translate(102.746 335.72)"><path d="m23.894 17.502h63.72l23.894 23.866s-37.353 8.522-55.754 8.522c-18.402 0-55.754-8.522-55.754-8.522z"/><path d="m108.322 23.866-20.709-20.684h-63.719l-20.708 20.684h-3.186l23.894-23.866h63.72l23.894 23.866z"/><path d="m0 23.866h3.186v17.502h-3.186z"/><path d="m23.894.796h3.186v17.502h-3.186z"/><path d="m84.427.796h3.186v17.502h-3.186z"/><path d="m73.276.796h3.186v17.502h-3.186z"/><path d="m35.045 0h3.186v17.502h-3.186z"/><path d="m46.196 0h3.186v17.502h-3.186z"/><path d="m62.126 0h3.186v17.502h-3.186z"/><path d="m108.322 23.866h3.186v17.502h-3.186z"/><path d="m98.764 14.32h3.186v17.502h-3.186z"/><path d="m9.558 14.32h3.186v17.502h-3.186z"/><path d="m16.726 7.16h3.186v17.502h-3.186z"/><path d="m91.595 7.16h3.186v17.502h-3.186z"/></g><path d="m102.746 377.089h111.508v15.911h-111.508z" fill="#fff"/><g transform="translate(113.897 113.763)"><path d="m7.965 0h73.276v71.599h-73.276z" fill="#ecf0f1"/><path d="m9.558 62.617h6.372v8.983h-6.372v-8.982zm0-10.265h6.372v8.982h-6.372zm0-10.265h6.372v8.982h-6.372zm0-10.265h6.372v8.982h-6.372zm63.718 30.795h6.372v8.983h-6.372v-8.982zm0-10.265h6.372v8.982h-6.372zm0-10.265h6.372v8.982h-6.372zm0-10.265h6.372v8.982h-6.372z" fill="#2c97de"/><path d="m23.96 48.37h6.306v8.91h-6.305v-8.91zm-7.566 0h6.306v8.91h-6.306zm7.567-10.184h6.305v8.91h-6.305zm-7.567 0h6.306v8.91h-6.306zm7.567-10.183h6.305v8.91h-6.305zm-7.567 0h6.306v8.91h-6.306zm7.567-10.183h6.305v8.91h-6.305zm-7.567 0h6.306v8.91h-6.306zm-8.827 30.55h6.305v8.91h-6.305zm-7.567 0h6.305v8.91h-6.305zm7.567-10.184h6.305v8.91h-6.305zm-7.567 0h6.305v8.91h-6.305zm7.567-10.183h6.305v8.91h-6.305zm-7.567 0h6.305v8.91h-6.305zm7.567-10.183h6.305v8.91h-6.305zm-7.567 0h6.305v8.91h-6.305zm.003-2.546a15.07 15.07 0 0 1 -.003-.318c0-8.26 6.775-14.956 15.133-14.956s15.133 6.696 15.133 14.956c0 .107 0 .213-.003.318z" fill="#2c97de" transform="translate(29.47 14.32)"/><g fill="#fff"><path d="m0 0h7.965v72.395h-7.965z"/><path d="m81.241 0h7.965v72.395h-7.965z"/><path d="m17.523 0h7.965v72.395h-7.965z"/><path d="m63.719 0h7.965v72.395h-7.965z"/></g><ellipse cx="12.744" cy="22.275" fill="#2c97de" rx="3.982" ry="3.978"/><ellipse cx="76.462" cy="22.275" fill="#2c97de" rx="3.982" ry="3.978"/></g><path d="m113.897 105.808h89.206v7.955h-89.206z" fill="#fff"/><path d="m113.897 99.443h89.206v7.955h-89.206z" fill="#ecf0f1"/><path d="m147.35 54.893h22.3c18.957 0 33.453 44.55 33.453 44.55h-89.206s11.15-44.55 33.452-44.55z" fill="#8f3faf"/><g transform="translate(144.004 62.69)"><path d="m0 14.355c0-7.928 6.49-14.355 14.496-14.355s14.496 6.427 14.496 14.355v17.945h-28.992z" fill="#fff"/><ellipse cx="14.496" cy="14.355" fill="#2c97de" rx="9.06" ry="8.972"/></g><path d="m145.756 31.822h27.08v23.071h-27.08z" fill="#fff"/><path d="m152.128 42.871c0-3.905 3.21-7.071 7.168-7.071 3.96 0 7.169 3.166 7.169 7.071v8.84h-14.337z" fill="#2b3e51"/><g fill="#8f3faf"><path d="m159.296482 15.9109312 19.115578 15.9109311h-38.231155z"/><path d="m159.296482 0 3.18593 31.8218623h-6.371859z"/></g></g></g></svg>