<svg width="600" height="600" xmlns="http://www.w3.org/2000/svg" xmlns:xlink="http://www.w3.org/1999/xlink"><defs><circle id="a" cx="225" cy="225" r="225"/><path d="M0 11.775C0 5.272 5.358 0 11.968 0v11.775H0z" id="c"/><path d="M11.968 11.775H0V0c6.61 0 11.968 5.272 11.968 11.775z" id="e"/></defs><g fill="none" fill-rule="evenodd"><g transform="translate(76 75)"><mask id="b" fill="#fff"><use xlink:href="#a"/></mask><use fill="#2C97DE" xlink:href="#a"/><path fill="#1FCE6D" mask="url(#b)" d="M28 349h397v131H28z"/><g transform="translate(3 40)" fill="#FFF"><path d="M16 37h80v22H16z"/><circle cx="95" cy="45" r="14"/><circle cx="15.5" cy="43.5" r="15.5"/><circle cx="69.5" cy="29.5" r="29.5"/><circle cx="32.5" cy="31.5" r="11.5"/></g><g transform="translate(341 69)" fill="#FFF"><path d="M16 37h80v22H16z"/><circle cx="95" cy="45" r="14"/><circle cx="15.5" cy="43.5" r="15.5"/><circle cx="69.5" cy="29.5" r="29.5"/><circle cx="32.5" cy="31.5" r="11.5"/></g><path d="M72.314 113.5h65.172M36 113.5h12.283" fill="#FFE500" stroke="#FFF" stroke-linecap="round" stroke-linejoin="round" stroke-width="5"/><path d="M351.314 142.5h65.172m-91.486 0h12.283" fill="#FFE500" stroke="#FFF" stroke-linecap="round" stroke-linejoin="round" stroke-width="5"/><path d="M324.592 27h46.045m-58.194 0h2.235" fill="#FFE500" stroke="#FFF" stroke-linecap="round" stroke-linejoin="round" stroke-width="5"/></g><g transform="translate(248 27)"><path fill="#FFF" d="M25.645 74.017h51.29v11.775h-51.29z"/><path fill="#ECF0F1" d="M37.613 62.242h27.355v11.775H37.613zm-5.13 23.55h37.614l6.838 151.399h-51.29z"/><path fill="#ECF0F1" d="M20.516 233.826h61.548v70.653H20.516zm-3.419 80.746h68.387v31.962H17.097z"/><path fill="#FFF" d="M13.677 346.534h75.226v16.822H13.677zM0 380.178h106V397H0z"/><path fill="#ECF0F1" d="M6.839 363.356h88.903v16.822H6.839z"/><path fill="#FFF" d="M17.097 223.733h68.387l-3.42 16.822H20.517z"/><ellipse fill="#FFF" cx="51.29" cy="223.733" rx="11.968" ry="11.775"/><ellipse fill="#F2C500" cx="51.29" cy="220.369" rx="5.129" ry="5.047"/><g transform="translate(73.516 211.958)"><mask id="d" fill="#fff"><use xlink:href="#c"/></mask><use fill="#FFF" xlink:href="#c"/><ellipse fill="#F2C500" mask="url(#d)" cx="11.968" cy="8.411" rx="5.129" ry="5.047"/></g><g transform="translate(17.097 211.958)"><mask id="f" fill="#fff"><use xlink:href="#e"/></mask><use fill="#FFF" xlink:href="#e"/><ellipse fill="#F2C500" mask="url(#f)" cy="8.411" rx="5.129" ry="5.047"/></g><path d="M20.516 230.462c-.944 0-1.71-.753-1.71-1.682 0-.93.766-1.683 1.71-1.683s1.71.754 1.71 1.683-.766 1.682-1.71 1.682zm13.678 0c-.945 0-1.71-.753-1.71-1.682 0-.93.765-1.683 1.71-1.683.944 0 1.71.754 1.71 1.683s-.766 1.682-1.71 1.682zm13.677 0c-.944 0-1.71-.753-1.71-1.682 0-.93.766-1.683 1.71-1.683s1.71.754 1.71 1.683-.766 1.682-1.71 1.682zm13.677 0c-.944 0-1.71-.753-1.71-1.682 0-.93.766-1.683 1.71-1.683.945 0 1.71.754 1.71 1.683s-.765 1.682-1.71 1.682zm13.678 0c-.944 0-1.71-.753-1.71-1.682 0-.93.766-1.683 1.71-1.683s1.71.754 1.71 1.683-.766 1.682-1.71 1.682zm-47.871 0c-.944 0-1.71-.753-1.71-1.682 0-.93.766-1.683 1.71-1.683s1.71.754 1.71 1.683-.766 1.682-1.71 1.682zm13.677 0c-.944 0-1.71-.753-1.71-1.682 0-.93.766-1.683 1.71-1.683s1.71.754 1.71 1.683-.766 1.682-1.71 1.682zm13.678 0c-.945 0-1.71-.753-1.71-1.682 0-.93.765-1.683 1.71-1.683.944 0 1.71.754 1.71 1.683s-.766 1.682-1.71 1.682zm13.677 0c-.944 0-1.71-.753-1.71-1.682 0-.93.766-1.683 1.71-1.683s1.71.754 1.71 1.683-.766 1.682-1.71 1.682zm13.678 0c-.945 0-1.71-.753-1.71-1.682 0-.93.765-1.683 1.71-1.683.944 0 1.71.754 1.71 1.683s-.766 1.682-1.71 1.682zm-58.13 10.093c0-4.645 1.531-8.41 3.42-8.41 1.888 0 3.42 3.765 3.42 8.41h-6.84zm11.968 0c0-4.645 1.531-8.41 3.42-8.41 1.888 0 3.419 3.765 3.419 8.41h-6.839zm23.936 0c0-4.645 1.53-8.41 3.42-8.41 1.888 0 3.418 3.765 3.418 8.41H59.84zm11.967 0c0-4.645 1.531-8.41 3.42-8.41 1.888 0 3.42 3.765 3.42 8.41h-6.84zm-23.935 0c0-4.645 1.53-8.41 3.42-8.41 1.888 0 3.419 3.765 3.419 8.41h-6.84z" fill="#F2C500"/><path fill="#FFF" d="M18.806 240.555h66.677v5.047H18.806z"/><path d="M64.968 260.742v28.597h3.42v6.729h-6.84v-3.365H41.032v3.365h-6.838v-6.729h3.419v-28.597h-3.42v-6.73h6.84v2.103l6.838-2.523v-4.626h6.839v4.626l6.838 2.523v-2.102h6.84v6.729h-3.42zm-22.226 1.682v25.233h17.097v-25.233l-8.549-3.365-8.548 3.365z" fill="#F2C500"/><path fill="#FFF" d="M20.516 304.479h61.549l3.419 10.093H17.097z"/><path fill="#F2C500" d="M49.581 105.979H53v105.979h-3.419zm-3.42-20.187h10.258v15.14H46.161zm18.807 0h10.258l-3.42 15.14h-6.838z"/><path fill="#F2C500" d="M37.613 85.792H27.355l3.42 15.14h6.838z"/><path fill="#F2C500" d="M51.29 0l6.839 62.242H44.452z"/></g></g></svg>